# Adapted CC0 source; see SOURCES.json
mtllib ak74.mtl
v -0.035284 0.021198 -0.260915
v 0.035284 0.021198 -0.260915
v -0.028229 0.028969 0.281087
v 0.028229 0.028969 0.281087
v -0.028229 0.020979 -0.305534
v 0.028229 0.020979 -0.305534
v -0.028229 0.065344 0.218595
v 0.028229 0.065344 0.218595
v 0.028229 0.028969 0.216288
v -0.028229 0.028969 0.216288
v -0.022452 -0.038005 -0.258254
v 0.022452 -0.038005 -0.258254
v -0.022452 -0.038005 -0.322768
v 0.022452 -0.038005 -0.322768
v -0.022452 -0.038005 -0.550521
v 0.022452 -0.038005 -0.550521
v -0.022452 0.037553 -0.258254
v 0.022452 0.037553 -0.258254
v -0.022452 0.037553 -0.322768
v 0.022452 0.037553 -0.322768
v -0.022452 0.037553 -0.550521
v 0.022452 0.037553 -0.550521
v 0.030126 0.041810 -0.428437
v -0.030126 0.041810 -0.428437
v -0.018802 -0.126486 0.116410
v 0.018802 -0.126486 0.116410
v 0.018802 -0.068607 0.116410
v -0.018802 -0.068607 0.116410
v -0.018802 -0.126486 0.109465
v 0.018802 -0.126486 0.109465
v 0.018802 -0.068607 0.109465
v -0.018802 -0.068607 0.109465
v -0.018802 -0.135203 0.112741
v 0.018802 -0.135203 0.112741
v -0.018802 -0.131104 0.107133
v 0.018802 -0.131104 0.107133
v -0.018802 -0.140306 0.105971
v 0.018802 -0.140306 0.105971
v -0.018802 -0.133408 0.105157
v 0.018802 -0.133408 0.105157
v -0.018802 -0.141316 0.097091
v 0.018802 -0.141316 0.097091
v -0.018802 -0.134396 0.097091
v 0.018802 -0.134396 0.097091
v -0.018802 -0.141316 0.010742
v 0.018802 -0.141316 0.010742
v -0.018802 -0.134396 0.010742
v 0.018802 -0.134396 0.010742
v -0.018802 -0.137836 0.001816
v 0.018802 -0.137836 0.001816
v -0.018802 -0.131875 0.005333
v 0.018802 -0.131875 0.005333
v -0.018802 -0.127498 -0.006989
v 0.018802 -0.127498 -0.006989
v -0.018802 -0.125900 -0.000255
v 0.018802 -0.125900 -0.000255
v -0.018802 -0.117575 -0.008046
v 0.018802 -0.117575 -0.008046
v -0.018802 -0.117575 -0.001312
v 0.018802 -0.117575 -0.001312
v -0.018802 -0.063232 -0.008046
v 0.018802 -0.063232 -0.008046
v -0.018802 -0.063232 -0.001312
v 0.018802 -0.063232 -0.001312
v -0.018802 -0.063232 -0.043720
v 0.018802 -0.063232 -0.043720
v -0.018802 -0.109179 -0.043720
v -0.018802 -0.117575 -0.035323
v 0.018802 -0.117575 -0.035323
v 0.018802 -0.109179 -0.043720
v -0.004530 -0.067337 0.094325
v 0.004530 -0.067337 0.094325
v -0.004530 -0.067337 0.066741
v 0.004530 -0.067337 0.066741
v -0.004530 -0.076670 0.094325
v 0.004530 -0.076670 0.094325
v -0.004530 -0.077670 0.077243
v 0.004530 -0.077670 0.077243
v 0.004530 -0.067337 0.084870
v -0.004530 -0.067337 0.084870
v 0.004530 -0.077013 0.088470
v -0.004530 -0.077013 0.088470
v -0.004530 -0.085963 0.081631
v 0.004530 -0.085963 0.081631
v 0.004530 -0.086472 0.089691
v -0.004530 -0.086472 0.089691
v -0.004530 -0.095471 0.080722
v 0.004530 -0.095471 0.080722
v 0.004530 -0.095980 0.087397
v -0.004530 -0.095980 0.087397
v -0.004530 -0.100751 0.079652
v 0.004530 -0.100751 0.079652
v 0.004530 -0.103854 0.083542
v -0.004530 -0.103854 0.083542
v -0.004530 -0.107658 0.074538
v 0.004530 -0.107658 0.074538
v 0.004530 -0.110761 0.078427
v -0.004530 -0.110761 0.078427
v -0.004530 -0.113570 0.067978
v 0.004530 -0.113570 0.067978
v 0.004530 -0.116673 0.070301
v -0.004530 -0.116673 0.070301
v -0.004530 -0.117071 0.058512
v 0.004530 -0.117071 0.058512
v 0.004530 -0.120174 0.060835
v -0.004530 -0.120174 0.060835
v -0.035284 0.060743 -0.260915
v 0.035284 0.060743 -0.260915
v 0.025756 0.069620 -0.260915
v -0.025756 0.069620 -0.260915
v 0.035284 0.021198 0.266646
v 0.026810 0.021198 0.283752
v -0.026810 0.021198 0.283752
v -0.035284 0.021198 0.266646
v -0.025756 0.084718 0.219362
v -0.017281 0.100289 0.215206
v 0.025756 0.084718 0.219362
v 0.017281 0.100289 0.215206
v -0.025756 0.084718 -0.260915
v -0.017281 0.100289 -0.260915
v 0.017281 0.100289 -0.260915
v 0.025756 0.084718 -0.260915
v -0.026810 0.060743 0.269202
v -0.035284 0.060743 0.252096
v 0.035284 0.060743 0.252096
v 0.026810 0.060743 0.269202
v -0.025756 0.069620 0.239976
v -0.017281 0.069620 0.257081
v 0.017281 0.069620 0.257081
v 0.025756 0.069620 0.239976
v 0.017703 -0.076757 0.269971
v 0.025316 -0.075863 0.254084
v -0.025316 -0.075863 0.254084
v -0.017703 -0.076757 0.269971
v -0.017703 -0.067028 0.106336
v -0.025316 -0.068240 0.118591
v 0.025316 -0.068240 0.118591
v 0.017703 -0.067028 0.106336
v 0.016317 -0.118746 0.242230
v 0.023333 -0.118084 0.226692
v -0.023333 -0.118084 0.226692
v -0.016317 -0.118746 0.242230
v -0.023333 -0.114136 0.134118
v -0.016317 -0.113346 0.115611
v 0.016317 -0.113346 0.115611
v 0.023333 -0.114136 0.134118
v 0.016317 -0.237807 0.281747
v 0.023333 -0.242104 0.267986
v -0.023333 -0.242104 0.267986
v -0.016317 -0.237807 0.281747
v -0.016317 -0.265349 0.193556
v -0.023333 -0.260224 0.209966
v 0.023333 -0.260224 0.209966
v 0.016317 -0.265349 0.193556
v -0.016317 -0.145983 0.249109
v -0.023333 -0.145178 0.233535
v 0.016317 -0.145983 0.249109
v 0.023333 -0.145178 0.233535
v 0.016317 -0.140683 0.146532
v 0.023333 -0.141650 0.165239
v -0.016317 -0.140683 0.146532
v -0.023333 -0.141650 0.165239
v 0.016317 -0.267278 0.270935
v 0.016317 -0.285873 0.251103
v 0.023333 -0.267805 0.258557
v -0.016317 -0.267278 0.270935
v -0.023333 -0.267805 0.258557
v -0.016317 -0.285873 0.251103
v -0.023333 -0.278158 0.223517
v -0.016317 -0.283887 0.207563
v -0.016317 -0.291716 0.231327
v 0.023333 -0.278158 0.223517
v 0.016317 -0.291716 0.231327
v 0.016317 -0.283887 0.207563
v 0.023333 -0.091583 0.229690
v 0.016317 -0.091712 0.245289
v 0.023333 -0.090737 0.127400
v 0.016317 -0.090663 0.112594
v -0.016317 -0.091712 0.245289
v -0.023333 -0.091583 0.229690
v -0.016317 -0.090663 0.112594
v -0.023333 -0.090737 0.127400
v 0.024071 -0.082941 0.274763
v 0.028229 -0.073940 0.275272
v -0.028229 -0.073940 0.275272
v -0.024071 -0.082941 0.274763
v -0.024071 -0.047703 -0.304167
v -0.028229 -0.038661 -0.304347
v 0.028229 -0.038661 -0.304347
v 0.024071 -0.047703 -0.304167
v -0.028229 -0.070045 0.211270
v -0.024071 -0.079048 0.210814
v 0.028229 -0.070045 0.211270
v 0.024071 -0.079048 0.210814
v -0.030126 -0.023694 -0.324871
v -0.021563 -0.042262 -0.324871
v -0.027618 -0.036823 -0.324871
v 0.021563 -0.042262 -0.324871
v 0.030126 -0.023694 -0.324871
v 0.027618 -0.036823 -0.324871
v -0.021563 -0.042401 -0.542619
v -0.030126 -0.023694 -0.561186
v -0.027618 -0.036864 -0.555748
v 0.021563 -0.042401 -0.542619
v 0.030126 -0.023694 -0.561186
v 0.027618 -0.036864 -0.555748
v -0.030126 -0.025576 -0.428437
v -0.021563 -0.044143 -0.428437
v -0.027618 -0.038705 -0.428437
v 0.021563 -0.044143 -0.428437
v 0.030126 -0.025576 -0.428437
v 0.027618 -0.038705 -0.428437
v -0.030126 0.019429 -0.324871
v -0.030126 0.041810 -0.347252
v -0.030126 0.035254 -0.331426
v 0.030126 0.041810 -0.347252
v 0.030126 0.019429 -0.324871
v 0.030126 0.035254 -0.331426
v -0.030126 0.041810 -0.538805
v -0.030126 0.019429 -0.561186
v -0.030126 0.035254 -0.554631
v 0.030126 0.019429 -0.561186
v 0.030126 0.041810 -0.538805
v 0.030126 0.035254 -0.554631
v -0.018822 0.111737 -0.427965
v -0.030126 0.087217 -0.427965
v -0.026815 0.104555 -0.427965
v 0.030126 0.087217 -0.427965
v 0.018822 0.111737 -0.427965
v 0.026815 0.104555 -0.427965
v 0.018822 0.104774 -0.561263
v 0.030126 0.080254 -0.561263
v 0.026815 0.097593 -0.561263
v -0.030126 0.080254 -0.561263
v -0.018822 0.104774 -0.561263
v -0.026815 0.097593 -0.561263
v -0.011039 0.097371 -0.258254
v -0.022452 0.072623 -0.258254
v -0.019109 0.090122 -0.258254
v 0.022452 0.072623 -0.258254
v 0.011039 0.097371 -0.258254
v 0.019109 0.090122 -0.258254
v -0.011039 0.097371 -0.322768
v -0.022452 0.072623 -0.322768
v -0.019109 0.090122 -0.322768
v 0.022452 0.072623 -0.322768
v 0.011039 0.097371 -0.322768
v 0.019109 0.090122 -0.322768
v -0.022452 0.072623 -0.550521
v -0.011039 0.097371 -0.550521
v -0.019109 0.090122 -0.550521
v 0.011039 0.097371 -0.550521
v 0.022452 0.072623 -0.550521
v 0.019109 0.090122 -0.550521
v 0.017703 -0.087742 0.106336
v 0.025316 -0.087929 0.122038
v -0.025316 -0.087929 0.122038
v -0.017703 -0.087742 0.106336
v 0.017703 -0.089695 0.252174
v 0.025316 -0.089484 0.235349
v -0.025316 -0.089484 0.235349
v -0.017703 -0.089695 0.252174
v -0.018563 0.068627 -0.549680
v -0.018563 0.068627 -0.607540
v -0.015018 0.057716 -0.549680
v -0.015018 0.057716 -0.607540
v -0.005737 0.050973 -0.549680
v -0.005737 0.050973 -0.607540
v 0.005736 0.050973 -0.549680
v 0.005736 0.050973 -0.607540
v 0.015018 0.057716 -0.549680
v 0.015018 0.057716 -0.607540
v 0.018563 0.068627 -0.549680
v 0.018563 0.068627 -0.607540
v 0.015018 0.079539 -0.549680
v 0.015018 0.079539 -0.607540
v 0.005736 0.086283 -0.549680
v 0.005736 0.086283 -0.607540
v -0.005737 0.086283 -0.549680
v -0.005737 0.086283 -0.607540
v -0.015018 0.079539 -0.549680
v -0.015018 0.079539 -0.607540
v -0.012496 0.059549 -0.607540
v -0.015446 0.068627 -0.607540
v -0.004773 0.053938 -0.607540
v 0.004773 0.053938 -0.607540
v 0.012496 0.059549 -0.607540
v 0.015446 0.068627 -0.607540
v 0.012496 0.077707 -0.607540
v 0.004773 0.083318 -0.607540
v -0.004773 0.083318 -0.607540
v -0.012496 0.077707 -0.607540
v -0.012496 0.059549 -0.613397
v -0.015446 0.068627 -0.613397
v -0.004773 0.053938 -0.613396
v 0.004773 0.053938 -0.613396
v 0.012496 0.059549 -0.613397
v 0.015446 0.068627 -0.613397
v 0.012496 0.077707 -0.613397
v 0.004773 0.083318 -0.613396
v -0.004773 0.083318 -0.613396
v -0.012496 0.077707 -0.613397
v -0.017312 0.056050 -0.613397
v -0.021399 0.068627 -0.613397
v -0.006613 0.048276 -0.613397
v 0.006613 0.048276 -0.613397
v 0.017312 0.056050 -0.613397
v 0.021398 0.068627 -0.613397
v 0.017312 0.081206 -0.613397
v 0.006613 0.088979 -0.613397
v -0.006613 0.088979 -0.613397
v -0.017312 0.081206 -0.613397
v -0.017312 0.056050 -0.674213
v -0.021399 0.068627 -0.674213
v -0.006613 0.048276 -0.674213
v 0.006613 0.048276 -0.674213
v 0.017312 0.056050 -0.674213
v 0.021398 0.068627 -0.674213
v 0.017312 0.081206 -0.674213
v 0.006613 0.088979 -0.674213
v -0.006613 0.088979 -0.674213
v -0.017312 0.081206 -0.674213
v -0.018563 0.014569 -0.549680
v -0.018563 0.014569 -0.833977
v -0.015018 0.003658 -0.549680
v -0.015018 0.003658 -0.833977
v -0.005737 -0.003086 -0.549680
v -0.005737 -0.003086 -0.833977
v 0.005736 -0.003086 -0.549680
v 0.005736 -0.003086 -0.833977
v 0.015018 0.003658 -0.549680
v 0.015018 0.003658 -0.833977
v 0.018563 0.014569 -0.549680
v 0.018563 0.014569 -0.833977
v 0.015018 0.025480 -0.549680
v 0.015018 0.025480 -0.833977
v 0.005736 0.032224 -0.549680
v 0.005736 0.032224 -0.833977
v -0.005737 0.032224 -0.549680
v -0.005737 0.032224 -0.833977
v -0.015018 0.025480 -0.549680
v -0.015018 0.025480 -0.833977
v -0.013935 0.014569 -0.833977
v -0.011273 0.006378 -0.833977
v -0.004306 0.001316 -0.833977
v 0.004306 0.001316 -0.833977
v 0.011273 0.006378 -0.833977
v 0.013934 0.014569 -0.833977
v 0.011273 0.022759 -0.833977
v 0.004306 0.027821 -0.833977
v -0.004306 0.027821 -0.833977
v -0.011273 0.022759 -0.833977
v -0.013935 0.014569 -0.674213
v -0.011273 0.006378 -0.674213
v -0.004306 0.001316 -0.674213
v 0.004306 0.001316 -0.674213
v 0.011273 0.006378 -0.674213
v 0.013934 0.014569 -0.674213
v 0.011273 0.022759 -0.674213
v 0.004306 0.027821 -0.674213
v -0.004306 0.027821 -0.674213
v -0.011273 0.022759 -0.674213
v -0.018563 0.014569 -0.735935
v -0.015018 0.003658 -0.735935
v -0.005737 -0.003086 -0.735936
v 0.005736 -0.003086 -0.735936
v 0.015018 0.003658 -0.735935
v 0.018563 0.014569 -0.735935
v 0.015018 0.025480 -0.735936
v 0.005736 0.032224 -0.735935
v -0.005737 0.032224 -0.735935
v -0.015018 0.025480 -0.735936
v -0.018563 0.014569 -0.804482
v -0.015018 0.003658 -0.804482
v -0.005737 -0.003086 -0.804482
v 0.005736 -0.003086 -0.804482
v 0.015018 0.003658 -0.804482
v 0.018563 0.014569 -0.804482
v 0.015018 0.025480 -0.804482
v 0.005736 0.032224 -0.804482
v -0.005737 0.032224 -0.804482
v -0.015018 0.025480 -0.804482
v -0.017855 0.001597 -0.801250
v -0.017855 0.001597 -0.739167
v -0.006820 -0.006420 -0.801250
v -0.006820 -0.006421 -0.739167
v 0.006820 -0.006420 -0.801250
v 0.006820 -0.006421 -0.739167
v 0.017855 0.001597 -0.801250
v 0.017855 0.001597 -0.739167
v 0.022069 0.014569 -0.801250
v 0.022069 0.014569 -0.739167
v 0.017855 0.027541 -0.801250
v 0.017855 0.027541 -0.739167
v 0.006820 0.035558 -0.801250
v 0.006820 0.035558 -0.739167
v -0.006820 0.035558 -0.801250
v -0.006820 0.035558 -0.739167
v -0.017855 0.027541 -0.801250
v -0.017855 0.027541 -0.739167
v -0.022069 0.014569 -0.739167
v -0.022069 0.014569 -0.801250
v -0.012160 0.029212 -0.744707
v -0.012160 0.029212 -0.801444
v 0.012160 0.029212 -0.744707
v 0.012160 0.029212 -0.801444
v 0.006849 0.104771 -0.801444
v -0.006849 0.104771 -0.801444
v 0.006849 0.104771 -0.770126
v -0.006849 0.104771 -0.770126
v 0.010759 0.109575 -0.801444
v -0.010759 0.109575 -0.801444
v 0.010759 0.109575 -0.770126
v -0.010759 0.109575 -0.770126
v 0.010759 0.109575 -0.801444
v -0.010759 0.109575 -0.801444
v 0.010759 0.109575 -0.770126
v -0.010759 0.109575 -0.770126
v -0.007339 0.066991 -0.801444
v -0.007339 0.066991 -0.757416
v 0.007339 0.066991 -0.757416
v 0.007339 0.066991 -0.801444
v 0.003586 0.109575 -0.801444
v -0.003586 0.109575 -0.801444
v 0.003586 0.109575 -0.770126
v -0.003586 0.109575 -0.770126
v -0.003586 0.115926 -0.801444
v -0.010759 0.115926 -0.801444
v 0.010759 0.115926 -0.801444
v 0.010759 0.115926 -0.770126
v -0.010759 0.115926 -0.770126
v -0.003586 0.115926 -0.770126
v 0.003586 0.115926 -0.801444
v 0.003586 0.115926 -0.770126
v -0.006613 0.056863 -0.620410
v 0.006613 0.056863 -0.620410
v -0.006613 0.056863 -0.675126
v 0.006613 0.056863 -0.675126
v 0.006613 0.041625 -0.639483
v -0.006613 0.041625 -0.639483
v 0.006613 0.043038 -0.694693
v -0.006613 0.043038 -0.694693
v 0.006613 0.023681 -0.649584
v -0.006613 0.023681 -0.649584
v 0.006613 0.035023 -0.726006
v -0.006613 0.035023 -0.726006
v 0.006613 0.020550 -0.655316
v -0.006613 0.020550 -0.655316
v 0.006613 0.021559 -0.728061
v -0.006613 0.021559 -0.728061
v -0.028229 0.065344 -0.269146
v -0.028229 0.028383 -0.305630
v -0.028229 0.054518 -0.295143
v 0.028229 0.028383 -0.305630
v 0.028229 0.065344 -0.269146
v 0.028229 0.054518 -0.295143
v 0.010672 -0.315260 -0.084578
v -0.010672 -0.315260 -0.084578
v -0.008435 -0.325250 -0.156770
v 0.008435 -0.325250 -0.156770
v -0.008435 -0.323851 -0.146658
v 0.008435 -0.323851 -0.146658
v -0.010672 -0.323391 -0.143334
v 0.010672 -0.323391 -0.143334
v 0.012416 -0.314790 -0.081188
v -0.012416 -0.314790 -0.081188
v -0.012416 -0.323685 -0.145462
v 0.009813 -0.324189 -0.149098
v 0.009813 -0.325719 -0.160160
v -0.009813 -0.325719 -0.160160
v -0.009813 -0.324189 -0.149098
v 0.012416 -0.323685 -0.145462
v 0.012416 -0.326750 -0.079532
v -0.012416 -0.326750 -0.079532
v -0.012416 -0.335645 -0.143807
v 0.009813 -0.336149 -0.147443
v 0.009813 -0.337679 -0.158505
v -0.009813 -0.337679 -0.158505
v -0.009813 -0.336149 -0.147443
v 0.012416 -0.335645 -0.143807
v 0.010672 -0.083350 -0.180363
v -0.010672 -0.083350 -0.180363
v 0.008435 -0.083810 -0.183686
v -0.008435 -0.083810 -0.183686
v 0.008435 -0.085210 -0.193799
v -0.008435 -0.085210 -0.193799
v -0.010672 -0.075219 -0.121607
v 0.010672 -0.075219 -0.121607
v 0.012488 -0.083597 -0.182148
v -0.012488 -0.083597 -0.182148
v 0.009870 -0.084136 -0.186038
v -0.009870 -0.084136 -0.186038
v 0.009870 -0.085773 -0.197870
v -0.009870 -0.085773 -0.197870
v -0.012488 -0.074083 -0.113398
v 0.012488 -0.074083 -0.113398
v 0.012488 -0.021942 -0.191208
v -0.012488 -0.021942 -0.191208
v 0.009870 -0.022480 -0.195098
v -0.009870 -0.022480 -0.195098
v 0.009870 -0.024118 -0.206930
v -0.009870 -0.024118 -0.206930
v -0.012488 -0.012428 -0.122458
v 0.012488 -0.012428 -0.122458
v -0.015165 0.099319 0.192181
v 0.015165 0.099319 0.192181
v -0.015165 0.099319 0.180336
v 0.015165 0.099319 0.180336
v -0.012311 0.114940 0.192181
v -0.015165 0.110239 0.192181
v -0.015165 0.110239 0.180336
v -0.012311 0.114940 0.180336
v 0.012311 0.114940 0.180336
v 0.015165 0.110239 0.180336
v 0.015165 0.110239 0.192181
v 0.012311 0.114940 0.192181
v -0.015165 0.099319 0.160197
v 0.015165 0.099319 0.160197
v -0.015165 0.099319 0.148351
v 0.015165 0.099319 0.148351
v -0.012311 0.114940 0.160197
v -0.015165 0.110239 0.160197
v -0.015165 0.110239 0.148351
v -0.012311 0.114940 0.148351
v 0.012311 0.114940 0.148351
v 0.015165 0.110239 0.148351
v 0.015165 0.110239 0.160197
v 0.012311 0.114940 0.160197
v -0.015165 0.099319 0.128213
v 0.015165 0.099319 0.128213
v -0.015165 0.099319 0.116367
v 0.015165 0.099319 0.116367
v -0.012311 0.114940 0.128213
v -0.015165 0.110239 0.128213
v -0.015165 0.110239 0.116367
v -0.012311 0.114940 0.116367
v 0.012311 0.114940 0.116367
v 0.015165 0.110239 0.116367
v 0.015165 0.110239 0.128213
v 0.012311 0.114940 0.128213
v -0.015165 0.099319 0.096229
v 0.015165 0.099319 0.096229
v -0.015165 0.099319 0.084383
v 0.015165 0.099319 0.084383
v -0.012311 0.114940 0.096229
v -0.015165 0.110239 0.096229
v -0.015165 0.110239 0.084383
v -0.012311 0.114940 0.084383
v 0.012311 0.114940 0.084383
v 0.015165 0.110239 0.084383
v 0.015165 0.110239 0.096229
v 0.012311 0.114940 0.096229
v -0.015165 0.099319 0.064244
v 0.015165 0.099319 0.064244
v -0.015165 0.099319 0.052398
v 0.015165 0.099319 0.052398
v -0.012311 0.114940 0.064244
v -0.015165 0.110239 0.064244
v -0.015165 0.110239 0.052398
v -0.012311 0.114940 0.052398
v 0.012311 0.114940 0.052398
v 0.015165 0.110239 0.052398
v 0.015165 0.110239 0.064244
v 0.012311 0.114940 0.064244
v -0.015165 0.099319 0.032260
v 0.015165 0.099319 0.032260
v -0.015165 0.099319 0.020414
v 0.015165 0.099319 0.020414
v -0.012311 0.114940 0.032260
v -0.015165 0.110239 0.032260
v -0.015165 0.110239 0.020414
v -0.012311 0.114940 0.020414
v 0.012311 0.114940 0.020414
v 0.015165 0.110239 0.020414
v 0.015165 0.110239 0.032260
v 0.012311 0.114940 0.032260
v -0.015165 0.099319 0.000276
v 0.015165 0.099319 0.000276
v -0.015165 0.099319 -0.011570
v 0.015165 0.099319 -0.011570
v -0.012311 0.114940 0.000276
v -0.015165 0.110239 0.000276
v -0.015165 0.110239 -0.011570
v -0.012311 0.114940 -0.011570
v 0.012311 0.114940 -0.011570
v 0.015165 0.110239 -0.011570
v 0.015165 0.110239 0.000276
v 0.012311 0.114940 0.000276
v -0.015165 0.099319 -0.031708
v 0.015165 0.099319 -0.031708
v -0.015165 0.099319 -0.043554
v 0.015165 0.099319 -0.043554
v -0.012311 0.114940 -0.031708
v -0.015165 0.110239 -0.031708
v -0.015165 0.110239 -0.043554
v -0.012311 0.114940 -0.043554
v 0.012311 0.114940 -0.043554
v 0.015165 0.110239 -0.043554
v 0.015165 0.110239 -0.031708
v 0.012311 0.114940 -0.031708
v -0.015165 0.099319 -0.063693
v 0.015165 0.099319 -0.063693
v -0.015165 0.099319 -0.075538
v 0.015165 0.099319 -0.075538
v -0.012311 0.114940 -0.063693
v -0.015165 0.110239 -0.063693
v -0.015165 0.110239 -0.075538
v -0.012311 0.114940 -0.075538
v 0.012311 0.114940 -0.075538
v 0.015165 0.110239 -0.075538
v 0.015165 0.110239 -0.063693
v 0.012311 0.114940 -0.063693
v -0.015165 0.099319 -0.095677
v 0.015165 0.099319 -0.095677
v -0.015165 0.099319 -0.107523
v 0.015165 0.099319 -0.107523
v -0.012311 0.114940 -0.095677
v -0.015165 0.110239 -0.095677
v -0.015165 0.110239 -0.107523
v -0.012311 0.114940 -0.107523
v 0.012311 0.114940 -0.107523
v 0.015165 0.110239 -0.107523
v 0.015165 0.110239 -0.095677
v 0.012311 0.114940 -0.095677
v -0.015165 0.099319 -0.127661
v 0.015165 0.099319 -0.127661
v -0.015165 0.099319 -0.139507
v 0.015165 0.099319 -0.139507
v -0.012311 0.114940 -0.127661
v -0.015165 0.110239 -0.127661
v -0.015165 0.110239 -0.139507
v -0.012311 0.114940 -0.139507
v 0.012311 0.114940 -0.139507
v 0.015165 0.110239 -0.139507
v 0.015165 0.110239 -0.127661
v 0.012311 0.114940 -0.127661
v -0.015165 0.099319 -0.159645
v 0.015165 0.099319 -0.159645
v -0.015165 0.099319 -0.171491
v 0.015165 0.099319 -0.171491
v -0.012311 0.114940 -0.159645
v -0.015165 0.110239 -0.159645
v -0.015165 0.110239 -0.171491
v -0.012311 0.114940 -0.171491
v 0.012311 0.114940 -0.171491
v 0.015165 0.110239 -0.171491
v 0.015165 0.110239 -0.159645
v 0.012311 0.114940 -0.159645
v -0.015165 0.099319 -0.191629
v 0.015165 0.099319 -0.191629
v -0.015165 0.099319 -0.203476
v 0.015165 0.099319 -0.203476
v -0.012311 0.114940 -0.191629
v -0.015165 0.110239 -0.191629
v -0.015165 0.110239 -0.203476
v -0.012311 0.114940 -0.203476
v 0.012311 0.114940 -0.203476
v 0.015165 0.110239 -0.203476
v 0.015165 0.110239 -0.191629
v 0.012311 0.114940 -0.191629
v -0.015165 0.099319 -0.223614
v 0.015165 0.099319 -0.223614
v -0.015165 0.099319 -0.235460
v 0.015165 0.099319 -0.235460
v -0.012311 0.114940 -0.223614
v -0.015165 0.110239 -0.223614
v -0.015165 0.110239 -0.235460
v -0.012311 0.114940 -0.235460
v 0.012311 0.114940 -0.235460
v 0.015165 0.110239 -0.235460
v 0.015165 0.110239 -0.223614
v 0.012311 0.114940 -0.223614
v 0.030126 0.041810 -0.359174
v 0.030126 0.041810 -0.378740
v -0.030126 0.041810 -0.378740
v -0.030126 0.041810 -0.359174
v -0.030126 -0.039530 -0.359174
v -0.030126 -0.040995 -0.378740
v -0.021563 -0.059562 -0.378740
v -0.021563 -0.058097 -0.359174
v -0.027618 -0.052659 -0.359174
v -0.027618 -0.054124 -0.378740
v 0.021563 -0.058097 -0.359174
v 0.021563 -0.059562 -0.378740
v 0.030126 -0.040995 -0.378740
v 0.030126 -0.039530 -0.359174
v 0.027618 -0.052659 -0.359174
v 0.027618 -0.054124 -0.378740
v 0.030126 0.060023 -0.427965
v 0.030126 0.046230 -0.441758
v 0.030126 0.050270 -0.432005
v -0.030126 0.046230 -0.441758
v -0.030126 0.060023 -0.427965
v -0.030126 0.050270 -0.432005
v 0.030126 0.046230 -0.547470
v 0.030126 0.060023 -0.561263
v 0.030126 0.050270 -0.557223
v -0.030126 0.060023 -0.561263
v -0.030126 0.046230 -0.547470
v -0.030126 0.050270 -0.557223
v -0.022000 -0.010000 0.170000
v 0.022000 -0.010000 0.170000
v -0.022000 0.015000 0.170000
v 0.022000 0.015000 0.170000
v -0.022000 -0.010000 0.540000
v 0.022000 -0.010000 0.540000
v -0.022000 0.015000 0.540000
v 0.022000 0.015000 0.540000
v -0.021000 -0.170000 0.510000
v 0.021000 -0.170000 0.510000
v -0.021000 0.015000 0.510000
v 0.021000 0.015000 0.510000
v -0.021000 -0.170000 0.560000
v 0.021000 -0.170000 0.560000
v -0.021000 0.015000 0.560000
v 0.021000 0.015000 0.560000
v -0.018000 -0.170000 0.220000
v 0.018000 -0.170000 0.220000
v -0.018000 -0.148000 0.220000
v 0.018000 -0.148000 0.220000
v -0.018000 -0.170000 0.530000
v 0.018000 -0.170000 0.530000
v -0.018000 -0.148000 0.530000
v 0.018000 -0.148000 0.530000
g Body
usemtl Black
f 153 148 165
f 153 165 172
f 176 179 142
f 176 142 139
f 146 140 158
f 146 158 160
f 147 150 166
f 147 166 163
f 144 145 159
f 144 159 161
f 164 168 171
f 164 171 173
f 151 154 174
f 151 174 170
f 161 159 154
f 161 154 151
f 157 155 150
f 157 150 147
f 141 143 162
f 141 162 156
f 180 182 143
f 180 143 141
f 181 178 145
f 181 145 144
f 177 175 140
f 177 140 146
f 156 162 152
f 156 152 149
f 149 152 169
f 149 169 167
f 160 158 148
f 160 148 153
f 240 18 20
f 240 20 246
f 246 20 22
f 246 22 253
f 17 238 244
f 17 244 19
f 12 11 13
f 12 13 14
f 18 12 14
f 18 14 20
f 19 244 249
f 19 249 21
f 14 13 15
f 14 15 16
f 20 14 16
f 20 16 22
f 21 249 251
f 21 251 250
f 21 250 252
f 21 252 254
f 21 254 253
f 21 253 22
f 15 21 22
f 15 22 16
f 11 17 19
f 11 19 13
f 243 247 252
f 243 252 250
f 13 19 21
f 13 21 15
f 139 142 155
f 139 155 157
f 163 164 165
f 166 167 168
f 169 170 171
f 172 173 174
f 176 139 140
f 176 140 175
f 180 141 142
f 180 142 179
f 156 149 150
f 156 150 155
f 158 140 139
f 158 139 157
f 160 153 154
f 160 154 159
f 162 143 144
f 162 144 161
f 141 156 155
f 141 155 142
f 148 158 157
f 148 157 147
f 146 160 159
f 146 159 145
f 152 162 161
f 152 161 151
f 163 166 168
f 163 168 164
f 171 168 167
f 171 167 169
f 164 173 172
f 164 172 165
f 170 174 173
f 170 173 171
f 153 172 174
f 153 174 154
f 169 152 151
f 169 151 170
f 166 150 149
f 166 149 167
f 147 163 165
f 147 165 148
f 145 178 177
f 145 177 146
f 143 182 181
f 143 181 144
f 240 246 248
f 240 248 242
f 242 248 247
f 242 247 241
f 244 238 239
f 244 239 245
f 245 239 237
f 245 237 243
f 243 250 251
f 243 251 245
f 245 251 249
f 245 249 244
f 246 253 254
f 246 254 248
f 248 254 252
f 248 252 247
f 237 241 247
f 237 247 243
g Body
usemtl DarkMetal
f 8 9 6
f 8 6 454
f 8 454 456
f 8 456 455
f 5 452 454
f 5 454 6
f 191 10 5
f 191 5 188
f 10 7 451
f 10 451 453
f 10 453 452
f 10 452 5
f 9 193 189
f 9 189 6
f 194 192 187
f 194 187 190
f 4 184 193
f 4 193 9
f 187 188 5
f 187 5 6
f 187 6 189
f 187 189 190
f 10 9 8
f 10 8 7
f 185 186 183
f 185 183 184
f 185 184 4
f 185 4 3
f 185 3 10
f 185 10 191
f 3 4 9
f 3 9 10
f 256 260 175
f 256 175 177
f 258 255 178
f 258 178 181
f 131 132 137
f 131 137 138
f 131 138 135
f 131 135 136
f 131 136 133
f 131 133 134
f 261 257 182
f 261 182 180
f 28 25 26
f 28 26 27
f 32 31 30
f 32 30 29
f 25 28 32
f 25 32 29
f 29 30 36
f 29 36 35
f 28 27 31
f 28 31 32
f 27 26 30
f 27 30 31
f 36 34 38
f 36 38 40
f 26 25 33
f 26 33 34
f 25 29 35
f 25 35 33
f 30 26 34
f 30 34 36
f 37 39 43
f 37 43 41
f 35 36 40
f 35 40 39
f 33 35 39
f 33 39 37
f 34 33 37
f 34 37 38
f 44 42 46
f 44 46 48
f 38 37 41
f 38 41 42
f 40 38 42
f 40 42 44
f 39 40 44
f 39 44 43
f 47 48 52
f 47 52 51
f 43 44 48
f 43 48 47
f 41 43 47
f 41 47 45
f 42 41 45
f 42 45 46
f 49 51 55
f 49 55 53
f 45 47 51
f 45 51 49
f 46 45 49
f 46 49 50
f 48 46 50
f 48 50 52
f 56 54 58
f 56 58 60
f 50 49 53
f 50 53 54
f 52 50 54
f 52 54 56
f 51 52 56
f 51 56 55
f 57 59 63
f 57 63 61
f 55 56 60
f 55 60 59
f 53 55 59
f 53 59 57
f 54 53 57
f 54 57 58
f 62 61 63
f 62 63 64
f 61 62 66
f 61 66 65
f 60 58 62
f 60 62 64
f 59 60 64
f 59 64 63
f 57 61 65
f 57 65 67
f 57 67 68
f 62 58 69
f 62 69 70
f 62 70 66
f 70 67 65
f 70 65 66
f 67 70 69
f 67 69 68
f 58 57 68
f 58 68 69
f 80 79 74
f 80 74 73
f 78 84 83
f 78 83 77
f 80 82 75
f 80 75 71
f 74 78 77
f 74 77 73
f 79 81 78
f 79 78 74
f 71 75 76
f 71 76 72
f 72 76 81
f 72 81 79
f 73 77 82
f 73 82 80
f 75 82 81
f 75 81 76
f 71 72 79
f 71 79 80
f 86 90 89
f 86 89 85
f 81 85 84
f 81 84 78
f 77 83 86
f 77 86 82
f 82 86 85
f 82 85 81
f 87 91 94
f 87 94 90
f 85 89 88
f 85 88 84
f 83 87 90
f 83 90 86
f 84 88 87
f 84 87 83
f 91 95 98
f 91 98 94
f 88 92 91
f 88 91 87
f 90 94 93
f 90 93 89
f 89 93 92
f 89 92 88
f 98 102 101
f 98 101 97
f 92 96 95
f 92 95 91
f 94 98 97
f 94 97 93
f 93 97 96
f 93 96 92
f 99 103 106
f 99 106 102
f 97 101 100
f 97 100 96
f 95 99 102
f 95 102 98
f 96 100 99
f 96 99 95
f 106 103 104
f 106 104 105
f 100 104 103
f 100 103 99
f 102 106 105
f 102 105 101
f 101 105 104
f 101 104 100
f 255 138 137
f 255 137 256
f 257 136 135
f 257 135 258
f 259 176 175
f 259 175 260
f 261 180 179
f 261 179 262
f 259 262 179
f 259 179 176
f 192 186 185
f 192 185 191
f 194 190 189
f 194 189 193
f 187 192 191
f 187 191 188
f 183 194 193
f 183 193 184
f 183 186 192
f 183 192 194
f 131 134 262
f 131 262 259
f 133 261 262
f 133 262 134
f 131 259 260
f 131 260 132
f 182 257 258
f 182 258 181
f 178 255 256
f 178 256 177
f 133 136 257
f 133 257 261
f 135 138 255
f 135 255 258
f 137 132 260
f 137 260 256
f 263 264 266
f 263 266 265
f 265 266 268
f 265 268 267
f 267 268 270
f 267 270 269
f 269 270 272
f 269 272 271
f 271 272 274
f 271 274 273
f 273 274 276
f 273 276 275
f 275 276 278
f 275 278 277
f 277 278 280
f 277 280 279
f 278 276 289
f 278 289 290
f 279 280 282
f 279 282 281
f 281 282 264
f 281 264 263
f 263 265 267
f 263 267 269
f 263 269 271
f 263 271 273
f 263 273 275
f 263 275 277
f 263 277 279
f 263 279 281
f 291 290 300
f 291 300 301
f 276 274 288
f 276 288 289
f 274 272 287
f 274 287 288
f 272 270 286
f 272 286 287
f 266 264 284
f 266 284 283
f 270 268 285
f 270 285 286
f 268 266 283
f 268 283 285
f 264 282 292
f 264 292 284
f 282 280 291
f 282 291 292
f 280 278 290
f 280 290 291
f 288 287 297
f 288 297 298
f 285 283 293
f 285 293 295
f 292 291 301
f 292 301 302
f 289 288 298
f 289 298 299
f 286 285 295
f 286 295 296
f 284 292 302
f 284 302 294
f 290 289 299
f 290 299 300
f 287 286 296
f 287 296 297
f 283 284 294
f 283 294 293
f 373 324 326
f 373 326 374
f 374 326 328
f 374 328 375
f 375 328 330
f 375 330 376
f 376 330 332
f 376 332 377
f 377 332 334
f 377 334 378
f 378 334 336
f 378 336 379
f 379 336 338
f 379 338 380
f 380 338 340
f 380 340 381
f 381 340 342
f 381 342 382
f 382 342 324
f 382 324 373
f 323 325 327
f 323 327 329
f 323 329 331
f 323 331 333
f 323 333 335
f 323 335 337
f 323 337 339
f 323 339 341
f 324 342 352
f 324 352 343
f 342 340 351
f 342 351 352
f 340 338 350
f 340 350 351
f 338 336 349
f 338 349 350
f 336 334 348
f 336 348 349
f 334 332 347
f 334 347 348
f 332 330 346
f 332 346 347
f 326 324 343
f 326 343 344
f 330 328 345
f 330 345 346
f 328 326 344
f 328 344 345
f 350 349 359
f 350 359 360
f 347 346 356
f 347 356 357
f 344 343 353
f 344 353 354
f 351 350 360
f 351 360 361
f 348 347 357
f 348 357 358
f 345 344 354
f 345 354 355
f 352 351 361
f 352 361 362
f 349 348 358
f 349 358 359
f 346 345 355
f 346 355 356
f 343 352 362
f 343 362 353
f 354 353 362
f 354 362 361
f 354 361 360
f 354 360 359
f 354 359 358
f 354 358 357
f 354 357 356
f 354 356 355
f 341 372 363
f 341 363 323
f 339 371 372
f 339 372 341
f 337 370 371
f 337 371 339
f 335 369 370
f 335 370 337
f 333 368 369
f 333 369 335
f 331 367 368
f 331 368 333
f 329 366 367
f 329 367 331
f 327 365 366
f 327 366 329
f 325 364 365
f 325 365 327
f 323 363 364
f 323 364 325
f 405 403 404
f 405 404 406
f 451 455 456
f 451 456 453
f 453 456 454
f 453 454 452
f 7 8 455
f 7 455 451
g Magazine
usemtl DarkMetal
f 464 457 465
f 464 465 472
f 461 459 470
f 461 470 471
f 463 461 471
f 463 471 467
f 467 471 479
f 467 479 475
f 465 466 474
f 465 474 473
f 469 468 476
f 469 476 477
f 460 462 468
f 460 468 469
f 457 458 466
f 457 466 465
f 462 464 472
f 462 472 468
f 459 460 469
f 459 469 470
f 458 463 467
f 458 467 466
f 476 479 478
f 476 478 477
f 480 475 479
f 480 479 476
f 473 474 475
f 473 475 480
f 468 472 480
f 468 480 476
f 470 469 477
f 470 477 478
f 466 467 475
f 466 475 474
f 472 465 473
f 472 473 480
f 471 470 478
f 471 478 479
f 482 487 495
f 482 495 490
f 485 486 494
f 485 494 493
f 481 483 491
f 481 491 489
f 488 481 489
f 488 489 496
f 487 488 496
f 487 496 495
f 483 485 493
f 483 493 491
f 486 484 492
f 486 492 494
f 484 482 490
f 484 490 492
f 495 496 504
f 495 504 503
f 491 493 501
f 491 501 499
f 494 492 500
f 494 500 502
f 492 490 498
f 492 498 500
f 490 495 503
f 490 503 498
f 493 494 502
f 493 502 501
f 489 491 499
f 489 499 497
f 496 489 497
f 496 497 504
f 504 497 499
f 504 499 501
f 504 501 502
f 504 502 500
f 504 500 498
f 504 498 503
g Body
usemtl DarkMetal
f 505 506 515
f 505 515 516
f 505 516 509
f 505 509 510
f 508 507 511
f 508 511 512
f 508 512 513
f 508 513 514
f 509 516 513
f 509 513 512
f 506 508 514
f 506 514 515
f 509 512 511
f 509 511 510
f 513 516 515
f 513 515 514
f 507 505 510
f 507 510 511
f 517 518 527
f 517 527 528
f 517 528 521
f 517 521 522
f 520 519 523
f 520 523 524
f 520 524 525
f 520 525 526
f 521 528 525
f 521 525 524
f 518 520 526
f 518 526 527
f 521 524 523
f 521 523 522
f 525 528 527
f 525 527 526
f 519 517 522
f 519 522 523
f 529 530 539
f 529 539 540
f 529 540 533
f 529 533 534
f 532 531 535
f 532 535 536
f 532 536 537
f 532 537 538
f 533 540 537
f 533 537 536
f 530 532 538
f 530 538 539
f 533 536 535
f 533 535 534
f 537 540 539
f 537 539 538
f 531 529 534
f 531 534 535
f 541 542 551
f 541 551 552
f 541 552 545
f 541 545 546
f 544 543 547
f 544 547 548
f 544 548 549
f 544 549 550
f 545 552 549
f 545 549 548
f 542 544 550
f 542 550 551
f 545 548 547
f 545 547 546
f 549 552 551
f 549 551 550
f 543 541 546
f 543 546 547
f 553 554 563
f 553 563 564
f 553 564 557
f 553 557 558
f 556 555 559
f 556 559 560
f 556 560 561
f 556 561 562
f 557 564 561
f 557 561 560
f 554 556 562
f 554 562 563
f 557 560 559
f 557 559 558
f 561 564 563
f 561 563 562
f 555 553 558
f 555 558 559
f 565 566 575
f 565 575 576
f 565 576 569
f 565 569 570
f 568 567 571
f 568 571 572
f 568 572 573
f 568 573 574
f 569 576 573
f 569 573 572
f 566 568 574
f 566 574 575
f 569 572 571
f 569 571 570
f 573 576 575
f 573 575 574
f 567 565 570
f 567 570 571
f 577 578 587
f 577 587 588
f 577 588 581
f 577 581 582
f 580 579 583
f 580 583 584
f 580 584 585
f 580 585 586
f 581 588 585
f 581 585 584
f 578 580 586
f 578 586 587
f 581 584 583
f 581 583 582
f 585 588 587
f 585 587 586
f 579 577 582
f 579 582 583
f 589 590 599
f 589 599 600
f 589 600 593
f 589 593 594
f 592 591 595
f 592 595 596
f 592 596 597
f 592 597 598
f 593 600 597
f 593 597 596
f 590 592 598
f 590 598 599
f 593 596 595
f 593 595 594
f 597 600 599
f 597 599 598
f 591 589 594
f 591 594 595
f 601 602 611
f 601 611 612
f 601 612 605
f 601 605 606
f 604 603 607
f 604 607 608
f 604 608 609
f 604 609 610
f 605 612 609
f 605 609 608
f 602 604 610
f 602 610 611
f 605 608 607
f 605 607 606
f 609 612 611
f 609 611 610
f 603 601 606
f 603 606 607
f 613 614 623
f 613 623 624
f 613 624 617
f 613 617 618
f 616 615 619
f 616 619 620
f 616 620 621
f 616 621 622
f 617 624 621
f 617 621 620
f 614 616 622
f 614 622 623
f 617 620 619
f 617 619 618
f 621 624 623
f 621 623 622
f 615 613 618
f 615 618 619
f 625 626 635
f 625 635 636
f 625 636 629
f 625 629 630
f 628 627 631
f 628 631 632
f 628 632 633
f 628 633 634
f 629 636 633
f 629 633 632
f 626 628 634
f 626 634 635
f 629 632 631
f 629 631 630
f 633 636 635
f 633 635 634
f 627 625 630
f 627 630 631
f 637 638 647
f 637 647 648
f 637 648 641
f 637 641 642
f 640 639 643
f 640 643 644
f 640 644 645
f 640 645 646
f 641 648 645
f 641 645 644
f 638 640 646
f 638 646 647
f 641 644 643
f 641 643 642
f 645 648 647
f 645 647 646
f 639 637 642
f 639 642 643
f 649 650 659
f 649 659 660
f 649 660 653
f 649 653 654
f 652 651 655
f 652 655 656
f 652 656 657
f 652 657 658
f 653 660 657
f 653 657 656
f 650 652 658
f 650 658 659
f 653 656 655
f 653 655 654
f 657 660 659
f 657 659 658
f 651 649 654
f 651 654 655
f 661 662 671
f 661 671 672
f 661 672 665
f 661 665 666
f 664 663 667
f 664 667 668
f 664 668 669
f 664 669 670
f 665 672 669
f 665 669 668
f 662 664 670
f 662 670 671
f 665 668 667
f 665 667 666
f 669 672 671
f 669 671 670
f 663 661 666
f 663 666 667
g Body
usemtl Metal
f 111 2 108
f 111 108 125
f 110 127 115
f 110 115 119
f 130 109 122
f 130 122 117
f 116 118 121
f 116 121 120
f 109 110 119
f 109 119 120
f 109 120 121
f 109 121 122
f 123 126 129
f 123 129 128
f 2 1 107
f 2 107 108
f 1 114 124
f 1 124 107
f 113 114 1
f 113 1 2
f 113 2 111
f 113 111 112
f 128 129 118
f 128 118 116
f 108 107 110
f 108 110 109
f 107 124 127
f 107 127 110
f 125 108 109
f 125 109 130
f 116 120 119
f 116 119 115
f 121 118 117
f 121 117 122
f 128 116 115
f 128 115 127
f 130 117 118
f 130 118 129
f 113 123 124
f 113 124 114
f 111 125 126
f 111 126 112
f 123 128 127
f 123 127 124
f 125 130 129
f 125 129 126
f 113 112 126
f 113 126 123
f 298 297 307
f 298 307 308
f 305 303 313
f 305 313 315
f 295 293 303
f 295 303 305
f 302 301 311
f 302 311 312
f 299 298 308
f 299 308 309
f 296 295 305
f 296 305 306
f 294 302 312
f 294 312 304
f 300 299 309
f 300 309 310
f 297 296 306
f 297 306 307
f 293 294 304
f 293 304 303
f 301 300 310
f 301 310 311
f 313 314 322
f 313 322 321
f 313 321 320
f 313 320 319
f 313 319 318
f 313 318 317
f 313 317 316
f 313 316 315
f 312 311 321
f 312 321 322
f 309 308 318
f 309 318 319
f 306 305 315
f 306 315 316
f 304 312 322
f 304 322 314
f 310 309 319
f 310 319 320
f 307 306 316
f 307 316 317
f 303 304 314
f 303 314 313
f 311 310 320
f 311 320 321
f 308 307 317
f 308 317 318
f 369 368 392
f 369 392 394
f 376 377 389
f 376 389 387
f 370 369 394
f 370 394 396
f 377 378 391
f 377 391 389
f 371 370 396
f 371 396 398
f 378 379 393
f 378 393 391
f 364 363 401
f 364 401 384
f 372 371 398
f 372 398 400
f 379 380 395
f 379 395 393
f 365 364 384
f 365 384 386
f 400 399 402
f 400 402 401
f 398 397 399
f 398 399 400
f 396 395 397
f 396 397 398
f 394 393 395
f 394 395 396
f 392 391 393
f 392 393 394
f 390 389 391
f 390 391 392
f 388 387 389
f 388 389 390
f 386 385 387
f 386 387 388
f 384 383 385
f 384 385 386
f 401 402 383
f 401 383 384
f 375 376 387
f 375 387 385
f 368 367 390
f 368 390 392
f 382 373 402
f 382 402 399
f 374 375 385
f 374 385 383
f 367 366 388
f 367 388 390
f 381 382 399
f 381 399 397
f 373 374 383
f 373 383 402
f 366 365 386
f 366 386 388
f 380 381 397
f 380 397 395
f 363 372 400
f 363 400 401
f 406 404 419
f 406 419 422
f 408 410 414
f 408 414 412
f 421 422 407
f 421 407 409
f 419 420 410
f 419 410 408
f 403 405 421
f 403 421 420
f 405 406 422
f 405 422 421
f 409 407 411
f 409 411 413
f 417 415 429
f 417 429 430
f 413 411 415
f 413 415 417
f 412 414 418
f 412 418 416
f 411 412 416
f 411 416 424
f 411 424 423
f 411 423 415
f 418 426 432
f 418 432 431
f 425 423 424
f 425 424 426
f 410 409 413
f 410 413 414
f 407 408 412
f 407 412 411
f 414 413 417
f 414 417 425
f 414 425 426
f 414 426 418
f 420 421 409
f 420 409 410
f 422 419 408
f 422 408 407
f 404 403 420
f 404 420 419
f 432 427 428
f 432 428 431
f 430 429 433
f 430 433 434
f 423 425 434
f 423 434 433
f 416 418 431
f 416 431 428
f 425 417 430
f 425 430 434
f 424 416 428
f 424 428 427
f 415 423 433
f 415 433 429
f 426 424 427
f 426 427 432
f 436 438 437
f 436 437 435
f 439 440 444
f 439 444 443
f 435 437 442
f 435 442 440
f 436 435 440
f 436 440 439
f 438 436 439
f 438 439 441
f 437 438 441
f 437 441 442
f 445 443 447
f 445 447 449
f 441 439 443
f 441 443 445
f 442 441 445
f 442 445 446
f 440 442 446
f 440 446 444
f 447 448 450
f 447 450 449
f 446 445 449
f 446 449 450
f 444 446 450
f 444 450 448
f 443 444 448
f 443 448 447
g Magazine
usemtl Metal
f 462 460 485
f 462 485 483
f 461 463 482
f 461 482 484
f 459 461 484
f 459 484 486
f 463 458 487
f 463 487 482
f 457 464 481
f 457 481 488
f 460 459 486
f 460 486 485
f 458 457 488
f 458 488 487
f 464 462 483
f 464 483 481
g Body
usemtl DarkWood
f 198 196 680
f 198 680 683
f 210 208 201
f 210 201 204
f 23 211 205
f 23 205 222
f 23 222 224
f 23 224 223
f 212 688 684
f 212 684 210
f 209 682 678
f 209 678 207
f 674 685 211
f 674 211 23
f 23 24 675
f 23 675 674
f 202 220 222
f 202 222 205
f 223 219 24
f 223 24 23
f 207 24 219
f 207 219 221
f 207 221 220
f 207 220 202
f 216 218 217
f 216 217 199
f 216 199 686
f 216 686 673
f 195 213 215
f 195 215 214
f 195 214 676
f 195 676 677
f 689 691 690
f 689 690 695
f 689 695 697
f 689 697 696
f 689 696 232
f 689 232 228
f 696 698 234
f 696 234 236
f 696 236 235
f 696 235 231
f 696 231 233
f 696 233 232
f 698 700 699
f 698 699 692
f 698 692 694
f 698 694 693
f 698 693 226
f 698 226 234
f 231 235 225
f 231 225 229
f 204 201 203
f 204 203 206
f 206 203 202
f 206 202 205
f 684 679 208
f 684 208 210
f 208 679 682
f 208 682 209
f 211 685 688
f 211 688 212
f 680 196 197
f 680 197 681
f 681 197 195
f 681 195 677
f 686 199 200
f 686 200 687
f 687 200 198
f 687 198 683
f 201 208 209
f 201 209 203
f 203 209 207
f 203 207 202
f 205 211 212
f 205 212 206
f 206 212 210
f 206 210 204
f 678 675 24
f 678 24 207
f 219 223 224
f 219 224 221
f 221 224 222
f 221 222 220
f 213 217 218
f 213 218 215
f 215 218 216
f 215 216 214
f 195 197 196
f 195 196 198
f 195 198 200
f 195 200 199
f 195 199 217
f 195 217 213
f 228 232 233
f 228 233 230
f 230 233 231
f 230 231 229
f 225 235 236
f 225 236 227
f 227 236 234
f 227 234 226
f 695 690 692
f 695 692 699
f 676 673 674
f 676 674 675
f 682 679 680
f 682 680 681
f 678 682 681
f 678 681 677
f 688 685 686
f 688 686 687
f 684 688 687
f 684 687 683
f 675 678 677
f 675 677 676
f 679 684 683
f 679 683 680
f 685 674 673
f 685 673 686
f 673 676 214
f 673 214 216
f 692 690 691
f 692 691 694
f 694 691 689
f 694 689 693
f 698 696 697
f 698 697 700
f 700 697 695
f 700 695 699
f 693 689 228
f 693 228 230
f 693 230 229
f 693 229 225
f 693 225 227
f 693 227 226
g Body
usemtl Steel
f 701 702 704 703
f 705 707 708 706
f 701 705 706 702
f 703 704 708 707
f 701 703 707 705
f 702 706 708 704
g Body
usemtl Polymer
f 709 710 712 711
f 713 715 716 714
f 709 713 714 710
f 711 712 716 715
f 709 711 715 713
f 710 714 716 712
g Body
usemtl Steel
f 717 718 720 719
f 721 723 724 722
f 717 721 722 718
f 719 720 724 723
f 717 719 723 721
f 718 722 724 720
