# Adapted CC0 source; see SOURCES.json
mtllib akm.mtl
v 0.021623 -0.034637 0.003499
v -0.020894 -0.034637 0.003499
v 0.014122 -0.074583 0.017469
v 0.021623 -0.077109 0.010390
v 0.021623 -0.084633 -0.044381
v 0.014122 -0.089477 -0.050672
v 0.014122 -0.120857 0.037548
v 0.021623 -0.123280 0.030426
v 0.021623 -0.132431 -0.028139
v 0.014122 -0.134849 -0.035253
v 0.019011 -0.177180 0.041889
v 0.014122 -0.175887 0.047307
v 0.014122 -0.189736 -0.010748
v 0.019398 -0.188136 -0.004035
v 0.014122 -0.025326 0.027030
v 0.021623 -0.025326 0.019530
v 0.014122 -0.042372 0.027030
v 0.021623 -0.039537 0.019530
v 0.021623 -0.032951 -0.062697
v 0.014122 -0.025326 -0.070322
v 0.021623 -0.025326 -0.062822
v 0.021623 -0.056619 0.004458
v 0.014122 -0.058489 0.012810
v 0.014122 -0.078140 -0.070322
v 0.021623 -0.074071 -0.062693
v 0.014122 -0.168096 0.049426
v 0.021623 -0.168019 0.041674
v 0.021623 -0.179345 -0.012197
v 0.014122 -0.183969 -0.018561
v -0.020894 -0.077109 0.010390
v -0.013393 -0.074583 0.017469
v -0.013393 -0.089477 -0.050672
v -0.020894 -0.084633 -0.044381
v -0.020894 -0.123280 0.030426
v -0.013393 -0.120857 0.037548
v -0.013393 -0.134849 -0.035253
v -0.020894 -0.132431 -0.028139
v -0.013393 -0.175887 0.047307
v -0.018282 -0.177180 0.041889
v -0.018669 -0.188136 -0.004035
v -0.013393 -0.189736 -0.010748
v -0.020894 -0.025326 0.019530
v -0.013393 -0.025326 0.027030
v -0.020894 -0.039537 0.019530
v -0.013393 -0.042372 0.027030
v -0.013393 -0.025326 -0.070322
v -0.020894 -0.032951 -0.062697
v -0.020894 -0.025326 -0.062822
v -0.013393 -0.058489 0.012810
v -0.020894 -0.056619 0.004458
v -0.020894 -0.074071 -0.062693
v -0.013393 -0.078140 -0.070322
v -0.020894 -0.168019 0.041674
v -0.013393 -0.168096 0.049426
v -0.013393 -0.183969 -0.018561
v -0.020894 -0.179345 -0.012197
v 0.004341 -0.019916 -0.079572
v 0.004341 -0.072386 -0.104534
v 0.004341 -0.019916 -0.111009
v 0.004341 -0.072386 -0.109043
v 0.004341 -0.031794 -0.089805
v 0.004341 -0.045324 -0.091760
v 0.004341 -0.058854 -0.094614
v 0.004341 -0.031794 -0.101078
v 0.004341 -0.045324 -0.098372
v 0.004341 -0.058854 -0.099273
v -0.003612 -0.019916 -0.079572
v -0.003612 -0.072386 -0.104534
v -0.003612 -0.019916 -0.111009
v -0.003612 -0.072386 -0.109043
v -0.003612 -0.031794 -0.089805
v -0.003612 -0.045324 -0.091760
v -0.003612 -0.058854 -0.094614
v -0.003612 -0.031794 -0.101078
v -0.003612 -0.045324 -0.098372
v -0.003612 -0.058854 -0.099273
v 0.009305 -0.078811 -0.088730
v 0.009305 -0.078811 -0.132833
v 0.009305 -0.073072 -0.068579
v 0.009305 -0.065020 -0.142077
v 0.006838 -0.022188 -0.150861
v 0.013354 -0.023246 -0.139070
v 0.013354 -0.023246 -0.161618
v 0.013354 -0.070644 -0.139070
v 0.006838 -0.067756 -0.143460
v 0.013354 -0.060487 -0.161618
v 0.013354 -0.070644 -0.153037
v 0.015878 -0.079700 -0.142751
v 0.015878 -0.087931 -0.142311
v 0.008918 -0.093224 -0.142053
v -0.008577 -0.078811 -0.088730
v -0.008577 -0.078811 -0.132833
v -0.008577 -0.073072 -0.068579
v -0.008577 -0.065020 -0.142077
v -0.006110 -0.022188 -0.150861
v -0.012625 -0.023246 -0.139070
v -0.012625 -0.023246 -0.161618
v -0.012625 -0.070644 -0.139070
v -0.006110 -0.067756 -0.143460
v -0.012625 -0.060487 -0.161618
v -0.012625 -0.070644 -0.153037
v -0.015149 -0.079700 -0.142751
v -0.015149 -0.087931 -0.142311
v -0.008189 -0.093224 -0.142053
v 0.009305 -0.075812 -0.089148
v 0.009305 -0.075812 -0.131232
v 0.009305 -0.070188 -0.069401
v 0.009305 -0.063350 -0.139584
v 0.006838 -0.022669 -0.153822
v 0.010355 -0.023246 -0.142070
v 0.010355 -0.023246 -0.161618
v 0.010355 -0.070644 -0.142070
v 0.006838 -0.068061 -0.146448
v 0.010355 -0.060487 -0.161618
v 0.010355 -0.070644 -0.153037
v 0.015878 -0.079893 -0.145746
v 0.015878 -0.088079 -0.145308
v 0.008918 -0.093369 -0.145050
v -0.008577 -0.075812 -0.089148
v -0.008577 -0.075812 -0.131232
v -0.008577 -0.070188 -0.069401
v -0.008577 -0.063350 -0.139584
v -0.006110 -0.022669 -0.153822
v -0.009626 -0.023246 -0.142070
v -0.009626 -0.023246 -0.161618
v -0.009626 -0.070644 -0.142070
v -0.006110 -0.068061 -0.146448
v -0.009626 -0.060487 -0.161618
v -0.009626 -0.070644 -0.153037
v -0.015149 -0.079893 -0.145746
v -0.015149 -0.088079 -0.145308
v -0.008189 -0.093369 -0.145050
v 0.009691 -0.024200 0.157660
v 0.009691 -0.024200 0.244860
v 0.009691 -0.030078 0.157660
v 0.009691 -0.039024 0.244860
v 0.009691 -0.024200 0.219915
v 0.009691 -0.039024 0.219915
v 0.009691 -0.024200 0.197929
v 0.009691 -0.030078 0.197929
v 0.024925 -0.004126 0.344185
v 0.017914 -0.084517 0.344185
v 0.024925 -0.004126 0.360789
v 0.017914 -0.084517 0.360789
v 0.008429 -0.024921 0.344185
v 0.008429 -0.024921 0.264124
v 0.008429 -0.118711 0.344185
v 0.008429 -0.118711 0.311244
v 0.008429 -0.046544 0.298309
v 0.008429 -0.049818 0.293358
v 0.008429 -0.049824 0.331657
v 0.008429 -0.046544 0.326722
v 0.008429 -0.097091 0.326722
v 0.008429 -0.093811 0.331657
v 0.008429 -0.093811 0.310026
v 0.008429 -0.097091 0.314979
v -0.008962 -0.024200 0.157660
v -0.008962 -0.024200 0.244860
v -0.008962 -0.030078 0.157660
v -0.008962 -0.039024 0.244860
v -0.008962 -0.024200 0.219915
v -0.008962 -0.039024 0.219915
v -0.008962 -0.024200 0.197929
v -0.008962 -0.030078 0.197929
v -0.024196 -0.004126 0.344185
v -0.017185 -0.084517 0.344185
v -0.024196 -0.004126 0.360789
v -0.017185 -0.084517 0.360789
v -0.007700 -0.024921 0.344185
v -0.007700 -0.024921 0.264124
v -0.007700 -0.118711 0.344185
v -0.007700 -0.118711 0.311244
v -0.007700 -0.046544 0.298309
v -0.007700 -0.049818 0.293358
v -0.007700 -0.049824 0.331657
v -0.007700 -0.046544 0.326722
v -0.007700 -0.097091 0.326722
v -0.007700 -0.093811 0.331657
v -0.007700 -0.093811 0.310026
v -0.007700 -0.097091 0.314979
v 0.010194 -0.024921 0.344185
v 0.017694 -0.017421 0.344185
v 0.010194 0.029893 0.344185
v 0.017694 0.022394 0.344185
v 0.017694 -0.017421 0.033835
v 0.010194 -0.024921 0.033835
v 0.010194 0.029893 0.033835
v 0.017694 0.022394 0.033835
v 0.019737 0.028662 0.363717
v 0.011239 0.037678 0.364380
v 0.011239 0.037678 0.344185
v 0.019737 0.028662 0.344185
v 0.011239 -0.126324 0.364380
v 0.013958 -0.117306 0.363717
v 0.013958 -0.117306 0.344185
v 0.011239 -0.126324 0.344185
v 0.017694 0.008445 0.330787
v 0.017694 0.012180 0.327052
v 0.017694 -0.007208 0.327052
v 0.017694 -0.003472 0.330787
v 0.017694 -0.003472 0.275296
v 0.017694 -0.007208 0.279033
v 0.017694 0.012180 0.279033
v 0.017694 0.008445 0.275296
v -0.009465 -0.024921 0.344185
v -0.016965 -0.017421 0.344185
v -0.009465 0.029893 0.344185
v -0.016965 0.022394 0.344185
v -0.009465 -0.024921 0.033835
v -0.016965 -0.017421 0.033835
v -0.016965 0.022394 0.033835
v -0.009465 0.029893 0.033835
v -0.010511 0.037678 0.364380
v -0.019008 0.028662 0.363717
v -0.019008 0.028662 0.344185
v -0.010511 0.037678 0.344185
v -0.013229 -0.117306 0.363717
v -0.010511 -0.126324 0.364380
v -0.010511 -0.126324 0.344185
v -0.013229 -0.117306 0.344185
v -0.016965 0.012180 0.327052
v -0.016965 0.008445 0.330787
v -0.016965 -0.003472 0.330787
v -0.016965 -0.007208 0.327052
v -0.016965 -0.007208 0.279033
v -0.016965 -0.003472 0.275296
v -0.016965 0.008445 0.275296
v -0.016965 0.012180 0.279033
v -0.027407 0.012975 0.008886
v 0.028136 0.012975 0.008886
v -0.027407 0.010323 0.002482
v 0.028136 0.010323 0.002482
v -0.027407 0.003919 -0.000170
v 0.028136 0.003919 -0.000170
v -0.027407 -0.002484 0.002482
v 0.028136 -0.002484 0.002482
v -0.027407 -0.005136 0.008886
v 0.028136 -0.005136 0.008886
v -0.027407 -0.002484 0.015289
v 0.028136 -0.002484 0.015289
v -0.027407 0.003919 0.017941
v 0.028136 0.003919 0.017941
v -0.027407 0.010323 0.015289
v 0.028136 0.010323 0.015289
v -0.027407 0.000969 -0.295530
v 0.028136 0.000969 -0.295530
v -0.027407 -0.001168 -0.300692
v 0.028136 -0.001168 -0.300692
v -0.027407 -0.006328 -0.302829
v 0.028136 -0.006328 -0.302829
v -0.027407 -0.011489 -0.300692
v 0.028136 -0.011489 -0.300692
v -0.027407 -0.013626 -0.295530
v 0.028136 -0.013626 -0.295530
v -0.027407 -0.011489 -0.290370
v 0.028136 -0.011489 -0.290370
v -0.027407 -0.006328 -0.288233
v 0.028136 -0.006328 -0.288233
v -0.027407 -0.001168 -0.290370
v 0.028136 -0.001168 -0.290370
v -0.027407 0.040900 -0.333894
v 0.028136 0.040900 -0.333894
v -0.027407 0.039107 -0.338226
v 0.028136 0.039107 -0.338226
v -0.027407 0.034774 -0.340020
v 0.028136 0.034774 -0.340020
v -0.027407 0.030444 -0.338226
v 0.028136 0.030444 -0.338226
v -0.027407 0.028650 -0.333894
v 0.028136 0.028650 -0.333894
v -0.027407 0.030444 -0.329564
v 0.028136 0.030444 -0.329564
v -0.027407 0.034774 -0.327770
v 0.028136 0.034774 -0.327770
v -0.027407 0.039107 -0.329564
v 0.028136 0.039107 -0.329564
v -0.027407 0.018243 -0.521383
v 0.028136 0.018243 -0.521383
v -0.027407 0.015591 -0.527787
v 0.028136 0.015591 -0.527787
v -0.027407 0.009188 -0.530439
v 0.028136 0.009188 -0.530439
v -0.027407 0.002784 -0.527787
v 0.028136 0.002784 -0.527787
v -0.027407 0.000132 -0.521383
v 0.028136 0.000132 -0.521383
v -0.027407 0.002784 -0.514980
v 0.028136 0.002784 -0.514980
v -0.027407 0.009188 -0.512328
v 0.028136 0.009188 -0.512328
v -0.027407 0.015591 -0.514980
v 0.028136 0.015591 -0.514980
v -0.033140 0.009862 -0.039818
v 0.033868 0.008385 -0.043386
v 0.033868 0.004816 -0.044865
v -0.033140 0.001248 -0.043386
v -0.033140 -0.000229 -0.039818
v -0.010741 -0.033745 0.281314
v 0.011470 -0.033745 0.281314
v -0.010741 -0.035223 0.277746
v 0.011470 -0.035223 0.277746
v -0.010741 -0.038793 0.276268
v 0.011470 -0.038793 0.276268
v -0.010741 -0.042361 0.277746
v 0.011470 -0.042361 0.277746
v -0.010741 -0.043839 0.281314
v 0.011470 -0.043839 0.281314
v -0.010741 -0.042361 0.284883
v 0.011470 -0.042361 0.284883
v -0.010741 -0.038793 0.286362
v 0.011470 -0.038793 0.286362
v -0.010741 -0.035223 0.284883
v 0.011470 -0.035223 0.284883
v 0.007488 -0.023570 0.174971
v 0.007488 -0.033299 0.174971
v 0.005402 -0.023570 0.169933
v 0.005402 -0.033299 0.169933
v 0.000365 -0.023570 0.167845
v 0.000365 -0.033299 0.167845
v -0.004673 -0.023570 0.169933
v -0.004673 -0.033299 0.169933
v -0.006760 -0.023570 0.174971
v -0.006760 -0.033299 0.174971
v -0.004673 -0.023570 0.180007
v -0.004673 -0.033299 0.180007
v 0.000365 -0.023570 0.182094
v 0.000365 -0.033299 0.182094
v 0.005402 -0.023570 0.180007
v 0.005402 -0.033299 0.180007
v 0.025563 0.044388 -0.314036
v 0.025563 0.044388 -0.437080
v 0.025563 0.044388 -0.554303
v 0.016265 0.071789 -0.554303
v 0.025563 -0.005940 -0.320534
v 0.025563 0.026067 -0.320534
v 0.025563 -0.005940 -0.459511
v 0.025563 0.026067 -0.459511
v 0.039969 0.000212 -0.328034
v 0.039969 0.000212 -0.452012
v 0.039969 0.019916 -0.452012
v 0.039969 0.019916 -0.328034
v 0.019762 -0.016125 -0.314036
v 0.025563 -0.010325 -0.314036
v 0.019716 -0.016125 -0.554303
v 0.025563 -0.010277 -0.554303
v -0.024834 0.044388 -0.314036
v -0.024834 0.044388 -0.437080
v -0.015536 0.071789 -0.437080
v -0.024834 0.044388 -0.554303
v -0.015536 0.071789 -0.554303
v -0.024834 -0.005940 -0.320534
v -0.024834 0.026067 -0.320534
v -0.024834 -0.005940 -0.459511
v -0.024834 0.026067 -0.459511
v -0.039240 0.000212 -0.328034
v -0.039240 0.000212 -0.452012
v -0.039240 0.019916 -0.452012
v -0.039240 0.019916 -0.328034
v -0.019034 -0.016125 -0.314036
v -0.024834 -0.010325 -0.314036
v -0.018987 -0.016125 -0.554303
v -0.024834 -0.010277 -0.554303
v 0.011276 -0.005499 -0.251978
v 0.011738 -0.049458 -0.261394
v 0.011738 -0.099985 -0.271086
v 0.011738 -0.149269 -0.285855
v 0.011738 -0.196800 -0.305549
v 0.012345 -0.239818 -0.333702
v 0.019133 -0.062429 -0.168482
v 0.019133 -0.122316 -0.179969
v 0.019133 -0.180729 -0.197474
v 0.019133 -0.237066 -0.220815
v 0.020115 -0.293681 -0.244906
v 0.000365 -0.005499 -0.256532
v 0.011738 -0.005499 -0.256532
v 0.019133 -0.005499 -0.162717
v 0.011276 -0.026199 -0.255413
v 0.014343 -0.026199 -0.168906
v 0.010882 -0.006863 -0.154293
v 0.010882 -0.013850 -0.154839
v 0.010882 -0.006863 -0.147812
v 0.010882 -0.014044 -0.148364
v 0.010882 -0.006863 -0.163125
v 0.010882 -0.061325 -0.168741
v 0.010882 -0.041744 -0.157490
v 0.014343 -0.005499 -0.165471
v 0.014343 -0.005499 -0.231771
v 0.019133 -0.005499 -0.231771
v 0.019133 -0.005499 -0.165471
v 0.010417 0.008842 -0.165471
v 0.010417 0.008842 -0.231771
v 0.015207 0.008842 -0.231771
v 0.015207 0.008842 -0.165471
v 0.020115 -0.254034 -0.310268
v 0.019133 -0.207427 -0.283185
v 0.019133 -0.157572 -0.262530
v 0.019133 -0.105879 -0.247038
v 0.019133 -0.052881 -0.236873
v 0.018196 0.001671 -0.165471
v 0.013407 0.001671 -0.165471
v 0.013407 0.001671 -0.231771
v 0.018196 0.001671 -0.231771
v 0.012345 -0.229224 -0.327452
v 0.020115 -0.280895 -0.237363
v 0.020115 -0.242862 -0.303675
v 0.011738 -0.223419 -0.319373
v 0.019133 -0.268616 -0.237200
v 0.019133 -0.235349 -0.297684
v -0.013614 -0.005499 -0.165471
v -0.010547 -0.005499 -0.251978
v -0.011009 -0.049458 -0.261394
v -0.011009 -0.099985 -0.271086
v -0.011009 -0.149269 -0.285855
v -0.011009 -0.196800 -0.305549
v -0.011616 -0.239818 -0.333702
v -0.018405 -0.062429 -0.168482
v -0.018405 -0.122316 -0.179969
v -0.018405 -0.180729 -0.197474
v -0.018405 -0.237066 -0.220815
v -0.019386 -0.293681 -0.244906
v -0.011009 -0.005499 -0.256532
v -0.018405 -0.005499 -0.162717
v -0.010547 -0.026199 -0.255413
v -0.013614 -0.026199 -0.168906
v -0.010153 -0.006863 -0.154293
v -0.010153 -0.013850 -0.154839
v -0.010153 -0.006863 -0.147812
v -0.010153 -0.014044 -0.148364
v -0.010153 -0.006863 -0.163125
v -0.010153 -0.061325 -0.168741
v -0.010153 -0.041744 -0.157490
v -0.013614 -0.005499 -0.231771
v -0.018405 -0.005499 -0.165471
v -0.009689 0.008842 -0.165471
v -0.009689 0.008842 -0.231771
v -0.014478 0.008842 -0.231771
v -0.014478 0.008842 -0.165471
v -0.018405 -0.005499 -0.231771
v -0.019386 -0.254034 -0.310268
v -0.018405 -0.207427 -0.283185
v -0.018405 -0.157572 -0.262530
v -0.018405 -0.105879 -0.247038
v -0.018405 -0.052881 -0.236873
v -0.017468 0.001671 -0.165471
v -0.012678 0.001671 -0.165471
v -0.012678 0.001671 -0.231771
v -0.017468 0.001671 -0.231771
v -0.011616 -0.229224 -0.327452
v -0.019386 -0.280895 -0.237363
v -0.019386 -0.242862 -0.303675
v -0.011009 -0.223419 -0.319373
v -0.018405 -0.268616 -0.237200
v -0.018405 -0.235349 -0.297684
v 0.014444 -0.028394 -0.262574
v 0.018609 -0.028394 -0.232101
v 0.014444 -0.041016 -0.265186
v 0.018609 -0.041016 -0.234716
v 0.014444 -0.080482 -0.272826
v 0.018609 -0.080482 -0.242354
v 0.014444 -0.093105 -0.275441
v 0.018609 -0.093105 -0.244968
v 0.014444 -0.053873 -0.267159
v 0.018609 -0.053873 -0.236688
v 0.014444 -0.066495 -0.269773
v 0.018609 -0.066495 -0.239301
v -0.013715 -0.028394 -0.262574
v -0.017880 -0.028394 -0.232101
v -0.013715 -0.041016 -0.265186
v -0.017880 -0.041016 -0.234716
v -0.013715 -0.080482 -0.272826
v -0.017880 -0.080482 -0.242354
v -0.013715 -0.093105 -0.275441
v -0.017880 -0.093105 -0.244968
v -0.013715 -0.053873 -0.267159
v -0.017880 -0.053873 -0.236688
v -0.013715 -0.066495 -0.269773
v -0.017880 -0.066495 -0.239301
v -0.005542 -0.006999 -0.166584
v -0.005542 -0.006999 -0.168084
v -0.005542 -0.005949 -0.168084
v -0.005542 -0.005949 -0.169584
v -0.005542 -0.006999 -0.170634
v -0.005542 -0.006436 -0.210834
v -0.005542 -0.004216 -0.216834
v -0.005542 -0.004216 -0.225564
v -0.005542 -0.003774 -0.225564
v -0.005542 -0.003774 -0.208647
v -0.005542 -0.003675 -0.226158
v -0.005542 -0.003699 -0.218580
v -0.005542 -0.000058 -0.251334
v -0.005542 -0.001540 -0.245040
v -0.005542 -0.002636 -0.238746
v -0.005542 -0.003348 -0.232452
v -0.010845 -0.004803 -0.166584
v -0.010845 -0.004803 -0.168084
v -0.010103 -0.004060 -0.168084
v -0.010103 -0.004060 -0.169584
v -0.010845 -0.004803 -0.170634
v -0.010448 -0.004405 -0.210834
v -0.008878 -0.002835 -0.216834
v -0.008878 -0.002835 -0.225564
v -0.008565 -0.002521 -0.225564
v -0.008565 -0.002521 -0.208647
v -0.008494 -0.002452 -0.226158
v -0.008513 -0.002469 -0.218580
v -0.005938 0.000105 -0.251334
v -0.006985 -0.000942 -0.245040
v -0.007759 -0.001717 -0.238746
v -0.008264 -0.002220 -0.232452
v -0.013042 0.000501 -0.166584
v -0.013042 0.000501 -0.168084
v -0.011992 0.000501 -0.168084
v -0.011992 0.000501 -0.169584
v -0.013042 0.000501 -0.170634
v -0.012480 0.000501 -0.210834
v -0.010260 0.000501 -0.216834
v -0.010260 0.000501 -0.225564
v -0.009817 0.000501 -0.225564
v -0.009817 0.000501 -0.208647
v -0.009719 0.000501 -0.226158
v -0.009742 0.000501 -0.218580
v -0.006102 0.000501 -0.251334
v -0.007582 0.000501 -0.245040
v -0.008679 0.000501 -0.238746
v -0.009392 0.000501 -0.232452
v -0.010845 0.005803 -0.166584
v -0.010845 0.005803 -0.168084
v -0.010103 0.005061 -0.168084
v -0.010103 0.005061 -0.169584
v -0.010845 0.005803 -0.170634
v -0.010448 0.005406 -0.210834
v -0.008878 0.003837 -0.216834
v -0.008878 0.003837 -0.225564
v -0.008565 0.003523 -0.225564
v -0.008565 0.003523 -0.208647
v -0.008494 0.003455 -0.226158
v -0.008513 0.003471 -0.218580
v -0.005938 0.000897 -0.251334
v -0.006985 0.001944 -0.245040
v -0.007759 0.002719 -0.238746
v -0.008264 0.003222 -0.232452
v -0.005542 0.008001 -0.166584
v -0.005542 0.008001 -0.168084
v -0.005542 0.006951 -0.168084
v -0.005542 0.006951 -0.169584
v -0.005542 0.008001 -0.170634
v -0.005542 0.007438 -0.210834
v -0.005542 0.005219 -0.216834
v -0.005542 0.005219 -0.225564
v -0.005542 0.004776 -0.225564
v -0.005542 0.004776 -0.208647
v -0.005542 0.004677 -0.226158
v -0.005542 0.004701 -0.218580
v -0.005542 0.001060 -0.251334
v -0.005542 0.002541 -0.245040
v -0.005542 0.003638 -0.238746
v -0.005542 0.004350 -0.232452
v -0.000238 0.005803 -0.166584
v -0.000238 0.005803 -0.168084
v -0.000981 0.005061 -0.168084
v -0.000981 0.005061 -0.169584
v -0.000238 0.005803 -0.170634
v -0.000636 0.005406 -0.210834
v -0.002207 0.003837 -0.216834
v -0.002207 0.003837 -0.225564
v -0.002518 0.003523 -0.225564
v -0.002518 0.003523 -0.208647
v -0.002589 0.003455 -0.226158
v -0.002573 0.003471 -0.218580
v -0.005147 0.000897 -0.251334
v -0.004100 0.001944 -0.245040
v -0.003324 0.002719 -0.238746
v -0.002820 0.003222 -0.232452
v 0.001958 0.000501 -0.166584
v 0.001958 0.000501 -0.168084
v 0.000907 0.000501 -0.168084
v 0.000907 0.000501 -0.169584
v 0.001958 0.000501 -0.170634
v 0.001395 0.000501 -0.210834
v -0.000825 0.000501 -0.216834
v -0.000825 0.000501 -0.225564
v -0.001267 0.000501 -0.225564
v -0.001267 0.000501 -0.208647
v -0.001367 0.000501 -0.226158
v -0.001342 0.000501 -0.218580
v -0.004981 0.000501 -0.251334
v -0.003501 0.000501 -0.245040
v -0.002404 0.000501 -0.238746
v -0.001694 0.000501 -0.232452
v -0.000238 -0.004803 -0.166584
v -0.000238 -0.004803 -0.168084
v -0.000981 -0.004060 -0.168084
v -0.000981 -0.004060 -0.169584
v -0.000238 -0.004803 -0.170634
v -0.000636 -0.004405 -0.210834
v -0.002207 -0.002835 -0.216834
v -0.002207 -0.002835 -0.225564
v -0.002518 -0.002521 -0.225564
v -0.002518 -0.002521 -0.208647
v -0.002589 -0.002452 -0.226158
v -0.002573 -0.002469 -0.218580
v -0.005147 0.000105 -0.251334
v -0.004100 -0.000942 -0.245040
v -0.003324 -0.001717 -0.238746
v -0.002820 -0.002220 -0.232452
v -0.007543 -0.001501 -0.165834
v -0.005542 -0.002329 -0.165834
v -0.008373 0.000501 -0.165834
v -0.007543 0.002502 -0.165834
v -0.005542 0.003331 -0.165834
v -0.003540 0.002502 -0.165834
v -0.002711 0.000501 -0.165834
v -0.003540 -0.001501 -0.165834
v -0.010103 -0.004060 -0.165834
v -0.005542 -0.005949 -0.165834
v -0.011992 0.000501 -0.165834
v -0.010103 0.005061 -0.165834
v -0.005542 0.006951 -0.165834
v -0.000981 0.005061 -0.165834
v 0.000907 0.000501 -0.165834
v -0.000981 -0.004060 -0.165834
v -0.006914 -0.000870 -0.165834
v -0.005542 -0.001439 -0.165834
v -0.007482 0.000501 -0.165834
v -0.006914 0.001872 -0.165834
v -0.005542 0.002440 -0.165834
v -0.004170 0.001872 -0.165834
v -0.003603 0.000501 -0.165834
v -0.004170 -0.000870 -0.165834
v -0.007298 -0.001255 -0.166674
v -0.005542 -0.001981 -0.166674
v -0.008025 0.000501 -0.166674
v -0.007298 0.002256 -0.166674
v -0.005542 0.002984 -0.166674
v -0.003786 0.002256 -0.166674
v -0.003059 0.000501 -0.166674
v -0.003786 -0.001255 -0.166674
v 0.006457 -0.012999 -0.166584
v 0.006457 -0.012999 -0.168084
v 0.006457 -0.011949 -0.168084
v 0.006457 -0.011949 -0.169584
v 0.006457 -0.012999 -0.170634
v 0.006457 -0.012436 -0.210834
v 0.006457 -0.010216 -0.216834
v 0.006457 -0.010216 -0.225564
v 0.006457 -0.009774 -0.225564
v 0.006457 -0.009774 -0.208647
v 0.006457 -0.009675 -0.226158
v 0.006457 -0.009699 -0.218580
v 0.006457 -0.006058 -0.251334
v 0.006457 -0.007541 -0.245040
v 0.006457 -0.008636 -0.238746
v 0.006457 -0.009348 -0.232452
v 0.001155 -0.010803 -0.166584
v 0.001155 -0.010803 -0.168084
v 0.001898 -0.010060 -0.168084
v 0.001898 -0.010060 -0.169584
v 0.001155 -0.010803 -0.170634
v 0.001552 -0.010405 -0.210834
v 0.003122 -0.008835 -0.216834
v 0.003122 -0.008835 -0.225564
v 0.003435 -0.008522 -0.225564
v 0.003435 -0.008522 -0.208647
v 0.003505 -0.008452 -0.226158
v 0.003487 -0.008469 -0.218580
v 0.006062 -0.005895 -0.251334
v 0.005014 -0.006942 -0.245040
v 0.004241 -0.007718 -0.238746
v 0.003737 -0.008220 -0.232452
v -0.001043 -0.005499 -0.166584
v -0.001043 -0.005499 -0.168084
v 0.000008 -0.005499 -0.168084
v 0.000008 -0.005499 -0.169584
v -0.001043 -0.005499 -0.170634
v -0.000480 -0.005499 -0.210834
v 0.001740 -0.005499 -0.216834
v 0.001740 -0.005499 -0.225564
v 0.002182 -0.005499 -0.225564
v 0.002182 -0.005499 -0.208647
v 0.002282 -0.005499 -0.226158
v 0.002257 -0.005499 -0.218580
v 0.005898 -0.005499 -0.251334
v 0.004418 -0.005499 -0.245040
v 0.003321 -0.005499 -0.238746
v 0.002609 -0.005499 -0.232452
v 0.001155 -0.000197 -0.166584
v 0.001155 -0.000197 -0.168084
v 0.001898 -0.000939 -0.168084
v 0.001898 -0.000939 -0.169584
v 0.001155 -0.000197 -0.170634
v 0.001552 -0.000594 -0.210834
v 0.003122 -0.002163 -0.216834
v 0.003122 -0.002163 -0.225564
v 0.003435 -0.002476 -0.225564
v 0.003435 -0.002476 -0.208647
v 0.003505 -0.002546 -0.226158
v 0.003487 -0.002529 -0.218580
v 0.006062 -0.005103 -0.251334
v 0.005014 -0.004056 -0.245040
v 0.004241 -0.003281 -0.238746
v 0.003737 -0.002778 -0.232452
v 0.006457 0.002001 -0.166584
v 0.006457 0.002001 -0.168084
v 0.006457 0.000951 -0.168084
v 0.006457 0.000951 -0.169584
v 0.006457 0.002001 -0.170634
v 0.006457 0.001439 -0.210834
v 0.006457 -0.000781 -0.216834
v 0.006457 -0.000781 -0.225564
v 0.006457 -0.001224 -0.225564
v 0.006457 -0.001224 -0.208647
v 0.006457 -0.001323 -0.226158
v 0.006457 -0.001299 -0.218580
v 0.006457 -0.004939 -0.251334
v 0.006457 -0.003459 -0.245040
v 0.006457 -0.002363 -0.238746
v 0.006457 -0.001650 -0.232452
v 0.011762 -0.000197 -0.166584
v 0.011762 -0.000197 -0.168084
v 0.011019 -0.000939 -0.168084
v 0.011019 -0.000939 -0.169584
v 0.011762 -0.000197 -0.170634
v 0.011364 -0.000594 -0.210834
v 0.009794 -0.002163 -0.216834
v 0.009794 -0.002163 -0.225564
v 0.009482 -0.002476 -0.225564
v 0.009482 -0.002476 -0.208647
v 0.009411 -0.002546 -0.226158
v 0.009428 -0.002529 -0.218580
v 0.006854 -0.005103 -0.251334
v 0.007900 -0.004056 -0.245040
v 0.008676 -0.003281 -0.238746
v 0.009180 -0.002778 -0.232452
v 0.013958 -0.005499 -0.166584
v 0.013958 -0.005499 -0.168084
v 0.012907 -0.005499 -0.168084
v 0.012907 -0.005499 -0.169584
v 0.013958 -0.005499 -0.170634
v 0.013395 -0.005499 -0.210834
v 0.011175 -0.005499 -0.216834
v 0.011175 -0.005499 -0.225564
v 0.010732 -0.005499 -0.225564
v 0.010732 -0.005499 -0.208647
v 0.010634 -0.005499 -0.226158
v 0.010658 -0.005499 -0.218580
v 0.007019 -0.005499 -0.251334
v 0.008499 -0.005499 -0.245040
v 0.009595 -0.005499 -0.238746
v 0.010306 -0.005499 -0.232452
v 0.011762 -0.010803 -0.166584
v 0.011762 -0.010803 -0.168084
v 0.011019 -0.010060 -0.168084
v 0.011019 -0.010060 -0.169584
v 0.011762 -0.010803 -0.170634
v 0.011364 -0.010405 -0.210834
v 0.009794 -0.008835 -0.216834
v 0.009794 -0.008835 -0.225564
v 0.009482 -0.008522 -0.225564
v 0.009482 -0.008522 -0.208647
v 0.009411 -0.008452 -0.226158
v 0.009428 -0.008469 -0.218580
v 0.006854 -0.005895 -0.251334
v 0.007900 -0.006942 -0.245040
v 0.008676 -0.007718 -0.238746
v 0.009180 -0.008220 -0.232452
v 0.004457 -0.007502 -0.165834
v 0.006457 -0.008330 -0.165834
v 0.003627 -0.005499 -0.165834
v 0.004457 -0.003498 -0.165834
v 0.006457 -0.002668 -0.165834
v 0.008460 -0.003498 -0.165834
v 0.009289 -0.005499 -0.165834
v 0.008460 -0.007502 -0.165834
v 0.001898 -0.010060 -0.165834
v 0.006457 -0.011949 -0.165834
v 0.000008 -0.005499 -0.165834
v 0.001898 -0.000939 -0.165834
v 0.006457 0.000951 -0.165834
v 0.011019 -0.000939 -0.165834
v 0.012907 -0.005499 -0.165834
v 0.011019 -0.010060 -0.165834
v 0.005086 -0.006870 -0.165834
v 0.006457 -0.007438 -0.165834
v 0.004518 -0.005499 -0.165834
v 0.005086 -0.004128 -0.165834
v 0.006457 -0.003560 -0.165834
v 0.007830 -0.004128 -0.165834
v 0.008397 -0.005499 -0.165834
v 0.007830 -0.006870 -0.165834
v 0.004703 -0.007255 -0.166674
v 0.006457 -0.007982 -0.166674
v 0.003975 -0.005499 -0.166674
v 0.004703 -0.003744 -0.166674
v 0.006457 -0.003017 -0.166674
v 0.008214 -0.003744 -0.166674
v 0.008941 -0.005499 -0.166674
v 0.008214 -0.007255 -0.166674
v -0.005542 -0.021699 -0.170859
v -0.005542 -0.021699 -0.172359
v -0.005542 -0.020649 -0.172359
v -0.005542 -0.020649 -0.173859
v -0.005542 -0.021699 -0.174909
v -0.005542 -0.021136 -0.215109
v -0.005542 -0.018917 -0.221109
v -0.005542 -0.018917 -0.229839
v -0.005542 -0.018474 -0.229839
v -0.005542 -0.018474 -0.212922
v -0.005542 -0.018375 -0.230433
v -0.005542 -0.018399 -0.222855
v -0.005542 -0.014759 -0.255609
v -0.005542 -0.016240 -0.249315
v -0.005542 -0.017336 -0.243021
v -0.005542 -0.018048 -0.236727
v -0.010845 -0.019503 -0.170859
v -0.010845 -0.019503 -0.172359
v -0.010103 -0.018760 -0.172359
v -0.010103 -0.018760 -0.173859
v -0.010845 -0.019503 -0.174909
v -0.010448 -0.019106 -0.215109
v -0.008878 -0.017535 -0.221109
v -0.008878 -0.017535 -0.229839
v -0.008565 -0.017222 -0.229839
v -0.008565 -0.017222 -0.212922
v -0.008494 -0.017153 -0.230433
v -0.008513 -0.017169 -0.222855
v -0.005938 -0.014595 -0.255609
v -0.006985 -0.015642 -0.249315
v -0.007759 -0.016418 -0.243021
v -0.008264 -0.016920 -0.236727
v -0.013042 -0.014199 -0.170859
v -0.013042 -0.014199 -0.172359
v -0.011992 -0.014199 -0.172359
v -0.011992 -0.014199 -0.173859
v -0.013042 -0.014199 -0.174909
v -0.012480 -0.014199 -0.215109
v -0.010260 -0.014199 -0.221109
v -0.010260 -0.014199 -0.229839
v -0.009817 -0.014199 -0.229839
v -0.009817 -0.014199 -0.212922
v -0.009719 -0.014199 -0.230433
v -0.009742 -0.014199 -0.222855
v -0.006102 -0.014199 -0.255609
v -0.007582 -0.014199 -0.249315
v -0.008679 -0.014199 -0.243021
v -0.009392 -0.014199 -0.236727
v -0.010845 -0.008896 -0.170859
v -0.010845 -0.008896 -0.172359
v -0.010103 -0.009639 -0.172359
v -0.010103 -0.009639 -0.173859
v -0.010845 -0.008896 -0.174909
v -0.010448 -0.009294 -0.215109
v -0.008878 -0.010863 -0.221109
v -0.008878 -0.010863 -0.229839
v -0.008565 -0.011177 -0.229839
v -0.008565 -0.011177 -0.212922
v -0.008494 -0.011246 -0.230433
v -0.008513 -0.011229 -0.222855
v -0.005938 -0.013803 -0.255609
v -0.006985 -0.012756 -0.249315
v -0.007759 -0.011980 -0.243021
v -0.008264 -0.011478 -0.236727
v -0.005542 -0.006699 -0.170859
v -0.005542 -0.006699 -0.172359
v -0.005542 -0.007749 -0.172359
v -0.005542 -0.007749 -0.173859
v -0.005542 -0.006699 -0.174909
v -0.005542 -0.007261 -0.215109
v -0.005542 -0.009482 -0.221109
v -0.005542 -0.009482 -0.229839
v -0.005542 -0.009924 -0.229839
v -0.005542 -0.009924 -0.212922
v -0.005542 -0.010023 -0.230433
v -0.005542 -0.009999 -0.222855
v -0.005542 -0.013640 -0.255609
v -0.005542 -0.012159 -0.249315
v -0.005542 -0.011062 -0.243021
v -0.005542 -0.010350 -0.236727
v -0.000238 -0.008896 -0.170859
v -0.000238 -0.008896 -0.172359
v -0.000981 -0.009639 -0.172359
v -0.000981 -0.009639 -0.173859
v -0.000238 -0.008896 -0.174909
v -0.000636 -0.009294 -0.215109
v -0.002207 -0.010863 -0.221109
v -0.002207 -0.010863 -0.229839
v -0.002518 -0.011177 -0.229839
v -0.002518 -0.011177 -0.212922
v -0.002589 -0.011246 -0.230433
v -0.002573 -0.011229 -0.222855
v -0.005147 -0.013803 -0.255609
v -0.004100 -0.012756 -0.249315
v -0.003324 -0.011980 -0.243021
v -0.002820 -0.011478 -0.236727
v 0.001958 -0.014199 -0.170859
v 0.001958 -0.014199 -0.172359
v 0.000907 -0.014199 -0.172359
v 0.000907 -0.014199 -0.173859
v 0.001958 -0.014199 -0.174909
v 0.001395 -0.014199 -0.215109
v -0.000825 -0.014199 -0.221109
v -0.000825 -0.014199 -0.229839
v -0.001267 -0.014199 -0.229839
v -0.001267 -0.014199 -0.212922
v -0.001367 -0.014199 -0.230433
v -0.001342 -0.014199 -0.222855
v -0.004981 -0.014199 -0.255609
v -0.003501 -0.014199 -0.249315
v -0.002404 -0.014199 -0.243021
v -0.001694 -0.014199 -0.236727
v -0.000238 -0.019503 -0.170859
v -0.000238 -0.019503 -0.172359
v -0.000981 -0.018760 -0.172359
v -0.000981 -0.018760 -0.173859
v -0.000238 -0.019503 -0.174909
v -0.000636 -0.019106 -0.215109
v -0.002207 -0.017535 -0.221109
v -0.002207 -0.017535 -0.229839
v -0.002518 -0.017222 -0.229839
v -0.002518 -0.017222 -0.212922
v -0.002589 -0.017153 -0.230433
v -0.002573 -0.017169 -0.222855
v -0.005147 -0.014595 -0.255609
v -0.004100 -0.015642 -0.249315
v -0.003324 -0.016418 -0.243021
v -0.002820 -0.016920 -0.236727
v -0.007543 -0.016202 -0.170109
v -0.005542 -0.017029 -0.170109
v -0.008373 -0.014199 -0.170109
v -0.007543 -0.012198 -0.170109
v -0.005542 -0.011369 -0.170109
v -0.003540 -0.012198 -0.170109
v -0.002711 -0.014199 -0.170109
v -0.003540 -0.016202 -0.170109
v -0.010103 -0.018760 -0.170109
v -0.005542 -0.020649 -0.170109
v -0.011992 -0.014199 -0.170109
v -0.010103 -0.009639 -0.170109
v -0.005542 -0.007749 -0.170109
v -0.000981 -0.009639 -0.170109
v 0.000907 -0.014199 -0.170109
v -0.000981 -0.018760 -0.170109
v -0.006914 -0.015570 -0.170109
v -0.005542 -0.016139 -0.170109
v -0.007482 -0.014199 -0.170109
v -0.006914 -0.012828 -0.170109
v -0.005542 -0.012259 -0.170109
v -0.004170 -0.012828 -0.170109
v -0.003603 -0.014199 -0.170109
v -0.004170 -0.015570 -0.170109
v -0.007298 -0.015956 -0.170949
v -0.005542 -0.016682 -0.170949
v -0.008025 -0.014199 -0.170949
v -0.007298 -0.012444 -0.170949
v -0.005542 -0.011717 -0.170949
v -0.003786 -0.012444 -0.170949
v -0.003059 -0.014199 -0.170949
v -0.003786 -0.015956 -0.170949
v 0.010155 -0.005499 -0.263013
v 0.010155 -0.012793 -0.263013
v 0.010155 -0.005499 -0.256532
v 0.010155 -0.012793 -0.256532
v -0.009426 -0.005499 -0.263013
v -0.009426 -0.012793 -0.263013
v -0.009426 -0.005499 -0.256532
v -0.009426 -0.012793 -0.256532
v 0.029382 0.009669 -0.039359
v -0.028653 0.005890 -0.043136
v 0.029382 0.005890 -0.043136
v -0.028653 0.003219 -0.042030
v 0.029382 0.003219 -0.042030
v -0.028653 0.002112 -0.039359
v 0.029382 0.002112 -0.039359
v -0.028653 0.003219 -0.036686
v 0.029382 0.003219 -0.036686
v 0.029382 0.005890 -0.035580
v -0.028653 0.008562 -0.036686
v 0.032549 0.001884 -0.027864
v 0.032549 -0.011541 -0.119312
v 0.032549 0.013449 -0.029754
v 0.032549 -0.002933 -0.120719
v 0.032549 -0.002313 -0.031005
v 0.032549 0.016428 -0.034068
v 0.029246 0.020148 -0.033863
v -0.044439 -0.009405 -0.105539
v -0.044439 -0.010256 -0.117924
v -0.031820 0.013449 -0.029754
v -0.031820 -0.002933 -0.120719
v -0.031820 -0.002313 -0.031005
v -0.031820 0.016428 -0.034068
v -0.044439 -0.008063 -0.111936
v -0.044439 -0.006192 -0.112154
v -0.028517 -0.005773 -0.029627
v -0.028517 -0.000124 -0.123933
v -0.028517 0.020148 -0.033863
v 0.012173 0.071789 -0.554303
v -0.011444 0.071789 -0.554303
v -0.015536 0.081699 -0.554303
v 0.012173 0.077204 -0.554303
v -0.011444 0.077204 -0.554303
v 0.012173 0.071789 0.008515
v -0.011444 0.071789 0.008515
v -0.015536 0.081699 0.008515
v 0.012173 0.077204 0.008515
v -0.011444 0.077204 0.008515
v 0.012173 0.086195 -0.554303
v -0.011444 0.086195 -0.554303
v 0.016265 0.081699 -0.554303
v 0.012173 0.086195 0.008515
v -0.011444 0.086195 0.008515
v 0.016265 0.081699 0.008515
v 0.012173 -0.016125 -0.314036
v -0.011444 -0.016125 -0.314036
v -0.015536 -0.026034 -0.314036
v 0.012173 -0.021540 -0.314036
v -0.011444 -0.021540 -0.314036
v 0.012173 -0.016125 -0.554303
v -0.011444 -0.016125 -0.554303
v -0.015536 -0.026036 -0.554303
v 0.012173 -0.021540 -0.554303
v -0.011444 -0.021540 -0.554303
v 0.012173 -0.030530 -0.314036
v -0.011444 -0.030530 -0.314036
v 0.016265 -0.026034 -0.314036
v 0.012173 -0.030530 -0.554303
v -0.011444 -0.030530 -0.554303
v 0.016265 -0.026036 -0.554303
v -0.023765 0.034954 -0.466052
v -0.018801 0.058570 -0.466052
v -0.034744 0.062662 -0.466052
v -0.030249 0.034954 -0.466052
v -0.030249 0.058570 -0.466052
v -0.023765 0.034954 -0.549271
v -0.018801 0.058570 -0.549271
v -0.034744 0.062662 -0.549271
v -0.030249 0.034954 -0.549271
v -0.030249 0.058570 -0.549271
v -0.039240 0.034954 -0.466052
v -0.039240 0.058570 -0.466052
v -0.034744 0.030863 -0.466052
v -0.039240 0.034954 -0.549271
v -0.039240 0.058570 -0.549271
v -0.034744 0.030863 -0.549271
v 0.024494 0.034954 -0.549271
v 0.019530 0.058570 -0.549271
v 0.035473 0.062662 -0.549271
v 0.030978 0.034954 -0.549271
v 0.030978 0.058570 -0.549271
v 0.024494 0.034954 -0.466052
v 0.019530 0.058570 -0.466052
v 0.035473 0.062662 -0.466052
v 0.030978 0.034954 -0.466052
v 0.030978 0.058570 -0.466052
v 0.039969 0.034954 -0.549271
v 0.039969 0.058570 -0.549271
v 0.035473 0.030863 -0.549271
v 0.039969 0.034954 -0.466052
v 0.039969 0.058570 -0.466052
v 0.035473 0.030863 -0.466052
v 0.000365 -0.001009 -0.284280
v 0.000365 -0.001009 -0.629045
v 0.006932 0.001712 -0.284280
v 0.006932 0.001712 -0.629045
v 0.009652 0.008278 -0.284280
v 0.009652 0.008278 -0.629045
v 0.006932 0.014845 -0.284280
v 0.006932 0.014845 -0.629045
v 0.000365 0.017566 -0.284280
v 0.000365 0.017566 -0.629045
v -0.006202 0.014845 -0.284280
v -0.006202 0.014845 -0.629045
v -0.008924 0.008278 -0.284280
v -0.008924 0.008278 -0.629045
v -0.006202 0.001712 -0.284280
v -0.006202 0.001712 -0.629045
v 0.000365 -0.004257 -0.284280
v 0.009228 -0.000585 -0.284280
v 0.009228 -0.000585 -0.629045
v 0.000365 -0.004257 -0.629045
v 0.012900 0.008278 -0.284280
v 0.012900 0.008278 -0.629045
v 0.009228 0.017142 -0.284280
v 0.009228 0.017142 -0.629045
v 0.000365 0.020814 -0.284280
v 0.000365 0.020814 -0.629045
v -0.008499 0.017142 -0.284280
v -0.008499 0.017142 -0.629045
v -0.012171 0.008278 -0.284280
v -0.012171 0.008278 -0.629045
v -0.008499 -0.000585 -0.284280
v -0.008499 -0.000585 -0.629045
v 0.000365 0.008278 -0.291423
v 0.000365 0.008278 -0.624200
v 0.009059 0.037050 -0.619653
v 0.000365 0.033448 -0.619653
v 0.012660 0.045744 -0.619653
v 0.009059 0.054438 -0.619653
v 0.000365 0.058039 -0.619653
v -0.008330 0.054438 -0.619653
v -0.011931 0.045744 -0.619653
v -0.008330 0.037050 -0.619653
v 0.000365 0.033448 -0.574703
v 0.009059 0.037050 -0.574703
v 0.012660 0.045744 -0.574703
v 0.009059 0.054438 -0.574703
v 0.000365 0.058039 -0.574703
v -0.008330 0.054438 -0.574703
v -0.011931 0.045744 -0.574703
v -0.008330 0.037050 -0.574703
v 0.000365 0.033448 -0.597179
v 0.009059 0.037050 -0.597179
v 0.012660 0.045744 -0.597179
v 0.009059 0.054438 -0.597179
v 0.000365 0.058039 -0.597179
v -0.008330 0.054438 -0.597179
v -0.011931 0.045744 -0.597179
v -0.008330 0.037050 -0.597179
v 0.011481 0.014681 -0.619653
v 0.000365 0.014681 -0.619653
v -0.010752 0.014681 -0.619653
v 0.000365 0.014681 -0.597179
v 0.011481 0.014681 -0.597179
v -0.010752 0.014681 -0.597179
v 0.010499 -0.002099 -0.623025
v 0.000365 -0.006297 -0.623025
v 0.014696 0.008035 -0.623025
v 0.010499 0.018170 -0.623025
v 0.000365 0.022367 -0.623025
v -0.009770 0.018170 -0.623025
v -0.013966 0.008035 -0.623025
v -0.009770 -0.002099 -0.623025
v 0.010499 -0.002099 -0.582259
v 0.000365 -0.006297 -0.582259
v 0.014696 0.008035 -0.582259
v 0.010499 0.018170 -0.582259
v 0.000365 0.022367 -0.582259
v -0.009770 0.018170 -0.582259
v -0.013966 0.008035 -0.582259
v -0.009770 -0.002099 -0.582259
v 0.000365 0.035853 -0.540963
v 0.007359 0.038749 -0.540963
v 0.010256 0.045744 -0.540963
v 0.007359 0.052739 -0.540963
v 0.000365 0.055635 -0.540963
v -0.006630 0.052739 -0.540963
v -0.009527 0.045744 -0.540963
v -0.006630 0.038749 -0.540963
v 0.007359 0.038749 -0.574703
v 0.010256 0.045744 -0.574703
v 0.007359 0.052739 -0.574703
v 0.000365 0.055635 -0.574703
v -0.006630 0.052739 -0.574703
v -0.009527 0.045744 -0.574703
v -0.006630 0.038749 -0.574703
v 0.000365 0.035853 -0.574703
v 0.008408 0.053571 -0.599535
v 0.004948 0.053571 -0.616534
v 0.008408 0.108933 -0.599535
v 0.004948 0.108933 -0.599535
v 0.008408 0.053571 -0.616534
v 0.004948 0.053571 -0.599535
v 0.008408 0.108933 -0.616534
v 0.004948 0.108933 -0.616534
v 0.008408 0.094243 -0.599535
v 0.004948 0.094243 -0.616534
v 0.004948 0.094243 -0.599535
v 0.008408 0.094243 -0.616534
v 0.008408 0.077204 -0.599535
v 0.004948 0.077204 -0.599535
v 0.004948 0.077204 -0.616534
v 0.008408 0.077204 -0.616534
v 0.007978 0.099141 -0.616534
v 0.007978 0.104037 -0.616534
v 0.011436 0.099141 -0.616534
v 0.011436 0.104037 -0.616534
v 0.011436 0.104037 -0.599535
v 0.011436 0.099141 -0.599535
v 0.007978 0.104037 -0.599535
v 0.007978 0.099141 -0.599535
v 0.002325 0.094243 -0.611143
v 0.002325 0.100649 -0.611143
v 0.002325 0.100649 -0.604926
v 0.002325 0.094243 -0.604926
v 0.008408 0.070530 -0.601695
v 0.004948 0.070530 -0.601695
v 0.004948 0.070530 -0.614376
v 0.008408 0.070530 -0.614376
v 0.008408 0.061638 -0.601695
v 0.004948 0.061638 -0.601695
v 0.004948 0.061638 -0.614376
v 0.008408 0.061638 -0.614376
v 0.004948 0.059601 -0.616534
v 0.004948 0.072567 -0.616534
v 0.008408 0.059601 -0.616534
v 0.008408 0.072567 -0.616534
v 0.008408 0.072567 -0.599535
v 0.004948 0.072567 -0.599535
v 0.008408 0.059601 -0.599535
v 0.004948 0.059601 -0.599535
v -0.007679 0.053571 -0.599535
v -0.004220 0.053571 -0.616534
v -0.007679 0.108933 -0.599535
v -0.004220 0.108933 -0.599535
v -0.007679 0.053571 -0.616534
v -0.004220 0.053571 -0.599535
v -0.007679 0.108933 -0.616534
v -0.004220 0.108933 -0.616534
v -0.007679 0.094243 -0.599535
v -0.004220 0.094243 -0.616534
v -0.004220 0.094243 -0.599535
v -0.007679 0.094243 -0.616534
v -0.007679 0.077204 -0.599535
v -0.004220 0.077204 -0.599535
v -0.004220 0.077204 -0.616534
v -0.007679 0.077204 -0.616534
v -0.007249 0.099141 -0.616534
v -0.007249 0.104037 -0.616534
v -0.010707 0.099141 -0.616534
v -0.010707 0.104037 -0.616534
v -0.010707 0.104037 -0.599535
v -0.010707 0.099141 -0.599535
v -0.007249 0.104037 -0.599535
v -0.007249 0.099141 -0.599535
v -0.001596 0.094243 -0.611143
v -0.001596 0.100649 -0.611143
v -0.001596 0.100649 -0.604926
v -0.001596 0.094243 -0.604926
v -0.007679 0.070530 -0.601695
v -0.004220 0.070530 -0.601695
v -0.004220 0.070530 -0.614376
v -0.007679 0.070530 -0.614376
v -0.007679 0.061638 -0.601695
v -0.004220 0.061638 -0.601695
v -0.004220 0.061638 -0.614376
v -0.007679 0.061638 -0.614376
v -0.004220 0.059601 -0.616534
v -0.004220 0.072567 -0.616534
v -0.007679 0.059601 -0.616534
v -0.007679 0.072567 -0.616534
v -0.007679 0.072567 -0.599535
v -0.004220 0.072567 -0.599535
v -0.007679 0.059601 -0.599535
v -0.004220 0.059601 -0.599535
v 0.010613 0.055824 -0.163071
v 0.010613 0.055824 -0.292571
v 0.010613 0.054873 -0.292571
v 0.010613 0.044721 -0.292571
v 0.010613 0.054873 -0.399205
v 0.010613 0.044721 -0.399205
v 0.000365 0.054873 -0.292571
v 0.000365 0.044721 -0.292571
v 0.000365 0.054873 -0.399205
v 0.000365 0.044721 -0.399205
v 0.051159 0.053721 -0.377436
v 0.032264 0.053721 -0.392471
v 0.032264 0.051951 -0.394348
v 0.032264 0.048048 -0.394348
v 0.032264 0.046276 -0.392471
v 0.051159 0.051951 -0.394348
v 0.051159 0.053721 -0.392471
v 0.051159 0.046276 -0.392471
v 0.051159 0.048048 -0.394348
v 0.038562 0.053721 -0.388406
v 0.038562 0.051951 -0.390286
v 0.044860 0.051951 -0.390286
v 0.044860 0.053721 -0.388406
v 0.038562 0.048048 -0.390286
v 0.038562 0.046276 -0.388406
v 0.044860 0.046276 -0.388406
v 0.044860 0.048048 -0.390286
v 0.051159 0.046276 -0.377436
v -0.019710 0.011762 -0.163071
v -0.009883 0.055824 -0.163071
v -0.019710 0.011762 -0.292571
v -0.009883 0.055824 -0.292571
v -0.019710 0.035672 -0.292571
v -0.019710 0.035672 -0.163071
v -0.009883 0.054873 -0.292571
v -0.009883 0.044721 -0.292571
v -0.009883 0.054873 -0.399205
v -0.009883 0.044721 -0.399205
v -0.050430 0.053721 -0.377436
v -0.031535 0.053721 -0.392471
v -0.031535 0.051951 -0.394348
v -0.031535 0.048048 -0.394348
v -0.031535 0.046276 -0.392471
v -0.050430 0.051951 -0.394348
v -0.050430 0.053721 -0.392471
v -0.050430 0.046276 -0.392471
v -0.050430 0.048048 -0.394348
v -0.037833 0.053721 -0.388406
v -0.037833 0.051951 -0.390286
v -0.044131 0.051951 -0.390286
v -0.044131 0.053721 -0.388406
v -0.037833 0.048048 -0.390286
v -0.037833 0.046276 -0.388406
v -0.044131 0.046276 -0.388406
v -0.044131 0.048048 -0.390286
v -0.050430 0.046276 -0.377436
v 0.022801 -0.007468 0.268385
v 0.022801 -0.007468 0.146181
v 0.022801 0.021677 0.268385
v 0.015515 0.034005 0.268385
v 0.015515 0.034005 0.122029
v 0.022801 0.021677 0.122029
v 0.022801 -0.020713 0.268385
v 0.022801 -0.020713 0.146181
v 0.018301 -0.007468 0.268385
v 0.018301 -0.007468 0.146181
v 0.018301 0.020446 0.268385
v 0.012693 0.029935 0.268385
v 0.012693 0.029935 0.122029
v 0.018301 0.020446 0.122029
v 0.018301 -0.020713 0.268385
v 0.018301 -0.020713 0.146181
v -0.022073 -0.007468 0.268385
v -0.022073 -0.007468 0.146181
v -0.022073 0.021677 0.268385
v -0.014786 0.034005 0.268385
v -0.014786 0.034005 0.122029
v -0.022073 0.021677 0.122029
v -0.022073 -0.020713 0.268385
v -0.022073 -0.020713 0.146181
v -0.017572 -0.007468 0.268385
v -0.017572 -0.007468 0.146181
v -0.017572 0.020446 0.268385
v -0.011964 0.029935 0.268385
v -0.011964 0.029935 0.122029
v -0.017572 0.020446 0.122029
v -0.017572 -0.020713 0.268385
v -0.017572 -0.020713 0.146181
v 0.012111 -0.003469 -0.632625
v 0.000365 -0.008334 -0.632625
v 0.016977 0.008278 -0.632625
v 0.012111 0.020025 -0.632625
v 0.000365 0.024891 -0.632625
v -0.011382 0.020025 -0.632625
v -0.016248 0.008278 -0.632625
v -0.011382 -0.003469 -0.632625
v 0.012111 -0.003469 -0.713105
v 0.000365 -0.008334 -0.713105
v 0.016977 0.008278 -0.713105
v 0.012111 0.020025 -0.713105
v 0.000365 0.024891 -0.713105
v -0.011382 0.020025 -0.713105
v -0.016248 0.008278 -0.713105
v -0.011382 -0.003469 -0.713105
v 0.010642 -0.001999 -0.713105
v 0.000365 -0.006256 -0.713105
v 0.014900 0.008278 -0.713105
v 0.010642 0.018557 -0.713105
v 0.000365 0.022814 -0.713105
v -0.009914 0.018557 -0.713105
v -0.014171 0.008278 -0.713105
v -0.009914 -0.001999 -0.713105
v 0.010642 -0.001999 -0.720869
v 0.000365 -0.006256 -0.720869
v 0.014900 0.008278 -0.720869
v 0.010642 0.018557 -0.720869
v 0.000365 0.022814 -0.720869
v -0.009914 0.018557 -0.720869
v -0.014171 0.008278 -0.720869
v -0.009914 -0.001999 -0.720869
v 0.008808 -0.000165 -0.720869
v 0.000365 -0.003663 -0.720869
v 0.012304 0.008278 -0.720869
v 0.008808 0.016722 -0.720869
v 0.000365 0.020219 -0.720869
v -0.008079 0.016722 -0.720869
v -0.011575 0.008278 -0.720869
v -0.008079 -0.000165 -0.720869
v -0.011382 0.020025 -0.700650
v -0.011382 0.020025 -0.679845
v -0.016248 0.008278 -0.679845
v -0.016248 0.008278 -0.700650
v 0.012111 0.020025 -0.700650
v 0.012111 0.020025 -0.679845
v 0.000365 0.024891 -0.679845
v 0.000365 0.024891 -0.700650
v 0.012111 -0.003469 -0.700650
v 0.012111 -0.003469 -0.679845
v 0.016977 0.008278 -0.679845
v 0.016977 0.008278 -0.700650
v -0.011382 -0.003469 -0.679845
v -0.011382 -0.003469 -0.700650
v 0.000365 -0.008334 -0.700650
v 0.000365 -0.008334 -0.679845
v 0.008808 -0.000165 -0.700650
v 0.000365 -0.003663 -0.700650
v 0.012304 0.008278 -0.700650
v 0.008808 0.016722 -0.700650
v 0.000365 0.020219 -0.700650
v -0.008079 0.016722 -0.700650
v -0.011575 0.008278 -0.700650
v -0.008079 -0.000165 -0.700650
v 0.000365 0.021313 -0.700650
v 0.000365 0.021313 -0.679845
v 0.000365 -0.004757 -0.679845
v 0.000365 -0.004757 -0.700650
v 0.008808 -0.000165 -0.679845
v 0.000365 -0.003663 -0.679845
v 0.012304 0.008278 -0.679845
v 0.008808 0.016722 -0.679845
v 0.000365 0.020219 -0.679845
v -0.008079 0.016722 -0.679845
v -0.011575 0.008278 -0.679845
v -0.008079 -0.000165 -0.679845
v 0.008808 -0.000165 -0.629045
v 0.000365 -0.003663 -0.629045
v 0.012304 0.008278 -0.629045
v 0.008808 0.016722 -0.629045
v 0.000365 0.020219 -0.629045
v -0.008079 0.016722 -0.629045
v -0.011575 0.008278 -0.629045
v -0.008079 -0.000165 -0.629045
v 0.018757 0.073942 -0.010277
v 0.018757 0.088516 -0.010277
v 0.018757 0.073942 -0.053090
v 0.018757 0.088516 -0.053090
v 0.018757 0.088516 -0.033852
v 0.012839 0.088516 -0.053090
v 0.012839 0.088516 -0.033852
v 0.012839 0.097188 -0.049205
v 0.018757 0.097188 -0.049205
v 0.018757 0.097188 -0.037737
v 0.012839 0.097188 -0.037737
v -0.018028 0.073942 -0.010277
v -0.018028 0.088516 -0.010277
v -0.018028 0.073942 -0.053090
v -0.018028 0.088516 -0.053090
v -0.018028 0.088516 -0.033852
v -0.012111 0.088516 -0.053090
v -0.012111 0.088516 -0.033852
v -0.012111 0.097188 -0.049205
v -0.018028 0.097188 -0.049205
v -0.018028 0.097188 -0.037737
v -0.012111 0.097188 -0.037737
v -0.004311 0.108933 -0.012557
v -0.007139 0.105770 -0.012557
v -0.007139 0.099141 -0.012557
v 0.007867 0.099141 -0.012557
v 0.007867 0.105770 -0.012557
v 0.005040 0.108933 -0.012557
v -0.004311 0.108933 -0.016337
v -0.007139 0.105770 -0.016337
v -0.007139 0.099141 -0.016337
v 0.007867 0.099141 -0.016337
v 0.007867 0.105770 -0.016337
v 0.005040 0.108933 -0.016337
v -0.004665 0.094602 -0.012557
v 0.005394 0.094602 -0.012557
v -0.004665 0.094602 -0.016337
v 0.005394 0.094602 -0.016337
v -0.002968 0.105933 -0.012557
v -0.004138 0.104625 -0.012557
v -0.004138 0.099870 -0.012557
v 0.004868 0.099870 -0.012557
v 0.004868 0.104625 -0.012557
v 0.003698 0.105933 -0.012557
v -0.002968 0.105933 -0.016337
v -0.004138 0.104625 -0.016337
v -0.004138 0.099870 -0.016337
v 0.004868 0.099870 -0.016337
v 0.004868 0.104625 -0.016337
v 0.003698 0.105933 -0.016337
v -0.001665 0.095331 -0.012557
v 0.002394 0.095331 -0.012557
v -0.001665 0.095331 -0.016337
v 0.002394 0.095331 -0.016337
v -0.004665 0.094602 -0.044436
v -0.004665 0.090654 -0.044436
v 0.005394 0.090654 -0.044436
v 0.005394 0.094602 -0.044436
v -0.001665 0.095331 -0.044436
v 0.002394 0.095331 -0.044436
v -0.004665 0.090654 -0.014405
v -0.004665 0.092502 -0.012557
v 0.005394 0.092502 -0.012557
v 0.005394 0.090654 -0.014405
v -0.021185 0.095672 -0.044012
v 0.021914 0.095672 -0.044012
v -0.021185 0.094747 -0.046241
v 0.021914 0.094747 -0.046241
v -0.021185 0.092519 -0.047165
v 0.021914 0.092519 -0.047165
v -0.021185 0.090290 -0.046241
v 0.021914 0.090290 -0.046241
v -0.021185 0.089366 -0.044012
v 0.021914 0.089366 -0.044012
v -0.021185 0.090290 -0.041781
v 0.021914 0.090290 -0.041781
v -0.021185 0.092519 -0.040859
v 0.021914 0.092519 -0.040859
v -0.021185 0.094747 -0.041781
v 0.021914 0.094747 -0.041781
v -0.019048 0.087495 -0.018633
v 0.019777 0.087495 -0.018633
v -0.019048 0.086667 -0.020633
v 0.019777 0.086667 -0.020633
v -0.019048 0.084668 -0.021461
v 0.019777 0.084668 -0.021461
v -0.019048 0.082670 -0.020633
v 0.019777 0.082670 -0.020633
v -0.019048 0.081841 -0.018633
v 0.019777 0.081841 -0.018633
v -0.019048 0.082670 -0.016635
v 0.019777 0.082670 -0.016635
v -0.019048 0.084668 -0.015807
v 0.019777 0.084668 -0.015807
v -0.019048 0.086667 -0.016635
v 0.019777 0.086667 -0.016635
v -0.011582 -0.016764 -0.260759
v 0.020782 -0.016764 -0.238578
v 0.012309 -0.016764 -0.260759
v 0.020782 -0.016764 -0.163589
v -0.020054 -0.016764 -0.238578
v -0.020054 -0.016764 -0.163589
v -0.011582 -0.027764 -0.260759
v 0.020782 -0.027764 -0.238578
v 0.012309 -0.027764 -0.260759
v 0.020782 -0.027764 -0.163589
v -0.020054 -0.027764 -0.238578
v -0.020054 -0.027764 -0.163589
v 0.016265 0.071789 0.008515
v 0.025563 -0.025326 0.033835
v 0.016265 0.071789 -0.437080
v 0.025563 -0.016125 -0.314036
v 0.025563 0.029487 0.033835
v 0.025563 0.029487 -0.314036
v 0.019520 0.017775 -0.291504
v 0.021722 0.044388 -0.437080
v 0.019520 0.017775 -0.164162
v 0.021722 0.045698 -0.314036
v -0.021316 -0.006960 -0.291504
v 0.019520 -0.006960 -0.291504
v 0.025563 -0.025326 -0.165668
v -0.015536 0.071789 0.008515
v -0.024834 -0.025326 0.033835
v -0.024834 -0.016125 -0.314036
v -0.024834 0.029487 0.033835
v -0.024834 0.029487 -0.314036
v -0.020993 0.044388 -0.437080
v -0.021316 -0.006960 -0.163071
v -0.020993 0.045698 -0.314036
v 0.019520 -0.006960 -0.163071
v -0.024834 -0.025326 -0.165684
v 0.025563 0.017775 -0.291504
v 0.025563 0.029487 -0.291504
v 0.025563 0.029487 -0.164162
v -0.019310 0.054618 -0.169454
v 0.025563 0.017775 -0.164162
v 0.021461 0.045698 -0.395394
v 0.020864 0.048696 -0.398394
v -0.021271 0.045698 -0.164162
v 0.020282 0.051618 -0.398394
v 0.019685 0.054618 -0.395394
v 0.020039 0.054618 -0.169454
v 0.020699 0.051618 -0.164162
v -0.020731 0.045698 -0.291504
v 0.021461 0.045698 -0.291504
v -0.019553 0.051618 -0.398394
v -0.018956 0.054618 -0.395394
v -0.020134 0.048696 -0.398394
v -0.020731 0.045698 -0.395394
v -0.019970 0.051618 -0.164162
v -0.024834 0.029487 -0.165888
v 0.033868 0.009862 -0.039818
v -0.033140 0.008385 -0.043386
v -0.033140 0.004816 -0.044865
v 0.033868 0.001248 -0.043386
v 0.033868 -0.000229 -0.039818
v -0.033140 0.001248 -0.036249
v 0.033868 0.001248 -0.036249
v -0.033140 0.004816 -0.034772
v 0.033868 0.004816 -0.034772
v -0.033140 0.008385 -0.036249
v 0.033868 0.008385 -0.036249
v -0.028653 0.009669 -0.039359
v -0.028653 0.008562 -0.042030
v 0.029382 0.008562 -0.042030
v -0.028653 0.005890 -0.035580
v 0.029382 0.008562 -0.036686
v 0.045168 -0.009405 -0.105539
v 0.045168 -0.007533 -0.105756
v 0.045168 -0.010256 -0.117924
v 0.045168 -0.008384 -0.118142
v 0.045168 -0.008063 -0.111936
v 0.045168 -0.006192 -0.112154
v 0.029246 0.015657 -0.027360
v 0.029246 0.000554 -0.024893
v 0.029246 -0.005773 -0.029627
v 0.029246 -0.015227 -0.121464
v 0.029246 -0.000124 -0.123933
v -0.044439 -0.007533 -0.105756
v -0.044439 -0.008384 -0.118142
v -0.031820 0.001884 -0.027864
v -0.031820 -0.011541 -0.119312
v -0.028517 0.015657 -0.027360
v -0.028517 0.000554 -0.024893
v -0.028517 -0.015227 -0.121464
v 0.027063 -0.013431 -0.136404
v 0.027063 -0.009624 -0.135497
v 0.027063 -0.005818 -0.136404
v 0.027063 -0.005818 -0.141189
v 0.027063 -0.009624 -0.142097
v 0.027063 -0.006797 -0.137454
v 0.027063 -0.009624 -0.140627
v 0.025563 -0.010134 -0.129833
v 0.027063 -0.012807 -0.132929
v 0.027063 -0.014265 -0.131438
v 0.027063 -0.012744 -0.128634
v 0.027063 -0.011499 -0.131763
v 0.027063 -0.007059 -0.131763
v 0.027063 -0.004650 -0.128634
v 0.025563 -0.004650 -0.131438
v 0.027063 -0.004650 -0.131438
v 0.025563 -0.006105 -0.132929
v 0.027063 -0.006105 -0.132929
v 0.027063 -0.010134 -0.131763
v 0.025563 -0.010134 -0.131763
v 0.027063 -0.008784 -0.131763
v 0.025563 -0.012807 -0.132929
v 0.025563 -0.014265 -0.131438
v 0.025563 -0.014265 -0.128634
v 0.027063 -0.014265 -0.128634
v 0.025563 -0.012744 -0.128634
v 0.025563 -0.012744 -0.130701
v 0.027063 -0.012744 -0.130701
v 0.025563 -0.011499 -0.131763
v 0.025563 -0.007059 -0.131763
v 0.025563 -0.006210 -0.130701
v 0.027063 -0.006210 -0.130701
v 0.025563 -0.006210 -0.128634
v 0.027063 -0.006210 -0.128634
v 0.025563 -0.004650 -0.128634
v 0.025563 -0.013431 -0.136404
v 0.025563 -0.009624 -0.135497
v 0.025563 -0.005818 -0.136404
v 0.025563 -0.004374 -0.138797
v 0.027063 -0.004374 -0.138797
v 0.025563 -0.005818 -0.141189
v 0.025563 -0.009624 -0.142097
v 0.025563 -0.013431 -0.141189
v 0.027063 -0.013431 -0.141189
v 0.025563 -0.014874 -0.138797
v 0.027063 -0.014874 -0.138797
v 0.025563 -0.006797 -0.137454
v 0.025563 -0.009624 -0.136966
v 0.027063 -0.009624 -0.136966
v 0.025563 -0.012451 -0.137454
v 0.027063 -0.012451 -0.137454
v 0.025563 -0.013479 -0.138797
v 0.027063 -0.013479 -0.138797
v 0.025563 -0.012451 -0.140139
v 0.027063 -0.012451 -0.140139
v 0.025563 -0.009624 -0.140627
v 0.025563 -0.006797 -0.140139
v 0.027063 -0.006797 -0.140139
v 0.025563 -0.005769 -0.138797
v 0.027063 -0.005769 -0.138797
v 0.027063 -0.010134 -0.129833
v 0.025563 -0.008784 -0.129833
v 0.027063 -0.008784 -0.129833
v 0.025563 -0.008784 -0.131763
v 0.027063 0.016569 -0.128904
v 0.027063 0.024182 -0.128904
v 0.027063 0.024182 -0.133689
v 0.027063 0.016569 -0.133689
v 0.027063 0.015124 -0.131297
v 0.027063 0.020375 -0.129467
v 0.027063 0.016519 -0.131297
v 0.027063 0.017547 -0.132639
v 0.027063 0.023202 -0.132639
v 0.025563 0.016569 -0.128904
v 0.025563 0.020375 -0.127997
v 0.027063 0.020375 -0.127997
v 0.025563 0.024182 -0.128904
v 0.025563 0.025625 -0.131297
v 0.027063 0.025625 -0.131297
v 0.025563 0.024182 -0.133689
v 0.025563 0.020375 -0.134597
v 0.027063 0.020375 -0.134597
v 0.025563 0.016569 -0.133689
v 0.025563 0.015124 -0.131297
v 0.025563 0.023202 -0.129954
v 0.027063 0.023202 -0.129954
v 0.025563 0.020375 -0.129467
v 0.025563 0.017547 -0.129954
v 0.027063 0.017547 -0.129954
v 0.025563 0.016519 -0.131297
v 0.025563 0.017547 -0.132639
v 0.025563 0.020375 -0.133127
v 0.027063 0.020375 -0.133127
v 0.025563 0.023202 -0.132639
v 0.025563 0.024230 -0.131297
v 0.027063 0.024230 -0.131297
v 0.027063 0.000260 -0.130577
v 0.027063 0.010490 -0.130577
v 0.027063 0.010490 -0.132047
v 0.025563 0.000260 -0.130577
v 0.025563 0.010490 -0.130577
v 0.025563 0.010490 -0.132047
v 0.025563 0.000260 -0.132047
v 0.027063 0.000260 -0.132047
v -0.026334 -0.013431 -0.133104
v -0.026334 -0.009624 -0.134012
v -0.026334 -0.005818 -0.133104
v -0.026334 -0.005818 -0.128319
v -0.026334 -0.009624 -0.127412
v -0.026334 -0.006797 -0.132054
v -0.026334 -0.009624 -0.128882
v -0.024834 -0.010134 -0.139677
v -0.026334 -0.012807 -0.136580
v -0.026334 -0.014265 -0.138072
v -0.026334 -0.012744 -0.140874
v -0.026334 -0.011499 -0.137745
v -0.026334 -0.007059 -0.137745
v -0.026334 -0.004650 -0.140874
v -0.024834 -0.004650 -0.138072
v -0.026334 -0.004650 -0.138072
v -0.024834 -0.006105 -0.136580
v -0.026334 -0.006105 -0.136580
v -0.026334 -0.010134 -0.137745
v -0.024834 -0.010134 -0.137745
v -0.026334 -0.008784 -0.137745
v -0.024834 -0.012807 -0.136580
v -0.024834 -0.014265 -0.138072
v -0.024834 -0.014265 -0.140874
v -0.026334 -0.014265 -0.140874
v -0.024834 -0.012744 -0.140874
v -0.024834 -0.012744 -0.138807
v -0.026334 -0.012744 -0.138807
v -0.024834 -0.011499 -0.137745
v -0.024834 -0.007059 -0.137745
v -0.024834 -0.006210 -0.138807
v -0.026334 -0.006210 -0.138807
v -0.024834 -0.006210 -0.140874
v -0.026334 -0.006210 -0.140874
v -0.024834 -0.004650 -0.140874
v -0.024834 -0.013431 -0.133104
v -0.024834 -0.009624 -0.134012
v -0.024834 -0.005818 -0.133104
v -0.024834 -0.004374 -0.130712
v -0.026334 -0.004374 -0.130712
v -0.024834 -0.005818 -0.128319
v -0.024834 -0.009624 -0.127412
v -0.024834 -0.013431 -0.128319
v -0.026334 -0.013431 -0.128319
v -0.024834 -0.014874 -0.130712
v -0.026334 -0.014874 -0.130712
v -0.024834 -0.006797 -0.132054
v -0.024834 -0.009624 -0.132542
v -0.026334 -0.009624 -0.132542
v -0.024834 -0.012451 -0.132054
v -0.026334 -0.012451 -0.132054
v -0.024834 -0.013479 -0.130712
v -0.026334 -0.013479 -0.130712
v -0.024834 -0.012451 -0.129369
v -0.026334 -0.012451 -0.129369
v -0.024834 -0.009624 -0.128882
v -0.024834 -0.006797 -0.129369
v -0.026334 -0.006797 -0.129369
v -0.024834 -0.005769 -0.130712
v -0.026334 -0.005769 -0.130712
v -0.026334 -0.010134 -0.139677
v -0.024834 -0.008784 -0.139677
v -0.026334 -0.008784 -0.139677
v -0.024834 -0.008784 -0.137745
v -0.026334 0.016569 -0.128904
v -0.026334 0.024182 -0.128904
v -0.026334 0.024182 -0.133689
v -0.026334 0.016569 -0.133689
v -0.026334 0.015124 -0.131297
v -0.026334 0.020375 -0.129467
v -0.026334 0.016519 -0.131297
v -0.026334 0.017547 -0.132639
v -0.026334 0.023202 -0.132639
v -0.024834 0.016569 -0.128904
v -0.024834 0.020375 -0.127997
v -0.026334 0.020375 -0.127997
v -0.024834 0.024182 -0.128904
v -0.024834 0.025625 -0.131297
v -0.026334 0.025625 -0.131297
v -0.024834 0.024182 -0.133689
v -0.024834 0.020375 -0.134597
v -0.026334 0.020375 -0.134597
v -0.024834 0.016569 -0.133689
v -0.024834 0.015124 -0.131297
v -0.024834 0.023202 -0.129954
v -0.026334 0.023202 -0.129954
v -0.024834 0.020375 -0.129467
v -0.024834 0.017547 -0.129954
v -0.026334 0.017547 -0.129954
v -0.024834 0.016519 -0.131297
v -0.024834 0.017547 -0.132639
v -0.024834 0.020375 -0.133127
v -0.026334 0.020375 -0.133127
v -0.024834 0.023202 -0.132639
v -0.024834 0.024230 -0.131297
v -0.026334 0.024230 -0.131297
v -0.026334 0.000260 -0.130577
v -0.026334 0.010490 -0.130577
v -0.026334 0.010490 -0.132047
v -0.024834 0.000260 -0.130577
v -0.024834 0.010490 -0.130577
v -0.024834 0.010490 -0.132047
v -0.024834 0.000260 -0.132047
v -0.026334 0.000260 -0.132047
v 0.020439 0.035672 -0.292571
v 0.020439 0.011762 -0.292571
v 0.020439 0.011762 -0.163071
v 0.020439 0.035672 -0.163071
v 0.020439 0.020112 -0.245355
v 0.020439 0.023916 -0.241553
v 0.020439 0.023916 -0.286926
v 0.020439 0.020112 -0.283122
v 0.020439 0.032734 -0.283122
v 0.020439 0.028930 -0.286926
v 0.020439 0.028930 -0.241553
v 0.020439 0.032734 -0.245355
g Body
usemtl M_PCL_Flat_Black
f 61 71 72 62
f 65 75 74 64
f 63 58 60 66
f 57 67 71 61
f 57 61 64 59
f 61 62 65 64
f 62 63 66 65
f 68 70 60 58
f 88 102 103 104 90 89
f 66 76 75 65
f 60 70 76 66
f 64 74 69 59
f 62 72 73 63
f 73 76 70 68
f 67 69 74 71
f 71 74 75 72
f 72 75 76 73
f 85 99 102 88
f 118 132 131 130 116 117
f 81 95 99 85
f 116 130 127 113
f 90 104 132 118
f 113 127 123 109
f 63 73 68 58
f 81 85 113 109
f 85 88 116 113
f 89 90 118 117
f 88 89 117 116
f 99 95 123 127
f 102 99 127 130
f 104 103 131 132
f 103 102 130 131
f 229 230 232 231
f 231 232 234 233
f 233 234 236 235
f 235 236 238 237
f 237 238 240 239
f 239 240 242 241
f 232 230 244 242 240 238 236 234
f 241 242 244 243
f 243 244 230 229
f 229 231 233 235 237 239 241 243
f 245 246 248 247
f 247 248 250 249
f 249 250 252 251
f 251 252 254 253
f 253 254 256 255
f 255 256 258 257
f 248 246 260 258 256 254 252 250
f 257 258 260 259
f 259 260 246 245
f 245 247 249 251 253 255 257 259
f 261 262 264 263
f 263 264 266 265
f 265 266 268 267
f 267 268 270 269
f 269 270 272 271
f 271 272 274 273
f 264 262 276 274 272 270 268 266
f 273 274 276 275
f 275 276 262 261
f 261 263 265 267 269 271 273 275
f 277 278 280 279
f 279 280 282 281
f 281 282 284 283
f 283 284 286 285
f 285 286 288 287
f 287 288 290 289
f 280 278 292 290 288 286 284 282
f 289 290 292 291
f 291 292 278 277
f 277 279 281 283 285 287 289 291
f 293 1566 294 1567
f 1567 294 295 1568
f 1568 295 1569 296
f 296 1569 1570 297
f 297 1570 1572 1571
f 294 1566 1576 1574 1572 1570 1569 295
f 1575 1576 1566 293
f 293 1567 1568 296 297 1571 1573 1575
f 298 299 301 300
f 300 301 303 302
f 302 303 305 304
f 304 305 307 306
f 306 307 309 308
f 308 309 311 310
f 301 299 313 311 309 307 305 303
f 310 311 313 312
f 312 313 299 298
f 298 300 302 304 306 308 310 312
f 314 315 317 316
f 316 317 319 318
f 318 319 321 320
f 320 321 323 322
f 322 323 325 324
f 324 325 327 326
f 317 315 329 327 325 323 321 319
f 326 327 329 328
f 328 329 315 314
f 314 316 318 320 322 324 326 328
g Magazine
usemtl M_PCL_Flat_Black
f 377 423 424 378
g Body
usemtl M_PCL_Flat_Black
f 1577 966 1579 1578
f 1578 1579 968 967
f 967 968 970 969
f 969 970 972 971
f 971 972 974 973
f 973 974 975 1580
f 1579 966 1581 975 974 972 970 968
f 1580 975 1581 976
f 976 1581 966 1577
f 1577 1578 967 969 971 973 1580 976
f 1064 1062 1092
f 1072 1070 1092
f 1066 1064 1092
f 1074 1072 1092
f 1068 1066 1092
f 1060 1074 1092
f 1062 1060 1092
f 1070 1068 1092
f 1288 1298 1281 1287 1286 1289
f 1269 1264 1258 1261
f 1260 1270 1268
f 1265 1253 1259
f 1265 1262 1253
f 1255 1283 1282 1254
f 1256 1255 1263 1266
f 1266 1263 1264 1269
f 1257 1285 1284 1256
f 1256 1284 1283 1255
f 1265 1259 1258 1264
f 1269 1261 1260 1268
f 1254 1262 1263 1255
f 1262 1265 1264 1263
f 1256 1266 1267 1257
f 1266 1269 1268 1267
f 1297 1289 1286 1292
f 1288 1296 1298
f 1293 1287 1281
f 1262 1290 1281 1253
f 1290 1293 1281
f 1284 1294 1291 1283
f 1294 1297 1292 1291
f 1285 1257 1267 1268 1270 1298 1296 1295
f 1293 1292 1286 1287
f 1297 1296 1288 1289
f 1282 1283 1291 1290
f 1290 1291 1292 1293
f 1284 1285 1295 1294
f 1294 1295 1296 1297
f 1442 1441 1447 1448
f 1439 1438 1444 1445
f 1441 1440 1446 1447
f 1438 1437 1443 1444
f 1439 1445 1451 1449
f 1446 1440 1450 1452
f 1437 1442 1448 1443
f 1458 1464 1463 1457
f 1455 1461 1460 1454
f 1457 1463 1462 1456
f 1454 1460 1459 1453
f 1455 1465 1467 1461
f 1462 1468 1466 1456
f 1453 1459 1464 1458
f 1473 1467 1468 1474
f 1437 1438 1454 1453
f 1438 1439 1455 1454
f 1440 1441 1457 1456
f 1441 1442 1458 1457
f 1442 1437 1453 1458
f 1444 1443 1459 1460
f 1445 1444 1460 1461
f 1447 1446 1462 1463
f 1448 1447 1463 1464
f 1443 1448 1464 1459
f 1451 1445 1461 1467
f 1439 1449 1465 1455
f 1450 1440 1456 1466
f 1446 1452 1468 1462
f 1477 1450 1466 1465 1449 1476
f 1468 1467 1465 1466
f 1468 1452 1472 1474
f 1452 1450 1477 1478 1471 1472
f 1451 1467 1473 1469
f 1451 1469 1470 1475 1476 1449
f 1475 1478 1477 1476
f 1478 1475 1470 1471
f 1482 1480 1494 1492 1490 1488 1486 1484
f 1479 1481 1483 1485 1487 1489 1491 1493
f 1494 1493 1491 1492
f 1488 1487 1485 1486
f 1486 1485 1483 1484
f 1484 1483 1481 1482
f 1492 1491 1489 1490
f 1490 1489 1487 1488
f 1482 1481 1479 1480
f 1480 1479 1493 1494
f 1498 1496 1510 1508 1506 1504 1502 1500
f 1495 1497 1499 1501 1503 1505 1507 1509
f 1510 1509 1507 1508
f 1504 1503 1501 1502
f 1502 1501 1499 1500
f 1500 1499 1497 1498
f 1508 1507 1505 1506
f 1506 1505 1503 1504
f 1498 1497 1495 1496
f 1496 1495 1509 1510
f 1512 1514 1520 1518
f 1516 1515 1521 1522
f 1515 1511 1517 1521
f 1514 1512 1513 1511 1515 1516
f 1514 1516 1522 1520
f 1522 1521 1517 1519 1518 1520
f 1513 1512 1518 1519
f 1270 1260 1261 1258 1259 1253
f 1262 1254 1282 1290
f 1253 1281 1298 1270
f 1511 1513 1519 1517
f 1571 1572 1574 1573
f 1573 1574 1576 1575
f 1815 1814 1817 1816 1819 1818 1813 1812
g Body
usemtl M_PCL_Flat_Black_Lighter
f 25 19 1 22
f 5 4 8 9
f 9 8 27 28
f 25 22 4 5
f 51 50 2 47
f 33 37 34 30
f 37 56 53 34
f 51 33 30 50
f 428 382 381 427
f 213 190 191 216
f 144 168 217 218 193 194
f 143 141 192 189
f 165 141 142 166
f 164 159 135 140
f 135 159 157 133
f 161 137 139 163
f 137 134 136 138
f 139 137 138 140
f 158 160 136 134
f 160 162 138 136
f 133 139 140 135
f 163 139 133 157
f 162 164 140 138
f 193 218 219 196
f 141 143 144 142
f 143 167 168 144
f 1303 1319 1318 1302
f 194 195 142 144
f 196 219 220 166 142 195
f 141 165 215 216 191 192
f 167 214 215 165
f 161 162 160 158
f 163 164 162 161
f 157 159 164 163
f 165 166 168 167
f 217 168 166 220
f 189 192 191 190
f 195 194 193 196
f 213 216 215 214
f 219 218 217 220
f 338 339 340 341
f 334 336 339 338
f 336 337 340 339
f 337 335 341 340
f 335 334 338 341
f 355 358 357 356
f 351 355 356 353
f 353 356 357 354
f 354 357 358 352
f 352 358 355 351
g Magazine
usemtl M_PCL_Flat_Black_Lighter
f 420 439 394 373
f 368 415 448 403
g Body
usemtl M_PCL_Flat_Black_Lighter
f 468 456 457 469
g Magazine
usemtl M_PCL_Flat_Black_Lighter
f 420 373 404 449
f 403 448 451 406
f 439 415 368 394
g Body
usemtl M_PCL_Flat_Black_Lighter
f 425 427 381 379
f 382 428 426 380
f 380 379 381 382
f 429 425 379 383
g Magazine
usemtl M_PCL_Flat_Black_Lighter
f 961 965 963 959
g Body
usemtl M_PCL_Flat_Black_Lighter
f 379 425 431 385
f 384 383 379 385
g Magazine
usemtl M_PCL_Flat_Black_Lighter
f 368 403 405 394
f 394 405 404 373
f 403 406 408 405
f 405 408 407 404
g Body
usemtl M_PCL_Flat_Black_Lighter
f 426 428 427 425
f 430 431 425 429
g Magazine
usemtl M_PCL_Flat_Black_Lighter
f 415 439 450 448
f 439 420 449 450
f 448 450 453 451
f 450 449 452 453
g Body
usemtl M_PCL_Flat_Black_Lighter
f 467 455 454 466
f 454 455 457 456
f 456 468 466 454
f 472 460 461 473
f 471 459 458 470
f 458 459 461 460
f 460 472 470 458
f 476 464 465 477
f 475 463 462 474
f 462 463 465 464
f 464 476 474 462
f 385 431 430 384
f 466 468 469 467
f 470 472 473 471
f 474 476 477 475
g Magazine
usemtl M_PCL_Flat_Black_Lighter
f 959 963 962 958
f 959 958 960 961
f 962 964 374 960 958
f 963 965 964 962
g Body
usemtl M_PCL_Flat_Black_Lighter
f 1014 1015 1013 1023
f 1014 1023 1026 1019
f 1013 1015 1020 1018
f 1015 1012 1017 1020
f 1011 1012 1015 1014
f 1019 1026 1018 1020
f 1011 1014 1019 1016
f 1013 1018 1025 1022
f 1016 1019 1020 1017
f 1022 1025 1024 1021
f 1021 1024 1026 1023
f 1023 1013 1022 1021
f 1026 1024 1025 1018
f 1030 1031 1029 1039
f 1030 1039 1042 1035
f 1029 1031 1036 1034
f 1031 1028 1033 1036
f 1027 1028 1031 1030
f 1035 1042 1034 1036
f 1027 1030 1035 1032
f 1029 1034 1041 1038
f 1032 1035 1036 1033
f 1038 1041 1040 1037
f 1037 1040 1042 1039
f 1039 1029 1038 1037
f 1042 1040 1041 1034
f 1046 1055 1058 1051
f 1045 1047 1052 1050
f 1047 1044 1049 1052
f 1046 1047 1045 1055
f 1043 1044 1047 1046
f 1043 1046 1051 1048
f 1045 1050 1057 1054
f 1051 1058 1050 1052
f 1048 1051 1052 1049
f 1053 1056 1058 1055
f 1054 1057 1056 1053
f 1055 1045 1054 1053
f 1069 1071 1091
f 1061 1063 1091
f 1063 1065 1091
f 1071 1073 1091
f 1065 1067 1091
f 1073 1059 1091
f 1059 1061 1091
f 1067 1069 1091
f 1299 1300 1304 1301
f 1301 1304 1303 1302
f 1311 1327 1319 1303
f 1300 1299 1305 1306
f 1307 1309 1312 1308
f 1309 1310 1311 1312
f 1308 1314 1313 1307
f 1301 1302 1310 1309
f 1303 1304 1312 1311
f 1310 1326 1327 1311
f 1318 1326 1310 1302
f 1299 1301 1309 1307
f 1304 1300 1308 1312
f 1306 1305 1313 1314
f 1305 1299 1307 1313
f 1300 1306 1314 1308
f 1315 1317 1320 1316
f 1317 1318 1319 1320
f 1316 1322 1321 1315
f 1323 1324 1328 1325
f 1325 1328 1327 1326
f 1324 1323 1329 1330
f 1317 1325 1326 1318
f 1319 1327 1328 1320
f 1315 1323 1325 1317
f 1320 1328 1324 1316
f 1322 1330 1329 1321
f 1321 1329 1323 1315
f 1316 1324 1330 1322
f 158 134 137 161
f 1431 1432 1421 1420
f 1428 1417 1415 1426
f 1426 1415 1416 1427
f 1428 1426 1427 1430 1429
f 1417 1428 1429 1431 1420 1418
f 1421 1419 1424 1425
f 1423 1422 1425 1424
f 1420 1421 1425 1422
f 1419 1418 1423 1424
f 1418 1420 1422 1423
f 1432 1436 1435 1430
f 1434 1435 1436 1433
f 1431 1433 1436 1432
f 1430 1435 1434 1429
f 1429 1434 1433 1431
f 1430 1427 1416 1419 1421 1432
f 1417 1418 1419 1416 1415
g Magazine
usemtl M_PCL_Flat_Black_Lighter
f 449 404 407 452
g Body
usemtl M_PCL_Flat_Black_Lighter
f 190 213 214 167 143 189
f 1058 1056 1057 1050
g Body
usemtl M_PCL_Flat_Grey_Darker
f 17 45 49 23
f 23 49 31 3
f 54 38 12 26
f 28 27 11 14
f 12 38 39 40 41 13 14 11
f 29 55 36 10
f 24 52 46 20
f 45 17 15 43
f 22 16 18
f 10 36 32 6
f 46 48 42 16 21 20
f 1 19 21 16
f 3 31 35 7
f 6 32 52 24
f 35 54 26 7
f 13 41 55 29
f 22 1 16
f 50 42 2
f 56 40 39 53
f 50 44 42
f 2 42 48 47
f 19 20 21
f 46 47 48
f 23 3 4 22
f 6 24 25 5
f 3 7 8 4
f 10 6 5 9
f 27 8 7 26
f 9 28 29 10
f 28 14 13 29
f 26 12 11 27
f 19 25 24 20
f 15 17 18 16
f 17 23 22 18
f 50 30 31 49
f 33 51 52 32
f 30 34 35 31
f 37 33 32 36
f 54 35 34 53
f 36 55 56 37
f 55 41 40 56
f 53 39 38 54
f 46 52 51 47
f 42 44 45 43
f 44 50 49 45
f 212 207 183 187
f 188 184 198 203
f 209 210 211 212 187 188 185 186
f 185 188 204 201
f 226 201 204 227
f 228 203 198 221
f 182 185 202 199
f 205 209 186 181
f 224 199 202 225
f 148 172 170 146
f 221 198 197 222
f 177 178 154 153
f 175 151 154 178
f 177 153 156 180
f 146 145 152 149
f 148 146 150 155
f 147 148 156 153
f 145 147 154 151
f 149 150 146
f 151 152 145
f 153 154 147
f 155 156 148
f 151 175 176 152
f 149 173 174 150
f 179 180 156 155
f 173 149 152 176
f 179 155 150 174
f 211 228 221 208
f 210 226 227 211
f 206 224 225 210
f 208 222 223 206
f 170 173 176 169
f 172 179 174 170
f 171 177 180 172
f 169 175 178 171
f 173 170 174
f 175 169 176
f 177 171 178
f 179 172 180
f 197 198 184
f 199 200 182
f 201 202 185
f 203 204 188
f 221 222 208
f 223 224 206
f 225 226 210
f 227 228 211
f 181 186 185 182
f 184 188 187 183
f 203 228 227 204
f 225 202 201 226
f 199 224 223 200
f 222 197 200 223
f 206 210 209 205
f 207 212 211 208
f 184 182 200 197
f 346 360 359 342 343 330
f 348 1525 333 350
f 343 331 330
f 331 332 333 1525
f 332 331 343 345
f 347 331 1525 348
f 346 330 331 347
f 342 344 345 343
f 360 346 347
f 347 348 350 349
f 349 362 360 347
f 359 360 362 361
f 359 361 344 342
g Magazine
usemtl M_PCL_Flat_Grey_Darker
f 365 412 411 364
f 398 388 376 369
f 408 395 372 407
f 395 396 371 372
f 396 397 370 371
f 397 398 369 370
f 452 407 372 419
f 367 414 413 366
f 366 413 412 365
f 417 370 369 416
f 419 372 371 418
f 386 363 377 378
f 363 386 376 388 375
f 409 422 376 386
f 378 424 409 386
f 410 423 377 363
f 387 388 389 386
f 391 390 393 392
f 400 399 393 390
f 401 400 390 391
f 402 401 391 392
f 399 402 392 393
f 374 421 410 363 375
f 365 364 398 397
f 366 365 397 396
f 367 366 396 395
f 406 367 395 408
f 364 375 388 398
f 389 388 402 399
f 388 387 401 402
f 387 386 400 401
f 386 389 399 400
f 364 411 421 374 375
f 416 369 376 422
f 418 371 370 417
f 406 451 414 367
f 443 416 422 438
f 453 452 419 440
f 440 419 418 441
f 441 418 417 442
f 442 417 416 443
f 409 424 423 410
f 410 421 438 422 409
f 432 409 433 438
f 435 436 437 434
f 445 434 437 444
f 446 435 434 445
f 447 436 435 446
f 444 437 436 447
f 412 442 443 411
f 413 441 442 412
f 414 440 441 413
f 451 453 440 414
f 411 443 438 421
f 433 444 447 438
f 438 447 446 432
f 432 446 445 409
f 409 445 444 433
g Body
usemtl M_PCL_Flat_Grey_Darker
f 622 623 629 628 627 626 625 624
f 623 622 630 631
f 622 624 632 630
f 624 625 633 632
f 625 626 634 633
f 626 627 635 634
f 627 628 636 635
f 628 629 637 636
f 629 623 631 637
f 782 783 789 788 787 786 785 784
f 783 782 790 791
f 782 784 792 790
f 784 785 793 792
f 785 786 794 793
f 786 787 795 794
f 787 788 796 795
f 788 789 797 796
f 789 783 791 797
f 942 943 949 948 947 946 945 944
f 943 942 950 951
f 942 944 952 950
f 944 945 953 952
f 945 946 954 953
f 946 947 955 954
f 947 948 956 955
f 948 949 957 956
f 949 943 951 957
f 1584 985 1594 1585
f 1583 1593 984 1582
f 981 978 980 982
f 977 981 982 979
f 1588 1597 1598 1589
f 983 994 1597 1588
f 977 979 1588 1589
f 978 981 1590 1591
f 980 978 1591 1592
f 979 982 983 1588
f 981 977 1589 1590
f 982 980 1592 983
f 1586 990 985 1584
f 1593 991 990 984
f 991 1594 985 990
f 988 989 987 1596
f 1595 986 989 988
f 1592 993 994 983
f 1589 1598 992 1590
f 1591 1599 993 1592
f 1595 1598 1597 986
f 1596 1599 992 988
f 987 993 1599 1596
f 986 1597 994 989
f 988 992 1598 1595
f 989 994 993 987
f 998 999 997 1007
f 998 1007 1010 1003
f 997 999 1004 1002
f 999 996 1001 1004
f 995 996 999 998
f 1003 1010 1002 1004
f 995 998 1003 1000
f 997 1002 1009 1006
f 1000 1003 1004 1001
f 1006 1009 1008 1005
f 1005 1008 1010 1007
f 1007 997 1006 1005
f 1010 1008 1009 1002
f 1110 1109 1120 1121
f 1110 1093 1095 1111
f 1111 1095 1096 1112
f 1112 1096 1097 1113
f 1113 1097 1098 1114
f 1114 1098 1099 1115
f 1115 1099 1100 1116
f 1109 1116 1122 1120
f 1093 1094 1100 1099 1098 1097 1096 1095
f 1108 1101 1102 1103 1104 1105 1106 1107
f 1108 1116 1109 1101
f 1107 1115 1116 1108
f 1106 1114 1115 1107
f 1105 1113 1114 1106
f 1104 1112 1113 1105
f 1103 1111 1112 1104
f 1102 1110 1111 1103
f 1101 1109 1110 1102
f 1094 1093 1117 1118
f 1100 1094 1118 1119
f 1116 1100 1119 1122
f 1093 1110 1121 1117
f 1123 1124 1130 1129 1128 1127 1126 1125
f 1131 1133 1134 1135 1136 1137 1138 1132
f 1124 1132 1138 1130
f 1129 1137 1136 1128
f 1127 1135 1134 1126
f 1125 1133 1131 1123
f 1130 1138 1137 1129
f 1128 1136 1135 1127
f 1126 1134 1133 1125
f 1123 1131 1132 1124
f 1146 1139 1140 1141 1142 1143 1144 1145
f 1144 1151 1152 1145
f 1142 1149 1150 1143
f 1140 1147 1148 1141
f 1145 1152 1153 1146
f 1146 1153 1154 1139
f 1139 1154 1147 1140
f 1143 1150 1151 1144
f 1174 1172 1162 1161
f 1198 1191 1156 1160
f 1197 1155 1159 1193
f 1161 1162 1158 1157
f 1197 1198 1160 1155
f 1176 1178 1165 1163
f 1176 1163 1166 1173
f 1178 1171 1164 1165
f 1170 1169 1164 1166
f 1194 1192 1169 1170
f 1163 1165 1168 1167
f 1163 1167 1170 1166
f 1179 1223 1224 1180
f 1158 1162 1172 1177
f 1213 1169 1168 1212
f 1209 1165 1164 1208
f 1212 1168 1165 1209
f 1177 1172 1171 1178
f 1157 1175 1174 1161
f 1175 1176 1173 1174
f 1157 1158 1177 1175
f 1175 1177 1178 1176
f 1166 1164 1171 1173
f 1173 1171 1172 1174
f 1180 1224 1225 1181
f 1180 1181 1182 1179
f 1181 1225 1226 1182
f 1193 1191 1192 1194
f 1167 1168 1196 1195
f 1167 1195 1194 1170
f 1168 1169 1192 1196
f 1159 1156 1191 1193
f 1195 1196 1198 1197
f 1187 1188 1184 1183
f 1187 1190 1189 1188
f 1189 1185 1192 1191
f 1186 1190 1193 1194
f 1183 1186 1194 1195
f 1185 1184 1196 1192
f 1187 1183 1195 1197
f 1184 1188 1198 1196
f 1190 1187 1197 1193
f 1188 1189 1191 1198
f 1183 1184 1185 1186
f 1185 1189 1190 1186
f 1218 1205 1206 1216
f 1242 1204 1200 1235
f 1241 1237 1203 1199
f 1205 1201 1202 1206
f 1241 1199 1204 1242
f 1220 1207 1209 1222
f 1220 1217 1210 1207
f 1222 1209 1208 1215
f 1214 1210 1208 1213
f 1238 1214 1213 1236
f 1207 1211 1212 1209
f 1207 1210 1214 1211
f 1202 1221 1216 1206
f 1221 1222 1215 1216
f 1201 1205 1218 1219
f 1219 1218 1217 1220
f 1201 1219 1221 1202
f 1219 1220 1222 1221
f 1210 1217 1215 1208
f 1217 1218 1216 1215
f 1224 1223 1226 1225
f 1237 1238 1236 1235
f 1211 1239 1240 1212
f 1211 1214 1238 1239
f 1212 1240 1236 1213
f 1203 1237 1235 1200
f 1239 1241 1242 1240
f 1231 1227 1228 1232
f 1231 1232 1233 1234
f 1233 1235 1236 1229
f 1230 1238 1237 1234
f 1227 1239 1238 1230
f 1229 1236 1240 1228
f 1231 1241 1239 1227
f 1228 1240 1242 1232
f 1234 1237 1241 1231
f 1232 1242 1235 1233
f 1227 1230 1229 1228
f 1229 1230 1234 1233
f 42 43 15 16
f 171 172 148 147
f 1336 1335 1377 1372
f 1334 1333 1381 1376
f 1331 1332 1386 1380
f 1375 1382 1341 1342
f 1337 1336 1372 1373
f 1335 1334 1376 1377
f 1333 1331 1380 1381
f 1346 1345 1353 1354
f 1344 1343 1351 1352
f 1342 1341 1349 1350
f 1339 1340 1348 1347
f 1340 1346 1354 1348
f 1345 1344 1352 1353
f 1343 1342 1350 1351
f 1341 1339 1347 1349
f 1351 1350 1358 1359
f 1349 1347 1355 1357
f 1354 1353 1361 1362
f 1352 1351 1359 1360
f 1350 1349 1357 1358
f 1347 1348 1356 1355
f 1348 1354 1362 1356
f 1353 1352 1360 1361
f 1362 1361 1369 1370
f 1360 1359 1367 1368
f 1358 1357 1365 1366
f 1355 1356 1364 1363
f 1356 1362 1370 1364
f 1361 1360 1368 1369
f 1359 1358 1366 1367
f 1357 1355 1363 1365
f 1385 1384 1346 1340
f 1332 1338 1383 1386
f 1379 1385 1340 1339
f 1338 1337 1373 1383
f 1384 1374 1345 1346
f 1382 1379 1339 1341
f 1378 1375 1342 1343
f 1374 1371 1344 1345
f 1384 1385 1386 1383
f 1385 1379 1380 1386
f 1378 1371 1372 1377
f 1375 1378 1377 1376
f 1371 1378 1343 1344
f 1397 1380 1379 1398
f 1396 1372 1371 1395
f 1365 1363 1387 1389
f 1370 1369 1393 1394
f 1368 1367 1391 1392
f 1366 1365 1389 1390
f 1363 1364 1388 1387
f 1364 1370 1394 1388
f 1369 1368 1392 1393
f 1367 1366 1390 1391
f 1382 1375 1390 1389
f 1379 1382 1389 1387
f 1374 1384 1394 1393
f 1371 1374 1393 1392
f 1376 1396 1395 1375
f 1383 1397 1398 1384
f 1398 1379 1387 1388
f 1388 1394 1384 1398
f 1395 1371 1392 1391
f 1391 1390 1375 1395
f 1397 1400 1399 1380
f 1383 1406 1400 1397
f 1373 1405 1406 1383
f 1372 1404 1405 1373
f 1396 1403 1404 1372
f 1376 1402 1403 1396
f 1381 1401 1402 1376
f 1380 1399 1401 1381
f 1401 1399 1407 1409
f 1406 1405 1413 1414
f 1404 1403 1411 1412
f 1402 1401 1409 1410
f 1399 1400 1408 1407
f 1400 1406 1414 1408
f 1405 1404 1412 1413
f 1403 1402 1410 1411
f 1333 1334 1410 1409
f 1334 1335 1411 1410
f 1335 1336 1412 1411
f 1336 1337 1413 1412
f 1337 1338 1414 1413
f 1338 1332 1408 1414
f 1332 1331 1407 1408
f 1331 1333 1409 1407
f 1141 1148 1149 1142
f 1208 1164 1169 1213
f 1582 984 990 1586
f 1583 1582 1586 1587
f 1587 1586 1584 1585
f 1587 991 1593 1583
f 1585 1594 991 1587
f 1590 992 1599 1591
f 332 345 344 361 362 349 350 333
g Body
usemtl M_PCL_Flat_Grey_Dark
f 91 92 78 77
f 79 93 91 77
f 92 94 80 78
f 119 105 106 120
f 126 124 110 112
f 84 87 86 83 82
f 98 96 97 100 101
f 105 119 121 107
f 120 106 108 122
f 93 79 107 121
f 96 82 110 124
f 112 110 111 114 115
f 126 129 128 125 124
f 77 78 106 105
f 80 94 122 108
f 79 77 105 107
f 78 80 108 106
f 82 83 111 110
f 84 98 126 112
f 87 84 112 115
f 86 87 115 114
f 83 86 114 111
f 92 91 119 120
f 91 93 121 119
f 94 92 120 122
f 97 96 124 125
f 98 101 129 126
f 101 100 128 129
f 100 97 125 128
f 478 615 614 494
f 494 614 616 510
f 510 616 617 526
f 526 617 618 542
f 542 618 619 558
f 558 619 620 574
f 574 620 621 590
f 590 621 615 478
f 479 478 494 495
f 495 494 510 511
f 511 510 526 527
f 527 526 542 543
f 543 542 558 559
f 559 558 574 575
f 575 574 590 591
f 591 590 478 479
f 480 479 495 496
f 496 495 511 512
f 512 511 527 528
f 528 527 543 544
f 544 543 559 560
f 560 559 575 576
f 576 575 591 592
f 592 591 479 480
f 481 480 496 497
f 497 496 512 513
f 513 512 528 529
f 529 528 544 545
f 545 544 560 561
f 561 560 576 577
f 577 576 592 593
f 593 592 480 481
f 482 481 497 498
f 498 497 513 514
f 514 513 529 530
f 530 529 545 546
f 546 545 561 562
f 562 561 577 578
f 578 577 593 594
f 594 593 481 482
f 483 482 498 499
f 499 498 514 515
f 515 514 530 531
f 531 530 546 547
f 547 546 562 563
f 563 562 578 579
f 579 578 594 595
f 595 594 482 483
f 484 483 499 500
f 500 499 515 516
f 516 515 531 532
f 532 531 547 548
f 548 547 563 564
f 564 563 579 580
f 580 579 595 596
f 596 595 483 484
f 485 484 500 501
f 501 500 516 517
f 517 516 532 533
f 533 532 548 549
f 549 548 564 565
f 565 564 580 581
f 581 580 596 597
f 597 596 484 485
f 486 485 501 502
f 502 501 517 518
f 518 517 533 534
f 534 533 549 550
f 550 549 565 566
f 566 565 581 582
f 582 581 597 598
f 598 597 485 486
f 487 486 502 503
f 503 502 518 519
f 519 518 534 535
f 535 534 550 551
f 551 550 566 567
f 567 566 582 583
f 583 582 598 599
f 599 598 486 487
f 487 503 519 535 551 567 583 599
f 612 611 635 636
f 607 606 614 615
f 606 608 616 614
f 608 609 617 616
f 609 610 618 617
f 610 611 619 618
f 611 612 620 619
f 612 613 621 620
f 613 607 615 621
f 610 609 633 634
f 608 606 630 632
f 613 612 636 637
f 611 610 634 635
f 609 608 632 633
f 606 607 631 630
f 607 613 637 631
f 638 775 774 654
f 654 774 776 670
f 670 776 777 686
f 686 777 778 702
f 702 778 779 718
f 718 779 780 734
f 734 780 781 750
f 750 781 775 638
f 639 638 654 655
f 655 654 670 671
f 671 670 686 687
f 687 686 702 703
f 703 702 718 719
f 719 718 734 735
f 735 734 750 751
f 751 750 638 639
f 640 639 655 656
f 656 655 671 672
f 672 671 687 688
f 688 687 703 704
f 704 703 719 720
f 720 719 735 736
f 736 735 751 752
f 752 751 639 640
f 641 640 656 657
f 657 656 672 673
f 673 672 688 689
f 689 688 704 705
f 705 704 720 721
f 721 720 736 737
f 737 736 752 753
f 753 752 640 641
f 642 641 657 658
f 658 657 673 674
f 674 673 689 690
f 690 689 705 706
f 706 705 721 722
f 722 721 737 738
f 738 737 753 754
f 754 753 641 642
f 643 642 658 659
f 659 658 674 675
f 675 674 690 691
f 691 690 706 707
f 707 706 722 723
f 723 722 738 739
f 739 738 754 755
f 755 754 642 643
f 644 643 659 660
f 660 659 675 676
f 676 675 691 692
f 692 691 707 708
f 708 707 723 724
f 724 723 739 740
f 740 739 755 756
f 756 755 643 644
f 645 644 660 661
f 661 660 676 677
f 677 676 692 693
f 693 692 708 709
f 709 708 724 725
f 725 724 740 741
f 741 740 756 757
f 757 756 644 645
f 646 645 661 662
f 662 661 677 678
f 678 677 693 694
f 694 693 709 710
f 710 709 725 726
f 726 725 741 742
f 742 741 757 758
f 758 757 645 646
f 647 646 662 663
f 663 662 678 679
f 679 678 694 695
f 695 694 710 711
f 711 710 726 727
f 727 726 742 743
f 743 742 758 759
f 759 758 646 647
f 647 663 679 695 711 727 743 759
f 772 771 795 796
f 767 766 774 775
f 766 768 776 774
f 768 769 777 776
f 769 770 778 777
f 770 771 779 778
f 771 772 780 779
f 772 773 781 780
f 773 767 775 781
f 770 769 793 794
f 768 766 790 792
f 773 772 796 797
f 771 770 794 795
f 769 768 792 793
f 766 767 791 790
f 767 773 797 791
f 798 935 934 814
f 814 934 936 830
f 830 936 937 846
f 846 937 938 862
f 862 938 939 878
f 878 939 940 894
f 894 940 941 910
f 910 941 935 798
f 799 798 814 815
f 815 814 830 831
f 831 830 846 847
f 847 846 862 863
f 863 862 878 879
f 879 878 894 895
f 895 894 910 911
f 911 910 798 799
f 800 799 815 816
f 816 815 831 832
f 832 831 847 848
f 848 847 863 864
f 864 863 879 880
f 880 879 895 896
f 896 895 911 912
f 912 911 799 800
f 801 800 816 817
f 817 816 832 833
f 833 832 848 849
f 849 848 864 865
f 865 864 880 881
f 881 880 896 897
f 897 896 912 913
f 913 912 800 801
f 802 801 817 818
f 818 817 833 834
f 834 833 849 850
f 850 849 865 866
f 866 865 881 882
f 882 881 897 898
f 898 897 913 914
f 914 913 801 802
f 803 802 818 819
f 819 818 834 835
f 835 834 850 851
f 851 850 866 867
f 867 866 882 883
f 883 882 898 899
f 899 898 914 915
f 915 914 802 803
f 804 803 819 820
f 820 819 835 836
f 836 835 851 852
f 852 851 867 868
f 868 867 883 884
f 884 883 899 900
f 900 899 915 916
f 916 915 803 804
f 805 804 820 821
f 821 820 836 837
f 837 836 852 853
f 853 852 868 869
f 869 868 884 885
f 885 884 900 901
f 901 900 916 917
f 917 916 804 805
f 806 805 821 822
f 822 821 837 838
f 838 837 853 854
f 854 853 869 870
f 870 869 885 886
f 886 885 901 902
f 902 901 917 918
f 918 917 805 806
f 807 806 822 823
f 823 822 838 839
f 839 838 854 855
f 855 854 870 871
f 871 870 886 887
f 887 886 902 903
f 903 902 918 919
f 919 918 806 807
f 807 823 839 855 871 887 903 919
f 932 931 955 956
f 927 926 934 935
f 926 928 936 934
f 928 929 937 936
f 929 930 938 937
f 930 931 939 938
f 931 932 940 939
f 932 933 941 940
f 933 927 935 941
f 930 929 953 954
f 928 926 950 952
f 933 932 956 957
f 931 930 954 955
f 929 928 952 953
f 926 927 951 950
f 927 933 957 951
f 1075 1078 1077 1076
f 1076 1077 1080 1079
f 1079 1080 1082 1081
f 1081 1082 1084 1083
f 1083 1084 1086 1085
f 1085 1086 1088 1087
f 1087 1088 1090 1089
f 1089 1090 1078 1075
f 1061 1059 1075 1076
f 1060 1062 1077 1078
f 1063 1061 1076 1079
f 1062 1064 1080 1077
f 1065 1063 1079 1081
f 1064 1066 1082 1080
f 1067 1065 1081 1083
f 1066 1068 1084 1082
f 1069 1067 1083 1085
f 1068 1070 1086 1084
f 1071 1069 1085 1087
f 1070 1072 1088 1086
f 1073 1071 1087 1089
f 1072 1074 1090 1088
f 1059 1073 1089 1075
f 1074 1060 1078 1090
f 98 84 82 96
f 1550 1535 1526 1528 1547 1546
f 1539 1537 1524 1527
f 1523 1536 1539 1527
f 348 1536 1523 1525
f 1556 1523 1527 1548 1557
f 1538 1540 1528 1526
f 1540 1543 1532 1528
f 1551 1530 1525 1555 1554 1552
f 348 1541 1563 1562 1560 1561
f 1527 1524 1535 1550 1548
f 1547 1528 1532 1559
f 1555 1525 1523 1556
f 1539 1536 1549 1564 1553
f 1536 348 1561 1549
f 1558 1543 1540
f 1562 1552 1554 1560
f 1560 1554 1555 1561
f 1549 1556 1557 1564
f 1561 1555 1556 1549
f 1563 1543 1532 1551
f 1552 1562 1563 1551
f 1545 1535 1524 1537
f 1531 1544 1542 1553
f 1558 1533 1534 1529
f 1535 1545 1538 1526
f 1558 1547 1559
f 1534 1533 1542 1544
f 1558 1553 1542 1533
f 1550 1531 1548
f 1558 1529 1547
f 1547 1529 1546
f 1553 1548 1531
f 1553 1564 1557 1548
f 1529 1531 1550 1546
f 1532 1543 1558 1559
f 1565 1539 1553
f 1531 1529 1534 1544
f 1540 1565 1553 1558
f 1539 1565 1545 1537
f 1540 1538 1545 1565
g Body
usemtl M_PCL_Flat_Grey_Light
f 1808 1244 1243 1811
f 1276 1811 1243 1272
f 1810 1813 1818 1811
f 1271 1810 1811 1276
f 1252 1251 1247 1248
f 1245 1246 1248 1247
f 1249 1245 1247 1251
f 1274 1272 1243 1244
f 1810 1271 1273 1809
f 1808 1275 1274 1244
f 1246 1250 1252 1248
f 1275 1276 1272 1274
f 1273 1271 1276 1275
f 1252 1280 1279 1251
f 1277 1279 1280 1278
f 1249 1251 1279 1277
f 1278 1280 1252 1250
f 1811 1819 1816 1808
f 1808 1817 1814 1809
f 1812 1813 1810
f 1814 1815 1809
f 1808 1816 1817
f 1818 1819 1811
f 1809 1815 1812 1810
f 1809 1273 1275 1808
g Body
usemtl M_PCL_Flat_White
f 1659 1639 1602 1605
f 1648 1601 1600 1650
f 1603 1639 1659 1657
f 1652 1650 1600 1645
f 1604 1603 1657 1606
f 1643 1654 1652 1645
f 1604 1606 1654 1643
f 1609 1624 1623 1622
f 1613 1615 1614 1634
f 1609 1608 1611 1627
f 1618 1660 1607 1619
f 1611 1608 1617 1612
f 1617 1608 1621 1616
f 1624 1609 1627 1610
f 1615 1613 1633 1631
f 1631 1633 1632 1630
f 1615 1617 1616 1614
f 1612 1629 1628 1611
f 1662 1620 1663 1661
f 1608 1609 1622 1621
f 1610 1627 1626 1625
f 1624 1610 1625 1623
f 1627 1611 1628 1626
f 1612 1631 1630 1629
f 1633 1613 1634 1632
f 1600 1601 1636 1635
f 1601 1602 1637 1636
f 1602 1639 1638 1637
f 1639 1603 1640 1638
f 1603 1604 1641 1640
f 1604 1643 1642 1641
f 1643 1645 1644 1642
f 1645 1600 1635 1644
f 1605 1648 1647 1646
f 1648 1650 1649 1647
f 1650 1652 1651 1649
f 1652 1654 1653 1651
f 1654 1606 1655 1653
f 1606 1657 1656 1655
f 1657 1659 1658 1656
f 1659 1605 1646 1658
f 1617 1615 1631 1612
f 1620 1662 1660 1618
f 1605 1602 1601 1648
f 1660 1662 1661 1607
f 1685 1665 1675 1669
f 1695 1678 1665 1685
f 1669 1675 1664 1688
f 1666 1678 1695 1672
f 1670 1688 1664 1668
f 1681 1666 1672 1692
f 1681 1692 1671 1667
f 1664 1675 1674 1673
f 1675 1665 1676 1674
f 1665 1678 1677 1676
f 1678 1666 1679 1677
f 1666 1681 1680 1679
f 1681 1667 1682 1680
f 1667 1668 1683 1682
f 1668 1664 1673 1683
f 1685 1669 1686 1684
f 1669 1688 1687 1686
f 1688 1670 1689 1687
f 1670 1671 1690 1689
f 1671 1692 1691 1690
f 1692 1672 1693 1691
f 1672 1695 1694 1693
f 1695 1685 1684 1694
f 1667 1671 1670 1668
f 1696 1697 1700 1699
f 1697 1698 1701 1700
f 1698 1703 1702 1701
f 1703 1696 1699 1702
f 1698 1697 1696 1703
f 1763 1743 1706 1709
f 1752 1705 1704 1754
f 1707 1743 1763 1761
f 1756 1754 1704 1749
f 1708 1707 1761 1710
f 1747 1758 1756 1749
f 1708 1710 1758 1747
f 1713 1728 1727 1726
f 1717 1719 1718 1738
f 1713 1712 1715 1731
f 1722 1764 1711 1723
f 1715 1712 1721 1716
f 1721 1712 1725 1720
f 1728 1713 1731 1714
f 1719 1717 1737 1735
f 1735 1737 1736 1734
f 1719 1721 1720 1718
f 1716 1733 1732 1715
f 1766 1724 1767 1765
f 1712 1713 1726 1725
f 1714 1731 1730 1729
f 1728 1714 1729 1727
f 1731 1715 1732 1730
f 1716 1735 1734 1733
f 1737 1717 1738 1736
f 1704 1705 1740 1739
f 1705 1706 1741 1740
f 1706 1743 1742 1741
f 1743 1707 1744 1742
f 1707 1708 1745 1744
f 1708 1747 1746 1745
f 1747 1749 1748 1746
f 1749 1704 1739 1748
f 1709 1752 1751 1750
f 1752 1754 1753 1751
f 1754 1756 1755 1753
f 1756 1758 1757 1755
f 1758 1710 1759 1757
f 1710 1761 1760 1759
f 1761 1763 1762 1760
f 1763 1709 1750 1762
f 1721 1719 1735 1716
f 1724 1766 1764 1722
f 1709 1706 1705 1752
f 1764 1766 1765 1711
f 1789 1773 1779 1769
f 1799 1789 1769 1782
f 1773 1792 1768 1779
f 1770 1776 1799 1782
f 1774 1772 1768 1792
f 1785 1796 1776 1770
f 1785 1771 1775 1796
f 1768 1777 1778 1779
f 1779 1778 1780 1769
f 1769 1780 1781 1782
f 1782 1781 1783 1770
f 1770 1783 1784 1785
f 1785 1784 1786 1771
f 1771 1786 1787 1772
f 1772 1787 1777 1768
f 1789 1788 1790 1773
f 1773 1790 1791 1792
f 1792 1791 1793 1774
f 1774 1793 1794 1775
f 1775 1794 1795 1796
f 1796 1795 1797 1776
f 1776 1797 1798 1799
f 1799 1798 1788 1789
f 1771 1772 1774 1775
f 1800 1803 1804 1801
f 1801 1804 1805 1802
f 1802 1805 1806 1807
f 1807 1806 1803 1800
f 1802 1807 1800 1801
g Body
usemtl M_PCL_Flat_Brown.Bole
f 506 522 538 554 570 586 602 490
f 489 505 504 488
f 505 521 520 504
f 521 537 536 520
f 537 553 552 536
f 553 569 568 552
f 569 585 584 568
f 585 601 600 584
f 601 489 488 600
f 488 504 509 493
f 504 520 525 509
f 520 536 541 525
f 536 552 557 541
f 552 568 573 557
f 568 584 589 573
f 584 600 605 589
f 600 488 493 605
f 505 489 601 585 569 553 537 521
f 491 507 506 490
f 507 523 522 506
f 523 539 538 522
f 539 555 554 538
f 555 571 570 554
f 571 587 586 570
f 587 603 602 586
f 603 491 490 602
f 492 508 507 491
f 508 524 523 507
f 524 540 539 523
f 540 556 555 539
f 556 572 571 555
f 572 588 587 571
f 588 604 603 587
f 604 492 491 603
f 493 509 508 492
f 509 525 524 508
f 525 541 540 524
f 541 557 556 540
f 557 573 572 556
f 573 589 588 572
f 589 605 604 588
f 605 493 492 604
f 666 682 698 714 730 746 762 650
f 649 665 664 648
f 665 681 680 664
f 681 697 696 680
f 697 713 712 696
f 713 729 728 712
f 729 745 744 728
f 745 761 760 744
f 761 649 648 760
f 648 664 669 653
f 664 680 685 669
f 680 696 701 685
f 696 712 717 701
f 712 728 733 717
f 728 744 749 733
f 744 760 765 749
f 760 648 653 765
f 665 649 761 745 729 713 697 681
f 651 667 666 650
f 667 683 682 666
f 683 699 698 682
f 699 715 714 698
f 715 731 730 714
f 731 747 746 730
f 747 763 762 746
f 763 651 650 762
f 652 668 667 651
f 668 684 683 667
f 684 700 699 683
f 700 716 715 699
f 716 732 731 715
f 732 748 747 731
f 748 764 763 747
f 764 652 651 763
f 653 669 668 652
f 669 685 684 668
f 685 701 700 684
f 701 717 716 700
f 717 733 732 716
f 733 749 748 732
f 749 765 764 748
f 765 653 652 764
f 826 842 858 874 890 906 922 810
f 809 825 824 808
f 825 841 840 824
f 841 857 856 840
f 857 873 872 856
f 873 889 888 872
f 889 905 904 888
f 905 921 920 904
f 921 809 808 920
f 808 824 829 813
f 824 840 845 829
f 840 856 861 845
f 856 872 877 861
f 872 888 893 877
f 888 904 909 893
f 904 920 925 909
f 920 808 813 925
f 825 809 921 905 889 873 857 841
f 811 827 826 810
f 827 843 842 826
f 843 859 858 842
f 859 875 874 858
f 875 891 890 874
f 891 907 906 890
f 907 923 922 906
f 923 811 810 922
f 812 828 827 811
f 828 844 843 827
f 844 860 859 843
f 860 876 875 859
f 876 892 891 875
f 892 908 907 891
f 908 924 923 907
f 924 812 811 923
f 813 829 828 812
f 829 845 844 828
f 845 861 860 844
f 861 877 876 860
f 877 893 892 876
f 893 909 908 892
f 909 925 924 908
f 925 813 812 924
