# Adapted CC0 source; see SOURCES.json
mtllib aw50.mtl
v 0.003187 -0.002659 0.117366
v 0.003187 -0.002659 0.115626
v 0.000432 -0.002659 0.115626
v 0.000432 -0.002659 0.112871
v 0.003223 -0.002659 0.109391
v 0.001193 -0.002659 -0.004434
v -0.002432 -0.002659 -0.015744
v -0.002540 -0.002659 -0.038074
v -0.003186 -0.002659 -0.038074
v -0.003186 -0.002659 -0.001067
v -0.003194 -0.002659 -0.039556
v -0.003186 -0.002659 -0.016950
v -0.011761 -0.002659 -0.094624
v -0.008105 -0.002659 -0.080856
v -0.005459 -0.002659 -0.067090
v -0.003822 -0.002659 -0.053324
v -0.001443 -0.013836 0.117366
v -0.001443 -0.013836 0.115626
v -0.003390 -0.011887 0.115626
v -0.003390 -0.011887 0.112871
v -0.001417 -0.013862 0.109391
v -0.002852 -0.012426 -0.004434
v -0.005416 -0.009863 -0.015744
v -0.005493 -0.009786 -0.038074
v -0.005949 -0.009329 -0.038074
v -0.005949 -0.009329 -0.001067
v -0.005954 -0.009324 -0.039556
v -0.005949 -0.009329 -0.016950
v -0.012012 -0.003267 -0.094624
v -0.009428 -0.005851 -0.080856
v -0.007556 -0.007723 -0.067090
v -0.006399 -0.008880 -0.053324
v -0.012618 -0.018464 0.117366
v -0.012618 -0.018464 0.115626
v -0.012618 -0.015709 0.115626
v -0.012618 -0.015709 0.112871
v -0.012618 -0.018501 0.109391
v -0.012618 -0.016471 -0.004434
v -0.012618 -0.012846 -0.015744
v -0.012618 -0.012737 -0.038074
v -0.012618 -0.012092 -0.038074
v -0.012618 -0.012092 -0.001067
v -0.012618 -0.012084 -0.039556
v -0.012618 -0.012092 -0.016950
v -0.012618 -0.003518 -0.094624
v -0.012618 -0.007173 -0.080856
v -0.012618 -0.009819 -0.067090
v -0.012618 -0.011456 -0.053324
v -0.023794 -0.013836 0.117366
v -0.023794 -0.013836 0.115626
v -0.021846 -0.011887 0.115626
v -0.021846 -0.011887 0.112871
v -0.023819 -0.013862 0.109391
v -0.022384 -0.012426 -0.004434
v -0.019821 -0.009863 -0.015744
v -0.019745 -0.009786 -0.038074
v -0.019288 -0.009329 -0.038074
v -0.019288 -0.009329 -0.001067
v -0.019282 -0.009324 -0.039556
v -0.019288 -0.009329 -0.016950
v -0.013224 -0.003267 -0.094624
v -0.015809 -0.005851 -0.080856
v -0.017680 -0.007723 -0.067090
v -0.018838 -0.008880 -0.053324
v -0.028423 -0.002659 0.117366
v -0.028423 -0.002659 0.115626
v -0.025668 -0.002659 0.115626
v -0.025668 -0.002659 0.112871
v -0.028459 -0.002659 0.109391
v -0.026429 -0.002659 -0.004434
v -0.022804 -0.002659 -0.015744
v -0.022695 -0.002659 -0.038074
v -0.022050 -0.002659 -0.038074
v -0.022050 -0.002659 -0.001067
v -0.022043 -0.002659 -0.039556
v -0.022050 -0.002659 -0.016950
v -0.013476 -0.002659 -0.094624
v -0.017132 -0.002659 -0.080856
v -0.019778 -0.002659 -0.067090
v -0.021415 -0.002659 -0.053324
v -0.023794 0.008516 0.117366
v -0.023794 0.008516 0.115626
v -0.021846 0.006568 0.115626
v -0.021846 0.006568 0.112871
v -0.023819 0.008542 0.109391
v -0.022384 0.007106 -0.004434
v -0.019821 0.004543 -0.015744
v -0.019745 0.004466 -0.038074
v -0.019288 0.004009 -0.038074
v -0.019288 0.004009 -0.001067
v -0.019282 0.004005 -0.039556
v -0.019288 0.004009 -0.016950
v -0.013224 -0.002053 -0.094624
v -0.015809 0.000531 -0.080856
v -0.017680 0.002403 -0.067090
v -0.018838 0.003560 -0.053324
v -0.012618 0.013146 0.117366
v -0.012618 0.013146 0.115626
v -0.012618 0.010391 0.115626
v -0.012618 0.010391 0.112871
v -0.012618 0.013182 0.109391
v -0.012618 0.011152 -0.004434
v -0.012618 0.007527 -0.015744
v -0.012618 0.007418 -0.038074
v -0.012618 0.006773 -0.038074
v -0.012618 0.006773 -0.001067
v -0.012618 0.006764 -0.039556
v -0.012618 0.006773 -0.016950
v -0.012618 -0.001802 -0.094624
v -0.012618 0.001853 -0.080856
v -0.012618 0.004499 -0.067090
v -0.012618 0.006136 -0.053324
v -0.001443 0.008516 0.117366
v -0.001443 0.008516 0.115626
v -0.003390 0.006568 0.115626
v -0.003390 0.006568 0.112871
v -0.001417 0.008542 0.109391
v -0.002852 0.007106 -0.004434
v -0.005416 0.004543 -0.015744
v -0.005493 0.004466 -0.038074
v -0.005949 0.004009 -0.038074
v -0.005949 0.004009 -0.001067
v -0.005954 0.004005 -0.039556
v -0.005949 0.004009 -0.016950
v -0.012012 -0.002053 -0.094624
v -0.009428 0.000531 -0.080856
v -0.007556 0.002403 -0.067090
v -0.006399 0.003560 -0.053324
v -0.007556 -0.007721 0.118526
v -0.005459 -0.002659 0.118526
v -0.012618 -0.009818 0.118526
v -0.017680 -0.007721 0.118526
v -0.019777 -0.002659 0.118526
v -0.017680 0.002403 0.118526
v -0.012618 0.004499 0.118526
v -0.007556 0.002403 0.118526
v -0.003390 -0.011887 0.118526
v 0.000432 -0.002659 0.118526
v -0.012618 -0.015709 0.118526
v -0.021846 -0.011887 0.118526
v -0.025668 -0.002659 0.118526
v -0.021846 0.006568 0.118526
v -0.012618 0.010391 0.118526
v -0.003390 0.006568 0.118526
v -0.008906 -0.006371 0.118526
v -0.007369 -0.002659 0.118526
v -0.012618 -0.007910 0.118526
v -0.016330 -0.006371 0.118526
v -0.017867 -0.002659 0.118526
v -0.016330 0.001051 0.118526
v -0.012618 0.002590 0.118526
v -0.008906 0.001051 0.118526
v -0.008178 -0.007099 0.117714
v -0.006339 -0.002659 0.117714
v -0.012618 -0.008939 0.117714
v -0.017058 -0.007099 0.117714
v -0.018898 -0.002659 0.117714
v -0.017058 0.001781 0.117714
v -0.012618 0.003619 0.117714
v -0.008178 0.001781 0.117714
v 0.028533 -0.015332 0.117366
v 0.028533 -0.015332 0.115626
v 0.025778 -0.015332 0.115626
v 0.025778 -0.015332 0.112871
v 0.028569 -0.015332 0.109391
v 0.026539 -0.015332 -0.004434
v 0.022914 -0.015332 -0.015744
v 0.022806 -0.015332 -0.038074
v 0.022160 -0.015332 -0.038074
v 0.022160 -0.015332 -0.001067
v 0.022152 -0.015332 -0.039556
v 0.022160 -0.015332 -0.016950
v 0.013585 -0.015332 -0.094624
v 0.017240 -0.015332 -0.080856
v 0.019887 -0.015332 -0.067090
v 0.021524 -0.015332 -0.053324
v 0.023903 -0.026509 0.117366
v 0.023903 -0.026509 0.115626
v 0.021956 -0.024560 0.115626
v 0.021956 -0.024560 0.112871
v 0.023929 -0.026535 0.109391
v 0.022494 -0.025099 -0.004434
v 0.019930 -0.022536 -0.015744
v 0.019853 -0.022459 -0.038074
v 0.019397 -0.022002 -0.038074
v 0.019397 -0.022002 -0.001067
v 0.019392 -0.021996 -0.039556
v 0.019397 -0.022002 -0.016950
v 0.013334 -0.015940 -0.094624
v 0.015918 -0.018524 -0.080856
v 0.017790 -0.020396 -0.067090
v 0.018947 -0.021553 -0.053324
v 0.012728 -0.031137 0.117366
v 0.012728 -0.031137 0.115626
v 0.012728 -0.028382 0.115626
v 0.012728 -0.028382 0.112871
v 0.012728 -0.031174 0.109391
v 0.012728 -0.029144 -0.004434
v 0.012728 -0.025519 -0.015744
v 0.012728 -0.025410 -0.038074
v 0.012728 -0.024765 -0.038074
v 0.012728 -0.024765 -0.001067
v 0.012728 -0.024757 -0.039556
v 0.012728 -0.024765 -0.016950
v 0.012728 -0.016191 -0.094624
v 0.012728 -0.019846 -0.080856
v 0.012728 -0.022492 -0.067090
v 0.012728 -0.024129 -0.053324
v 0.001551 -0.026509 0.117366
v 0.001551 -0.026509 0.115626
v 0.003500 -0.024560 0.115626
v 0.003500 -0.024560 0.112871
v 0.001527 -0.026535 0.109391
v 0.002962 -0.025099 -0.004434
v 0.005524 -0.022536 -0.015744
v 0.005601 -0.022459 -0.038074
v 0.006058 -0.022002 -0.038074
v 0.006058 -0.022002 -0.001067
v 0.006064 -0.021996 -0.039556
v 0.006058 -0.022002 -0.016950
v 0.012122 -0.015940 -0.094624
v 0.009537 -0.018524 -0.080856
v 0.007666 -0.020396 -0.067090
v 0.006508 -0.021553 -0.053324
v -0.003077 -0.015332 0.117366
v -0.003077 -0.015332 0.115626
v -0.000322 -0.015332 0.115626
v -0.000322 -0.015332 0.112871
v -0.003113 -0.015332 0.109391
v -0.001083 -0.015332 -0.004434
v 0.002542 -0.015332 -0.015744
v 0.002651 -0.015332 -0.038074
v 0.003296 -0.015332 -0.038074
v 0.003296 -0.015332 -0.001067
v 0.003303 -0.015332 -0.039556
v 0.003296 -0.015332 -0.016950
v 0.011870 -0.015332 -0.094624
v 0.008214 -0.015332 -0.080856
v 0.005568 -0.015332 -0.067090
v 0.003931 -0.015332 -0.053324
v 0.001551 -0.004157 0.117366
v 0.001551 -0.004157 0.115626
v 0.003500 -0.006104 0.115626
v 0.003500 -0.006104 0.112871
v 0.001527 -0.004131 0.109391
v 0.002962 -0.005567 -0.004434
v 0.005524 -0.008130 -0.015744
v 0.005601 -0.008207 -0.038074
v 0.006058 -0.008664 -0.038074
v 0.006058 -0.008664 -0.001067
v 0.006064 -0.008668 -0.039556
v 0.006058 -0.008664 -0.016950
v 0.012122 -0.014726 -0.094624
v 0.009537 -0.012142 -0.080856
v 0.007666 -0.010270 -0.067090
v 0.006508 -0.009113 -0.053324
v 0.012728 0.000473 0.117366
v 0.012728 0.000473 0.115626
v 0.012728 -0.002282 0.115626
v 0.012728 -0.002282 0.112871
v 0.012728 0.000509 0.109391
v 0.012728 -0.001521 -0.004434
v 0.012728 -0.005146 -0.015744
v 0.012728 -0.005255 -0.038074
v 0.012728 -0.005900 -0.038074
v 0.012728 -0.005900 -0.001067
v 0.012728 -0.005909 -0.039556
v 0.012728 -0.005900 -0.016950
v 0.012728 -0.014475 -0.094624
v 0.012728 -0.010820 -0.080856
v 0.012728 -0.008174 -0.067090
v 0.012728 -0.006537 -0.053324
v 0.023903 -0.004157 0.117366
v 0.023903 -0.004157 0.115626
v 0.021956 -0.006104 0.115626
v 0.021956 -0.006104 0.112871
v 0.023929 -0.004131 0.109391
v 0.022494 -0.005567 -0.004434
v 0.019930 -0.008130 -0.015744
v 0.019853 -0.008207 -0.038074
v 0.019397 -0.008664 -0.038074
v 0.019397 -0.008664 -0.001067
v 0.019392 -0.008668 -0.039556
v 0.019397 -0.008664 -0.016950
v 0.013334 -0.014726 -0.094624
v 0.015918 -0.012142 -0.080856
v 0.017790 -0.010270 -0.067090
v 0.018947 -0.009113 -0.053324
v 0.017790 -0.020394 0.118526
v 0.019887 -0.015332 0.118526
v 0.012728 -0.022491 0.118526
v 0.007666 -0.020394 0.118526
v 0.005569 -0.015332 0.118526
v 0.007666 -0.010270 0.118526
v 0.012728 -0.008174 0.118526
v 0.017790 -0.010270 0.118526
v 0.021956 -0.024560 0.118526
v 0.025778 -0.015332 0.118526
v 0.012728 -0.028382 0.118526
v 0.003500 -0.024560 0.118526
v -0.000322 -0.015332 0.118526
v 0.003500 -0.006104 0.118526
v 0.012728 -0.002282 0.118526
v 0.021956 -0.006104 0.118526
v 0.016440 -0.019044 0.118526
v 0.017977 -0.015332 0.118526
v 0.012728 -0.020583 0.118526
v 0.009016 -0.019044 0.118526
v 0.007479 -0.015332 0.118526
v 0.009016 -0.011622 0.118526
v 0.012728 -0.010083 0.118526
v 0.016440 -0.011622 0.118526
v 0.017168 -0.019772 0.117714
v 0.019007 -0.015332 0.117714
v 0.012728 -0.021612 0.117714
v 0.008288 -0.019772 0.117714
v 0.006448 -0.015332 0.117714
v 0.008288 -0.010892 0.117714
v 0.012728 -0.009054 0.117714
v 0.017168 -0.010892 0.117714
v 0.003187 -0.033708 0.117366
v 0.003187 -0.033708 0.115626
v 0.000432 -0.033708 0.115626
v 0.000432 -0.033708 0.112871
v 0.003223 -0.033708 0.109391
v 0.001193 -0.033708 -0.004434
v -0.002432 -0.033708 -0.015744
v -0.002540 -0.033708 -0.038074
v -0.003186 -0.033708 -0.038074
v -0.003186 -0.033708 -0.001067
v -0.003194 -0.033708 -0.039556
v -0.003186 -0.033708 -0.016950
v -0.011761 -0.033708 -0.094624
v -0.008105 -0.033708 -0.080856
v -0.005459 -0.033708 -0.067090
v -0.003822 -0.033708 -0.053324
v -0.001443 -0.044885 0.117366
v -0.001443 -0.044885 0.115626
v -0.003390 -0.042936 0.115626
v -0.003390 -0.042936 0.112871
v -0.001417 -0.044911 0.109391
v -0.002852 -0.043475 -0.004434
v -0.005416 -0.040912 -0.015744
v -0.005493 -0.040835 -0.038074
v -0.005949 -0.040378 -0.038074
v -0.005949 -0.040378 -0.001067
v -0.005954 -0.040372 -0.039556
v -0.005949 -0.040378 -0.016950
v -0.012012 -0.034316 -0.094624
v -0.009428 -0.036900 -0.080856
v -0.007556 -0.038772 -0.067090
v -0.006399 -0.039929 -0.053324
v -0.012618 -0.049513 0.117366
v -0.012618 -0.049513 0.115626
v -0.012618 -0.046758 0.115626
v -0.012618 -0.046758 0.112871
v -0.012618 -0.049549 0.109391
v -0.012618 -0.047519 -0.004434
v -0.012618 -0.043894 -0.015744
v -0.012618 -0.043786 -0.038074
v -0.012618 -0.043140 -0.038074
v -0.012618 -0.043140 -0.001067
v -0.012618 -0.043133 -0.039556
v -0.012618 -0.043140 -0.016950
v -0.012618 -0.034567 -0.094624
v -0.012618 -0.038222 -0.080856
v -0.012618 -0.040868 -0.067090
v -0.012618 -0.042505 -0.053324
v -0.023794 -0.044885 0.117366
v -0.023794 -0.044885 0.115626
v -0.021846 -0.042936 0.115626
v -0.021846 -0.042936 0.112871
v -0.023819 -0.044911 0.109391
v -0.022384 -0.043475 -0.004434
v -0.019821 -0.040912 -0.015744
v -0.019745 -0.040835 -0.038074
v -0.019288 -0.040378 -0.038074
v -0.019288 -0.040378 -0.001067
v -0.019282 -0.040372 -0.039556
v -0.019288 -0.040378 -0.016950
v -0.013224 -0.034316 -0.094624
v -0.015809 -0.036900 -0.080856
v -0.017680 -0.038772 -0.067090
v -0.018838 -0.039929 -0.053324
v -0.028423 -0.033708 0.117366
v -0.028423 -0.033708 0.115626
v -0.025668 -0.033708 0.115626
v -0.025668 -0.033708 0.112871
v -0.028459 -0.033708 0.109391
v -0.026429 -0.033708 -0.004434
v -0.022804 -0.033708 -0.015744
v -0.022695 -0.033708 -0.038074
v -0.022050 -0.033708 -0.038074
v -0.022050 -0.033708 -0.001067
v -0.022043 -0.033708 -0.039556
v -0.022050 -0.033708 -0.016950
v -0.013476 -0.033708 -0.094624
v -0.017132 -0.033708 -0.080856
v -0.019778 -0.033708 -0.067090
v -0.021415 -0.033708 -0.053324
v -0.023794 -0.022533 0.117366
v -0.023794 -0.022533 0.115626
v -0.021846 -0.024480 0.115626
v -0.021846 -0.024480 0.112871
v -0.023819 -0.022507 0.109391
v -0.022384 -0.023942 -0.004434
v -0.019821 -0.026506 -0.015744
v -0.019745 -0.026583 -0.038074
v -0.019288 -0.027040 -0.038074
v -0.019288 -0.027040 -0.001067
v -0.019282 -0.027044 -0.039556
v -0.019288 -0.027040 -0.016950
v -0.013224 -0.033102 -0.094624
v -0.015809 -0.030518 -0.080856
v -0.017680 -0.028646 -0.067090
v -0.018838 -0.027489 -0.053324
v -0.012618 -0.017903 0.117366
v -0.012618 -0.017903 0.115626
v -0.012618 -0.020658 0.115626
v -0.012618 -0.020658 0.112871
v -0.012618 -0.017867 0.109391
v -0.012618 -0.019897 -0.004434
v -0.012618 -0.023522 -0.015744
v -0.012618 -0.023631 -0.038074
v -0.012618 -0.024276 -0.038074
v -0.012618 -0.024276 -0.001067
v -0.012618 -0.024285 -0.039556
v -0.012618 -0.024276 -0.016950
v -0.012618 -0.032851 -0.094624
v -0.012618 -0.029196 -0.080856
v -0.012618 -0.026550 -0.067090
v -0.012618 -0.024912 -0.053324
v -0.001443 -0.022533 0.117366
v -0.001443 -0.022533 0.115626
v -0.003390 -0.024480 0.115626
v -0.003390 -0.024480 0.112871
v -0.001417 -0.022507 0.109391
v -0.002852 -0.023942 -0.004434
v -0.005416 -0.026506 -0.015744
v -0.005493 -0.026583 -0.038074
v -0.005949 -0.027040 -0.038074
v -0.005949 -0.027040 -0.001067
v -0.005954 -0.027044 -0.039556
v -0.005949 -0.027040 -0.016950
v -0.012012 -0.033102 -0.094624
v -0.009428 -0.030518 -0.080856
v -0.007556 -0.028646 -0.067090
v -0.006399 -0.027489 -0.053324
v -0.007556 -0.038770 0.118526
v -0.005459 -0.033708 0.118526
v -0.012618 -0.040867 0.118526
v -0.017680 -0.038770 0.118526
v -0.019777 -0.033708 0.118526
v -0.017680 -0.028646 0.118526
v -0.012618 -0.026550 0.118526
v -0.007556 -0.028646 0.118526
v -0.003390 -0.042936 0.118526
v 0.000432 -0.033708 0.118526
v -0.012618 -0.046758 0.118526
v -0.021846 -0.042936 0.118526
v -0.025668 -0.033708 0.118526
v -0.021846 -0.024480 0.118526
v -0.012618 -0.020658 0.118526
v -0.003390 -0.024480 0.118526
v -0.008906 -0.037420 0.118526
v -0.007369 -0.033708 0.118526
v -0.012618 -0.038959 0.118526
v -0.016330 -0.037420 0.118526
v -0.017867 -0.033708 0.118526
v -0.016330 -0.029998 0.118526
v -0.012618 -0.028459 0.118526
v -0.008906 -0.029998 0.118526
v -0.008178 -0.038148 0.117714
v -0.006339 -0.033708 0.117714
v -0.012618 -0.039988 0.117714
v -0.017058 -0.038148 0.117714
v -0.018898 -0.033708 0.117714
v -0.017058 -0.029268 0.117714
v -0.012618 -0.027430 0.117714
v -0.008178 -0.029268 0.117714
v 0.016955 -0.147794 -0.209019
v 0.022881 -0.146037 -0.201280
v 0.022881 -0.132343 -0.140959
v 0.016955 -0.130719 -0.133805
v 0.022881 -0.107190 -0.206842
v 0.016955 -0.108740 -0.214636
v 0.022881 -0.063329 -0.214446
v 0.016955 -0.063394 -0.222584
v 0.022881 -0.052863 -0.226860
v 0.016955 -0.053920 -0.233950
v 0.022881 -0.045124 -0.175012
v 0.016955 -0.044029 -0.167685
v 0.016955 -0.095214 -0.146624
v 0.022881 -0.096651 -0.153848
v 0.016955 -0.062884 -0.159539
v 0.022881 -0.062946 -0.167314
v 0.022881 -0.023674 -0.174982
v 0.016955 -0.026309 -0.167455
v 0.016955 -0.010997 -0.154429
v 0.022881 -0.010997 -0.163947
v 0.022881 -0.010997 -0.226853
v 0.016955 -0.010997 -0.233950
v -0.022694 -0.146037 -0.201280
v -0.016766 -0.147794 -0.209019
v -0.016766 -0.130719 -0.133805
v -0.022694 -0.132343 -0.140959
v -0.016766 -0.108740 -0.214636
v -0.022694 -0.107190 -0.206842
v -0.016766 -0.063394 -0.222584
v -0.022694 -0.063329 -0.214446
v -0.016766 -0.053920 -0.233950
v -0.022694 -0.052863 -0.226860
v -0.016766 -0.044029 -0.167685
v -0.022694 -0.045124 -0.175012
v -0.022694 -0.096651 -0.153848
v -0.016766 -0.095214 -0.146624
v -0.022694 -0.062946 -0.167314
v -0.016766 -0.062884 -0.159539
v -0.016766 -0.026309 -0.167455
v -0.022694 -0.023674 -0.174731
v -0.022694 -0.010997 -0.163947
v -0.016766 -0.010997 -0.154429
v -0.016766 -0.010997 -0.233950
v -0.022694 -0.010997 -0.226853
v 0.036781 -0.148326 0.127271
v 0.029084 -0.008401 0.118640
v 0.036781 -0.124678 -0.103394
v 0.029084 -0.008401 -0.095040
v 0.032077 -0.008401 -0.098688
v 0.032077 -0.008401 0.122566
v 0.029084 -0.039450 -0.095040
v 0.029084 -0.039450 0.118640
v 0.036781 -0.169917 0.127271
v 0.032077 -0.137119 0.122566
v 0.032077 -0.114412 -0.098688
v 0.036781 -0.146270 -0.103394
v 0.029084 -0.008401 0.114257
v 0.029084 -0.008401 -0.028810
v 0.032077 -0.008401 -0.028810
v 0.032077 -0.008401 0.114257
v 0.029191 -0.000239 0.114257
v 0.029191 -0.000239 -0.024106
v 0.031968 0.001027 -0.022839
v 0.031968 0.001027 0.114257
v 0.026679 0.006598 0.114257
v 0.026679 0.006598 -0.017684
v 0.028204 0.009274 -0.014607
v 0.028204 0.009274 0.114257
v 0.020515 0.010746 0.114257
v 0.020515 0.010746 -0.013121
v 0.021224 0.013769 -0.009564
v 0.021224 0.013769 0.114257
v -0.036594 -0.148326 0.127271
v -0.028896 -0.008401 0.118640
v -0.036594 -0.124678 -0.103394
v -0.028896 -0.008401 -0.095040
v -0.031888 -0.008401 -0.098688
v -0.031888 -0.008401 0.122566
v -0.028896 -0.039450 -0.095040
v -0.028896 -0.039450 0.118640
v -0.036594 -0.169917 0.127271
v -0.031888 -0.137119 0.122566
v -0.031888 -0.114412 -0.098688
v -0.036594 -0.146270 -0.103394
v -0.028896 -0.008401 0.114257
v -0.028896 -0.008401 -0.028810
v -0.031888 -0.008401 -0.028810
v -0.031888 -0.008401 0.114257
v -0.029004 -0.000239 0.114257
v -0.029004 -0.000239 -0.024106
v -0.031780 0.001027 -0.022839
v -0.031780 0.001027 0.114257
v -0.026490 0.006598 0.114257
v -0.026490 0.006598 -0.017684
v -0.028015 0.009274 -0.014607
v -0.028015 0.009274 0.114257
v -0.020326 0.010746 0.114257
v -0.020326 0.010746 -0.013121
v -0.021037 0.013769 -0.009564
v -0.021037 0.013769 0.114257
v 0.000094 0.005733 -0.924189
v 0.000094 0.005733 -0.109262
v -0.011625 0.010588 -0.924189
v -0.011625 0.010588 -0.109262
v -0.016479 0.022307 -0.924189
v -0.016479 0.022307 -0.109262
v -0.011625 0.034026 -0.924189
v -0.011625 0.034026 -0.109262
v 0.000094 0.038880 -0.924189
v 0.000094 0.038880 -0.109262
v 0.011813 0.034026 -0.924189
v 0.011813 0.034026 -0.109262
v 0.016668 0.022307 -0.924189
v 0.016668 0.022307 -0.109262
v 0.011813 0.010588 -0.924189
v 0.011813 0.010588 -0.109262
v 0.000094 0.000687 -0.924189
v -0.015193 0.007019 -0.924189
v -0.015193 0.007019 -0.109262
v 0.000094 0.000687 -0.109262
v -0.021525 0.022307 -0.924189
v -0.021525 0.022307 -0.109262
v -0.015193 0.037594 -0.924189
v -0.015193 0.037594 -0.109262
v 0.000094 0.043926 -0.924189
v 0.000094 0.043926 -0.109262
v 0.015382 0.037594 -0.924189
v 0.015382 0.037594 -0.109262
v 0.021714 0.022307 -0.924189
v 0.021714 0.022307 -0.109262
v 0.015382 0.007019 -0.924189
v 0.015382 0.007019 -0.109262
v 0.000094 0.022307 -0.895772
v 0.000094 0.022307 -0.123125
v 0.000094 -0.002227 -0.948571
v -0.017254 0.004959 -0.948571
v -0.024440 0.022307 -0.948571
v -0.017254 0.039655 -0.948571
v 0.000094 0.046839 -0.948571
v 0.017442 0.039655 -0.948571
v 0.024627 0.022307 -0.948571
v 0.017442 0.004959 -0.948571
v 0.000094 0.001731 -0.958578
v -0.014455 0.007757 -0.958578
v -0.020481 0.022307 -0.958578
v -0.014455 0.036856 -0.958578
v 0.000094 0.042882 -0.958578
v 0.014644 0.036856 -0.958578
v 0.020670 0.022307 -0.958578
v 0.014644 0.007757 -0.958578
v 0.000094 -0.002227 -0.958578
v -0.017254 0.004959 -0.958578
v -0.024440 0.022307 -0.958578
v -0.017254 0.039655 -0.958578
v 0.000094 0.046839 -0.958578
v 0.017442 0.039655 -0.958578
v 0.024627 0.022307 -0.958578
v 0.017442 0.004959 -0.958578
v 0.038251 -0.012611 0.347214
v 0.000094 -0.012611 0.347214
v 0.000094 0.061323 0.347214
v 0.038251 0.037991 0.347214
v 0.014919 0.061323 0.347214
v 0.038251 0.037991 -0.577389
v 0.014919 0.061323 -0.577389
v 0.036576 0.040993 -0.512308
v 0.036576 0.040993 -0.379968
v 0.036576 0.040993 -0.431645
v 0.029654 0.053393 0.347214
v 0.031329 0.050392 -0.379968
v 0.031329 0.050392 -0.512308
v 0.031329 0.050392 -0.431645
v 0.029654 0.053393 -0.577389
v 0.036576 0.040993 -0.563985
v 0.031329 0.050392 -0.563985
v 0.038251 -0.001889 -0.121609
v 0.038251 -0.001889 0.123456
v 0.014919 0.061323 -0.128297
v 0.038251 0.037991 0.123456
v 0.038251 0.037991 -0.121609
v 0.032505 0.048288 0.123456
v 0.032505 0.048288 -0.121609
v -0.038062 -0.012611 0.347214
v -0.038062 0.037991 0.347214
v -0.014731 0.061323 0.347214
v -0.038062 0.037991 -0.577389
v -0.014731 0.061323 -0.577389
v -0.036388 0.040993 -0.512308
v -0.036388 0.040993 -0.379968
v -0.036388 0.040993 -0.431645
v -0.029465 0.053393 0.347214
v -0.031142 0.050392 -0.379968
v -0.031142 0.050392 -0.512308
v -0.031142 0.050392 -0.431645
v -0.029465 0.053393 -0.577389
v -0.036388 0.040993 -0.563985
v -0.031142 0.050392 -0.563985
v -0.014731 0.061323 -0.128297
v -0.038062 0.037991 -0.128297
v -0.029465 0.053393 -0.128297
v 0.031001 -0.005361 -0.577389
v 0.031001 -0.005361 -0.366566
v 0.031001 0.036105 -0.577389
v 0.013092 0.054073 -0.577389
v 0.030246 0.037459 -0.512308
v 0.013092 0.054073 -0.444318
v 0.013092 0.054073 -0.366566
v 0.030246 0.037459 -0.379968
v 0.030246 0.037459 -0.431645
v 0.013092 0.054073 -0.499637
v 0.024998 0.046858 -0.379968
v 0.024998 0.046858 -0.512308
v 0.024998 0.046858 -0.431645
v 0.024354 0.048012 -0.577389
v 0.031001 0.036105 -0.499637
v 0.024354 0.048012 -0.366566
v 0.030246 0.037459 -0.563985
v 0.031001 0.036105 -0.366566
v 0.031001 0.036105 -0.444318
v 0.024354 0.048012 -0.499637
v 0.024354 0.048012 -0.444318
v 0.024998 0.046858 -0.563985
v -0.030812 -0.005361 -0.577389
v -0.030812 -0.005361 -0.366566
v -0.030812 0.036105 -0.577389
v -0.012904 0.054073 -0.577389
v -0.030057 0.037459 -0.512308
v -0.012904 0.054073 -0.444318
v -0.012904 0.054073 -0.366566
v -0.030057 0.037459 -0.379968
v -0.030057 0.037459 -0.431645
v -0.012904 0.054073 -0.499637
v -0.024811 0.046858 -0.379968
v -0.024811 0.046858 -0.512308
v -0.024811 0.046858 -0.431645
v -0.024167 0.048012 -0.577389
v -0.030812 0.036105 -0.499637
v -0.024167 0.048012 -0.366566
v -0.030057 0.037459 -0.563985
v -0.030812 0.036105 -0.366566
v -0.030812 0.036105 -0.444318
v -0.024167 0.048012 -0.499637
v -0.024167 0.048012 -0.444318
v -0.024811 0.046858 -0.563985
v 0.038251 -0.012611 0.130145
v 0.029654 0.053393 -0.128297
v 0.038251 0.037991 -0.128297
v -0.027000 0.037991 0.123456
v -0.027000 0.037991 -0.121609
v -0.027000 -0.001889 -0.121609
v -0.027000 -0.001889 0.123456
v -0.027000 0.048288 0.123456
v -0.027000 0.048288 -0.121609
v 0.035122 -0.106897 0.347214
v 0.035122 -0.012611 0.347214
v 0.035122 -0.012611 -0.104190
v 0.035122 -0.012611 0.195430
v 0.035122 -0.106897 0.195430
v 0.035122 -0.012611 0.128368
v 0.035122 -0.012611 0.138595
v 0.035122 -0.047753 0.138595
v 0.035122 -0.012611 0.168781
v 0.035122 -0.048257 0.168781
v 0.032307 -0.065475 -0.099637
v 0.032307 -0.065475 0.124725
v 0.035122 -0.065475 -0.104190
v 0.035122 -0.065475 0.128368
v 0.032307 -0.028181 -0.099637
v 0.032307 -0.028181 0.124725
v -0.034933 -0.106897 0.347214
v -0.034933 -0.012611 0.347214
v -0.034933 -0.012611 -0.104190
v -0.034933 -0.012611 0.195430
v -0.034933 -0.106897 0.195430
v -0.034933 -0.012611 0.128368
v -0.034933 -0.012611 0.138595
v -0.034933 -0.047753 0.138595
v -0.034933 -0.012611 0.168781
v -0.034933 -0.048257 0.168781
v -0.032120 -0.065475 -0.099637
v -0.032120 -0.065475 0.124725
v -0.034933 -0.065475 -0.104190
v -0.034933 -0.065475 0.128368
v -0.032120 -0.028181 -0.099637
v -0.032120 -0.028181 0.124725
v 0.000094 -0.123149 0.370684
v 0.000094 0.070148 0.370684
v 0.043168 0.044830 0.370684
v 0.043168 -0.097830 0.370684
v 0.027891 0.064825 0.370684
v 0.027891 -0.117826 0.370684
v 0.000094 -0.123149 0.347214
v 0.000094 0.070148 0.347214
v 0.043168 0.044830 0.347214
v 0.043168 -0.097830 0.347214
v 0.027891 0.064825 0.347214
v 0.027891 -0.117826 0.347214
v -0.042979 0.044830 0.370684
v -0.042979 -0.097830 0.370684
v -0.027702 0.064825 0.370684
v -0.027702 -0.117826 0.370684
v -0.042979 0.044830 0.347214
v -0.042979 -0.097830 0.347214
v -0.027702 0.064825 0.347214
v -0.027702 -0.117826 0.347214
v 0.011509 0.061323 -0.319771
v -0.011320 0.061323 -0.319771
v -0.015276 0.070904 -0.319771
v 0.011509 0.066558 -0.319771
v -0.011320 0.066558 -0.319771
v 0.011509 0.061323 -0.016225
v -0.011320 0.061323 -0.016225
v -0.015276 0.070904 -0.016225
v 0.011509 0.066558 -0.016225
v -0.011320 0.066558 -0.016225
v 0.011509 0.075249 -0.319771
v -0.011320 0.075249 -0.319771
v 0.015464 0.070904 -0.319771
v 0.011509 0.075249 -0.016225
v -0.011320 0.075249 -0.016225
v 0.015464 0.070904 -0.016225
v 0.011509 -0.020590 -0.466031
v -0.011320 -0.020590 -0.466031
v -0.015276 -0.030170 -0.466031
v 0.011509 -0.025824 -0.466031
v -0.011320 -0.025824 -0.466031
v 0.011509 -0.020590 -0.577389
v -0.011320 -0.020590 -0.577389
v -0.015276 -0.030170 -0.577389
v 0.011509 -0.025824 -0.577389
v -0.011320 -0.025824 -0.577389
v 0.011509 -0.034516 -0.466031
v -0.011320 -0.034516 -0.466031
v 0.015464 -0.030170 -0.466031
v 0.011509 -0.034516 -0.577389
v -0.011320 -0.034516 -0.577389
v 0.015464 -0.030170 -0.577389
v 0.011509 0.061323 -0.577389
v -0.011320 0.061323 -0.577389
v -0.015276 0.070904 -0.577389
v 0.011509 0.066558 -0.577389
v -0.011320 0.066558 -0.577389
v 0.011509 0.061323 -0.466031
v -0.011320 0.061323 -0.466031
v -0.015276 0.070904 -0.466031
v 0.011509 0.066558 -0.466031
v -0.011320 0.066558 -0.466031
v 0.011509 0.075249 -0.577389
v -0.011320 0.075249 -0.577389
v 0.015464 0.070904 -0.577389
v 0.011509 0.075249 -0.466031
v -0.011320 0.075249 -0.466031
v 0.015464 0.070904 -0.466031
v 0.005117 -0.048888 -0.257587
v 0.005117 -0.018693 -0.256084
v 0.005117 -0.029300 -0.254547
v 0.005117 -0.041321 -0.257242
v 0.005117 -0.021212 -0.248829
v 0.005117 -0.032115 -0.249597
v 0.005117 -0.041321 -0.252480
v 0.005117 -0.010997 -0.261468
v 0.005117 -0.010997 -0.248829
v 0.005117 -0.048888 -0.261580
v -0.004929 -0.048888 -0.257587
v -0.004929 -0.018693 -0.256084
v -0.004929 -0.029300 -0.254547
v -0.004929 -0.041321 -0.257242
v -0.004929 -0.021212 -0.248829
v -0.004929 -0.032115 -0.249597
v -0.004929 -0.041321 -0.252480
v -0.004929 -0.010997 -0.261468
v -0.004929 -0.010997 -0.248829
v -0.004929 -0.048888 -0.261580
v 0.012856 -0.052690 -0.282989
v 0.012856 -0.057524 -0.245736
v 0.012856 -0.052687 -0.246419
v 0.012856 -0.057521 -0.283711
v 0.012856 -0.050115 -0.229996
v 0.012856 -0.045421 -0.231347
v 0.012856 -0.044804 -0.295464
v 0.012856 -0.051330 -0.301883
v 0.012856 -0.028716 -0.300104
v 0.012856 -0.031683 -0.314920
v 0.012856 -0.010997 -0.293634
v 0.012856 -0.010997 -0.319771
v -0.012667 -0.052690 -0.282989
v -0.012667 -0.057524 -0.245736
v -0.012667 -0.052687 -0.246419
v -0.012667 -0.057521 -0.283711
v -0.012667 -0.050115 -0.229996
v -0.012667 -0.045421 -0.231347
v -0.012667 -0.044804 -0.295464
v -0.012667 -0.051330 -0.301883
v -0.012667 -0.028716 -0.300104
v -0.012667 -0.031683 -0.314920
v -0.012667 -0.010997 -0.293634
v -0.012667 -0.010997 -0.319771
v 0.040387 0.031218 -0.350585
v 0.040387 0.031218 -0.579381
v 0.029809 0.031218 -0.350585
v 0.029809 0.031218 -0.579381
v -0.040198 0.031218 -0.350585
v -0.040198 0.031218 -0.579381
v -0.029621 0.031218 -0.350585
v -0.029621 0.031218 -0.579381
v 0.040387 -0.013340 -0.579381
v 0.033137 -0.020590 -0.579381
v 0.033137 -0.020590 -0.350585
v 0.040387 -0.013340 -0.350585
v 0.022559 -0.003641 -0.579381
v 0.029809 0.004807 -0.579381
v 0.029809 0.004807 -0.350585
v 0.022559 -0.003641 -0.350585
v -0.032948 -0.020590 -0.579381
v -0.040198 -0.013340 -0.579381
v -0.040198 -0.013340 -0.350585
v -0.032948 -0.020590 -0.350585
v -0.029621 0.004807 -0.579381
v -0.022371 -0.003641 -0.579381
v -0.022371 -0.003641 -0.350585
v -0.029621 0.004807 -0.350585
v 0.000094 -0.006644 -0.958578
v 0.000094 0.051257 -0.958578
v 0.026146 0.035599 -0.958578
v 0.026146 0.009015 -0.958578
v 0.000094 -0.006644 -1.062134
v 0.000094 0.051257 -1.062134
v 0.026146 0.035599 -1.062134
v 0.026146 0.009015 -1.062134
v 0.026146 0.014745 -0.973276
v 0.026146 0.029867 -0.973276
v 0.026146 0.014745 -1.047435
v 0.026146 0.029867 -1.047435
v 0.017472 0.046907 -0.958578
v 0.017472 0.046907 -1.062134
v 0.017472 -0.002294 -0.958578
v 0.017472 -0.002294 -1.062134
v -0.025958 0.035599 -0.958578
v -0.025958 0.009015 -0.958578
v -0.025958 0.035599 -1.062134
v -0.025958 0.009015 -1.062134
v -0.025958 0.014745 -0.973276
v -0.025958 0.029867 -0.973276
v -0.025958 0.014745 -1.047435
v -0.025958 0.029867 -1.047435
v -0.017284 0.046907 -0.958578
v -0.017284 0.046907 -1.062134
v -0.017284 -0.002294 -0.958578
v -0.017284 -0.002294 -1.062134
v 0.000094 0.000829 -0.958578
v 0.000094 0.043784 -0.958578
v 0.018896 0.033138 -0.958578
v 0.018896 0.011475 -0.958578
v 0.000094 0.000829 -1.062134
v 0.000094 0.043784 -1.062134
v 0.018896 0.033138 -1.062134
v 0.018896 0.011475 -1.062134
v 0.018896 0.014745 -0.973276
v 0.018896 0.029867 -0.973276
v 0.018896 0.014745 -1.047435
v 0.018896 0.029867 -1.047435
v 0.013259 0.040488 -0.958578
v 0.013259 0.040488 -1.062134
v 0.013259 0.004125 -0.958578
v 0.013259 0.004125 -1.062134
v -0.018708 0.033138 -0.958578
v -0.018708 0.011475 -0.958578
v -0.018708 0.033138 -1.062134
v -0.018708 0.011475 -1.062134
v -0.018708 0.014745 -0.973276
v -0.018708 0.029867 -0.973276
v -0.018708 0.014745 -1.047435
v -0.018708 0.029867 -1.047435
v -0.013072 0.040488 -0.958578
v -0.013072 0.040488 -1.062134
v -0.013072 0.004125 -0.958578
v -0.013072 0.004125 -1.062134
v -0.049778 -0.006377 -0.577389
v -0.054124 0.020407 -0.577389
v -0.054124 -0.002423 -0.577389
v -0.049778 -0.006377 -0.466031
v -0.054124 0.020407 -0.466031
v -0.054124 -0.002423 -0.466031
v -0.045433 0.020407 -0.577389
v -0.045433 -0.002423 -0.577389
v -0.049778 0.024363 -0.577389
v -0.040198 0.020407 -0.577389
v -0.040198 -0.002423 -0.577389
v -0.045433 0.020407 -0.466031
v -0.045433 -0.002423 -0.466031
v -0.049778 0.024363 -0.466031
v -0.040198 0.020407 -0.466031
v -0.040198 -0.002423 -0.466031
v -0.046841 -0.047569 0.302403
v 0.043226 -0.047569 0.302403
v -0.046841 -0.051408 0.293133
v 0.043226 -0.051408 0.293133
v -0.046841 -0.060678 0.289294
v 0.043226 -0.060678 0.289294
v -0.046841 -0.069948 0.293133
v 0.043226 -0.069948 0.293133
v -0.046841 -0.073788 0.302403
v 0.043226 -0.073788 0.302403
v -0.046841 -0.069948 0.311672
v 0.043226 -0.069948 0.311672
v -0.046841 -0.060678 0.315511
v 0.043226 -0.060678 0.315511
v -0.046841 -0.051408 0.311672
v 0.043226 -0.051408 0.311672
v 0.045484 0.019842 -0.379796
v 0.045484 0.023681 -0.370526
v 0.045484 0.010573 -0.383635
v 0.045484 0.001304 -0.379796
v 0.045484 -0.002536 -0.370526
v 0.045484 0.001304 -0.361256
v 0.045484 0.010573 -0.357416
v 0.045484 0.019842 -0.361256
v 0.000094 0.023681 -0.370526
v 0.000094 0.019842 -0.379796
v 0.000094 0.010573 -0.383635
v 0.000094 0.001304 -0.379796
v 0.000094 -0.002536 -0.370526
v 0.000094 0.001304 -0.361256
v 0.000094 0.010573 -0.357416
v 0.000094 0.019842 -0.361256
v -0.045295 0.019842 -0.379796
v -0.045295 0.023681 -0.370526
v -0.045295 0.010573 -0.383635
v -0.045295 0.001304 -0.379796
v -0.045295 -0.002536 -0.370526
v -0.045295 0.001304 -0.361256
v -0.045295 0.010573 -0.357416
v -0.045295 0.019842 -0.361256
v 0.000094 -0.092262 0.149631
v 0.015224 -0.092262 0.149631
v 0.000094 -0.063055 0.142958
v 0.015224 -0.063055 0.142958
v 0.000094 -0.049570 0.131876
v 0.015224 -0.049570 0.131876
v -0.015037 -0.092262 0.149631
v -0.015037 -0.063055 0.142958
v -0.015037 -0.049570 0.131876
v 0.000094 -0.093376 0.142467
v 0.015224 -0.093376 0.142467
v 0.000094 -0.066832 0.136209
v 0.015224 -0.066832 0.136209
v 0.000094 -0.055093 0.127180
v 0.015224 -0.055093 0.127180
v -0.015037 -0.093376 0.142467
v -0.015037 -0.066832 0.136209
v -0.015037 -0.055093 0.127180
v 0.034414 -0.003595 -0.124159
v 0.034414 -0.003595 0.125126
v -0.024782 0.052330 -0.124159
v -0.024782 0.037991 -0.124159
v -0.024782 -0.003595 -0.124159
v 0.034414 0.037991 0.125126
v 0.028234 0.052330 -0.124159
v 0.028234 0.052330 0.125126
v 0.034414 0.037991 -0.124159
v 0.033630 0.024952 -0.111393
v 0.041660 0.024952 -0.111393
v 0.033630 0.015682 -0.115233
v 0.041660 0.015682 -0.115233
v 0.033630 0.006412 -0.111393
v 0.041660 0.006412 -0.111393
v 0.033630 0.006412 -0.092854
v 0.041660 0.006412 -0.092854
v 0.033630 0.015682 -0.089014
v 0.041660 0.015682 -0.089014
v 0.033630 0.024952 -0.092854
v 0.041660 0.024952 -0.092854
v 0.041660 0.031423 -0.102123
v 0.092598 0.031423 -0.102123
v 0.041660 0.026812 -0.113254
v 0.092598 0.026812 -0.113254
v 0.041660 0.015682 -0.117863
v 0.092598 0.015682 -0.117863
v 0.041660 0.004552 -0.113254
v 0.092598 0.004552 -0.113254
v 0.041660 -0.000059 -0.102123
v 0.092598 -0.000059 -0.102123
v 0.041660 0.004552 -0.090993
v 0.092598 0.004552 -0.090993
v 0.041660 0.015682 -0.086382
v 0.092598 0.015682 -0.086382
v 0.041660 0.026812 -0.090993
v 0.092598 0.026812 -0.090993
v 0.039701 0.017980 -0.264120
v 0.039701 0.025339 -0.264120
v 0.039701 0.025339 -0.268746
v 0.039701 0.017980 -0.268746
v 0.039701 0.016584 -0.266433
v 0.039701 0.021659 -0.264664
v 0.039701 0.017932 -0.266433
v 0.039701 0.018925 -0.267731
v 0.039701 0.024392 -0.267731
v 0.038251 0.017980 -0.264120
v 0.038251 0.021659 -0.263243
v 0.039701 0.021659 -0.263243
v 0.038251 0.025339 -0.264120
v 0.038251 0.026734 -0.266433
v 0.039701 0.026734 -0.266433
v 0.038251 0.025339 -0.268746
v 0.038251 0.021659 -0.269623
v 0.039701 0.021659 -0.269623
v 0.038251 0.017980 -0.268746
v 0.038251 0.016584 -0.266433
v 0.038251 0.024392 -0.265135
v 0.039701 0.024392 -0.265135
v 0.038251 0.021659 -0.264664
v 0.038251 0.018925 -0.265135
v 0.039701 0.018925 -0.265135
v 0.038251 0.017932 -0.266433
v 0.038251 0.018925 -0.267731
v 0.038251 0.021659 -0.268202
v 0.039701 0.021659 -0.268202
v 0.038251 0.024392 -0.267731
v 0.038251 0.025385 -0.266433
v 0.039701 0.025385 -0.266433
v 0.039701 0.002214 -0.265737
v 0.039701 0.012103 -0.265737
v 0.039701 0.012103 -0.267158
v 0.038251 0.002214 -0.265737
v 0.038251 0.012103 -0.265737
v 0.038251 0.012103 -0.267158
v 0.038251 0.002214 -0.267158
v 0.039701 0.002214 -0.267158
v -0.039512 0.017980 -0.264120
v -0.039512 0.025339 -0.264120
v -0.039512 0.025339 -0.268746
v -0.039512 0.017980 -0.268746
v -0.039512 0.016584 -0.266433
v -0.039512 0.021659 -0.264664
v -0.039512 0.017932 -0.266433
v -0.039512 0.018925 -0.267731
v -0.039512 0.024392 -0.267731
v -0.038062 0.017980 -0.264120
v -0.038062 0.021659 -0.263243
v -0.039512 0.021659 -0.263243
v -0.038062 0.025339 -0.264120
v -0.038062 0.026734 -0.266433
v -0.039512 0.026734 -0.266433
v -0.038062 0.025339 -0.268746
v -0.038062 0.021659 -0.269623
v -0.039512 0.021659 -0.269623
v -0.038062 0.017980 -0.268746
v -0.038062 0.016584 -0.266433
v -0.038062 0.024392 -0.265135
v -0.039512 0.024392 -0.265135
v -0.038062 0.021659 -0.264664
v -0.038062 0.018925 -0.265135
v -0.039512 0.018925 -0.265135
v -0.038062 0.017932 -0.266433
v -0.038062 0.018925 -0.267731
v -0.038062 0.021659 -0.268202
v -0.039512 0.021659 -0.268202
v -0.038062 0.024392 -0.267731
v -0.038062 0.025385 -0.266433
v -0.039512 0.025385 -0.266433
v -0.039512 0.002214 -0.265737
v -0.039512 0.012103 -0.265737
v -0.039512 0.012103 -0.267158
v -0.038062 0.002214 -0.265737
v -0.038062 0.012103 -0.265737
v -0.038062 0.012103 -0.267158
v -0.038062 0.002214 -0.267158
v -0.039512 0.002214 -0.267158
v -0.039367 0.001897 -0.259009
v -0.039367 0.008926 -0.192405
v -0.039367 0.019043 -0.194058
v -0.042559 0.004366 -0.257566
v -0.042559 0.009818 -0.194396
v 0.040255 0.012013 -0.260662
v 0.040255 0.001897 -0.259009
v 0.040255 0.004688 -0.195577
v 0.040255 0.008926 -0.192405
v 0.040255 0.019043 -0.194058
v 0.048750 0.008326 -0.252017
v 0.048750 0.007072 -0.251872
v -0.047863 0.008326 -0.252017
v 0.048750 0.006858 -0.256028
v 0.048750 0.005604 -0.255883
v 0.048750 0.007427 -0.247732
v 0.048750 0.006174 -0.247588
v -0.047863 0.006858 -0.256028
v -0.047863 0.007427 -0.247732
v -0.047863 0.006174 -0.247588
v 0.044724 0.014849 -0.200686
v -0.043835 0.014849 -0.200686
v 0.044724 0.012458 -0.199695
v -0.043835 0.012458 -0.199695
v 0.044724 0.010069 -0.200686
v -0.043835 0.010069 -0.200686
v 0.044724 0.009078 -0.203075
v 0.044724 0.010069 -0.205466
v -0.043835 0.012458 -0.206455
v -0.043835 0.014849 -0.205466
v 0.044724 0.015838 -0.203075
v -0.039367 0.022052 -0.198414
v -0.039367 0.012013 -0.260662
v -0.039367 0.004688 -0.195577
v -0.042559 0.019561 -0.198551
v -0.042559 0.007006 -0.196500
v -0.042559 0.010131 -0.258509
v -0.042559 0.017565 -0.195662
v 0.040255 0.022052 -0.198414
v -0.047863 0.007072 -0.251872
v 0.043448 0.019561 -0.198551
v 0.043448 0.007006 -0.196500
v 0.043448 0.010131 -0.258509
v 0.043448 0.017565 -0.195662
v 0.043448 0.004366 -0.257566
v 0.043448 0.009818 -0.194396
v -0.047863 0.005604 -0.255883
v -0.043835 0.009078 -0.203075
v -0.043835 0.010069 -0.205466
v 0.044724 0.012458 -0.206455
v 0.044724 0.014849 -0.205466
v -0.043835 0.015838 -0.203075
v 0.026654 -0.012611 -0.577389
v 0.031053 -0.005413 -0.577389
v 0.038251 -0.001015 -0.577389
v -0.026467 -0.012611 -0.577389
v -0.038062 -0.001015 -0.577389
v -0.030865 -0.005413 -0.577389
v -0.026467 -0.012611 -0.128297
v -0.038062 -0.012611 -0.121609
v -0.038062 -0.001015 -0.128297
v 0.026654 -0.012611 -0.128297
v 0.038251 -0.001015 -0.128297
v 0.038251 -0.012611 -0.121609
v -0.038062 0.037991 -0.471976
v -0.029465 0.053393 -0.471976
v 0.000094 0.070148 0.295232
v 0.043168 0.044830 0.295232
v 0.027891 0.064825 0.295232
v 0.000094 0.070148 0.129075
v 0.043168 0.044830 0.129075
v 0.027891 0.064825 0.129075
v -0.042979 0.044830 0.295232
v -0.027702 0.064825 0.295232
v -0.042979 0.044830 0.129075
v -0.027702 0.064825 0.129075
v 0.000094 0.070148 0.053506
v 0.027891 0.064825 0.053506
v -0.027702 0.064825 0.053506
v 0.000094 0.062766 0.295232
v 0.037407 0.040427 0.295232
v 0.023810 0.058225 0.295232
v 0.000094 0.062766 0.129075
v 0.037407 0.040427 0.129075
v 0.024695 0.057804 0.129075
v -0.037219 0.040427 0.295232
v -0.023622 0.058225 0.295232
v -0.037219 0.040427 0.129075
v -0.024506 0.057804 0.129075
v 0.000094 0.062766 0.053506
v 0.026528 0.057704 0.053506
v -0.026339 0.057704 0.053506
v 0.017110 0.065208 -0.031448
v 0.017110 0.065208 -0.059736
v 0.008084 0.087293 -0.031448
v 0.008084 0.087293 -0.059736
v 0.017110 0.109376 -0.038165
v 0.017110 0.102393 -0.031448
v 0.017110 0.102393 -0.059736
v 0.017110 0.109376 -0.053016
v 0.008084 0.109376 -0.053016
v 0.008084 0.102393 -0.059736
v 0.008084 0.102393 -0.031448
v 0.008084 0.109376 -0.038165
v 0.017110 0.065208 -0.547195
v 0.017110 0.065208 -0.569306
v 0.003242 0.086635 -0.552256
v 0.003242 0.098588 -0.552256
v 0.003242 0.086635 -0.564247
v 0.003242 0.098588 -0.564247
v 0.008084 0.087293 -0.547195
v 0.008084 0.087293 -0.569306
v 0.017110 0.109376 -0.554445
v 0.017110 0.102393 -0.547195
v 0.017110 0.102393 -0.569306
v 0.017110 0.109376 -0.562056
v 0.008084 0.109376 -0.562056
v 0.008084 0.102393 -0.569306
v 0.008084 0.102393 -0.547195
v 0.008084 0.109376 -0.554445
v -0.017271 0.065208 -0.031448
v -0.017271 0.065208 -0.059736
v -0.008245 0.087293 -0.031448
v -0.008245 0.087293 -0.059736
v -0.017271 0.109376 -0.038165
v -0.017271 0.102393 -0.031448
v -0.017271 0.102393 -0.059736
v -0.017271 0.109376 -0.053016
v -0.008245 0.109376 -0.053016
v -0.008245 0.102393 -0.059736
v -0.008245 0.102393 -0.031448
v -0.008245 0.109376 -0.038165
v -0.017271 0.065208 -0.547195
v -0.017271 0.065208 -0.569306
v -0.003403 0.086635 -0.552256
v -0.003403 0.098588 -0.552256
v -0.003403 0.086635 -0.564247
v -0.003403 0.098588 -0.564247
v -0.008245 0.087293 -0.547195
v -0.008245 0.087293 -0.569306
v -0.017271 0.109376 -0.554445
v -0.017271 0.102393 -0.547195
v -0.017271 0.102393 -0.569306
v -0.017271 0.109376 -0.562056
v -0.008245 0.109376 -0.562056
v -0.008245 0.102393 -0.569306
v -0.008245 0.102393 -0.547195
v -0.008245 0.109376 -0.554445
v 0.034414 0.029078 -0.067135
v 0.034414 0.022494 -0.073721
v 0.034414 0.011903 -0.073721
v 0.034414 0.005317 -0.067135
v 0.034414 0.005317 -0.004823
v 0.034414 0.011903 0.001762
v 0.034414 0.022494 0.001762
v 0.034414 0.029078 -0.004823
v 0.049967 0.024363 -0.577389
v 0.054311 -0.002423 -0.577389
v 0.054311 0.020407 -0.577389
v 0.049966 0.024363 -0.466031
v 0.054311 -0.002423 -0.466031
v 0.054311 0.020407 -0.466031
v 0.045621 -0.002423 -0.577389
v 0.045621 0.020407 -0.577389
v 0.049967 -0.006377 -0.577389
v 0.040387 -0.002423 -0.577389
v 0.040387 0.020407 -0.577389
v 0.045621 -0.002423 -0.466031
v 0.045621 0.020407 -0.466031
v 0.049966 -0.006377 -0.466031
v 0.040387 -0.002423 -0.466031
v 0.040387 0.020407 -0.466031
v 0.045621 0.008993 -0.577389
v 0.040387 0.008993 -0.466031
v 0.040387 0.008993 -0.577389
v 0.045621 0.008993 -0.466031
v 0.054311 0.008993 -0.466031
v 0.054311 0.008993 -0.577389
v 0.049966 0.008993 -0.466031
v 0.049967 0.008993 -0.577389
g Body
usemtl M_PCL_Flat_Black
f 595 581 613
f 587 589 613
f 590 588 614
f 581 583 613
f 582 596 614
f 589 591 613
f 584 582 614
f 592 590 614
f 583 585 613
f 591 593 613
f 586 584 614
f 594 592 614
f 585 587 613
f 593 595 613
f 588 586 614
f 596 594 614
f 764 748 749 765
f 839 849 850 840
f 840 834 843 837
f 844 853 843 834
f 840 850 844 834
f 838 839 836 835
f 836 846 845 835
f 839 840 837 836
f 838 848 849 839
f 842 838 835 841
f 837 847 846 836
f 842 852 848 838
f 835 845 851 841
f 850 847 853 844
f 848 845 846 849
f 849 846 847 850
f 852 851 845 848
f 974 975 977 976
f 976 977 979 978
f 978 979 981 980
f 980 981 983 982
f 982 983 985 984
f 984 985 987 986
f 977 975 989 987 985 983 981 979
f 986 987 989 988
f 988 989 975 974
f 974 976 978 980 982 984 986 988
f 998 991 990 999
f 999 990 992 1000
f 1000 992 993 1001
f 1001 993 994 1002
f 1002 994 995 1003
f 1003 995 996 1004
f 1004 996 997 1005
f 1005 997 991 998
f 990 991 997 996 995 994 993 992
f 998 999 1006 1007
f 999 1000 1008 1006
f 1000 1001 1009 1008
f 1001 1002 1010 1009
f 1002 1003 1011 1010
f 1003 1004 1012 1011
f 1004 1005 1013 1012
f 1005 998 1007 1013
f 1006 1008 1009 1010 1011 1012 1013 1007
f 1014 1015 1017 1016
f 1016 1017 1019 1018
f 1014 1016 1021 1020
f 1016 1018 1022 1021
f 1023 1025 1026 1024
f 1025 1027 1028 1026
f 1023 1029 1030 1025
f 1025 1030 1031 1027
f 1017 1015 1024 1026
f 1015 1014 1023 1024
f 1019 1017 1026 1028
f 1020 1021 1030 1029
f 1014 1020 1029 1023
f 1021 1022 1031 1030
f 1298 1297 1304 1303 1302 1301 1300 1299
f 1053 1054 1056 1055
f 1055 1056 1058 1057
f 1057 1058 1060 1059
f 1059 1060 1062 1061
f 1061 1062 1064 1063
f 1063 1064 1066 1065
f 1056 1054 1068 1066 1064 1062 1060 1058
f 1065 1066 1068 1067
f 1067 1068 1054 1053
f 1053 1055 1057 1059 1061 1063 1065 1067
f 843 853 847 837
f 1172 1171 1169 1170
f 1174 1173 1171 1172
f 1200 1178 1177 1197 1196 1174 1172 1170
f 1170 1169 1179 1200
f 1199 1179 1169 1171 1173 1175 1176 1198
f 1196 1175 1173 1174
f 1197 1176 1175 1196
f 1177 1198 1176 1197
f 1178 1199 1198 1177
f 1200 1179 1199 1178
g Body
usemtl M_PCL_Flat_Black_Lighter
f 553 561 533 525
f 536 564 555 527
f 527 525 533 536
f 534 562 553 525
f 525 527 535 534
f 555 563 535 527
f 564 536 533 561
f 555 564 561 553
f 553 562 563 555
f 766 772 777 771
f 769 775 774 768
f 771 777 775 769
f 768 774 776 770
f 770 776 773 767
f 772 773 776 774 775 777
f 766 771 769 768 770 767
f 766 781 785 772
f 779 778 782 783
f 781 779 783 785
f 778 780 784 782
f 780 767 773 784
f 772 785 783 782 784 773
f 766 767 780 778 779 781
f 805 806 804 814
f 805 814 817 810
f 804 806 811 809
f 806 803 808 811
f 802 803 806 805
f 810 817 809 811
f 802 805 810 807
f 804 809 816 813
f 807 810 811 808
f 813 816 815 812
f 812 815 817 814
f 814 804 813 812
f 817 815 816 809
f 889 886 879 878
f 888 889 893 900 896 897
f 878 879 881 880
f 900 893 890 899
f 881 891 892 880
f 883 895 896 882
f 894 899 890 887
f 889 878 880 892
f 886 891 881 879
f 882 884 885 883
f 885 884 901 898
f 896 901 884 882
f 898 895 883 885
f 890 891 886 887
f 892 893 889
f 898 899 894 895
f 900 901 896
f 886 889 888 887
f 892 891 890 893
f 894 897 896 895
f 900 899 898 901
f 914 904 908 915
f 916 902 906 917
f 910 911 904 905
f 913 912 909 908
f 912 910 905 909
f 911 913 908 904
f 903 914 915 907
f 905 916 917 909
f 926 927 920 918
f 928 929 906 902
f 922 919 918 923
f 925 920 921 924
f 924 921 919 922
f 923 918 920 925
f 903 907 927 926
f 919 921 929 928
f 942 943 936 932
f 944 945 934 930
f 938 933 932 939
f 941 936 937 940
f 940 937 933 938
f 939 932 936 941
f 931 935 943 942
f 933 937 945 944
f 954 946 948 955
f 956 930 934 957
f 950 951 946 947
f 953 952 949 948
f 952 950 947 949
f 951 953 948 946
f 931 954 955 935
f 947 956 957 949
f 904 914 942 932
f 911 910 938 939
f 902 916 944 930
f 915 908 936 943
f 912 913 941 940
f 917 906 934 945
f 905 904 932 933
f 908 909 937 936
f 910 912 940 938
f 913 911 939 941
f 914 903 931 942
f 907 915 943 935
f 916 905 933 944
f 909 917 945 937
f 926 918 946 954
f 922 923 951 950
f 928 902 930 956
f 920 927 955 948
f 925 924 952 953
f 906 929 957 934
f 918 919 947 946
f 921 920 948 949
f 924 922 950 952
f 923 925 953 951
f 903 926 954 931
f 927 907 935 955
f 919 928 956 947
f 929 921 949 957
f 968 965 964 967
f 965 958 966 964
f 973 972 969 970
f 969 972 967 964
f 971 969 964 966
f 970 961 958 965
f 973 970 965 968
f 970 969 971 961
f 971 966 959 962
f 962 959 960 963
f 897 894 887 888
f 1216 1219 1220 1217
f 1217 1220 1218 1215
f 1221 1222 1224 1223
f 1222 1215 1218 1224
f 1224 1218 1225 1227
f 1218 1220 1226 1225
f 1229 1230 1233 1232
f 1230 1228 1231 1233
f 1234 1236 1237 1235
f 1235 1237 1231 1228
f 1237 1240 1238 1231
f 1231 1238 1239 1233
f 1217 1215 1228 1230
f 1216 1217 1230 1229
f 1220 1219 1232 1233
f 1219 1216 1229 1232
f 1215 1222 1235 1228
f 1222 1221 1234 1235
f 1223 1224 1237 1236
f 1221 1223 1236 1234
f 1225 1226 1239 1238
f 1227 1225 1238 1240
f 1224 1227 1240 1237
f 1226 1220 1233 1239
f 1251 1252 1249 1250 1244 1243
f 1244 1250 1247 1242
f 1241 1246 1251 1243
f 1242 1247 1248 1245 1246 1241
f 1271 1243 1244 1272
f 1269 1241 1243 1271
f 1272 1244 1242 1270
f 1249 1248 1247 1250
f 1245 1252 1251 1246
f 1248 1249 1252 1245
f 1267 1268 1265 1266 1260 1259
f 1260 1266 1263 1254
f 1253 1262 1267 1259
f 1254 1263 1264 1261 1262 1253
f 1287 1259 1260 1288
f 1270 1242 1241 1269
f 1257 1258 1256 1255
f 1283 1255 1256 1284
f 1257 1285 1286 1258
f 1281 1253 1259 1287
f 1288 1260 1254 1282
f 1286 1284 1256 1258
f 1265 1264 1263 1266
f 1261 1268 1267 1262
f 1264 1265 1268 1261
f 1279 1271 1272 1278 1277 1280
f 1272 1270 1275 1278
f 1269 1271 1279 1274
f 1270 1269 1274 1273 1276 1275
f 1277 1278 1275 1276
f 1273 1274 1279 1280
f 1276 1273 1280 1277
f 1295 1287 1288 1294 1293 1296
f 1288 1282 1291 1294
f 1281 1287 1295 1290
f 1282 1281 1290 1289 1292 1291
f 1285 1283 1284 1286
f 1293 1294 1291 1292
f 1289 1290 1295 1296
f 1292 1289 1296 1293
f 1282 1254 1253 1281
f 963 960 958 961
f 961 971 962 963
f 958 960 959 966
f 1323 1321 1311 1314
f 1321 1328 1313 1311
f 1322 1319 1316 1324
f 1316 1319 1314 1311
f 1318 1316 1311 1313
f 1317 1308 1305 1312
f 1320 1317 1312 1315
f 1324 1316 1318 1327
f 1318 1313 1306 1309
f 1325 1326 1307 1310
f 1310 1307 1305 1308
f 1327 1318 1309 1325
f 1328 1326 1306 1313
f 1305 1307 1326 1328
f 1308 1327 1325 1310
f 1309 1306 1326 1325
f 1317 1324 1327 1308
f 1320 1322 1324 1317
f 1312 1305 1328 1321
f 1315 1312 1321 1323
g Body
usemtl M_PCL_Flat_Grey_Darker
f 1 138 137 17
f 17 137 139 33
f 33 139 140 49
f 49 140 141 65
f 65 141 142 81
f 81 142 143 97
f 97 143 144 113
f 113 144 138 1
f 2 1 17 18
f 18 17 33 34
f 34 33 49 50
f 50 49 65 66
f 66 65 81 82
f 82 81 97 98
f 98 97 113 114
f 114 113 1 2
f 3 2 18 19
f 19 18 34 35
f 35 34 50 51
f 51 50 66 67
f 67 66 82 83
f 83 82 98 99
f 99 98 114 115
f 115 114 2 3
f 4 3 19 20
f 20 19 35 36
f 36 35 51 52
f 52 51 67 68
f 68 67 83 84
f 84 83 99 100
f 100 99 115 116
f 116 115 3 4
f 5 4 20 21
f 21 20 36 37
f 37 36 52 53
f 53 52 68 69
f 69 68 84 85
f 85 84 100 101
f 101 100 116 117
f 117 116 4 5
f 6 5 21 22
f 22 21 37 38
f 38 37 53 54
f 54 53 69 70
f 70 69 85 86
f 86 85 101 102
f 102 101 117 118
f 118 117 5 6
f 7 6 22 23
f 23 22 38 39
f 39 38 54 55
f 55 54 70 71
f 71 70 86 87
f 87 86 102 103
f 103 102 118 119
f 119 118 6 7
f 8 7 23 24
f 24 23 39 40
f 40 39 55 56
f 56 55 71 72
f 72 71 87 88
f 88 87 103 104
f 104 103 119 120
f 120 119 7 8
f 9 8 24 25
f 25 24 40 41
f 41 40 56 57
f 57 56 72 73
f 73 72 88 89
f 89 88 104 105
f 105 104 120 121
f 121 120 8 9
f 10 9 25 26
f 26 25 41 42
f 42 41 57 58
f 58 57 73 74
f 74 73 89 90
f 90 89 105 106
f 106 105 121 122
f 122 121 9 10
f 10 26 42 58 74 90 106 122
f 136 135 159 160
f 130 129 137 138
f 129 131 139 137
f 131 132 140 139
f 132 133 141 140
f 133 134 142 141
f 134 135 143 142
f 135 136 144 143
f 136 130 138 144
f 134 133 157 158
f 132 131 155 156
f 129 130 154 153
f 130 136 160 154
f 135 134 158 159
f 133 132 156 157
f 131 129 153 155
f 161 298 297 177
f 177 297 299 193
f 193 299 300 209
f 209 300 301 225
f 225 301 302 241
f 241 302 303 257
f 257 303 304 273
f 273 304 298 161
f 162 161 177 178
f 178 177 193 194
f 194 193 209 210
f 210 209 225 226
f 226 225 241 242
f 242 241 257 258
f 258 257 273 274
f 274 273 161 162
f 163 162 178 179
f 179 178 194 195
f 195 194 210 211
f 211 210 226 227
f 227 226 242 243
f 243 242 258 259
f 259 258 274 275
f 275 274 162 163
f 164 163 179 180
f 180 179 195 196
f 196 195 211 212
f 212 211 227 228
f 228 227 243 244
f 244 243 259 260
f 260 259 275 276
f 276 275 163 164
f 165 164 180 181
f 181 180 196 197
f 197 196 212 213
f 213 212 228 229
f 229 228 244 245
f 245 244 260 261
f 261 260 276 277
f 277 276 164 165
f 166 165 181 182
f 182 181 197 198
f 198 197 213 214
f 214 213 229 230
f 230 229 245 246
f 246 245 261 262
f 262 261 277 278
f 278 277 165 166
f 167 166 182 183
f 183 182 198 199
f 199 198 214 215
f 215 214 230 231
f 231 230 246 247
f 247 246 262 263
f 263 262 278 279
f 279 278 166 167
f 168 167 183 184
f 184 183 199 200
f 200 199 215 216
f 216 215 231 232
f 232 231 247 248
f 248 247 263 264
f 264 263 279 280
f 280 279 167 168
f 169 168 184 185
f 185 184 200 201
f 201 200 216 217
f 217 216 232 233
f 233 232 248 249
f 249 248 264 265
f 265 264 280 281
f 281 280 168 169
f 170 169 185 186
f 186 185 201 202
f 202 201 217 218
f 218 217 233 234
f 234 233 249 250
f 250 249 265 266
f 266 265 281 282
f 282 281 169 170
f 170 186 202 218 234 250 266 282
f 296 295 319 320
f 290 289 297 298
f 289 291 299 297
f 291 292 300 299
f 292 293 301 300
f 293 294 302 301
f 294 295 303 302
f 295 296 304 303
f 296 290 298 304
f 294 293 317 318
f 292 291 315 316
f 289 290 314 313
f 290 296 320 314
f 295 294 318 319
f 293 292 316 317
f 291 289 313 315
f 321 458 457 337
f 337 457 459 353
f 353 459 460 369
f 369 460 461 385
f 385 461 462 401
f 401 462 463 417
f 417 463 464 433
f 433 464 458 321
f 322 321 337 338
f 338 337 353 354
f 354 353 369 370
f 370 369 385 386
f 386 385 401 402
f 402 401 417 418
f 418 417 433 434
f 434 433 321 322
f 323 322 338 339
f 339 338 354 355
f 355 354 370 371
f 371 370 386 387
f 387 386 402 403
f 403 402 418 419
f 419 418 434 435
f 435 434 322 323
f 324 323 339 340
f 340 339 355 356
f 356 355 371 372
f 372 371 387 388
f 388 387 403 404
f 404 403 419 420
f 420 419 435 436
f 436 435 323 324
f 325 324 340 341
f 341 340 356 357
f 357 356 372 373
f 373 372 388 389
f 389 388 404 405
f 405 404 420 421
f 421 420 436 437
f 437 436 324 325
f 326 325 341 342
f 342 341 357 358
f 358 357 373 374
f 374 373 389 390
f 390 389 405 406
f 406 405 421 422
f 422 421 437 438
f 438 437 325 326
f 327 326 342 343
f 343 342 358 359
f 359 358 374 375
f 375 374 390 391
f 391 390 406 407
f 407 406 422 423
f 423 422 438 439
f 439 438 326 327
f 328 327 343 344
f 344 343 359 360
f 360 359 375 376
f 376 375 391 392
f 392 391 407 408
f 408 407 423 424
f 424 423 439 440
f 440 439 327 328
f 329 328 344 345
f 345 344 360 361
f 361 360 376 377
f 377 376 392 393
f 393 392 408 409
f 409 408 424 425
f 425 424 440 441
f 441 440 328 329
f 330 329 345 346
f 346 345 361 362
f 362 361 377 378
f 378 377 393 394
f 394 393 409 410
f 410 409 425 426
f 426 425 441 442
f 442 441 329 330
f 330 346 362 378 394 410 426 442
f 456 455 479 480
f 450 449 457 458
f 449 451 459 457
f 451 452 460 459
f 452 453 461 460
f 453 454 462 461
f 454 455 463 462
f 455 456 464 463
f 456 450 458 464
f 454 453 477 478
f 452 451 475 476
f 449 450 474 473
f 450 456 480 474
f 455 454 478 479
f 453 452 476 477
f 451 449 473 475
f 499 522 519 498
f 495 518 516 493
f 498 519 513 492
f 494 483 482 485
f 496 494 485 487
f 491 489 501 500 497
f 493 516 505 484
f 488 509 511 490
f 489 491 496 487
f 490 511 523 502
f 486 481 504 507
f 486 507 509 488
f 492 513 518 495
f 515 508 503 506
f 517 510 508 515
f 514 520 521 524 512
f 512 510 517 514
f 492 495 496 491
f 490 502 501 489
f 488 490 489 487
f 495 493 494 496
f 483 494 493 484
f 486 488 487 485
f 498 492 491 497
f 481 486 485 482
f 499 498 497 500
f 514 517 518 513
f 512 524 523 511
f 510 512 511 509
f 517 515 516 518
f 505 516 515 506
f 508 510 509 507
f 520 514 513 519
f 503 508 507 504
f 521 520 519 522
f 529 557 556 528
f 535 529 530 534
f 556 559 531 528
f 535 563 557 529
f 554 558 530 526
f 528 526 530 529
f 559 560 532 531
f 532 560 554 526
f 526 528 531 532
f 503 504 481 482 483 484 505 506
f 538 539 540 537
f 541 544 548 545
f 537 540 544 541
f 538 537 541 542
f 539 538 542 543
f 540 539 543 544
f 547 546 550 551
f 542 541 545 546
f 543 542 546 547
f 544 543 547 548
f 550 549 552 551
f 548 547 551 552
f 545 548 552 549
f 546 545 549 550
f 563 562 558 557
f 556 557 558 554
f 554 560 559 556
f 566 565 568 567
f 569 573 576 572
f 565 569 572 568
f 566 570 569 565
f 567 571 570 566
f 568 572 571 567
f 575 579 578 574
f 570 574 573 569
f 571 575 574 570
f 572 576 575 571
f 578 579 580 577
f 576 580 579 575
f 573 577 580 576
f 574 578 577 573
f 597 600 599 598
f 598 599 602 601
f 601 602 604 603
f 603 604 606 605
f 605 606 608 607
f 607 608 610 609
f 609 610 612 611
f 611 612 600 597
f 583 581 597 598
f 582 584 599 600
f 585 583 598 601
f 584 586 602 599
f 587 585 601 603
f 586 588 604 602
f 589 587 603 605
f 588 590 606 604
f 591 589 605 607
f 590 592 608 606
f 593 591 607 609
f 592 594 610 608
f 595 593 609 611
f 594 596 612 610
f 581 595 611 597
f 596 582 600 612
f 621 622 638 637
f 619 620 636 635
f 617 618 634 633
f 615 616 632 631
f 622 615 631 638
f 620 621 637 636
f 618 619 635 634
f 616 617 633 632
f 611 622 621 609
f 609 621 620 607
f 607 620 619 605
f 605 619 618 603
f 603 618 617 601
f 601 617 616 598
f 598 616 615 597
f 597 615 622 611
f 624 623 631 632
f 625 624 632 633
f 626 625 633 634
f 627 626 634 635
f 628 627 635 636
f 629 628 636 637
f 630 629 637 638
f 623 630 638 631
f 595 593 629 630
f 593 591 628 629
f 591 589 627 628
f 589 587 626 627
f 587 585 625 626
f 585 583 624 625
f 583 581 623 624
f 581 595 630 623
f 562 534 530 558
f 789 790 788 798
f 789 798 801 794
f 788 790 795 793
f 790 787 792 795
f 786 787 790 789
f 794 801 793 795
f 786 789 794 791
f 788 793 800 797
f 791 794 795 792
f 797 800 799 796
f 796 799 801 798
f 798 788 797 796
f 801 799 800 793
f 821 822 820 830
f 821 830 833 826
f 820 822 827 825
f 822 819 824 827
f 818 819 822 821
f 826 833 825 827
f 818 821 826 823
f 820 825 832 829
f 823 826 827 824
f 829 832 831 828
f 828 831 833 830
f 830 820 829 828
f 833 831 832 825
f 1154 1181 1180 1187
f 1158 1151 1150 1157
f 1161 1167 1164 1159
f 1167 1168 1165 1164
f 1159 1160 1163 1162
f 1164 1165 1160 1159
f 1166 1161 1159 1162
f 1183 1180 1181 1185
f 1184 1182 1150 1153
f 1186 1151 1180 1183
f 1185 1181 1149 1152
f 1152 1149 1182 1184
f 1153 1150 1151 1186
f 1187 1180 1151 1158
f 1153 1186 1183 1184
f 1184 1183 1185 1152
f 1161 1188 1168 1167
f 1188 1161 1166 1195
f 1189 1191 1154 1187
f 1190 1194 1157 1156
f 1192 1189 1187 1158
f 1191 1193 1155 1154
f 1193 1190 1156 1155
f 1194 1192 1158 1157
f 1157 1150 1182 1156
f 1156 1182 1149 1155
f 1155 1149 1181 1154
f 1194 1190 1189 1192
f 1190 1193 1191 1189
f 1188 1195 1163 1160
f 1195 1166 1162 1163
f 1168 1188 1160 1165
g Body
usemtl M_PCL_Flat_Grey_Dark
f 145 146 152 151 150 149 148 147
f 146 145 153 154
f 145 147 155 153
f 147 148 156 155
f 148 149 157 156
f 149 150 158 157
f 150 151 159 158
f 151 152 160 159
f 152 146 154 160
f 305 306 312 311 310 309 308 307
f 306 305 313 314
f 305 307 315 313
f 307 308 316 315
f 308 309 317 316
f 309 310 318 317
f 310 311 319 318
f 311 312 320 319
f 312 306 314 320
f 465 466 472 471 470 469 468 467
f 466 465 473 474
f 465 467 475 473
f 467 468 476 475
f 468 469 477 476
f 469 470 478 477
f 470 471 479 478
f 471 472 480 479
f 472 466 474 480
f 867 869 857 855
f 642 639 725
f 645 667 678 658
f 656 657 725 1212
f 680 679 664 671
f 666 1205 1213
f 645 658 726 653
f 678 680 671 665
f 648 647 727 644 646
f 647 650 726 727
f 650 652 651 653 726
f 655 654 644 653
f 690 712 706 684
f 657 656 730 731
f 653 651 655
f 660 662 733 729
f 663 664 679 1209 1208
f 1204 1207 1209 1205
f 675 1214 667
f 667 1214 680 678
f 663 1208 1207 1210 1212 725 639 640
f 676 666 1213 668
f 669 679 680 672
f 670 1213 679 669
f 668 1213 1214 673
f 674 1214 1213 670
f 673 1214 675 677
f 677 675 666 676
f 672 680 1214 674
f 658 643 649 726
f 646 644 654
f 1202 1201 1204 1206 703 681
f 658 678 665 641 643
f 681 682 698 699 695 683
f 687 709 708 686
f 717 721 720 704 703 705
f 700 695 699 701
f 686 708 712 690
f 667 645 684 706
f 644 1203 1202 681 683
f 694 700 690 684
f 686 701 696 687
f 690 700 701 686
f 697 683 695 685
f 688 698 696 691
f 689 699 698 688
f 685 695 700 692
f 693 701 699 689
f 692 700 694 702
f 702 694 683 697
f 691 696 701 693
f 681 703 704 682
f 722 723 721 717
f 716 706 712 722
f 708 709 718 723
f 712 708 723 722
f 719 707 717 705
f 710 713 718 720
f 711 710 720 721
f 707 714 722 717
f 715 711 721 723
f 714 724 716 722
f 724 719 705 716
f 713 715 723 718
f 645 653 694 684
f 654 655 702 697
f 646 654 697 685
f 650 647 688 691
f 647 648 689 688
f 651 646 685 692
f 648 652 693 689
f 655 651 692 702
f 653 644 683 694
f 652 650 691 693
f 675 667 706 716
f 677 676 719 724
f 676 668 707 719
f 669 672 713 710
f 670 669 710 711
f 668 673 714 707
f 674 670 711 715
f 673 677 724 714
f 666 675 716 705
f 672 674 715 713
f 698 682 704 720 718 709 687 696
f 660 656 1211 727
f 661 662 726 649
f 662 660 727 726
f 659 661 649 642
f 657 659 642 725
f 733 732 728 729
f 729 728 731 730
f 659 657 731 728
f 661 659 728 732
f 662 661 732 733
f 656 660 729 730
f 750 754 738 734
f 737 735 734 738
f 746 762 752 736
f 758 759 754 753
f 736 739 747 746
f 759 757 741 743
f 739 740 741 747
f 757 763 747 741
f 754 759 743 738
f 740 742 743 741
f 761 765 749 745
f 744 745 749 748
f 747 763 761 745
f 745 744 746 747
f 748 764 760 744
f 760 762 746 744
f 753 754 750 751
f 752 762 763 755
f 755 763 757 756
f 756 757 759 758
f 760 764 765 761
f 761 763 762 760
f 854 866 868 856
f 858 870 867 855
f 856 855 857 854
f 868 871 859 856
f 855 856 859 858
f 869 873 861 857
f 860 872 866 854
f 854 857 861 860
f 873 875 863 861
f 862 874 872 860
f 860 861 863 862
f 875 877 865 863
f 864 876 874 862
f 862 863 865 864
f 868 866 869 867
f 867 870 871 868
f 866 872 873 869
f 872 874 875 873
f 874 876 877 875
f 1046 1048 1047 1045
f 1041 1042 1044 1043
f 1043 1044 1046 1045
f 1047 1048 1050 1049
f 1042 1052 1050 1048 1046 1044
f 1049 1050 1052 1051
f 1051 1052 1042 1041
f 1206 1205 666 705 703
f 1204 1201 1210 1207
f 737 738 743 742
f 1203 1201 1202
f 1204 1205 1206
f 1203 1211 1210 1201
f 727 1211 1203
f 646 651 652 648
f 1212 1210 1211 656
f 644 727 1203
f 1213 1205 679
f 1208 1209 1207
f 1205 1209 679
g Body
usemtl M_PCL_Flat_Grey_Light
f 1040 1032 1036 1035
f 1038 1040 1035 1034
f 1037 1040 1038 1039
f 1040 1298 1299 1032
f 1033 1302 1303 1037
f 1032 1300 1301 1033
f 1297 1298 1040
f 1032 1299 1300
f 1301 1302 1033
f 1303 1304 1037
f 1037 1304 1297 1040
g Body
usemtl M_PCL_Flat_White
f 1090 1070 1080 1074
f 1100 1083 1070 1090
f 1074 1080 1069 1093
f 1071 1083 1100 1077
f 1075 1093 1069 1073
f 1086 1071 1077 1097
f 1086 1097 1076 1072
f 1069 1080 1079 1078
f 1080 1070 1081 1079
f 1070 1083 1082 1081
f 1083 1071 1084 1082
f 1071 1086 1085 1084
f 1086 1072 1087 1085
f 1072 1073 1088 1087
f 1073 1069 1078 1088
f 1090 1074 1091 1089
f 1074 1093 1092 1091
f 1093 1075 1094 1092
f 1075 1076 1095 1094
f 1076 1097 1096 1095
f 1097 1077 1098 1096
f 1077 1100 1099 1098
f 1100 1090 1089 1099
f 1072 1076 1075 1073
f 1101 1102 1105 1104
f 1102 1103 1106 1105
f 1103 1108 1107 1106
f 1108 1101 1104 1107
f 1103 1102 1101 1108
f 1130 1114 1120 1110
f 1140 1130 1110 1123
f 1114 1133 1109 1120
f 1111 1117 1140 1123
f 1115 1113 1109 1133
f 1126 1137 1117 1111
f 1126 1112 1116 1137
f 1109 1118 1119 1120
f 1120 1119 1121 1110
f 1110 1121 1122 1123
f 1123 1122 1124 1111
f 1111 1124 1125 1126
f 1126 1125 1127 1112
f 1112 1127 1128 1113
f 1113 1128 1118 1109
f 1130 1129 1131 1114
f 1114 1131 1132 1133
f 1133 1132 1134 1115
f 1115 1134 1135 1116
f 1116 1135 1136 1137
f 1137 1136 1138 1117
f 1117 1138 1139 1140
f 1140 1139 1129 1130
f 1112 1113 1115 1116
f 1141 1144 1145 1142
f 1142 1145 1146 1143
f 1143 1146 1147 1148
f 1148 1147 1144 1141
f 1143 1148 1141 1142
g Body
usemtl M_PCL_Flat_Brown.Bole
f 29 45 61 77 93 109 125 13
f 12 28 27 11
f 28 44 43 27
f 44 60 59 43
f 60 76 75 59
f 76 92 91 75
f 92 108 107 91
f 108 124 123 107
f 124 12 11 123
f 11 27 32 16
f 27 43 48 32
f 43 59 64 48
f 59 75 80 64
f 75 91 96 80
f 91 107 112 96
f 107 123 128 112
f 123 11 16 128
f 28 12 124 108 92 76 60 44
f 14 30 29 13
f 30 46 45 29
f 46 62 61 45
f 62 78 77 61
f 78 94 93 77
f 94 110 109 93
f 110 126 125 109
f 126 14 13 125
f 15 31 30 14
f 31 47 46 30
f 47 63 62 46
f 63 79 78 62
f 79 95 94 78
f 95 111 110 94
f 111 127 126 110
f 127 15 14 126
f 16 32 31 15
f 32 48 47 31
f 48 64 63 47
f 64 80 79 63
f 80 96 95 79
f 96 112 111 95
f 112 128 127 111
f 128 16 15 127
f 189 205 221 237 253 269 285 173
f 172 188 187 171
f 188 204 203 187
f 204 220 219 203
f 220 236 235 219
f 236 252 251 235
f 252 268 267 251
f 268 284 283 267
f 284 172 171 283
f 171 187 192 176
f 187 203 208 192
f 203 219 224 208
f 219 235 240 224
f 235 251 256 240
f 251 267 272 256
f 267 283 288 272
f 283 171 176 288
f 188 172 284 268 252 236 220 204
f 174 190 189 173
f 190 206 205 189
f 206 222 221 205
f 222 238 237 221
f 238 254 253 237
f 254 270 269 253
f 270 286 285 269
f 286 174 173 285
f 175 191 190 174
f 191 207 206 190
f 207 223 222 206
f 223 239 238 222
f 239 255 254 238
f 255 271 270 254
f 271 287 286 270
f 287 175 174 286
f 176 192 191 175
f 192 208 207 191
f 208 224 223 207
f 224 240 239 223
f 240 256 255 239
f 256 272 271 255
f 272 288 287 271
f 288 176 175 287
f 349 365 381 397 413 429 445 333
f 332 348 347 331
f 348 364 363 347
f 364 380 379 363
f 380 396 395 379
f 396 412 411 395
f 412 428 427 411
f 428 444 443 427
f 444 332 331 443
f 331 347 352 336
f 347 363 368 352
f 363 379 384 368
f 379 395 400 384
f 395 411 416 400
f 411 427 432 416
f 427 443 448 432
f 443 331 336 448
f 348 332 444 428 412 396 380 364
f 334 350 349 333
f 350 366 365 349
f 366 382 381 365
f 382 398 397 381
f 398 414 413 397
f 414 430 429 413
f 430 446 445 429
f 446 334 333 445
f 335 351 350 334
f 351 367 366 350
f 367 383 382 366
f 383 399 398 382
f 399 415 414 398
f 415 431 430 414
f 431 447 446 430
f 447 335 334 446
f 336 352 351 335
f 352 368 367 351
f 368 384 383 367
f 384 400 399 383
f 400 416 415 399
f 416 432 431 415
f 432 448 447 431
f 448 336 335 447
