# Adapted CC0 source; see SOURCES.json
mtllib m16a4.mtl
v -0.011762 0.095566 -0.143844
v 0.011762 0.095566 -0.143844
v 0.011762 0.106144 -0.010358
v -0.011762 0.106144 -0.010358
v -0.011762 0.114798 -0.010358
v -0.011762 0.104221 -0.143844
v 0.011762 0.104221 -0.143844
v 0.011762 0.114798 -0.010358
v 0.003920 0.095566 -0.143844
v -0.003920 0.095566 -0.143844
v 0.003920 0.106144 -0.010358
v -0.003920 0.106144 -0.010358
v 0.003920 0.098415 -0.143844
v -0.003920 0.098415 -0.143844
v 0.003920 0.108992 -0.010358
v -0.003920 0.108992 -0.010358
v 0.000018 -0.047093 -0.056947
v 0.003267 -0.046948 -0.057346
v 0.004423 -0.046972 -0.056987
v 0.004913 -0.048353 -0.055926
v 0.000018 -0.048386 -0.055901
v -0.004877 -0.048353 -0.055926
v -0.004387 -0.046972 -0.056987
v -0.003230 -0.046948 -0.057346
v 0.011628 -0.022462 -0.057313
v 0.000018 -0.022436 -0.049009
v 0.012118 -0.022437 -0.049208
v 0.003267 -0.022565 -0.057163
v 0.000018 -0.022565 -0.057163
v 0.003267 -0.028376 -0.053655
v 0.000018 -0.028376 -0.053655
v 0.007578 -0.028272 -0.053774
v 0.000018 -0.028245 -0.047239
v 0.008068 -0.028248 -0.047397
v 0.005031 -0.034218 -0.046759
v 0.004744 -0.033191 -0.052109
v 0.000018 -0.033643 -0.047047
v 0.003267 -0.033788 -0.052837
v 0.000018 -0.033774 -0.052578
v 0.004683 -0.038547 -0.052792
v 0.003267 -0.038944 -0.053400
v 0.000018 -0.040669 -0.048808
v 0.004039 -0.040818 -0.049514
v 0.000018 -0.038967 -0.053617
v 0.004506 -0.044994 -0.052119
v 0.004017 -0.043204 -0.054604
v 0.003267 -0.043273 -0.055002
v 0.000018 -0.045038 -0.052057
v 0.000018 -0.043336 -0.054962
v -0.011592 -0.022462 -0.057313
v -0.012081 -0.022437 -0.049208
v -0.003230 -0.022565 -0.057163
v -0.003230 -0.028376 -0.053655
v -0.007542 -0.028272 -0.053774
v -0.008031 -0.028248 -0.047397
v -0.004708 -0.033191 -0.052109
v -0.004995 -0.034218 -0.046759
v -0.003230 -0.033788 -0.052837
v -0.003230 -0.038944 -0.053400
v -0.004647 -0.038547 -0.052792
v -0.004002 -0.040818 -0.049514
v -0.003981 -0.043204 -0.054604
v -0.004470 -0.044994 -0.052119
v -0.003230 -0.043273 -0.055002
v -0.011762 -0.001717 0.024779
v -0.011762 0.049141 0.031858
v -0.011762 -0.014496 -0.159340
v -0.011762 0.064113 -0.173846
v 0.011762 -0.001717 0.024779
v 0.011762 0.049141 0.031858
v 0.011762 -0.014496 -0.159340
v 0.011762 0.064113 -0.173846
v -0.011762 0.095566 -0.143844
v -0.011762 -0.019468 -0.138544
v 0.011762 0.095566 -0.143844
v 0.011762 -0.019468 -0.138544
v -0.011762 -0.025433 0.010274
v 0.011762 0.106144 -0.010358
v -0.011762 0.106144 -0.010358
v 0.011762 -0.025433 0.010274
v -0.017962 0.022185 0.028036
v -0.011762 0.004510 -0.173846
v 0.011762 0.004510 -0.173846
v 0.017962 0.022185 0.028036
v 0.014055 0.027023 -0.143844
v -0.014055 0.027023 -0.143844
v -0.017273 0.023522 -0.010358
v 0.017273 0.023522 -0.010358
v -0.023729 0.006171 0.301170
v -0.011762 0.052965 0.312000
v 0.023729 0.006171 0.301170
v 0.011762 -0.079555 0.292770
v 0.011762 0.052965 0.312000
v -0.011762 -0.079555 0.292770
v -0.000055 0.012279 -0.182478
v -0.016988 0.022055 -0.182478
v -0.016988 0.041608 -0.182478
v -0.000055 0.051385 -0.182478
v 0.016879 0.041608 -0.182478
v 0.016879 0.022055 -0.182478
v -0.000055 0.012279 -0.162198
v -0.016988 0.022055 -0.162198
v -0.016988 0.041608 -0.162198
v -0.000055 0.051385 -0.162198
v 0.016879 0.041608 -0.162198
v 0.016879 0.022055 -0.162198
v -0.000055 -0.003131 -0.182478
v -0.030333 0.014350 -0.182478
v -0.030333 0.049313 -0.182478
v -0.000055 0.066795 -0.182478
v 0.030225 0.049313 -0.182478
v 0.030225 0.014350 -0.182478
v -0.000055 0.009222 -0.202011
v -0.019635 0.020526 -0.202011
v -0.019635 0.043137 -0.202011
v -0.000055 0.054442 -0.202011
v 0.019527 0.043137 -0.202011
v 0.019527 0.020526 -0.202011
v -0.000055 -0.009993 -0.202011
v -0.036275 0.010920 -0.202011
v -0.036275 0.052743 -0.202011
v -0.000055 0.073656 -0.202011
v 0.036166 0.052743 -0.202011
v 0.036166 0.010920 -0.202011
v -0.000055 0.002143 -0.506375
v -0.025766 0.016988 -0.506375
v -0.025766 0.046676 -0.506375
v -0.000055 0.061521 -0.506375
v 0.025657 0.046676 -0.506375
v 0.025657 0.016988 -0.506375
v -0.000055 0.020138 -0.510736
v -0.010182 0.025984 -0.510736
v -0.010182 0.037678 -0.510736
v -0.000055 0.043526 -0.510736
v 0.010073 0.037678 -0.510736
v 0.010073 0.025984 -0.510736
v -0.000055 0.019560 -0.728000
v -0.010681 0.025697 -0.728000
v -0.010681 0.037967 -0.728000
v -0.000055 0.044102 -0.728000
v 0.010573 0.037967 -0.728000
v 0.010573 0.025697 -0.728000
v -0.002537 0.005363 -0.545475
v -0.002537 0.096233 -0.545475
v -0.002537 0.005363 -0.556500
v -0.002537 0.096233 -0.556500
v 0.002788 0.005363 -0.545475
v 0.002788 0.096233 -0.545475
v 0.002788 0.005363 -0.556500
v 0.002788 0.096233 -0.556500
v 0.000125 0.096233 -0.556500
v 0.000125 0.005363 -0.556500
v 0.000125 0.096233 -0.545475
v 0.000125 0.005363 -0.545475
v -0.002537 0.075086 -0.545475
v -0.002537 0.075086 -0.556500
v 0.002788 0.075086 -0.556500
v 0.002788 0.075086 -0.545475
v 0.000125 0.075086 -0.545475
v 0.000125 0.075086 -0.556500
v -0.002537 0.048876 -0.527589
v -0.002537 0.051826 -0.515778
v 0.000125 0.051826 -0.515778
v 0.002788 0.051826 -0.515778
v 0.002788 0.048876 -0.527589
v 0.000125 0.048876 -0.527589
v -0.002537 0.008576 -0.525157
v -0.002537 0.005561 -0.513362
v 0.000125 0.005561 -0.513362
v 0.002788 0.005561 -0.513362
v 0.002788 0.008576 -0.525157
v 0.000125 0.008576 -0.525157
v 0.002788 0.014307 -0.525503
v 0.000125 0.014307 -0.525503
v 0.002788 0.012141 -0.513705
v -0.002537 0.012141 -0.513705
v 0.000125 0.012141 -0.513705
v -0.002537 0.014307 -0.525503
v 0.002313 0.018726 -0.541062
v 0.002313 0.014092 -0.541960
v 0.000125 0.014092 -0.541960
v -0.002064 0.014092 -0.541960
v 0.000125 0.018726 -0.541062
v -0.002064 0.018726 -0.541062
v -0.002537 0.016914 -0.556500
v 0.002788 0.016914 -0.556500
v 0.002788 0.016914 -0.545475
v 0.000125 0.016914 -0.545475
v 0.000125 0.016914 -0.556500
v -0.002537 0.016914 -0.545475
v -0.002537 0.016914 -0.571734
v -0.002537 0.005363 -0.571734
v 0.002788 0.016914 -0.571734
v 0.002788 0.005363 -0.571734
v 0.000125 0.005363 -0.571734
v 0.000125 0.016914 -0.571734
v -0.002537 0.046000 -0.545475
v -0.002537 0.046000 -0.556500
v 0.002788 0.046000 -0.556500
v 0.002788 0.046000 -0.545475
v 0.000125 0.046000 -0.545475
v 0.000125 0.046000 -0.556500
v 0.000125 0.046033 -0.527413
v 0.000125 0.045953 -0.515390
v -0.002537 0.046033 -0.527413
v 0.002788 0.046033 -0.527413
v 0.002788 0.045953 -0.515390
v -0.002537 0.045953 -0.515390
v 0.002788 0.017657 -0.525836
v 0.002788 0.017636 -0.513859
v -0.002537 0.017636 -0.513859
v 0.000125 0.017657 -0.525836
v 0.000125 0.017636 -0.513859
v -0.002537 0.017657 -0.525836
v -0.002537 0.018666 -0.556500
v 0.002788 0.018666 -0.556500
v 0.002788 0.018666 -0.545475
v 0.000125 0.018666 -0.545475
v 0.000125 0.018666 -0.556500
v -0.002537 0.018666 -0.545475
v -0.018012 0.032333 -0.545475
v -0.018012 0.032333 -0.556500
v 0.018262 0.032333 -0.556500
v 0.018262 0.032333 -0.545475
v 0.000125 0.032333 -0.545475
v 0.000125 0.032333 -0.556500
v 0.000125 0.031844 -0.526624
v 0.000125 0.031795 -0.514624
v -0.018012 0.031844 -0.526624
v 0.018262 0.031844 -0.526624
v 0.018262 0.031795 -0.514624
v -0.018012 0.031795 -0.514624
v -0.011961 -0.168825 -0.109899
v -0.011961 -0.115652 -0.095687
v -0.011961 -0.150613 -0.177742
v -0.011961 -0.089786 -0.160995
v 0.012458 -0.168825 -0.109899
v 0.012458 -0.115652 -0.095687
v 0.012458 -0.150613 -0.177742
v 0.012458 -0.089786 -0.160995
v -0.011961 -0.059739 -0.087407
v -0.011961 -0.049316 -0.156872
v 0.012458 -0.049316 -0.156872
v 0.012458 -0.059739 -0.087407
v -0.011961 -0.048338 -0.088292
v -0.011961 -0.037916 -0.157759
v 0.012458 -0.037916 -0.157759
v 0.012458 -0.048338 -0.088292
v -0.011961 -0.015836 -0.088609
v -0.011961 -0.005413 -0.158074
v 0.012458 -0.005413 -0.158074
v 0.012458 -0.015836 -0.088609
v 0.012458 -0.057509 -0.025271
v -0.011961 -0.057509 -0.025271
v 0.012458 -0.046108 -0.026158
v -0.011961 -0.046108 -0.026158
v 0.012458 -0.052996 0.025589
v -0.011961 -0.052996 0.025589
v 0.012458 -0.043094 0.019869
v -0.011961 -0.043094 0.019869
v 0.012458 -0.122010 0.018384
v -0.011961 -0.122010 0.018384
v 0.012458 -0.109492 0.067888
v -0.011961 -0.109492 0.067888
v 0.012458 -0.020984 -0.040266
v -0.011961 -0.020984 -0.040266
v 0.012458 -0.017970 0.005761
v -0.011961 -0.017970 0.005761
g Body
usemtl Steel
f 1 4 5 6
f 16 14 6 5
f 3 2 7 8
f 11 3 8 15
f 10 1 6 14
f 2 9 13 7
f 9 10 14 13
f 4 12 16 5
f 12 11 15 16
f 8 7 13 15
f 15 13 14 16
f 17 18 19 20 21
f 22 23 24 17 21
f 29 28 30 31
f 28 25 32 30
f 27 26 33 34
f 27 34 32 25
f 32 34 35 36
f 34 33 37 35
f 30 32 36 38
f 31 30 38 39
f 38 36 40 41
f 35 37 42 43
f 39 38 41 44
f 36 35 43 40
f 40 43 45 46
f 41 40 46 47
f 43 42 48 45
f 44 41 47 49
f 46 45 20 19
f 47 46 19 18
f 45 48 21 20
f 49 47 18 17
f 29 31 53 52
f 52 53 54 50
f 51 55 33 26
f 51 50 54 55
f 54 56 57 55
f 55 57 37 33
f 53 58 56 54
f 31 39 58 53
f 58 59 60 56
f 57 61 42 37
f 39 44 59 58
f 56 60 61 57
f 60 62 63 61
f 59 64 62 60
f 61 63 48 42
f 44 49 64 59
f 62 23 22 63
f 64 24 23 62
f 63 22 21 48
f 49 17 24 64
f 91 89 94 92
f 93 90 89 91
f 190 185 145 143
f 189 186 193 196
f 186 187 147 149
f 188 190 143 154
f 154 152 149 147
f 153 151 146 144
f 148 150 151 153
f 143 145 152 154
f 187 188 154 147
f 152 145 192 195
f 146 151 160 156
f 148 153 163 164
f 159 158 165 166
f 150 148 158 157
f 151 150 157 160
f 144 146 156 155
f 173 175 170 171
f 167 178 184 182
f 158 148 164 165
f 153 144 162 163
f 155 159 166 161
f 144 155 161 162
f 170 169 172 171
f 169 168 167 172
f 177 176 168 169
f 172 167 182 181
f 175 177 169 170
f 176 178 167 168
f 211 214 178 176
f 210 213 177 175
f 214 212 174 178
f 213 211 176 177
f 212 209 173 174
f 209 210 175 173
f 183 179 180 181
f 184 183 181 182
f 174 173 179 183
f 178 174 183 184
f 171 172 181 180
f 173 171 180 179
f 215 219 189 185
f 217 218 188 187
f 218 220 190 188
f 216 217 187 186
f 219 216 186 189
f 220 215 185 190
f 196 193 194 195
f 191 196 195 192
f 145 185 191 192
f 149 152 195 194
f 185 189 196 191
f 186 149 194 193
f 155 156 198 197
f 160 157 199 202
f 157 158 200 199
f 159 155 197 201
f 158 159 201 200
f 156 160 202 198
f 165 164 207 206
f 166 165 206 203
f 163 162 208 204
f 161 166 203 205
f 164 163 204 207
f 162 161 205 208
f 230 231 210 209
f 227 230 209 212
f 228 232 211 213
f 229 227 212 214
f 231 228 213 210
f 232 229 214 211
f 221 222 215 220
f 226 223 216 219
f 223 224 217 216
f 225 221 220 218
f 224 225 218 217
f 222 226 219 215
f 198 202 226 222
f 200 201 225 224
f 201 197 221 225
f 199 200 224 223
f 202 199 223 226
f 197 198 222 221
f 208 205 229 232
f 207 204 228 231
f 205 203 227 229
f 204 208 232 228
f 203 206 230 227
f 206 207 231 230
g Magazine
usemtl Steel
f 234 236 235 233
f 236 240 239 235
f 240 238 237 239
f 238 234 233 237
f 233 235 239 237
f 238 240 243 244
f 236 234 241 242
f 234 238 244 241
f 240 236 242 243
g Body
usemtl Steel
f 86 82 67 74
f 82 83 71 67
f 88 84 69 80
f 65 69 92 94
f 74 67 71 76
f 75 72 68 73
f 77 74 76 80
f 83 85 76 71
f 87 86 74 77
f 81 87 77 65
f 65 77 80 69
f 70 78 79 66
f 85 88 80 76
f 75 78 88 85
f 66 79 87 81
f 79 73 86 87
f 72 75 85 83
f 66 81 89 90
f 78 70 84 88
f 68 72 83 82
f 73 68 82 86
f 84 70 93 91
f 70 66 90 93
f 69 84 91 92
f 81 65 94 89
f 100 99 105 106
f 98 97 103 104
f 96 95 101 102
f 95 100 106 101
f 99 98 104 105
f 97 96 102 103
f 99 100 112 111
f 97 98 110 109
f 95 96 108 107
f 100 95 107 112
f 98 99 111 110
f 96 97 109 108
f 111 112 118 117
f 109 110 116 115
f 107 108 114 113
f 112 107 113 118
f 110 111 117 116
f 108 109 115 114
f 118 113 119 124
f 116 117 123 122
f 114 115 121 120
f 117 118 124 123
f 115 116 122 121
f 113 114 120 119
f 123 124 130 129
f 121 122 128 127
f 119 120 126 125
f 124 119 125 130
f 122 123 129 128
f 120 121 127 126
f 130 125 131 136
f 128 129 135 134
f 126 127 133 132
f 129 130 136 135
f 127 128 134 133
f 125 126 132 131
f 135 136 142 141
f 133 134 140 139
f 131 132 138 137
f 136 131 137 142
f 134 135 141 140
f 132 133 139 138
f 138 139 140 141 142 137
f 244 243 247 248
f 248 247 251 252
f 242 241 245 246
f 244 248 255 253
f 243 242 246 247
f 252 251 250 249
f 246 245 249 250
f 245 248 252 249
f 247 246 250 251
f 253 255 259 257
f 248 245 256 255
f 241 244 253 254
f 245 241 254 256
f 258 257 259 260
f 257 258 264 263
f 256 254 258 260
f 256 260 268 266
f 262 261 263 264
f 253 257 263 261
f 254 253 261 262
f 258 254 262 264
f 265 266 268 267
f 260 259 267 268
f 255 256 266 265
f 259 255 265 267
f 102 101 106 105 104 103
