# Adapted CC0 source; see SOURCES.json
mtllib m200.mtl
v 0.025837 -0.015273 0.253683
v 0.019946 -0.006500 -0.757477
v 0.036930 0.011866 0.253683
v 0.027511 0.012012 -0.757477
v 0.025837 0.041596 0.253683
v 0.018766 0.035452 -0.757477
v -0.027723 0.041596 0.253683
v -0.020651 0.035452 -0.757477
v -0.038816 0.011866 0.253683
v -0.029397 0.012012 -0.757477
v -0.027723 -0.015273 0.253683
v -0.021830 -0.006500 -0.757477
v 0.007982 0.051290 0.253683
v -0.009868 0.051290 0.253683
v -0.007639 0.042517 -0.757477
v 0.005755 0.042517 -0.757477
v 0.031586 0.015566 -0.307593
v 0.023774 0.036507 -0.307593
v 0.023774 0.036507 -0.126814
v 0.031586 0.015566 -0.089981
v 0.028812 0.023002 -0.089981
v 0.036930 0.011866 -0.312139
v 0.025837 0.041596 -0.312139
v 0.025837 0.041596 -0.125981
v 0.036930 0.011866 -0.085435
v 0.031383 0.026731 -0.085435
v -0.026935 0.015566 -0.125981
v -0.026935 0.036507 -0.126814
v -0.024335 0.015412 -0.307593
v -0.024335 0.033498 -0.307593
v -0.026935 0.015566 -0.089981
v -0.026935 0.023002 -0.089981
v 0.036930 0.011866 -0.757477
v 0.025837 -0.015273 -0.757477
v 0.025837 0.041596 -0.757477
v -0.038816 0.011866 -0.757477
v -0.027723 0.041596 -0.757477
v -0.027723 -0.015273 -0.757477
v 0.007982 0.051290 -0.757477
v -0.009868 0.051290 -0.757477
v 0.027511 0.012012 -0.356486
v 0.019946 -0.006500 -0.356486
v 0.018766 0.035452 -0.356486
v -0.029397 0.012012 -0.356486
v -0.020651 0.035452 -0.356486
v -0.021830 -0.006500 -0.356486
v 0.005755 0.042517 -0.356486
v -0.007639 0.042517 -0.356486
v 0.019877 0.036507 -0.126814
v 0.018139 0.033498 -0.307593
v 0.024594 0.014758 -0.307593
v 0.027089 0.015566 -0.125981
v 0.027089 0.015566 -0.089981
v 0.024528 0.023002 -0.089981
v -0.024335 0.007222 -0.307593
v -0.026935 0.004045 -0.125981
v 0.027089 0.004045 -0.125981
v 0.024594 0.007222 -0.307593
v -0.026935 0.015566 -0.307593
v -0.026935 0.036507 -0.307593
v 0.019877 0.036507 -0.307593
v 0.027089 0.015566 -0.307593
v -0.026935 0.004045 -0.307593
v 0.027089 0.004045 -0.307593
v 0.027089 0.015566 -0.127193
v -0.026935 0.004045 -0.127193
v 0.027089 0.004045 -0.127193
v 0.027089 0.015566 -0.290979
v -0.026935 0.004045 -0.290979
v 0.027089 0.004045 -0.290979
v 0.028514 -0.008724 -0.419691
v 0.028514 -0.008724 -0.493366
v 0.028514 -0.008724 -0.447489
v -0.035407 0.021001 -0.668512
v 0.028514 -0.008724 -0.521163
v 0.028514 -0.008724 -0.567041
v 0.031551 -0.001293 -0.562521
v 0.024157 0.021001 -0.668512
v -0.026043 0.021001 -0.668512
v 0.033521 0.021001 -0.668512
v -0.030399 -0.008724 -0.493366
v -0.032635 0.028431 -0.415172
v 0.028514 -0.008724 -0.640716
v 0.031551 -0.001293 -0.636195
v 0.031551 -0.001293 -0.599358
v 0.028514 -0.008724 -0.594837
v 0.021384 0.028431 -0.415172
v -0.023270 0.028431 -0.415172
v 0.031551 -0.001293 -0.673033
v 0.030749 0.028431 -0.415172
v 0.028514 -0.008724 -0.668512
v 0.019946 -0.006500 -0.492014
v 0.034589 0.006139 -0.668512
v -0.033437 -0.001293 -0.488847
v -0.023959 -0.001293 -0.488847
v -0.021830 -0.006500 -0.492014
v 0.031551 -0.001293 -0.415172
v 0.022073 -0.001293 -0.488847
v 0.034589 0.006139 -0.419691
v 0.031551 -0.001293 -0.488847
v -0.029862 0.035863 -0.668512
v -0.020651 0.035452 -0.668763
v 0.031551 -0.001293 -0.452009
v -0.019894 0.035863 -0.668512
v 0.034589 0.006139 -0.447489
v 0.031551 -0.001293 -0.525683
v 0.018766 0.035452 -0.668763
v 0.027976 0.035863 -0.668512
v 0.034589 0.006139 -0.521163
v 0.030432 0.029279 -0.672518
v 0.034589 0.006139 -0.594837
v 0.034589 0.006139 -0.640716
v 0.034589 0.006139 -0.567041
v 0.034589 0.006139 -0.493366
v 0.018009 0.035863 -0.668512
v 0.024157 0.021001 -0.521163
v 0.024157 0.021001 -0.567041
v 0.024157 0.021001 -0.594837
v 0.024157 0.021001 -0.640716
v 0.021384 0.028431 -0.673033
v -0.032635 0.028431 -0.673033
v -0.023270 0.028431 -0.673033
v -0.029862 0.035863 -0.419691
v 0.030749 0.028431 -0.673033
v 0.027976 0.035863 -0.419691
v 0.018766 0.035452 -0.419442
v 0.018009 0.035863 -0.419691
v -0.036475 0.006139 -0.493366
v -0.026996 0.006139 -0.493366
v -0.019894 0.035863 -0.419691
v -0.020651 0.035452 -0.419442
v 0.024157 0.021001 -0.419691
v 0.018766 0.035452 -0.447739
v 0.024157 0.021001 -0.447489
v 0.025111 0.006139 -0.493366
v 0.021384 0.028431 -0.488847
v 0.021384 0.028431 -0.452009
v 0.024157 0.021001 -0.493366
v 0.018766 0.035452 -0.493117
v 0.018766 0.035452 -0.521413
v 0.021384 0.028431 -0.525683
v 0.021384 0.028431 -0.562521
v 0.018766 0.035452 -0.595088
v 0.018766 0.035452 -0.566791
v 0.021384 0.028431 -0.636195
v 0.021384 0.028431 -0.599358
v 0.018766 0.035452 -0.640466
v -0.029862 0.035863 -0.493366
v -0.029862 0.035863 -0.447489
v -0.029862 0.035863 -0.521163
v -0.032635 0.028431 -0.562521
v -0.032635 0.028431 -0.525683
v -0.029862 0.035863 -0.567041
v -0.029862 0.035863 -0.594837
v -0.032635 0.028431 -0.636195
v -0.032635 0.028431 -0.599358
v -0.029862 0.035863 -0.640716
v -0.036475 0.006139 -0.521163
v -0.035407 0.021001 -0.640716
v 0.025111 0.006139 -0.521163
v -0.026996 0.006139 -0.521163
v 0.018009 0.035863 -0.447489
v -0.019894 0.035863 -0.447489
v 0.027976 0.035863 -0.447489
v -0.030399 -0.008724 -0.567041
v -0.032635 0.028431 -0.488847
v -0.032635 0.028431 -0.452009
v -0.035407 0.021001 -0.447489
v -0.030399 -0.008724 -0.594837
v -0.035407 0.021001 -0.419691
v -0.035407 0.021001 -0.521163
v -0.035407 0.021001 -0.493366
v -0.035407 0.021001 -0.594837
v -0.035407 0.021001 -0.567041
v -0.026043 0.021001 -0.493366
v 0.033521 0.021001 -0.493366
v -0.026043 0.021001 -0.640716
v 0.033521 0.021001 -0.640716
v -0.036475 0.006139 -0.594837
v -0.026996 0.006139 -0.594837
v 0.025111 0.006139 -0.594837
v -0.036475 0.006139 -0.419691
v -0.036475 0.006139 -0.447489
v -0.033498 -0.001142 -0.525591
v -0.033437 -0.001293 -0.562521
v -0.036475 0.006139 -0.567041
v -0.033437 -0.001293 -0.636195
v -0.033437 -0.001293 -0.599358
v -0.036475 0.006139 -0.668512
v -0.033437 -0.001293 -0.673033
v -0.030399 -0.008724 -0.668512
v -0.036475 0.006139 -0.640716
v -0.026043 0.021001 -0.521163
v 0.033521 0.021001 -0.521163
v -0.023270 0.028431 -0.636195
v -0.023959 -0.001293 -0.599358
v 0.022073 -0.001293 -0.599358
v 0.030749 0.028431 -0.636195
v 0.019946 -0.006500 -0.596191
v -0.020651 0.035452 -0.521413
v -0.019894 0.035863 -0.521163
v 0.018009 0.035863 -0.521163
v -0.033437 -0.001293 -0.415172
v -0.030399 -0.008724 -0.419691
v 0.027976 0.035863 -0.521163
v -0.030399 -0.008724 -0.447489
v -0.033437 -0.001293 -0.452009
v -0.030399 -0.008724 -0.521163
v -0.033437 -0.001293 -0.525683
v -0.030399 -0.008724 -0.640716
v -0.021830 -0.006500 -0.596191
v -0.023270 0.028431 -0.525683
v 0.030749 0.028431 -0.525683
v 0.019946 -0.006500 -0.565688
v -0.020651 0.035452 -0.640466
v 0.027976 0.035863 -0.640716
v 0.018009 0.035863 -0.640716
v -0.019894 0.035863 -0.640716
v -0.023959 -0.001293 -0.562521
v 0.022073 -0.001293 -0.562521
v -0.021830 -0.006500 -0.565688
v 0.033521 0.021001 -0.419691
v 0.030749 0.028431 -0.452009
v 0.030749 0.028431 -0.488847
v 0.033521 0.021001 -0.447489
v 0.027976 0.035863 -0.567041
v 0.027976 0.035863 -0.594837
v 0.027976 0.035863 -0.493366
v -0.026996 0.006139 -0.567041
v 0.025111 0.006139 -0.567041
v -0.026996 0.006139 -0.447489
v 0.025111 0.006139 -0.447489
v 0.030749 0.028431 -0.562521
v 0.033521 0.021001 -0.594837
v 0.033521 0.021001 -0.567041
v 0.030749 0.028431 -0.599358
v -0.023270 0.028431 -0.488847
v -0.023959 -0.001293 -0.452009
v 0.022073 -0.001293 -0.452009
v -0.026996 0.006139 -0.668512
v 0.025111 0.006139 -0.668512
v -0.023959 -0.001293 -0.673033
v 0.022073 -0.001293 -0.673033
v 0.019946 -0.006500 -0.448842
v -0.020651 0.035452 -0.493117
v 0.019946 -0.006500 -0.669866
v 0.018009 0.035863 -0.493366
v -0.019894 0.035863 -0.493366
v -0.021830 -0.006500 -0.448842
v 0.018009 0.035863 -0.594837
v -0.021830 -0.006500 -0.669866
v 0.018009 0.035863 -0.567041
v 0.019946 -0.006500 -0.639362
v 0.019946 -0.006500 -0.418339
v -0.023959 -0.001293 -0.636195
v -0.021830 -0.006500 -0.639362
v 0.022073 -0.001293 -0.636195
v -0.023959 -0.001293 -0.415172
v -0.021830 -0.006500 -0.418339
v 0.022073 -0.001293 -0.415172
v -0.021830 -0.006500 -0.522516
v -0.026043 0.021001 -0.567041
v -0.026043 0.021001 -0.594837
v -0.026996 0.006139 -0.640716
v 0.025111 0.006139 -0.640716
v 0.019946 -0.006500 -0.522516
v -0.026996 0.006139 -0.419691
v 0.025111 0.006139 -0.419691
v -0.020651 0.035452 -0.595088
v -0.019894 0.035863 -0.594837
v -0.023270 0.028431 -0.599358
v -0.020651 0.035452 -0.447739
v -0.023270 0.028431 -0.562521
v -0.020651 0.035452 -0.566791
v -0.023270 0.028431 -0.452009
v -0.026043 0.021001 -0.447489
v -0.026043 0.021001 -0.419691
v 0.022073 -0.001293 -0.525683
v -0.023959 -0.001293 -0.525683
v -0.019894 0.035863 -0.567041
v 0.001053 0.008724 -0.131572
v 0.001053 0.008724 -0.133205
v -0.000758 0.008724 -0.133205
v -0.000758 0.008724 -0.135275
v 0.001053 0.008724 -0.137770
v -0.000258 0.008724 -0.218397
v -0.002512 0.008724 -0.226401
v -0.002512 0.008724 -0.244812
v -0.003225 0.008724 -0.244812
v -0.003225 0.008724 -0.216009
v -0.003311 0.008724 -0.245900
v -0.003225 0.008724 -0.227662
v -0.009901 0.008724 -0.289800
v -0.007270 0.008724 -0.278824
v -0.005295 0.008724 -0.267850
v -0.003974 0.008724 -0.256875
v -0.002385 0.000421 -0.131572
v -0.002385 0.000421 -0.133205
v -0.003666 0.001702 -0.133205
v -0.003666 0.001702 -0.135275
v -0.002385 0.000421 -0.137770
v -0.003313 0.001349 -0.218397
v -0.004906 0.002943 -0.226401
v -0.004906 0.002943 -0.244812
v -0.005411 0.003447 -0.244812
v -0.005411 0.003447 -0.216009
v -0.005472 0.003507 -0.245900
v -0.005411 0.003447 -0.227662
v -0.010133 0.008167 -0.289800
v -0.008271 0.006307 -0.278824
v -0.006874 0.004909 -0.267850
v -0.005941 0.003977 -0.256875
v -0.010688 -0.003018 -0.131572
v -0.010688 -0.003018 -0.133205
v -0.010688 -0.001206 -0.133205
v -0.010688 -0.001206 -0.135275
v -0.010688 -0.003018 -0.137770
v -0.010688 -0.001707 -0.218397
v -0.010688 0.000547 -0.226401
v -0.010688 0.000547 -0.244812
v -0.010688 0.001260 -0.244812
v -0.010688 0.001260 -0.216009
v -0.010688 0.001347 -0.245900
v -0.010688 0.001260 -0.227662
v -0.010688 0.007937 -0.289800
v -0.010688 0.005306 -0.278824
v -0.010688 0.003329 -0.267850
v -0.010688 0.002010 -0.256875
v -0.018991 0.000421 -0.131572
v -0.018991 0.000421 -0.133205
v -0.017710 0.001702 -0.133205
v -0.017710 0.001702 -0.135275
v -0.018991 0.000421 -0.137770
v -0.018063 0.001349 -0.218397
v -0.016470 0.002943 -0.226401
v -0.016470 0.002943 -0.244812
v -0.015965 0.003447 -0.244812
v -0.015965 0.003447 -0.216009
v -0.015904 0.003507 -0.245900
v -0.015965 0.003447 -0.227662
v -0.011245 0.008167 -0.289800
v -0.013105 0.006307 -0.278824
v -0.014503 0.004909 -0.267850
v -0.015435 0.003977 -0.256875
v -0.022430 0.008724 -0.131572
v -0.022430 0.008724 -0.133205
v -0.020618 0.008724 -0.133205
v -0.020618 0.008724 -0.135275
v -0.022430 0.008724 -0.137770
v -0.021119 0.008724 -0.218397
v -0.018865 0.008724 -0.226401
v -0.018865 0.008724 -0.244812
v -0.018152 0.008724 -0.244812
v -0.018152 0.008724 -0.216009
v -0.018065 0.008724 -0.245900
v -0.018152 0.008724 -0.227662
v -0.011475 0.008724 -0.289800
v -0.014107 0.008724 -0.278824
v -0.016083 0.008724 -0.267850
v -0.017402 0.008724 -0.256875
v -0.018991 0.017027 -0.131572
v -0.018991 0.017027 -0.133205
v -0.017710 0.015746 -0.133205
v -0.017710 0.015746 -0.135275
v -0.018991 0.017027 -0.137770
v -0.018063 0.016099 -0.218397
v -0.016470 0.014506 -0.226401
v -0.016470 0.014506 -0.244812
v -0.015965 0.014001 -0.244812
v -0.015965 0.014001 -0.216009
v -0.015904 0.013940 -0.245900
v -0.015965 0.014001 -0.227662
v -0.011245 0.009281 -0.289800
v -0.013105 0.011141 -0.278824
v -0.014503 0.012538 -0.267850
v -0.015435 0.013471 -0.256875
v -0.010688 0.020465 -0.131572
v -0.010688 0.020465 -0.133205
v -0.010688 0.018654 -0.133205
v -0.010688 0.018654 -0.135275
v -0.010688 0.020465 -0.137770
v -0.010688 0.019154 -0.218397
v -0.010688 0.016900 -0.226401
v -0.010688 0.016900 -0.244812
v -0.010688 0.016187 -0.244812
v -0.010688 0.016187 -0.216009
v -0.010688 0.016101 -0.245900
v -0.010688 0.016187 -0.227662
v -0.010688 0.009510 -0.289800
v -0.010688 0.012143 -0.278824
v -0.010688 0.014119 -0.267850
v -0.010688 0.015438 -0.256875
v -0.002385 0.017027 -0.131572
v -0.002385 0.017027 -0.133205
v -0.003666 0.015746 -0.133205
v -0.003666 0.015746 -0.135275
v -0.002385 0.017027 -0.137770
v -0.003313 0.016099 -0.218397
v -0.004906 0.014506 -0.226401
v -0.004906 0.014506 -0.244812
v -0.005411 0.014001 -0.244812
v -0.005411 0.014001 -0.216009
v -0.005472 0.013940 -0.245900
v -0.005411 0.014001 -0.227662
v -0.010133 0.009281 -0.289800
v -0.008271 0.011141 -0.278824
v -0.006874 0.012538 -0.267850
v -0.005941 0.013471 -0.256875
v -0.006910 0.004946 -0.130606
v -0.005346 0.008724 -0.130606
v -0.010688 0.003382 -0.130606
v -0.014466 0.004946 -0.130606
v -0.016031 0.008724 -0.130606
v -0.014466 0.012502 -0.130606
v -0.010688 0.014067 -0.130606
v -0.006910 0.012502 -0.130606
v -0.003666 0.001702 -0.130606
v -0.000758 0.008724 -0.130606
v -0.010688 -0.001206 -0.130606
v -0.017710 0.001702 -0.130606
v -0.020618 0.008724 -0.130606
v -0.017710 0.015746 -0.130606
v -0.010688 0.018654 -0.130606
v -0.003666 0.015746 -0.130606
v -0.007952 0.005988 -0.130606
v -0.006820 0.008724 -0.130606
v -0.010688 0.004855 -0.130606
v -0.013424 0.005988 -0.130606
v -0.014558 0.008724 -0.130606
v -0.013424 0.011460 -0.130606
v -0.010688 0.012592 -0.130606
v -0.007952 0.011460 -0.130606
v -0.007375 0.005411 -0.131250
v -0.006002 0.008724 -0.131250
v -0.010688 0.004038 -0.131250
v -0.014001 0.005411 -0.131250
v -0.015374 0.008724 -0.131250
v -0.014001 0.012037 -0.131250
v -0.010688 0.013410 -0.131250
v -0.007375 0.012037 -0.131250
v 0.019840 -0.000669 -0.131572
v 0.019840 -0.000669 -0.133205
v 0.018029 -0.000669 -0.133205
v 0.018029 -0.000669 -0.135275
v 0.019840 -0.000669 -0.137770
v 0.018529 -0.000669 -0.218397
v 0.016275 -0.000669 -0.226401
v 0.016275 -0.000669 -0.244812
v 0.015562 -0.000669 -0.244812
v 0.015562 -0.000669 -0.216009
v 0.015476 -0.000669 -0.245900
v 0.015562 -0.000669 -0.227662
v 0.008885 -0.000669 -0.289800
v 0.011516 -0.000669 -0.278824
v 0.013492 -0.000669 -0.267850
v 0.014812 -0.000669 -0.256875
v 0.016400 -0.008972 -0.131572
v 0.016400 -0.008972 -0.133205
v 0.015120 -0.007691 -0.133205
v 0.015120 -0.007691 -0.135275
v 0.016400 -0.008972 -0.137770
v 0.015473 -0.008044 -0.218397
v 0.013879 -0.006450 -0.226401
v 0.013879 -0.006450 -0.244812
v 0.013376 -0.005947 -0.244812
v 0.013376 -0.005947 -0.216009
v 0.013315 -0.005886 -0.245900
v 0.013376 -0.005947 -0.227662
v 0.008654 -0.001226 -0.289800
v 0.010516 -0.003087 -0.278824
v 0.011913 -0.004484 -0.267850
v 0.012845 -0.005416 -0.256875
v 0.008098 -0.012411 -0.131572
v 0.008098 -0.012411 -0.133205
v 0.008098 -0.010600 -0.133205
v 0.008098 -0.010600 -0.135275
v 0.008098 -0.012411 -0.137770
v 0.008098 -0.011100 -0.218397
v 0.008098 -0.008846 -0.226401
v 0.008098 -0.008846 -0.244812
v 0.008098 -0.008133 -0.244812
v 0.008098 -0.008133 -0.216009
v 0.008098 -0.008047 -0.245900
v 0.008098 -0.008133 -0.227662
v 0.008098 -0.001456 -0.289800
v 0.008098 -0.004087 -0.278824
v 0.008098 -0.006064 -0.267850
v 0.008098 -0.007383 -0.256875
v -0.000205 -0.008972 -0.131572
v -0.000205 -0.008972 -0.133205
v 0.001076 -0.007691 -0.133205
v 0.001076 -0.007691 -0.135275
v -0.000205 -0.008972 -0.137770
v 0.000722 -0.008044 -0.218397
v 0.002316 -0.006450 -0.226401
v 0.002316 -0.006450 -0.244812
v 0.002821 -0.005947 -0.244812
v 0.002821 -0.005947 -0.216009
v 0.002882 -0.005886 -0.245900
v 0.002821 -0.005947 -0.227662
v 0.007542 -0.001226 -0.289800
v 0.005681 -0.003087 -0.278824
v 0.004284 -0.004484 -0.267850
v 0.003351 -0.005416 -0.256875
v -0.003643 -0.000669 -0.131572
v -0.003643 -0.000669 -0.133205
v -0.001832 -0.000669 -0.133205
v -0.001832 -0.000669 -0.135275
v -0.003643 -0.000669 -0.137770
v -0.002332 -0.000669 -0.218397
v -0.000078 -0.000669 -0.226401
v -0.000078 -0.000669 -0.244812
v 0.000635 -0.000669 -0.244812
v 0.000635 -0.000669 -0.216009
v 0.000721 -0.000669 -0.245900
v 0.000635 -0.000669 -0.227662
v 0.007312 -0.000669 -0.289800
v 0.004679 -0.000669 -0.278824
v 0.002704 -0.000669 -0.267850
v 0.001385 -0.000669 -0.256875
v -0.000205 0.007634 -0.131572
v -0.000205 0.007634 -0.133205
v 0.001076 0.006353 -0.133205
v 0.001076 0.006353 -0.135275
v -0.000205 0.007634 -0.137770
v 0.000722 0.006706 -0.218397
v 0.002316 0.005113 -0.226401
v 0.002316 0.005113 -0.244812
v 0.002821 0.004608 -0.244812
v 0.002821 0.004608 -0.216009
v 0.002882 0.004547 -0.245900
v 0.002821 0.004608 -0.227662
v 0.007542 -0.000113 -0.289800
v 0.005681 0.001748 -0.278824
v 0.004284 0.003145 -0.267850
v 0.003351 0.004078 -0.256875
v 0.008098 0.011072 -0.131572
v 0.008098 0.011072 -0.133205
v 0.008098 0.009261 -0.133205
v 0.008098 0.009261 -0.135275
v 0.008098 0.011072 -0.137770
v 0.008098 0.009761 -0.218397
v 0.008098 0.007507 -0.226401
v 0.008098 0.007507 -0.244812
v 0.008098 0.006794 -0.244812
v 0.008098 0.006794 -0.216009
v 0.008098 0.006708 -0.245900
v 0.008098 0.006794 -0.227662
v 0.008098 0.000117 -0.289800
v 0.008098 0.002750 -0.278824
v 0.008098 0.004725 -0.267850
v 0.008098 0.006044 -0.256875
v 0.016400 0.007634 -0.131572
v 0.016400 0.007634 -0.133205
v 0.015120 0.006353 -0.133205
v 0.015120 0.006353 -0.135275
v 0.016400 0.007634 -0.137770
v 0.015473 0.006706 -0.218397
v 0.013879 0.005113 -0.226401
v 0.013879 0.005113 -0.244812
v 0.013376 0.004608 -0.244812
v 0.013376 0.004608 -0.216009
v 0.013315 0.004547 -0.245900
v 0.013376 0.004608 -0.227662
v 0.008654 -0.000113 -0.289800
v 0.010516 0.001748 -0.278824
v 0.011913 0.003145 -0.267850
v 0.012845 0.004078 -0.256875
v 0.011876 -0.004447 -0.130606
v 0.013440 -0.000669 -0.130606
v 0.008098 -0.006011 -0.130606
v 0.004321 -0.004447 -0.130606
v 0.002755 -0.000669 -0.130606
v 0.004321 0.003108 -0.130606
v 0.008098 0.004674 -0.130606
v 0.011876 0.003108 -0.130606
v 0.015120 -0.007691 -0.130606
v 0.018029 -0.000669 -0.130606
v 0.008098 -0.010600 -0.130606
v 0.001076 -0.007691 -0.130606
v -0.001832 -0.000669 -0.130606
v 0.001076 0.006353 -0.130606
v 0.008098 0.009261 -0.130606
v 0.015120 0.006353 -0.130606
v 0.010834 -0.003405 -0.130606
v 0.011967 -0.000669 -0.130606
v 0.008098 -0.004538 -0.130606
v 0.005362 -0.003405 -0.130606
v 0.004229 -0.000669 -0.130606
v 0.005362 0.002067 -0.130606
v 0.008098 0.003199 -0.130606
v 0.010834 0.002067 -0.130606
v 0.011411 -0.003982 -0.131250
v 0.012785 -0.000669 -0.131250
v 0.008098 -0.005356 -0.131250
v 0.004785 -0.003982 -0.131250
v 0.003412 -0.000669 -0.131250
v 0.004785 0.002644 -0.131250
v 0.008098 0.004017 -0.131250
v 0.011411 0.002644 -0.131250
v 0.001053 -0.014290 -0.131572
v 0.001053 -0.014290 -0.133205
v -0.000758 -0.014290 -0.133205
v -0.000758 -0.014290 -0.135275
v 0.001053 -0.014290 -0.137770
v -0.000258 -0.014290 -0.218397
v -0.002512 -0.014290 -0.226401
v -0.002512 -0.014290 -0.244812
v -0.003225 -0.014290 -0.244812
v -0.003225 -0.014290 -0.216009
v -0.003311 -0.014290 -0.245900
v -0.003225 -0.014290 -0.227662
v -0.009901 -0.014290 -0.289800
v -0.007270 -0.014290 -0.278824
v -0.005295 -0.014290 -0.267850
v -0.003974 -0.014290 -0.256875
v -0.002385 -0.022592 -0.131572
v -0.002385 -0.022592 -0.133205
v -0.003666 -0.021311 -0.133205
v -0.003666 -0.021311 -0.135275
v -0.002385 -0.022592 -0.137770
v -0.003313 -0.021665 -0.218397
v -0.004906 -0.020071 -0.226401
v -0.004906 -0.020071 -0.244812
v -0.005411 -0.019567 -0.244812
v -0.005411 -0.019567 -0.216009
v -0.005472 -0.019506 -0.245900
v -0.005411 -0.019567 -0.227662
v -0.010133 -0.014845 -0.289800
v -0.008271 -0.016706 -0.278824
v -0.006874 -0.018103 -0.267850
v -0.005941 -0.019037 -0.256874
v -0.010688 -0.026031 -0.131572
v -0.010688 -0.026031 -0.133205
v -0.010688 -0.024220 -0.133205
v -0.010688 -0.024220 -0.135275
v -0.010688 -0.026031 -0.137770
v -0.010688 -0.024720 -0.218397
v -0.010688 -0.022466 -0.226401
v -0.010688 -0.022466 -0.244812
v -0.010688 -0.021753 -0.244812
v -0.010688 -0.021753 -0.216009
v -0.010688 -0.021667 -0.245900
v -0.010688 -0.021753 -0.227662
v -0.010688 -0.015075 -0.289800
v -0.010688 -0.017708 -0.278824
v -0.010688 -0.019683 -0.267850
v -0.010688 -0.021004 -0.256874
v -0.018991 -0.022592 -0.131572
v -0.018991 -0.022592 -0.133205
v -0.017710 -0.021311 -0.133205
v -0.017710 -0.021311 -0.135275
v -0.018991 -0.022592 -0.137770
v -0.018063 -0.021665 -0.218397
v -0.016470 -0.020071 -0.226401
v -0.016470 -0.020071 -0.244812
v -0.015965 -0.019567 -0.244812
v -0.015965 -0.019567 -0.216009
v -0.015904 -0.019506 -0.245900
v -0.015965 -0.019567 -0.227662
v -0.011245 -0.014845 -0.289800
v -0.013105 -0.016706 -0.278824
v -0.014503 -0.018103 -0.267850
v -0.015435 -0.019037 -0.256874
v -0.022430 -0.014290 -0.131572
v -0.022430 -0.014290 -0.133205
v -0.020618 -0.014290 -0.133205
v -0.020618 -0.014290 -0.135275
v -0.022430 -0.014290 -0.137770
v -0.021119 -0.014290 -0.218397
v -0.018865 -0.014290 -0.226401
v -0.018865 -0.014290 -0.244812
v -0.018152 -0.014290 -0.244812
v -0.018152 -0.014290 -0.216009
v -0.018065 -0.014290 -0.245900
v -0.018152 -0.014290 -0.227662
v -0.011475 -0.014290 -0.289800
v -0.014107 -0.014290 -0.278824
v -0.016083 -0.014290 -0.267850
v -0.017402 -0.014290 -0.256875
v -0.018991 -0.005987 -0.131572
v -0.018991 -0.005987 -0.133205
v -0.017710 -0.007268 -0.133205
v -0.017710 -0.007268 -0.135275
v -0.018991 -0.005987 -0.137770
v -0.018063 -0.006914 -0.218397
v -0.016470 -0.008508 -0.226401
v -0.016470 -0.008508 -0.244812
v -0.015965 -0.009011 -0.244812
v -0.015965 -0.009011 -0.216009
v -0.015904 -0.009072 -0.245900
v -0.015965 -0.009011 -0.227662
v -0.011245 -0.013733 -0.289800
v -0.013105 -0.011873 -0.278824
v -0.014503 -0.010475 -0.267850
v -0.015435 -0.009542 -0.256875
v -0.010688 -0.002548 -0.131572
v -0.010688 -0.002548 -0.133205
v -0.010688 -0.004360 -0.133205
v -0.010688 -0.004360 -0.135275
v -0.010688 -0.002548 -0.137770
v -0.010688 -0.003859 -0.218397
v -0.010688 -0.006113 -0.226401
v -0.010688 -0.006113 -0.244812
v -0.010688 -0.006826 -0.244812
v -0.010688 -0.006826 -0.216009
v -0.010688 -0.006911 -0.245900
v -0.010688 -0.006826 -0.227662
v -0.010688 -0.013503 -0.289800
v -0.010688 -0.010871 -0.278824
v -0.010688 -0.008895 -0.267850
v -0.010688 -0.007575 -0.256875
v -0.002385 -0.005987 -0.131572
v -0.002385 -0.005987 -0.133205
v -0.003666 -0.007268 -0.133205
v -0.003666 -0.007268 -0.135275
v -0.002385 -0.005987 -0.137770
v -0.003313 -0.006914 -0.218397
v -0.004906 -0.008508 -0.226401
v -0.004906 -0.008508 -0.244812
v -0.005411 -0.009011 -0.244812
v -0.005411 -0.009011 -0.216009
v -0.005472 -0.009072 -0.245900
v -0.005411 -0.009011 -0.227662
v -0.010133 -0.013733 -0.289800
v -0.008271 -0.011873 -0.278824
v -0.006874 -0.010475 -0.267850
v -0.005941 -0.009542 -0.256875
v -0.006910 -0.018066 -0.130606
v -0.005346 -0.014290 -0.130606
v -0.010688 -0.019632 -0.130606
v -0.014466 -0.018066 -0.130606
v -0.016031 -0.014290 -0.130606
v -0.014466 -0.010512 -0.130606
v -0.010688 -0.008947 -0.130606
v -0.006910 -0.010512 -0.130606
v -0.003666 -0.021311 -0.130606
v -0.000758 -0.014290 -0.130606
v -0.010688 -0.024220 -0.130606
v -0.017710 -0.021311 -0.130606
v -0.020618 -0.014290 -0.130606
v -0.017710 -0.007268 -0.130606
v -0.010688 -0.004360 -0.130606
v -0.003666 -0.007268 -0.130606
v -0.007952 -0.017026 -0.130606
v -0.006820 -0.014290 -0.130606
v -0.010688 -0.018158 -0.130606
v -0.013424 -0.017026 -0.130606
v -0.014558 -0.014290 -0.130606
v -0.013424 -0.011554 -0.130606
v -0.010688 -0.010420 -0.130606
v -0.007952 -0.011554 -0.130606
v -0.007375 -0.017603 -0.131250
v -0.006002 -0.014290 -0.131250
v -0.010688 -0.018975 -0.131250
v -0.014001 -0.017603 -0.131250
v -0.015374 -0.014290 -0.131250
v -0.014001 -0.010976 -0.131250
v -0.010688 -0.009604 -0.131250
v -0.007375 -0.010976 -0.131250
v -0.000943 0.008128 -0.306823
v 0.007621 0.011675 -0.306823
v 0.011168 0.020239 -0.306823
v 0.007621 0.028802 -0.306823
v -0.000943 0.032348 -0.306823
v -0.009506 0.028802 -0.306823
v -0.013054 0.020239 -0.306823
v -0.009506 0.011675 -0.306823
v -0.000943 -0.001144 -0.907672
v 0.014177 0.005119 -0.907672
v 0.020440 0.020239 -0.907672
v 0.014177 0.035358 -0.907672
v -0.000943 0.041621 -0.907672
v -0.016062 0.035358 -0.907672
v -0.022325 0.020239 -0.907672
v -0.016062 0.005119 -0.907672
v -0.000943 -0.001144 -0.938261
v 0.014177 0.005119 -0.938261
v 0.020440 0.020239 -0.938261
v 0.014177 0.035358 -0.938261
v -0.000943 0.041621 -0.938261
v -0.016062 0.035358 -0.938261
v -0.022325 0.020239 -0.938261
v -0.016062 0.005119 -0.938261
v 0.010131 0.009164 -0.907672
v -0.000943 0.004577 -0.907672
v 0.014718 0.020239 -0.907672
v 0.010131 0.031312 -0.907672
v -0.000943 0.035900 -0.907672
v -0.012016 0.031312 -0.907672
v -0.016604 0.020239 -0.907672
v -0.012016 0.009164 -0.907672
v -0.000943 0.020239 -0.881823
v -0.000943 -0.006111 -0.938261
v 0.017689 0.001607 -0.938261
v 0.025407 0.020239 -0.938261
v 0.017689 0.038870 -0.938261
v -0.000943 0.046588 -0.938261
v -0.019574 0.038870 -0.938261
v -0.027292 0.020239 -0.938261
v -0.019574 0.001607 -0.938261
v -0.000943 -0.006111 -0.944749
v 0.017689 0.001607 -0.944749
v 0.025407 0.020239 -0.944749
v 0.017689 0.038870 -0.944749
v -0.000943 0.046588 -0.944749
v -0.019574 0.038870 -0.944749
v -0.027292 0.020239 -0.944749
v -0.019574 0.001607 -0.944749
v -0.000943 -0.004534 -0.944749
v 0.016574 0.002721 -0.944749
v 0.023830 0.020239 -0.944749
v 0.016574 0.037756 -0.944749
v -0.000943 0.045011 -0.944749
v -0.018460 0.037756 -0.944749
v -0.025715 0.020239 -0.944749
v -0.018460 0.002721 -0.944749
v -0.000943 -0.004534 -1.050776
v 0.016574 0.002721 -1.050776
v 0.023830 0.020239 -1.050776
v 0.016574 0.037756 -1.050776
v -0.000943 0.045011 -1.050776
v -0.018460 0.037756 -1.050776
v -0.025715 0.020239 -1.050776
v -0.018460 0.002721 -1.050776
v -0.017335 0.035281 -0.969494
v -0.017335 0.035281 -0.962415
v -0.017335 0.035281 -0.990699
v -0.017335 0.035281 -0.983620
v -0.017335 0.035281 -1.011905
v -0.017335 0.035281 -1.004825
v -0.017335 0.035281 -1.033109
v -0.017335 0.035281 -1.026031
v -0.025715 0.020239 -1.021831
v -0.025715 0.020239 -1.037309
v -0.025715 0.020239 -1.000627
v -0.025715 0.020239 -1.016103
v -0.025715 0.020239 -0.979420
v -0.025715 0.020239 -0.994898
v -0.025715 0.020239 -0.958216
v -0.025715 0.020239 -0.973692
v 0.015450 0.035281 -0.969494
v 0.015450 0.035281 -0.962415
v 0.015450 0.035281 -0.990699
v 0.015450 0.035281 -0.983620
v 0.015450 0.035281 -1.011905
v 0.015450 0.035281 -1.004825
v 0.015450 0.035281 -1.033109
v 0.015450 0.035281 -1.026031
v -0.000943 0.045011 -1.024411
v -0.000943 0.045011 -1.034730
v -0.000943 0.045011 -1.003206
v -0.000943 0.045011 -1.013524
v -0.000943 0.045011 -0.982000
v -0.000943 0.045011 -0.992319
v -0.000943 0.045011 -0.960795
v -0.000943 0.045011 -0.971113
v 0.015450 0.005196 -0.969494
v 0.015450 0.005196 -0.962415
v 0.015450 0.005196 -0.990699
v 0.015450 0.005196 -0.983620
v 0.015450 0.005196 -1.011905
v 0.015450 0.005196 -1.004825
v 0.015450 0.005196 -1.033109
v 0.015450 0.005196 -1.026031
v 0.023830 0.020239 -1.021831
v 0.023830 0.020239 -1.037309
v 0.023830 0.020239 -1.000627
v 0.023830 0.020239 -1.016103
v 0.023830 0.020239 -0.979420
v 0.023830 0.020239 -0.994898
v 0.023830 0.020239 -0.958216
v 0.023830 0.020239 -0.973692
v -0.017335 0.005196 -1.026031
v -0.017335 0.005196 -1.033109
v -0.017335 0.005196 -1.004825
v -0.017335 0.005196 -1.011905
v -0.017335 0.005196 -0.983620
v -0.017335 0.005196 -0.990699
v -0.017335 0.005196 -0.962415
v -0.017335 0.005196 -0.969494
v -0.000943 -0.004534 -0.971113
v -0.000943 -0.004534 -0.960795
v -0.000943 -0.004534 -0.992319
v -0.000943 -0.004534 -0.982000
v -0.000943 -0.004534 -1.013524
v -0.000943 -0.004534 -1.003206
v -0.000943 -0.004534 -1.034730
v -0.000943 -0.004534 -1.024411
v -0.018460 0.002721 -0.960795
v -0.018460 0.002721 -0.971113
v -0.018460 0.002721 -0.982000
v -0.018460 0.002721 -0.992319
v -0.018460 0.002721 -1.003206
v -0.018460 0.002721 -1.013524
v -0.018460 0.002721 -1.024411
v -0.018460 0.002721 -1.034730
v 0.016574 0.002721 -0.971113
v 0.016574 0.002721 -0.960795
v 0.016574 0.002721 -0.992319
v 0.016574 0.002721 -0.982000
v 0.016574 0.002721 -1.013524
v 0.016574 0.002721 -1.003206
v 0.016574 0.002721 -1.034730
v 0.016574 0.002721 -1.024411
v 0.021778 0.020239 -0.971826
v 0.016574 0.037756 -0.971113
v 0.016574 0.037756 -0.960795
v 0.021778 0.020239 -0.960083
v 0.021778 0.020239 -0.993031
v 0.016574 0.037756 -0.992319
v 0.016574 0.037756 -0.982000
v 0.021778 0.020239 -0.981288
v 0.021778 0.020239 -1.014237
v 0.016574 0.037756 -1.013524
v 0.016574 0.037756 -1.003206
v 0.021778 0.020239 -1.002493
v 0.021778 0.020239 -1.035442
v 0.016574 0.037756 -1.034730
v 0.016574 0.037756 -1.024411
v 0.021778 0.020239 -1.023699
v -0.018460 0.037756 -0.971113
v -0.018460 0.037756 -0.960795
v -0.018460 0.037756 -0.992319
v -0.018460 0.037756 -0.982000
v -0.018460 0.037756 -1.013524
v -0.018460 0.037756 -1.003206
v -0.018460 0.037756 -1.034730
v -0.018460 0.037756 -1.024411
v -0.023664 0.020239 -0.971826
v -0.023664 0.020239 -0.960083
v -0.023664 0.020239 -0.993031
v -0.023664 0.020239 -0.981288
v -0.023664 0.020239 -1.014237
v -0.023664 0.020239 -1.002493
v -0.023664 0.020239 -1.035442
v -0.023664 0.020239 -1.023699
v -0.000943 0.004577 -0.306823
v 0.010131 0.009164 -0.306823
v 0.014718 0.020239 -0.306823
v 0.010131 0.031312 -0.306823
v -0.000943 0.035900 -0.306823
v -0.012016 0.031312 -0.306823
v -0.016604 0.020239 -0.306823
v -0.012016 0.009164 -0.306823
v -0.000943 0.020239 -0.318863
v -0.000943 0.000421 -0.420012
v 0.013071 0.006225 -0.420012
v 0.018875 0.020239 -0.420012
v 0.013071 0.034252 -0.420012
v -0.000943 0.040056 -0.420012
v -0.014956 0.034252 -0.420012
v -0.020761 0.020239 -0.420012
v -0.014956 0.006225 -0.420012
v -0.000943 0.000421 -0.447708
v 0.013071 0.006225 -0.447708
v 0.018875 0.020239 -0.447708
v 0.013071 0.034252 -0.447708
v -0.000943 0.040056 -0.447708
v -0.014956 0.034252 -0.447708
v -0.020761 0.020239 -0.447708
v -0.014956 0.006225 -0.447708
v -0.016185 0.004997 -0.426372
v -0.016185 0.004997 -0.441348
v -0.020933 0.020239 -0.436939
v -0.022499 0.020239 -0.426372
v -0.016185 0.035481 -0.426372
v -0.016185 0.035481 -0.441348
v -0.000943 0.040228 -0.436939
v -0.000943 0.041794 -0.426372
v 0.014299 0.035481 -0.426372
v 0.014299 0.035481 -0.441348
v 0.019047 0.020239 -0.436939
v 0.020613 0.020239 -0.426372
v 0.014299 0.004997 -0.426372
v 0.014299 0.004997 -0.441348
v -0.000943 0.000248 -0.436939
v -0.000943 -0.001317 -0.426372
v 0.013193 0.006103 -0.436939
v 0.020613 0.020239 -0.441348
v 0.019047 0.020239 -0.430781
v 0.013193 0.006103 -0.430781
v 0.013193 0.034373 -0.436939
v -0.000943 0.041794 -0.441348
v -0.000943 0.040228 -0.430781
v 0.013193 0.034373 -0.430781
v -0.015078 0.034373 -0.436939
v -0.022499 0.020239 -0.441348
v -0.020933 0.020239 -0.430781
v -0.015078 0.034373 -0.430781
v -0.015078 0.006103 -0.436939
v -0.000943 -0.001317 -0.441348
v -0.000943 0.000248 -0.430781
v -0.015078 0.006103 -0.430781
v -0.010772 0.030067 -0.907672
v -0.014843 0.020239 -1.050776
v -0.010772 0.010410 -1.050776
v -0.010772 0.010410 -0.907672
v -0.000943 0.034138 -0.990876
v 0.012957 0.020239 -1.050776
v 0.008886 0.010410 -1.050776
v -0.000943 0.006339 -1.050776
v 0.008886 0.030067 -0.991507
v -0.014843 0.020239 -0.907672
v -0.000943 0.006339 -0.907672
v 0.008886 0.010410 -0.907672
v -0.010772 0.030067 -1.050776
v 0.008886 0.030067 -1.050776
v -0.014843 0.020239 -0.993031
v 0.012957 0.020239 -0.907672
v 0.012957 0.020239 -0.993031
v -0.000943 0.034138 -1.050776
v -0.010772 0.030067 -0.991507
v 0.008886 0.030067 -0.907672
v -0.014843 0.020239 -0.981288
v 0.012957 0.020239 -0.981288
v 0.008886 0.030067 -0.982812
v -0.000943 0.034138 -0.907672
v -0.014843 0.020239 -0.960083
v 0.012957 0.020239 -0.960083
v -0.010772 0.010410 -0.961607
v -0.010772 0.030067 -0.982812
v -0.000943 0.034138 -0.983443
v -0.000943 0.006339 -0.962237
v 0.008886 0.010410 -0.961607
v -0.010772 0.010410 -0.982812
v 0.008886 0.030067 -0.961607
v -0.000943 0.006339 -0.983443
v 0.008886 0.010410 -0.982812
v -0.010772 0.030067 -0.961607
v -0.000943 0.034138 -0.962237
v -0.000943 0.034138 -0.969671
v 0.008886 0.030067 -0.970302
v -0.014843 0.020239 -0.971826
v 0.012957 0.020239 -0.971826
v -0.010772 0.030067 -0.970302
v -0.000943 0.006339 -0.969671
v -0.000943 0.006339 -0.990876
v -0.000943 0.006339 -1.004648
v -0.000943 0.006339 -1.012082
v -0.010772 0.010410 -0.970302
v -0.000943 0.006339 -1.025854
v -0.000943 0.006339 -1.033286
v 0.008886 0.010410 -0.970302
v -0.010772 0.010410 -1.033918
v -0.014843 0.020239 -1.035442
v 0.008886 0.010410 -1.033918
v 0.012957 0.020239 -1.035442
v -0.000943 0.034138 -1.033286
v 0.008886 0.030067 -1.033918
v -0.010772 0.030067 -1.033918
v -0.014843 0.020239 -1.023699
v 0.012957 0.020239 -1.023699
v 0.008886 0.030067 -1.025223
v -0.010772 0.010410 -0.991507
v -0.010772 0.010410 -1.004017
v -0.010772 0.010410 -1.012713
v -0.010772 0.010410 -1.025223
v -0.010772 0.030067 -1.025223
v -0.000943 0.034138 -1.025854
v 0.008886 0.010410 -1.025223
v -0.014843 0.020239 -1.014237
v 0.008886 0.010410 -1.012713
v 0.012957 0.020239 -1.014237
v -0.000943 0.034138 -1.012082
v 0.008886 0.030067 -1.012713
v -0.010772 0.030067 -1.012713
v -0.014843 0.020239 -1.002493
v 0.012957 0.020239 -1.002493
v 0.008886 0.030067 -1.004017
v -0.010772 0.030067 -1.004017
v -0.000943 0.034138 -1.004648
v 0.008886 0.010410 -1.004017
v 0.008886 0.010410 -0.991507
v 0.025256 -0.053863 -0.293180
v 0.025256 -0.085238 -0.124078
v 0.025256 -0.013062 -0.293180
v 0.025256 -0.013062 -0.124078
v 0.020215 -0.011969 -0.110144
v 0.020215 -0.011969 -0.000898
v -0.027142 -0.053863 -0.293180
v -0.027142 -0.085238 -0.124078
v -0.027142 -0.013062 -0.293180
v -0.027142 -0.013062 -0.124078
v -0.022101 -0.011969 -0.110144
v -0.022101 -0.011969 -0.000898
v 0.031448 0.000038 -0.297104
v 0.025698 0.000038 -0.302854
v 0.025698 0.000038 -0.108834
v 0.031448 0.000038 -0.114584
v 0.025698 -0.047442 -0.302854
v 0.031448 -0.048384 -0.297104
v 0.027187 -0.053653 -0.296195
v 0.031448 -0.081191 -0.114584
v 0.026384 -0.088004 -0.108834
v 0.020215 -0.046398 -0.110144
v 0.014465 -0.052830 -0.110144
v 0.020215 -0.046371 -0.000898
v 0.014465 -0.052830 -0.000898
v 0.014465 -0.011969 0.037307
v 0.020215 -0.011969 0.031557
v 0.020215 -0.017019 0.031557
v 0.014465 -0.018337 0.037307
v -0.027584 0.000038 -0.302854
v -0.033334 0.000038 -0.297104
v -0.033334 0.000038 -0.114584
v -0.027584 0.000038 -0.108834
v -0.027584 -0.047442 -0.302854
v -0.029072 -0.053653 -0.296195
v -0.033334 -0.048384 -0.297104
v -0.028270 -0.088065 -0.108844
v -0.033334 -0.081191 -0.114584
v -0.016351 -0.052830 -0.110144
v -0.022101 -0.046398 -0.110144
v -0.016351 -0.052830 -0.000898
v -0.022101 -0.046371 -0.000898
v -0.022101 -0.011969 0.031557
v -0.016351 -0.011969 0.037307
v -0.022101 -0.017019 0.031557
v -0.016351 -0.018337 0.037307
v 0.021571 -0.016256 -0.203116
v 0.021571 -0.016256 -0.191615
v 0.021571 -0.016256 -0.241110
v 0.021571 -0.016256 -0.253644
v 0.021571 -0.154686 -0.203116
v 0.021571 -0.156112 -0.191615
v 0.021571 -0.149980 -0.241110
v 0.021571 -0.148427 -0.253644
v 0.024343 -0.012034 -0.207339
v 0.024343 -0.012034 -0.187393
v 0.024343 -0.012034 -0.257867
v 0.024343 -0.012034 -0.236887
v 0.024343 -0.158419 -0.207339
v 0.024343 -0.160891 -0.187393
v 0.024343 -0.154758 -0.236887
v 0.024343 -0.152159 -0.257867
v 0.020240 0.005975 -0.130035
v 0.020240 0.005975 -0.287662
v 0.020240 -0.015877 -0.130035
v 0.020240 -0.015877 -0.287662
v -0.023455 -0.016256 -0.203116
v -0.023455 -0.016256 -0.191615
v -0.023455 -0.016256 -0.241110
v -0.023455 -0.016256 -0.253644
v -0.023455 -0.154686 -0.203116
v -0.023455 -0.156112 -0.191615
v -0.023455 -0.149980 -0.241110
v -0.023455 -0.148427 -0.253644
v -0.026228 -0.012034 -0.207339
v -0.026228 -0.012034 -0.187393
v -0.026228 -0.012034 -0.257867
v -0.026228 -0.012034 -0.236887
v -0.026228 -0.158419 -0.207339
v -0.026228 -0.160891 -0.187393
v -0.026228 -0.154758 -0.236887
v -0.026228 -0.152159 -0.257867
v -0.022125 0.005975 -0.130035
v -0.022125 0.005975 -0.287662
v -0.022125 -0.015877 -0.130035
v -0.022125 -0.015877 -0.287662
v 0.020893 -0.155196 -0.291765
v 0.024343 -0.157938 -0.288064
v 0.020893 -0.159086 -0.288344
v 0.020893 -0.176925 -0.125932
v 0.020893 -0.179914 -0.129351
v 0.024343 -0.178586 -0.131575
v 0.024343 -0.167949 -0.207339
v 0.020893 -0.169510 -0.207339
v 0.024343 -0.170699 -0.187393
v 0.020893 -0.172078 -0.187393
v 0.020893 -0.165708 -0.236887
v 0.024343 -0.164119 -0.236887
v 0.020893 -0.163008 -0.257867
v 0.024343 -0.161541 -0.257867
v 0.020893 0.002525 -0.125932
v 0.024343 0.004321 -0.131582
v 0.020893 0.005975 -0.129382
v 0.020893 0.002525 -0.291765
v 0.020893 0.005975 -0.288315
v 0.024343 0.004066 -0.288172
v -0.022778 -0.155196 -0.291765
v -0.022778 -0.159086 -0.288344
v -0.026228 -0.157938 -0.288064
v -0.022778 -0.176925 -0.125932
v -0.026228 -0.178586 -0.131575
v -0.022778 -0.179914 -0.129351
v -0.022778 -0.169510 -0.207339
v -0.026228 -0.167949 -0.207339
v -0.022778 -0.172078 -0.187393
v -0.026228 -0.170699 -0.187393
v -0.026228 -0.164119 -0.236887
v -0.022778 -0.165708 -0.236887
v -0.026228 -0.161541 -0.257867
v -0.022778 -0.163008 -0.257867
v -0.022778 0.005975 -0.129382
v -0.026228 0.004321 -0.131582
v -0.022778 0.002525 -0.125932
v -0.022778 0.002525 -0.291765
v -0.026228 0.004066 -0.288172
v -0.022778 0.005975 -0.288315
v 0.024957 -0.021328 -0.104297
v 0.023807 -0.021328 -0.105447
v 0.023807 -0.020178 -0.104297
v 0.024957 -0.032303 -0.104297
v 0.023807 -0.033453 -0.104297
v 0.023807 -0.032303 -0.105447
v 0.024957 -0.021328 -0.084988
v 0.023807 -0.020178 -0.084988
v 0.023807 -0.021328 -0.083838
v 0.024957 -0.032303 -0.084988
v 0.023807 -0.032303 -0.083838
v 0.023807 -0.033453 -0.084988
v -0.026842 -0.021328 -0.104297
v -0.025692 -0.020178 -0.104297
v -0.025692 -0.021328 -0.105447
v -0.026842 -0.032303 -0.104297
v -0.025692 -0.032303 -0.105447
v -0.025692 -0.033453 -0.104297
v -0.026842 -0.021328 -0.084988
v -0.025692 -0.021328 -0.083838
v -0.025692 -0.020178 -0.084988
v -0.026842 -0.032303 -0.084988
v -0.025692 -0.033453 -0.084988
v -0.025692 -0.032303 -0.083838
v 0.019536 -0.038758 -0.027363
v 0.019536 -0.038758 -0.035819
v 0.019536 -0.058295 -0.035819
v 0.019536 -0.060046 -0.031591
v 0.019536 -0.058295 -0.027363
v 0.019536 -0.034451 -0.024221
v 0.019536 -0.030217 -0.026380
v 0.019536 -0.027041 -0.031591
v 0.019536 -0.030217 -0.036802
v 0.019536 -0.034451 -0.038961
v 0.019536 -0.038806 -0.036802
v 0.019536 -0.038806 -0.026380
v -0.021421 -0.038758 -0.027363
v -0.021421 -0.038758 -0.035819
v -0.021421 -0.058295 -0.035819
v -0.021421 -0.060046 -0.031591
v -0.021421 -0.058295 -0.027363
v -0.021421 -0.034451 -0.024221
v -0.021421 -0.030217 -0.026380
v -0.021421 -0.027041 -0.031591
v -0.021421 -0.030217 -0.036802
v -0.021421 -0.034451 -0.038961
v -0.021421 -0.038806 -0.036802
v -0.021421 -0.038806 -0.026380
v 0.024780 -0.034451 -0.025466
v 0.023630 -0.034451 -0.024221
v 0.024780 -0.030915 -0.027336
v 0.023630 -0.030217 -0.026380
v 0.024780 -0.028546 -0.031591
v 0.023630 -0.027041 -0.031591
v 0.024780 -0.030915 -0.035847
v 0.023630 -0.030217 -0.036802
v 0.024780 -0.034451 -0.037717
v 0.023630 -0.034451 -0.038961
v 0.023630 -0.038806 -0.036802
v 0.024780 -0.038806 -0.035558
v 0.024780 -0.038806 -0.027624
v 0.023630 -0.038806 -0.026380
v 0.022210 -0.038758 -0.027363
v 0.023360 -0.038758 -0.028513
v 0.023360 -0.038758 -0.034669
v 0.022210 -0.038758 -0.035819
v 0.023360 -0.057526 -0.034669
v 0.022210 -0.058295 -0.035819
v 0.023360 -0.058802 -0.031591
v 0.022210 -0.060046 -0.031591
v 0.023360 -0.057526 -0.028513
v 0.022210 -0.058295 -0.027363
v -0.026665 -0.034451 -0.025466
v -0.025515 -0.034451 -0.024221
v -0.025515 -0.030217 -0.026380
v -0.026665 -0.030915 -0.027336
v -0.025515 -0.027041 -0.031591
v -0.026665 -0.028546 -0.031591
v -0.025515 -0.030217 -0.036802
v -0.026665 -0.030915 -0.035847
v -0.025515 -0.034451 -0.038961
v -0.026665 -0.034451 -0.037717
v -0.026665 -0.038806 -0.035558
v -0.025515 -0.038806 -0.036802
v -0.025515 -0.038806 -0.026380
v -0.026665 -0.038806 -0.027624
v -0.025245 -0.038758 -0.028513
v -0.024095 -0.038758 -0.027363
v -0.024095 -0.038758 -0.035819
v -0.025245 -0.038758 -0.034669
v -0.024095 -0.058295 -0.035819
v -0.025245 -0.057526 -0.034669
v -0.024095 -0.060046 -0.031591
v -0.025245 -0.058801 -0.031591
v -0.024095 -0.058295 -0.027363
v -0.025245 -0.057526 -0.028513
v 0.007382 0.051290 -0.013928
v 0.007382 0.057040 -0.013928
v 0.007382 0.051290 -0.312139
v 0.010257 0.059915 -0.312139
v 0.007382 0.057040 -0.312139
v -0.009868 0.051290 -0.013928
v -0.009868 0.057040 -0.013928
v -0.009868 0.051290 -0.312139
v -0.012743 0.059915 -0.312139
v -0.009868 0.057040 -0.312139
v 0.007382 0.062790 -0.013928
v 0.010257 0.059915 -0.013928
v 0.007382 0.062790 -0.312139
v -0.009868 0.062790 -0.013928
v -0.012743 0.059915 -0.013928
v -0.009868 0.062790 -0.312139
v 0.007382 -0.015273 -0.757477
v 0.007382 -0.021023 -0.757477
v 0.007382 -0.015273 -0.613773
v 0.010257 -0.023898 -0.613773
v 0.007382 -0.021023 -0.613773
v -0.009868 -0.015273 -0.757477
v -0.009868 -0.021023 -0.757477
v -0.009868 -0.015273 -0.613773
v -0.012743 -0.023898 -0.613773
v -0.009868 -0.021023 -0.613773
v 0.007382 -0.026773 -0.757477
v 0.010257 -0.023898 -0.757477
v 0.007382 -0.026773 -0.613773
v -0.009868 -0.026773 -0.757477
v -0.012743 -0.023898 -0.757477
v -0.009868 -0.026773 -0.613773
v 0.007382 0.051290 -0.757477
v 0.010257 0.059915 -0.757477
v 0.007382 0.057040 -0.757477
v -0.009868 0.051290 -0.757477
v -0.012743 0.059915 -0.757477
v -0.009868 0.057040 -0.757477
v 0.007382 0.062790 -0.757477
v -0.009868 0.062790 -0.757477
v 0.007382 0.051290 -0.613773
v 0.010257 0.059915 -0.613773
v 0.007382 0.057040 -0.613773
v -0.009868 0.051290 -0.613773
v -0.012743 0.059915 -0.613773
v -0.009868 0.057040 -0.613773
v 0.007382 0.062790 -0.613773
v -0.009868 0.062790 -0.613773
v 0.040988 0.017298 0.274206
v 0.028707 0.047028 0.274206
v -0.030592 0.047028 0.274206
v -0.042874 0.017298 0.274206
v -0.030592 -0.106357 0.274206
v 0.008939 0.056723 0.274206
v -0.010824 0.056723 0.274206
v 0.040988 0.017298 0.253683
v 0.028707 0.047028 0.253683
v -0.030592 0.047028 0.253683
v -0.042874 0.017298 0.253683
v -0.030592 -0.106357 0.253683
v 0.008939 0.056723 0.253683
v -0.010824 0.056723 0.253683
v 0.040988 0.006433 0.290805
v 0.028707 0.036164 0.290805
v -0.030592 0.036164 0.290805
v -0.042874 0.006433 0.290805
v -0.030592 -0.084680 0.290805
v 0.008939 0.045857 0.290805
v -0.010824 0.045857 0.290805
v -0.017732 -0.097429 0.253683
v -0.017732 -0.012952 0.109644
v -0.017732 -0.079698 0.253683
v -0.017732 -0.012952 0.124992
v 0.008049 -0.061743 0.223159
v 0.008049 -0.081405 0.223159
v 0.008049 -0.012591 0.223159
v 0.011773 -0.081405 0.232150
v 0.011773 -0.012591 0.232150
v 0.008049 -0.012591 0.241141
v -0.000943 -0.081405 0.244866
v -0.000943 -0.012591 0.244866
v -0.009934 -0.081405 0.241141
v -0.009934 -0.012591 0.241141
v -0.013659 -0.012591 0.232150
v -0.009934 -0.081405 0.223159
v -0.009934 -0.012591 0.223159
v 0.014291 -0.057488 0.217102
v -0.016176 -0.057488 0.217102
v 0.014291 -0.059077 0.213266
v -0.016176 -0.059077 0.213266
v 0.014291 -0.057488 0.209431
v -0.016176 -0.057488 0.209431
v 0.014291 -0.053653 0.207843
v -0.016176 -0.053653 0.207843
v -0.016176 -0.053653 0.218690
v 0.014291 -0.053653 0.218690
v -0.016176 -0.049818 0.217102
v 0.014291 -0.049818 0.217102
v -0.016176 -0.048229 0.213266
v 0.014291 -0.048229 0.213266
v -0.016176 -0.049818 0.209431
v 0.014291 -0.049818 0.209431
v 0.008049 -0.081405 0.241141
v -0.013659 -0.081405 0.232150
v -0.009934 -0.061743 0.223159
v 0.030039 -0.092940 0.274206
v 0.017207 -0.106357 0.274206
v 0.030032 -0.093015 0.253683
v 0.017207 -0.106357 0.253683
v 0.017207 -0.084680 0.290805
v 0.030523 -0.071208 0.290805
v 0.012962 -0.097429 0.253683
v 0.017685 -0.091641 0.253683
v 0.017685 -0.012952 0.115309
v 0.012962 -0.012952 0.109644
v 0.017685 -0.085444 0.253683
v 0.012962 -0.079698 0.253683
v 0.012962 -0.012952 0.124992
v 0.017685 -0.012952 0.119283
v 0.008049 -0.012591 0.205963
v 0.002321 -0.012591 0.200236
v 0.002321 -0.061743 0.200236
v 0.008049 -0.061743 0.205963
v -0.004207 -0.012591 0.200236
v -0.009934 -0.012591 0.205963
v -0.009934 -0.061743 0.205963
v -0.004207 -0.061743 0.200236
v 0.001221 -0.050211 -0.062136
v -0.003107 -0.050211 -0.062136
v 0.001221 -0.050211 -0.076956
v -0.003107 -0.050211 -0.076956
v 0.001221 -0.088429 -0.076508
v -0.003107 -0.088429 -0.076508
v 0.001221 -0.088429 -0.078957
v -0.003107 -0.088429 -0.078957
v -0.003107 -0.059765 -0.062136
v -0.003107 -0.069321 -0.064137
v -0.003107 -0.078875 -0.068503
v -0.003107 -0.078875 -0.074772
v -0.003107 -0.069321 -0.072407
v -0.003107 -0.059765 -0.072771
v 0.001221 -0.059765 -0.062136
v 0.001221 -0.069321 -0.064137
v 0.001221 -0.078875 -0.068503
v 0.001221 -0.059765 -0.072771
v 0.001221 -0.069321 -0.072407
v 0.001221 -0.078875 -0.074772
v -0.003107 -0.050211 -0.071714
v 0.001221 -0.050211 -0.071714
v -0.003107 -0.088429 -0.078091
v 0.001221 -0.088429 -0.078091
v 0.001221 -0.059765 -0.069009
v 0.001221 -0.069321 -0.069482
v 0.001221 -0.078875 -0.072555
v -0.003107 -0.059765 -0.069009
v -0.003107 -0.069321 -0.069482
v -0.003107 -0.078875 -0.072555
v 0.002211 -0.050211 -0.071714
v 0.002211 -0.050211 -0.076956
v 0.002211 -0.088429 -0.078091
v 0.002211 -0.088429 -0.078957
v -0.004096 -0.059765 -0.072771
v -0.004096 -0.050211 -0.076956
v 0.002211 -0.078875 -0.074772
v -0.004096 -0.088429 -0.078957
v -0.004096 -0.078875 -0.074772
v -0.004096 -0.069321 -0.072407
v 0.002211 -0.059765 -0.072771
v 0.002211 -0.069321 -0.072407
v 0.002211 -0.059765 -0.069009
v 0.002211 -0.069321 -0.069482
v 0.002211 -0.078875 -0.072555
v -0.004096 -0.050211 -0.071714
v -0.004096 -0.088429 -0.078091
v -0.004096 -0.059765 -0.069009
v -0.004096 -0.069321 -0.069482
v -0.004096 -0.078875 -0.072555
v 0.006302 -0.051485 -0.043331
v -0.008187 -0.051485 -0.043331
v 0.006302 -0.051485 -0.053125
v -0.008187 -0.051485 -0.053125
v -0.008187 -0.093239 -0.043331
v 0.006302 -0.086701 -0.053125
v 0.006302 -0.093239 -0.043331
v -0.008187 -0.086701 -0.053125
v 0.006302 -0.099452 -0.066165
v -0.008187 -0.099452 -0.066165
v 0.006302 -0.092892 -0.067297
v -0.008187 -0.092892 -0.067297
v 0.006302 -0.100105 -0.090051
v -0.008187 -0.100105 -0.090051
v 0.006302 -0.093451 -0.090242
v -0.008187 -0.093451 -0.090242
v 0.006302 -0.092845 -0.107264
v -0.008187 -0.092845 -0.107264
v 0.006302 -0.087068 -0.103960
v -0.008187 -0.087068 -0.103960
v 0.006302 -0.085114 -0.113304
v -0.008187 -0.085114 -0.113304
v 0.006302 -0.078728 -0.111426
v -0.008187 -0.078728 -0.111426
v 0.013415 -0.051485 -0.044342
v -0.015301 -0.051485 -0.044342
v 0.007829 -0.110122 -0.031009
v -0.009715 -0.110122 -0.031009
v 0.007829 -0.120344 -0.024317
v -0.009715 -0.120344 -0.024317
v -0.009715 -0.169465 0.006028
v 0.007829 -0.169465 0.006028
v -0.009715 -0.159243 -0.000662
v 0.007829 -0.159243 -0.000662
v -0.006894 -0.170981 -0.003276
v 0.005009 -0.170981 -0.003276
v -0.006894 -0.167163 -0.005775
v 0.005009 -0.167163 -0.005775
v -0.006894 -0.121860 -0.033621
v 0.005009 -0.121860 -0.033621
v -0.006894 -0.118043 -0.036120
v 0.005009 -0.118043 -0.036120
v -0.009551 -0.092511 -0.044342
v -0.015301 -0.089361 -0.039531
v -0.015301 -0.086761 -0.044342
v 0.013415 -0.089361 -0.039531
v 0.007665 -0.092511 -0.044342
v 0.013415 -0.086761 -0.044342
v 0.007665 -0.051485 -0.001260
v 0.013415 -0.051485 -0.006479
v -0.015301 -0.051485 -0.006479
v -0.009551 -0.051485 -0.001260
v -0.015301 -0.067713 -0.006458
v -0.009551 -0.064311 -0.001260
v 0.007665 -0.064311 -0.001260
v 0.013415 -0.067713 -0.006458
v -0.015301 -0.167945 0.011906
v -0.009551 -0.169465 0.006028
v 0.007665 -0.169465 0.006028
v 0.013415 -0.167945 0.011906
v -0.009551 -0.155848 0.058655
v -0.015301 -0.157487 0.052324
v 0.013415 -0.157487 0.052324
v 0.007665 -0.155848 0.058655
v 0.028047 0.013979 -0.126224
v 0.028047 0.013979 -0.307372
v 0.019678 0.037796 -0.126224
v 0.019678 0.037796 -0.307372
v 0.028047 0.013979 -0.088902
v 0.024243 0.024804 -0.088902
v 0.028047 0.013979 -0.234808
v 0.019678 0.037796 -0.234808
v 0.020166 0.032858 -0.229576
v 0.021040 0.033916 -0.126959
v 0.024206 0.021364 -0.094136
v 0.025067 0.018917 -0.094136
v 0.026683 0.017860 -0.126224
v 0.025067 0.018917 -0.229576
v 0.021040 0.033916 -0.230696
v 0.020166 0.032858 -0.127159
v 0.025193 0.022101 -0.093014
v 0.026683 0.017860 -0.093014
v 0.025067 0.018917 -0.126224
v 0.026683 0.017860 -0.230696
v 0.018788 0.032858 -0.127159
v 0.018788 0.018917 -0.126224
v 0.018788 0.032858 -0.229576
v 0.018788 0.021364 -0.094136
v 0.018788 0.018917 -0.094136
v 0.018788 0.018917 -0.229576
v -0.015884 0.077807 -0.030580
v 0.011779 0.077807 -0.030580
v -0.015884 0.075828 -0.035360
v 0.011779 0.075828 -0.035360
v -0.015884 0.071047 -0.037339
v 0.011779 0.071047 -0.037339
v -0.015884 0.066268 -0.035360
v 0.011779 0.066268 -0.035360
v -0.015884 0.064287 -0.030580
v 0.011779 0.064287 -0.030580
v -0.015884 0.066268 -0.025800
v 0.011779 0.066268 -0.025800
v -0.015884 0.071047 -0.023821
v 0.011779 0.071047 -0.023821
v -0.015884 0.075828 -0.025800
v 0.011779 0.075828 -0.025800
v -0.004023 0.120120 -0.026616
v -0.004023 0.120120 -0.034545
v -0.005298 0.117040 -0.026616
v -0.005298 0.117040 -0.034545
v -0.004023 0.113962 -0.026616
v -0.004023 0.113962 -0.034545
v 0.002137 0.113962 -0.026616
v 0.002137 0.113962 -0.034545
v 0.003413 0.117040 -0.026616
v 0.003413 0.117040 -0.034545
v 0.002137 0.120120 -0.026616
v 0.002137 0.120120 -0.034545
v -0.006044 0.122143 -0.026616
v -0.006044 0.122143 -0.034545
v -0.008157 0.117040 -0.026616
v -0.008157 0.117040 -0.034545
v -0.006044 0.111939 -0.026616
v -0.006044 0.111939 -0.034545
v -0.006044 0.071047 -0.026616
v -0.006044 0.071047 -0.034545
v 0.004158 0.111939 -0.026616
v 0.004158 0.111939 -0.034545
v 0.006272 0.117040 -0.026616
v 0.006272 0.117040 -0.034545
v 0.004158 0.122143 -0.026616
v 0.004158 0.122143 -0.034545
v 0.004158 0.071047 -0.026616
v 0.004158 0.071047 -0.034545
v -0.015884 0.081030 -0.030580
v -0.015884 0.078106 -0.037640
v -0.015884 0.071047 -0.040563
v -0.015884 0.063988 -0.037640
v -0.015884 0.061065 -0.030580
v -0.015884 0.063988 -0.023521
v -0.015884 0.071047 -0.020598
v -0.015884 0.078106 -0.023521
v -0.023843 0.079557 -0.030580
v -0.023843 0.077065 -0.036598
v -0.023843 0.071047 -0.039090
v -0.023843 0.065030 -0.036598
v -0.023843 0.062537 -0.030580
v -0.023843 0.065030 -0.024563
v -0.023843 0.071047 -0.022070
v -0.023843 0.077065 -0.024563
v -0.000943 0.113174 -0.026616
v -0.000943 0.113174 -0.034545
v -0.022035 0.071047 -0.040563
v -0.022035 0.078106 -0.037640
v -0.022035 0.078106 -0.023521
v -0.022035 0.071047 -0.020598
v -0.022035 0.063988 -0.023521
v -0.022035 0.061065 -0.030580
v -0.022035 0.063988 -0.037640
v -0.022035 0.081030 -0.030580
v -0.013593 0.080069 -0.030580
v 0.011107 0.080069 -0.030580
v -0.006776 0.064202 -0.033156
v -0.013593 0.077426 -0.036959
v 0.011107 0.077426 -0.036959
v 0.004890 0.064202 -0.033156
v -0.013593 0.071047 -0.039601
v 0.011107 0.071047 -0.039601
v 0.011107 0.054424 -0.021559
v -0.013593 0.054424 -0.021559
v 0.011107 0.054424 -0.039601
v -0.013593 0.054424 -0.039601
v -0.013593 0.071047 -0.021559
v 0.011107 0.071047 -0.021559
v -0.013593 0.077426 -0.024201
v 0.011107 0.077426 -0.024201
v -0.006776 0.080069 -0.030580
v 0.004890 0.079002 -0.033156
v 0.004890 0.080069 -0.030580
v -0.006776 0.079002 -0.033156
v -0.006776 0.064202 -0.021559
v 0.004890 0.071047 -0.021559
v -0.006776 0.071047 -0.021559
v 0.004890 0.064202 -0.021559
v -0.006776 0.077426 -0.024201
v 0.004890 0.077426 -0.024201
v -0.000943 0.121396 -0.734444
v -0.000943 0.121396 -0.742372
v -0.004023 0.120120 -0.734444
v -0.004023 0.120120 -0.742372
v -0.005298 0.117040 -0.734444
v -0.005298 0.117040 -0.742372
v -0.004023 0.113962 -0.734444
v -0.004023 0.113962 -0.742372
v 0.002137 0.113962 -0.734444
v 0.002137 0.113962 -0.742372
v 0.003413 0.117040 -0.734444
v 0.003413 0.117040 -0.742372
v 0.002137 0.120120 -0.734444
v 0.002137 0.120120 -0.742372
v -0.000943 0.124255 -0.734444
v -0.006044 0.122143 -0.734444
v -0.006044 0.122143 -0.742372
v -0.000943 0.124255 -0.742372
v -0.008157 0.117040 -0.734444
v -0.008157 0.117040 -0.742372
v -0.006044 0.111939 -0.734444
v -0.006044 0.111939 -0.742372
v -0.006044 0.072587 -0.734444
v -0.006044 0.072587 -0.742372
v 0.004158 0.111939 -0.734444
v 0.004158 0.111939 -0.742372
v 0.006272 0.117040 -0.734444
v 0.006272 0.117040 -0.742372
v 0.004158 0.122143 -0.734444
v 0.004158 0.122143 -0.742372
v 0.004158 0.072587 -0.734444
v 0.004158 0.072587 -0.742372
v 0.000294 0.113174 -0.734444
v -0.002179 0.113174 -0.734444
v -0.002179 0.113174 -0.742372
v 0.000294 0.113174 -0.742372
v 0.000294 0.117040 -0.734444
v -0.002179 0.117040 -0.734444
v -0.002179 0.117040 -0.742372
v 0.000294 0.117040 -0.742372
v -0.015588 0.079801 -0.738408
v 0.013703 0.079801 -0.738408
v -0.015588 0.077688 -0.743510
v 0.013703 0.077688 -0.743510
v -0.015588 0.072587 -0.745622
v 0.013703 0.072587 -0.745622
v -0.015588 0.067485 -0.743510
v 0.013703 0.067485 -0.743510
v -0.015588 0.065372 -0.738408
v 0.013703 0.065372 -0.738408
v -0.015588 0.067485 -0.733307
v 0.013703 0.067485 -0.733307
v -0.015588 0.072587 -0.731193
v 0.013703 0.072587 -0.731193
v -0.015588 0.077688 -0.733307
v 0.013703 0.077688 -0.733307
v -0.013565 0.057080 -0.727485
v -0.013565 0.057080 -0.748187
v -0.007044 0.064871 -0.741692
v 0.011079 0.057080 -0.727485
v 0.011079 0.057080 -0.748187
v 0.005159 0.064871 -0.741692
v -0.013565 0.080069 -0.748187
v 0.011079 0.080069 -0.748187
v -0.007044 0.080069 -0.741692
v 0.005159 0.080069 -0.741692
v 0.005159 0.064871 -0.727485
v -0.007044 0.064871 -0.727485
v 0.031116 0.046256 0.013211
v 0.041302 0.019135 0.173229
v 0.031116 0.046256 0.173229
v -0.033002 0.046256 0.173229
v -0.043188 0.019135 0.173229
v 0.041302 0.019135 0.013211
v 0.010968 0.058559 0.173229
v -0.012852 0.058559 0.173229
v -0.033002 0.046256 0.013211
v -0.043188 0.019135 0.013211
v 0.010968 0.058559 0.013211
v -0.012852 0.058559 0.013211
v 0.026685 0.042591 0.013211
v 0.035920 0.017113 0.173229
v 0.026685 0.042591 0.173229
v -0.028571 0.042591 0.173229
v -0.037805 0.017113 0.173229
v 0.035920 0.017113 0.013211
v 0.009410 0.053024 0.173229
v -0.011296 0.053024 0.173229
v -0.028571 0.042591 0.013211
v -0.037805 0.017113 0.013211
v 0.009410 0.053024 0.013211
v -0.011296 0.053024 0.013211
v -0.017732 -0.068293 0.109644
v -0.017732 -0.097429 0.138432
v -0.017732 -0.081273 0.154206
v -0.017732 -0.052600 0.124992
v 0.012962 -0.097429 0.138471
v 0.012962 -0.068257 0.109644
v 0.017685 -0.062223 0.115308
v 0.017685 -0.091639 0.144356
v 0.017685 -0.087106 0.148771
v 0.017685 -0.058157 0.119284
v 0.012962 -0.052563 0.124992
v 0.012962 -0.081273 0.154237
v 0.020905 -0.030785 -0.044814
v 0.020905 -0.030650 -0.043870
v 0.020905 -0.031193 -0.043193
v 0.020905 -0.035441 -0.045939
v 0.020905 -0.036830 -0.042149
v 0.020905 -0.035404 -0.042149
v 0.020905 -0.036230 -0.043135
v 0.020905 -0.036328 -0.044335
v 0.020905 -0.031030 -0.042149
v 0.020905 -0.029681 -0.044753
v 0.020905 -0.031333 -0.045939
v 0.020215 -0.030785 -0.044814
v 0.020215 -0.030650 -0.043870
v 0.020215 -0.031193 -0.043193
v 0.020215 -0.035441 -0.045939
v 0.020215 -0.037221 -0.045299
v 0.020905 -0.037221 -0.045299
v 0.020215 -0.037359 -0.043199
v 0.020905 -0.037359 -0.043199
v 0.020215 -0.036830 -0.042149
v 0.020215 -0.035404 -0.042149
v 0.020215 -0.036230 -0.043135
v 0.020215 -0.036328 -0.044335
v 0.020215 -0.035580 -0.044895
v 0.020905 -0.035580 -0.044895
v 0.020215 -0.031030 -0.042149
v 0.020215 -0.029685 -0.043293
v 0.020905 -0.029685 -0.043293
v 0.020215 -0.029681 -0.044753
v 0.020215 -0.030056 -0.045939
v 0.020905 -0.030056 -0.045939
v 0.020215 -0.031333 -0.045939
v 0.020905 -0.017324 -0.030406
v 0.020905 -0.019497 -0.033465
v 0.020905 -0.020509 -0.033465
v 0.020905 -0.020509 -0.030406
v 0.020905 -0.024155 -0.030406
v 0.020905 -0.024155 -0.029279
v 0.020215 -0.017324 -0.030406
v 0.020215 -0.019497 -0.030406
v 0.020905 -0.019497 -0.030406
v 0.020215 -0.019497 -0.033465
v 0.020215 -0.020509 -0.033465
v 0.020215 -0.020509 -0.030406
v 0.020215 -0.024155 -0.030406
v 0.020215 -0.024155 -0.029279
v 0.020215 -0.016312 -0.029279
v 0.020905 -0.016312 -0.029279
v 0.020215 -0.016312 -0.033465
v 0.020905 -0.016312 -0.033465
v 0.020215 -0.017324 -0.033465
v 0.020905 -0.017324 -0.033465
v 0.020905 -0.033812 -0.045109
v 0.020905 -0.032233 -0.043569
v 0.020215 -0.032233 -0.043569
v 0.020215 -0.033812 -0.045109
v 0.020215 -0.034539 -0.044031
v 0.020215 -0.032954 -0.042501
v 0.020905 -0.032954 -0.042501
v 0.020905 -0.034539 -0.044032
v -0.022791 -0.036049 -0.044814
v -0.022791 -0.036185 -0.043870
v -0.022791 -0.035642 -0.043193
v -0.022791 -0.031394 -0.045939
v -0.022791 -0.030005 -0.042149
v -0.022791 -0.031431 -0.042149
v -0.022791 -0.030605 -0.043135
v -0.022791 -0.030506 -0.044335
v -0.022791 -0.035804 -0.042149
v -0.022791 -0.037153 -0.044753
v -0.022791 -0.035502 -0.045939
v -0.022101 -0.036049 -0.044814
v -0.022101 -0.036185 -0.043870
v -0.022101 -0.035642 -0.043193
v -0.022101 -0.031394 -0.045939
v -0.022101 -0.029614 -0.045299
v -0.022791 -0.029614 -0.045299
v -0.022101 -0.029477 -0.043199
v -0.022791 -0.029477 -0.043199
v -0.022101 -0.030005 -0.042149
v -0.022101 -0.031431 -0.042149
v -0.022101 -0.030605 -0.043135
v -0.022101 -0.030506 -0.044335
v -0.022101 -0.031256 -0.044895
v -0.022791 -0.031256 -0.044895
v -0.022101 -0.035804 -0.042149
v -0.022101 -0.037150 -0.043293
v -0.022791 -0.037150 -0.043293
v -0.022101 -0.037153 -0.044753
v -0.022101 -0.036778 -0.045939
v -0.022791 -0.036778 -0.045939
v -0.022101 -0.035502 -0.045939
v -0.022791 -0.017324 -0.032402
v -0.022791 -0.019497 -0.029343
v -0.022791 -0.020509 -0.029343
v -0.022791 -0.020509 -0.032402
v -0.022791 -0.024155 -0.032402
v -0.022791 -0.024155 -0.033529
v -0.022101 -0.017324 -0.032402
v -0.022101 -0.019497 -0.032402
v -0.022791 -0.019497 -0.032402
v -0.022101 -0.019497 -0.029343
v -0.022101 -0.020509 -0.029343
v -0.022101 -0.020509 -0.032402
v -0.022101 -0.024155 -0.032402
v -0.022101 -0.024155 -0.033529
v -0.022101 -0.016312 -0.033529
v -0.022791 -0.016312 -0.033529
v -0.022101 -0.016312 -0.029343
v -0.022791 -0.016312 -0.029343
v -0.022101 -0.017324 -0.029343
v -0.022791 -0.017324 -0.029343
v -0.022791 -0.033022 -0.045109
v -0.022791 -0.034601 -0.043569
v -0.022101 -0.034601 -0.043569
v -0.022101 -0.033022 -0.045109
v -0.022101 -0.032295 -0.044031
v -0.022101 -0.033881 -0.042501
v -0.022791 -0.033880 -0.042501
v -0.022791 -0.032295 -0.044032
v 0.046884 0.017979 -0.300814
v 0.046884 0.016215 -0.298432
v 0.046884 0.016215 -0.294593
v 0.046884 0.017979 -0.292210
v 0.054631 0.017979 -0.300814
v 0.056396 0.016215 -0.298432
v 0.054631 0.017979 -0.292210
v 0.056396 0.016215 -0.294593
v 0.046884 0.038048 -0.292210
v 0.046884 0.039812 -0.294593
v 0.046884 0.038048 -0.300814
v 0.046884 0.039812 -0.298432
v 0.054631 0.033179 -0.300814
v 0.056396 0.031415 -0.298432
v 0.056396 0.031415 -0.294593
v 0.054631 0.033179 -0.292210
v 0.074138 0.038048 -0.292210
v 0.075902 0.039812 -0.294593
v 0.074138 0.038048 -0.300814
v 0.075902 0.039812 -0.298432
v 0.074138 0.033179 -0.292210
v 0.075902 0.031415 -0.294593
v 0.074138 0.033179 -0.300814
v 0.075902 0.031415 -0.298432
v -0.013565 0.073138 -0.727485
v -0.013565 0.080069 -0.734416
v 0.011079 0.080069 -0.734416
v 0.011079 0.073138 -0.727485
v -0.007044 0.080069 -0.734416
v -0.007044 0.073138 -0.727485
v 0.005159 0.073138 -0.727485
v 0.005159 0.080069 -0.734416
v 0.046884 0.026547 -0.299698
v 0.046884 0.026547 -0.293327
v 0.025513 0.018398 -0.299698
v 0.022648 0.026547 -0.299698
v 0.025513 0.018398 -0.293327
v 0.022648 0.026547 -0.293327
v 0.046884 0.018398 -0.299698
v 0.046884 0.018398 -0.293327
v -0.033843 0.005323 -0.757477
v -0.044566 0.005323 -0.757477
v -0.033843 0.005323 -0.613773
v -0.047441 0.002448 -0.613773
v -0.044566 0.005323 -0.613773
v -0.033843 0.022573 -0.757477
v -0.044566 0.022573 -0.757477
v -0.033843 0.022573 -0.613773
v -0.047441 0.025448 -0.613773
v -0.044566 0.022573 -0.613773
v -0.050316 0.005323 -0.757477
v -0.047441 0.002448 -0.757477
v -0.050316 0.005323 -0.613773
v -0.050316 0.022573 -0.757477
v -0.047441 0.025448 -0.757477
v -0.050316 0.022573 -0.613773
v 0.031958 0.022573 -0.757477
v 0.042680 0.022573 -0.757477
v 0.031958 0.022573 -0.613773
v 0.045555 0.025448 -0.613773
v 0.042680 0.022573 -0.613773
v 0.031958 0.005323 -0.757477
v 0.042680 0.005323 -0.757477
v 0.031958 0.005323 -0.613773
v 0.045555 0.002448 -0.613773
v 0.042680 0.005323 -0.613773
v 0.048430 0.022573 -0.757477
v 0.045555 0.025448 -0.757477
v 0.048430 0.022573 -0.613773
v 0.048430 0.005323 -0.757477
v 0.045555 0.002448 -0.757477
v 0.048430 0.005323 -0.613773
v -0.055000 -0.070000 -0.480000
v -0.035000 -0.070000 -0.480000
v -0.055000 -0.040000 -0.480000
v -0.035000 -0.040000 -0.480000
v -0.055000 -0.070000 -0.190000
v -0.035000 -0.070000 -0.190000
v -0.055000 -0.040000 -0.190000
v -0.035000 -0.040000 -0.190000
v 0.035000 -0.070000 -0.480000
v 0.055000 -0.070000 -0.480000
v 0.035000 -0.040000 -0.480000
v 0.055000 -0.040000 -0.480000
v 0.035000 -0.070000 -0.190000
v 0.055000 -0.070000 -0.190000
v 0.035000 -0.040000 -0.190000
v 0.055000 -0.040000 -0.190000
v -0.035000 0.055000 0.130000
v 0.035000 0.055000 0.130000
v -0.035000 0.090000 0.130000
v 0.035000 0.090000 0.130000
v -0.035000 0.055000 0.320000
v 0.035000 0.055000 0.320000
v -0.035000 0.090000 0.320000
v 0.035000 0.090000 0.320000
g Body
usemtl M_PCL_Flat_Black
f 768 761 946
f 766 767 946
f 764 765 946
f 762 763 946
f 767 768 946
f 765 766 946
f 763 764 946
f 761 762 946
f 1221 1208 1203 1214
f 1224 1211 1209 1220
f 1216 1222 1219 1213
f 1214 1203 1202 1215
f 1201 1202 1203
f 1204 1205 1206
f 1207 1208 1209
f 1210 1211 1212
f 1213 1214 1215
f 1216 1217 1218
f 1219 1220 1221
f 1222 1223 1224
f 1206 1202 1201 1204
f 1217 1206 1205 1218
f 1221 1220 1209 1208
f 1210 1207 1209 1211
f 1223 1212 1211 1224
f 1212 1223 1218 1205
f 1207 1201 1203 1208
f 1212 1205 1204 1210
f 1216 1213 1215 1217
f 1224 1220 1219 1222
f 1221 1214 1213 1219
f 1222 1216 1218 1223
f 1204 1201 1207 1210
f 1236 1262 1250 1230
f 1232 1254 1256 1233
f 1233 1256 1258 1234
f 1234 1258 1259 1235
f 1259 1260 1261 1262 1236 1235
f 1230 1250 1252 1231
f 1231 1252 1254 1232
f 1266 1268 1227 1226
f 1228 1270 1272 1229
f 1229 1272 1263 1225
f 1276 1278 1280 1282 1283 1286 1273
f 1227 1268 1270 1228
f 1264 1271 1269 1267 1265
f 1248 1242 1274 1285
f 1244 1245 1279 1277
f 1245 1246 1281 1279
f 1246 1247 1284 1281
f 1283 1284 1247 1248 1285 1286
f 1242 1243 1275 1274
f 1243 1244 1277 1275
f 1289 1238 1239 1291
f 1240 1241 1295 1293
f 1241 1237 1288 1295
f 1239 1240 1293 1291
f 1287 1290 1292 1294 1296
f 1252 1250 1249 1251
f 1254 1252 1251 1253
f 1256 1254 1253 1255
f 1258 1256 1255 1257
f 1259 1258 1257 1260
f 1250 1262 1261 1249
f 1268 1266 1265 1267
f 1270 1268 1267 1269
f 1272 1270 1269 1271
f 1263 1272 1271 1264
f 1276 1273 1274 1275
f 1278 1276 1275 1277
f 1280 1278 1277 1279
f 1282 1280 1279 1281
f 1283 1282 1281 1284
f 1273 1286 1285 1274
f 1292 1290 1289 1291
f 1294 1292 1291 1293
f 1296 1294 1293 1295
f 1287 1296 1295 1288
f 1251 1249 1261 1260 1257 1255 1253
f 1350 1351 1365 1364
f 1406 1407 1359 1360 1364 1365 1361 1362 1363
f 1402 1404 1352 1345
f 1347 1354 1355 1348
f 1349 1403 1406 1363
f 1351 1358 1354 1347
f 1348 1355 1356 1349
f 1345 1352 1353 1346
f 1350 1357 1358 1351
f 1346 1353 1357 1350
f 1346 1350 1364 1360
f 1404 1405 1356 1355 1354 1358 1357 1353 1352
f 1347 1348 1362 1361
f 1349 1356 1405 1403
f 1351 1347 1361 1365
f 1348 1349 1363 1362
f 1345 1346 1360 1359
f 1384 1383 1392 1391
f 1390 1389 1387 1388
f 1391 1392 1394 1393
f 1388 1387 1385 1386
f 1386 1385 1383 1384
f 1393 1394 1396 1395
f 1395 1396 1398 1397
f 1397 1398 1389 1390
f 1383 1385 1387 1389 1398 1396 1394 1392
f 1388 1386 1384 1391 1393 1395 1397 1390
f 1403 1405 1404 1402
f 1402 1407 1406 1403
f 1402 1345 1359 1407
f 1453 1446 1429 1434
f 1434 1429 1428 1440
f 1448 1449 1467 1466
f 1443 1430 1431 1435
f 1446 1431 1430 1447
f 1426 1441 1437 1427
f 1441 1442 1436 1437
f 1442 1443 1435 1436
f 1449 1450 1468 1467
f 1430 1443 1460 1457
f 1451 1444 1469 1471
f 1425 1432 1438 1424
f 1432 1433 1439 1438
f 1433 1434 1440 1439
f 1444 1451 1432 1425
f 1451 1452 1433 1432
f 1452 1453 1434 1433
f 1452 1451 1471 1472
f 1437 1436 1463 1458
f 1439 1440 1450 1449
f 1438 1439 1449 1448
f 1424 1438 1448 1445
f 1429 1446 1447 1428
f 1440 1428 1447 1450
f 1446 1453 1473 1470
f 1468 1456 1457 1460
f 1454 1466 1464 1455
f 1466 1467 1465 1464
f 1467 1468 1460 1465
f 1463 1462 1473 1472
f 1458 1463 1472 1471
f 1459 1458 1471 1469
f 1462 1461 1470 1473
f 1441 1426 1455 1464
f 1445 1448 1466 1454
f 1447 1430 1457 1456
f 1442 1441 1464 1465
f 1435 1431 1461 1462
f 1443 1442 1465 1460
f 1431 1446 1470 1461
f 1450 1447 1456 1468
f 1436 1435 1462 1463
f 1427 1437 1458 1459
f 1453 1452 1472 1473
f 1500 1502 1513 1515
f 1503 1501 1514 1512
f 1501 1500 1515 1514
f 1514 1515 1513 1512
f 1510 1511 1509 1508
f 1506 1507 1511 1510
f 1504 1506 1510 1508
f 1507 1505 1509 1511
f 1505 1504 1508 1509
f 1502 1503 1512 1513
f 1559 1563 1560 1558
f 1564 1565 1567 1566
f 1566 1567 1569 1568
f 1568 1569 1571 1570
f 1570 1571 1573 1572
f 1572 1573 1575 1574
f 1574 1575 1577 1576
f 1567 1565 1579 1577 1575 1573 1571 1569
f 1576 1577 1579 1578
f 1578 1579 1565 1564
f 1616 1617 1618 1619 1620 1621 1622 1623
f 1592 1593 1595 1594
f 1594 1595 1597 1596
f 1586 1587 1625 1624
f 1597 1601 1607 1599
f 1600 1601 1603 1602
f 1588 1589 1587 1586
f 1602 1603 1605 1604
f 1590 1591 1589 1588
f 1582 1580 1592 1594
f 1581 1583 1595 1593
f 1584 1582 1594 1596
f 1583 1585 1597 1595
f 1596 1597 1599 1598
f 1600 1596 1598 1606
f 1588 1586 1600 1602
f 1587 1589 1603 1601
f 1590 1588 1602 1604
f 1589 1591 1605 1603
f 1625 1587 1601 1597 1585
f 1586 1624 1584 1596 1600
f 1584 1585 1583 1582
f 1582 1583 1581 1580
f 1601 1600 1606 1607
f 1608 1615 1614 1613 1612 1611 1610 1609
f 1627 1626 1618 1617
f 1629 1628 1623 1622
f 1631 1630 1621 1620
f 1626 1632 1619 1618
f 1633 1627 1617 1616
f 1628 1633 1616 1623
f 1630 1629 1622 1621
f 1632 1631 1620 1619
f 1624 1625 1585 1584
f 1611 1612 1631 1632
f 1613 1614 1629 1630
f 1615 1608 1633 1628
f 1608 1609 1627 1633
f 1610 1611 1632 1626
f 1612 1613 1630 1631
f 1614 1615 1628 1629
f 1609 1610 1626 1627
f 1593 1592 1580 1581
f 1604 1605 1591 1590
f 1635 1638 1637 1634 1650 1653 1651 1652
f 1637 1638 1641 1640
f 1646 1643 1642 1647 1655 1657 1654 1656
f 1641 1647 1642 1644
f 1648 1634 1637 1640 1646
f 1641 1638 1635 1649 1647
f 1640 1641 1644 1645
f 1647 1649 1659 1655
f 1648 1646 1656 1658
f 1659 1649 1635 1652
f 1634 1648 1658 1650
f 1646 1640 1645 1643
f 1643 1645 1644 1642
f 1639 1636 1654 1657
f 1653 1636 1639 1651
f 1658 1656 1654 1636 1653 1650
f 1652 1651 1639 1657 1655 1659
f 1693 1694 1667 1666
f 1674 1677 1676 1675
f 1675 1676 1679 1678
f 1668 1669 1695 1692
f 1681 1685 1691 1683
f 1678 1679 1681 1680
f 1670 1671 1669 1668
f 1684 1685 1687 1686
f 1686 1687 1689 1688
f 1672 1673 1671 1670
f 1662 1660 1674 1675
f 1661 1663 1676 1677
f 1664 1662 1675 1678
f 1663 1665 1679 1676
f 1666 1664 1678 1680
f 1665 1667 1681 1679
f 1688 1689 1677 1674
f 1684 1680 1682 1690
f 1670 1668 1684 1686
f 1669 1671 1687 1685
f 1672 1670 1686 1688
f 1671 1673 1689 1687
f 1660 1672 1688 1674
f 1673 1661 1677 1689
f 1694 1695 1669 1685 1681 1667
f 1668 1692 1693 1666 1680 1684
f 1666 1667 1665 1664
f 1664 1665 1663 1662
f 1662 1663 1661 1660
f 1660 1661 1673 1672
f 1680 1681 1683 1682
f 1693 1692 1696 1697
f 1695 1694 1698 1699
f 1696 1699 1698 1697
f 1694 1693 1697 1698
f 1692 1695 1699 1696
f 1700 1701 1703 1702
f 1702 1703 1705 1704
f 1704 1705 1707 1706
f 1706 1707 1709 1708
f 1708 1709 1711 1710
f 1710 1711 1713 1712
f 1703 1701 1715 1713 1711 1709 1707 1705
f 1712 1713 1715 1714
f 1714 1715 1701 1700
f 1685 1684 1690 1691
f 1700 1702 1704 1706 1708 1710 1712 1714
f 1717 1720 1719 1716
f 1720 1723 1910 1911 1719
f 1717 1722 1723 1720
f 1910 1723 1722 1909 1912 1724 1725 1915
f 1727 1718 1724 1912 1913
f 1716 1908 1909 1722 1717
f 1721 1718 1727 1726
f 1724 1718 1721 1725
f 1914 1915 1725 1721 1726
f 1891 1889 1897 1898
f 1886 1885 1889 1891
f 1901 1893 1892 1900
f 1887 1890 1899 1892
f 1894 1902 1906 1896
f 1899 1904 1900 1892
f 1898 1897 1907 1905
f 1905 1907 1903 1901
f 1891 1898 1899 1890
f 1884 1894 1896 1888
f 1889 1885 1884 1888
f 1890 1887 1886 1891
f 1895 1903 1902 1894
f 1895 1893 1901 1903
f 1905 1901 1900 1904
f 1903 1907 1906 1902
f 1907 1897 1896 1906
f 1898 1905 1904 1899
f 1228 1229 1225 1226 1227
f 1240 1239 1238 1237 1241
f 1908 1913 1912 1909
f 1910 1915 1914 1911
f 1908 1716 1719 1911 1914 1726 1727 1913
f 1215 1202 1206 1217
f 1897 1889 1888 1896
f 1892 1893 1895 1894 1884 1885 1886 1887
g Body
usemtl M_PCL_Flat_Black_Lighter
f 952 967 966 953
f 951 970 967 952
f 949 974 971 950
f 947 978 975 948
f 953 966 963 954
f 984 959 960 968
f 980 957 958 972
f 992 955 956 976
f 976 956 957 980
f 972 958 959 984
f 968 960 961 988
f 988 961 962 964
f 948 975 974 949
f 950 971 970 951
f 954 963 978 947
f 954 947 948 949 950 951 952 953
f 960 959 958 957 956 955 962 961
f 979 973 981 982
f 983 969 985 986
f 987 965 989 990
f 991 977 993 994
f 977 979 982 993
f 973 983 986 981
f 969 987 990 985
f 965 991 994 989
f 964 962 955 992
f 973 979 976 980
f 982 981 974 975
f 969 983 972 984
f 986 985 970 971
f 965 987 968 988
f 990 989 966 967
f 977 991 964 992
f 994 993 978 963
f 979 977 992 976
f 993 982 975 978
f 983 973 980 972
f 981 986 971 974
f 987 969 984 968
f 985 990 967 970
f 991 965 988 964
f 989 994 963 966
f 1308 1311 1303 1298
f 1298 1303 1302 1297
f 1308 1298 1301 1300
f 1298 1297 1299 1301
f 1301 1306 1305 1300
f 1311 1305 1306 1303
f 1303 1306 1304 1302
f 1299 1304 1306 1301
f 1308 1300 1309 1307
f 1310 1307 1309 1312
f 1307 1310 1311 1308
f 1311 1310 1312 1305
f 1300 1305 1312 1309
f 1324 1327 1319 1314
f 1314 1319 1318 1313
f 1324 1314 1317 1316
f 1314 1313 1315 1317
f 1317 1322 1321 1316
f 1327 1321 1322 1319
f 1319 1322 1320 1318
f 1315 1320 1322 1317
f 1324 1316 1325 1323
f 1326 1323 1325 1328
f 1323 1326 1327 1324
f 1327 1326 1328 1321
f 1316 1321 1328 1325
f 1331 1334 1333 1330
f 1329 1332 1334 1331
f 1330 1333 1336 1335
f 1339 1338 1341 1342
f 1337 1339 1342 1340
f 1338 1343 1344 1341
f 1334 1342 1341 1333
f 1331 1339 1337 1329
f 1335 1343 1338 1330
f 1332 1340 1342 1334
f 1330 1338 1339 1331
f 1333 1341 1344 1336
f 1336 1344 1343 1335
f 1372 1370 1419 1416
f 1381 1401 1370 1371
f 1370 1372 1374 1373
f 1373 1374 1375 1399
f 1399 1375 1377 1376
f 1376 1377 1379 1378
f 1378 1379 1380 1400
f 1400 1380 1382 1401
f 1400 1401 1381
f 1371 1370 1373
f 1423 1420 1417 1418
f 1370 1401 1422 1423 1418 1419
f 1401 1382 1421 1422
f 1416 1419 1418 1417
f 1420 1423 1422 1421
f 1499 1518 1517 1526 1524
f 1528 1527 1534 1537
f 1526 1517 1530 1535
f 1519 1529 1536 1533
f 1525 1527 1528 1522
f 1519 1521 1498 1523 1529
f 1530 1531 1532 1533 1536 1537 1534 1535
f 1499 1498 1521 1520 1516 1518
f 1516 1517 1518
f 1519 1520 1521
f 1529 1523 1522 1528
f 1527 1525 1524 1526
f 1516 1531 1530 1517
f 1534 1527 1526 1535
f 1536 1529 1528 1537
f 1519 1533 1532 1520
f 1516 1520 1532 1531
f 1730 1728 1738 1734
f 1731 1736 1737 1732
f 1735 1739 1736 1731
f 1729 1733 1728 1730
f 1734 1738 1739 1735
f 1742 1746 1750 1740
f 1743 1744 1749 1748
f 1747 1743 1748 1751
f 1741 1742 1740 1745
f 1746 1747 1751 1750
f 1729 1730 1742 1741
f 1731 1732 1744 1743
f 1728 1733 1745 1740
f 1737 1736 1748 1749
f 1730 1734 1746 1742
f 1735 1731 1743 1747
f 1734 1735 1747 1746
f 1738 1728 1740 1750
f 1736 1739 1751 1748
f 1739 1738 1750 1751
f 1732 1737 1749 1744
f 1733 1729 1741 1745
f 1935 1938 1930 1925
f 1925 1930 1929 1924
f 1935 1925 1928 1927
f 1925 1924 1926 1928
f 1928 1933 1932 1927
f 1938 1932 1933 1930
f 1930 1933 1931 1929
f 1926 1931 1933 1928
f 1935 1927 1936 1934
f 1937 1934 1936 1939
f 1934 1937 1938 1935
f 1938 1937 1939 1932
f 1927 1932 1939 1936
f 1951 1954 1946 1941
f 1951 1941 1944 1943
f 1941 1940 1942 1944
f 1941 1946 1945 1940
f 1954 1948 1949 1946
f 1946 1949 1947 1945
f 1944 1949 1948 1943
f 1951 1943 1952 1950
f 1942 1947 1949 1944
f 1953 1950 1952 1955
f 1954 1953 1955 1948
f 1950 1953 1954 1951
f 1943 1948 1955 1952
g Body
usemtl M_PCL_Flat_Grey_Darker
f 89 34 33
f 22 99 105 103 100 114 109 106 77 113 111 85 84 112 93 89 33
f 40 37 7
f 143 147 145 119 78 120 107 6 4 41 43 126 87 132 134 137 133 139 136 138 116 141 140 144 142 117 118 146
f 121 37 36
f 9 170 168 167 166 172 171 152 151 174 173 156 155 159 74 121 36
f 190 36 38
f 11 204 206 207 94 81 208 209 185 165 169 188 187 210 191 190 38
f 184 185 209
f 23 35 39
f 13 14 7 9 11 1 3 5
f 1 25 3
f 16 15 40 39
f 24 23 39 13
f 14 40 7
f 1 22 25
f 5 24 13
f 40 14 13 39
f 26 5 3 25
f 5 26 24
f 222 22 33 124 80 178 198 236 234 235 233 213 194 176 224 223 225
f 33 35 110 124
f 61 49 28 60
f 17 20 25 22
f 19 18 23 24
f 21 19 24 26
f 18 17 22 23
f 20 21 26 25
f 27 59 60 28
f 27 28 32 31
f 53 52 27 31
f 54 53 31 32
f 49 54 32 28
f 11 38 34 1
f 2 4 33 34
f 4 6 35 33
f 8 10 36 37
f 10 12 38 36
f 12 2 34 38
f 6 16 39 35
f 15 8 37 40
f 47 43 41 42 46 44 45 48
f 143 250 252 144 140 202 247 139 133 162 127 126 43 47 16 6 107 115 217 147
f 256 211 199 253
f 246 2 12 251
f 266 214 221 261
f 259 46 42 254
f 244 92 96 249
f 200 212 193 175 237 245 272 275 276 277 88 131 45 44 10 8 102 122 79 177 195 215 269 271 263 262 273 274
f 253 199 197 181 230 220 214 266 278 160 135 98 92 244 239 232 268 260 254 42 41 4 2 246 243 241 265 257
f 215 218 104 102 8 15 48 45 131 130 163 272 245 248 201 200 274 280 270 269
f 249 96 95 129 161 279 261 221 219 229 180 196 211 256 255 264 240 242 251 12 10 44 46 259 258 267 231 238
f 19 21 54 49
f 21 20 53 54
f 52 20 17 62 68 65
f 20 52 53
f 18 19 49 61
f 17 18 61 62
f 70 64 63 69
f 27 52 57 56
f 69 63 59 27 56 66
f 68 62 64 70
f 29 30 60 59
f 30 50 61 60
f 50 51 62 61
f 58 55 63 64
f 55 29 59 63
f 51 58 64 62
f 52 65 67 57
f 57 67 66 56
f 65 68 70 67
f 168 170 277 276
f 225 134 132 222
f 272 163 149 167 275
f 162 133 137 223 164
f 167 168 276 275
f 137 134 225 223
f 277 170 82 88
f 87 90 222 132
f 123 130 131 88 82
f 90 87 126 127 125
f 149 163 130 123
f 125 127 162 164
f 171 172 175 193
f 194 116 138 176
f 200 201 150 152 212
f 202 140 141 213 205
f 212 152 171 193
f 116 194 213 141
f 166 237 175 172
f 176 138 136 224
f 237 166 148 248 245
f 224 136 139 247 228
f 248 148 150 201
f 202 205 228 247
f 173 174 262 263
f 234 118 117 235
f 269 270 154 156 271
f 143 146 236 227 250
f 271 156 173 263
f 118 234 236 146
f 151 273 262 174
f 235 117 142 233
f 151 153 280 274 273
f 233 142 144 252 226
f 280 153 154 270
f 226 252 250 227
f 74 159 177 79
f 80 78 119 178
f 102 104 101 121 122
f 124 110 108 115 107 120
f 121 74 79 122
f 120 78 80 124
f 177 159 155 195
f 198 178 119 145
f 155 157 218 215 195
f 198 145 147 217 216
f 218 157 101 104
f 216 217 115 108
f 204 71 73 206
f 239 103 105 232
f 207 238 231 183
f 207 206 73 103 239 244 249 238
f 71 204 203 258 259 254 260 97
f 97 260 268 99
f 258 203 182 267
f 99 268 232 105
f 182 183 231 267
f 81 72 75 208
f 106 109 160 278
f 161 158 184 209 279
f 209 208 75 106 278 266 261 279
f 100 72 81 94 95 96 92 98
f 135 114 100 98
f 95 94 128 129
f 114 135 160 109
f 129 128 158 161
f 165 76 86 169
f 197 85 111 181
f 179 188 196 180
f 188 169 86 85 197 199 211 196
f 220 77 76 165 185 219 221 214
f 77 220 230 113
f 219 185 186 229
f 113 230 181 111
f 186 179 180 229
f 210 83 91 191
f 243 89 93 241
f 190 242 240 189
f 190 191 91 89 243 246 251 242
f 84 83 210 187 255 256 253 257
f 84 257 265 112
f 255 187 192 264
f 112 265 241 93
f 189 240 264 192
f 774 773 781 782
f 772 771 779 780
f 770 769 777 778
f 769 776 784 777
f 775 774 782 783
f 773 772 780 781
f 771 770 778 779
f 776 775 783 784
f 792 791 775 776
f 791 790 774 775
f 790 789 773 774
f 789 788 772 773
f 788 787 771 772
f 787 785 770 771
f 785 786 769 770
f 786 792 776 769
f 784 783 800 801
f 782 781 798 799
f 780 779 796 797
f 778 777 794 795
f 777 784 801 794
f 783 782 799 800
f 781 780 797 798
f 779 778 795 796
f 799 798 806 807
f 797 796 804 805
f 795 794 802 803
f 794 801 809 802
f 800 799 807 808
f 798 797 805 806
f 796 795 803 804
f 801 800 808 809
f 809 808 816 817
f 807 806 814 815
f 805 804 812 813
f 803 802 810 811
f 802 809 817 810
f 808 807 815 816
f 806 805 813 814
f 804 803 811 812
f 897 835 824 825
f 812 811 899 872
f 888 897 825 818
f 895 837 834 896
f 835 928 823 824
f 851 919 821 822
f 867 904 819 820
f 886 895 896 889
f 1002 818 825 824 823 822 1012 1007 996 997
f 1012 822 821 820 819 818 1002 1001 1000 1008
f 810 817 890 883
f 882 891 892 885
f 884 893 894 887
f 873 898 901 870
f 871 900 903 868
f 869 902 905 866
f 904 888 818 819
f 857 907 912 854
f 855 911 916 852
f 853 915 920 850
f 919 867 820 821
f 841 922 925 838
f 839 924 927 836
f 837 926 929 834
f 928 851 822 823
f 814 813 908 856
f 817 816 840 890
f 891 841 838 892
f 893 839 836 894
f 811 810 883 899
f 898 882 885 901
f 900 884 887 903
f 902 886 889 905
f 813 812 872 908
f 907 873 870 912
f 911 871 868 916
f 915 869 866 920
f 815 814 856 923
f 922 857 854 925
f 924 855 852 927
f 926 853 850 929
f 891 882 883 890
f 893 884 885 892
f 895 886 887 894
f 897 888 889 896
f 882 898 899 883
f 884 900 901 885
f 886 902 903 887
f 888 904 905 889
f 857 922 923 856
f 855 924 925 854
f 853 926 927 852
f 851 928 929 850
f 907 857 856 908
f 911 855 854 912
f 915 853 852 916
f 919 851 850 920
f 816 815 923 840
f 880 881 891 890
f 878 879 893 892
f 876 877 895 894
f 874 875 897 896
f 858 859 899 898
f 860 861 901 900
f 862 863 903 902
f 864 865 905 904
f 842 906 873 907
f 843 842 907 908
f 909 843 908 872
f 844 910 871 911
f 845 844 911 912
f 913 845 912 870
f 846 914 869 915
f 847 846 915 916
f 917 847 916 868
f 848 918 867 919
f 849 848 919 920
f 921 849 920 866
f 826 827 923 922
f 828 829 925 924
f 830 831 927 926
f 832 833 929 928
f 881 930 841 891
f 931 880 890 840
f 879 932 839 893
f 933 878 892 838
f 877 934 837 895
f 935 876 894 836
f 875 936 835 897
f 937 874 896 834
f 906 858 898 873
f 859 909 872 899
f 910 860 900 871
f 861 913 870 901
f 914 862 902 869
f 863 917 868 903
f 918 864 904 867
f 865 921 866 905
f 930 826 922 841
f 827 931 840 923
f 932 828 924 839
f 829 933 838 925
f 934 830 926 837
f 831 935 836 927
f 936 832 928 835
f 833 937 834 929
f 880 859 858 881
f 1020 909 859 880 931 1019 1021 1024 1025
f 931 827 843 909 1020 1027 1031 1030 1019
f 843 827 826 842
f 1035 906 842 826 930 1034 1036 1032 1033
f 1034 930 881 858 906 1035 1044 1037 1041
f 878 861 860 879
f 876 863 862 877
f 874 865 864 875
f 1046 936 875 864 918 1048 1047 1043 1045
f 1048 918 848 832 936 1046 1051 1049 1050
f 849 833 832 848
f 937 833 849 921 1053 1054 1060 1059 1052
f 1053 921 865 874 937 1052 1058 1042 1061
f 1062 934 877 862 914 1064 1063 1040 1057
f 1064 914 846 830 934 1062 1067 1065 1066
f 847 831 830 846
f 935 831 847 917 1069 1070 1072 1071 1068
f 1069 917 863 876 935 1068 1056 1039 1073
f 1009 932 879 860 910 1011 1074 1038 1055
f 1011 910 844 828 932 1009 1013 999 1003
f 845 829 828 844
f 933 829 845 913 1016 1017 1023 1022 1015
f 1016 913 861 878 933 1015 1026 1028 1029
f 1021 998 1005 1024
f 1037 1028 1026 1041
f 1038 1039 1056 1055
f 1040 1042 1058 1057
f 1043 1002 997 1045
f 1004 998 1021 1019
f 1026 1015 1034 1041
f 1068 1009 1055 1056
f 1057 1058 1052 1062
f 1045 997 996 1046
f 1025 1006 1010 1020
f 1016 1029 1044 1035
f 1011 1069 1073 1074
f 1061 1063 1064 1053
f 1048 1000 1001 1047
f 1014 1027 1020 1010
f 1016 1035 1033 1017
f 1003 1070 1069 1011
f 1053 1064 1066 1054
f 1050 1008 1000 1048
f 1024 1005 1006 1025
f 1044 1029 1028 1037
f 1074 1073 1039 1038
f 1063 1061 1042 1040
f 1047 1001 1002 1043
f 1014 1018 1031 1027
f 1023 1017 1033 1032
f 1003 999 1072 1070
f 1060 1054 1066 1065
f 1012 1008 1050 1049
f 1018 995 1030 1031
f 1022 1023 1032 1036
f 999 1013 1071 1072
f 1059 1060 1065 1067
f 1007 1012 1049 1051
f 995 1004 1019 1030
f 1034 1015 1022 1036
f 1013 1009 1068 1071
f 1052 1059 1067 1062
f 1046 996 1007 1051
f 1095 1111 1082 1076
f 1087 1090 1094 1092
f 1076 1075 1093 1095
f 1075 1076 1078 1077
f 1084 1083 1077 1078
f 1081 1109 1093 1075
f 1082 1084 1078 1076
f 1107 1111 1095 1089
f 1093 1109 1108 1091
f 1118 1120 1103 1100
f 1099 1115 1113 1097
f 1098 1080 1101 1102
f 1105 1110 1112 1106
f 1077 1083 1081 1075
f 1103 1120 1115 1099
f 1082 1111 1109 1081
f 1081 1083 1084 1082
f 1096 1079 1080 1098
f 1114 1116 1086 1085
f 1116 1119 1117 1086
f 1091 1092 1093
f 1108 1109 1110
f 1087 1092 1091 1088
f 1092 1094 1095 1093
f 1094 1090 1089 1095
f 1091 1108 1104 1088
f 1099 1097 1096 1098
f 1102 1101 1100 1103
f 1103 1099 1098 1102
f 1104 1108 1110 1105
f 1109 1111 1112 1110
f 1111 1107 1106 1112
f 1116 1114 1113 1115
f 1120 1118 1117 1119
f 1119 1116 1115 1120
f 1368 1413 1763 1754
f 1758 1410 1415 1761
f 1412 1760 1763 1413
f 1408 1756 1759 1409
f 1755 1762 1414 1369
f 1752 1367 1411 1757
f 1366 1753 1756 1408
f 1367 1752 1755 1369
f 1757 1411 1410 1758
f 1409 1759 1760 1412
f 1761 1415 1414 1762
f 1479 1480 1482 1484
f 1476 1479 1481 1477
f 1477 1481 1478 1475
f 1475 1478 1480 1474
f 1474 1480 1479 1476
f 1485 1484 1488 1489
f 1478 1481 1485 1483
f 1480 1478 1483 1482
f 1481 1479 1484 1485
f 1488 1492 1493 1489
f 1484 1482 1486 1488
f 1483 1485 1489 1487
f 1482 1483 1487 1486
f 1486 1490 1492 1488
f 1489 1493 1491 1487
f 1493 1492 1496 1497
f 1492 1490 1494 1496
f 1491 1493 1497 1495
f 1490 1491 1495 1494
f 1487 1491 1490 1486
f 1085 1079 1096 1097 1113 1114
f 1755 1752 1753 1754
f 1757 1758 1759 1756
f 1761 1762 1763 1760
f 1752 1757 1756 1753
f 1758 1761 1760 1759
f 1762 1755 1754 1763
f 1753 1366 1368 1754
f 15 16 47 48
f 236 198 216 108 110 35 23 125 164 223 224 228 205 213 233 226 227
f 125 23 22 222 90
f 1 71 97 99 22
f 77 106 75 72 100 103 73 71 1 34 89 91 83 84 85 86 76
f 149 123 7 37 121 101 157 155 156 154 153 151 152 150 148 166 167
f 9 182 203 204 11
f 123 82 170 9 7
f 185 184 158 128 94 207 183 182 9 36 190 189 192 187 188 179 186
f 1919 1916 1922 1918
f 1918 1922 1923 1920
f 1920 1923 1917 1921
f 1921 1917 1916 1919
f 1922 1916 1917 1923
g Body
usemtl M_PCL_Flat_Grey_Dark
f 425 426 432 431 430 429 428 427
f 426 425 433 434
f 425 427 435 433
f 427 428 436 435
f 428 429 437 436
f 429 430 438 437
f 430 431 439 438
f 431 432 440 439
f 432 426 434 440
f 585 586 592 591 590 589 588 587
f 586 585 593 594
f 585 587 595 593
f 587 588 596 595
f 588 589 597 596
f 589 590 598 597
f 590 591 599 598
f 591 592 600 599
f 592 586 594 600
f 745 746 752 751 750 749 748 747
f 746 745 753 754
f 745 747 755 753
f 747 748 756 755
f 748 749 757 756
f 749 750 758 757
f 750 751 759 758
f 751 752 760 759
f 752 746 754 760
f 938 786 785 939
f 939 785 787 940
f 940 787 788 941
f 941 788 789 942
f 942 789 790 943
f 943 790 791 944
f 944 791 792 945
f 945 792 786 938
f 785 786 1005 1006
f 787 785 1006 1010
f 1014 788 787 1010
f 789 788 1014 1018
f 790 789 1018 995
f 791 790 995 1004
f 998 792 791 1004
f 786 792 998 1005
f 762 761 938 939
f 763 762 939 940
f 764 763 940 941
f 765 764 941 942
f 766 765 942 943
f 767 766 943 944
f 768 767 944 945
f 761 768 945 938
g Magazine
usemtl M_PCL_Flat_Grey_Dark
f 1181 1198 1178 1161
f 1134 1166 1169
f 1176 1166 1134 1130
f 1162 1136 1174
f 1135 1133 1167 1172
f 1140 1160 1159 1139
f 1139 1159 1157 1137
f 1192 1194 1173 1171
f 1179 1200 1158 1138
f 1133 1134 1169 1167
f 1180 1131 1136 1162
f 1136 1135 1172 1174
f 1157 1195 1177 1137
f 1124 1123 1127 1128
f 1121 1122 1126 1125
f 1132 1129 1133 1135
f 1173 1194 1182 1163
f 1122 1121 1129 1130
f 1123 1124 1131 1132
f 1121 1125 1133 1129
f 1126 1122 1130 1134
f 1127 1123 1132 1135
f 1124 1128 1136 1131
f 1128 1127 1135 1136
f 1125 1126 1134 1133
f 1129 1132 1131 1180 1176 1130
f 1158 1160 1140 1138
f 1137 1138 1140 1139
f 1163 1182 1181 1161
f 1189 1187 1168 1170
f 1196 1150 1154 1185
f 1155 1191 1188 1153
f 1153 1188 1190 1154
f 1158 1200 1195 1157
f 1199 1183 1156 1151
f 1156 1193 1191 1155
f 1154 1190 1185
f 1144 1148 1147 1143
f 1141 1145 1146 1142
f 1152 1155 1153 1149
f 1175 1197 1184 1164
f 1142 1150 1149 1141
f 1143 1152 1151 1144
f 1141 1149 1153 1145
f 1146 1154 1150 1142
f 1147 1155 1152 1143
f 1144 1151 1156 1148
f 1148 1156 1155 1147
f 1145 1153 1154 1146
f 1138 1137 1177 1179
f 1183 1193 1156
f 1149 1150 1196 1199 1151 1152
f 1157 1159 1160 1158
f 1161 1162 1163
f 1164 1165 1166
f 1175 1176 1177
f 1178 1179 1180
f 1181 1182 1183
f 1184 1185 1186
f 1195 1196 1197
f 1198 1199 1200
f 1186 1165 1164 1184
f 1197 1175 1177 1195
f 1172 1167 1168 1171
f 1167 1169 1170 1168
f 1174 1172 1171 1173
f 1162 1174 1173 1163
f 1169 1166 1165 1170
f 1178 1198 1200 1179
f 1165 1186 1189 1170
f 1179 1177 1176 1180
f 1166 1176 1175 1164
f 1180 1162 1161 1178
f 1192 1187 1188 1191
f 1187 1189 1190 1188
f 1194 1192 1191 1193
f 1182 1194 1193 1183
f 1189 1186 1185 1190
f 1199 1196 1195 1200
f 1184 1197 1196 1185
f 1198 1181 1183 1199
g Body
usemtl M_PCL_Flat_Grey_Dark
f 1546 1553 1558 1560
f 1553 1548 1561 1558
f 1547 1552 1545 1540
f 1555 1554 1543 1542
f 1554 1547 1540 1543
f 1550 1555 1542 1538
f 1557 1550 1538 1544
f 1552 1557 1544 1545
f 1553 1546 1552 1547
f 1549 1548 1554 1555
f 1548 1553 1547 1554
f 1556 1549 1555 1550
f 1551 1556 1550 1557
f 1546 1551 1557 1552
f 1559 1558 1561 1562
f 1551 1546 1560 1563
f 1549 1556 1559 1562
f 1548 1549 1562 1561
f 1556 1551 1563 1559
g Magazine
usemtl M_PCL_Flat_Grey_Dark
f 1168 1187 1192 1171
g Body
usemtl M_PCL_Flat_Grey_Dark
f 1544 1539 1541 1545
g Body
usemtl M_PCL_Flat_White
f 1773 1791 1765 1764
f 1767 1788 1771 1780
f 1791 1772 1766 1765
f 1766 1772 1822 1817
f 1816 1823 1788 1767
f 1780 1771 1770 1782
f 1794 1773 1764 1774
f 1797 1804 1799 1798
f 1813 1811 1796 1815
f 1782 1770 1769 1768
f 1796 1811 1801 1800 1799 1804
f 1823 1816 1817 1822
f 1833 1851 1825 1824
f 1827 1848 1831 1840
f 1851 1832 1826 1825
f 1826 1832 1882 1877
f 1876 1883 1848 1827
f 1840 1831 1830 1842
f 1854 1833 1824 1834
f 1857 1864 1859 1858
f 1873 1871 1856 1875
f 1842 1830 1829 1828
f 1856 1871 1861 1860 1859 1864
f 1883 1876 1877 1882
f 1822 1772 1789 1821
f 1816 1767 1778 1819
f 1764 1765 1776 1775
f 1788 1787 1786 1771
f 1772 1791 1790 1789
f 1780 1782 1781 1779
f 1782 1768 1783 1781
f 1768 1769 1784 1783
f 1769 1770 1785 1784
f 1770 1771 1786 1785
f 1767 1780 1779 1778
f 1788 1823 1820 1787
f 1791 1773 1792 1790
f 1773 1794 1793 1792
f 1794 1774 1795 1793
f 1774 1764 1775 1795
f 1796 1804 1803 1802
f 1804 1797 1805 1803
f 1797 1798 1806 1805
f 1798 1799 1807 1806
f 1799 1800 1808 1807
f 1800 1801 1809 1808
f 1801 1811 1810 1809
f 1811 1813 1812 1810
f 1813 1815 1814 1812
f 1815 1796 1802 1814
f 1820 1823 1822 1821
f 1818 1817 1816 1819
f 1766 1817 1818 1777
f 1765 1766 1777 1776
f 1882 1832 1849 1881
f 1876 1827 1838 1879
f 1824 1825 1836 1835
f 1848 1847 1846 1831
f 1832 1851 1850 1849
f 1840 1842 1841 1839
f 1842 1828 1843 1841
f 1828 1829 1844 1843
f 1829 1830 1845 1844
f 1830 1831 1846 1845
f 1827 1840 1839 1838
f 1848 1883 1880 1847
f 1851 1833 1852 1850
f 1833 1854 1853 1852
f 1854 1834 1855 1853
f 1834 1824 1835 1855
f 1856 1864 1863 1862
f 1864 1857 1865 1863
f 1857 1858 1866 1865
f 1858 1859 1867 1866
f 1859 1860 1868 1867
f 1860 1861 1869 1868
f 1861 1871 1870 1869
f 1871 1873 1872 1870
f 1873 1875 1874 1872
f 1875 1856 1862 1874
f 1880 1883 1882 1881
f 1878 1877 1876 1879
f 1826 1877 1878 1837
f 1825 1826 1837 1836
g Body
usemtl M_PCL_Flat_Brown.Chestnut
f 293 309 325 341 357 373 389 405
f 308 307 291 292
f 324 323 307 308
f 340 339 323 324
f 356 355 339 340
f 372 371 355 356
f 388 387 371 372
f 404 403 387 388
f 292 291 403 404
f 307 312 296 291
f 323 328 312 307
f 339 344 328 323
f 355 360 344 339
f 371 376 360 355
f 387 392 376 371
f 403 408 392 387
f 291 296 408 403
f 308 292 404 388 372 356 340 324
f 310 309 293 294
f 326 325 309 310
f 342 341 325 326
f 358 357 341 342
f 374 373 357 358
f 390 389 373 374
f 406 405 389 390
f 294 293 405 406
f 311 310 294 295
f 327 326 310 311
f 343 342 326 327
f 359 358 342 343
f 375 374 358 359
f 391 390 374 375
f 407 406 390 391
f 295 294 406 407
f 312 311 295 296
f 328 327 311 312
f 344 343 327 328
f 360 359 343 344
f 376 375 359 360
f 392 391 375 376
f 408 407 391 392
f 296 295 407 408
f 453 469 485 501 517 533 549 565
f 468 467 451 452
f 484 483 467 468
f 500 499 483 484
f 516 515 499 500
f 532 531 515 516
f 548 547 531 532
f 564 563 547 548
f 452 451 563 564
f 467 472 456 451
f 483 488 472 467
f 499 504 488 483
f 515 520 504 499
f 531 536 520 515
f 547 552 536 531
f 563 568 552 547
f 451 456 568 563
f 468 452 564 548 532 516 500 484
f 470 469 453 454
f 486 485 469 470
f 502 501 485 486
f 518 517 501 502
f 534 533 517 518
f 550 549 533 534
f 566 565 549 550
f 454 453 565 566
f 471 470 454 455
f 487 486 470 471
f 503 502 486 487
f 519 518 502 503
f 535 534 518 519
f 551 550 534 535
f 567 566 550 551
f 455 454 566 567
f 472 471 455 456
f 488 487 471 472
f 504 503 487 488
f 520 519 503 504
f 536 535 519 520
f 552 551 535 536
f 568 567 551 552
f 456 455 567 568
f 613 629 645 661 677 693 709 725
f 628 627 611 612
f 644 643 627 628
f 660 659 643 644
f 676 675 659 660
f 692 691 675 676
f 708 707 691 692
f 724 723 707 708
f 612 611 723 724
f 627 632 616 611
f 643 648 632 627
f 659 664 648 643
f 675 680 664 659
f 691 696 680 675
f 707 712 696 691
f 723 728 712 707
f 611 616 728 723
f 628 612 724 708 692 676 660 644
f 630 629 613 614
f 646 645 629 630
f 662 661 645 646
f 678 677 661 662
f 694 693 677 678
f 710 709 693 694
f 726 725 709 710
f 614 613 725 726
f 631 630 614 615
f 647 646 630 631
f 663 662 646 647
f 679 678 662 663
f 695 694 678 679
f 711 710 694 695
f 727 726 710 711
f 615 614 726 727
f 632 631 615 616
f 648 647 631 632
f 664 663 647 648
f 680 679 663 664
f 696 695 679 680
f 712 711 695 696
f 728 727 711 712
f 616 615 727 728
g Body
usemtl M_PCL_Flat_Yellow.Brass
f 417 297 281 418
f 419 313 297 417
f 420 329 313 419
f 421 345 329 420
f 422 361 345 421
f 423 377 361 422
f 424 393 377 423
f 418 281 393 424
f 297 298 282 281
f 313 314 298 297
f 329 330 314 313
f 345 346 330 329
f 361 362 346 345
f 377 378 362 361
f 393 394 378 377
f 281 282 394 393
f 298 299 283 282
f 314 315 299 298
f 330 331 315 314
f 346 347 331 330
f 362 363 347 346
f 378 379 363 362
f 394 395 379 378
f 282 283 395 394
f 299 300 284 283
f 315 316 300 299
f 331 332 316 315
f 347 348 332 331
f 363 364 348 347
f 379 380 364 363
f 395 396 380 379
f 283 284 396 395
f 300 301 285 284
f 316 317 301 300
f 332 333 317 316
f 348 349 333 332
f 364 365 349 348
f 380 381 365 364
f 396 397 381 380
f 284 285 397 396
f 301 302 286 285
f 317 318 302 301
f 333 334 318 317
f 349 350 334 333
f 365 366 350 349
f 381 382 366 365
f 397 398 382 381
f 285 286 398 397
f 302 303 287 286
f 318 319 303 302
f 334 335 319 318
f 350 351 335 334
f 366 367 351 350
f 382 383 367 366
f 398 399 383 382
f 286 287 399 398
f 303 304 288 287
f 319 320 304 303
f 335 336 320 319
f 351 352 336 335
f 367 368 352 351
f 383 384 368 367
f 399 400 384 383
f 287 288 400 399
f 304 305 289 288
f 320 321 305 304
f 336 337 321 320
f 352 353 337 336
f 368 369 353 352
f 384 385 369 368
f 400 401 385 384
f 288 289 401 400
f 305 306 290 289
f 321 322 306 305
f 337 338 322 321
f 353 354 338 337
f 369 370 354 353
f 385 386 370 369
f 401 402 386 385
f 289 290 402 401
f 290 306 322 338 354 370 386 402
f 410 416 440 434
f 410 409 417 418
f 409 411 419 417
f 411 412 420 419
f 412 413 421 420
f 413 414 422 421
f 414 415 423 422
f 415 416 424 423
f 416 410 418 424
f 415 414 438 439
f 413 412 436 437
f 411 409 433 435
f 416 415 439 440
f 414 413 437 438
f 412 411 435 436
f 409 410 434 433
f 577 457 441 578
f 579 473 457 577
f 580 489 473 579
f 581 505 489 580
f 582 521 505 581
f 583 537 521 582
f 584 553 537 583
f 578 441 553 584
f 457 458 442 441
f 473 474 458 457
f 489 490 474 473
f 505 506 490 489
f 521 522 506 505
f 537 538 522 521
f 553 554 538 537
f 441 442 554 553
f 458 459 443 442
f 474 475 459 458
f 490 491 475 474
f 506 507 491 490
f 522 523 507 506
f 538 539 523 522
f 554 555 539 538
f 442 443 555 554
f 459 460 444 443
f 475 476 460 459
f 491 492 476 475
f 507 508 492 491
f 523 524 508 507
f 539 540 524 523
f 555 556 540 539
f 443 444 556 555
f 460 461 445 444
f 476 477 461 460
f 492 493 477 476
f 508 509 493 492
f 524 525 509 508
f 540 541 525 524
f 556 557 541 540
f 444 445 557 556
f 461 462 446 445
f 477 478 462 461
f 493 494 478 477
f 509 510 494 493
f 525 526 510 509
f 541 542 526 525
f 557 558 542 541
f 445 446 558 557
f 462 463 447 446
f 478 479 463 462
f 494 495 479 478
f 510 511 495 494
f 526 527 511 510
f 542 543 527 526
f 558 559 543 542
f 446 447 559 558
f 463 464 448 447
f 479 480 464 463
f 495 496 480 479
f 511 512 496 495
f 527 528 512 511
f 543 544 528 527
f 559 560 544 543
f 447 448 560 559
f 464 465 449 448
f 480 481 465 464
f 496 497 481 480
f 512 513 497 496
f 528 529 513 512
f 544 545 529 528
f 560 561 545 544
f 448 449 561 560
f 465 466 450 449
f 481 482 466 465
f 497 498 482 481
f 513 514 498 497
f 529 530 514 513
f 545 546 530 529
f 561 562 546 545
f 449 450 562 561
f 450 466 482 498 514 530 546 562
f 570 576 600 594
f 570 569 577 578
f 569 571 579 577
f 571 572 580 579
f 572 573 581 580
f 573 574 582 581
f 574 575 583 582
f 575 576 584 583
f 576 570 578 584
f 575 574 598 599
f 573 572 596 597
f 571 569 593 595
f 576 575 599 600
f 574 573 597 598
f 572 571 595 596
f 569 570 594 593
f 737 617 601 738
f 739 633 617 737
f 740 649 633 739
f 741 665 649 740
f 742 681 665 741
f 743 697 681 742
f 744 713 697 743
f 738 601 713 744
f 617 618 602 601
f 633 634 618 617
f 649 650 634 633
f 665 666 650 649
f 681 682 666 665
f 697 698 682 681
f 713 714 698 697
f 601 602 714 713
f 618 619 603 602
f 634 635 619 618
f 650 651 635 634
f 666 667 651 650
f 682 683 667 666
f 698 699 683 682
f 714 715 699 698
f 602 603 715 714
f 619 620 604 603
f 635 636 620 619
f 651 652 636 635
f 667 668 652 651
f 683 684 668 667
f 699 700 684 683
f 715 716 700 699
f 603 604 716 715
f 620 621 605 604
f 636 637 621 620
f 652 653 637 636
f 668 669 653 652
f 684 685 669 668
f 700 701 685 684
f 716 717 701 700
f 604 605 717 716
f 621 622 606 605
f 637 638 622 621
f 653 654 638 637
f 669 670 654 653
f 685 686 670 669
f 701 702 686 685
f 717 718 702 701
f 605 606 718 717
f 622 623 607 606
f 638 639 623 622
f 654 655 639 638
f 670 671 655 654
f 686 687 671 670
f 702 703 687 686
f 718 719 703 702
f 606 607 719 718
f 623 624 608 607
f 639 640 624 623
f 655 656 640 639
f 671 672 656 655
f 687 688 672 671
f 703 704 688 687
f 719 720 704 703
f 607 608 720 719
f 624 625 609 608
f 640 641 625 624
f 656 657 641 640
f 672 673 657 656
f 688 689 673 672
f 704 705 689 688
f 720 721 705 704
f 608 609 721 720
f 625 626 610 609
f 641 642 626 625
f 657 658 642 641
f 673 674 658 657
f 689 690 674 673
f 705 706 690 689
f 721 722 706 705
f 609 610 722 721
f 610 626 642 658 674 690 706 722
f 730 736 760 754
f 730 729 737 738
f 729 731 739 737
f 731 732 740 739
f 732 733 741 740
f 733 734 742 741
f 734 735 743 742
f 735 736 744 743
f 736 730 738 744
f 735 734 758 759
f 733 732 756 757
f 731 729 753 755
f 736 735 759 760
f 734 733 757 758
f 732 731 755 756
f 729 730 754 753
g Body
usemtl Steel
f 1956 1957 1959 1958
f 1960 1962 1963 1961
f 1956 1960 1961 1957
f 1958 1959 1963 1962
f 1956 1958 1962 1960
f 1957 1961 1963 1959
f 1964 1965 1967 1966
f 1968 1970 1971 1969
f 1964 1968 1969 1965
f 1966 1967 1971 1970
f 1964 1966 1970 1968
f 1965 1969 1971 1967
g Body
usemtl Tan
f 1972 1973 1975 1974
f 1976 1978 1979 1977
f 1972 1976 1977 1973
f 1974 1975 1979 1978
f 1972 1974 1978 1976
f 1973 1977 1979 1975
