# Adapted CC0 source; see SOURCES.json
mtllib m79.mtl
v -0.000686 -0.053006 -0.311510
v -0.032341 0.078704 -0.231236
v -0.000686 0.093401 -0.311510
v -0.000686 -0.015180 -0.301127
v -0.000381 -0.003448 -0.174261
v -0.032341 0.078704 -0.298082
v -0.000381 0.077890 -0.174261
v -0.000381 -0.003448 -0.111290
v 0.030970 0.078704 -0.231236
v -0.000381 0.062381 -0.111290
v 0.021411 0.006514 -0.174261
v 0.014992 -0.001005 -0.174261
v 0.030970 0.078704 -0.298082
v 0.015011 0.075113 -0.174261
v 0.021411 0.067386 -0.174261
v 0.038540 -0.035074 -0.311510
v 0.026985 -0.048609 -0.311510
v 0.027022 0.088403 -0.311510
v 0.038540 0.074499 -0.311510
v 0.014992 -0.001005 -0.111290
v 0.021411 0.006514 -0.111290
v 0.021411 0.053400 -0.111290
v 0.014954 0.060606 -0.111290
v -0.015753 -0.001005 -0.174261
v -0.022173 0.006514 -0.174261
v -0.022173 0.067386 -0.174261
v -0.015774 0.075113 -0.174261
v -0.028356 -0.048609 -0.311510
v -0.039911 -0.035074 -0.311510
v -0.039911 0.074499 -0.311510
v -0.028394 0.088403 -0.311510
v -0.022173 0.006514 -0.111290
v -0.015753 -0.001005 -0.111290
v -0.015716 0.060606 -0.111290
v -0.022173 0.053400 -0.111290
v -0.000686 -0.053006 -0.231236
v -0.000686 -0.053006 -0.298082
v -0.028356 -0.048609 -0.231236
v -0.028356 -0.048609 -0.298082
v 0.026985 -0.048609 -0.231236
v 0.030970 -0.043941 -0.298082
v 0.026985 -0.048609 -0.298082
v 0.030970 -0.043941 -0.231236
v -0.032341 -0.043941 -0.298082
v -0.032341 -0.043941 -0.231236
v 0.038540 0.071644 -0.231236
v 0.038540 0.022948 -0.298082
v 0.038540 0.071644 -0.298082
v 0.038540 0.022948 -0.231236
v 0.030970 0.022948 -0.298082
v 0.030970 0.071644 -0.298082
v 0.030970 0.022948 -0.231236
v 0.030970 0.071644 -0.231236
v -0.000686 0.013097 -0.666856
v -0.000686 0.013097 -0.311510
v 0.019310 0.004816 -0.666856
v 0.019310 0.004816 -0.311510
v 0.027593 -0.015180 -0.666856
v 0.027593 -0.015180 -0.311510
v 0.019310 -0.035175 -0.666856
v 0.019310 -0.035175 -0.311510
v -0.000686 -0.043458 -0.666856
v -0.000686 -0.043458 -0.311510
v -0.020681 -0.035175 -0.666856
v -0.020681 -0.035175 -0.311510
v -0.028965 -0.015180 -0.666856
v -0.028965 -0.015180 -0.311510
v -0.020681 0.004816 -0.666856
v -0.020681 0.004816 -0.311510
v -0.000686 0.077721 -0.684680
v -0.000686 0.083632 -0.311510
v 0.015130 0.071169 -0.684680
v 0.019310 0.075350 -0.311510
v 0.021680 0.055355 -0.684680
v 0.027593 0.055355 -0.311510
v 0.015130 0.039539 -0.684680
v 0.019310 0.035357 -0.311510
v -0.000686 0.032987 -0.684680
v -0.000686 0.027076 -0.311510
v -0.016502 0.039539 -0.684680
v -0.020681 0.035357 -0.311510
v -0.023051 0.055355 -0.684680
v -0.028965 0.055355 -0.311510
v -0.016502 0.071169 -0.684680
v -0.020681 0.075350 -0.311510
v -0.000686 0.083632 -0.684680
v 0.019310 0.075350 -0.684680
v 0.027593 0.055355 -0.684680
v 0.019310 0.035357 -0.684680
v -0.000686 0.027076 -0.684680
v -0.020681 0.035357 -0.684680
v -0.028965 0.055355 -0.684680
v -0.020681 0.075350 -0.684680
v -0.000686 0.055355 -0.670721
v 0.009031 -0.004226 -0.150779
v 0.009031 -0.008653 -0.140092
v 0.009031 -0.019340 -0.135665
v 0.009031 -0.030027 -0.140092
v 0.009031 -0.034454 -0.150779
v 0.009031 -0.019340 -0.190797
v 0.009031 -0.008653 -0.186371
v 0.009031 -0.004226 -0.175683
v 0.009031 -0.030027 -0.186371
v 0.009031 -0.034454 -0.175683
v 0.009031 0.001191 -0.148676
v 0.009031 0.001191 -0.120425
v 0.009031 -0.019340 -0.131010
v 0.009031 -0.031832 -0.136184
v 0.009031 -0.037006 -0.148676
v 0.009031 -0.019340 -0.199750
v 0.016256 -0.044657 -0.225731
v 0.009031 0.001191 -0.177787
v 0.009031 -0.031832 -0.190278
v 0.009031 -0.037006 -0.177787
v -0.000381 0.001191 -0.120425
v -0.000686 -0.044657 -0.225731
v 0.004928 -0.003458 -0.156784
v 0.004928 -0.030714 -0.153822
v 0.004928 -0.030714 -0.156981
v 0.004928 -0.003458 -0.140499
v 0.004928 -0.022265 -0.151649
v 0.004928 -0.011749 -0.151886
v 0.004928 -0.023449 -0.148490
v 0.004928 -0.013525 -0.144937
v -0.009793 -0.004226 -0.150779
v -0.009793 -0.008653 -0.140092
v -0.009793 -0.019340 -0.135665
v -0.009793 -0.030027 -0.140092
v -0.009793 -0.034454 -0.150779
v -0.009793 -0.019340 -0.190797
v -0.009793 -0.008653 -0.186371
v -0.009793 -0.004226 -0.175683
v -0.009793 -0.030027 -0.186371
v -0.009793 -0.034454 -0.175683
v -0.009793 0.001191 -0.148676
v -0.009793 0.001191 -0.120425
v -0.009793 -0.019340 -0.131010
v -0.009793 -0.031832 -0.136184
v -0.009793 -0.037006 -0.148676
v -0.009793 -0.019340 -0.199750
v -0.017627 -0.044657 -0.225731
v -0.009793 0.001191 -0.177787
v -0.009793 -0.031832 -0.190278
v -0.009793 -0.037006 -0.177787
v -0.005690 -0.003458 -0.156784
v -0.005690 -0.030714 -0.153822
v -0.005690 -0.030714 -0.156981
v -0.005690 -0.003458 -0.140499
v -0.005690 -0.022265 -0.151649
v -0.005690 -0.011749 -0.151886
v -0.005690 -0.023449 -0.148490
v -0.005690 -0.013525 -0.144937
v 0.026264 0.072793 -0.297866
v 0.026264 0.072793 -0.231435
v 0.037023 0.046814 -0.231435
v 0.026264 0.020838 -0.231435
v 0.000285 0.027652 -0.297866
v 0.000285 0.027652 -0.231435
v -0.025693 0.020838 -0.297866
v -0.025693 0.020838 -0.231435
v -0.043854 0.048171 -0.297866
v -0.031478 0.078048 -0.297866
v 0.031761 0.036703 -0.538574
v 0.026580 0.028494 -0.541225
v 0.026580 0.028494 -0.386923
v 0.031761 0.036703 -0.392056
v 0.045202 -0.017005 -0.538574
v 0.037828 -0.016462 -0.541225
v 0.037828 -0.016462 -0.373343
v 0.045202 -0.017005 -0.375830
v 0.031761 -0.049769 -0.538574
v 0.026388 -0.044081 -0.541225
v 0.026388 -0.044081 -0.365000
v 0.031761 -0.049769 -0.365932
v -0.000686 -0.063341 -0.538576
v -0.000686 -0.055294 -0.541225
v -0.000686 -0.055294 -0.361612
v -0.000686 -0.063341 -0.361830
v -0.033134 -0.049769 -0.538574
v -0.027759 -0.044081 -0.541225
v -0.027759 -0.044081 -0.365000
v -0.033134 -0.049769 -0.365932
v -0.046573 -0.017005 -0.538574
v -0.039200 -0.016462 -0.541225
v -0.039200 -0.016462 -0.373343
v -0.046573 -0.017005 -0.375830
v -0.033134 0.036703 -0.538574
v -0.027951 0.028494 -0.541225
v -0.027951 0.028494 -0.386923
v -0.033134 0.036703 -0.392056
v 0.020796 0.041680 -0.665768
v 0.039200 -0.014356 -0.665768
v 0.027516 -0.042560 -0.665768
v -0.000686 -0.054241 -0.665768
v -0.028887 -0.042560 -0.665768
v -0.040571 -0.014356 -0.665768
v -0.022167 0.041680 -0.665768
v 0.020796 0.041680 -0.675696
v 0.039200 -0.014356 -0.675696
v 0.027516 -0.042560 -0.675696
v -0.000686 -0.054241 -0.675696
v -0.028887 -0.042560 -0.675696
v -0.040571 -0.014356 -0.675696
v -0.022167 0.041680 -0.675696
v -0.000686 0.017768 -0.675696
v 0.022560 0.008139 -0.675696
v 0.032187 -0.015105 -0.675696
v 0.022560 -0.038350 -0.675696
v -0.000686 -0.047977 -0.675696
v -0.023931 -0.038350 -0.675696
v -0.033558 -0.015105 -0.675696
v -0.023931 0.008139 -0.675696
v 0.032187 -0.015105 -0.682506
v 0.022560 0.008139 -0.682506
v -0.023931 0.008139 -0.682506
v -0.033558 -0.015105 -0.682506
v -0.023931 -0.038350 -0.682506
v -0.000686 -0.047977 -0.682506
v 0.022560 -0.038350 -0.682506
v -0.000686 0.017768 -0.682506
v 0.011674 -0.123988 0.220403
v 0.021411 -0.114223 0.220403
v 0.011673 0.006539 0.220403
v 0.021411 -0.002932 0.220403
v 0.011673 0.017601 -0.024822
v 0.021411 0.006969 -0.026390
v 0.021411 -0.046457 -0.028795
v 0.011674 -0.057669 -0.030449
v 0.011673 0.060120 -0.111290
v 0.021411 0.049109 -0.111290
v 0.021411 0.007288 -0.111290
v 0.011673 -0.003518 -0.111290
v 0.011673 -0.009366 -0.076543
v 0.021411 0.001407 -0.074155
v 0.021411 -0.018769 -0.049136
v 0.011674 -0.029584 -0.051597
v 0.021411 0.030880 -0.068585
v 0.011673 0.041200 -0.066288
v 0.011673 0.024192 -0.041284
v 0.021411 0.013832 -0.043657
v 0.021411 -0.040825 0.021701
v 0.011674 -0.051065 0.023267
v 0.011674 -0.051550 -0.003230
v 0.021411 -0.040840 -0.003722
v 0.011673 0.030917 0.015569
v 0.021411 0.021372 0.017040
v 0.021411 0.009216 -0.003808
v 0.011673 0.019442 -0.004273
v 0.011674 -0.121090 0.229233
v 0.021411 -0.111466 0.228748
v 0.011673 -0.108315 0.238485
v 0.018559 -0.109261 0.235533
v 0.011674 -0.116067 0.235876
v 0.021411 -0.005699 0.228748
v 0.011673 0.003640 0.229233
v 0.011673 -0.009134 0.238485
v 0.011673 -0.001358 0.235776
v 0.018559 -0.007417 0.235633
v -0.022173 -0.114223 0.220403
v -0.012436 -0.123988 0.220403
v -0.022173 -0.002932 0.220403
v -0.012436 0.006539 0.220403
v -0.022173 0.006969 -0.026390
v -0.012436 0.017601 -0.024822
v -0.012436 -0.057669 -0.030449
v -0.022173 -0.046457 -0.028795
v -0.022173 0.049109 -0.111290
v -0.012436 0.060120 -0.111290
v -0.012436 -0.003518 -0.111290
v -0.022173 0.007288 -0.111290
v -0.022173 0.001407 -0.074155
v -0.012436 -0.009366 -0.076543
v -0.012436 -0.029584 -0.051597
v -0.022173 -0.018769 -0.049136
v -0.012436 0.041200 -0.066288
v -0.022173 0.030880 -0.068585
v -0.022173 0.013832 -0.043657
v -0.012436 0.024192 -0.041284
v -0.012436 -0.051065 0.023267
v -0.022173 -0.040825 0.021701
v -0.022173 -0.040840 -0.003722
v -0.012436 -0.051550 -0.003230
v -0.022173 0.021372 0.017040
v -0.012436 0.030917 0.015569
v -0.012436 0.019442 -0.004273
v -0.022173 0.009216 -0.003808
v -0.012436 -0.121090 0.229233
v -0.012436 -0.108315 0.238485
v -0.022173 -0.111466 0.228748
v -0.012436 -0.116090 0.235776
v -0.019321 -0.109890 0.235633
v -0.022173 -0.005699 0.228748
v -0.012436 -0.009134 0.238485
v -0.012436 0.003640 0.229233
v -0.019321 -0.008046 0.235533
v -0.012436 -0.001440 0.235876
v 0.040321 -0.033818 -0.305539
v -0.041692 -0.033818 -0.305539
v 0.040321 -0.030865 -0.302846
v -0.041692 -0.030865 -0.302846
v 0.040321 -0.023739 -0.301731
v -0.041692 -0.023739 -0.301731
v 0.040321 -0.016614 -0.302846
v -0.041692 -0.016614 -0.302846
v 0.040321 -0.013661 -0.305539
v -0.041692 -0.013661 -0.305539
v 0.040321 -0.016614 -0.308231
v -0.041692 -0.016614 -0.308231
v 0.040321 -0.023739 -0.309346
v -0.041692 -0.023739 -0.309346
v 0.040321 -0.030865 -0.308231
v -0.041692 -0.030865 -0.308231
v 0.022416 0.051008 -0.185060
v -0.023178 0.051008 -0.185060
v 0.022416 0.053079 -0.180059
v -0.023178 0.053079 -0.180059
v 0.022416 0.058080 -0.177987
v -0.023178 0.058080 -0.177987
v 0.022416 0.063081 -0.180059
v -0.023178 0.063081 -0.180059
v 0.022416 0.065152 -0.185060
v -0.023178 0.065152 -0.185060
v 0.022416 0.063081 -0.190060
v -0.023178 0.063081 -0.190060
v 0.022416 0.058080 -0.192132
v -0.023178 0.058080 -0.192132
v 0.022416 0.053079 -0.190060
v -0.023178 0.053079 -0.190060
v 0.022416 0.014239 -0.131624
v -0.023178 0.014239 -0.131624
v 0.022416 0.015644 -0.128233
v -0.023178 0.015644 -0.128233
v 0.022416 0.019035 -0.126829
v -0.023178 0.019035 -0.126829
v 0.022416 0.022425 -0.128233
v -0.023178 0.022425 -0.128233
v 0.022416 0.023830 -0.131624
v -0.023178 0.023830 -0.131624
v 0.022416 0.022425 -0.135015
v -0.023178 0.022425 -0.135015
v 0.022416 0.019035 -0.136419
v -0.023178 0.019035 -0.136419
v 0.022416 0.015644 -0.135015
v -0.023178 0.015644 -0.135015
v 0.005013 0.046012 -0.080502
v 0.005013 0.050267 -0.078790
v 0.007248 0.048026 -0.085508
v 0.007248 0.052281 -0.083794
v -0.008009 0.055158 -0.090940
v -0.008009 0.050903 -0.092654
v 0.007248 0.055158 -0.090940
v 0.007248 0.050903 -0.092654
v 0.005013 0.057171 -0.095945
v 0.005013 0.052916 -0.097657
v -0.008009 0.048026 -0.085508
v -0.008009 0.052281 -0.083794
v -0.005776 0.046012 -0.080502
v -0.005776 0.050267 -0.078790
v -0.000381 0.045178 -0.078430
v -0.000381 0.049433 -0.076717
v -0.008009 -0.005251 -0.098456
v -0.008009 -0.002690 -0.098456
v -0.005776 -0.005251 -0.093060
v -0.005776 -0.002690 -0.093060
v -0.000381 -0.005251 -0.090827
v -0.000381 -0.002690 -0.090827
v 0.005013 -0.005251 -0.093060
v 0.005013 -0.002690 -0.093060
v 0.007248 -0.005251 -0.098456
v 0.007248 -0.002690 -0.098456
v 0.005013 -0.005251 -0.103849
v 0.005013 -0.002690 -0.103849
v -0.000381 -0.005251 -0.106084
v -0.000381 -0.002690 -0.106084
v -0.005776 -0.005251 -0.103849
v -0.005776 -0.002690 -0.103849
v 0.034925 -0.010745 -0.302357
v 0.025796 0.016340 -0.302357
v 0.034925 -0.010745 -0.399441
v 0.025796 0.016340 -0.399441
v 0.030975 -0.012077 -0.302357
v 0.021846 0.015009 -0.302357
v 0.030975 -0.012077 -0.399441
v 0.021846 0.015009 -0.399441
v -0.036296 -0.010745 -0.302357
v -0.027167 0.016340 -0.302357
v -0.036296 -0.010745 -0.399441
v -0.027167 0.016340 -0.399441
v -0.032346 -0.012077 -0.302357
v -0.023217 0.015009 -0.302357
v -0.032346 -0.012077 -0.399441
v -0.023217 0.015009 -0.399441
v 0.008620 -0.129013 0.170880
v 0.008620 -0.130434 0.171469
v 0.008620 -0.131023 0.172890
v 0.008620 -0.130434 0.174311
v 0.008620 -0.129013 0.174898
v 0.008620 -0.127592 0.174311
v 0.008620 -0.127004 0.172890
v 0.008620 -0.127592 0.171469
v 0.010807 -0.128107 0.170880
v 0.011812 -0.129112 0.171469
v 0.012228 -0.129528 0.172890
v 0.011812 -0.129112 0.174311
v 0.010807 -0.128107 0.174898
v 0.009803 -0.127102 0.174311
v 0.009387 -0.126686 0.172890
v 0.009803 -0.127102 0.171469
v 0.011713 -0.125921 0.170880
v 0.013134 -0.125921 0.171469
v 0.013723 -0.125921 0.172890
v 0.013134 -0.125921 0.174311
v 0.011713 -0.125921 0.174898
v 0.010292 -0.125921 0.174311
v 0.009705 -0.125921 0.172890
v 0.010292 -0.125921 0.171469
v 0.008620 -0.117266 0.170880
v 0.008620 -0.115846 0.171469
v 0.008620 -0.115257 0.172890
v 0.008620 -0.115846 0.174311
v 0.008620 -0.117266 0.174898
v 0.008620 -0.118687 0.174311
v 0.008620 -0.119276 0.172890
v 0.008620 -0.118687 0.171469
v 0.010807 -0.118173 0.170880
v 0.011812 -0.117168 0.171469
v 0.012228 -0.116752 0.172890
v 0.011812 -0.117168 0.174311
v 0.010807 -0.118173 0.174898
v 0.009803 -0.119178 0.174311
v 0.009387 -0.119593 0.172890
v 0.009803 -0.119178 0.171469
v 0.011713 -0.120359 0.170880
v 0.013134 -0.120359 0.171469
v 0.013723 -0.120359 0.172890
v 0.013134 -0.120359 0.174311
v 0.011713 -0.120359 0.174898
v 0.010292 -0.120359 0.174311
v 0.009705 -0.120359 0.172890
v 0.010292 -0.120359 0.171469
v 0.008620 -0.105756 0.171469
v 0.008620 -0.105756 0.174311
v -0.009382 -0.129013 0.170880
v -0.009382 -0.130434 0.171469
v -0.009382 -0.131023 0.172890
v -0.009382 -0.130434 0.174311
v -0.009382 -0.129013 0.174898
v -0.009382 -0.127592 0.174311
v -0.009382 -0.127004 0.172890
v -0.009382 -0.127592 0.171469
v -0.011570 -0.128107 0.170880
v -0.012574 -0.129112 0.171469
v -0.012990 -0.129528 0.172890
v -0.012574 -0.129112 0.174311
v -0.011570 -0.128107 0.174898
v -0.010565 -0.127102 0.174311
v -0.010149 -0.126686 0.172890
v -0.010565 -0.127102 0.171469
v -0.012475 -0.125921 0.170880
v -0.013896 -0.125921 0.171469
v -0.014485 -0.125921 0.172890
v -0.013896 -0.125921 0.174311
v -0.012475 -0.125921 0.174898
v -0.011054 -0.125921 0.174311
v -0.010466 -0.125921 0.172890
v -0.011054 -0.125921 0.171469
v -0.009382 -0.117266 0.170880
v -0.009382 -0.115846 0.171469
v -0.009382 -0.115257 0.172890
v -0.009382 -0.115846 0.174311
v -0.009382 -0.117266 0.174898
v -0.009382 -0.118687 0.174311
v -0.009382 -0.119276 0.172890
v -0.009382 -0.118687 0.171469
v -0.011570 -0.118173 0.170880
v -0.012574 -0.117168 0.171469
v -0.012990 -0.116752 0.172890
v -0.012574 -0.117168 0.174311
v -0.011570 -0.118173 0.174898
v -0.010565 -0.119178 0.174311
v -0.010149 -0.119593 0.172890
v -0.010565 -0.119178 0.171469
v -0.012475 -0.120359 0.170880
v -0.013896 -0.120359 0.171469
v -0.014485 -0.120359 0.172890
v -0.013896 -0.120359 0.174311
v -0.012475 -0.120359 0.174898
v -0.011054 -0.120359 0.174311
v -0.010466 -0.120359 0.172890
v -0.011054 -0.120359 0.171469
v -0.009382 -0.105756 0.171469
v -0.009382 -0.105756 0.174311
v 0.015517 -0.081140 -0.680678
v 0.015517 -0.083697 -0.680279
v 0.015517 -0.084757 -0.679313
v 0.015517 -0.083697 -0.678346
v 0.015517 -0.081140 -0.677946
v 0.015517 -0.078582 -0.678346
v 0.015517 -0.077522 -0.679313
v 0.015517 -0.078582 -0.680279
v 0.019452 -0.079509 -0.680678
v 0.021261 -0.081317 -0.680279
v 0.022010 -0.082066 -0.679313
v 0.021261 -0.081317 -0.678346
v 0.019452 -0.079509 -0.677946
v 0.017646 -0.077700 -0.678346
v 0.016897 -0.076951 -0.679313
v 0.017646 -0.077700 -0.680279
v 0.021083 -0.075570 -0.680678
v 0.023641 -0.075570 -0.680279
v 0.024701 -0.075570 -0.679313
v 0.023641 -0.075570 -0.678346
v 0.021083 -0.075570 -0.677946
v 0.018526 -0.075570 -0.678346
v 0.017468 -0.075570 -0.679313
v 0.018526 -0.075570 -0.680279
v 0.015517 -0.059995 -0.680678
v 0.015517 -0.057438 -0.680279
v 0.015517 -0.056378 -0.679313
v 0.015517 -0.057438 -0.678346
v 0.015517 -0.059995 -0.677946
v 0.015517 -0.062553 -0.678346
v 0.015517 -0.063613 -0.679313
v 0.015517 -0.062553 -0.680279
v 0.019452 -0.061626 -0.680678
v 0.021261 -0.059817 -0.680279
v 0.022010 -0.059069 -0.679313
v 0.021261 -0.059817 -0.678346
v 0.019452 -0.061626 -0.677946
v 0.017646 -0.063435 -0.678346
v 0.016897 -0.064184 -0.679313
v 0.017646 -0.063435 -0.680279
v 0.021083 -0.065562 -0.680678
v 0.023641 -0.065562 -0.680279
v 0.024701 -0.065562 -0.679313
v 0.023641 -0.065562 -0.678346
v 0.021083 -0.065562 -0.677946
v 0.018526 -0.065562 -0.678346
v 0.017468 -0.065562 -0.679313
v 0.018526 -0.065562 -0.680279
v 0.015517 -0.039277 -0.680279
v 0.015517 -0.039277 -0.678346
v -0.016888 -0.081140 -0.680678
v -0.016888 -0.083697 -0.680279
v -0.016888 -0.084757 -0.679313
v -0.016888 -0.083697 -0.678346
v -0.016888 -0.081140 -0.677946
v -0.016888 -0.078582 -0.678346
v -0.016888 -0.077522 -0.679313
v -0.016888 -0.078582 -0.680279
v -0.020826 -0.079509 -0.680678
v -0.022632 -0.081317 -0.680279
v -0.023381 -0.082066 -0.679313
v -0.022632 -0.081317 -0.678346
v -0.020826 -0.079509 -0.677946
v -0.019017 -0.077700 -0.678346
v -0.018268 -0.076951 -0.679313
v -0.019017 -0.077700 -0.680279
v -0.022455 -0.075570 -0.680678
v -0.025012 -0.075570 -0.680279
v -0.026072 -0.075570 -0.679313
v -0.025012 -0.075570 -0.678346
v -0.022455 -0.075570 -0.677946
v -0.019897 -0.075570 -0.678346
v -0.018839 -0.075570 -0.679313
v -0.019897 -0.075570 -0.680279
v -0.016888 -0.059995 -0.680678
v -0.016888 -0.057438 -0.680279
v -0.016888 -0.056378 -0.679313
v -0.016888 -0.057438 -0.678346
v -0.016888 -0.059995 -0.677946
v -0.016888 -0.062553 -0.678346
v -0.016888 -0.063613 -0.679313
v -0.016888 -0.062553 -0.680279
v -0.020826 -0.061626 -0.680678
v -0.022632 -0.059817 -0.680279
v -0.023381 -0.059069 -0.679313
v -0.022632 -0.059817 -0.678346
v -0.020826 -0.061626 -0.677946
v -0.019017 -0.063435 -0.678346
v -0.018268 -0.064184 -0.679313
v -0.019017 -0.063435 -0.680279
v -0.022455 -0.065562 -0.680678
v -0.025012 -0.065562 -0.680279
v -0.026072 -0.065562 -0.679313
v -0.025012 -0.065562 -0.678346
v -0.022455 -0.065562 -0.677946
v -0.019897 -0.065562 -0.678346
v -0.018839 -0.065562 -0.679313
v -0.019897 -0.065562 -0.680279
v -0.016888 -0.039277 -0.680279
v -0.016888 -0.039277 -0.678346
v 0.006976 0.078549 -0.671592
v 0.006976 0.078549 -0.680819
v 0.003145 0.121011 -0.680819
v -0.008347 0.078549 -0.671592
v -0.004516 0.121011 -0.677772
v -0.008347 0.078549 -0.680819
v 0.013880 0.095299 -0.185457
v 0.013880 0.095299 -0.194645
v 0.005671 0.095299 -0.194645
v 0.005671 0.095299 -0.185457
v 0.010207 0.112701 -0.227555
v 0.024984 0.098119 -0.227555
v 0.005671 0.088612 -0.185457
v 0.013880 0.080510 -0.185457
v -0.014642 0.095299 -0.185457
v -0.026355 0.112701 -0.227555
v -0.014642 0.095299 -0.194645
v -0.006432 0.095299 -0.194645
v -0.006432 0.095299 -0.185457
v -0.014642 0.080510 -0.185457
v -0.011578 0.112701 -0.227555
v -0.006432 0.088612 -0.185457
v -0.021395 -0.015180 -0.298082
v -0.015329 -0.029823 -0.298082
v -0.015329 -0.000536 -0.298082
v 0.013958 -0.029823 -0.298082
v -0.000686 -0.035889 -0.298082
v -0.000686 0.005529 -0.298082
v 0.020023 -0.015180 -0.298082
v 0.013958 -0.000536 -0.298082
v 0.024659 -0.043583 -0.298882
v 0.024659 -0.043583 -0.230406
v -0.026030 -0.043583 -0.298882
v -0.026030 -0.043583 -0.230406
v 0.012238 -0.040325 -0.293864
v -0.013609 -0.040325 -0.293864
v -0.013609 -0.040325 -0.230406
v 0.012238 -0.040325 -0.230406
v 0.024659 -0.043583 -0.243354
v 0.024659 -0.043583 -0.283187
v -0.026030 -0.043583 -0.243354
v -0.026030 -0.043583 -0.283187
v -0.013609 -0.040325 -0.243354
v -0.013609 -0.040325 -0.283187
v 0.012238 -0.040325 -0.283187
v 0.012238 -0.040325 -0.243354
v 0.025845 -0.039055 -0.298882
v 0.025845 -0.039055 -0.230406
v -0.027217 -0.039055 -0.298882
v -0.027217 -0.039055 -0.230406
v 0.012966 -0.035655 -0.293864
v -0.014337 -0.035655 -0.293864
v -0.014213 -0.035645 -0.230406
v 0.012842 -0.035645 -0.230406
v 0.025845 -0.039055 -0.243354
v 0.025845 -0.039055 -0.283187
v -0.027217 -0.039055 -0.243354
v -0.027217 -0.039055 -0.283187
v -0.014414 -0.035678 -0.243354
v -0.014414 -0.035678 -0.283187
v 0.013043 -0.035678 -0.283187
v 0.013043 -0.035678 -0.243354
v -0.005776 0.052916 -0.097657
v -0.005776 0.057171 -0.095945
v -0.000381 -0.062609 -0.030104
v -0.000381 0.020665 -0.024405
v -0.000381 -0.006765 -0.111290
v -0.000381 -0.033168 -0.052364
v -0.000381 -0.012360 -0.077004
v -0.000381 0.043196 -0.065449
v -0.000381 -0.123501 0.229233
v -0.000381 0.027076 -0.040655
v -0.000381 -0.054560 0.023267
v -0.000381 -0.110430 0.238485
v -0.000381 0.022080 -0.004482
v -0.000381 -0.000815 0.235825
v -0.000381 0.034025 0.014938
v -0.000381 -0.056087 -0.003230
v -0.000381 0.004343 0.229233
v -0.000381 -0.118374 0.235825
v -0.000381 -0.008729 0.238485
v -0.000381 0.008570 0.220403
v -0.000381 0.061584 -0.111290
v -0.000381 -0.126925 0.220403
v -0.026355 0.098119 -0.227555
v 0.024984 0.112701 -0.227555
v 0.024118 0.102331 -0.310045
v 0.017735 0.088543 -0.310045
v -0.019106 0.088543 -0.310045
v -0.025490 0.102331 -0.310045
v 0.017735 0.095318 -0.310045
v -0.019106 0.095318 -0.310045
v 0.009853 0.075191 -0.177235
v -0.010615 0.075191 -0.177235
v -0.014161 0.082850 -0.177235
v 0.009853 0.078954 -0.177235
v -0.010615 0.078954 -0.177235
v 0.017735 0.109344 -0.310045
v -0.019106 0.109344 -0.310045
v 0.013399 0.082850 -0.177235
v 0.009853 0.086746 -0.177235
v -0.010615 0.086746 -0.177235
v 0.014680 0.081930 -0.197521
v -0.015441 0.081930 -0.197521
v 0.014680 0.082666 -0.195746
v -0.015441 0.082666 -0.195746
v 0.014680 0.084440 -0.195012
v -0.015441 0.084440 -0.195012
v 0.014680 0.086215 -0.195746
v -0.015441 0.086215 -0.195746
v 0.014680 0.086951 -0.197521
v -0.015441 0.086951 -0.197521
v 0.014680 0.086215 -0.199295
v -0.015441 0.086215 -0.199295
v 0.014680 0.084440 -0.200031
v -0.015441 0.084440 -0.200031
v 0.014680 0.082666 -0.199295
v -0.015441 0.082666 -0.199295
v 0.026423 0.100674 -0.220461
v -0.027795 0.100674 -0.220461
v 0.026423 0.101998 -0.219254
v -0.027795 0.101998 -0.219254
v 0.026423 0.105192 -0.218755
v -0.027795 0.105192 -0.218755
v 0.026423 0.108386 -0.219254
v -0.027795 0.108386 -0.219254
v 0.026423 0.109711 -0.220461
v -0.027795 0.109711 -0.220461
v 0.026423 0.108386 -0.221668
v -0.027795 0.108386 -0.221668
v 0.026423 0.105192 -0.222168
v -0.027795 0.105192 -0.222168
v 0.026423 0.101998 -0.221668
v -0.027795 0.101998 -0.221668
v -0.000686 0.124841 -0.680819
v -0.000686 0.124841 -0.677772
v 0.002022 0.123720 -0.680819
v 0.002022 0.123720 -0.677772
v 0.003145 0.121011 -0.677772
v -0.004516 0.121011 -0.680819
v -0.003395 0.123720 -0.680819
v -0.003395 0.123720 -0.677772
v 0.037023 0.046814 -0.293884
v 0.030296 0.030572 -0.293884
v 0.025866 -0.016637 -0.298347
v 0.023702 -0.016637 -0.298347
v 0.023702 -0.016637 -0.358415
v 0.023702 -0.016637 -0.314152
v 0.021114 -0.016637 -0.356834
v 0.021114 -0.016637 -0.358415
v 0.000042 -0.016637 -0.356834
v 0.018172 -0.035210 -0.298347
v 0.016642 -0.033680 -0.298347
v 0.016642 -0.033680 -0.358415
v 0.016642 -0.033680 -0.314152
v 0.014812 -0.031850 -0.356834
v 0.014812 -0.031850 -0.358415
v -0.000087 -0.016951 -0.356834
v -0.000400 -0.042904 -0.298347
v -0.000400 -0.040739 -0.298347
v -0.000400 -0.040739 -0.358415
v -0.000400 -0.040739 -0.314152
v -0.000400 -0.038151 -0.356834
v -0.000400 -0.038151 -0.358415
v -0.000400 -0.017082 -0.356834
v -0.018975 -0.035210 -0.298347
v -0.017445 -0.033680 -0.298347
v -0.017445 -0.033680 -0.358415
v -0.017445 -0.033680 -0.314152
v -0.015615 -0.031850 -0.356834
v -0.015615 -0.031850 -0.358415
v -0.000716 -0.016951 -0.356834
v -0.026667 -0.016637 -0.298347
v -0.024502 -0.016637 -0.298347
v -0.024502 -0.016637 -0.358415
v -0.024502 -0.016637 -0.314152
v -0.021916 -0.016637 -0.356834
v -0.021916 -0.016637 -0.358415
v -0.000845 -0.016637 -0.356834
v -0.018975 0.001935 -0.298347
v -0.017445 0.000405 -0.298347
v -0.017445 0.000405 -0.358415
v -0.017445 0.000405 -0.314152
v -0.015615 -0.001423 -0.356834
v -0.015615 -0.001423 -0.358415
v -0.000716 -0.016324 -0.356834
v -0.000400 0.009629 -0.298347
v -0.000400 0.007465 -0.298347
v -0.000400 0.007465 -0.358415
v -0.000400 0.007465 -0.314152
v -0.000400 0.004879 -0.356834
v -0.000400 0.004879 -0.358415
v -0.000400 -0.016193 -0.356834
v 0.018172 0.001935 -0.298347
v 0.016642 0.000405 -0.298347
v 0.016642 0.000405 -0.358415
v 0.016642 0.000405 -0.314152
v 0.014812 -0.001423 -0.356834
v 0.014812 -0.001423 -0.358415
v -0.000087 -0.016324 -0.356834
v 0.010907 -0.027947 -0.296712
v 0.015591 -0.016637 -0.296712
v -0.000400 -0.032629 -0.296712
v -0.011709 -0.027947 -0.296712
v -0.016394 -0.016637 -0.296712
v -0.011709 -0.005328 -0.296712
v -0.000400 -0.000644 -0.296712
v 0.010907 -0.005328 -0.296712
v 0.018172 -0.035210 -0.296712
v 0.025866 -0.016637 -0.296712
v -0.000400 -0.042904 -0.296712
v -0.018975 -0.035210 -0.296712
v -0.026667 -0.016637 -0.296712
v -0.018975 0.001935 -0.296712
v -0.000400 0.009629 -0.296712
v 0.018172 0.001935 -0.296712
v 0.008342 -0.025380 -0.296712
v 0.011964 -0.016637 -0.296712
v -0.000400 -0.029002 -0.296712
v -0.009145 -0.025380 -0.296712
v -0.012767 -0.016637 -0.296712
v -0.009145 -0.007893 -0.296712
v -0.000400 -0.004270 -0.296712
v 0.008342 -0.007893 -0.296712
v 0.009519 -0.026557 -0.297208
v 0.013626 -0.016637 -0.297208
v -0.000400 -0.030663 -0.297208
v -0.010319 -0.026557 -0.297208
v -0.014428 -0.016637 -0.297208
v -0.010319 -0.006718 -0.297208
v -0.000400 -0.002609 -0.297208
v 0.009519 -0.006718 -0.297208
v 0.037023 0.046814 -0.297866
v 0.030296 0.063056 -0.293884
v 0.026264 0.020838 -0.297866
v 0.030296 0.063056 -0.270716
v 0.030296 0.030572 -0.270716
v 0.037023 0.046814 -0.270716
v 0.046000 0.038000 -0.620000
v 0.042498 0.055603 -0.620000
v 0.032527 0.070527 -0.620000
v 0.017603 0.080498 -0.620000
v 0.000000 0.084000 -0.620000
v -0.017603 0.080498 -0.620000
v -0.032527 0.070527 -0.620000
v -0.042498 0.055603 -0.620000
v -0.046000 0.038000 -0.620000
v -0.042498 0.020397 -0.620000
v -0.032527 0.005473 -0.620000
v -0.017603 -0.004498 -0.620000
v -0.000000 -0.008000 -0.620000
v 0.017603 -0.004498 -0.620000
v 0.032527 0.005473 -0.620000
v 0.042498 0.020397 -0.620000
v 0.046000 0.038000 -0.120000
v 0.042498 0.055603 -0.120000
v 0.032527 0.070527 -0.120000
v 0.017603 0.080498 -0.120000
v 0.000000 0.084000 -0.120000
v -0.017603 0.080498 -0.120000
v -0.032527 0.070527 -0.120000
v -0.042498 0.055603 -0.120000
v -0.046000 0.038000 -0.120000
v -0.042498 0.020397 -0.120000
v -0.032527 0.005473 -0.120000
v -0.017603 -0.004498 -0.120000
v -0.000000 -0.008000 -0.120000
v 0.017603 -0.004498 -0.120000
v 0.032527 0.005473 -0.120000
v 0.042498 0.020397 -0.120000
v 0.035000 0.038000 -0.622000
v 0.032336 0.051394 -0.622000
v 0.024749 0.062749 -0.622000
v 0.013394 0.070336 -0.622000
v 0.000000 0.073000 -0.622000
v -0.013394 0.070336 -0.622000
v -0.024749 0.062749 -0.622000
v -0.032336 0.051394 -0.622000
v -0.035000 0.038000 -0.622000
v -0.032336 0.024606 -0.622000
v -0.024749 0.013251 -0.622000
v -0.013394 0.005664 -0.622000
v -0.000000 0.003000 -0.622000
v 0.013394 0.005664 -0.622000
v 0.024749 0.013251 -0.622000
v 0.032336 0.024606 -0.622000
v 0.035000 0.038000 -0.570000
v 0.032336 0.051394 -0.570000
v 0.024749 0.062749 -0.570000
v 0.013394 0.070336 -0.570000
v 0.000000 0.073000 -0.570000
v -0.013394 0.070336 -0.570000
v -0.024749 0.062749 -0.570000
v -0.032336 0.051394 -0.570000
v -0.035000 0.038000 -0.570000
v -0.032336 0.024606 -0.570000
v -0.024749 0.013251 -0.570000
v -0.013394 0.005664 -0.570000
v -0.000000 0.003000 -0.570000
v 0.013394 0.005664 -0.570000
v 0.024749 0.013251 -0.570000
v 0.032336 0.024606 -0.570000
v -0.035000 -0.052000 -0.380000
v 0.035000 -0.052000 -0.380000
v -0.035000 0.005000 -0.380000
v 0.035000 0.005000 -0.380000
v -0.035000 -0.052000 -0.130000
v 0.035000 -0.052000 -0.130000
v -0.035000 0.005000 -0.130000
v 0.035000 0.005000 -0.130000
v -0.032000 -0.020000 -0.135000
v 0.032000 -0.020000 -0.135000
v -0.032000 0.074000 -0.135000
v 0.032000 0.074000 -0.135000
v -0.032000 -0.020000 -0.080000
v 0.032000 -0.020000 -0.080000
v -0.032000 0.074000 -0.080000
v 0.032000 0.074000 -0.080000
g Body
usemtl M_PCL_Flat_Black
f 666 672 253 251
f 672 663 249 253
f 673 256 257 668
f 674 671 255 223
f 663 676 221 249
f 259 289 292 261
f 251 253 252
f 256 258 257
f 288 291 290
f 293 296 295
f 255 257 258 254
f 250 252 253 249
f 224 223 255 254
f 256 251 252 258
f 258 252 250 254
f 668 257 255 671
f 666 251 256 673
f 261 292 294 262
f 294 292 295 296
f 289 287 290 291
f 250 249 221 222
f 287 289 259 260
f 292 289 291 295
f 295 291 288 293
f 222 224 254 250
f 329 331 332 330
f 331 333 334 332
f 333 335 336 334
f 335 337 338 336
f 337 339 340 338
f 339 341 342 340
f 341 343 344 342
f 343 329 330 344
f 343 341 339 337 335 333 331 329
f 344 330 332 334 336 338 340 342
f 351 352 354 353
f 347 352 351 348
f 656 655 350 349
f 358 356 355 357
f 360 358 357 359
f 346 360 359 345
f 361 363 364 362
f 363 365 366 364
f 365 367 368 366
f 367 369 370 368
f 369 371 372 370
f 371 373 374 372
f 373 375 376 374
f 375 361 362 376
f 375 373 371 369 367 365 363 361
f 348 346 345 347
f 350 355 356 349
f 348 351 353 656 349 356 358 360 346
f 655 656 353 354
f 288 666 673 293
f 296 668 671 294
f 287 260 676 663
f 262 294 671 674
f 293 673 668 296
f 290 287 663 672
f 288 290 672 666
g Body
usemtl M_PCL_Flat_Black_Lighter
f 661 659 232 233
f 667 248 225 658
f 241 246 224 222
f 676 260 279 665
f 660 661 233 236
f 670 657 228 243
f 669 674 223 245
f 240 235 234 237
f 244 227 226 247
f 665 670 243 242
f 246 241 244 247
f 664 278 264 658
f 675 268 275 662
f 226 227 235 240
f 237 234 231 230
f 280 259 261 283
f 263 277 274 266
f 277 276 271 274
f 281 286 263 266
f 283 286 281 280
f 276 267 270 271
f 226 240 239 225
f 285 264 263 286
f 269 272 271 270
f 243 244 241 242
f 238 237 230 229
f 227 244 243 228
f 231 234 233 232
f 277 278 275 276
f 261 262 284 283
f 264 278 277 263
f 279 260 259 280
f 239 240 237 238
f 285 286 283 284
f 662 275 278 664
f 667 285 284 669
f 235 236 233 234
f 274 271 272 273
f 265 282 281 266
f 281 282 279 280
f 265 266 274 273
f 275 268 267 276
f 227 228 236 235
f 247 248 245 246
f 247 226 225 248
f 242 241 222 221
f 657 660 236 228
f 265 273 660 657
f 248 667 669 245
f 238 662 664 239
f 229 675 662 238
f 239 664 658 225
f 279 282 670 665
f 284 262 674 669
f 282 265 657 670
f 273 272 661 660
f 221 676 665 242
f 285 667 658 264
f 272 269 659 661
f 675 229 230 231 232 659 269 270 267 268
f 224 246 245 223
g Body
usemtl M_PCL_Flat_Grey_Dark
f 417 467 468 418
f 398 448 447 397
f 470 420 442 492
f 421 471 472 422
f 422 472 473 423
f 423 473 474 424
f 395 394 402 403
f 395 445 444 394
f 446 445 395 396
f 402 401 409 410
f 394 393 401 402
f 400 399 407 408
f 398 397 405 406
f 396 395 403 404
f 393 400 408 401
f 399 398 406 407
f 397 396 404 405
f 433 409 416 440
f 401 408 416 409
f 407 406 414 415
f 405 404 412 413
f 403 402 410 411
f 408 407 415 416
f 406 405 413 414
f 404 403 411 412
f 434 410 409 433
f 439 415 414 438
f 438 414 413 437
f 437 413 412 436
f 440 416 415 439
f 435 411 410 434
f 436 412 411 435
f 424 474 467 417
f 442 420 419 418 441
f 469 470 492 491 468
f 394 444 443 393
f 399 449 448 398
f 419 427 426 418
f 420 470 471 421
f 418 468 491 441
f 426 434 433 425
f 418 426 425 417
f 424 432 431 423
f 422 430 429 421
f 420 428 427 419
f 417 425 432 424
f 423 431 430 422
f 421 429 428 420
f 425 433 440 432
f 431 439 438 430
f 429 437 436 428
f 427 435 434 426
f 432 440 439 431
f 430 438 437 429
f 428 436 435 427
f 397 447 446 396
f 393 443 450 400
f 450 449 399 400
f 445 453 452 444
f 452 460 459 451
f 444 452 451 443
f 450 458 457 449
f 448 456 455 447
f 446 454 453 445
f 443 451 458 450
f 449 457 456 448
f 447 455 454 446
f 483 490 466 459
f 451 459 466 458
f 457 465 464 456
f 455 463 462 454
f 453 461 460 452
f 458 466 465 457
f 456 464 463 455
f 454 462 461 453
f 484 483 459 460
f 489 488 464 465
f 488 487 463 464
f 487 486 462 463
f 490 489 465 466
f 485 484 460 461
f 486 485 461 462
f 469 468 476 477
f 476 475 483 484
f 468 467 475 476
f 474 473 481 482
f 472 471 479 480
f 470 469 477 478
f 467 474 482 475
f 473 472 480 481
f 471 470 478 479
f 475 482 490 483
f 481 480 488 489
f 479 478 486 487
f 477 476 484 485
f 482 481 489 490
f 480 479 487 488
f 478 477 485 486
g Barrel
usemtl Steel
f 831 832 848 847
f 831 863 864 832
g Barrel
usemtl Polymer
f 863 879 880 864
g Barrel
usemtl Steel
f 832 833 849 848
f 832 864 865 833
g Barrel
usemtl Polymer
f 864 880 881 865
g Barrel
usemtl Steel
f 833 834 850 849
f 833 865 866 834
g Barrel
usemtl Polymer
f 865 881 882 866
g Barrel
usemtl Steel
f 834 835 851 850
f 834 866 867 835
g Barrel
usemtl Polymer
f 866 882 883 867
g Barrel
usemtl Steel
f 835 836 852 851
f 835 867 868 836
g Barrel
usemtl Polymer
f 867 883 884 868
g Barrel
usemtl Steel
f 836 837 853 852
f 836 868 869 837
g Barrel
usemtl Polymer
f 868 884 885 869
g Barrel
usemtl Steel
f 837 838 854 853
f 837 869 870 838
g Barrel
usemtl Polymer
f 869 885 886 870
g Barrel
usemtl Steel
f 838 839 855 854
f 838 870 871 839
g Barrel
usemtl Polymer
f 870 886 887 871
g Barrel
usemtl Steel
f 839 840 856 855
f 839 871 872 840
g Barrel
usemtl Polymer
f 871 887 888 872
g Barrel
usemtl Steel
f 840 841 857 856
f 840 872 873 841
g Barrel
usemtl Polymer
f 872 888 889 873
g Barrel
usemtl Steel
f 841 842 858 857
f 841 873 874 842
g Barrel
usemtl Polymer
f 873 889 890 874
g Barrel
usemtl Steel
f 842 843 859 858
f 842 874 875 843
g Barrel
usemtl Polymer
f 874 890 891 875
g Barrel
usemtl Steel
f 843 844 860 859
f 843 875 876 844
g Barrel
usemtl Polymer
f 875 891 892 876
g Barrel
usemtl Steel
f 844 845 861 860
f 844 876 877 845
g Barrel
usemtl Polymer
f 876 892 893 877
g Barrel
usemtl Steel
f 845 846 862 861
f 845 877 878 846
g Barrel
usemtl Polymer
f 877 893 894 878
g Barrel
usemtl Steel
f 846 831 847 862
f 846 878 863 831
g Barrel
usemtl Polymer
f 878 894 879 863
g Barrel
usemtl Wood
f 895 896 898 897
f 899 901 902 900
f 895 899 900 896
f 897 898 902 901
f 895 897 901 899
f 896 900 902 898
g Body
usemtl Steel
f 903 904 906 905
f 907 909 910 908
f 903 907 908 904
f 905 906 910 909
f 903 905 909 907
f 904 908 910 906
