# Adapted CC0 source; see SOURCES.json
mtllib magnified_west.mtl
v -0.000000 0.022873 0.051344
v -0.015385 0.029246 0.051344
v -0.000000 0.066389 0.051344
v 0.015385 0.029246 0.051344
v -0.000000 0.024484 0.059910
v -0.014246 0.030385 0.059910
v -0.020147 0.044631 0.059910
v -0.014246 0.058877 0.059910
v 0.000000 0.064778 0.059910
v 0.014246 0.058877 0.059910
v 0.020147 0.044631 0.059910
v 0.014246 0.030385 0.059910
v 0.000000 0.028935 0.068728
v -0.011099 0.033532 0.068728
v -0.015696 0.044631 0.068728
v -0.011099 0.055730 0.068728
v 0.000000 0.060327 0.068728
v 0.011099 0.055730 0.068728
v 0.015696 0.044631 0.068728
v 0.011099 0.033532 0.068728
v -0.000000 0.022873 -0.043311
v -0.015385 0.029246 -0.043311
v -0.000000 0.066389 -0.043311
v 0.015385 0.029246 -0.043311
v -0.021462 0.034379 0.028488
v -0.024031 0.039888 0.031006
v -0.025095 0.042170 0.037084
v -0.024031 0.039888 0.043163
v -0.021462 0.034379 0.045681
v -0.018894 0.028871 0.043163
v -0.017829 0.026589 0.037084
v -0.018894 0.028871 0.031006
v -0.022033 0.034113 0.031853
v -0.023596 0.037466 0.033385
v -0.024244 0.038854 0.037084
v -0.023596 0.037466 0.040783
v -0.022033 0.034113 0.042316
v -0.020470 0.030761 0.040783
v -0.019822 0.029372 0.037084
v -0.020470 0.030761 0.033385
v -0.017425 0.036262 0.031853
v -0.018989 0.039614 0.033385
v -0.019636 0.041003 0.037084
v -0.018989 0.039614 0.040783
v -0.017425 0.036262 0.042316
v -0.015862 0.032910 0.040783
v -0.015215 0.031521 0.037084
v -0.015862 0.032910 0.033385
v -0.015385 0.060016 0.051344
v -0.021758 0.044631 0.051344
v 0.021758 0.044631 0.051344
v 0.015385 0.060016 0.051344
v -0.021758 0.044631 -0.043311
v -0.020746 0.050304 0.015279
v -0.018682 0.055289 0.015279
v 0.018682 0.055289 0.015279
v 0.020746 0.050304 0.015279
v -0.020746 0.050304 -0.038355
v -0.018682 0.055289 -0.038355
v 0.018682 0.055289 -0.038355
v 0.020746 0.050304 -0.038355
v -0.015385 0.060016 0.020235
v -0.021758 0.044631 0.020235
v 0.021758 0.044631 0.020235
v 0.015385 0.060016 0.020235
v -0.015385 0.060016 -0.043311
v 0.015385 0.060016 -0.043311
v 0.021758 0.044631 -0.043311
v 0.000000 0.024484 -0.047850
v -0.014246 0.030385 -0.047850
v -0.020147 0.044631 -0.047850
v -0.014246 0.058877 -0.047850
v 0.000000 0.064778 -0.047850
v 0.014246 0.058877 -0.047850
v 0.020147 0.044631 -0.047850
v 0.014246 0.030385 -0.047850
v -0.014246 0.030385 0.068728
v 0.000000 0.024484 0.068728
v -0.020147 0.044631 0.068728
v -0.014246 0.058877 0.068728
v 0.000000 0.064778 0.068728
v 0.014246 0.058877 0.068728
v 0.020147 0.044631 0.068728
v 0.014246 0.030385 0.068728
v 0.000000 0.028935 -0.047850
v -0.011099 0.033532 -0.047850
v -0.015696 0.044631 -0.047850
v -0.011099 0.055730 -0.047850
v 0.000000 0.060327 -0.047850
v 0.011099 0.055730 -0.047850
v 0.015696 0.044631 -0.047850
v 0.011099 0.033532 -0.047850
v -0.019731 0.057991 0.017116
v -0.023399 0.049136 0.017116
v 0.023399 0.049136 0.017116
v 0.019731 0.057991 0.017116
v -0.023399 0.049136 -0.040191
v -0.019731 0.057991 -0.040191
v 0.019731 0.057991 -0.040191
v 0.023399 0.049136 -0.040191
v -0.001163 0.043562 0.022410
v -0.001633 0.042998 0.022410
v -0.002310 0.044631 0.022410
v -0.001633 0.046264 0.022410
v 0.000000 0.046941 0.022410
v 0.001633 0.046264 0.022410
v 0.002310 0.044631 0.022410
v 0.001633 0.042998 0.022410
v 0.003071 0.069157 0.045753
v 0.003071 0.069157 0.041270
v 0.004816 0.069157 0.045753
v 0.004816 0.069157 0.041270
v 0.002089 0.063685 0.050483
v 0.002089 0.063685 0.041270
v 0.004816 0.063685 0.050483
v 0.004816 0.063685 0.041270
v 0.000691 0.069157 -0.037412
v 0.000691 0.069157 -0.034446
v 0.002089 0.063685 -0.042142
v 0.002089 0.063685 -0.034446
v -0.003071 0.069157 0.045753
v -0.003071 0.069157 0.041270
v -0.004816 0.069157 0.045753
v -0.004816 0.069157 0.041270
v -0.002089 0.063685 0.050483
v -0.002089 0.063685 0.041270
v -0.004816 0.063685 0.050483
v -0.004816 0.063685 0.041270
v -0.000691 0.069157 -0.037412
v -0.000691 0.069157 -0.034446
v -0.002089 0.063685 -0.042142
v -0.002089 0.063685 -0.034446
v 0.007407 0.010546 0.030007
v 0.006097 0.010546 0.031368
v 0.006097 0.010546 -0.032374
v 0.007407 0.010546 -0.031013
v 0.008325 0.026799 0.035746
v 0.009706 0.027316 0.034385
v 0.009706 0.027316 -0.035391
v 0.008325 0.026799 -0.036752
v 0.004082 0.010546 0.031368
v 0.002786 0.010546 0.029974
v 0.002786 0.010546 -0.030980
v 0.004082 0.010546 -0.032374
v 0.003651 0.025049 0.034352
v 0.004967 0.025542 0.035746
v 0.004967 0.025542 -0.036752
v 0.003651 0.025049 -0.035358
v 0.006095 0.010546 0.018645
v 0.007407 0.010546 0.019953
v 0.007407 0.010546 -0.020959
v 0.006095 0.010546 -0.019651
v 0.009706 0.027316 0.021991
v 0.008307 0.026792 0.020684
v 0.008307 0.026792 -0.021689
v 0.009706 0.027316 -0.022997
v 0.004082 0.010546 -0.019651
v 0.002786 0.010546 -0.020966
v 0.002786 0.010546 0.019960
v 0.004082 0.010546 0.018645
v 0.003651 0.025049 -0.023005
v 0.004982 0.025547 -0.021689
v 0.004982 0.025547 0.020684
v 0.003651 0.025049 0.021999
v -0.006097 0.010546 0.031368
v -0.007407 0.010546 0.030007
v -0.007407 0.010546 -0.031013
v -0.006097 0.010546 -0.032374
v -0.009706 0.027316 0.034385
v -0.008325 0.026799 0.035746
v -0.008325 0.026799 -0.036752
v -0.009706 0.027316 -0.035391
v -0.002786 0.010546 0.029974
v -0.004082 0.010546 0.031368
v -0.004082 0.010546 -0.032374
v -0.002786 0.010546 -0.030980
v -0.004967 0.025542 0.035746
v -0.003651 0.025049 0.034352
v -0.003651 0.025049 -0.035358
v -0.004967 0.025542 -0.036752
v -0.007407 0.010546 0.019953
v -0.006095 0.010546 0.018645
v -0.006095 0.010546 -0.019651
v -0.007407 0.010546 -0.020959
v -0.008307 0.026792 0.020684
v -0.009706 0.027316 0.021991
v -0.009706 0.027316 -0.022997
v -0.008307 0.026792 -0.021689
v -0.002786 0.010546 -0.020966
v -0.004082 0.010546 -0.019651
v -0.004082 0.010546 0.018645
v -0.002786 0.010546 0.019961
v -0.004982 0.025547 -0.021689
v -0.003651 0.025049 -0.023005
v -0.003651 0.025049 0.021999
v -0.004982 0.025547 0.020684
v -0.024073 0.033162 0.028488
v -0.025344 0.032569 0.030007
v -0.027459 0.037105 0.032080
v -0.026641 0.038671 0.031006
v -0.028335 0.038984 0.037084
v -0.027706 0.040953 0.037084
v -0.027459 0.037105 0.042089
v -0.026641 0.038671 0.043163
v -0.025344 0.032569 0.044162
v -0.024073 0.033162 0.045681
v -0.023229 0.028034 0.042089
v -0.021504 0.027653 0.043163
v -0.022353 0.026155 0.037084
v -0.020440 0.025371 0.037084
v -0.023229 0.028034 0.032080
v -0.021504 0.027653 0.031006
v -0.014856 -0.004446 0.032775
v -0.014856 -0.004446 -0.033640
v -0.014856 -0.004446 0.017350
v -0.014856 -0.004446 -0.018215
v 0.014856 -0.004446 0.032775
v 0.014856 -0.004446 -0.033640
v 0.014856 -0.004446 0.017350
v 0.014856 -0.004446 -0.018215
v -0.022178 0.004759 0.006964
v -0.019496 0.004759 0.006964
v -0.019496 0.004759 -0.013912
v -0.022178 -0.003423 0.006964
v -0.019496 -0.003423 0.006964
v -0.019496 -0.003423 -0.013912
v 0.015814 0.004759 -0.022757
v 0.015814 0.004759 -0.028928
v 0.015814 -0.003423 -0.022757
v 0.015814 -0.003423 -0.028928
v 0.015814 -0.003423 0.022407
v 0.015814 -0.003423 0.028578
v 0.015814 0.004759 0.022407
v 0.015814 0.004759 0.028578
v -0.016457 0.004759 0.022407
v -0.016457 -0.003423 0.022407
v -0.016457 -0.003423 -0.022757
v -0.016457 0.004759 -0.022757
v -0.019496 0.004759 0.026431
v -0.016699 0.004759 0.028578
v -0.016699 -0.003423 0.028578
v -0.019496 -0.003423 0.026431
v -0.019496 -0.003423 -0.026781
v -0.016699 -0.003423 -0.028928
v -0.016699 0.004759 -0.028928
v -0.019496 0.004759 -0.026781
v -0.022178 0.004759 -0.013912
v -0.022178 -0.003423 -0.013912
v -0.022178 0.006815 0.006964
v -0.022178 0.006815 0.039169
v -0.022178 -0.005480 0.006964
v -0.022178 -0.005480 0.039169
v -0.027015 0.006815 -0.013690
v -0.026976 0.004555 -0.015190
v -0.029617 0.004555 -0.013912
v -0.028501 0.006815 -0.012970
v -0.030510 0.004555 -0.010826
v -0.029134 0.006815 -0.010784
v -0.028152 0.004555 0.006964
v -0.026790 0.006815 0.006964
v -0.029617 -0.003219 -0.013912
v -0.028501 -0.005480 -0.012970
v -0.026790 -0.005480 0.006964
v -0.028152 -0.003219 0.006964
v -0.022178 0.004555 -0.013912
v -0.022178 0.006815 -0.012390
v -0.026791 0.006815 0.039169
v -0.028152 0.004555 0.039169
v -0.026976 -0.003219 -0.015190
v -0.027015 -0.005480 -0.013690
v -0.029134 -0.005480 -0.010784
v -0.030510 -0.003219 -0.010826
v -0.022178 -0.005480 -0.012390
v -0.022178 -0.003219 -0.013912
v -0.028152 -0.003219 0.039169
v -0.026791 -0.005480 0.039169
v -0.010805 0.010546 0.032775
v -0.014856 0.006495 0.032775
v -0.014856 0.006495 -0.033640
v -0.010805 0.010546 -0.033640
v -0.010805 0.010546 -0.018215
v -0.014856 0.006495 -0.018215
v -0.014856 0.006495 0.017350
v -0.010805 0.010546 0.017350
v 0.014856 0.006495 0.032775
v 0.010805 0.010546 0.032775
v 0.010805 0.010546 -0.033640
v 0.014856 0.006495 -0.033640
v 0.014856 0.006495 -0.018215
v 0.010805 0.010546 -0.018215
v 0.010805 0.010546 0.017350
v 0.014856 0.006495 0.017350
v 0.000000 0.044109 0.022410
v -0.000369 0.044262 0.022410
v -0.000522 0.044631 0.022410
v -0.000369 0.045000 0.022410
v 0.000000 0.045153 0.022410
v 0.000369 0.045000 0.022410
v 0.000522 0.044631 0.022410
v 0.000369 0.044262 0.022410
v -0.001645 0.044726 0.022410
v -0.001163 0.045889 0.022410
v 0.000000 0.046371 0.022410
v 0.001163 0.045889 0.022410
v 0.001645 0.044726 0.022410
v 0.001163 0.043562 0.022410
v -0.000576 0.042836 0.022410
v 0.000576 0.042836 0.022410
v -0.000576 0.036200 0.022410
v 0.000576 0.036200 0.022410
g Body
usemtl M_PCL_Flat_Black_Lighter
f 136 156 151
f 163 149 160
f 142 164 159
f 153 133 150
f 161 143 158
f 165 177 170
f 147 135 144
f 152 162 157
f 167 187 172
f 182 196 191
f 173 195 178
f 166 186 181
f 176 194 189
f 168 180 175
f 193 183 190
f 21 2 22
f 22 50 53
f 49 23 66
f 3 67 23
f 2 7 50
f 68 4 24
f 4 21 24
f 76 68 24
g Body
usemtl M_PCL_Flat_Black
f 8 79 80
g Body
usemtl M_PCL_Flat_Black_Lighter
f 52 9 10
f 1 12 5
f 1 6 2
f 49 7 8
f 51 10 11
f 49 9 3
f 51 12 4
g Body
usemtl M_PCL_Flat_Glass
f 13 19 17
g Body
usemtl M_PCL_Flat_Black
f 6 78 77
f 5 84 78
f 11 82 83
f 8 81 9
f 6 79 7
f 11 84 12
f 9 82 10
f 25 212 197
f 31 32 25
f 27 200 202
f 32 210 212
f 208 29 206
f 204 27 202
f 31 208 210
f 206 28 204
f 205 203 201
f 36 35 39
f 33 48 40
f 47 38 39
f 45 36 37
f 43 34 35
f 40 47 39
f 38 45 37
f 36 43 35
f 34 41 33
g Body
usemtl M_PCL_Flat_Blue.Cerulean
f 54 59 58
f 56 61 60
g Body
usemtl M_PCL_Flat_Black
f 93 63 62
f 95 65 64
f 97 63 94
f 93 66 98
f 99 65 96
f 95 68 100
f 99 68 67
f 98 53 97
g Body
usemtl M_PCL_Flat_Black_Lighter
f 49 63 50
f 52 64 65
f 68 74 67
f 67 73 23
f 23 72 66
f 66 71 53
f 71 22 53
f 70 21 22
f 69 24 21
g Body
usemtl M_PCL_Flat_Black
f 14 78 13
f 14 79 77
f 15 80 79
f 16 81 80
f 17 82 81
f 18 83 82
f 20 83 19
f 13 84 20
g Body
usemtl M_PCL_Flat_Black_Lighter
f 76 91 75
f 91 74 75
f 74 89 73
f 89 72 73
f 72 87 71
f 71 86 70
f 70 85 69
f 85 76 69
g Body
usemtl M_PCL_Flat_Glass
f 89 91 85
g Body
usemtl M_PCL_Flat_Black_Lighter
f 20 91 92
f 18 91 19
f 18 89 90
f 16 89 17
f 15 88 16
f 14 87 15
f 13 86 14
f 20 85 13
g Body
usemtl M_PCL_Flat_Black
f 54 93 55
f 56 95 57
f 58 94 54
f 59 93 98
f 60 96 56
f 57 100 61
f 60 100 99
f 58 98 97
g Body
usemtl M_PCL_Flat_Blue.Cerulean
f 107 306 108
g Body
usemtl M_PCL_Flat_Black
f 109 112 110
f 109 115 111
f 111 116 112
f 110 116 114
f 109 114 113
f 129 119 131
f 118 132 120
f 120 117 118
f 121 124 123
f 127 121 123
f 128 123 124
f 122 128 124
f 121 126 122
f 129 132 130
f 117 130 118
g Body
usemtl M_PCL_Flat_Black_Lighter
f 133 137 134
f 136 140 139
f 144 148 147
f 145 141 146
f 160 164 163
f 161 157 162
f 155 151 156
f 150 154 153
f 170 166 165
f 171 167 172
f 179 175 180
f 174 178 177
f 195 191 196
f 190 194 193
f 184 188 187
f 185 181 186
f 134 146 141
g Body
usemtl M_PCL_Flat_Black
f 197 199 200
f 200 201 202
f 202 203 204
f 206 203 205
f 208 205 207
f 210 207 209
f 210 211 212
f 212 198 197
f 26 197 200
g Body
usemtl M_PCL_Flat_Black_Lighter
f 290 281 216
f 280 290 287
f 220 214 218
f 217 215 219
f 292 217 219
f 219 215 284
g Body
usemtl M_PCL_Flat_Black
f 222 247 221
f 226 247 223
f 248 225 224
f 224 222 221
f 235 231 236
f 237 236 225
f 236 238 235
f 238 228 245
f 237 227 238
f 236 232 241
f 246 226 223
f 242 222 225
f 244 228 230
f 237 230 229
f 241 234 240
f 235 234 233
f 239 240 235
f 241 242 236
f 243 244 237
f 245 246 238
f 246 244 243
f 242 240 239
f 238 246 223
f 228 229 230
f 234 231 233
f 266 249 273
g Body
usemtl M_PCL_Flat_Black_Lighter
f 214 282 279
f 215 278 283
g Body
usemtl M_PCL_Flat_Black
f 264 268 259
f 273 251 271
f 260 250 249
f 252 250 268
f 263 252 276
f 255 272 257
f 255 269 261
f 265 269 254
f 252 249 250
f 257 264 259
f 253 255 256
f 256 257 258
f 258 259 260
f 272 262 271
f 253 265 254
f 261 270 262
f 264 271 263
f 259 267 260
f 274 270 269
f 276 264 263
f 266 253 258
g Body
usemtl M_PCL_Flat_Black_Lighter
f 286 284 277
f 288 220 218
f 214 279 280
f 282 280 279
f 278 284 283
f 290 288 287
f 286 292 291
f 277 278 213
g Body
usemtl M_PCL_Flat_Blue.Cerulean
f 293 299 297
f 105 304 106
f 104 301 302
f 106 305 107
f 105 302 303
f 103 101 301
g Body
usemtl M_PCL_Flat_Black
f 309 308 307
g Body
usemtl M_PCL_Flat_Black_Lighter
f 136 139 156
f 163 154 149
f 142 145 164
f 153 138 133
f 161 148 143
f 165 174 177
f 147 140 135
f 152 155 162
f 167 184 187
f 182 185 196
f 173 192 195
f 166 169 186
f 176 179 194
f 168 171 180
f 193 188 183
f 21 1 2
f 22 2 50
f 49 3 23
f 3 52 67
f 2 6 7
f 68 51 4
f 4 1 21
f 76 75 68
g Body
usemtl M_PCL_Flat_Black
f 8 7 79
g Body
usemtl M_PCL_Flat_Black_Lighter
f 52 3 9
f 1 4 12
f 1 5 6
f 49 50 7
f 51 52 10
f 49 8 9
f 51 11 12
g Body
usemtl M_PCL_Flat_Glass
f 15 14 13
f 13 20 19
f 19 18 17
f 17 16 15
f 15 13 17
g Body
usemtl M_PCL_Flat_Black
f 6 5 78
f 5 12 84
f 11 10 82
f 8 80 81
f 6 77 79
f 11 83 84
f 9 81 82
f 25 32 212
f 25 26 29
f 26 27 29
f 27 28 29
f 29 30 25
f 30 31 25
f 27 26 200
f 32 31 210
f 208 30 29
f 204 28 27
f 31 30 208
f 206 29 28
f 201 199 209
f 199 198 209
f 198 211 209
f 209 207 201
f 207 205 201
f 35 34 39
f 34 33 39
f 33 40 39
f 39 38 37
f 37 36 39
f 33 41 48
f 47 46 38
f 45 44 36
f 43 42 34
f 40 48 47
f 38 46 45
f 36 44 43
f 34 42 41
g Body
usemtl M_PCL_Flat_Blue.Cerulean
f 54 55 59
f 56 57 61
g Body
usemtl M_PCL_Flat_Black
f 93 94 63
f 95 96 65
f 97 53 63
f 93 62 66
f 99 67 65
f 95 64 68
f 99 100 68
f 98 66 53
g Body
usemtl M_PCL_Flat_Black_Lighter
f 49 62 63
f 52 51 64
f 68 75 74
f 67 74 73
f 23 73 72
f 66 72 71
f 71 70 22
f 70 69 21
f 69 76 24
g Body
usemtl M_PCL_Flat_Black
f 14 77 78
f 14 15 79
f 15 16 80
f 16 17 81
f 17 18 82
f 18 19 83
f 20 84 83
f 13 78 84
g Body
usemtl M_PCL_Flat_Black_Lighter
f 76 92 91
f 91 90 74
f 74 90 89
f 89 88 72
f 72 88 87
f 71 87 86
f 70 86 85
f 85 92 76
g Body
usemtl M_PCL_Flat_Glass
f 85 86 89
f 86 87 89
f 87 88 89
f 89 90 91
f 91 92 85
g Body
usemtl M_PCL_Flat_Black_Lighter
f 20 19 91
f 18 90 91
f 18 17 89
f 16 88 89
f 15 87 88
f 14 86 87
f 13 85 86
f 20 92 85
g Body
usemtl M_PCL_Flat_Black
f 54 94 93
f 56 96 95
f 58 97 94
f 59 55 93
f 60 99 96
f 57 95 100
f 60 61 100
f 58 59 98
g Body
usemtl M_PCL_Flat_Blue.Cerulean
f 107 305 306
g Body
usemtl M_PCL_Flat_Black
f 109 111 112
f 109 113 115
f 111 115 116
f 110 112 116
f 109 110 114
f 129 117 119
f 118 130 132
f 120 119 117
f 121 122 124
f 127 125 121
f 128 127 123
f 122 126 128
f 121 125 126
f 129 131 132
f 117 129 130
g Body
usemtl M_PCL_Flat_Black_Lighter
f 133 138 137
f 136 135 140
f 144 143 148
f 145 142 141
f 160 159 164
f 161 158 157
f 155 152 151
f 150 149 154
f 170 169 166
f 171 168 167
f 179 176 175
f 174 173 178
f 195 192 191
f 190 189 194
f 184 183 188
f 185 182 181
f 134 137 146
g Body
usemtl M_PCL_Flat_Black
f 197 198 199
f 200 199 201
f 202 201 203
f 206 204 203
f 208 206 205
f 210 208 207
f 210 209 211
f 212 211 198
f 26 25 197
g Body
usemtl M_PCL_Flat_Black_Lighter
f 282 216 281
f 216 220 290
f 220 289 290
f 280 281 290
f 220 216 214
f 217 213 215
f 292 285 217
f 215 283 284
f 284 291 219
f 291 292 219
g Body
usemtl M_PCL_Flat_Black
f 222 223 247
f 226 248 247
f 248 226 225
f 224 225 222
f 235 233 231
f 242 225 236
f 225 226 237
f 226 243 237
f 236 237 238
f 238 227 228
f 237 229 227
f 236 231 232
f 246 243 226
f 242 239 222
f 244 245 228
f 237 244 230
f 241 232 234
f 235 240 234
f 246 245 244
f 242 241 240
f 223 222 238
f 222 239 235
f 238 222 235
f 228 227 229
f 234 232 231
f 249 251 273
f 273 274 265
f 265 266 273
g Body
usemtl M_PCL_Flat_Black_Lighter
f 214 216 282
f 215 213 278
g Body
usemtl M_PCL_Flat_Black
f 264 275 268
f 263 271 251
f 271 262 270
f 273 271 270
f 260 267 250
f 250 267 268
f 268 275 252
f 275 276 252
f 263 251 252
f 255 261 272
f 255 254 269
f 265 274 269
f 252 251 249
f 257 272 264
f 253 254 255
f 256 255 257
f 258 257 259
f 272 261 262
f 253 266 265
f 261 269 270
f 264 272 271
f 259 268 267
f 274 273 270
f 276 275 264
f 253 256 258
f 258 260 249
f 249 266 258
g Body
usemtl M_PCL_Flat_Black_Lighter
f 286 291 284
f 288 289 220
f 280 287 218
f 287 288 218
f 218 214 280
f 282 281 280
f 278 277 284
f 290 289 288
f 286 285 292
f 213 217 277
f 217 285 286
f 277 217 286
g Body
usemtl M_PCL_Flat_Blue.Cerulean
f 295 294 293
f 293 300 299
f 299 298 297
f 297 296 295
f 295 293 297
f 105 303 304
f 104 103 301
f 106 304 305
f 105 104 302
f 103 102 101
g Body
usemtl M_PCL_Flat_Black
f 309 310 308
