# Adapted CC0 source; see SOURCES.json
mtllib scope_west.mtl
v -0.000000 0.061026 -0.067018
v -0.000000 0.061026 0.086482
v 0.011269 0.056358 -0.067018
v 0.011269 0.056358 0.086482
v 0.015937 0.045089 -0.067018
v 0.015937 0.045089 0.086482
v 0.011269 0.033820 -0.067018
v 0.011269 0.033820 0.086482
v -0.000000 0.029152 -0.067018
v -0.000000 0.029152 0.086482
v -0.011269 0.033820 -0.067018
v -0.011269 0.033820 0.086482
v -0.015937 0.045089 -0.067018
v -0.015937 0.045089 0.086482
v -0.011269 0.056358 -0.067018
v -0.011269 0.056358 0.086482
v -0.000000 0.074064 -0.153119
v 0.020489 0.065578 -0.153119
v 0.028975 0.045089 -0.153119
v 0.020489 0.024600 -0.153119
v -0.000000 0.016114 -0.153119
v -0.020489 0.024600 -0.153119
v -0.028975 0.045089 -0.153119
v -0.020489 0.065578 -0.153119
v -0.000000 0.074064 -0.158132
v 0.020489 0.065578 -0.158132
v 0.028975 0.045089 -0.158132
v 0.020489 0.024600 -0.158132
v -0.000000 0.016114 -0.158132
v -0.020489 0.024600 -0.158132
v -0.028975 0.045089 -0.158132
v -0.020489 0.065578 -0.158132
v -0.000000 0.074064 -0.196292
v 0.020489 0.065578 -0.196292
v 0.028975 0.045089 -0.196292
v 0.020489 0.024600 -0.196292
v -0.000000 0.016114 -0.196292
v -0.020489 0.024600 -0.196292
v -0.028975 0.045089 -0.196292
v -0.020489 0.065578 -0.196292
v -0.000000 0.064126 0.089769
v 0.013461 0.058550 0.089769
v 0.019037 0.045089 0.089769
v 0.013461 0.031628 0.089769
v -0.000000 0.026052 0.089769
v -0.013461 0.031628 0.089769
v -0.019037 0.045089 0.089769
v -0.013461 0.058550 0.089769
v -0.000000 0.064126 0.099079
v 0.013461 0.058550 0.099079
v 0.019037 0.045089 0.099079
v 0.013461 0.031628 0.099079
v -0.000000 0.026052 0.099079
v -0.013461 0.031628 0.099079
v -0.019037 0.045089 0.099079
v -0.013461 0.058550 0.099079
v -0.000000 0.065730 0.104612
v 0.014595 0.059684 0.104612
v 0.020641 0.045089 0.104612
v 0.014595 0.030494 0.104612
v -0.000000 0.024448 0.104612
v -0.014595 0.030494 0.104612
v -0.020641 0.045089 0.104612
v -0.014595 0.059684 0.104612
v -0.000000 0.064452 0.127741
v 0.013692 0.058781 0.127741
v 0.019363 0.045089 0.127741
v 0.013692 0.031397 0.127741
v -0.000000 0.025726 0.127741
v -0.013692 0.031397 0.127741
v -0.019363 0.045089 0.127741
v -0.013692 0.058781 0.127741
v -0.000000 0.061107 0.161842
v 0.011326 0.056416 0.161842
v 0.016018 0.045089 0.161842
v 0.011326 0.033763 0.161842
v -0.000000 0.029071 0.161842
v -0.011327 0.033763 0.161842
v -0.016018 0.045089 0.161842
v -0.011327 0.056416 0.161842
v -0.000000 0.025726 0.145110
v -0.013692 0.031397 0.145110
v 0.019363 0.045089 0.145110
v 0.013692 0.031397 0.145110
v -0.000000 0.064452 0.145110
v 0.013692 0.058781 0.145110
v -0.013692 0.058781 0.145110
v -0.019363 0.045089 0.145110
v -0.000000 0.068353 0.104612
v 0.016450 0.061539 0.104612
v 0.023263 0.045089 0.104612
v 0.016450 0.028639 0.104612
v -0.000000 0.021826 0.104612
v -0.016450 0.028639 0.104612
v -0.023264 0.045089 0.104612
v -0.016450 0.061539 0.104612
v -0.000000 0.068353 0.127741
v 0.016450 0.061539 0.127741
v 0.023263 0.045089 0.127741
v 0.016450 0.028639 0.127741
v -0.000000 0.021826 0.127741
v -0.016450 0.028639 0.127741
v -0.023264 0.045089 0.127741
v -0.016450 0.061539 0.127741
v -0.000000 0.060532 -0.009525
v 0.010919 0.056009 -0.009525
v 0.015443 0.045089 -0.009525
v 0.010919 0.034170 -0.009525
v -0.000000 0.029647 -0.009525
v -0.010920 0.034170 -0.009525
v -0.015443 0.045089 -0.009525
v -0.010920 0.056009 -0.009525
v -0.000000 0.060532 0.032682
v 0.010919 0.056009 0.032682
v 0.015443 0.045089 0.032682
v 0.010919 0.034170 0.032682
v -0.000000 0.029647 0.032682
v -0.010920 0.034170 0.032682
v -0.015443 0.045089 0.032682
v -0.010920 0.056009 0.032682
v -0.020097 0.064270 0.011579
v -0.020097 0.058652 -0.001984
v -0.020097 0.045089 -0.007602
v -0.020097 0.031526 -0.001984
v -0.020097 0.025908 0.011579
v -0.020097 0.031526 0.025141
v -0.020097 0.045089 0.030759
v -0.020097 0.058652 0.025141
v 0.020097 0.064270 0.011579
v 0.020097 0.058652 -0.001984
v 0.020097 0.045089 -0.007602
v 0.020097 0.031526 -0.001984
v 0.020097 0.025908 0.011579
v 0.020097 0.031526 0.025141
v 0.020097 0.045089 0.030759
v 0.020097 0.058652 0.025141
v 0.019181 0.064959 0.011579
v 0.013563 0.064959 -0.001984
v -0.000000 0.064959 -0.007602
v -0.013563 0.064959 -0.001984
v -0.019181 0.064959 0.011579
v -0.013563 0.064959 0.025141
v -0.000000 0.064959 0.030759
v 0.013563 0.064959 0.025141
v 0.019181 0.025219 0.011579
v 0.013563 0.025219 -0.001984
v -0.000000 0.025219 -0.007602
v -0.013563 0.025219 -0.001984
v -0.019181 0.025219 0.011579
v -0.013563 0.025219 0.025141
v -0.000000 0.025219 0.030759
v 0.013563 0.025219 0.025141
v 0.019103 0.054728 0.011579
v 0.019103 0.051905 0.004763
v 0.019103 0.045089 0.001940
v 0.019103 0.038273 0.004763
v 0.019103 0.035450 0.011579
v 0.019103 0.038273 0.018395
v 0.019103 0.045089 0.021218
v 0.019103 0.051905 0.018395
v 0.024043 0.054728 0.011579
v 0.024043 0.051905 0.004763
v 0.024043 0.045089 0.001940
v 0.024043 0.038273 0.004763
v 0.024043 0.035450 0.011579
v 0.024043 0.038273 0.018395
v 0.024043 0.045089 0.021218
v 0.024043 0.051905 0.018395
v 0.024043 0.060088 0.011579
v 0.024043 0.055695 0.000972
v 0.024043 0.045089 -0.003421
v 0.024043 0.034483 0.000972
v 0.024043 0.030090 0.011579
v 0.024043 0.034483 0.022185
v 0.024043 0.045089 0.026578
v 0.024043 0.055695 0.022185
v 0.032181 0.060088 0.011579
v 0.032181 0.055695 0.000972
v 0.032181 0.045089 -0.003421
v 0.032181 0.034483 0.000972
v 0.032181 0.030090 0.011579
v 0.032181 0.034483 0.022185
v 0.032181 0.045089 0.026578
v 0.032181 0.055695 0.022185
v -0.009639 0.063604 0.011579
v -0.006816 0.063604 0.004763
v -0.000000 0.063604 0.001940
v 0.006816 0.063604 0.004763
v 0.009639 0.063604 0.011579
v 0.006816 0.063604 0.018395
v -0.000000 0.063604 0.021218
v -0.006816 0.063604 0.018395
v -0.009639 0.068543 0.011579
v -0.006816 0.068543 0.004763
v -0.000000 0.068543 0.001940
v 0.006816 0.068543 0.004763
v 0.009639 0.068543 0.011579
v 0.006816 0.068543 0.018395
v -0.000000 0.068543 0.021218
v -0.006816 0.068543 0.018395
v -0.014999 0.068543 0.011579
v -0.010606 0.068543 0.000972
v -0.000000 0.068543 -0.003421
v 0.010606 0.068543 0.000972
v 0.014999 0.068543 0.011579
v 0.010606 0.068543 0.022185
v -0.000000 0.068543 0.026578
v -0.010606 0.068543 0.022185
v -0.014999 0.075490 0.011579
v -0.010606 0.075490 0.000972
v -0.000000 0.075490 -0.003421
v 0.010606 0.075490 0.000972
v 0.014999 0.075490 0.011579
v 0.010606 0.075490 0.022185
v -0.000000 0.075490 0.026578
v -0.010606 0.075490 0.022185
v -0.019591 0.035450 0.011579
v -0.019591 0.038273 0.004763
v -0.019591 0.045089 0.001940
v -0.019591 0.051905 0.004763
v -0.019591 0.054728 0.011579
v -0.019591 0.051905 0.018395
v -0.019591 0.045089 0.021218
v -0.019591 0.038273 0.018395
v -0.024531 0.035450 0.011579
v -0.024531 0.038273 0.004763
v -0.024531 0.045089 0.001940
v -0.024531 0.051905 0.004763
v -0.024531 0.054728 0.011579
v -0.024531 0.051905 0.018395
v -0.024531 0.045089 0.021218
v -0.024531 0.038273 0.018395
v -0.024531 0.030090 0.011579
v -0.024531 0.034483 0.000972
v -0.024531 0.045089 -0.003421
v -0.024531 0.055695 0.000972
v -0.024531 0.060088 0.011579
v -0.024531 0.055695 0.022185
v -0.024531 0.045089 0.026578
v -0.024531 0.034483 0.022185
v -0.032668 0.030090 0.011579
v -0.032668 0.034483 0.000972
v -0.032668 0.045089 -0.003421
v -0.032668 0.055695 0.000972
v -0.032668 0.060088 0.011579
v -0.032668 0.055695 0.022185
v -0.032668 0.045089 0.026578
v -0.032668 0.034483 0.022185
v -0.006419 0.064963 0.108043
v -0.004887 0.065598 0.109702
v -0.011047 0.063047 0.109702
v -0.009514 0.063681 0.108043
v -0.004887 0.065598 0.122652
v -0.006419 0.064963 0.124310
v -0.009514 0.063681 0.124310
v -0.011047 0.063047 0.122652
v -0.010510 0.079175 0.109702
v -0.012043 0.078540 0.108043
v -0.015138 0.077258 0.108043
v -0.016670 0.076623 0.109702
v -0.012043 0.078540 0.124310
v -0.010510 0.079175 0.122652
v -0.016670 0.076623 0.122652
v -0.015138 0.077258 0.124310
v -0.000000 0.059880 0.069364
v -0.000000 0.029500 0.069364
v 0.011293 0.034177 0.069364
v 0.014594 0.043910 0.069364
v 0.011293 0.055202 0.069364
v -0.000000 0.059880 0.048269
v -0.000000 0.029500 0.048269
v 0.011293 0.034177 0.048269
v 0.014594 0.043910 0.048269
v 0.011293 0.055202 0.048269
v 0.012393 -0.005150 0.048269
v 0.012393 -0.005150 0.069364
v 0.005646 0.031838 0.069364
v 0.005646 0.031838 0.048269
v 0.004987 -0.005150 0.048269
v 0.004987 -0.005150 0.069364
v -0.011293 0.034177 0.069364
v -0.014594 0.043910 0.069364
v -0.011293 0.055202 0.069364
v -0.011293 0.034177 0.048269
v -0.014594 0.043910 0.048269
v -0.011293 0.055202 0.048269
v -0.012393 -0.005150 0.048269
v -0.012393 -0.005150 0.069364
v -0.005646 0.031838 0.069364
v -0.005646 0.031838 0.048269
v -0.004987 -0.005150 0.048269
v -0.004987 -0.005150 0.069364
v -0.014937 0.004039 0.058816
v -0.014937 0.002906 0.056082
v -0.014937 0.000172 0.054950
v -0.014937 -0.002562 0.056082
v -0.014937 -0.003694 0.058816
v -0.014937 -0.002562 0.061550
v -0.014937 0.000172 0.062683
v -0.014937 0.002906 0.061550
v 0.014937 0.004039 0.058816
v 0.014937 0.002906 0.056082
v 0.014937 0.000172 0.054950
v 0.014937 -0.002562 0.056082
v 0.014937 -0.003694 0.058816
v 0.014937 -0.002562 0.061550
v 0.014937 0.000172 0.062683
v 0.014937 0.002906 0.061550
v -0.000000 0.000172 0.054950
v -0.000000 -0.002562 0.056082
v -0.000000 0.004039 0.058816
v -0.000000 0.002906 0.056082
v -0.000000 0.002906 0.061550
v -0.000000 -0.002562 0.061550
v -0.000000 0.000172 0.062683
v -0.000000 -0.003694 0.058816
v 0.013692 0.058781 0.161842
v -0.000000 0.064452 0.161842
v 0.019363 0.045089 0.161842
v 0.013692 0.031397 0.161842
v -0.000000 0.025726 0.161842
v -0.013692 0.031397 0.161842
v -0.019363 0.045089 0.161842
v -0.013692 0.058781 0.161842
v 0.017079 0.062168 -0.196292
v -0.000000 0.069242 -0.196292
v 0.024153 0.045089 -0.196292
v 0.017079 0.028010 -0.196292
v -0.000000 0.020936 -0.196292
v -0.017079 0.028010 -0.196292
v -0.024153 0.045089 -0.196292
v -0.017079 0.062168 -0.196292
v 0.007405 0.026248 0.069364
v 0.000000 0.023181 0.069364
v 0.020946 0.044127 0.069364
v 0.014811 0.029316 0.069364
v 0.014811 0.058937 0.069364
v 0.000000 0.065072 0.069364
v 0.007405 0.026248 0.048269
v 0.000000 0.023181 0.048269
v 0.020946 0.044127 0.048269
v 0.014811 0.029316 0.048269
v 0.014811 0.058937 0.048269
v 0.000000 0.065072 0.048269
v -0.007405 0.026248 0.069364
v -0.020946 0.044127 0.069364
v -0.014811 0.029316 0.069364
v -0.014811 0.058937 0.069364
v -0.007405 0.026248 0.048269
v -0.020946 0.044127 0.048269
v -0.014811 0.029316 0.048269
v -0.014811 0.058937 0.048269
v -0.000000 0.064270 -0.009525
v 0.013563 0.058652 -0.009525
v 0.019181 0.045089 -0.009525
v 0.013563 0.031526 -0.009525
v -0.000000 0.025908 -0.009525
v -0.013563 0.031526 -0.009525
v -0.019181 0.045089 -0.009525
v -0.013563 0.058652 -0.009525
v -0.000000 0.064270 0.032682
v 0.013563 0.058652 0.032682
v 0.019181 0.045089 0.032682
v 0.013563 0.031526 0.032682
v -0.000000 0.025908 0.032682
v -0.013563 0.031526 0.032682
v -0.019181 0.045089 0.032682
v -0.013563 0.058652 0.032682
v -0.015167 0.045089 -0.069840
v -0.010724 0.055813 -0.069840
v -0.000000 0.029922 -0.069840
v -0.010724 0.034365 -0.069840
v 0.015167 0.045089 -0.069840
v 0.010724 0.034365 -0.069840
v -0.000000 0.060256 -0.069840
v 0.010724 0.055813 -0.069840
v 0.017079 0.062168 -0.164110
v -0.000000 0.069242 -0.164110
v 0.024153 0.045089 -0.164110
v 0.017079 0.028010 -0.164110
v -0.000000 0.020936 -0.164110
v -0.017079 0.028010 -0.164110
v -0.024153 0.045089 -0.164110
v -0.017079 0.062168 -0.164110
v -0.000000 0.060267 0.147214
v 0.010732 0.055821 0.147214
v 0.015177 0.045089 0.147214
v 0.010732 0.034357 0.147214
v -0.000000 0.029912 0.147214
v -0.010732 0.034357 0.147214
v -0.015178 0.045089 0.147214
v -0.010732 0.055821 0.147214
v -0.000000 0.059880 -0.029323
v -0.000000 0.029500 -0.029323
v 0.011293 0.034177 -0.029323
v 0.014594 0.043910 -0.029323
v 0.011293 0.055202 -0.029323
v -0.000000 0.059880 -0.050419
v -0.000000 0.029500 -0.050419
v 0.011293 0.034177 -0.050419
v 0.014594 0.043910 -0.050419
v 0.011293 0.055202 -0.050419
v 0.012393 -0.005150 -0.050419
v 0.012393 -0.005150 -0.029323
v 0.005646 0.031838 -0.029323
v 0.005646 0.031838 -0.050419
v 0.004987 -0.005150 -0.050419
v 0.004987 -0.005150 -0.029323
v -0.011293 0.034177 -0.029323
v -0.014594 0.043910 -0.029323
v -0.011293 0.055202 -0.029323
v -0.011293 0.034177 -0.050419
v -0.014594 0.043910 -0.050419
v -0.011293 0.055202 -0.050419
v -0.012393 -0.005150 -0.050419
v -0.012393 -0.005150 -0.029323
v -0.005646 0.031838 -0.029323
v -0.005646 0.031838 -0.050419
v -0.004987 -0.005150 -0.050419
v -0.004987 -0.005150 -0.029323
v -0.014937 0.004039 -0.039871
v -0.014937 0.002906 -0.042605
v -0.014937 0.000172 -0.043737
v -0.014937 -0.002562 -0.042605
v -0.014937 -0.003694 -0.039871
v -0.014937 -0.002562 -0.037137
v -0.014937 0.000172 -0.036005
v -0.014937 0.002906 -0.037137
v 0.014937 0.004039 -0.039871
v 0.014937 0.002906 -0.042605
v 0.014937 0.000172 -0.043737
v 0.014937 -0.002562 -0.042605
v 0.014937 -0.003694 -0.039871
v 0.014937 -0.002562 -0.037137
v 0.014937 0.000172 -0.036005
v 0.014937 0.002906 -0.037137
v -0.000000 0.000172 -0.043737
v -0.000000 -0.002562 -0.042605
v -0.000000 0.004039 -0.039871
v -0.000000 0.002906 -0.042605
v -0.000000 0.002906 -0.037137
v -0.000000 -0.002562 -0.037137
v -0.000000 0.000172 -0.036005
v -0.000000 -0.003694 -0.039871
v 0.007405 0.026248 -0.029323
v 0.000000 0.023181 -0.029323
v 0.020946 0.044127 -0.029323
v 0.014811 0.029316 -0.029323
v 0.014811 0.058937 -0.029323
v 0.000000 0.065072 -0.029323
v 0.007405 0.026248 -0.050419
v 0.000000 0.023181 -0.050419
v 0.020946 0.044127 -0.050419
v 0.014811 0.029316 -0.050419
v 0.014811 0.058937 -0.050419
v 0.000000 0.065072 -0.050419
v -0.007405 0.026248 -0.029323
v -0.020946 0.044127 -0.029323
v -0.014811 0.029316 -0.029323
v -0.014811 0.058937 -0.029323
v -0.007405 0.026248 -0.050419
v -0.020946 0.044127 -0.050419
v -0.014811 0.029316 -0.050419
v -0.014811 0.058937 -0.050419
v -0.010243 0.055332 0.145110
v -0.010243 0.034847 0.145110
v 0.010242 0.034847 0.145110
v 0.010242 0.055332 0.145110
v -0.014485 0.045089 0.145110
v -0.000000 0.030604 0.145110
v 0.014485 0.045089 0.145110
v -0.000000 0.059574 0.145110
v 0.016450 0.028639 0.112322
v 0.016450 0.028639 0.120032
v -0.000000 0.021826 0.120032
v -0.000000 0.021826 0.112322
v 0.016450 0.061539 0.112322
v 0.016450 0.061539 0.120032
v 0.023263 0.045089 0.120032
v 0.023263 0.045089 0.112322
v -0.023264 0.045089 0.112322
v -0.023264 0.045089 0.120032
v -0.016450 0.061539 0.120032
v -0.016450 0.061539 0.112322
v -0.016450 0.028639 0.120032
v -0.016450 0.028639 0.112322
v -0.000000 0.068353 0.112322
v -0.000000 0.068353 0.120032
v 0.000000 0.044191 0.024456
v -0.000369 0.044344 0.024456
v -0.000522 0.044713 0.024456
v -0.000369 0.045082 0.024456
v 0.000000 0.045235 0.024456
v 0.000369 0.045082 0.024456
v 0.000522 0.044713 0.024456
v 0.000369 0.044344 0.024456
v 0.000281 0.042918 0.024456
v 0.001795 0.044432 0.024456
v 0.015444 0.045290 0.024456
v 0.001139 0.039567 0.024456
v 0.001139 0.039122 0.024456
v 0.001139 0.041171 0.024456
v 0.001139 0.041616 0.024456
v 0.001139 0.037518 0.024456
v 0.001139 0.037073 0.024456
v 0.001139 0.035469 0.024456
v 0.001139 0.035024 0.024456
v 0.001139 0.033420 0.024456
v 0.001139 0.032975 0.024456
v 0.005146 0.045852 0.024456
v 0.005591 0.045852 0.024456
v 0.003542 0.045852 0.024456
v 0.003097 0.045852 0.024456
v 0.007195 0.045852 0.024456
v 0.007640 0.045852 0.024456
v 0.009244 0.045852 0.024456
v 0.009689 0.045852 0.024456
v 0.011293 0.045852 0.024456
v 0.011738 0.045852 0.024456
v 0.010291 0.045290 0.024456
v 0.010291 0.044137 0.024456
v 0.000576 0.034422 0.024456
v -0.000281 0.034731 0.024456
v -0.000576 0.029577 0.024456
v 0.000576 0.029577 0.024456
v -0.000281 0.042918 0.024456
v -0.001795 0.044994 0.024456
v -0.015444 0.045290 0.024456
v -0.001139 0.039567 0.024456
v -0.001139 0.039122 0.024456
v -0.001139 0.041171 0.024456
v -0.001139 0.041616 0.024456
v -0.001139 0.037518 0.024456
v -0.001139 0.037073 0.024456
v -0.001139 0.035469 0.024456
v -0.001139 0.035024 0.024456
v -0.001139 0.033420 0.024456
v -0.001139 0.032975 0.024456
v -0.005146 0.045852 0.024456
v -0.005591 0.045852 0.024456
v -0.003542 0.045852 0.024456
v -0.003097 0.045852 0.024456
v -0.007195 0.045852 0.024456
v -0.007640 0.045852 0.024456
v -0.009244 0.045852 0.024456
v -0.009689 0.045852 0.024456
v -0.011293 0.045852 0.024456
v -0.011738 0.045852 0.024456
v -0.010291 0.045290 0.024456
v -0.009982 0.044994 0.024456
v -0.000576 0.034422 0.024456
v 0.000281 0.034731 0.024456
v 0.000281 0.046508 0.024456
v 0.001795 0.044994 0.024456
v 0.015444 0.044137 0.024456
v 0.001139 0.049859 0.024456
v 0.001139 0.050304 0.024456
v 0.001139 0.048255 0.024456
v 0.001139 0.047810 0.024456
v 0.001139 0.051908 0.024456
v 0.001139 0.052353 0.024456
v 0.001139 0.053957 0.024456
v 0.001139 0.054402 0.024456
v 0.001139 0.056006 0.024456
v 0.001139 0.056451 0.024456
v 0.005146 0.043575 0.024456
v 0.005591 0.043575 0.024456
v 0.003542 0.043575 0.024456
v 0.003097 0.043575 0.024456
v 0.007195 0.043575 0.024456
v 0.007640 0.043575 0.024456
v 0.009244 0.043575 0.024456
v 0.009689 0.043575 0.024456
v 0.011293 0.043575 0.024456
v 0.011738 0.043575 0.024456
v 0.009982 0.044994 0.024456
v 0.009982 0.044432 0.024456
v -0.000576 0.055004 0.024456
v -0.000576 0.059850 0.024456
v 0.000576 0.059850 0.024456
v -0.000281 0.046508 0.024456
v -0.001795 0.044432 0.024456
v -0.015444 0.044137 0.024456
v -0.001139 0.049859 0.024456
v -0.001139 0.050304 0.024456
v -0.001139 0.048255 0.024456
v -0.001139 0.047810 0.024456
v -0.001139 0.051908 0.024456
v -0.001139 0.052353 0.024456
v -0.001139 0.053957 0.024456
v -0.001139 0.054402 0.024456
v -0.001139 0.056006 0.024456
v -0.001139 0.056451 0.024456
v -0.005146 0.043575 0.024456
v -0.005591 0.043575 0.024456
v -0.003542 0.043575 0.024456
v -0.003097 0.043575 0.024456
v -0.007195 0.043575 0.024456
v -0.007640 0.043575 0.024456
v -0.009244 0.043575 0.024456
v -0.009689 0.043575 0.024456
v -0.011293 0.043575 0.024456
v -0.011738 0.043575 0.024456
v -0.010291 0.044137 0.024456
v -0.009982 0.044432 0.024456
v 0.000576 0.055004 0.024456
v 0.000281 0.054695 0.024456
v -0.000281 0.054695 0.024456
g Body
usemtl M_PCL_Flat_Grey_Darker
f 2 3 1
f 4 5 3
f 6 7 5
f 8 9 7
f 10 11 9
f 12 13 11
f 6 44 8
f 14 15 13
f 16 1 15
f 15 23 13
f 24 31 23
f 5 18 3
f 11 21 9
f 1 24 15
f 1 18 17
f 5 20 19
f 13 22 11
f 9 20 7
g Body
usemtl M_PCL_Flat_Black_Lighter
f 27 34 26
g Body
usemtl M_PCL_Flat_Grey_Darker
f 22 29 21
f 20 27 19
f 17 26 25
f 17 32 24
f 23 30 22
f 21 28 20
f 19 26 18
g Body
usemtl M_PCL_Flat_Black_Lighter
f 32 39 31
f 30 37 29
f 28 35 27
f 25 34 33
f 25 40 32
f 31 38 30
f 29 36 28
g Body
usemtl M_PCL_Flat_Grey_Darker
f 43 52 44
f 14 46 47
f 8 45 10
f 14 48 16
f 6 42 43
f 12 45 46
f 2 48 41
f 2 42 4
f 55 64 56
f 41 50 42
f 41 56 49
f 46 55 47
f 44 53 45
f 43 50 51
f 47 56 48
f 45 54 46
g Body
usemtl M_PCL_Flat_Black
f 64 89 57
g Body
usemtl M_PCL_Flat_Grey_Darker
f 53 62 54
f 52 59 60
f 49 58 50
f 49 64 57
f 54 63 55
f 53 60 61
f 51 58 59
g Body
usemtl M_PCL_Flat_Black
f 58 89 90
f 59 90 91
f 59 92 60
f 61 92 93
f 61 94 62
f 62 95 63
f 63 96 64
g Body
usemtl M_PCL_Flat_Black_Lighter
f 81 322 82
g Body
usemtl M_PCL_Flat_Grey_Darker
f 88 72 71
f 81 70 69
f 67 84 68
f 87 65 72
f 82 71 70
f 68 81 69
f 66 83 67
g Body
usemtl M_PCL_Flat_Black_Lighter
f 370 331 332
f 83 320 84
f 85 317 86
f 85 324 318
f 82 323 88
f 84 321 81
f 83 317 319
f 88 324 87
g Body
usemtl M_PCL_Flat_Grey_Darker
f 65 86 66
g Body
usemtl M_PCL_Flat_Black
f 474 101 475
f 479 98 99
f 482 104 483
f 475 102 485
f 474 99 100
f 488 98 478
f 488 104 97
f 482 102 103
f 104 71 72
f 103 70 71
f 70 101 69
f 101 68 69
f 100 67 68
f 67 98 66
f 66 97 65
f 97 72 65
f 256 260 251
f 264 261 262
g Body
usemtl M_PCL_Flat_Blue.Cerulean
f 254 264 255
g Body
usemtl M_PCL_Flat_Black
f 250 262 253
g Body
usemtl M_PCL_Flat_Black_Lighter
f 368 127 367
f 127 366 367
f 124 149 125
f 143 368 361
f 362 135 136
f 364 135 363
f 128 368 142
f 354 131 355
f 356 131 132
f 123 360 359
f 358 123 359
f 147 146 150
f 128 141 121
f 362 143 361
f 126 150 366
f 126 149 150
f 136 144 362
f 143 144 140
f 127 128 124
f 134 132 130
f 141 122 121
f 122 140 360
f 360 139 353
f 139 354 353
f 130 354 138
f 130 137 129
f 137 136 129
f 124 358 148
f 358 147 148
f 356 147 357
f 366 151 365
f 364 151 152
f 134 364 152
f 134 145 133
f 132 145 146
f 132 146 356
g Body
usemtl M_PCL_Flat_Black
f 164 163 162
f 155 164 156
f 153 162 154
f 160 161 153
f 158 167 159
f 157 164 165
f 154 163 155
f 159 168 160
f 158 165 166
f 175 176 172
f 179 178 182
f 171 180 172
f 169 178 170
f 176 177 169
f 174 183 175
f 173 180 181
f 170 179 171
f 175 184 176
f 173 182 174
f 195 194 198
f 187 196 188
f 185 194 186
f 192 193 185
f 191 198 199
f 188 197 189
f 186 195 187
f 192 199 200
f 190 197 198
f 204 206 208
f 212 211 210
f 204 211 212
f 201 210 202
f 201 216 209
f 206 215 207
f 204 213 205
f 202 211 203
f 207 216 208
f 206 213 214
f 226 232 230
f 220 227 228
f 217 226 218
f 224 225 217
f 222 231 223
f 221 228 229
f 219 226 227
f 223 232 224
f 221 230 222
f 240 234 236
f 248 246 244
f 236 243 244
f 233 242 234
f 240 241 233
f 238 247 239
f 237 244 245
f 235 242 243
f 239 248 240
f 237 246 238
f 258 250 249
f 254 262 261
f 256 264 263
f 252 260 259
f 249 259 258
g Body
usemtl M_PCL_Flat_Black_Lighter
f 339 275 279
f 337 344 338
f 342 335 336
f 341 337 335
f 333 276 336
f 336 275 342
f 280 339 279
f 340 333 334
f 280 275 276
f 349 287 351
f 344 348 338
f 346 351 347
f 348 350 346
f 288 345 347
f 287 347 351
f 349 292 291
f 345 340 334
f 287 292 288
g Body
usemtl M_PCL_Flat_Black
f 296 298 300
f 306 304 302
f 309 304 310
f 311 302 312
f 313 301 311
f 314 307 315
f 316 304 305
f 312 303 309
f 315 308 313
f 316 306 314
f 297 314 298
f 299 313 300
f 294 309 295
f 297 310 316
f 298 315 299
f 300 311 293
f 293 312 294
f 295 310 296
g Body
usemtl M_PCL_Flat_Black_Lighter
f 73 317 318
f 75 317 74
f 75 320 319
f 77 320 76
f 78 321 77
f 78 323 322
f 79 324 323
f 80 318 324
f 35 328 327
f 371 330 372
f 373 328 374
f 376 326 325
f 370 326 375
f 369 330 331
f 371 328 329
f 376 327 373
f 266 333 277
f 267 335 268
f 269 335 337
f 265 337 338
f 271 339 340
f 272 341 342
f 274 341 273
f 270 343 274
f 267 333 336
f 272 339 278
f 266 345 334
f 281 346 347
f 283 346 282
f 265 348 283
f 271 349 290
f 284 350 285
f 286 350 352
f 270 352 344
f 281 345 289
f 284 349 351
f 106 353 354
f 107 354 355
f 107 356 108
f 108 357 109
f 110 357 358
f 111 358 359
f 111 360 112
f 112 353 105
f 114 361 113
f 115 362 114
f 115 364 363
f 117 364 116
f 118 365 117
f 119 366 118
f 119 368 367
f 120 361 368
f 36 329 328
f 38 329 37
f 39 330 38
f 40 331 39
f 40 326 332
f 34 326 33
f 34 327 325
g Body
usemtl M_PCL_Flat_Grey_Darker
f 468 373 471
f 470 374 371
f 469 372 369
f 465 375 472
f 468 375 376
f 471 374 467
f 470 372 466
f 465 369 370
g Body
usemtl M_PCL_Flat_Glass
f 381 383 378
f 387 385 391
g Body
usemtl M_PCL_Flat_Black_Lighter
f 451 403 407
f 449 456 450
f 454 447 448
f 453 449 447
f 445 404 448
f 448 403 454
f 408 451 407
f 452 445 446
f 408 403 404
f 461 415 463
f 456 460 450
f 458 463 459
f 460 462 458
f 416 457 459
f 415 459 463
f 461 420 419
f 457 452 446
f 415 420 416
g Body
usemtl M_PCL_Flat_Black
f 424 426 428
f 434 432 430
f 437 432 438
f 439 430 440
f 441 429 439
f 442 435 443
f 444 432 433
f 440 431 437
f 443 436 441
f 444 434 442
f 425 442 426
f 427 441 428
f 422 437 423
f 425 438 444
f 426 443 427
f 428 439 421
f 421 440 422
f 423 438 424
g Body
usemtl M_PCL_Flat_Black_Lighter
f 394 445 405
f 395 447 396
f 397 447 449
f 393 449 450
f 399 451 452
f 400 453 454
f 402 453 401
f 398 455 402
f 395 445 448
f 400 451 406
f 394 457 446
f 409 458 459
f 411 458 410
f 393 460 411
f 399 461 418
f 412 462 413
f 414 462 464
f 398 464 456
f 409 457 417
f 412 461 463
f 80 469 465
f 77 466 78
f 75 467 76
f 74 472 468
f 80 472 73
f 78 469 79
f 76 470 77
f 74 471 75
g Body
usemtl M_PCL_Flat_Black
f 95 486 481
g Body
usemtl M_PCL_Flat_Blue.Cerulean
f 481 485 482
g Body
usemtl M_PCL_Flat_Black
f 89 484 487
g Body
usemtl M_PCL_Flat_Blue.Cerulean
f 487 483 488
g Body
usemtl M_PCL_Flat_Black
f 89 477 90
g Body
usemtl M_PCL_Flat_Blue.Cerulean
f 487 478 477
g Body
usemtl M_PCL_Flat_Black
f 92 480 473
g Body
usemtl M_PCL_Flat_Blue.Cerulean
f 473 479 474
g Body
usemtl M_PCL_Flat_Black
f 93 486 94
g Body
usemtl M_PCL_Flat_Blue.Cerulean
f 476 485 486
g Body
usemtl M_PCL_Flat_Black
f 95 484 96
g Body
usemtl M_PCL_Flat_Blue.Cerulean
f 481 483 484
g Body
usemtl M_PCL_Flat_Black
f 91 477 480
g Body
usemtl M_PCL_Flat_Blue.Cerulean
f 480 478 479
g Body
usemtl M_PCL_Flat_Black
f 92 476 93
g Body
usemtl M_PCL_Flat_Blue.Cerulean
f 473 475 476
g Body
usemtl M_PCL_Flat_Black
f 489 495 493
f 551 525 522
f 555 520 521
f 529 501 500
f 533 505 504
f 535 507 506
f 589 560 561
f 584 557 585
f 566 511 510
f 570 515 514
f 572 517 516
f 574 519 518
f 596 542 541
f 521 576 577
f 577 554 498
f 551 552 523
f 523 497 526
f 549 583 604
f 595 539 540
f 599 543 544
f 601 545 546
f 603 547 548
f 550 604 605
f 527 605 582
f 578 580 579
f 569 512 513
f 591 562 563
f 593 564 565
f 559 586 587
f 607 578 608
f 553 608 581
f 538 508 537
f 532 502 503
g Body
usemtl M_PCL_Flat_Grey_Darker
f 2 4 3
f 4 6 5
f 6 8 7
f 8 10 9
f 10 12 11
f 12 14 13
f 6 43 44
f 14 16 15
f 16 2 1
f 15 24 23
f 24 32 31
f 5 19 18
f 11 22 21
f 1 17 24
f 1 3 18
f 5 7 20
f 13 23 22
f 9 21 20
g Body
usemtl M_PCL_Flat_Black_Lighter
f 27 35 34
g Body
usemtl M_PCL_Flat_Grey_Darker
f 22 30 29
f 20 28 27
f 17 18 26
f 17 25 32
f 23 31 30
f 21 29 28
f 19 27 26
g Body
usemtl M_PCL_Flat_Black_Lighter
f 32 40 39
f 30 38 37
f 28 36 35
f 25 26 34
f 25 33 40
f 31 39 38
f 29 37 36
g Body
usemtl M_PCL_Flat_Grey_Darker
f 43 51 52
f 14 12 46
f 8 44 45
f 14 47 48
f 6 4 42
f 12 10 45
f 2 16 48
f 2 41 42
f 55 63 64
f 41 49 50
f 41 48 56
f 46 54 55
f 44 52 53
f 43 42 50
f 47 55 56
f 45 53 54
g Body
usemtl M_PCL_Flat_Black
f 64 96 89
g Body
usemtl M_PCL_Flat_Grey_Darker
f 53 61 62
f 52 51 59
f 49 57 58
f 49 56 64
f 54 62 63
f 53 52 60
f 51 50 58
g Body
usemtl M_PCL_Flat_Black
f 58 57 89
f 59 58 90
f 59 91 92
f 61 60 92
f 61 93 94
f 62 94 95
f 63 95 96
g Body
usemtl M_PCL_Flat_Black_Lighter
f 81 321 322
g Body
usemtl M_PCL_Flat_Grey_Darker
f 88 87 72
f 81 82 70
f 67 83 84
f 87 85 65
f 82 88 71
f 68 84 81
f 66 86 83
g Body
usemtl M_PCL_Flat_Black_Lighter
f 370 369 331
f 83 319 320
f 85 318 317
f 85 87 324
f 82 322 323
f 84 320 321
f 83 86 317
f 88 323 324
g Body
usemtl M_PCL_Flat_Grey_Darker
f 65 85 86
g Body
usemtl M_PCL_Flat_Black
f 474 100 101
f 479 478 98
f 482 103 104
f 475 101 102
f 474 479 99
f 488 97 98
f 488 483 104
f 482 485 102
f 104 103 71
f 103 102 70
f 70 102 101
f 101 100 68
f 100 99 67
f 67 99 98
f 66 98 97
f 97 104 72
f 256 263 260
f 262 257 260
f 257 258 260
f 258 259 260
f 260 263 262
f 263 264 262
g Body
usemtl M_PCL_Flat_Blue.Cerulean
f 254 261 264
g Body
usemtl M_PCL_Flat_Black
f 250 257 262
g Body
usemtl M_PCL_Flat_Black_Lighter
f 368 128 127
f 127 126 366
f 124 148 149
f 143 142 368
f 362 363 135
f 364 134 135
f 354 130 131
f 356 355 131
f 123 122 360
f 358 124 123
f 146 145 152
f 152 151 146
f 151 150 146
f 150 149 148
f 148 147 150
f 128 142 141
f 362 144 143
f 126 125 149
f 144 137 138
f 138 139 144
f 139 140 144
f 140 141 142
f 142 143 140
f 128 121 124
f 121 122 124
f 122 123 124
f 124 125 126
f 126 127 124
f 130 129 134
f 129 136 134
f 136 135 134
f 134 133 132
f 132 131 130
f 141 140 122
f 360 140 139
f 139 138 354
f 130 138 137
f 137 144 136
f 358 357 147
f 356 146 147
f 366 150 151
f 364 365 151
f 134 152 145
f 132 133 145
g Body
usemtl M_PCL_Flat_Black
f 162 161 168
f 168 167 162
f 167 166 162
f 166 165 162
f 165 164 162
f 155 163 164
f 153 161 162
f 160 168 161
f 158 166 167
f 157 156 164
f 154 162 163
f 159 167 168
f 158 157 165
f 176 169 170
f 170 171 176
f 171 172 176
f 172 173 174
f 174 175 172
f 178 177 184
f 184 183 178
f 183 182 178
f 182 181 180
f 180 179 182
f 171 179 180
f 169 177 178
f 176 184 177
f 174 182 183
f 173 172 180
f 170 178 179
f 175 183 184
f 173 181 182
f 194 193 200
f 200 199 194
f 199 198 194
f 198 197 196
f 196 195 198
f 187 195 196
f 185 193 194
f 192 200 193
f 191 190 198
f 188 196 197
f 186 194 195
f 192 191 199
f 190 189 197
f 208 201 202
f 202 203 204
f 204 205 206
f 206 207 208
f 208 202 204
f 210 209 216
f 216 215 210
f 215 214 210
f 214 213 210
f 213 212 210
f 204 203 211
f 201 209 210
f 201 208 216
f 206 214 215
f 204 212 213
f 202 210 211
f 207 215 216
f 206 205 213
f 226 225 232
f 232 231 230
f 230 229 226
f 229 228 226
f 228 227 226
f 220 219 227
f 217 225 226
f 224 232 225
f 222 230 231
f 221 220 228
f 219 218 226
f 223 231 232
f 221 229 230
f 240 233 234
f 234 235 236
f 236 237 240
f 237 238 240
f 238 239 240
f 242 241 248
f 248 247 246
f 246 245 244
f 244 243 242
f 242 248 244
f 236 235 243
f 233 241 242
f 240 248 241
f 238 246 247
f 237 236 244
f 235 234 242
f 239 247 248
f 237 245 246
f 258 257 250
f 254 253 262
f 256 255 264
f 252 251 260
f 249 252 259
g Body
usemtl M_PCL_Flat_Black_Lighter
f 339 342 275
f 337 343 344
f 342 341 335
f 341 343 337
f 333 280 276
f 336 276 275
f 280 333 339
f 340 339 333
f 280 279 275
f 349 291 287
f 344 352 348
f 346 350 351
f 348 352 350
f 288 292 345
f 287 288 347
f 349 345 292
f 345 349 340
f 287 291 292
g Body
usemtl M_PCL_Flat_Black
f 300 293 294
f 294 295 296
f 296 297 298
f 298 299 300
f 300 294 296
f 302 301 308
f 308 307 306
f 306 305 304
f 304 303 302
f 302 308 306
f 309 303 304
f 311 301 302
f 313 308 301
f 314 306 307
f 316 310 304
f 312 302 303
f 315 307 308
f 316 305 306
f 297 316 314
f 299 315 313
f 294 312 309
f 297 296 310
f 298 314 315
f 300 313 311
f 293 311 312
f 295 309 310
g Body
usemtl M_PCL_Flat_Black_Lighter
f 73 74 317
f 75 319 317
f 75 76 320
f 77 321 320
f 78 322 321
f 78 79 323
f 79 80 324
f 80 73 318
f 35 36 328
f 371 329 330
f 373 327 328
f 376 375 326
f 370 332 326
f 369 372 330
f 371 374 328
f 376 325 327
f 266 334 333
f 267 336 335
f 269 268 335
f 265 269 337
f 271 278 339
f 272 273 341
f 274 343 341
f 270 344 343
f 267 277 333
f 272 342 339
f 266 289 345
f 281 282 346
f 283 348 346
f 265 338 348
f 271 340 349
f 284 351 350
f 286 285 350
f 270 286 352
f 281 347 345
f 284 290 349
f 106 105 353
f 107 106 354
f 107 355 356
f 108 356 357
f 110 109 357
f 111 110 358
f 111 359 360
f 112 360 353
f 114 362 361
f 115 363 362
f 115 116 364
f 117 365 364
f 118 366 365
f 119 367 366
f 119 120 368
f 120 113 361
f 36 37 329
f 38 330 329
f 39 331 330
f 40 332 331
f 40 33 326
f 34 325 326
f 34 35 327
g Body
usemtl M_PCL_Flat_Grey_Darker
f 468 376 373
f 470 467 374
f 469 466 372
f 465 370 375
f 468 472 375
f 471 373 374
f 470 371 372
f 465 469 369
g Body
usemtl M_PCL_Flat_Glass
f 378 377 379
f 379 380 381
f 381 382 383
f 383 384 378
f 378 379 381
f 387 386 385
f 385 392 391
f 391 390 389
f 389 388 391
f 388 387 391
g Body
usemtl M_PCL_Flat_Black_Lighter
f 451 454 403
f 449 455 456
f 454 453 447
f 453 455 449
f 445 408 404
f 448 404 403
f 408 445 451
f 452 451 445
f 408 407 403
f 461 419 415
f 456 464 460
f 458 462 463
f 460 464 462
f 416 420 457
f 415 416 459
f 461 457 420
f 457 461 452
f 415 419 420
g Body
usemtl M_PCL_Flat_Black
f 428 421 422
f 422 423 424
f 424 425 426
f 426 427 428
f 428 422 424
f 430 429 436
f 436 435 434
f 434 433 432
f 432 431 430
f 430 436 434
f 437 431 432
f 439 429 430
f 441 436 429
f 442 434 435
f 444 438 432
f 440 430 431
f 443 435 436
f 444 433 434
f 425 444 442
f 427 443 441
f 422 440 437
f 425 424 438
f 426 442 443
f 428 441 439
f 421 439 440
f 423 437 438
g Body
usemtl M_PCL_Flat_Black_Lighter
f 394 446 445
f 395 448 447
f 397 396 447
f 393 397 449
f 399 406 451
f 400 401 453
f 402 455 453
f 398 456 455
f 395 405 445
f 400 454 451
f 394 417 457
f 409 410 458
f 411 460 458
f 393 450 460
f 399 452 461
f 412 463 462
f 414 413 462
f 398 414 464
f 409 459 457
f 412 418 461
f 80 79 469
f 77 470 466
f 75 471 467
f 74 73 472
f 80 465 472
f 78 466 469
f 76 467 470
f 74 468 471
g Body
usemtl M_PCL_Flat_Black
f 95 94 486
g Body
usemtl M_PCL_Flat_Blue.Cerulean
f 481 486 485
g Body
usemtl M_PCL_Flat_Black
f 89 96 484
g Body
usemtl M_PCL_Flat_Blue.Cerulean
f 487 484 483
g Body
usemtl M_PCL_Flat_Black
f 89 487 477
g Body
usemtl M_PCL_Flat_Blue.Cerulean
f 487 488 478
g Body
usemtl M_PCL_Flat_Black
f 92 91 480
g Body
usemtl M_PCL_Flat_Blue.Cerulean
f 473 480 479
g Body
usemtl M_PCL_Flat_Black
f 93 476 486
g Body
usemtl M_PCL_Flat_Blue.Cerulean
f 476 475 485
g Body
usemtl M_PCL_Flat_Black
f 95 481 484
g Body
usemtl M_PCL_Flat_Blue.Cerulean
f 481 482 483
g Body
usemtl M_PCL_Flat_Black
f 91 90 477
g Body
usemtl M_PCL_Flat_Blue.Cerulean
f 480 477 478
g Body
usemtl M_PCL_Flat_Black
f 92 473 476
g Body
usemtl M_PCL_Flat_Blue.Cerulean
f 473 474 475
g Body
usemtl M_PCL_Flat_Black
f 491 490 489
f 489 496 495
f 495 494 493
f 493 492 491
f 491 489 493
f 551 524 525
f 555 499 520
f 529 530 501
f 533 534 505
f 535 536 507
f 589 588 560
f 584 556 557
f 566 567 511
f 570 571 515
f 572 573 517
f 574 575 519
f 596 597 542
f 521 520 576
f 577 576 554
f 551 522 552
f 523 552 497
f 549 528 583
f 595 594 539
f 599 598 543
f 601 600 545
f 603 602 547
f 550 549 604
f 527 550 605
f 578 606 580
f 569 568 512
f 591 590 562
f 593 592 564
f 559 558 586
f 607 606 578
f 553 607 608
f 538 509 508
f 532 531 502
