# Adapted CC0 source; see SOURCES.json
mtllib scope_east.mtl
v -0.000000 0.022488 0.144619
v -0.000000 0.018883 0.053809
v 0.015171 0.028772 0.144619
v 0.017720 0.026223 0.053809
v 0.021455 0.043943 0.144619
v 0.025060 0.043943 0.053809
v 0.015171 0.059114 0.144619
v 0.017720 0.061664 0.053809
v -0.000000 0.065398 0.144619
v -0.000000 0.069003 0.053809
v -0.015171 0.059114 0.144619
v -0.017720 0.061664 0.053809
v -0.021455 0.043943 0.144619
v -0.025060 0.043943 0.053809
v -0.015171 0.028772 0.144619
v -0.017720 0.026223 0.053809
v -0.000000 0.026425 0.043431
v 0.012387 0.031556 0.043431
v 0.017518 0.043943 0.043431
v 0.012387 0.056331 0.043431
v -0.000000 0.061462 0.043431
v -0.012387 0.056331 0.043431
v -0.017518 0.043943 0.043431
v -0.012387 0.031556 0.043431
v -0.000000 0.028500 -0.147123
v 0.010920 0.033023 -0.147123
v 0.015443 0.043943 -0.147123
v 0.010920 0.054864 -0.147123
v -0.000000 0.059387 -0.147123
v -0.010920 0.054864 -0.147123
v -0.015443 0.043943 -0.147123
v -0.010920 0.033023 -0.147123
v 0.012387 0.031556 -0.147123
v -0.000000 0.026425 -0.147123
v 0.017518 0.043943 -0.147123
v 0.012387 0.056331 -0.147123
v -0.000000 0.061462 -0.147123
v -0.012387 0.056331 -0.147123
v -0.017518 0.043943 -0.147123
v -0.012387 0.031556 -0.147123
v -0.000000 0.018883 0.144619
v 0.017720 0.026223 0.144619
v 0.025060 0.043943 0.144619
v 0.017720 0.061664 0.144619
v -0.000000 0.069003 0.144619
v -0.017720 0.061664 0.144619
v -0.025060 0.043943 0.144619
v -0.017720 0.026223 0.144619
v -0.000000 0.022488 0.096274
v 0.015171 0.028772 0.096274
v 0.021455 0.043943 0.096274
v 0.015171 0.059114 0.096274
v -0.000000 0.065398 0.096274
v -0.015171 0.059114 0.096274
v -0.021455 0.043943 0.096274
v -0.015171 0.028772 0.096274
v -0.000000 0.028500 0.049928
v 0.010920 0.033023 0.049928
v 0.015443 0.043943 0.049928
v 0.010920 0.054864 0.049928
v -0.000000 0.059387 0.049928
v -0.010920 0.054864 0.049928
v -0.015443 0.043943 0.049928
v -0.010920 0.033023 0.049928
v -0.000000 0.060644 -0.042296
v 0.011915 0.055709 -0.042296
v 0.016851 0.043794 -0.042296
v 0.011915 0.031879 -0.042296
v -0.000000 0.026943 -0.042296
v -0.011915 0.031879 -0.042296
v -0.016851 0.043794 -0.042296
v -0.011915 0.055709 -0.042296
v -0.000000 0.060644 -0.000089
v 0.011915 0.055709 -0.000089
v 0.016851 0.043794 -0.000089
v 0.011915 0.031879 -0.000089
v -0.000000 0.026943 -0.000089
v -0.011915 0.031879 -0.000089
v -0.016851 0.043794 -0.000089
v -0.011915 0.055709 -0.000089
v -0.020097 0.062975 -0.021192
v -0.020097 0.057357 -0.034755
v -0.020097 0.043794 -0.040373
v -0.020097 0.030231 -0.034755
v -0.020097 0.024613 -0.021192
v -0.020097 0.030231 -0.007629
v -0.020097 0.043794 -0.002012
v -0.020097 0.057357 -0.007629
v 0.020097 0.062975 -0.021192
v 0.020097 0.057357 -0.034755
v 0.020097 0.043794 -0.040373
v 0.020097 0.030231 -0.034755
v 0.020097 0.024613 -0.021192
v 0.020097 0.030231 -0.007629
v 0.020097 0.043794 -0.002012
v 0.020097 0.057357 -0.007629
v 0.019181 0.063664 -0.021192
v 0.013563 0.063664 -0.034755
v -0.000000 0.063664 -0.040373
v -0.013563 0.063664 -0.034755
v -0.019181 0.063664 -0.021192
v -0.013563 0.063664 -0.007629
v -0.000000 0.063664 -0.002012
v 0.013563 0.063664 -0.007629
v 0.019181 0.023924 -0.021192
v 0.013563 0.023924 -0.034755
v -0.000000 0.023924 -0.040373
v -0.013563 0.023924 -0.034755
v -0.019181 0.023924 -0.021192
v -0.013563 0.023924 -0.007629
v -0.000000 0.023924 -0.002012
v 0.013563 0.023924 -0.007629
v 0.019103 0.053433 -0.021192
v 0.019103 0.050610 -0.028008
v 0.019103 0.043794 -0.030831
v 0.019103 0.036978 -0.028008
v 0.019103 0.034155 -0.021192
v 0.019103 0.036978 -0.014376
v 0.019103 0.043794 -0.011553
v 0.019103 0.050610 -0.014376
v 0.024043 0.053433 -0.021192
v 0.024043 0.050610 -0.028008
v 0.024043 0.043794 -0.030831
v 0.024043 0.036978 -0.028008
v 0.024043 0.034155 -0.021192
v 0.024043 0.036978 -0.014376
v 0.024043 0.043794 -0.011553
v 0.024043 0.050610 -0.014376
v 0.024043 0.058793 -0.021192
v 0.024043 0.054400 -0.031798
v 0.024043 0.043794 -0.036192
v 0.024043 0.033188 -0.031798
v 0.024043 0.028794 -0.021192
v 0.024043 0.033188 -0.010586
v 0.024043 0.043794 -0.006193
v 0.024043 0.054400 -0.010586
v 0.032181 0.058793 -0.021192
v 0.032181 0.054400 -0.031798
v 0.032181 0.043794 -0.036192
v 0.032181 0.033188 -0.031798
v 0.032181 0.028794 -0.021192
v 0.032181 0.033188 -0.010586
v 0.032181 0.043794 -0.006193
v 0.032181 0.054400 -0.010586
v -0.009639 0.062309 -0.021192
v -0.006816 0.062309 -0.028008
v -0.000000 0.062309 -0.030831
v 0.006816 0.062308 -0.028008
v 0.009639 0.062308 -0.021192
v 0.006816 0.062309 -0.014376
v -0.000000 0.062309 -0.011553
v -0.006816 0.062309 -0.014376
v -0.009639 0.066260 -0.021192
v -0.006816 0.066260 -0.028008
v -0.000000 0.066260 -0.030831
v 0.006816 0.066260 -0.028008
v 0.009639 0.066260 -0.021192
v 0.006816 0.066260 -0.014376
v -0.000000 0.066260 -0.011553
v -0.006816 0.066260 -0.014376
v -0.014999 0.066260 -0.021192
v -0.010606 0.066260 -0.031798
v -0.000000 0.066260 -0.036192
v 0.010606 0.066260 -0.031798
v 0.014999 0.066260 -0.021192
v 0.010606 0.066260 -0.010586
v -0.000000 0.066260 -0.006193
v -0.010606 0.066260 -0.010586
v -0.019591 0.034155 -0.021192
v -0.019591 0.036978 -0.028008
v -0.019591 0.043794 -0.030831
v -0.019591 0.050610 -0.028008
v -0.019591 0.053433 -0.021192
v -0.019591 0.050610 -0.014376
v -0.019591 0.043794 -0.011553
v -0.019591 0.036978 -0.014376
v -0.024531 0.034155 -0.021192
v -0.024531 0.036978 -0.028008
v -0.024531 0.043794 -0.030831
v -0.024531 0.050610 -0.028008
v -0.024531 0.053433 -0.021192
v -0.024531 0.050610 -0.014376
v -0.024531 0.043794 -0.011553
v -0.024531 0.036978 -0.014376
v -0.024531 0.028794 -0.021192
v -0.024531 0.033188 -0.031798
v -0.024531 0.043794 -0.036192
v -0.024531 0.054400 -0.031798
v -0.024531 0.058793 -0.021192
v -0.024531 0.054400 -0.010586
v -0.024531 0.043794 -0.006193
v -0.024531 0.033188 -0.010586
v -0.032668 0.028794 -0.021192
v -0.032668 0.033188 -0.031798
v -0.032668 0.043794 -0.036192
v -0.032668 0.054400 -0.031798
v -0.032668 0.058793 -0.021192
v -0.032668 0.054400 -0.010586
v -0.032668 0.043794 -0.006193
v -0.032668 0.033188 -0.010586
v -0.000000 0.062975 -0.042296
v 0.013563 0.057357 -0.042296
v 0.019181 0.043794 -0.042296
v 0.013563 0.030231 -0.042296
v -0.000000 0.024613 -0.042296
v -0.013563 0.030231 -0.042296
v -0.019181 0.043794 -0.042296
v -0.013563 0.057357 -0.042296
v -0.000000 0.062975 -0.000089
v 0.013563 0.057357 -0.000089
v 0.019181 0.043794 -0.000089
v 0.013563 0.030231 -0.000089
v -0.000000 0.024613 -0.000089
v -0.013563 0.030231 -0.000089
v -0.019181 0.043794 -0.000089
v -0.013563 0.057357 -0.000089
v -0.000000 0.075819 -0.036192
v 0.010606 0.075819 -0.031798
v -0.014999 0.075819 -0.021192
v -0.010606 0.075819 -0.031798
v -0.010606 0.075819 -0.010586
v 0.010606 0.075819 -0.010586
v -0.000000 0.075819 -0.006193
v 0.014999 0.075819 -0.021192
v -0.018059 0.086302 -0.021192
v -0.012770 0.086302 -0.033962
v -0.000000 0.086302 -0.039251
v 0.012770 0.086302 -0.033962
v 0.018059 0.086302 -0.021192
v 0.012770 0.086302 -0.008423
v -0.000000 0.086302 -0.003133
v -0.012770 0.086302 -0.008423
v -0.000000 0.075819 -0.039251
v 0.012770 0.075819 -0.033962
v -0.018059 0.075819 -0.021192
v -0.012770 0.075819 -0.033962
v -0.012770 0.075819 -0.008423
v 0.012770 0.075819 -0.008423
v -0.000000 0.075819 -0.003133
v 0.018059 0.075819 -0.021192
v -0.000000 0.018883 0.125246
v 0.017720 0.026223 0.125246
v 0.025060 0.043943 0.125246
v 0.017720 0.061664 0.125246
v -0.000000 0.069003 0.125246
v -0.017720 0.061664 0.125246
v -0.025060 0.043943 0.125246
v -0.017720 0.026223 0.125246
v 0.015171 0.028772 0.125246
v -0.000000 0.022488 0.125246
v -0.015171 0.028772 0.125246
v -0.021455 0.043943 0.125246
v -0.015171 0.059114 0.125246
v -0.000000 0.065398 0.125246
v 0.015171 0.059114 0.125246
v 0.021455 0.043943 0.125246
v -0.000000 0.018883 0.072584
v 0.017720 0.026223 0.072584
v 0.025060 0.043943 0.072584
v 0.017720 0.061664 0.072584
v -0.000000 0.069003 0.072584
v -0.017720 0.061664 0.072584
v -0.025060 0.043943 0.072584
v -0.017720 0.026223 0.072584
v -0.000000 0.018883 0.057257
v 0.017720 0.026223 0.057257
v 0.025060 0.043943 0.057257
v 0.017720 0.061664 0.057257
v -0.000000 0.069003 0.057257
v -0.017720 0.061664 0.057257
v -0.025060 0.043943 0.057257
v -0.017720 0.026223 0.057257
v -0.011440 0.016325 0.072584
v -0.027619 0.032503 0.072584
v -0.027619 0.055383 0.072584
v -0.011440 0.071562 0.072584
v 0.011440 0.071562 0.072584
v 0.027619 0.055383 0.072584
v 0.027619 0.032503 0.072584
v 0.011440 0.016325 0.072584
v -0.011440 0.016325 0.057257
v -0.027619 0.032503 0.057257
v -0.027619 0.055383 0.057257
v -0.011440 0.071562 0.057257
v 0.011440 0.071562 0.057257
v 0.027619 0.055383 0.057257
v 0.027619 0.032503 0.057257
v 0.011440 0.016325 0.057257
v 0.015171 0.028772 0.127822
v -0.000000 0.022488 0.127822
v -0.015171 0.028772 0.127822
v -0.021455 0.043943 0.127822
v -0.015171 0.059114 0.127822
v -0.000000 0.065398 0.127822
v 0.015171 0.059114 0.127822
v 0.021455 0.043943 0.127822
v -0.000000 0.028500 -0.138610
v 0.010920 0.033023 -0.138610
v 0.015443 0.043943 -0.138610
v 0.010920 0.054864 -0.138610
v -0.000000 0.059387 -0.138610
v -0.010920 0.054864 -0.138610
v -0.015443 0.043943 -0.138610
v -0.010920 0.033023 -0.138610
v 0.020375 0.043943 0.034140
v 0.014407 0.058350 0.034140
v 0.000000 0.064318 0.034140
v 0.020375 0.043943 0.009140
v 0.014407 0.058350 0.009140
v 0.000000 0.064318 0.009140
v -0.020375 0.043943 0.034140
v -0.014407 0.058350 0.034140
v -0.020375 0.043943 0.009140
v -0.014407 0.058350 0.009140
v -0.014085 0.029258 0.034140
v -0.014085 0.029258 0.009140
v 0.017119 0.043963 0.034140
v 0.012111 0.056054 0.034140
v 0.000000 0.061071 0.034140
v 0.017119 0.043963 0.009140
v 0.012111 0.056054 0.009140
v 0.000000 0.061071 0.009140
v 0.011800 0.031543 0.034140
v 0.011800 0.031543 0.009140
v 0.000000 0.026491 0.034140
v 0.000000 0.026491 0.009140
v -0.017119 0.043963 0.034140
v -0.012111 0.056054 0.034140
v -0.017119 0.043963 0.009140
v -0.012111 0.056054 0.009140
v -0.011800 0.031543 0.034140
v -0.011800 0.031543 0.009140
v 0.011962 -0.005117 0.063754
v 0.008255 0.008983 0.063754
v 0.008255 0.008983 0.009140
v 0.008255 0.008983 0.034140
v 0.014085 0.029258 0.009140
v 0.014085 0.029258 0.034140
v 0.006844 0.015328 0.009140
v 0.008041 0.021568 0.009140
v 0.008041 0.021568 0.034140
v 0.006844 0.015328 0.034140
v -0.011962 -0.005117 0.063754
v -0.008255 0.008983 0.063754
v -0.008255 0.008983 0.009140
v -0.008255 0.008983 0.034140
v -0.006844 0.015328 0.009140
v -0.008041 0.021568 0.009140
v -0.008041 0.021568 0.034140
v -0.006844 0.015328 0.034140
v -0.014230 0.006074 0.021876
v -0.014230 0.004639 0.018412
v -0.014230 0.001174 0.016977
v -0.014230 -0.002290 0.018412
v -0.014230 -0.003725 0.021876
v -0.014230 -0.002290 0.025340
v -0.014230 0.001174 0.026775
v -0.014230 0.004639 0.025340
v 0.014230 0.006074 0.021876
v 0.014230 0.004639 0.018412
v 0.014230 0.001174 0.016977
v 0.014230 -0.002290 0.018412
v 0.014230 -0.003725 0.021876
v 0.014230 -0.002290 0.025340
v 0.014230 0.001174 0.026775
v 0.014230 0.004639 0.025340
v -0.000000 0.001174 0.016977
v -0.000000 -0.002290 0.018412
v 0.000000 0.006074 0.021876
v -0.000000 0.004639 0.018412
v 0.000000 0.004639 0.025340
v 0.000000 -0.002290 0.025340
v 0.000000 0.001174 0.026775
v 0.000000 -0.003725 0.021876
v 0.020375 0.043943 -0.082379
v 0.014407 0.058350 -0.082379
v 0.000000 0.064318 -0.082379
v 0.020375 0.043943 -0.107379
v 0.014407 0.058350 -0.107379
v 0.000000 0.064318 -0.107379
v -0.020375 0.043943 -0.082379
v -0.014407 0.058350 -0.082379
v -0.020375 0.043943 -0.107379
v -0.014407 0.058350 -0.107379
v -0.014085 0.029258 -0.082379
v -0.014085 0.029258 -0.107379
v 0.017119 0.043963 -0.082379
v 0.012111 0.056054 -0.082379
v 0.000000 0.061071 -0.082379
v 0.017119 0.043963 -0.107379
v 0.012111 0.056054 -0.107379
v 0.000000 0.061071 -0.107379
v 0.011800 0.031543 -0.082379
v 0.011800 0.031543 -0.107379
v 0.000000 0.026491 -0.082379
v 0.000000 0.026491 -0.107379
v -0.017119 0.043963 -0.082379
v -0.012111 0.056054 -0.082379
v -0.017119 0.043963 -0.107379
v -0.012111 0.056054 -0.107379
v -0.011800 0.031543 -0.082379
v -0.011800 0.031543 -0.107379
v 0.008255 0.008983 -0.107379
v 0.011962 -0.005117 -0.107379
v 0.008255 0.008983 -0.082379
v 0.014085 0.029258 -0.107379
v 0.014085 0.029258 -0.082379
v 0.006844 0.015328 -0.107379
v 0.008041 0.021568 -0.107379
v 0.008041 0.021568 -0.082379
v 0.006844 0.015328 -0.082379
v -0.008255 0.008983 -0.107379
v -0.011962 -0.005117 -0.107379
v -0.008255 0.008983 -0.082379
v -0.006844 0.015328 -0.107379
v -0.008041 0.021568 -0.107379
v -0.008041 0.021568 -0.082379
v -0.006844 0.015328 -0.082379
v -0.014230 0.006074 -0.094643
v -0.014230 0.004639 -0.098107
v -0.014230 0.001174 -0.099542
v -0.014230 -0.002290 -0.098107
v -0.014230 -0.003725 -0.094643
v -0.014230 -0.002290 -0.091178
v -0.014230 0.001174 -0.089743
v -0.014230 0.004639 -0.091178
v 0.014230 0.006074 -0.094643
v 0.014230 0.004639 -0.098107
v 0.014230 0.001174 -0.099542
v 0.014230 -0.002290 -0.098107
v 0.014230 -0.003725 -0.094643
v 0.014230 -0.002290 -0.091178
v 0.014230 0.001174 -0.089743
v 0.014230 0.004639 -0.091178
v -0.000000 0.001174 -0.099542
v -0.000000 -0.002290 -0.098107
v 0.000000 0.006074 -0.094643
v -0.000000 0.004639 -0.098107
v 0.000000 0.004639 -0.091178
v 0.000000 -0.002290 -0.091178
v 0.000000 0.001174 -0.089743
v 0.000000 -0.003725 -0.094643
v 0.011962 0.007186 0.063754
v 0.011962 0.007186 0.009140
v 0.011962 0.007186 0.034140
v -0.011962 0.007186 0.063754
v -0.011962 0.007186 0.009140
v -0.011962 0.007186 0.034140
v 0.011962 0.007186 -0.107379
v 0.011962 0.007186 -0.082379
v -0.011962 0.007186 -0.107379
v -0.011962 0.007186 -0.082379
v 0.002276 0.018374 0.059589
v 0.009164 0.016834 0.059589
v 0.009164 0.016834 0.070251
v 0.002276 0.018374 0.070251
v 0.027110 0.034779 0.070251
v 0.027110 0.034779 0.059589
v 0.025569 0.041667 0.059589
v 0.025569 0.041667 0.070251
v 0.019690 0.027473 0.070251
v 0.019690 0.027473 0.059589
v 0.025649 0.031254 0.059589
v 0.025649 0.031254 0.070251
v 0.025649 0.056633 0.070251
v 0.025649 0.056633 0.059589
v 0.019690 0.060414 0.059589
v 0.019690 0.060414 0.070251
v 0.025569 0.046220 0.070251
v 0.025569 0.046220 0.059589
v 0.027110 0.053107 0.059589
v 0.027110 0.053107 0.070251
v 0.009164 0.071053 0.070251
v 0.009164 0.071053 0.059589
v 0.002276 0.069513 0.059589
v 0.002276 0.069513 0.070251
v 0.016471 0.063633 0.070251
v 0.016471 0.063633 0.059589
v 0.012690 0.069593 0.059589
v 0.012690 0.069593 0.070251
v -0.012690 0.069593 0.070251
v -0.012690 0.069593 0.059589
v -0.016471 0.063633 0.059589
v -0.016471 0.063633 0.070251
v -0.002276 0.069513 0.070251
v -0.002276 0.069513 0.059589
v -0.009164 0.071053 0.059589
v -0.009164 0.071053 0.070251
v -0.027110 0.053107 0.070251
v -0.027110 0.053107 0.059589
v -0.025569 0.046220 0.059589
v -0.025569 0.046220 0.070251
v -0.019690 0.060414 0.070251
v -0.019690 0.060414 0.059589
v -0.025649 0.056633 0.059589
v -0.025649 0.056633 0.070251
v -0.025649 0.031254 0.070251
v -0.025649 0.031254 0.059589
v -0.019690 0.027473 0.059589
v -0.019690 0.027473 0.070251
v -0.025569 0.041667 0.070251
v -0.025569 0.041667 0.059589
v -0.027110 0.034779 0.059589
v -0.027110 0.034779 0.070251
v -0.009164 0.016834 0.070251
v -0.009164 0.016834 0.059589
v -0.002276 0.018374 0.059589
v -0.002276 0.018374 0.070251
v -0.016471 0.024254 0.070251
v -0.016471 0.024254 0.059589
v -0.012690 0.018294 0.059589
v -0.012690 0.018294 0.070251
v 0.012690 0.018294 0.070251
v 0.012690 0.018294 0.059589
v 0.016471 0.024254 0.059589
v 0.016471 0.024254 0.070251
v 0.000000 0.043045 0.024456
v -0.000369 0.043198 0.024456
v -0.000522 0.043567 0.024456
v -0.000369 0.043937 0.024456
v 0.000000 0.044090 0.024456
v 0.000369 0.043937 0.024456
v 0.000522 0.043567 0.024456
v 0.000369 0.043198 0.024456
v 0.000281 0.041772 0.024456
v 0.001795 0.043287 0.024456
v 0.016010 0.044144 0.024456
v 0.001139 0.038422 0.024456
v 0.001139 0.037976 0.024456
v 0.001139 0.040025 0.024456
v 0.001139 0.040471 0.024456
v 0.001139 0.036373 0.024456
v 0.001139 0.035927 0.024456
v 0.001139 0.034324 0.024456
v 0.001139 0.033878 0.024456
v 0.005146 0.044706 0.024456
v 0.005591 0.044706 0.024456
v 0.003542 0.044706 0.024456
v 0.003097 0.044706 0.024456
v 0.007195 0.044706 0.024456
v 0.007640 0.044706 0.024456
v 0.009244 0.044706 0.024456
v 0.009689 0.044706 0.024456
v 0.010291 0.044144 0.024456
v 0.010291 0.042991 0.024456
v 0.000576 0.033277 0.024456
v -0.000281 0.033586 0.024456
v -0.000576 0.028108 0.024456
v 0.000576 0.028108 0.024456
v -0.000281 0.041772 0.024456
v -0.001795 0.043848 0.024456
v -0.016010 0.044144 0.024456
v -0.001139 0.038422 0.024456
v -0.001139 0.037976 0.024456
v -0.001139 0.040025 0.024456
v -0.001139 0.040471 0.024456
v -0.001139 0.036373 0.024456
v -0.001139 0.035927 0.024456
v -0.001139 0.034324 0.024456
v -0.001139 0.033878 0.024456
v -0.005146 0.044706 0.024456
v -0.005591 0.044706 0.024456
v -0.003542 0.044706 0.024456
v -0.003097 0.044706 0.024456
v -0.007195 0.044706 0.024456
v -0.007640 0.044706 0.024456
v -0.009244 0.044706 0.024456
v -0.009689 0.044706 0.024456
v -0.010291 0.044144 0.024456
v -0.009982 0.043848 0.024456
v -0.000576 0.033277 0.024456
v 0.000281 0.033586 0.024456
v 0.001795 0.043848 0.024456
v 0.016010 0.042991 0.024456
v 0.005146 0.042429 0.024456
v 0.005591 0.042429 0.024456
v 0.003542 0.042429 0.024456
v 0.003097 0.042429 0.024456
v 0.007195 0.042429 0.024456
v 0.007640 0.042429 0.024456
v 0.009244 0.042429 0.024456
v 0.009689 0.042429 0.024456
v 0.009982 0.043848 0.024456
v 0.009982 0.043287 0.024456
v -0.001795 0.043287 0.024456
v -0.016010 0.042991 0.024456
v -0.005146 0.042429 0.024456
v -0.005591 0.042429 0.024456
v -0.003542 0.042429 0.024456
v -0.003097 0.042429 0.024456
v -0.007195 0.042429 0.024456
v -0.007640 0.042429 0.024456
v -0.009244 0.042429 0.024456
v -0.009689 0.042429 0.024456
v -0.010291 0.042991 0.024456
v -0.009982 0.043287 0.024456
g Body
usemtl M_PCL_Flat_Grey_Darker
f 243 8 244
f 12 247 246
f 2 242 241
f 10 246 245
f 16 23 24
f 249 49 250
f 24 34 17
f 6 18 19
f 12 21 22
f 2 24 17
f 2 18 4
f 8 19 20
f 12 23 14
f 8 21 10
f 22 39 23
f 20 37 21
f 18 35 19
f 23 40 24
f 21 38 22
f 19 36 20
f 17 33 18
f 26 34 25
f 27 33 26
f 27 36 35
f 28 37 36
f 30 37 29
f 31 38 30
f 31 40 39
f 25 40 32
g Body
usemtl M_PCL_Flat_Black_Lighter
f 1 42 3
f 3 43 5
f 5 44 7
f 9 44 45
f 9 46 11
f 13 46 47
f 13 48 15
f 15 41 1
g Body
usemtl M_PCL_Flat_Grey_Darker
f 250 56 251
f 252 54 253
f 254 52 255
f 256 50 249
f 251 55 252
f 253 53 254
f 255 51 256
f 30 63 31
f 28 61 29
f 26 59 27
f 31 64 32
f 29 62 30
f 27 60 28
f 25 58 26
f 32 57 25
f 56 63 55
f 63 54 55
f 62 53 54
f 53 60 52
f 52 59 51
f 59 50 51
f 58 49 50
f 57 56 49
g Body
usemtl M_PCL_Flat_Black_Lighter
f 216 87 215
f 87 214 215
f 84 109 85
f 103 216 209
f 210 95 96
f 212 95 211
f 88 216 102
f 202 91 203
f 204 91 92
f 83 208 207
f 206 83 207
f 107 106 110
f 88 101 81
f 210 103 209
f 86 110 214
f 86 109 110
f 96 104 210
f 103 104 100
f 88 82 84
f 92 91 90
f 101 82 81
f 82 100 208
f 208 99 201
f 99 202 201
f 90 202 98
f 90 97 89
f 97 96 89
f 84 206 108
f 206 107 108
f 204 107 205
f 214 111 213
f 212 111 112
f 94 212 112
f 94 105 93
f 92 105 106
f 92 106 204
g Body
usemtl M_PCL_Flat_Black
f 122 128 126
f 115 124 116
f 113 122 114
f 120 121 113
f 118 127 119
f 117 124 125
f 114 123 115
f 119 128 120
f 118 125 126
f 132 134 136
f 139 138 142
f 131 140 132
f 129 138 130
f 136 137 129
f 134 143 135
f 133 140 141
f 130 139 131
f 135 144 136
f 133 142 134
f 156 155 154
f 147 156 148
f 145 154 146
f 152 153 145
f 151 158 159
f 148 157 149
f 146 155 147
f 151 160 152
f 150 157 158
f 164 166 168
f 237 236 234
f 178 184 182
f 172 179 180
f 169 178 170
f 176 177 169
f 174 183 175
f 173 180 181
f 171 178 179
f 175 184 176
f 173 182 174
f 188 190 192
f 200 198 196
f 188 195 196
f 185 194 186
f 192 193 185
f 190 199 191
f 189 196 197
f 187 194 195
f 191 200 192
f 189 198 190
g Body
usemtl M_PCL_Flat_Black_Lighter
f 65 202 66
f 66 203 67
f 67 204 68
f 68 205 69
f 70 205 206
f 71 206 207
f 72 207 208
f 65 208 201
f 73 210 209
f 74 211 210
f 75 212 211
f 77 212 76
f 78 213 77
f 79 214 78
f 80 215 79
f 73 216 80
g Body
usemtl M_PCL_Flat_Black
f 166 224 222
f 167 221 168
f 162 217 163
f 164 224 165
f 166 223 167
f 161 221 219
f 161 220 162
f 163 218 164
f 227 226 230
f 233 228 234
f 235 226 236
f 237 225 235
f 238 231 239
f 240 228 229
f 236 227 233
f 239 232 237
f 238 229 230
g Body
usemtl M_PCL_Flat_Black_Lighter
f 248 41 48
f 247 48 47
f 246 47 46
f 245 46 45
f 244 45 44
f 243 44 43
f 242 43 42
f 241 42 41
f 7 256 5
f 11 254 9
f 15 252 13
f 5 249 3
f 9 255 7
f 13 253 11
f 1 251 15
f 3 250 1
g Body
usemtl M_PCL_Flat_Grey_Darker
f 8 245 244
f 16 241 248
f 4 243 242
g Body
usemtl M_PCL_Flat_Black
f 265 266 288
f 269 270 284
f 271 272 282
f 264 273 257
f 263 274 264
f 262 275 263
f 261 276 262
f 260 277 261
f 259 278 260
f 258 279 259
f 257 280 258
g Body
usemtl M_PCL_Flat_Red.Brick
f 454 456 453
f 458 460 457
f 462 464 461
f 466 468 465
f 470 472 469
f 474 476 473
f 478 480 477
f 482 484 481
f 486 488 485
f 490 492 489
f 494 496 493
f 498 500 497
f 502 504 501
f 506 508 505
f 510 512 509
f 513 515 516
g Body
usemtl M_PCL_Flat_Black
f 283 270 271
f 286 267 268
f 285 268 269
f 265 281 272
f 267 287 266
g Body
usemtl M_PCL_Flat_Grey_Darker
f 16 247 14
g Body
usemtl M_PCL_Flat_Glass
f 292 290 296
f 297 303 301
g Body
usemtl M_PCL_Flat_Grey_Darker
f 316 349 315
f 306 317 305
f 306 319 318
f 309 320 321
f 309 322 310
f 338 317 323
f 337 320 308
f 312 327 328
f 312 319 307
f 314 329 313
f 314 322 330
f 315 327 311
f 316 329 332
f 336 443 445
f 443 344 446
f 335 445 444
f 447 452 343
f 335 342 336
f 350 336 342
f 341 339 340
f 350 341 349
f 347 340 339
f 446 346 448
f 448 345 447
f 350 345 346
f 347 349 348
f 347 335 345
f 324 340 326
f 348 332 326
f 348 326 340
f 331 349 325
f 341 323 325
f 341 325 349
f 344 336 346
g Body
usemtl M_PCL_Flat_Black
f 357 358 354
f 362 361 360
f 367 362 368
f 369 360 370
f 371 359 369
f 372 365 373
f 374 362 363
f 370 361 367
f 373 366 371
f 374 364 372
f 355 372 356
f 357 371 358
f 352 367 353
f 355 368 374
f 356 373 357
f 358 369 351
f 351 370 352
f 353 368 354
g Body
usemtl M_PCL_Flat_Grey_Darker
f 378 376 375
f 379 377 376
f 406 375 407
f 384 381 382
f 380 382 377
f 376 387 375
f 376 389 388
f 379 390 391
f 379 392 380
f 407 387 393
f 406 390 378
f 382 397 398
f 382 389 377
f 384 399 383
f 384 392 400
f 385 397 381
f 386 399 402
f 343 404 333
f 403 450 449
f 451 403 449
f 383 385 381
f 403 411 405
f 418 405 411
f 410 408 409
f 418 410 417
f 415 409 408
f 452 412 451
f 409 407 410
f 418 412 414
f 415 417 416
f 415 403 412
f 394 409 396
f 416 402 396
f 416 396 409
f 401 417 395
f 410 393 395
f 410 395 417
g Body
usemtl M_PCL_Flat_Black
f 426 420 422
f 430 429 428
f 435 430 436
f 437 428 438
f 439 427 437
f 440 433 441
f 442 430 431
f 438 429 435
f 441 434 439
f 442 432 440
f 423 440 424
f 425 439 426
f 420 435 421
f 423 436 442
f 424 441 425
f 426 437 419
f 419 438 420
f 421 436 422
g Body
usemtl M_PCL_Flat_Grey_Darker
f 450 335 444
f 405 345 335
f 333 450 444
f 413 452 451
f 413 449 404
f 404 450 333
f 343 448 447
f 343 446 448
f 414 447 345
f 333 444 445
f 333 446 343
f 333 445 443
f 386 417 385
f 340 338 341
f 313 315 311
f 310 312 307
f 314 311 312
f 337 305 338
f 309 307 306
f 308 306 305
g Body
usemtl M_PCL_Flat_Black
f 265 454 453
f 280 454 288
f 257 455 280
f 265 456 257
f 279 458 457
f 267 458 287
f 259 459 267
f 279 460 259
f 266 461 258
f 287 462 266
f 279 463 287
f 258 464 279
f 286 465 278
f 268 466 286
f 260 467 268
f 278 468 260
f 267 469 259
f 286 470 267
f 278 471 286
f 259 472 278
f 285 473 277
f 285 475 474
f 261 475 269
f 277 476 261
f 268 477 260
f 285 478 268
f 277 479 285
f 260 480 277
f 284 481 276
f 284 483 482
f 262 483 270
f 276 484 262
f 269 485 261
f 284 486 269
f 276 487 284
f 276 485 488
f 283 489 275
f 271 490 283
f 263 491 271
f 275 492 263
f 270 493 262
f 283 494 270
f 275 495 283
f 262 496 275
f 282 497 274
f 272 498 282
f 264 499 272
f 264 497 500
f 271 501 263
f 282 502 271
f 274 503 282
f 263 504 274
f 281 505 273
f 281 507 506
f 257 507 265
f 273 508 257
f 272 509 264
f 281 510 272
f 273 511 281
f 264 512 273
f 288 513 280
f 288 515 514
f 266 516 515
f 258 513 516
f 517 523 521
f 571 549 546
f 574 544 545
f 553 529 528
f 557 533 532
f 559 535 534
f 575 537 536
f 579 541 540
f 581 543 542
f 589 564 563
f 545 583 584
f 584 573 526
f 571 572 547
f 547 525 550
f 569 586 595
f 588 561 562
f 592 565 566
f 594 567 568
f 570 595 596
f 551 596 585
f 578 538 539
f 556 530 531
g Body
usemtl M_PCL_Flat_Grey_Darker
f 243 6 8
f 12 14 247
f 2 4 242
f 10 12 246
f 16 14 23
f 249 50 49
f 24 40 34
f 6 4 18
f 12 10 21
f 2 16 24
f 2 17 18
f 8 6 19
f 12 22 23
f 8 20 21
f 22 38 39
f 20 36 37
f 18 33 35
f 23 39 40
f 21 37 38
f 19 35 36
f 17 34 33
f 26 33 34
f 27 35 33
f 27 28 36
f 28 29 37
f 30 38 37
f 31 39 38
f 31 32 40
f 25 34 40
g Body
usemtl M_PCL_Flat_Black_Lighter
f 1 41 42
f 3 42 43
f 5 43 44
f 9 7 44
f 9 45 46
f 13 11 46
f 13 47 48
f 15 48 41
g Body
usemtl M_PCL_Flat_Grey_Darker
f 250 49 56
f 252 55 54
f 254 53 52
f 256 51 50
f 251 56 55
f 253 54 53
f 255 52 51
f 30 62 63
f 28 60 61
f 26 58 59
f 31 63 64
f 29 61 62
f 27 59 60
f 25 57 58
f 32 64 57
f 56 64 63
f 63 62 54
f 62 61 53
f 53 61 60
f 52 60 59
f 59 58 50
f 58 57 49
f 57 64 56
g Body
usemtl M_PCL_Flat_Black_Lighter
f 216 88 87
f 87 86 214
f 84 108 109
f 103 102 216
f 210 211 95
f 212 94 95
f 202 90 91
f 204 203 91
f 83 82 208
f 206 84 83
f 106 105 110
f 105 112 110
f 112 111 110
f 110 109 108
f 108 107 110
f 88 102 101
f 210 104 103
f 86 85 109
f 104 97 100
f 97 98 100
f 98 99 100
f 100 101 102
f 102 103 100
f 88 81 82
f 82 83 84
f 84 85 86
f 86 87 84
f 87 88 84
f 90 89 94
f 89 96 94
f 96 95 94
f 94 93 90
f 93 92 90
f 101 100 82
f 208 100 99
f 99 98 202
f 90 98 97
f 97 104 96
f 206 205 107
f 204 106 107
f 214 110 111
f 212 213 111
f 94 112 105
f 92 93 105
g Body
usemtl M_PCL_Flat_Black
f 122 121 128
f 128 127 126
f 126 125 122
f 125 124 122
f 124 123 122
f 115 123 124
f 113 121 122
f 120 128 121
f 118 126 127
f 117 116 124
f 114 122 123
f 119 127 128
f 118 117 125
f 136 129 130
f 130 131 132
f 132 133 134
f 134 135 136
f 136 130 132
f 138 137 144
f 144 143 138
f 143 142 138
f 142 141 140
f 140 139 142
f 131 139 140
f 129 137 138
f 136 144 137
f 134 142 143
f 133 132 140
f 130 138 139
f 135 143 144
f 133 141 142
f 154 153 160
f 160 159 154
f 159 158 154
f 158 157 154
f 157 156 154
f 147 155 156
f 145 153 154
f 152 160 153
f 151 150 158
f 148 156 157
f 146 154 155
f 151 159 160
f 150 149 157
f 168 161 162
f 162 163 164
f 164 165 166
f 166 167 168
f 168 162 164
f 234 240 237
f 240 238 237
f 238 239 237
f 237 235 236
f 236 233 234
f 178 177 184
f 184 183 182
f 182 181 178
f 181 180 178
f 180 179 178
f 172 171 179
f 169 177 178
f 176 184 177
f 174 182 183
f 173 172 180
f 171 170 178
f 175 183 184
f 173 181 182
f 192 185 186
f 186 187 188
f 188 189 190
f 190 191 192
f 192 186 188
f 194 193 200
f 200 199 198
f 198 197 196
f 196 195 194
f 194 200 196
f 188 187 195
f 185 193 194
f 192 200 193
f 190 198 199
f 189 188 196
f 187 186 194
f 191 199 200
f 189 197 198
g Body
usemtl M_PCL_Flat_Black_Lighter
f 65 201 202
f 66 202 203
f 67 203 204
f 68 204 205
f 70 69 205
f 71 70 206
f 72 71 207
f 65 72 208
f 73 74 210
f 74 75 211
f 75 76 212
f 77 213 212
f 78 214 213
f 79 215 214
f 80 216 215
f 73 209 216
g Body
usemtl M_PCL_Flat_Black
f 166 165 224
f 167 223 221
f 162 220 217
f 164 218 224
f 166 222 223
f 161 168 221
f 161 219 220
f 163 217 218
f 226 225 232
f 232 231 226
f 231 230 226
f 230 229 228
f 228 227 230
f 233 227 228
f 235 225 226
f 237 232 225
f 238 230 231
f 240 234 228
f 236 226 227
f 239 231 232
f 238 240 229
g Body
usemtl M_PCL_Flat_Black_Lighter
f 248 241 41
f 247 248 48
f 246 247 47
f 245 246 46
f 244 245 45
f 243 244 44
f 242 243 43
f 241 242 42
f 7 255 256
f 11 253 254
f 15 251 252
f 5 256 249
f 9 254 255
f 13 252 253
f 1 250 251
f 3 249 250
g Body
usemtl M_PCL_Flat_Grey_Darker
f 8 10 245
f 16 2 241
f 4 6 243
g Body
usemtl M_PCL_Flat_Red.Brick
f 454 455 456
f 458 459 460
f 462 463 464
f 466 467 468
f 470 471 472
f 474 475 476
f 478 479 480
f 482 483 484
f 486 487 488
f 490 491 492
f 494 495 496
f 498 499 500
f 502 503 504
f 506 507 508
f 510 511 512
f 513 514 515
g Body
usemtl M_PCL_Flat_Grey_Darker
f 16 248 247
g Body
usemtl M_PCL_Flat_Glass
f 296 295 294
f 294 293 296
f 293 292 296
f 292 291 290
f 290 289 296
f 299 298 297
f 297 304 303
f 303 302 301
f 301 300 299
f 299 297 301
g Body
usemtl M_PCL_Flat_Grey_Darker
f 316 348 349
f 306 318 317
f 306 307 319
f 309 308 320
f 309 321 322
f 338 305 317
f 337 324 320
f 312 311 327
f 312 328 319
f 314 330 329
f 314 310 322
f 315 331 327
f 316 313 329
f 336 334 443
f 443 334 344
f 335 336 445
f 335 339 342
f 350 346 336
f 341 342 339
f 350 342 341
f 347 348 340
f 446 344 346
f 448 346 345
f 350 347 345
f 347 350 349
f 347 339 335
f 324 337 340
f 348 316 332
f 331 315 349
f 341 338 323
f 344 334 336
g Body
usemtl M_PCL_Flat_Black
f 358 351 352
f 352 353 358
f 353 354 358
f 354 355 356
f 356 357 354
f 360 359 366
f 366 365 360
f 365 364 360
f 364 363 360
f 363 362 360
f 367 361 362
f 369 359 360
f 371 366 359
f 372 364 365
f 374 368 362
f 370 360 361
f 373 365 366
f 374 363 364
f 355 374 372
f 357 373 371
f 352 370 367
f 355 354 368
f 356 372 373
f 358 371 369
f 351 369 370
f 353 367 368
g Body
usemtl M_PCL_Flat_Grey_Darker
f 378 379 376
f 379 380 377
f 406 378 375
f 384 383 381
f 380 384 382
f 376 388 387
f 376 377 389
f 379 378 390
f 379 391 392
f 407 375 387
f 406 394 390
f 382 381 397
f 382 398 389
f 384 400 399
f 384 380 392
f 385 401 397
f 386 383 399
f 343 413 404
f 403 405 450
f 451 412 403
f 383 386 385
f 403 408 411
f 418 414 405
f 410 411 408
f 418 411 410
f 415 416 409
f 452 414 412
f 409 406 407
f 418 415 412
f 415 418 417
f 415 408 403
f 394 406 409
f 416 386 402
f 401 385 417
f 410 407 393
g Body
usemtl M_PCL_Flat_Black
f 426 419 420
f 420 421 422
f 422 423 424
f 424 425 422
f 425 426 422
f 428 427 434
f 434 433 428
f 433 432 428
f 432 431 428
f 431 430 428
f 435 429 430
f 437 427 428
f 439 434 427
f 440 432 433
f 442 436 430
f 438 428 429
f 441 433 434
f 442 431 432
f 423 442 440
f 425 441 439
f 420 438 435
f 423 422 436
f 424 440 441
f 426 439 437
f 419 437 438
f 421 435 436
g Body
usemtl M_PCL_Flat_Grey_Darker
f 450 405 335
f 405 414 345
f 413 343 452
f 413 451 449
f 404 449 450
f 414 452 447
f 333 443 446
f 386 416 417
f 340 337 338
f 313 316 315
f 310 314 312
f 314 313 311
f 337 308 305
f 309 310 307
f 308 309 306
g Body
usemtl M_PCL_Flat_Black
f 265 288 454
f 280 455 454
f 257 456 455
f 265 453 456
f 279 287 458
f 267 459 458
f 259 460 459
f 279 457 460
f 266 462 461
f 287 463 462
f 279 464 463
f 258 461 464
f 286 466 465
f 268 467 466
f 260 468 467
f 278 465 468
f 267 470 469
f 286 471 470
f 278 472 471
f 259 469 472
f 285 474 473
f 285 269 475
f 261 476 475
f 277 473 476
f 268 478 477
f 285 479 478
f 277 480 479
f 260 477 480
f 284 482 481
f 284 270 483
f 262 484 483
f 276 481 484
f 269 486 485
f 284 487 486
f 276 488 487
f 276 261 485
f 283 490 489
f 271 491 490
f 263 492 491
f 275 489 492
f 270 494 493
f 283 495 494
f 275 496 495
f 262 493 496
f 282 498 497
f 272 499 498
f 264 500 499
f 264 274 497
f 271 502 501
f 282 503 502
f 274 504 503
f 263 501 504
f 281 506 505
f 281 265 507
f 257 508 507
f 273 505 508
f 272 510 509
f 281 511 510
f 273 512 511
f 264 509 512
f 288 514 513
f 288 266 515
f 266 258 516
f 258 280 513
f 519 518 517
f 517 524 523
f 523 522 521
f 521 520 519
f 519 517 521
f 571 548 549
f 574 527 544
f 553 554 529
f 557 558 533
f 559 560 535
f 575 576 537
f 579 580 541
f 581 582 543
f 589 590 564
f 545 544 583
f 584 583 573
f 571 546 572
f 547 572 525
f 569 552 586
f 588 587 561
f 592 591 565
f 594 593 567
f 570 569 595
f 551 570 596
f 578 577 538
f 556 555 530
