# Adapted CC0 source; see SOURCES.json
mtllib svd.mtl
v 0.018393 0.001096 -0.163289
v 0.018393 0.001096 -0.275171
v -0.000096 0.001096 -0.275171
v -0.000096 0.001096 -0.163289
v 0.010455 0.001096 -0.160190
v 0.010455 -0.045495 -0.160190
v 0.010455 0.001096 -0.150490
v 0.010455 -0.032238 -0.150490
v -0.000096 0.001096 -0.160190
v -0.000096 -0.019479 -0.275171
v -0.000096 -0.019479 -0.163289
v 0.018393 -0.019479 -0.275171
v 0.018393 -0.019479 -0.163289
v 0.015284 0.001096 -0.290631
v 0.015284 -0.009458 -0.290631
v 0.015284 0.001096 -0.278271
v 0.015284 -0.009458 -0.278271
v -0.000096 0.001096 -0.278271
v 0.024411 -0.160643 -0.155985
v 0.024411 -0.132933 -0.282476
v 0.024411 -0.172119 -0.155985
v 0.024411 -0.144410 -0.282476
v 0.021966 -0.150424 -0.158975
v 0.021966 -0.124024 -0.279486
v -0.018583 0.001096 -0.275171
v -0.010644 0.001096 -0.160190
v -0.010644 -0.045495 -0.160190
v -0.010644 0.001096 -0.150490
v -0.010644 -0.032238 -0.150490
v -0.018583 -0.019479 -0.275171
v -0.018583 -0.019479 -0.163289
v -0.015474 0.001096 -0.290631
v -0.015474 -0.009458 -0.290631
v -0.015474 0.001096 -0.278271
v -0.015474 -0.009458 -0.278271
v -0.024601 -0.160643 -0.155985
v -0.024601 -0.132933 -0.282476
v -0.024601 -0.172119 -0.155985
v -0.024601 -0.144410 -0.282476
v -0.022156 -0.150424 -0.158975
v -0.022156 -0.124024 -0.279486
v 0.021493 -0.162443 -0.163238
v 0.015693 -0.163714 -0.160190
v 0.015693 -0.137846 -0.278271
v 0.021493 -0.139117 -0.272471
v 0.021493 0.001096 -0.272471
v 0.015693 0.001096 -0.278271
v 0.015693 0.001096 -0.160190
v 0.021493 0.001096 -0.163238
v -0.015883 -0.163714 -0.160190
v -0.021683 -0.162443 -0.163238
v -0.021683 -0.139117 -0.272471
v -0.015883 -0.137846 -0.278271
v -0.015883 0.001096 -0.278271
v -0.021683 0.001096 -0.272471
v -0.021683 0.001096 -0.163238
v -0.015883 0.001096 -0.160190
v -0.018635 0.001096 -0.163238
v 0.002604 0.004744 -0.164159
v 0.002604 0.004744 -0.165609
v 0.001074 0.004744 -0.165609
v 0.000523 0.004744 -0.220854
v -0.001710 0.004744 -0.227524
v -0.001710 0.004744 -0.241183
v -0.002152 0.004744 -0.241183
v -0.002152 0.004744 -0.219243
v -0.002161 0.004744 -0.241441
v -0.002152 0.004744 -0.228856
v -0.006753 0.004744 -0.275171
v -0.004814 0.004744 -0.266739
v -0.003403 0.004744 -0.258306
v -0.002519 0.004744 -0.249874
v -0.000471 -0.002680 -0.164159
v -0.000471 -0.002680 -0.165609
v -0.001553 -0.001598 -0.165609
v -0.001942 -0.001208 -0.220854
v -0.003521 0.000371 -0.227524
v -0.003521 0.000371 -0.241183
v -0.003834 0.000684 -0.241183
v -0.003834 0.000684 -0.219243
v -0.003840 0.000690 -0.241441
v -0.003834 0.000684 -0.228856
v -0.007088 0.003937 -0.275171
v -0.005716 0.002567 -0.266739
v -0.004718 0.001569 -0.258306
v -0.004093 0.000942 -0.249874
v -0.007894 -0.005754 -0.164159
v -0.007894 -0.005754 -0.165609
v -0.007894 -0.004224 -0.165609
v -0.007894 -0.003673 -0.220854
v -0.007894 -0.001440 -0.227524
v -0.007894 -0.001440 -0.241183
v -0.007894 -0.000998 -0.241183
v -0.007894 -0.000998 -0.219243
v -0.007894 -0.000989 -0.241441
v -0.007894 -0.000998 -0.228856
v -0.007894 0.003603 -0.275171
v -0.007894 0.001665 -0.266739
v -0.007894 0.000254 -0.258306
v -0.007894 -0.000632 -0.249874
v -0.015318 -0.002680 -0.164159
v -0.015318 -0.002680 -0.165609
v -0.014236 -0.001598 -0.165609
v -0.013846 -0.001208 -0.220854
v -0.012267 0.000371 -0.227524
v -0.012267 0.000371 -0.241183
v -0.011954 0.000684 -0.241183
v -0.011954 0.000684 -0.219243
v -0.011948 0.000690 -0.241441
v -0.011954 0.000684 -0.228856
v -0.008700 0.003937 -0.275171
v -0.010072 0.002567 -0.266739
v -0.011069 0.001569 -0.258306
v -0.011696 0.000942 -0.249874
v -0.018392 0.004744 -0.164159
v -0.018392 0.004744 -0.165609
v -0.016862 0.004744 -0.165609
v -0.016311 0.004744 -0.220854
v -0.014078 0.004744 -0.227524
v -0.014078 0.004744 -0.241183
v -0.013636 0.004744 -0.241183
v -0.013636 0.004744 -0.219243
v -0.013627 0.004744 -0.241441
v -0.013636 0.004744 -0.228856
v -0.009035 0.004744 -0.275171
v -0.010974 0.004744 -0.266739
v -0.012384 0.004744 -0.258306
v -0.013269 0.004744 -0.249874
v -0.015318 0.012167 -0.164159
v -0.015318 0.012167 -0.165609
v -0.014236 0.011085 -0.165609
v -0.013846 0.010695 -0.220854
v -0.012267 0.009118 -0.227524
v -0.012267 0.009118 -0.241183
v -0.011954 0.008804 -0.241183
v -0.011954 0.008804 -0.219243
v -0.011948 0.008799 -0.241441
v -0.011954 0.008804 -0.228856
v -0.008700 0.005551 -0.275171
v -0.010072 0.006921 -0.266739
v -0.011069 0.007920 -0.258306
v -0.011696 0.008545 -0.249874
v -0.007894 0.015242 -0.164159
v -0.007894 0.015242 -0.165609
v -0.007894 0.013713 -0.165609
v -0.007894 0.013162 -0.220854
v -0.007894 0.010929 -0.227524
v -0.007894 0.010929 -0.241183
v -0.007894 0.010486 -0.241183
v -0.007894 0.010486 -0.219243
v -0.007894 0.010478 -0.241441
v -0.007894 0.010486 -0.228856
v -0.007894 0.005884 -0.275171
v -0.007894 0.007823 -0.266739
v -0.007894 0.009235 -0.258306
v -0.007894 0.010120 -0.249874
v -0.000471 0.012167 -0.164159
v -0.000471 0.012167 -0.165609
v -0.001553 0.011085 -0.165609
v -0.001942 0.010695 -0.220854
v -0.003521 0.009118 -0.227524
v -0.003521 0.009118 -0.241183
v -0.003834 0.008804 -0.241183
v -0.003834 0.008804 -0.219243
v -0.003840 0.008799 -0.241441
v -0.003834 0.008804 -0.228856
v -0.007088 0.005551 -0.275171
v -0.005716 0.006921 -0.266739
v -0.004718 0.007920 -0.258306
v -0.004093 0.008545 -0.249874
v -0.004443 0.001293 -0.163289
v -0.003015 0.004744 -0.163289
v -0.007894 -0.000136 -0.163289
v -0.011345 0.001293 -0.163289
v -0.012773 0.004744 -0.163289
v -0.011345 0.008194 -0.163289
v -0.007894 0.009624 -0.163289
v -0.004443 0.008194 -0.163289
v -0.001553 -0.001598 -0.163289
v 0.001074 0.004744 -0.163289
v -0.007894 -0.004224 -0.163289
v -0.014236 -0.001598 -0.163289
v -0.016862 0.004744 -0.163289
v -0.014236 0.011085 -0.163289
v -0.007894 0.013713 -0.163289
v -0.001553 0.011085 -0.163289
v -0.005596 0.002446 -0.163289
v -0.004643 0.004744 -0.163289
v -0.007894 0.001494 -0.163289
v -0.010192 0.002446 -0.163289
v -0.011145 0.004744 -0.163289
v -0.010192 0.007043 -0.163289
v -0.007894 0.007994 -0.163289
v -0.005596 0.007043 -0.163289
v -0.004868 0.001717 -0.164102
v -0.003613 0.004744 -0.164102
v -0.007894 0.000464 -0.164102
v -0.010920 0.001717 -0.164102
v -0.012174 0.004744 -0.164102
v -0.010920 0.007771 -0.164102
v -0.007894 0.009025 -0.164102
v -0.004868 0.007771 -0.164102
v 0.019401 -0.003654 -0.164159
v 0.019401 -0.003654 -0.165609
v 0.017871 -0.003654 -0.165609
v 0.017320 -0.003654 -0.220854
v 0.015087 -0.003654 -0.227524
v 0.015087 -0.003654 -0.241183
v 0.014645 -0.003654 -0.241183
v 0.014645 -0.003654 -0.219243
v 0.014636 -0.003654 -0.241441
v 0.014645 -0.003654 -0.228856
v 0.010044 -0.003654 -0.275171
v 0.011983 -0.003654 -0.266739
v 0.013394 -0.003654 -0.258306
v 0.014278 -0.003654 -0.249874
v 0.016326 -0.011078 -0.164159
v 0.016326 -0.011078 -0.165609
v 0.015244 -0.009996 -0.165609
v 0.014855 -0.009606 -0.220854
v 0.013276 -0.008027 -0.227524
v 0.013276 -0.008027 -0.241183
v 0.012963 -0.007714 -0.241183
v 0.012963 -0.007714 -0.219243
v 0.012957 -0.007708 -0.241441
v 0.012963 -0.007714 -0.228856
v 0.009709 -0.004462 -0.275171
v 0.011081 -0.005832 -0.266739
v 0.012079 -0.006829 -0.258306
v 0.012703 -0.007456 -0.249874
v 0.008903 -0.014152 -0.164159
v 0.008903 -0.014152 -0.165609
v 0.008903 -0.012622 -0.165609
v 0.008903 -0.012071 -0.220854
v 0.008903 -0.009838 -0.227524
v 0.008903 -0.009838 -0.241183
v 0.008903 -0.009396 -0.241183
v 0.008903 -0.009396 -0.219243
v 0.008903 -0.009387 -0.241441
v 0.008903 -0.009396 -0.228856
v 0.008903 -0.004795 -0.275171
v 0.008903 -0.006734 -0.266739
v 0.008903 -0.008145 -0.258306
v 0.008903 -0.009031 -0.249874
v 0.001479 -0.011078 -0.164159
v 0.001479 -0.011078 -0.165609
v 0.002561 -0.009996 -0.165609
v 0.002951 -0.009606 -0.220854
v 0.004530 -0.008027 -0.227524
v 0.004530 -0.008027 -0.241183
v 0.004843 -0.007714 -0.241183
v 0.004843 -0.007714 -0.219243
v 0.004849 -0.007708 -0.241441
v 0.004843 -0.007714 -0.228856
v 0.008097 -0.004462 -0.275171
v 0.006725 -0.005832 -0.266739
v 0.005727 -0.006829 -0.258306
v 0.005101 -0.007456 -0.249874
v -0.001595 -0.003654 -0.164159
v -0.001595 -0.003654 -0.165609
v -0.000065 -0.003654 -0.165609
v 0.000486 -0.003654 -0.220854
v 0.002719 -0.003654 -0.227524
v 0.002719 -0.003654 -0.241183
v 0.003161 -0.003654 -0.241183
v 0.003161 -0.003654 -0.219243
v 0.003170 -0.003654 -0.241441
v 0.003161 -0.003654 -0.228856
v 0.007762 -0.003654 -0.275171
v 0.005823 -0.003654 -0.266739
v 0.004412 -0.003654 -0.258306
v 0.003528 -0.003654 -0.249874
v 0.001479 0.003769 -0.164159
v 0.001479 0.003769 -0.165609
v 0.002561 0.002687 -0.165609
v 0.002951 0.002297 -0.220854
v 0.004530 0.000719 -0.227524
v 0.004530 0.000719 -0.241183
v 0.004843 0.000406 -0.241183
v 0.004843 0.000406 -0.219243
v 0.004849 0.000400 -0.241441
v 0.004843 0.000406 -0.228856
v 0.008097 -0.002848 -0.275171
v 0.006725 -0.001478 -0.266739
v 0.005727 -0.000478 -0.258306
v 0.005101 0.000146 -0.249874
v 0.008903 0.006844 -0.164159
v 0.008903 0.006844 -0.165609
v 0.008903 0.005314 -0.165609
v 0.008903 0.004763 -0.220854
v 0.008903 0.002530 -0.227524
v 0.008903 0.002530 -0.241183
v 0.008903 0.002088 -0.241183
v 0.008903 0.002088 -0.219243
v 0.008903 0.002079 -0.241441
v 0.008903 0.002088 -0.228856
v 0.008903 -0.002514 -0.275171
v 0.008903 -0.000576 -0.266739
v 0.008903 0.000837 -0.258306
v 0.008903 0.001721 -0.249874
v 0.016326 0.003769 -0.164159
v 0.016326 0.003769 -0.165609
v 0.015244 0.002687 -0.165609
v 0.014855 0.002297 -0.220854
v 0.013276 0.000719 -0.227524
v 0.013276 0.000719 -0.241183
v 0.012963 0.000406 -0.241183
v 0.012963 0.000406 -0.219243
v 0.012957 0.000400 -0.241441
v 0.012963 0.000406 -0.228856
v 0.009709 -0.002848 -0.275171
v 0.011081 -0.001478 -0.266739
v 0.012079 -0.000478 -0.258306
v 0.012703 0.000146 -0.249874
v 0.012354 -0.007105 -0.163289
v 0.013782 -0.003654 -0.163289
v 0.008903 -0.008535 -0.163289
v 0.005452 -0.007105 -0.163289
v 0.004024 -0.003654 -0.163289
v 0.005452 -0.000204 -0.163289
v 0.008903 0.001225 -0.163289
v 0.012354 -0.000204 -0.163289
v 0.015244 -0.009996 -0.163289
v 0.017871 -0.003654 -0.163289
v 0.008903 -0.012622 -0.163289
v 0.002561 -0.009996 -0.163289
v -0.000065 -0.003654 -0.163289
v 0.002561 0.002687 -0.163289
v 0.008903 0.005314 -0.163289
v 0.015244 0.002687 -0.163289
v 0.011201 -0.005952 -0.163289
v 0.012154 -0.003654 -0.163289
v 0.008903 -0.006905 -0.163289
v 0.006605 -0.005952 -0.163289
v 0.005652 -0.003654 -0.163289
v 0.006605 -0.001356 -0.163289
v 0.008903 -0.000405 -0.163289
v 0.011201 -0.001356 -0.163289
v 0.011929 -0.006682 -0.164102
v 0.013183 -0.003654 -0.164102
v 0.008903 -0.007934 -0.164102
v 0.005877 -0.006682 -0.164102
v 0.004623 -0.003654 -0.164102
v 0.005877 -0.000628 -0.164102
v 0.008903 0.000626 -0.164102
v 0.011929 -0.000628 -0.164102
v 0.002604 -0.015833 -0.164159
v 0.002604 -0.015833 -0.165609
v 0.001074 -0.015833 -0.165609
v 0.000523 -0.015833 -0.220854
v -0.001710 -0.015833 -0.227524
v -0.001710 -0.015833 -0.241183
v -0.002152 -0.015833 -0.241183
v -0.002152 -0.015833 -0.219243
v -0.002161 -0.015833 -0.241441
v -0.002152 -0.015833 -0.228856
v -0.006753 -0.015833 -0.275171
v -0.004814 -0.015833 -0.266739
v -0.003403 -0.015833 -0.258306
v -0.002519 -0.015833 -0.249874
v -0.000471 -0.023255 -0.164159
v -0.000471 -0.023255 -0.165609
v -0.001553 -0.022173 -0.165609
v -0.001942 -0.021783 -0.220854
v -0.003521 -0.020206 -0.227524
v -0.003521 -0.020206 -0.241183
v -0.003834 -0.019893 -0.241183
v -0.003834 -0.019893 -0.219243
v -0.003840 -0.019887 -0.241441
v -0.003834 -0.019893 -0.228856
v -0.007088 -0.016639 -0.275171
v -0.005716 -0.018009 -0.266739
v -0.004718 -0.019008 -0.258306
v -0.004093 -0.019633 -0.249874
v -0.007894 -0.026331 -0.164159
v -0.007894 -0.026331 -0.165609
v -0.007894 -0.024801 -0.165609
v -0.007894 -0.024250 -0.220854
v -0.007894 -0.022017 -0.227524
v -0.007894 -0.022017 -0.241183
v -0.007894 -0.021575 -0.241183
v -0.007894 -0.021575 -0.219243
v -0.007894 -0.021566 -0.241441
v -0.007894 -0.021575 -0.228856
v -0.007894 -0.016972 -0.275171
v -0.007894 -0.018911 -0.266739
v -0.007894 -0.020323 -0.258306
v -0.007894 -0.021208 -0.249874
v -0.015318 -0.023255 -0.164159
v -0.015318 -0.023255 -0.165609
v -0.014236 -0.022173 -0.165609
v -0.013846 -0.021783 -0.220854
v -0.012267 -0.020206 -0.227524
v -0.012267 -0.020206 -0.241183
v -0.011954 -0.019893 -0.241183
v -0.011954 -0.019893 -0.219243
v -0.011948 -0.019887 -0.241441
v -0.011954 -0.019893 -0.228856
v -0.008700 -0.016639 -0.275171
v -0.010072 -0.018009 -0.266739
v -0.011069 -0.019008 -0.258306
v -0.011696 -0.019633 -0.249874
v -0.018392 -0.015833 -0.164159
v -0.018392 -0.015833 -0.165609
v -0.016862 -0.015833 -0.165609
v -0.016311 -0.015833 -0.220854
v -0.014078 -0.015833 -0.227524
v -0.014078 -0.015833 -0.241183
v -0.013636 -0.015833 -0.241183
v -0.013636 -0.015833 -0.219243
v -0.013627 -0.015833 -0.241441
v -0.013636 -0.015833 -0.228856
v -0.009035 -0.015833 -0.275171
v -0.010974 -0.015833 -0.266739
v -0.012384 -0.015833 -0.258306
v -0.013269 -0.015833 -0.249874
v -0.015318 -0.008409 -0.164159
v -0.015318 -0.008409 -0.165609
v -0.014236 -0.009490 -0.165609
v -0.013846 -0.009880 -0.220854
v -0.012267 -0.011459 -0.227524
v -0.012267 -0.011459 -0.241183
v -0.011954 -0.011773 -0.241183
v -0.011954 -0.011773 -0.219243
v -0.011948 -0.011778 -0.241441
v -0.011954 -0.011773 -0.228856
v -0.008700 -0.015025 -0.275171
v -0.010072 -0.013655 -0.266739
v -0.011069 -0.012657 -0.258306
v -0.011696 -0.012031 -0.249874
v -0.007894 -0.005335 -0.164159
v -0.007894 -0.005335 -0.165609
v -0.007894 -0.006864 -0.165609
v -0.007894 -0.007415 -0.220854
v -0.007894 -0.009648 -0.227524
v -0.007894 -0.009648 -0.241183
v -0.007894 -0.010091 -0.241183
v -0.007894 -0.010091 -0.219243
v -0.007894 -0.010099 -0.241441
v -0.007894 -0.010091 -0.228856
v -0.007894 -0.014691 -0.275171
v -0.007894 -0.012753 -0.266739
v -0.007894 -0.011342 -0.258306
v -0.007894 -0.010456 -0.249874
v -0.000471 -0.008409 -0.164159
v -0.000471 -0.008409 -0.165609
v -0.001553 -0.009490 -0.165609
v -0.001942 -0.009880 -0.220854
v -0.003521 -0.011459 -0.227524
v -0.003521 -0.011459 -0.241183
v -0.003834 -0.011773 -0.241183
v -0.003834 -0.011773 -0.219243
v -0.003840 -0.011778 -0.241441
v -0.003834 -0.011773 -0.228856
v -0.007088 -0.015025 -0.275171
v -0.005716 -0.013655 -0.266739
v -0.004718 -0.012657 -0.258306
v -0.004093 -0.012031 -0.249874
v -0.004443 -0.019282 -0.163289
v -0.003015 -0.015833 -0.163289
v -0.007894 -0.020712 -0.163289
v -0.011345 -0.019282 -0.163289
v -0.012773 -0.015833 -0.163289
v -0.011345 -0.012382 -0.163289
v -0.007894 -0.010952 -0.163289
v -0.004443 -0.012382 -0.163289
v -0.001553 -0.022173 -0.163289
v 0.001074 -0.015833 -0.163289
v -0.007894 -0.024801 -0.163289
v -0.014236 -0.022173 -0.163289
v -0.016862 -0.015833 -0.163289
v -0.014236 -0.009490 -0.163289
v -0.007894 -0.006864 -0.163289
v -0.001553 -0.009490 -0.163289
v -0.005596 -0.018131 -0.163289
v -0.004643 -0.015833 -0.163289
v -0.007894 -0.019082 -0.163289
v -0.010192 -0.018131 -0.163289
v -0.011145 -0.015833 -0.163289
v -0.010192 -0.013534 -0.163289
v -0.007894 -0.012582 -0.163289
v -0.005596 -0.013534 -0.163289
v -0.004868 -0.018859 -0.164102
v -0.003613 -0.015833 -0.164102
v -0.007894 -0.020113 -0.164102
v -0.010920 -0.018859 -0.164102
v -0.012174 -0.015833 -0.164102
v -0.010920 -0.012805 -0.164102
v -0.007894 -0.011552 -0.164102
v -0.004868 -0.012805 -0.164102
v 0.026101 0.003948 0.054624
v 0.011320 0.060690 0.054624
v 0.026101 0.003948 -0.318698
v 0.026101 0.046026 -0.318698
v 0.026101 0.046026 0.054624
v -0.026293 0.003948 0.054624
v -0.011510 0.060690 0.054624
v -0.011510 0.060690 -0.318698
v -0.026293 0.046026 -0.318698
v -0.026293 0.046026 0.054624
v -0.023319 0.040635 -0.291894
v -0.023319 0.046026 -0.286503
v 0.026101 0.014390 -0.291894
v 0.026101 0.009000 -0.286503
v 0.026101 0.009000 -0.158151
v 0.026101 0.014390 -0.152760
v 0.026101 0.046026 -0.286503
v 0.026101 0.040635 -0.291894
v 0.026101 0.040635 -0.152760
v 0.026101 0.046026 -0.158151
v -0.023319 0.009000 -0.286503
v -0.023319 0.014390 -0.291894
v -0.023319 0.046026 -0.158151
v -0.023319 0.040635 -0.152760
v -0.023319 0.014390 -0.152760
v -0.023319 0.009000 -0.158151
v 0.017049 -0.010952 -0.318698
v 0.017049 0.060690 -0.318698
v 0.017049 -0.010952 -0.724965
v 0.017049 0.060690 -0.724965
v 0.031304 0.044937 -0.724965
v 0.031304 0.004801 -0.724965
v 0.031304 0.044937 -0.318698
v 0.031304 0.004801 -0.318698
v 0.017049 -0.010952 -0.411020
v 0.017049 -0.010952 -0.469058
v 0.017049 -0.010952 -0.510847
v 0.017049 -0.010952 -0.568884
v 0.017049 0.060690 -0.568884
v 0.017049 0.060690 -0.510847
v 0.017049 0.060690 -0.469058
v 0.017049 0.060690 -0.411020
v 0.031304 0.004801 -0.568884
v 0.031304 0.004801 -0.510847
v 0.031304 0.004801 -0.469058
v 0.031304 0.044937 -0.568884
v 0.031304 0.044937 -0.510847
v 0.031304 0.044937 -0.469058
v 0.021801 -0.005700 -0.568884
v 0.021801 -0.005700 -0.510847
v 0.021801 -0.005700 -0.469058
v 0.021801 -0.005700 -0.411020
v 0.026552 -0.000449 -0.568884
v 0.026552 -0.000449 -0.510847
v 0.026552 -0.000449 -0.469058
v 0.026552 -0.000449 -0.411020
v 0.021801 0.055439 -0.568884
v 0.026552 0.050187 -0.568884
v 0.021801 0.055439 -0.510847
v 0.026552 0.050187 -0.510847
v 0.021801 0.055439 -0.469058
v 0.026552 0.050187 -0.469058
v 0.021801 0.055439 -0.411020
v 0.026552 0.050187 -0.411020
v 0.031304 0.004801 -0.411020
v 0.031304 0.044937 -0.411020
v 0.031304 0.031558 -0.568884
v 0.031304 0.018180 -0.568884
v 0.031304 0.031558 -0.510847
v 0.031304 0.018180 -0.510847
v 0.031304 0.031558 -0.469058
v 0.031304 0.018180 -0.469058
v 0.031304 0.031558 -0.411020
v 0.031304 0.018180 -0.411020
v -0.017240 -0.010952 -0.318698
v -0.017240 0.060690 -0.318698
v -0.017240 -0.010952 -0.724965
v -0.017240 0.060690 -0.724965
v -0.031494 0.044937 -0.724965
v -0.031494 0.004801 -0.724965
v -0.031494 0.044937 -0.318698
v -0.031494 0.004801 -0.318698
v -0.017240 -0.010952 -0.411020
v -0.017240 -0.010952 -0.469058
v -0.017240 -0.010952 -0.510847
v -0.017240 -0.010952 -0.568884
v -0.017240 0.060690 -0.568884
v -0.017240 0.060690 -0.510847
v -0.017240 0.060690 -0.469058
v -0.017240 0.060690 -0.411020
v -0.031494 0.004801 -0.568884
v -0.031494 0.004801 -0.510847
v -0.031494 0.004801 -0.469058
v -0.031494 0.044937 -0.568884
v -0.031494 0.044937 -0.510847
v -0.031494 0.044937 -0.469058
v -0.021991 -0.005700 -0.568884
v -0.021991 -0.005700 -0.510847
v -0.021991 -0.005700 -0.469058
v -0.021991 -0.005700 -0.411020
v -0.026742 -0.000449 -0.568884
v -0.026742 -0.000449 -0.510847
v -0.026742 -0.000449 -0.469058
v -0.026742 -0.000449 -0.411020
v -0.021991 0.055439 -0.568884
v -0.026742 0.050187 -0.568884
v -0.021991 0.055439 -0.510847
v -0.026742 0.050187 -0.510847
v -0.021991 0.055439 -0.469058
v -0.026742 0.050187 -0.469058
v -0.021991 0.055439 -0.411020
v -0.026742 0.050187 -0.411020
v -0.031494 0.004801 -0.411020
v -0.031494 0.044937 -0.411020
v -0.031494 0.031558 -0.568884
v -0.031494 0.018180 -0.568884
v -0.031494 0.031558 -0.510847
v -0.031494 0.018180 -0.510847
v -0.031494 0.031558 -0.469058
v -0.031494 0.018180 -0.469058
v -0.031494 0.031558 -0.411020
v -0.031494 0.018180 -0.411020
v 0.013832 -0.003702 -0.318698
v 0.013832 0.053440 -0.318698
v 0.013832 -0.003702 -0.724965
v 0.013832 0.053440 -0.724965
v 0.024054 0.042144 -0.724965
v 0.024054 0.007595 -0.724965
v 0.024054 0.042144 -0.318698
v 0.024054 0.007595 -0.318698
v 0.013832 -0.003702 -0.411020
v 0.013832 -0.003702 -0.469058
v 0.013832 -0.003702 -0.510847
v 0.013832 -0.003702 -0.568884
v 0.013832 0.053440 -0.568884
v 0.013832 0.053440 -0.510847
v 0.013832 0.053440 -0.469058
v 0.013832 0.053440 -0.411020
v 0.024054 0.007595 -0.568884
v 0.024054 0.007595 -0.510847
v 0.024054 0.007595 -0.469058
v 0.024054 0.042144 -0.568884
v 0.024054 0.042144 -0.510847
v 0.024054 0.042144 -0.469058
v 0.016424 -0.000837 -0.568884
v 0.016424 -0.000837 -0.510847
v 0.016424 -0.000837 -0.469058
v 0.016424 -0.000837 -0.411020
v 0.021176 0.004415 -0.568884
v 0.021176 0.004415 -0.510847
v 0.021176 0.004415 -0.469058
v 0.021176 0.004415 -0.411020
v 0.016424 0.050575 -0.568884
v 0.021176 0.045323 -0.568884
v 0.016424 0.050575 -0.510847
v 0.021176 0.045323 -0.510847
v 0.016424 0.050575 -0.469058
v 0.021176 0.045323 -0.469058
v 0.016424 0.050575 -0.411020
v 0.021176 0.045323 -0.411020
v 0.024054 0.007595 -0.411020
v 0.024054 0.042144 -0.411020
v 0.024054 0.031558 -0.568884
v 0.024054 0.018180 -0.568884
v 0.024054 0.031558 -0.510847
v 0.024054 0.018180 -0.510847
v 0.024054 0.031558 -0.469058
v 0.024054 0.018180 -0.469058
v 0.024054 0.031558 -0.411020
v 0.024054 0.018180 -0.411020
v -0.014023 -0.003702 -0.318698
v -0.014023 0.053440 -0.318698
v -0.014023 -0.003702 -0.724965
v -0.014023 0.053440 -0.724965
v -0.024244 0.042144 -0.724965
v -0.024244 0.007595 -0.724965
v -0.024244 0.042144 -0.318698
v -0.024244 0.007595 -0.318698
v -0.014023 -0.003702 -0.411020
v -0.014023 -0.003702 -0.469058
v -0.014023 -0.003702 -0.510847
v -0.014023 -0.003702 -0.568884
v -0.014023 0.053440 -0.568884
v -0.014023 0.053440 -0.510847
v -0.014023 0.053440 -0.469058
v -0.014023 0.053440 -0.411020
v -0.024244 0.007595 -0.568884
v -0.024244 0.007595 -0.510847
v -0.024244 0.007595 -0.469058
v -0.024244 0.042144 -0.568884
v -0.024244 0.042144 -0.510847
v -0.024244 0.042144 -0.469058
v -0.016616 -0.000837 -0.568884
v -0.016616 -0.000837 -0.510847
v -0.016616 -0.000837 -0.469058
v -0.016616 -0.000837 -0.411020
v -0.021367 0.004415 -0.568884
v -0.021367 0.004415 -0.510847
v -0.021367 0.004415 -0.469058
v -0.021367 0.004415 -0.411020
v -0.016616 0.050575 -0.568884
v -0.021367 0.045323 -0.568884
v -0.016616 0.050575 -0.510847
v -0.021367 0.045323 -0.510847
v -0.016616 0.050575 -0.469058
v -0.021367 0.045323 -0.469058
v -0.016616 0.050575 -0.411020
v -0.021367 0.045323 -0.411020
v -0.024244 0.007595 -0.411020
v -0.024244 0.042144 -0.411020
v -0.024244 0.031558 -0.568884
v -0.024244 0.018180 -0.568884
v -0.024244 0.031558 -0.510847
v -0.024244 0.018180 -0.510847
v -0.024244 0.031558 -0.469058
v -0.024244 0.018180 -0.469058
v -0.024244 0.031558 -0.411020
v -0.024244 0.018180 -0.411020
v 0.018603 -0.025476 0.054624
v 0.018603 0.003948 0.054624
v 0.026101 -0.017404 -0.318698
v 0.023097 -0.075142 -0.156074
v 0.026101 0.003948 -0.145922
v 0.018603 -0.075142 -0.129921
v 0.018603 -0.075142 -0.145922
v 0.018603 0.003948 -0.145922
v -0.000096 0.003948 -0.145922
v -0.000096 -0.075142 -0.145922
v 0.018603 -0.025476 -0.129921
v 0.023097 -0.036302 -0.281803
v 0.026101 0.003948 -0.287561
v 0.026101 -0.075142 -0.145922
v 0.026101 -0.027810 -0.287561
v 0.023097 -0.044908 -0.156074
v 0.023097 -0.006068 -0.281803
v -0.018793 -0.025476 0.054624
v -0.018793 0.003948 0.054624
v -0.026293 -0.017404 -0.318698
v -0.026293 0.003948 -0.318698
v -0.023288 -0.075142 -0.156074
v -0.026293 0.003948 -0.145922
v -0.018793 -0.075142 -0.129921
v -0.018793 -0.075142 -0.145922
v -0.018793 0.003948 -0.145922
v -0.018793 -0.025476 -0.129921
v -0.023288 -0.036302 -0.281803
v -0.026293 0.003948 -0.287561
v -0.026293 -0.075142 -0.145922
v -0.026293 -0.027810 -0.287561
v -0.023288 -0.044908 -0.156074
v -0.023288 -0.006068 -0.281803
v 0.017359 -0.024012 -0.051978
v 0.010109 -0.024012 -0.057980
v 0.010109 -0.183371 -0.004363
v 0.017359 -0.180993 0.003745
v 0.017359 -0.164897 0.058188
v 0.010109 -0.162857 0.065146
v 0.010109 -0.024012 0.011414
v 0.017359 -0.024012 0.004340
v 0.010109 -0.135753 -0.011939
v 0.017359 -0.133990 -0.003645
v 0.010109 -0.092232 -0.031517
v 0.017359 -0.088828 -0.023213
v 0.010109 -0.071579 -0.057980
v 0.017359 -0.069952 -0.052029
v 0.010109 -0.050351 0.011941
v 0.017359 -0.052428 0.004340
v 0.010109 -0.073431 0.024983
v 0.017359 -0.076978 0.017921
v 0.017359 -0.124107 0.041509
v 0.010109 -0.122583 0.048697
v -0.010299 -0.024012 -0.057980
v -0.017549 -0.024012 -0.051978
v -0.017549 -0.180993 0.003745
v -0.010299 -0.183371 -0.004363
v -0.010299 -0.162857 0.065146
v -0.017549 -0.164897 0.058188
v -0.017549 -0.024012 0.004340
v -0.010299 -0.024012 0.011414
v -0.017549 -0.133990 -0.003645
v -0.010299 -0.135753 -0.011939
v -0.017549 -0.088828 -0.023213
v -0.010299 -0.092232 -0.031517
v -0.017549 -0.069952 -0.052029
v -0.010299 -0.071579 -0.057980
v -0.017549 -0.052428 0.004340
v -0.010299 -0.050351 0.011941
v -0.017549 -0.076978 0.017921
v -0.010299 -0.073431 0.024983
v -0.010299 -0.122583 0.048697
v -0.017549 -0.124107 0.041509
v 0.003806 -0.069886 -0.087287
v 0.003806 -0.023829 -0.070238
v 0.003806 -0.069886 -0.091549
v 0.003806 -0.023829 -0.099970
v 0.003806 -0.034719 -0.077930
v 0.003806 -0.046442 -0.077930
v 0.003806 -0.058164 -0.078970
v 0.003806 -0.034719 -0.086559
v 0.003806 -0.046442 -0.082609
v 0.003806 -0.058164 -0.084273
v -0.003996 -0.069886 -0.087287
v -0.003996 -0.023829 -0.070238
v -0.003996 -0.069886 -0.091549
v -0.003996 -0.023829 -0.099970
v -0.003996 -0.034719 -0.077930
v -0.003996 -0.046442 -0.077930
v -0.003996 -0.058164 -0.078970
v -0.003996 -0.034719 -0.086559
v -0.003996 -0.046442 -0.082609
v -0.003996 -0.058164 -0.084273
v 0.011320 0.060690 -0.318698
v -0.015466 0.070270 -0.318698
v 0.011320 0.065924 -0.318698
v -0.011510 0.065924 -0.318698
v -0.015466 0.070270 0.054624
v 0.011320 0.065924 0.054624
v -0.011510 0.065924 0.054624
v 0.011320 0.074616 -0.318698
v -0.011510 0.074616 -0.318698
v 0.015274 0.070270 -0.318698
v 0.011320 0.074616 0.054624
v -0.011510 0.074616 0.054624
v 0.015274 0.070270 0.054624
v 0.011320 -0.010952 -0.599833
v -0.011510 -0.010952 -0.599833
v -0.015466 -0.020531 -0.599833
v 0.011320 -0.016185 -0.599833
v -0.011510 -0.016185 -0.599833
v 0.011320 -0.010952 -0.724965
v -0.011510 -0.010952 -0.724965
v -0.015466 -0.020531 -0.724965
v 0.011320 -0.016186 -0.724965
v -0.011510 -0.016186 -0.724965
v 0.011320 -0.024876 -0.599833
v -0.011510 -0.024876 -0.599833
v 0.015274 -0.020531 -0.599833
v 0.011320 -0.024876 -0.724965
v -0.011510 -0.024876 -0.724965
v 0.015274 -0.020531 -0.724965
v 0.011320 0.060690 -0.724965
v -0.011510 0.060690 -0.724965
v -0.015466 0.070270 -0.724965
v 0.011320 0.065924 -0.724965
v -0.011510 0.065924 -0.724965
v 0.011320 0.060690 -0.599833
v -0.011510 0.060690 -0.599833
v -0.015466 0.070270 -0.599833
v 0.011320 0.065924 -0.599833
v -0.011510 0.065924 -0.599833
v 0.011320 0.074616 -0.724965
v -0.011510 0.074616 -0.724965
v 0.015274 0.070270 -0.724965
v 0.011320 0.074616 -0.599833
v -0.011510 0.074616 -0.599833
v 0.015274 0.070270 -0.599833
v -0.000096 0.013811 -0.287091
v 0.007723 0.017051 -0.287091
v 0.007723 0.017051 -0.800678
v 0.010962 0.024869 -0.287091
v 0.007723 0.032687 -0.287091
v 0.007723 0.032687 -0.800678
v -0.000096 0.035927 -0.287091
v -0.000096 0.035927 -0.800678
v -0.007914 0.032687 -0.287091
v -0.007914 0.032687 -0.800678
v -0.011152 0.024869 -0.287091
v -0.011152 0.024869 -0.800678
v -0.007914 0.017051 -0.287091
v -0.000096 0.010576 -0.287091
v 0.010011 0.014762 -0.287091
v 0.014197 0.024869 -0.287091
v 0.010011 0.034975 -0.287091
v -0.000096 0.039162 -0.287091
v -0.010202 0.034975 -0.287091
v -0.010202 0.034975 -0.800678
v -0.014388 0.024869 -0.287091
v -0.014388 0.024869 -0.800678
v -0.010202 0.014762 -0.287091
v -0.010202 0.014762 -0.800678
v -0.000096 0.010576 -0.739049
v 0.010011 0.014762 -0.739049
v 0.014197 0.024869 -0.739049
v 0.010011 0.034975 -0.739049
v -0.000096 0.039162 -0.739049
v -0.010202 0.034975 -0.739049
v -0.014388 0.024869 -0.739049
v -0.010202 0.014762 -0.739049
v -0.000096 0.012799 -0.743695
v -0.000096 0.012799 -0.796033
v 0.008439 0.016334 -0.796033
v 0.008439 0.016334 -0.743695
v 0.011976 0.024869 -0.796033
v 0.011976 0.024869 -0.743695
v 0.008439 0.033404 -0.796033
v 0.008439 0.033404 -0.743695
v -0.000096 0.036939 -0.796033
v -0.000096 0.036939 -0.743695
v -0.008630 0.033404 -0.796033
v -0.008630 0.033404 -0.743695
v -0.012165 0.024869 -0.796033
v -0.012165 0.024869 -0.743695
v -0.008630 0.016334 -0.796033
v -0.008630 0.016334 -0.743695
v -0.000096 0.024869 -0.782485
v -0.000096 0.024869 -0.291565
v 0.010011 0.014762 -0.800678
v -0.000096 0.010576 -0.800678
v 0.014197 0.024869 -0.800678
v 0.010011 0.034975 -0.800678
v -0.000096 0.039162 -0.800678
v 0.010011 0.014762 -0.877467
v -0.000096 0.010576 -0.877467
v 0.014197 0.024869 -0.877467
v 0.010011 0.034975 -0.877467
v -0.000096 0.039162 -0.877467
v -0.010202 0.034975 -0.877467
v -0.014388 0.024869 -0.877467
v -0.010202 0.014762 -0.877467
v -0.000096 0.010576 -0.830788
v -0.000096 0.010576 -0.822478
v -0.000096 0.010576 -0.847732
v -0.000096 0.010576 -0.839422
v -0.000096 0.010576 -0.864679
v -0.000096 0.010576 -0.856369
v -0.010202 0.014762 -0.830788
v -0.010202 0.014762 -0.822478
v -0.010202 0.014762 -0.847732
v -0.010202 0.014762 -0.839422
v -0.010202 0.014762 -0.864679
v -0.010202 0.014762 -0.856369
v -0.010202 0.034975 -0.830788
v -0.010202 0.034975 -0.822478
v -0.010202 0.034975 -0.847732
v -0.010202 0.034975 -0.839422
v -0.010202 0.034975 -0.864679
v -0.010202 0.034975 -0.856369
v 0.010011 0.034975 -0.830788
v 0.010011 0.034975 -0.822478
v 0.010011 0.034975 -0.847732
v 0.010011 0.034975 -0.839422
v 0.010011 0.034975 -0.864679
v 0.010011 0.034975 -0.856369
v 0.010011 0.014762 -0.856369
v 0.010011 0.014762 -0.864679
v 0.010011 0.014762 -0.839422
v 0.010011 0.014762 -0.847732
v 0.010011 0.014762 -0.822478
v 0.010011 0.014762 -0.830788
v -0.014388 0.024869 -0.856369
v -0.014388 0.024869 -0.864679
v -0.014388 0.024869 -0.839422
v -0.014388 0.024869 -0.847732
v -0.014388 0.024869 -0.822478
v -0.014388 0.024869 -0.830788
v -0.000096 0.039162 -0.856369
v -0.000096 0.039162 -0.864679
v -0.000096 0.039162 -0.839422
v -0.000096 0.039162 -0.847732
v -0.000096 0.039162 -0.822478
v -0.000096 0.039162 -0.830788
v 0.014197 0.024869 -0.856369
v 0.014197 0.024869 -0.864679
v 0.014197 0.024869 -0.839422
v 0.014197 0.024869 -0.847732
v 0.014197 0.024869 -0.822478
v 0.014197 0.024869 -0.830788
v -0.000096 0.013716 -0.800678
v 0.011058 0.024869 -0.800678
v -0.007982 0.016982 -0.800678
v 0.007791 0.016982 -0.877467
v -0.000096 0.013716 -0.877467
v 0.011058 0.024869 -0.877467
v 0.007791 0.032755 -0.877467
v -0.000096 0.036022 -0.877467
v -0.007982 0.032755 -0.877467
v -0.011249 0.024869 -0.877467
v -0.007982 0.016982 -0.877467
v -0.000096 0.013716 -0.830788
v -0.000096 0.013716 -0.822478
v -0.000096 0.013716 -0.847732
v -0.000096 0.013716 -0.839422
v -0.000096 0.013716 -0.864679
v -0.000096 0.013716 -0.856369
v -0.008319 0.017249 -0.830788
v -0.008319 0.017249 -0.822478
v -0.008319 0.017249 -0.847732
v -0.008319 0.017249 -0.839422
v -0.008319 0.017249 -0.864679
v -0.008319 0.017249 -0.856369
v -0.008319 0.032490 -0.830788
v -0.008319 0.032490 -0.822478
v -0.008319 0.032490 -0.847732
v -0.008319 0.032490 -0.839422
v -0.008319 0.032490 -0.864679
v -0.008319 0.032490 -0.856369
v 0.008129 0.032490 -0.830788
v 0.008129 0.032490 -0.822478
v 0.008129 0.032490 -0.847732
v 0.008129 0.032490 -0.839422
v 0.008129 0.032490 -0.864679
v 0.008129 0.032490 -0.856369
v 0.008129 0.017249 -0.856369
v 0.008129 0.017249 -0.864679
v 0.008129 0.017249 -0.839422
v 0.008129 0.017249 -0.847732
v 0.008129 0.017249 -0.822478
v 0.008129 0.017249 -0.830788
v -0.011249 0.024869 -0.856369
v -0.011249 0.024869 -0.864679
v -0.011249 0.024869 -0.839422
v -0.011249 0.024869 -0.847732
v -0.011249 0.024869 -0.822478
v -0.011249 0.024869 -0.830788
v -0.000096 0.036022 -0.856369
v -0.000096 0.036022 -0.864679
v -0.000096 0.036022 -0.839422
v -0.000096 0.036022 -0.847732
v -0.000096 0.036022 -0.822478
v -0.000096 0.036022 -0.830788
v 0.011058 0.024869 -0.856369
v 0.011058 0.024869 -0.864679
v 0.011058 0.024869 -0.839422
v 0.011058 0.024869 -0.847732
v 0.011058 0.024869 -0.822478
v 0.011058 0.024869 -0.830788
v 0.013041 -0.078132 -0.100488
v 0.013041 -0.078132 -0.122400
v 0.022465 -0.078132 -0.100488
v 0.022465 -0.078132 -0.122400
v 0.013041 -0.066717 -0.137218
v -0.013233 -0.078132 -0.100488
v -0.013233 -0.078132 -0.122400
v -0.022656 -0.078132 -0.100488
v -0.022656 -0.078132 -0.122400
v -0.013233 -0.066717 -0.137218
v 0.013041 -0.082482 -0.100488
v 0.013041 -0.082598 -0.123378
v 0.022465 -0.082482 -0.100488
v 0.022465 -0.082482 -0.122400
v 0.013041 -0.070163 -0.139873
v -0.013233 -0.082482 -0.100488
v -0.013233 -0.082598 -0.123378
v -0.022656 -0.082482 -0.100488
v -0.022656 -0.082482 -0.122400
v -0.013233 -0.070163 -0.139873
v 0.011907 -0.077359 -0.071420
v 0.011907 -0.073242 -0.072523
v 0.011907 -0.077362 -0.120765
v 0.011907 -0.073241 -0.119676
v 0.011907 -0.066116 -0.051777
v 0.011907 -0.062422 -0.053907
v 0.011907 -0.070454 -0.133065
v 0.011907 -0.066748 -0.130960
v -0.012097 -0.077359 -0.071420
v -0.012097 -0.073242 -0.072523
v -0.012097 -0.077362 -0.120765
v -0.012097 -0.073241 -0.119676
v -0.012097 -0.066116 -0.051777
v -0.012097 -0.062422 -0.053907
v -0.012097 -0.070454 -0.133065
v -0.012097 -0.066748 -0.130960
v 0.008920 -0.019537 0.073184
v 0.008920 -0.019537 0.157476
v 0.008920 -0.025221 0.073184
v 0.008920 -0.033868 0.157476
v 0.008920 -0.019537 0.133362
v 0.008920 -0.033868 0.133362
v 0.008920 -0.019537 0.112111
v 0.008920 -0.025221 0.112111
v 0.023647 0.022742 0.357329
v 0.023647 -0.098077 0.357329
v 0.023647 0.022742 0.375389
v 0.023647 -0.098077 0.375389
v 0.007699 -0.017039 0.357329
v 0.007699 -0.017039 0.258961
v 0.007699 -0.109845 0.357329
v 0.007699 -0.109845 0.295307
v 0.007699 -0.037939 0.292007
v 0.007699 -0.041106 0.287220
v 0.007699 -0.041112 0.343056
v 0.007699 -0.037939 0.338285
v 0.007699 -0.088944 0.338285
v 0.007699 -0.085775 0.343056
v 0.007699 -0.085775 0.303334
v 0.007699 -0.088944 0.308121
v -0.009110 -0.019537 0.073184
v -0.009110 -0.019537 0.157476
v -0.009110 -0.025221 0.073184
v -0.009110 -0.033868 0.157476
v -0.009110 -0.019537 0.133362
v -0.009110 -0.033868 0.133362
v -0.009110 -0.019537 0.112111
v -0.009110 -0.025221 0.112111
v -0.023838 0.022742 0.357329
v -0.023838 -0.098077 0.357329
v -0.023838 0.022742 0.375389
v -0.023838 -0.098077 0.375389
v -0.007889 -0.017039 0.357329
v -0.007889 -0.017039 0.258961
v -0.007889 -0.109845 0.357329
v -0.007889 -0.109845 0.295307
v -0.007889 -0.037939 0.292007
v -0.007889 -0.041106 0.287220
v -0.007889 -0.041112 0.343056
v -0.007889 -0.037939 0.338285
v -0.007889 -0.088944 0.338285
v -0.007889 -0.085775 0.343056
v -0.007889 -0.085775 0.303334
v -0.007889 -0.088944 0.308121
v 0.009406 -0.017039 0.357329
v 0.016656 -0.009789 0.357329
v 0.009406 0.035948 0.357329
v 0.016656 0.028698 0.357329
v 0.016656 -0.009789 0.053051
v 0.009406 -0.017039 0.053051
v 0.009406 0.035948 0.053051
v 0.016656 0.028698 0.053051
v 0.018631 0.034758 0.375389
v 0.010417 0.040861 0.375389
v 0.010417 0.040861 0.357329
v 0.018631 0.034758 0.357329
v 0.010417 -0.118809 0.375389
v 0.018631 -0.110093 0.375389
v 0.018631 -0.110093 0.357329
v 0.010417 -0.118809 0.357329
v -0.009596 -0.017039 0.357329
v -0.016846 -0.009789 0.357329
v -0.009596 0.035948 0.357329
v -0.016846 0.028698 0.357329
v -0.009596 -0.017039 0.053051
v -0.016846 -0.009789 0.053051
v -0.016846 0.028698 0.053051
v -0.009596 0.035948 0.053051
v -0.010607 0.040861 0.375389
v -0.018821 0.034758 0.375389
v -0.018821 0.034758 0.357329
v -0.010607 0.040861 0.357329
v -0.018821 -0.110093 0.375389
v -0.010607 -0.118809 0.375389
v -0.010607 -0.118809 0.357329
v -0.018821 -0.110093 0.357329
v -0.010831 -0.025569 0.275580
v 0.010640 -0.025569 0.275580
v -0.010831 -0.026998 0.272130
v 0.010640 -0.026998 0.272130
v -0.010831 -0.030447 0.270702
v 0.010640 -0.030447 0.270702
v -0.010831 -0.033897 0.272130
v 0.010640 -0.033897 0.272130
v -0.010831 -0.035326 0.275580
v 0.010640 -0.035326 0.275580
v -0.010831 -0.033897 0.279029
v 0.010640 -0.033897 0.279029
v -0.010831 -0.030447 0.280458
v 0.010640 -0.030447 0.280458
v -0.010831 -0.026998 0.279029
v 0.010640 -0.026998 0.279029
v 0.006792 -0.015877 0.089917
v 0.006792 -0.028333 0.089917
v 0.004775 -0.015877 0.085047
v 0.004775 -0.028333 0.085047
v -0.000096 -0.015877 0.083030
v -0.000096 -0.028333 0.083030
v -0.004965 -0.015877 0.085047
v -0.004965 -0.028333 0.085047
v -0.006982 -0.015877 0.089917
v -0.006982 -0.028333 0.089917
v -0.004965 -0.015877 0.094787
v -0.004965 -0.028333 0.094787
v -0.000096 -0.015877 0.096803
v -0.000096 -0.028333 0.096803
v 0.004775 -0.015877 0.094787
v 0.004775 -0.028333 0.094787
v 0.021593 -0.000168 0.252603
v 0.021593 -0.000168 0.119370
v 0.021593 0.028005 0.257379
v 0.014551 0.040952 0.257379
v 0.014551 0.040952 0.114592
v 0.021593 0.028005 0.114592
v 0.021593 -0.012972 0.243014
v 0.021593 -0.012972 0.128957
v 0.017243 -0.000168 0.252603
v 0.017243 -0.000168 0.119370
v 0.017243 0.026816 0.257379
v 0.011822 0.037019 0.257379
v 0.011822 0.037019 0.114592
v 0.017243 0.026816 0.114592
v 0.017243 -0.012972 0.243014
v 0.017243 -0.012972 0.128957
v -0.021785 -0.000168 0.252603
v -0.021785 -0.000168 0.119370
v -0.021785 0.028005 0.257379
v -0.014741 0.040952 0.257379
v -0.014741 0.040952 0.114592
v -0.021785 0.028005 0.114592
v -0.021785 -0.012972 0.243014
v -0.021785 -0.012972 0.128957
v -0.017435 -0.000168 0.252603
v -0.017435 -0.000168 0.119370
v -0.017435 0.026816 0.257379
v -0.012013 0.037019 0.257379
v -0.012013 0.037019 0.114592
v -0.017435 0.026816 0.114592
v -0.017435 -0.012972 0.243014
v -0.017435 -0.012972 0.128957
v 0.021593 -0.000168 0.162188
v 0.021593 -0.000168 0.209785
v 0.021593 0.033350 0.209785
v 0.021593 0.033350 0.162188
v 0.014551 0.046298 0.162188
v 0.014551 0.046298 0.209785
v 0.021593 -0.034958 0.162188
v 0.021593 -0.034958 0.209785
v 0.017243 -0.000168 0.162188
v 0.017243 -0.000168 0.209785
v 0.017243 0.032161 0.209785
v 0.017243 0.032161 0.162188
v 0.011822 0.042365 0.162188
v 0.011822 0.042365 0.209785
v 0.017243 -0.034958 0.162188
v 0.017243 -0.034958 0.209785
v -0.021785 -0.000168 0.162188
v -0.021785 -0.000168 0.209785
v -0.021785 0.033350 0.209785
v -0.021785 0.033350 0.162188
v -0.014741 0.046298 0.162188
v -0.014741 0.046298 0.209785
v -0.021785 -0.034958 0.162188
v -0.021785 -0.034958 0.209785
v -0.017435 -0.000168 0.162188
v -0.017435 -0.000168 0.209785
v -0.017435 0.032161 0.209785
v -0.017435 0.032161 0.162188
v -0.012013 0.042365 0.162188
v -0.012013 0.042365 0.209785
v -0.017435 -0.034958 0.162188
v -0.017435 -0.034958 0.209785
v 0.022224 0.007415 -0.292729
v 0.022224 0.007415 -0.151376
v 0.022224 0.047213 -0.292729
v 0.022224 0.047213 -0.151376
v -0.020216 0.007415 -0.292729
v -0.020216 0.047213 -0.292729
v 0.022224 0.031839 -0.219624
v 0.022224 0.034871 -0.222655
v 0.022224 0.034871 -0.266301
v 0.022224 0.031839 -0.269332
v 0.022224 0.019268 -0.269332
v 0.022224 0.016237 -0.266301
v 0.022224 0.016237 -0.222655
v 0.022224 0.019268 -0.219624
v -0.022353 -0.021914 -0.083540
v -0.022353 -0.014884 -0.016937
v -0.022353 -0.004768 -0.018590
v -0.025546 -0.019444 -0.082099
v -0.025546 -0.013992 -0.018928
v 0.022163 -0.011797 -0.085193
v 0.022163 -0.021914 -0.083540
v 0.022163 -0.019123 -0.020109
v 0.022163 -0.014884 -0.016937
v 0.022163 -0.004768 -0.018590
v 0.030659 -0.015485 -0.076550
v 0.030659 -0.016739 -0.076403
v -0.030850 -0.015485 -0.076550
v 0.030659 -0.016952 -0.080561
v 0.030659 -0.018206 -0.080416
v 0.030659 -0.016384 -0.072264
v 0.030659 -0.017636 -0.072119
v -0.030850 -0.016952 -0.080561
v -0.030850 -0.016384 -0.072264
v -0.030850 -0.017636 -0.072119
v 0.026632 -0.008962 -0.025217
v -0.026822 -0.008962 -0.025217
v 0.026632 -0.011352 -0.024227
v -0.026822 -0.011352 -0.024227
v 0.026632 -0.013743 -0.025217
v -0.026822 -0.013743 -0.025217
v 0.026632 -0.014732 -0.027608
v 0.026632 -0.013743 -0.029998
v -0.026822 -0.011352 -0.030988
v -0.026822 -0.008962 -0.029998
v 0.026632 -0.007972 -0.027608
v -0.022353 -0.001759 -0.022946
v -0.022353 -0.011797 -0.085193
v -0.022353 -0.019123 -0.020109
v -0.025546 -0.004250 -0.023083
v -0.025546 -0.016804 -0.021032
v -0.025546 -0.013679 -0.083040
v -0.025546 -0.006245 -0.020194
v 0.022163 -0.001759 -0.022946
v -0.030850 -0.016739 -0.076403
v 0.025356 -0.004250 -0.023083
v 0.025356 -0.016804 -0.021032
v 0.025356 -0.013679 -0.083040
v 0.025356 -0.006245 -0.020194
v 0.025356 -0.019444 -0.082099
v 0.025356 -0.013992 -0.018928
v -0.030850 -0.018206 -0.080416
v -0.026822 -0.014732 -0.027608
v -0.026822 -0.013743 -0.029998
v 0.026632 -0.011352 -0.030988
v 0.026632 -0.008962 -0.029998
v -0.026822 -0.007972 -0.027608
v -0.020396 -0.002117 -0.133488
v 0.020204 -0.002117 -0.133488
v -0.020396 -0.004598 -0.139478
v 0.020204 -0.004598 -0.139478
v -0.020396 -0.010588 -0.141959
v 0.020204 -0.010588 -0.141959
v -0.020396 -0.016578 -0.139478
v 0.020204 -0.016578 -0.139478
v -0.020396 -0.019059 -0.133488
v 0.020204 -0.019059 -0.133488
v -0.020396 -0.016578 -0.127498
v 0.020204 -0.016578 -0.127498
v -0.020396 -0.010588 -0.125018
v 0.020204 -0.010588 -0.125018
v -0.020396 -0.004598 -0.127498
v 0.020204 -0.004598 -0.127498
v -0.020396 -0.002117 0.039091
v 0.020204 -0.002117 0.039091
v -0.020396 -0.004598 0.033101
v 0.020204 -0.004598 0.033101
v -0.020396 -0.010588 0.030620
v 0.020204 -0.010588 0.030620
v -0.020396 -0.016578 0.033101
v 0.020204 -0.016578 0.033101
v -0.020396 -0.019059 0.039091
v 0.020204 -0.019059 0.039091
v -0.020396 -0.016578 0.045081
v 0.020204 -0.016578 0.045081
v -0.020396 -0.010588 0.047561
v 0.020204 -0.010588 0.047561
v -0.020396 -0.004598 0.045081
v 0.020204 -0.004598 0.045081
v -0.028775 0.005494 -0.302016
v 0.028584 0.005494 -0.302016
v -0.028775 0.002727 -0.308693
v 0.028584 0.002727 -0.308693
v -0.028775 -0.003950 -0.311459
v 0.028584 -0.003950 -0.311459
v -0.028775 -0.010626 -0.308693
v 0.028584 -0.010626 -0.308693
v -0.028775 -0.013392 -0.302016
v 0.028584 -0.013392 -0.302016
v -0.028775 -0.010626 -0.295339
v 0.028584 -0.010626 -0.295339
v -0.028775 -0.003950 -0.292574
v 0.028584 -0.003950 -0.292574
v -0.028775 0.002727 -0.295339
v 0.028584 0.002727 -0.295339
v 0.021969 0.026139 -0.286881
v 0.026225 0.026139 -0.286881
v 0.021969 0.018342 -0.286881
v 0.026225 0.018342 -0.286881
v 0.021969 0.018342 -0.279084
v 0.026225 0.018342 -0.279084
v 0.021969 0.026139 -0.279084
v 0.026225 0.026139 -0.279084
v 0.026101 0.029579 -0.282982
v 0.054505 0.029579 -0.282982
v 0.026101 0.027430 -0.288172
v 0.054505 0.027430 -0.288172
v 0.026101 0.022240 -0.290320
v 0.054505 0.022240 -0.290320
v 0.026101 0.017052 -0.288172
v 0.054505 0.017052 -0.288172
v 0.026101 0.014903 -0.282982
v 0.054505 0.014903 -0.282982
v 0.026101 0.017052 -0.277794
v 0.054505 0.017052 -0.277794
v 0.026101 0.022240 -0.275645
v 0.054505 0.022240 -0.275645
v 0.026101 0.027430 -0.277794
v 0.054505 0.027430 -0.277794
v 0.020053 -0.006751 -0.088949
v 0.020053 0.000608 -0.088949
v 0.020053 0.000608 -0.093574
v 0.020053 -0.006751 -0.093574
v 0.020053 -0.008148 -0.091262
v 0.020053 -0.003073 -0.089493
v 0.020053 -0.006799 -0.091262
v 0.020053 -0.005806 -0.092559
v 0.020053 -0.000339 -0.092559
v 0.018603 -0.006751 -0.088949
v 0.018603 -0.003073 -0.088072
v 0.020053 -0.003073 -0.088072
v 0.018603 0.000608 -0.088949
v 0.018603 0.002002 -0.091262
v 0.020053 0.002002 -0.091262
v 0.018603 0.000608 -0.093574
v 0.018603 -0.003073 -0.094452
v 0.020053 -0.003073 -0.094452
v 0.018603 -0.006751 -0.093574
v 0.018603 -0.008148 -0.091262
v 0.018603 -0.000339 -0.089964
v 0.020053 -0.000339 -0.089964
v 0.018603 -0.003073 -0.089493
v 0.018603 -0.005806 -0.089964
v 0.020053 -0.005806 -0.089964
v 0.018603 -0.006799 -0.091262
v 0.018603 -0.005806 -0.092559
v 0.018603 -0.003073 -0.093031
v 0.020053 -0.003073 -0.093031
v 0.018603 -0.000339 -0.092559
v 0.018603 0.000654 -0.091262
v 0.020053 0.000654 -0.091262
v 0.020053 -0.022517 -0.090566
v 0.020053 -0.012628 -0.090566
v 0.020053 -0.012628 -0.091987
v 0.018603 -0.022517 -0.090566
v 0.018603 -0.012628 -0.090566
v 0.018603 -0.012628 -0.091987
v 0.018603 -0.022517 -0.091987
v 0.020053 -0.022517 -0.091987
v -0.020243 -0.006751 -0.088949
v -0.020243 0.000608 -0.088949
v -0.020243 0.000608 -0.093574
v -0.020243 -0.006751 -0.093574
v -0.020243 -0.008148 -0.091262
v -0.020243 -0.003073 -0.089493
v -0.020243 -0.006799 -0.091262
v -0.020243 -0.005806 -0.092559
v -0.020243 -0.000339 -0.092559
v -0.018793 -0.006751 -0.088949
v -0.018793 -0.003073 -0.088072
v -0.020243 -0.003073 -0.088072
v -0.018793 0.000608 -0.088949
v -0.018793 0.002002 -0.091262
v -0.020243 0.002002 -0.091262
v -0.018793 0.000608 -0.093574
v -0.018793 -0.003073 -0.094452
v -0.020243 -0.003073 -0.094452
v -0.018793 -0.006751 -0.093574
v -0.018793 -0.008148 -0.091262
v -0.018793 -0.000339 -0.089964
v -0.020243 -0.000339 -0.089964
v -0.018793 -0.003073 -0.089493
v -0.018793 -0.005806 -0.089964
v -0.020243 -0.005806 -0.089964
v -0.018793 -0.006799 -0.091262
v -0.018793 -0.005806 -0.092559
v -0.018793 -0.003073 -0.093031
v -0.020243 -0.003073 -0.093031
v -0.018793 -0.000339 -0.092559
v -0.018793 0.000654 -0.091262
v -0.020243 0.000654 -0.091262
v -0.020243 -0.022517 -0.090566
v -0.020243 -0.012628 -0.090566
v -0.020243 -0.012628 -0.091987
v -0.018793 -0.022517 -0.090566
v -0.018793 -0.012628 -0.090566
v -0.018793 -0.012628 -0.091987
v -0.018793 -0.022517 -0.091987
v -0.020243 -0.022517 -0.091987
v 0.018393 0.001096 -0.163238
v 0.018393 0.001096 -0.246857
v 0.021493 0.001096 -0.246857
v 0.021493 0.001096 -0.163238
v 0.021469 0.004475 -0.242260
v 0.021469 0.004475 -0.163238
v 0.018416 0.003938 -0.242707
v 0.018416 0.003938 -0.163238
v 0.013511 0.014993 -0.235706
v 0.013510 0.014993 -0.163238
v 0.012493 0.012065 -0.238141
v 0.012493 0.012065 -0.163238
v 0.016604 0.008765 -0.239830
v 0.018553 0.011045 -0.237933
v 0.018553 0.011045 -0.163238
v 0.016602 0.008765 -0.163238
v -0.018583 0.001096 -0.246857
v -0.021683 0.001096 -0.246857
v -0.021683 0.001096 -0.163238
v -0.021660 0.004475 -0.242260
v -0.021660 0.004475 -0.163238
v -0.018608 0.003938 -0.242707
v -0.018608 0.003938 -0.163238
v -0.013701 0.014993 -0.235706
v -0.013701 0.014993 -0.163238
v -0.012685 0.012065 -0.238141
v -0.012685 0.012065 -0.163238
v -0.016794 0.008765 -0.239830
v -0.018744 0.011045 -0.237933
v -0.018744 0.011045 -0.163238
v -0.016794 0.008765 -0.163238
v -0.018635 0.001096 -0.163187
v 0.017190 0.063739 0.041925
v 0.017190 0.063739 0.003164
v 0.017190 0.104030 0.035206
v 0.017190 0.097046 0.041925
v 0.017190 0.097046 0.003164
v 0.017190 0.104030 0.009883
v 0.010359 0.104030 0.009883
v 0.010359 0.097046 0.003164
v 0.010359 0.097046 0.041925
v 0.010359 0.104030 0.035206
v 0.017190 0.063739 -0.690119
v 0.017190 0.063739 -0.712231
v 0.003323 0.081288 -0.695179
v 0.003323 0.093242 -0.701097
v 0.003323 0.081288 -0.707171
v 0.003323 0.093242 -0.707171
v 0.010359 0.081947 -0.690119
v 0.010359 0.081947 -0.712231
v 0.017190 0.104030 -0.693879
v 0.017190 0.097046 -0.690119
v 0.017190 0.097046 -0.712231
v 0.017190 0.104030 -0.708471
v 0.010359 0.104030 -0.708471
v 0.010359 0.097046 -0.712231
v 0.010359 0.097046 -0.690119
v 0.010359 0.104030 -0.693879
v 0.010359 0.089349 0.041925
v 0.002957 0.081947 0.041925
v 0.002957 0.081947 0.003164
v 0.010359 0.089349 0.003164
v -0.017190 0.063739 0.041925
v -0.017190 0.063739 0.003164
v -0.017190 0.104030 0.035206
v -0.017190 0.097046 0.041925
v -0.017190 0.097046 0.003164
v -0.017190 0.104030 0.009883
v -0.010360 0.104030 0.009883
v -0.010360 0.097046 0.003164
v -0.010360 0.097046 0.041925
v -0.010360 0.104030 0.035206
v -0.017190 0.063739 -0.690119
v -0.017190 0.063739 -0.712231
v -0.003323 0.081288 -0.695179
v -0.003323 0.093242 -0.701097
v -0.003323 0.081288 -0.707171
v -0.003323 0.093242 -0.707171
v -0.010360 0.081947 -0.690119
v -0.010360 0.081947 -0.712231
v -0.017190 0.104030 -0.693879
v -0.017190 0.097046 -0.690119
v -0.017190 0.097046 -0.712231
v -0.017190 0.104030 -0.708471
v -0.010360 0.104030 -0.708471
v -0.010360 0.097046 -0.712231
v -0.010360 0.097046 -0.690119
v -0.010360 0.104030 -0.693879
v -0.010360 0.089349 0.041925
v -0.002958 0.081947 0.041925
v -0.002958 0.081947 0.003164
v -0.010360 0.089349 0.003164
v -0.031494 0.013455 -0.599833
v -0.031494 0.036283 -0.599833
v -0.041074 0.040239 -0.599833
v -0.036728 0.013455 -0.599833
v -0.036728 0.036283 -0.599833
v -0.031494 0.013455 -0.724965
v -0.031494 0.036283 -0.724965
v -0.041074 0.040239 -0.724965
v -0.036728 0.013455 -0.724965
v -0.036728 0.036283 -0.724965
v -0.045420 0.013455 -0.599833
v -0.045420 0.036283 -0.599833
v -0.041074 0.009499 -0.599833
v -0.045420 0.013455 -0.724965
v -0.045420 0.036283 -0.724965
v -0.041074 0.009499 -0.724965
v 0.031304 0.013455 -0.724965
v 0.031304 0.036283 -0.724965
v 0.040884 0.040239 -0.724965
v 0.036539 0.013455 -0.724965
v 0.036539 0.036283 -0.724965
v 0.031304 0.013455 -0.599833
v 0.031304 0.036283 -0.599833
v 0.040884 0.040239 -0.599833
v 0.036539 0.013455 -0.599833
v 0.036539 0.036283 -0.599833
v 0.045228 0.013455 -0.724965
v 0.045228 0.036283 -0.724965
v 0.040884 0.009499 -0.724965
v 0.045230 0.013455 -0.599833
v 0.045230 0.036283 -0.599833
v 0.040884 0.009499 -0.599833
g Body
usemtl M_PCL_Flat_Black
f 796 786 783 793
f 724 740 741 725
f 799 795 785 789
f 782 792 794 784
f 792 782 788 798
f 786 789 785 783
f 782 784 791 788
f 788 791 790 787
f 787 790 789 786
f 801 800 790 791
f 800 799 789 790
f 1022 1017 1018 1023
f 798 788 787 797
f 797 787 786 796
f 794 801 791 784
f 796 793 795 799
f 792 798 801 794
f 798 797 800 801
f 797 796 799 800
f 958 960 895
f 850 851 896
f 855 857 896
f 960 858 895
f 858 856 895
f 856 854 895
f 854 852 895
f 852 959 895
f 959 849 895
f 849 958 895
f 857 859 896
f 859 847 896
f 847 848 896
f 848 850 896
f 853 855 896
f 851 853 896
f 1023 1018 1021 1026
f 1018 1017 1019 1020
f 1032 1033 1028 1027
f 1023 1025 1024 1022
f 1033 1036 1031 1028
f 1028 1030 1029 1027
f 1017 1022 1032 1027
f 1033 1032 1034 1035
f 1020 1019 1029 1030
f 1019 1017 1027 1029
f 1018 1020 1030 1028
f 1021 1018 1028 1031
f 1024 1025 1035 1034
f 1022 1024 1034 1032
f 1025 1023 1033 1035
f 1023 1026 1036 1033
f 1133 1134 1136 1135
f 1135 1136 1138 1137
f 1137 1138 1140 1139
f 1139 1140 1142 1141
f 1141 1142 1144 1143
f 1143 1144 1146 1145
f 1136 1134 1148 1146 1144 1142 1140 1138
f 1145 1146 1148 1147
f 1147 1148 1134 1133
f 1133 1135 1137 1139 1141 1143 1145 1147
f 1149 1150 1152 1151
f 1151 1152 1154 1153
f 1153 1154 1156 1155
f 1155 1156 1158 1157
f 1157 1158 1160 1159
f 1159 1160 1162 1161
f 1152 1150 1164 1162 1160 1158 1156 1154
f 1161 1162 1164 1163
f 1163 1164 1150 1149
f 1149 1151 1153 1155 1157 1159 1161 1163
f 1242 1241 1240 1239 1238 1237 1236 1235
f 1266 1265 1263 1264
f 1268 1267 1265 1266
f 1294 1272 1271 1291 1290 1268 1266 1264
f 1264 1263 1273 1294
f 1293 1273 1263 1265 1267 1269 1270 1292
f 1290 1269 1267 1268
f 1291 1270 1269 1290
f 1271 1292 1270 1291
f 1272 1293 1292 1271
f 1294 1273 1293 1272
f 1295 1296 1298 1297
f 1297 1298 1300 1299
f 1299 1300 1302 1301
f 1301 1302 1304 1303
f 1303 1304 1306 1305
f 1305 1306 1308 1307
f 1298 1296 1310 1308 1306 1304 1302 1300
f 1307 1308 1310 1309
f 1309 1310 1296 1295
f 1295 1297 1299 1301 1303 1305 1307 1309
f 1311 1312 1314 1313
f 1313 1314 1316 1315
f 1315 1316 1318 1317
f 1317 1318 1320 1319
f 1319 1320 1322 1321
f 1321 1322 1324 1323
f 1314 1312 1326 1324 1322 1320 1318 1316
f 1323 1324 1326 1325
f 1325 1326 1312 1311
f 1311 1313 1315 1317 1319 1321 1323 1325
f 1327 1328 1330 1329
f 1329 1330 1332 1331
f 1331 1332 1334 1333
f 1333 1334 1336 1335
f 1335 1336 1338 1337
f 1337 1338 1340 1339
f 1330 1328 1342 1340 1338 1336 1334 1332
f 1339 1340 1342 1341
f 1341 1342 1328 1327
f 1327 1329 1331 1333 1335 1337 1339 1341
g Magazine
usemtl M_PCL_Flat_Black_Lighter
f 21 38 39 22
f 36 38 21 19
f 20 19 21 22
f 22 39 37 20
f 24 41 40 23
f 23 40 36 19
f 19 20 24 23
f 37 39 38 36
f 36 40 41 37
f 37 41 24 20
g Body
usemtl M_PCL_Flat_Black_Lighter
f 753 755 757 759
f 745 751 760 746
f 780 761 758 779
f 754 775 762 743
f 777 756 748 769
f 755 742 749 757
f 751 753 759 760
f 747 766 767 764 765 744 745 746
f 779 758 756 777
f 771 773 752 750
f 766 747 761 780
f 773 775 754 752
f 772 778 776 774
f 764 767 781 770
f 774 776 768 763
f 770 781 778 772
f 751 745 744 750
f 753 751 750 752
f 748 756 757 749
f 761 747 746 760
f 755 753 752 754
f 742 755 754 743
f 756 758 759 757
f 758 761 760 759
f 771 765 764 770
f 773 771 770 772
f 768 776 777 769
f 781 767 766 780
f 775 773 772 774
f 762 775 774 763
f 776 778 779 777
f 778 781 780 779
f 765 771 750 744
f 818 819 817 827
f 818 827 830 823
f 817 819 824 822
f 819 816 821 824
f 815 816 819 818
f 823 830 822 824
f 815 818 823 820
f 817 822 829 826
f 820 823 824 821
f 826 829 828 825
f 825 828 830 827
f 827 817 826 825
f 830 828 829 822
f 834 835 833 843
f 834 843 846 839
f 833 835 840 838
f 835 832 837 840
f 831 832 835 834
f 839 846 838 840
f 831 834 839 836
f 833 838 845 842
f 836 839 840 837
f 842 845 844 841
f 841 844 846 843
f 843 833 842 841
f 846 844 845 838
f 1125 1110 1111 1128
f 1116 1131 1132 1086 1062 1115
f 1063 1061 1112 1109
f 1085 1061 1062 1086
f 1084 1079 1055 1060
f 1055 1079 1077 1053
f 1081 1057 1059 1083
f 1057 1054 1056 1058
f 1059 1057 1058 1060
f 1078 1080 1056 1054
f 1080 1082 1058 1056
f 1053 1059 1060 1055
f 1083 1059 1053 1077
f 1082 1084 1060 1058
f 1113 1130 1131 1116
f 1061 1063 1064 1062
f 1202 1218 1184 1168
f 1114 1115 1062 1064
f 1061 1085 1127 1128 1111 1112
f 1110 1125 1126 1087 1088 1129 1130 1113 1114 1064 1063 1109
f 1087 1126 1127 1085
f 1081 1082 1080 1078
f 1083 1084 1082 1081
f 1077 1079 1084 1083
f 1085 1086 1088 1087
f 1129 1088 1086 1132
f 1109 1112 1111 1110
f 1115 1114 1113 1116
f 1125 1128 1127 1126
f 1131 1130 1129 1132
f 1197 1166 1170 1200
f 1200 1170 1169 1201
f 1177 1193 1185 1169
f 1198 1165 1171 1204
f 1205 1208 1178 1174
f 1208 1209 1177 1178
f 1206 1212 1179 1173
f 1167 1168 1176 1175
f 1169 1170 1178 1177
f 1209 1225 1193 1177
f 1184 1192 1176 1168
f 1165 1167 1175 1173
f 1170 1166 1174 1178
f 1204 1171 1179 1212
f 1171 1165 1173 1179
f 1166 1172 1180 1174
f 1213 1216 1186 1182
f 1216 1217 1185 1186
f 1214 1220 1187 1181
f 1221 1190 1194 1224
f 1224 1194 1193 1225
f 1222 1189 1195 1228
f 1183 1191 1192 1184
f 1185 1193 1194 1186
f 1181 1189 1191 1183
f 1186 1194 1190 1182
f 1220 1228 1195 1187
f 1187 1195 1189 1181
f 1182 1190 1196 1188
f 1078 1054 1057 1081
f 1188 1196 1227 1219
f 1219 1227 1228 1220
f 1190 1221 1227 1196
f 1221 1222 1228 1227
f 1191 1223 1226 1192
f 1223 1224 1225 1226
f 1189 1222 1223 1191
f 1222 1221 1224 1223
f 1182 1188 1219 1213
f 1213 1219 1220 1214
f 1183 1184 1218 1215
f 1215 1218 1217 1216
f 1181 1183 1215 1214
f 1214 1215 1216 1213
f 1172 1203 1211 1180
f 1203 1204 1212 1211
f 1176 1192 1226 1210
f 1210 1226 1225 1209
f 1174 1180 1211 1205
f 1205 1211 1212 1206
f 1175 1176 1210 1207
f 1207 1210 1209 1208
f 1173 1175 1207 1206
f 1206 1207 1208 1205
f 1166 1197 1203 1172
f 1197 1198 1204 1203
f 1167 1199 1202 1168
f 1199 1200 1201 1202
f 1165 1198 1199 1167
f 1198 1197 1200 1199
f 1169 1185 1217 1201
f 1201 1217 1218 1202
f 1344 1346 1345 1343
f 1346 1348 1347 1345
f 1348 1350 1349 1347
f 1351 1352 1354 1353
f 1353 1354 1356 1355
f 1355 1356 1358 1357
f 1357 1358 1360 1359
f 1359 1360 1362 1361
f 1361 1362 1364 1363
f 1354 1352 1366 1364 1362 1360 1358 1356
f 1363 1364 1366 1365
f 1365 1366 1352 1351
f 1349 1350 1344 1343
f 1536 1506 1507 1537
f 1480 1483 1484 1481 1482 1479
f 1520 1490 1489 1519
f 1480 1508 1486 1483
f 1509 1479 1506 1536
f 1479 1482 1487 1505
f 1487 1488 1485 1486 1508 1505
f 1485 1484 1483 1486
f 1481 1488 1487 1482
f 1484 1485 1488 1481
f 1503 1504 1501 1502 1496 1495
f 1496 1502 1499 1490
f 1489 1498 1503 1495
f 1490 1499 1500 1497 1498 1489
f 1525 1495 1496 1526
f 1493 1494 1492 1491
f 1521 1491 1492 1522
f 1493 1523 1524 1494
f 1519 1489 1495 1525
f 1526 1496 1490 1520
f 1524 1522 1492 1494
f 1501 1500 1499 1502
f 1497 1504 1503 1498
f 1500 1501 1504 1497
f 1505 1506 1479
f 1507 1508 1480
f 1507 1506 1505 1508
f 1537 1507 1480 1510
f 1510 1509 1512 1511 1514 1513
f 1510 1513 1516 1538
f 1509 1535 1517 1512
f 1517 1535 1538 1516 1515 1518
f 1515 1516 1513 1514
f 1511 1512 1517 1518
f 1514 1511 1518 1515
f 1533 1525 1526 1532 1531 1534
f 1526 1520 1529 1532
f 1519 1525 1533 1528
f 1520 1519 1528 1527 1530 1529
f 1523 1521 1522 1524
f 1531 1532 1529 1530
f 1527 1528 1533 1534
f 1530 1527 1534 1531
f 1535 1509 1536
f 1537 1510 1538
f 1537 1538 1535 1536
f 1510 1480 1479 1509
f 1542 1543 1541 1551
f 1542 1551 1554 1547
f 1541 1543 1548 1546
f 1543 1540 1545 1548
f 1539 1540 1543 1542
f 1547 1554 1546 1548
f 1539 1542 1547 1544
f 1541 1546 1553 1550
f 1544 1547 1548 1545
f 1550 1553 1552 1549
f 1549 1552 1554 1551
f 1551 1541 1550 1549
f 1554 1552 1553 1546
f 1558 1567 1570 1563
f 1557 1559 1564 1562
f 1559 1556 1561 1564
f 1558 1559 1557 1567
f 1555 1556 1559 1558
f 1555 1558 1563 1560
f 1557 1562 1569 1566
f 1563 1570 1562 1564
f 1560 1563 1564 1561
f 1565 1568 1570 1567
f 1566 1569 1568 1565
f 1567 1557 1566 1565
f 1570 1568 1569 1562
g Magazine
usemtl M_PCL_Flat_Grey_Darker
f 3 2 47 18
f 45 46 49 42
f 44 53 54 18 47
f 8 29 27 6
f 26 28 7 5 9
f 6 5 7 8
f 1 2 12 13
f 35 17 16 18 34
f 2 1 49 46
f 43 50 51 52 53 44 45 42
f 1 4 9 48
f 12 10 11 13
f 2 3 10 12
f 4 1 13 11
f 32 34 18 16 14
f 33 32 14 15
f 15 14 16 17
f 17 35 33 15
f 3 18 54 25
f 52 51 56 55
f 27 29 28 26
f 58 31 30 25
f 25 55 56 58
f 58 57 9 4
f 30 31 11 10
f 25 30 10 3
f 4 11 31 58
f 33 35 34 32
f 46 47 2
f 48 49 1
f 54 55 25
f 56 57 58
f 46 45 44 47
f 48 43 42 49
f 54 53 52 55
f 56 51 50 57
g Body
usemtl M_PCL_Flat_Grey_Darker
f 179 73 59 180
f 181 87 73 179
f 182 101 87 181
f 183 115 101 182
f 184 129 115 183
f 185 143 129 184
f 186 157 143 185
f 180 59 157 186
f 73 74 60 59
f 87 88 74 73
f 101 102 88 87
f 115 116 102 101
f 129 130 116 115
f 143 144 130 129
f 157 158 144 143
f 59 60 158 157
f 74 75 61 60
f 88 89 75 74
f 102 103 89 88
f 116 117 103 102
f 130 131 117 116
f 144 145 131 130
f 158 159 145 144
f 60 61 159 158
f 75 76 62 61
f 89 90 76 75
f 103 104 90 89
f 117 118 104 103
f 131 132 118 117
f 145 146 132 131
f 159 160 146 145
f 61 62 160 159
f 76 77 63 62
f 90 91 77 76
f 104 105 91 90
f 118 119 105 104
f 132 133 119 118
f 146 147 133 132
f 160 161 147 146
f 62 63 161 160
f 77 78 64 63
f 91 92 78 77
f 105 106 92 91
f 119 120 106 105
f 133 134 120 119
f 147 148 134 133
f 161 162 148 147
f 63 64 162 161
f 78 79 65 64
f 92 93 79 78
f 106 107 93 92
f 120 121 107 106
f 134 135 121 120
f 148 149 135 134
f 162 163 149 148
f 64 65 163 162
f 79 80 66 65
f 93 94 80 79
f 107 108 94 93
f 121 122 108 107
f 135 136 122 121
f 149 150 136 135
f 163 164 150 149
f 65 66 164 163
f 66 80 94 108 122 136 150 164
f 175 174 198 199
f 172 171 179 180
f 171 173 181 179
f 173 174 182 181
f 174 175 183 182
f 175 176 184 183
f 176 177 185 184
f 177 178 186 185
f 178 172 180 186
f 173 171 195 197
f 178 177 201 202
f 176 175 199 200
f 174 173 197 198
f 171 172 196 195
f 172 178 202 196
f 177 176 200 201
f 323 217 203 324
f 325 231 217 323
f 326 245 231 325
f 327 259 245 326
f 328 273 259 327
f 329 287 273 328
f 330 301 287 329
f 324 203 301 330
f 217 218 204 203
f 231 232 218 217
f 245 246 232 231
f 259 260 246 245
f 273 274 260 259
f 287 288 274 273
f 301 302 288 287
f 203 204 302 301
f 218 219 205 204
f 232 233 219 218
f 246 247 233 232
f 260 261 247 246
f 274 275 261 260
f 288 289 275 274
f 302 303 289 288
f 204 205 303 302
f 219 220 206 205
f 233 234 220 219
f 247 248 234 233
f 261 262 248 247
f 275 276 262 261
f 289 290 276 275
f 303 304 290 289
f 205 206 304 303
f 220 221 207 206
f 234 235 221 220
f 248 249 235 234
f 262 263 249 248
f 276 277 263 262
f 290 291 277 276
f 304 305 291 290
f 206 207 305 304
f 221 222 208 207
f 235 236 222 221
f 249 250 236 235
f 263 264 250 249
f 277 278 264 263
f 291 292 278 277
f 305 306 292 291
f 207 208 306 305
f 222 223 209 208
f 236 237 223 222
f 250 251 237 236
f 264 265 251 250
f 278 279 265 264
f 292 293 279 278
f 306 307 293 292
f 208 209 307 306
f 223 224 210 209
f 237 238 224 223
f 251 252 238 237
f 265 266 252 251
f 279 280 266 265
f 293 294 280 279
f 307 308 294 293
f 209 210 308 307
f 210 224 238 252 266 280 294 308
f 319 318 342 343
f 316 315 323 324
f 315 317 325 323
f 317 318 326 325
f 318 319 327 326
f 319 320 328 327
f 320 321 329 328
f 321 322 330 329
f 322 316 324 330
f 317 315 339 341
f 322 321 345 346
f 320 319 343 344
f 318 317 341 342
f 315 316 340 339
f 316 322 346 340
f 321 320 344 345
f 467 361 347 468
f 469 375 361 467
f 470 389 375 469
f 471 403 389 470
f 472 417 403 471
f 473 431 417 472
f 474 445 431 473
f 468 347 445 474
f 361 362 348 347
f 375 376 362 361
f 389 390 376 375
f 403 404 390 389
f 417 418 404 403
f 431 432 418 417
f 445 446 432 431
f 347 348 446 445
f 362 363 349 348
f 376 377 363 362
f 390 391 377 376
f 404 405 391 390
f 418 419 405 404
f 432 433 419 418
f 446 447 433 432
f 348 349 447 446
f 363 364 350 349
f 377 378 364 363
f 391 392 378 377
f 405 406 392 391
f 419 420 406 405
f 433 434 420 419
f 447 448 434 433
f 349 350 448 447
f 364 365 351 350
f 378 379 365 364
f 392 393 379 378
f 406 407 393 392
f 420 421 407 406
f 434 435 421 420
f 448 449 435 434
f 350 351 449 448
f 365 366 352 351
f 379 380 366 365
f 393 394 380 379
f 407 408 394 393
f 421 422 408 407
f 435 436 422 421
f 449 450 436 435
f 351 352 450 449
f 366 367 353 352
f 380 381 367 366
f 394 395 381 380
f 408 409 395 394
f 422 423 409 408
f 436 437 423 422
f 450 451 437 436
f 352 353 451 450
f 367 368 354 353
f 381 382 368 367
f 395 396 382 381
f 409 410 396 395
f 423 424 410 409
f 437 438 424 423
f 451 452 438 437
f 353 354 452 451
f 354 368 382 396 410 424 438 452
f 463 462 486 487
f 460 459 467 468
f 459 461 469 467
f 461 462 470 469
f 462 463 471 470
f 463 464 472 471
f 464 465 473 472
f 465 466 474 473
f 466 460 468 474
f 461 459 483 485
f 466 465 489 490
f 464 463 487 488
f 462 461 485 486
f 459 460 484 483
f 460 466 490 484
f 465 464 488 489
f 519 522 533 543 539 528
f 527 540 544 534 535 545 541 526
f 528 539 540 527
f 526 541 542 525
f 557 536 537 559
f 561 538 556 563
f 543 533 534 544
f 545 535 555 546
f 523 524 555 556
f 577 578 530 529
f 578 579 531 530
f 579 580 532 531
f 566 518 532 580
f 527 575 576 528
f 526 574 575 527
f 525 573 574 526
f 517 565 573 525
f 547 529 530 549
f 551 531 532 553
f 664 616 625 673
f 538 552 554 556
f 550 549 530 531 551 552 538 537
f 536 548 550 537
f 521 520 529 547 548 536
f 524 517 525 555
f 535 562 564 555
f 560 559 537 538 561 562 535 534
f 533 558 560 534
f 522 521 536 557 558 533
f 615 663 672 624
f 518 523 556 532
f 567 576 587 591 581 570
f 575 574 589 593 583 582 592 588
f 576 575 588 587
f 574 573 590 589
f 605 607 585 584
f 609 611 604 586
f 591 592 582 581
f 593 594 603 583
f 571 604 603 572
f 595 597 578 577
f 599 601 580 579
f 586 604 602 600
f 598 585 586 600 599 579 578 597
f 584 585 598 596
f 569 584 596 595 577 568
f 572 603 573 565
f 583 603 612 610
f 608 582 583 610 609 586 585 607
f 581 582 608 606
f 570 581 606 605 584 569
f 566 580 604 571
f 615 624 635 639 629 618
f 623 622 637 641 631 630 640 636
f 624 623 636 635
f 622 621 638 637
f 653 655 633 632
f 657 659 652 634
f 639 640 630 629
f 641 642 651 631
f 619 652 651 620
f 673 625 626 674
f 674 626 627 675
f 675 627 628 676
f 662 676 628 614
f 624 672 671 623
f 623 671 670 622
f 622 670 669 621
f 621 669 661 613
f 643 645 626 625
f 647 649 628 627
f 568 520 616 664
f 634 652 650 648
f 646 633 634 648 647 627 626 645
f 632 633 646 644
f 617 632 644 643 625 616
f 620 651 621 613
f 631 651 660 658
f 656 630 631 658 657 634 633 655
f 629 630 656 654
f 618 629 654 653 632 617
f 519 567 663 615
f 614 628 652 619
f 663 666 677 687 683 672
f 671 684 688 678 679 689 685 670
f 672 683 684 671
f 670 685 686 669
f 701 680 681 703
f 705 682 700 707
f 687 677 678 688
f 689 679 699 690
f 667 668 699 700
f 691 673 674 693
f 695 675 676 697
f 682 696 698 700
f 694 693 674 675 695 696 682 681
f 680 692 694 681
f 665 664 673 691 692 680
f 668 661 669 699
f 679 706 708 699
f 704 703 681 682 705 706 679 678
f 677 702 704 678
f 666 665 680 701 702 677
f 662 667 700 676
f 518 566 662 614
f 565 517 613 661
f 528 576 567 519
f 522 519 615 618
f 517 524 620 613
f 540 539 635 636
f 542 541 637 638
f 543 544 640 639
f 545 546 642 641
f 539 543 639 635
f 544 540 636 640
f 541 545 641 637
f 520 521 617 616
f 523 518 614 619
f 548 547 643 644
f 549 550 646 645
f 552 551 647 648
f 554 552 648 650
f 551 553 649 647
f 550 548 644 646
f 547 549 645 643
f 521 522 618 617
f 558 557 653 654
f 559 560 656 655
f 562 561 657 658
f 564 562 658 660
f 561 563 659 657
f 560 558 654 656
f 557 559 655 653
f 524 523 619 620
f 602 601 697 698
f 567 570 666 663
f 572 565 661 668
f 612 611 707 708
f 587 588 684 683
f 589 590 686 685
f 592 591 687 688
f 594 593 689 690
f 591 587 683 687
f 588 592 688 684
f 593 589 685 689
f 590 594 690 686
f 554 650 649 553
f 542 638 642 546
f 569 568 664 665
f 566 571 667 662
f 595 596 692 691
f 598 597 693 694
f 599 600 696 695
f 564 660 659 563
f 600 602 698 696
f 601 599 695 697
f 596 598 694 692
f 597 595 691 693
f 570 569 665 666
f 605 606 702 701
f 608 607 703 704
f 609 610 706 705
f 610 612 708 706
f 611 609 705 707
f 606 608 704 702
f 607 605 701 703
f 571 572 668 667
g Magazine
usemtl M_PCL_Flat_Grey_Darker
f 43 48 9 57 50
g Body
usemtl M_PCL_Flat_Grey_Darker
f 804 805 803 811
f 804 811 814 807
f 803 805 808 806
f 805 498 497 808
f 802 498 805 804
f 807 814 806 808
f 802 804 807 492
f 803 806 813 810
f 492 807 808 497
f 810 813 812 809
f 809 812 814 811
f 811 803 810 809
f 814 812 813 806
f 897 938 956 899
f 935 914 903 902
f 868 866 923 944
f 953 935 902 904
f 955 937 934 952
f 870 917 911 898
f 941 926 907 908
f 947 932 905 906
f 901 950 923 866
f 870 868 944 917
f 901 900 929 950
f 898 911 938 897
f 951 928 931 948
f 949 930 933 946
f 932 953 904 905
f 945 922 925 942
f 943 924 927 940
f 926 947 906 907
f 916 945 942 919
f 918 943 940 921
f 920 941 908 909
f 957 939 936 954
f 928 957 954 931
f 930 955 952 933
f 922 951 948 925
f 924 949 946 927
f 939 910 913 936
f 937 912 915 934
f 914 920 909 903
f 910 916 919 913
f 912 918 921 915
f 951 922 923 950
f 949 924 925 948
f 947 926 927 946
f 928 951 950 929
f 930 949 948 931
f 932 947 946 933
f 916 910 911 917
f 918 912 913 919
f 920 914 915 921
f 910 939 938 911
f 912 937 936 913
f 914 935 934 915
f 899 956 929 900
f 849 959 1015 997
f 994 961 962 973
f 858 1003 982 856
f 1012 963 961 994
f 1014 1011 993 996
f 960 958 970 976
f 1000 967 966 985
f 1006 965 964 991
f 854 856 982 1009
f 960 976 1003 858
f 854 1009 988 852
f 958 849 997 970
f 1010 1007 990 987
f 1008 1005 992 989
f 991 964 963 1012
f 1004 1001 984 981
f 1002 999 986 983
f 985 966 965 1006
f 975 978 1001 1004
f 977 980 999 1002
f 979 968 967 1000
f 1016 1013 995 998
f 987 990 1013 1016
f 989 992 1011 1014
f 981 984 1007 1010
f 983 986 1005 1008
f 998 995 972 969
f 996 993 974 971
f 973 962 968 979
f 969 972 978 975
f 971 974 980 977
f 1010 1009 982 981
f 1008 1007 984 983
f 1006 1005 986 985
f 987 988 1009 1010
f 989 990 1007 1008
f 991 992 1005 1006
f 975 976 970 969
f 977 978 972 971
f 979 980 974 973
f 969 970 997 998
f 971 972 995 996
f 973 974 993 994
f 959 852 988 1015
f 902 903 962 961
f 904 902 961 963
f 905 904 963 964
f 906 905 964 965
f 907 906 965 966
f 908 907 966 967
f 909 908 967 968
f 903 909 968 962
f 957 928 987 1016
f 928 929 988 987
f 929 956 1015 988
f 955 930 989 1014
f 930 931 990 989
f 931 954 1013 990
f 953 932 991 1012
f 932 933 992 991
f 933 952 1011 992
f 923 922 981 982
f 925 924 983 984
f 927 926 985 986
f 945 916 975 1004
f 916 917 976 975
f 917 944 1003 976
f 943 918 977 1002
f 918 919 978 977
f 919 942 1001 978
f 941 920 979 1000
f 920 921 980 979
f 921 940 999 980
f 938 939 998 997
f 939 957 1016 998
f 956 938 997 1015
f 936 937 996 995
f 937 955 1014 996
f 954 936 995 1013
f 934 935 994 993
f 935 953 1012 994
f 952 934 993 1011
f 922 945 1004 981
f 944 923 982 1003
f 924 943 1002 983
f 942 925 984 1001
f 926 941 1000 985
f 940 927 986 999
f 1121 1122 1123 1124 1107 1108 1105 1106
f 1108 1104 1102 1105
f 1068 1092 1090 1066
f 1097 1098 1074 1073
f 1095 1071 1074 1098
f 1097 1073 1076 1100
f 1066 1065 1072 1069
f 1068 1066 1070 1075
f 1067 1068 1076 1073
f 1065 1067 1074 1071
f 1069 1070 1066
f 1071 1072 1065
f 1073 1074 1067
f 1075 1076 1068
f 1071 1095 1096 1072
f 1069 1093 1094 1070
f 1099 1100 1076 1075
f 1093 1069 1072 1096
f 1099 1075 1070 1094
f 1090 1093 1096 1089
f 1092 1099 1094 1090
f 1091 1097 1100 1092
f 1089 1095 1098 1091
f 1093 1090 1094
f 1095 1089 1096
f 1097 1091 1098
f 1099 1092 1100
f 1118 1120 1123 1122
f 1119 1124 1123 1120
f 1101 1106 1105 1102
f 1117 1121 1106 1101
f 1124 1119 1103 1107
f 1118 1122 1121 1117
f 1091 1092 1068 1067
f 1104 1108 1107 1103
f 1248 1275 1274 1281
f 1252 1245 1244 1251
f 1255 1261 1258 1253
f 1261 1262 1259 1258
f 1253 1254 1257 1256
f 1258 1259 1254 1253
f 1260 1255 1253 1256
f 1277 1274 1275 1279
f 1278 1276 1244 1247
f 1280 1245 1274 1277
f 1279 1275 1243 1246
f 1246 1243 1276 1278
f 1247 1244 1245 1280
f 1281 1274 1245 1252
f 1247 1280 1277 1278
f 1278 1277 1279 1246
f 1255 1282 1262 1261
f 1282 1255 1260 1289
f 1283 1285 1248 1281
f 1284 1288 1251 1250
f 1286 1283 1281 1252
f 1285 1287 1249 1248
f 1287 1284 1250 1249
f 1288 1286 1252 1251
f 1251 1244 1276 1250
f 1250 1276 1243 1249
f 1249 1243 1275 1248
f 1288 1284 1283 1286
f 1284 1287 1285 1283
f 1282 1289 1257 1254
f 1289 1260 1256 1257
f 1262 1282 1254 1259
f 568 577 529 520
f 1460 1459 1457 1455
f 1448 1447 1454 1453
f 1449 1448 1453 1451
f 1450 1449 1451 1452
f 1447 1450 1452 1454
f 1461 1460 1455 1456
f 1462 1461 1456 1458
f 1459 1462 1458 1457
f 1456 1455 1457 1458
f 1453 1454 1462 1459
f 1454 1452 1461 1462
f 1452 1451 1460 1461
f 1451 1453 1459 1460
f 1475 1470 1472 1474
f 1463 1468 1469 1478
f 1464 1466 1468 1463
f 1465 1467 1466 1464
f 1478 1469 1467 1465
f 1476 1471 1470 1475
f 1477 1473 1471 1476
f 1474 1472 1473 1477
f 1471 1473 1472 1470
f 1468 1474 1477 1469
f 1469 1477 1476 1467
f 1467 1476 1475 1466
f 1466 1475 1474 1468
g Magazine
usemtl M_PCL_Flat_Grey_Darker
f 29 8 7 28
g Body
usemtl M_PCL_Flat_Grey_Dark
f 494 499 498 802
f 709 726 735 719
f 494 493 729 499
f 187 188 194 193 192 191 190 189
f 188 187 195 196
f 187 189 197 195
f 189 190 198 197
f 190 191 199 198
f 191 192 200 199
f 192 193 201 200
f 193 194 202 201
f 194 188 196 202
f 331 332 338 337 336 335 334 333
f 332 331 339 340
f 331 333 341 339
f 333 334 342 341
f 334 335 343 342
f 335 336 344 343
f 336 337 345 344
f 337 338 346 345
f 338 332 340 346
f 475 476 482 481 480 479 478 477
f 476 475 483 484
f 475 477 485 483
f 477 478 486 485
f 478 479 487 486
f 479 480 488 487
f 480 481 489 488
f 481 482 490 489
f 482 476 484 490
f 497 492 802 498
f 509 506 515 514
f 505 504 511 516
f 493 504 505 491
f 491 506 509 495
f 507 494 802 492 495 510
f 492 497 500 495
f 496 491 495 500
f 497 498 499 500
f 507 510 513 502
f 515 516 511 512 501 502 513 514
f 493 494 508 503
f 503 504 493
f 505 506 491
f 507 508 494
f 503 512 511 504
f 515 506 505 516
f 507 502 501 508
f 513 510 509 514
f 503 508 501 512
f 509 510 495
f 729 496 500 499
f 729 493 491 496
f 723 739 728 711
f 726 709 710 727
f 714 732 733 718 715
f 723 721 713 722
f 735 732 714 719
f 718 717 716 715
f 717 718 722 713
f 714 715 716 719
f 719 716 710 709
f 711 493 721 723
f 736 739 723 720
f 712 720 723 722
f 718 738 730 712 722
f 725 741 736 720
f 730 740 724 712
f 720 712 724 725
f 739 738 731 737
f 718 733 734 717
f 717 731 738 718
f 732 735 734 733
f 735 726 727 734
f 728 739 737 729
f 730 738 739 736
f 736 741 740 730
f 880 898 897 881
f 881 897 899 883
f 883 899 900 885
f 885 900 901 887
f 887 901 866 889
f 889 866 868 891
f 891 868 870 893
f 893 870 898 880
f 848 847 860 861
f 958 849 897 898
f 850 848 861 862
f 849 959 899 897
f 851 850 862 863
f 959 852 900 899
f 853 851 863 864
f 852 854 901 900
f 855 853 864 865
f 854 856 866 901
f 857 855 865 867
f 856 858 868 866
f 859 857 867 869
f 858 960 870 868
f 847 859 869 860
f 960 958 898 870
f 869 878 871 860
f 867 877 878 869
f 865 876 877 867
f 864 875 876 865
f 863 874 875 864
f 862 873 874 863
f 861 872 873 862
f 860 871 872 861
f 878 894 879 871
f 894 893 880 879
f 877 892 894 878
f 892 891 893 894
f 876 890 892 877
f 890 889 891 892
f 875 888 890 876
f 888 887 889 890
f 874 886 888 875
f 886 885 887 888
f 873 884 886 874
f 884 883 885 886
f 872 882 884 873
f 882 881 883 884
f 871 879 882 872
f 879 880 881 882
f 1045 1047 1039 1037
f 1040 1039 1043 1044
f 1041 1049 1045 1037
f 1046 1050 1042 1038
f 1038 1037 1039 1040
f 1037 1038 1042 1041
f 1047 1051 1043 1039
f 1044 1052 1048 1040
f 1040 1048 1046 1038
f 1048 1052 1051 1047
f 1046 1048 1047 1045
f 1045 1049 1050 1046
f 711 728 729 493
g Body
usemtl M_PCL_Flat_Grey_Light
f 1232 1236 1237 1231
f 1231 1229 1233 1234
f 1229 1240 1241 1230
f 1231 1238 1239 1229
f 1235 1236 1232
f 1237 1238 1231
f 1229 1239 1240
f 1230 1241 1242
f 1230 1242 1235 1232
g Body
usemtl M_PCL_Flat_White
f 1388 1368 1378 1372
f 1398 1381 1368 1388
f 1372 1378 1367 1391
f 1369 1381 1398 1375
f 1373 1391 1367 1371
f 1384 1369 1375 1395
f 1384 1395 1374 1370
f 1367 1378 1377 1376
f 1378 1368 1379 1377
f 1368 1381 1380 1379
f 1381 1369 1382 1380
f 1369 1384 1383 1382
f 1384 1370 1385 1383
f 1370 1371 1386 1385
f 1371 1367 1376 1386
f 1388 1372 1389 1387
f 1372 1391 1390 1389
f 1391 1373 1392 1390
f 1373 1374 1393 1392
f 1374 1395 1394 1393
f 1395 1375 1396 1394
f 1375 1398 1397 1396
f 1398 1388 1387 1397
f 1370 1374 1373 1371
f 1399 1400 1403 1402
f 1400 1401 1404 1403
f 1401 1406 1405 1404
f 1406 1399 1402 1405
f 1401 1400 1399 1406
f 1428 1412 1418 1408
f 1438 1428 1408 1421
f 1412 1431 1407 1418
f 1409 1415 1438 1421
f 1413 1411 1407 1431
f 1424 1435 1415 1409
f 1424 1410 1414 1435
f 1407 1416 1417 1418
f 1418 1417 1419 1408
f 1408 1419 1420 1421
f 1421 1420 1422 1409
f 1409 1422 1423 1424
f 1424 1423 1425 1410
f 1410 1425 1426 1411
f 1411 1426 1416 1407
f 1428 1427 1429 1412
f 1412 1429 1430 1431
f 1431 1430 1432 1413
f 1413 1432 1433 1414
f 1414 1433 1434 1435
f 1435 1434 1436 1415
f 1415 1436 1437 1438
f 1438 1437 1427 1428
f 1410 1411 1413 1414
f 1439 1442 1443 1440
f 1440 1443 1444 1441
f 1441 1444 1445 1446
f 1446 1445 1442 1439
f 1441 1446 1439 1440
g Body
usemtl M_PCL_Flat_Brown.Bole
f 69 83 97 111 125 139 153 167
f 82 81 67 68
f 96 95 81 82
f 110 109 95 96
f 124 123 109 110
f 138 137 123 124
f 152 151 137 138
f 166 165 151 152
f 68 67 165 166
f 81 86 72 67
f 95 100 86 81
f 109 114 100 95
f 123 128 114 109
f 137 142 128 123
f 151 156 142 137
f 165 170 156 151
f 67 72 170 165
f 82 68 166 152 138 124 110 96
f 84 83 69 70
f 98 97 83 84
f 112 111 97 98
f 126 125 111 112
f 140 139 125 126
f 154 153 139 140
f 168 167 153 154
f 70 69 167 168
f 85 84 70 71
f 99 98 84 85
f 113 112 98 99
f 127 126 112 113
f 141 140 126 127
f 155 154 140 141
f 169 168 154 155
f 71 70 168 169
f 86 85 71 72
f 100 99 85 86
f 114 113 99 100
f 128 127 113 114
f 142 141 127 128
f 156 155 141 142
f 170 169 155 156
f 72 71 169 170
f 213 227 241 255 269 283 297 311
f 226 225 211 212
f 240 239 225 226
f 254 253 239 240
f 268 267 253 254
f 282 281 267 268
f 296 295 281 282
f 310 309 295 296
f 212 211 309 310
f 225 230 216 211
f 239 244 230 225
f 253 258 244 239
f 267 272 258 253
f 281 286 272 267
f 295 300 286 281
f 309 314 300 295
f 211 216 314 309
f 226 212 310 296 282 268 254 240
f 228 227 213 214
f 242 241 227 228
f 256 255 241 242
f 270 269 255 256
f 284 283 269 270
f 298 297 283 284
f 312 311 297 298
f 214 213 311 312
f 229 228 214 215
f 243 242 228 229
f 257 256 242 243
f 271 270 256 257
f 285 284 270 271
f 299 298 284 285
f 313 312 298 299
f 215 214 312 313
f 230 229 215 216
f 244 243 229 230
f 258 257 243 244
f 272 271 257 258
f 286 285 271 272
f 300 299 285 286
f 314 313 299 300
f 216 215 313 314
f 357 371 385 399 413 427 441 455
f 370 369 355 356
f 384 383 369 370
f 398 397 383 384
f 412 411 397 398
f 426 425 411 412
f 440 439 425 426
f 454 453 439 440
f 356 355 453 454
f 369 374 360 355
f 383 388 374 369
f 397 402 388 383
f 411 416 402 397
f 425 430 416 411
f 439 444 430 425
f 453 458 444 439
f 355 360 458 453
f 370 356 454 440 426 412 398 384
f 372 371 357 358
f 386 385 371 372
f 400 399 385 386
f 414 413 399 400
f 428 427 413 414
f 442 441 427 428
f 456 455 441 442
f 358 357 455 456
f 373 372 358 359
f 387 386 372 373
f 401 400 386 387
f 415 414 400 401
f 429 428 414 415
f 443 442 428 429
f 457 456 442 443
f 359 358 456 457
f 374 373 359 360
f 388 387 373 374
f 402 401 387 388
f 416 415 401 402
f 430 429 415 416
f 444 443 429 430
f 458 457 443 444
f 360 359 457 458
