# Adapted CC0 source; see SOURCES.json
mtllib tundra.mtl
v 0.025761 -0.025248 -0.123243
v 0.024411 -0.025248 -0.124593
v 0.024411 -0.023898 -0.123243
v 0.025761 -0.038131 -0.123243
v 0.024411 -0.039481 -0.123243
v 0.024411 -0.038131 -0.124593
v 0.025761 -0.025248 -0.100576
v 0.024411 -0.023898 -0.100576
v 0.024411 -0.025248 -0.099226
v 0.025761 -0.038131 -0.100576
v 0.024411 -0.038131 -0.099226
v 0.024411 -0.039481 -0.100576
v 0.020658 -0.038043 -0.030039
v 0.020658 -0.038043 -0.039964
v 0.020658 -0.060977 -0.039964
v 0.020658 -0.063033 -0.035001
v 0.020658 -0.060977 -0.030039
v 0.020658 -0.032986 -0.026351
v 0.020658 -0.028017 -0.028885
v 0.020658 -0.024288 -0.035001
v 0.020658 -0.028017 -0.041120
v 0.020658 -0.032986 -0.043654
v 0.020658 -0.038098 -0.041120
v 0.020658 -0.038098 -0.028885
v 0.025695 -0.032986 -0.027811
v 0.024345 -0.032986 -0.026351
v 0.025695 -0.028836 -0.030005
v 0.024345 -0.028017 -0.028885
v 0.025695 -0.026055 -0.035001
v 0.024345 -0.024288 -0.035001
v 0.025695 -0.028836 -0.039998
v 0.024345 -0.028017 -0.041120
v 0.025695 -0.032986 -0.042192
v 0.024345 -0.032986 -0.043654
v 0.024345 -0.038098 -0.041120
v 0.025695 -0.038098 -0.039658
v 0.025695 -0.038098 -0.030345
v 0.024345 -0.038098 -0.028885
v 0.022676 -0.038043 -0.030039
v 0.024027 -0.038043 -0.031389
v 0.024027 -0.038043 -0.038614
v 0.022676 -0.038043 -0.039964
v 0.024027 -0.060075 -0.038614
v 0.022676 -0.060977 -0.039964
v 0.024027 -0.061572 -0.035001
v 0.022676 -0.063033 -0.035001
v 0.024027 -0.060075 -0.031389
v 0.022676 -0.060977 -0.030039
v 0.022264 -0.028685 -0.050525
v 0.022264 -0.028524 -0.049415
v 0.022264 -0.029161 -0.048622
v 0.022264 -0.034150 -0.051845
v 0.022264 -0.035780 -0.047396
v 0.022264 -0.034106 -0.047396
v 0.022264 -0.035076 -0.048554
v 0.022264 -0.035190 -0.049961
v 0.022264 -0.028972 -0.047396
v 0.022264 -0.027389 -0.050454
v 0.022264 -0.029327 -0.051845
v 0.021454 -0.028685 -0.050525
v 0.021454 -0.028524 -0.049415
v 0.021454 -0.029161 -0.048622
v 0.021454 -0.034150 -0.051845
v 0.021454 -0.036238 -0.051093
v 0.022264 -0.036238 -0.051093
v 0.021454 -0.036400 -0.048628
v 0.022264 -0.036400 -0.048628
v 0.021454 -0.035780 -0.047396
v 0.021454 -0.034106 -0.047396
v 0.021454 -0.035076 -0.048554
v 0.021454 -0.035190 -0.049961
v 0.021454 -0.034312 -0.050618
v 0.022264 -0.034312 -0.050618
v 0.021454 -0.028972 -0.047396
v 0.021454 -0.027393 -0.048738
v 0.022264 -0.027393 -0.048738
v 0.021454 -0.027389 -0.050454
v 0.021454 -0.027829 -0.051845
v 0.022264 -0.027829 -0.051845
v 0.021454 -0.029327 -0.051845
v 0.022264 -0.012880 -0.033611
v 0.022264 -0.015432 -0.037202
v 0.022264 -0.016620 -0.037202
v 0.022264 -0.016620 -0.033611
v 0.022264 -0.020899 -0.033611
v 0.022264 -0.020899 -0.032288
v 0.021454 -0.012880 -0.033611
v 0.021454 -0.015432 -0.033611
v 0.022264 -0.015432 -0.033611
v 0.021454 -0.015432 -0.037202
v 0.021454 -0.016620 -0.037202
v 0.021454 -0.016620 -0.033611
v 0.021454 -0.020899 -0.033611
v 0.021454 -0.020899 -0.032288
v 0.021454 -0.011692 -0.032288
v 0.022264 -0.011692 -0.032288
v 0.021454 -0.011692 -0.037202
v 0.022264 -0.011692 -0.037202
v 0.021454 -0.012880 -0.037202
v 0.022264 -0.012880 -0.037202
v 0.022264 -0.032237 -0.050871
v 0.022264 -0.030383 -0.049063
v 0.021454 -0.030384 -0.049063
v 0.021454 -0.032238 -0.050871
v 0.021454 -0.033091 -0.049606
v 0.021454 -0.031230 -0.047808
v 0.022264 -0.031230 -0.047809
v 0.022264 -0.033091 -0.049606
v -0.026334 -0.025248 -0.123243
v -0.024984 -0.025248 -0.124593
v -0.024984 -0.023898 -0.123243
v -0.026334 -0.038131 -0.123243
v -0.024984 -0.039481 -0.123243
v -0.024984 -0.038131 -0.124593
v -0.026334 -0.025248 -0.100576
v -0.024984 -0.023898 -0.100576
v -0.024984 -0.025248 -0.099226
v -0.026334 -0.038131 -0.100576
v -0.024984 -0.038131 -0.099226
v -0.024984 -0.039481 -0.100576
v -0.021231 -0.038043 -0.030039
v -0.021231 -0.038043 -0.039964
v -0.021231 -0.060977 -0.039964
v -0.021231 -0.063033 -0.035001
v -0.021231 -0.060977 -0.030039
v -0.021231 -0.032986 -0.026351
v -0.021231 -0.028017 -0.028885
v -0.021231 -0.024288 -0.035001
v -0.021231 -0.028017 -0.041120
v -0.021231 -0.032986 -0.043654
v -0.021231 -0.038098 -0.041120
v -0.021231 -0.038098 -0.028885
v -0.026268 -0.032986 -0.027811
v -0.024918 -0.032986 -0.026351
v -0.026268 -0.028836 -0.030005
v -0.024918 -0.028017 -0.028885
v -0.026268 -0.026055 -0.035001
v -0.024918 -0.024288 -0.035001
v -0.026268 -0.028836 -0.039998
v -0.024918 -0.028017 -0.041120
v -0.026268 -0.032986 -0.042192
v -0.024918 -0.032986 -0.043654
v -0.024918 -0.038098 -0.041120
v -0.026268 -0.038098 -0.039658
v -0.026268 -0.038098 -0.030345
v -0.024918 -0.038098 -0.028885
v -0.023251 -0.038043 -0.030039
v -0.024601 -0.038043 -0.031389
v -0.024601 -0.038043 -0.038614
v -0.023251 -0.038043 -0.039964
v -0.024601 -0.060075 -0.038614
v -0.023251 -0.060977 -0.039964
v -0.024601 -0.061572 -0.035001
v -0.023251 -0.063033 -0.035001
v -0.024601 -0.060075 -0.031389
v -0.023251 -0.060977 -0.030039
v -0.022838 -0.028685 -0.048641
v -0.022838 -0.028524 -0.049750
v -0.022838 -0.029161 -0.050544
v -0.022838 -0.034150 -0.047320
v -0.022838 -0.035780 -0.051771
v -0.022838 -0.034106 -0.051771
v -0.022838 -0.035076 -0.050612
v -0.022838 -0.035190 -0.049205
v -0.022838 -0.028972 -0.051771
v -0.022838 -0.027389 -0.048712
v -0.022838 -0.029327 -0.047320
v -0.022028 -0.028685 -0.048641
v -0.022028 -0.028524 -0.049750
v -0.022028 -0.029161 -0.050544
v -0.022028 -0.034150 -0.047320
v -0.022028 -0.036238 -0.048072
v -0.022838 -0.036238 -0.048072
v -0.022028 -0.036400 -0.050537
v -0.022838 -0.036400 -0.050537
v -0.022028 -0.035780 -0.051771
v -0.022028 -0.034106 -0.051771
v -0.022028 -0.035076 -0.050612
v -0.022028 -0.035190 -0.049205
v -0.022028 -0.034312 -0.048547
v -0.022838 -0.034312 -0.048547
v -0.022028 -0.028972 -0.051771
v -0.022028 -0.027393 -0.050428
v -0.022838 -0.027393 -0.050428
v -0.022028 -0.027389 -0.048712
v -0.022028 -0.027829 -0.047320
v -0.022838 -0.027829 -0.047320
v -0.022028 -0.029327 -0.047320
v -0.022838 -0.012880 -0.035766
v -0.022838 -0.015432 -0.032175
v -0.022838 -0.016620 -0.032175
v -0.022838 -0.016620 -0.035766
v -0.022838 -0.020899 -0.035766
v -0.022838 -0.020899 -0.037089
v -0.022028 -0.012880 -0.035766
v -0.022028 -0.015432 -0.035766
v -0.022838 -0.015432 -0.035766
v -0.022028 -0.015432 -0.032175
v -0.022028 -0.016620 -0.032175
v -0.022028 -0.016620 -0.035766
v -0.022028 -0.020899 -0.035766
v -0.022028 -0.020899 -0.037089
v -0.022028 -0.011692 -0.037089
v -0.022838 -0.011692 -0.037089
v -0.022028 -0.011692 -0.032175
v -0.022838 -0.011692 -0.032175
v -0.022028 -0.012880 -0.032175
v -0.022838 -0.012880 -0.032175
v -0.022838 -0.032237 -0.048295
v -0.022838 -0.030383 -0.050103
v -0.022028 -0.030384 -0.050103
v -0.022028 -0.032238 -0.048295
v -0.022028 -0.033091 -0.049560
v -0.022028 -0.031230 -0.051358
v -0.022838 -0.031230 -0.051358
v -0.022838 -0.033091 -0.049560
v -0.000288 0.031375 -0.286126
v 0.009459 0.030610 -0.894468
v 0.007146 0.028296 -0.286126
v 0.013497 0.020863 -0.894468
v 0.010225 0.020863 -0.286126
v 0.007146 0.013430 -0.286126
v -0.000288 0.007078 -0.894468
v -0.000288 0.010350 -0.286126
v -0.007721 0.013430 -0.286126
v -0.010800 0.020863 -0.286126
v -0.010035 0.030610 -0.894468
v -0.007721 0.028296 -0.286126
v -0.000288 0.034646 -0.894468
v 0.009459 0.011116 -0.894468
v -0.010035 0.011116 -0.894468
v -0.014071 0.020863 -0.894468
v -0.000288 0.038853 -0.894468
v 0.012434 0.033584 -0.894468
v 0.017703 0.020863 -0.894468
v 0.012434 0.008142 -0.894468
v -0.000288 0.002873 -0.894468
v -0.013009 0.008142 -0.894468
v -0.018278 0.020863 -0.894468
v -0.013009 0.033584 -0.894468
v -0.000288 0.038853 -0.906011
v 0.012434 0.033584 -0.906011
v 0.017703 0.020863 -0.906011
v 0.012434 0.008142 -0.906011
v -0.000288 0.002873 -0.906011
v -0.013009 0.008142 -0.906011
v -0.018278 0.020863 -0.906011
v -0.013009 0.033584 -0.906011
v -0.000288 0.036349 -0.910809
v -0.000288 0.005376 -0.910809
v -0.000288 0.031890 -0.964690
v -0.000288 0.009835 -0.964690
v -0.000288 0.005376 -0.932460
v -0.000288 0.005376 -0.937751
v -0.000288 0.036349 -0.932460
v -0.000288 0.036349 -0.937751
v 0.010664 0.031813 -0.910809
v 0.015200 0.020863 -0.910809
v 0.010664 0.009912 -0.910809
v -0.011237 0.009912 -0.910809
v -0.015773 0.020863 -0.910809
v -0.011237 0.031813 -0.910809
v 0.007510 0.028661 -0.964690
v 0.010741 0.020863 -0.964690
v 0.007510 0.013065 -0.964690
v -0.008085 0.013065 -0.964690
v -0.011314 0.020863 -0.964690
v -0.008085 0.028661 -0.964690
v -0.015773 0.020863 -0.937751
v -0.011237 0.009912 -0.937751
v -0.011237 0.009912 -0.932460
v -0.015773 0.020863 -0.932460
v 0.010664 0.009912 -0.937751
v 0.015200 0.020863 -0.937751
v 0.015200 0.020863 -0.932460
v 0.010664 0.009912 -0.932460
v -0.011237 0.031813 -0.937751
v -0.011237 0.031813 -0.932460
v 0.010664 0.031813 -0.937751
v 0.010664 0.031813 -0.932460
v -0.000288 0.036349 -0.964690
v 0.010664 0.031813 -0.964690
v 0.015200 0.020863 -0.964690
v 0.010664 0.009912 -0.964690
v -0.000288 0.005376 -0.964690
v -0.011237 0.009912 -0.964690
v -0.015773 0.020863 -0.964690
v -0.011237 0.031813 -0.964690
v 0.009459 0.030610 -0.286126
v -0.000288 0.034646 -0.286126
v 0.013497 0.020863 -0.286126
v 0.009459 0.011116 -0.286126
v -0.000288 0.007078 -0.286126
v -0.010035 0.011116 -0.286126
v -0.014071 0.020863 -0.286126
v -0.010035 0.030610 -0.286126
v -0.000288 0.020863 -0.288973
v -0.010800 0.020863 -0.894468
v -0.007721 0.028296 -0.894468
v -0.000288 0.031375 -0.894468
v 0.007146 0.028296 -0.894468
v 0.010225 0.020863 -0.894468
v 0.007146 0.013430 -0.894468
v -0.000288 0.010350 -0.894468
v -0.007721 0.013430 -0.894468
v -0.000288 0.020863 -0.873252
v -0.009466 0.030042 -0.914899
v -0.009019 0.029595 -0.931013
v -0.008348 0.028924 -0.955184
v -0.008795 0.029371 -0.939071
v -0.012636 0.020863 -0.931013
v -0.013269 0.020863 -0.914899
v -0.011687 0.020863 -0.955184
v -0.012320 0.020863 -0.939071
v -0.015773 0.020863 -0.955184
v -0.015773 0.020863 -0.939071
v -0.011691 0.030718 -0.939071
v -0.011691 0.030718 -0.955184
v -0.011691 0.030718 -0.914899
v -0.015773 0.020863 -0.914899
v -0.015773 0.020863 -0.931013
v -0.011691 0.030718 -0.931013
v 0.015200 0.020863 -0.914899
v 0.015200 0.020863 -0.931013
v 0.011117 0.030718 -0.914899
v 0.011117 0.030718 -0.931013
v 0.015200 0.020863 -0.939071
v 0.015200 0.020863 -0.955184
v 0.011117 0.011007 -0.939071
v 0.011117 0.011007 -0.955184
v 0.011117 0.030718 -0.955184
v 0.011117 0.030718 -0.939071
v -0.005544 0.011007 -0.939071
v -0.004016 0.011007 -0.955184
v -0.007835 0.011007 -0.914899
v -0.006307 0.011007 -0.931013
v -0.009466 0.011683 -0.914899
v -0.009019 0.012130 -0.931013
v -0.008795 0.012354 -0.939071
v -0.008348 0.012801 -0.955184
v 0.008892 0.011683 -0.914899
v 0.008446 0.012130 -0.931013
v 0.008221 0.012354 -0.939071
v 0.007775 0.012801 -0.955184
v 0.012695 0.020863 -0.914899
v 0.012062 0.020863 -0.931013
v 0.011746 0.020863 -0.939071
v 0.011113 0.020863 -0.955184
v 0.003443 0.030718 -0.955184
v 0.005733 0.030718 -0.931013
v 0.004969 0.030718 -0.939071
v 0.008892 0.030042 -0.914899
v 0.007260 0.030718 -0.914899
v 0.008446 0.029595 -0.931013
v 0.008221 0.029371 -0.939071
v 0.007775 0.028924 -0.955184
v -0.004016 0.030718 -0.955184
v -0.005544 0.030718 -0.939071
v -0.006307 0.030718 -0.931013
v -0.007835 0.030718 -0.914899
v 0.003443 0.011007 -0.955184
v 0.004969 0.011007 -0.939071
v 0.005733 0.011007 -0.931013
v 0.007260 0.011007 -0.914899
v 0.011117 0.011007 -0.914899
v 0.011117 0.011007 -0.931013
v -0.011691 0.011007 -0.955184
v -0.011691 0.011007 -0.939071
v -0.011691 0.011007 -0.914899
v -0.011691 0.011007 -0.931013
v 0.009837 0.053217 -0.049608
v 0.009837 0.059967 -0.049608
v 0.009837 0.053217 -0.295696
v 0.013212 0.063342 -0.295696
v 0.009837 0.059967 -0.295696
v -0.010413 0.053217 -0.049608
v -0.010413 0.059967 -0.049608
v -0.010413 0.053217 -0.295696
v -0.013788 0.063342 -0.295696
v -0.010413 0.059967 -0.295696
v 0.009837 0.066717 -0.049608
v 0.013212 0.063342 -0.049608
v 0.009837 0.066717 -0.295696
v -0.010413 0.066717 -0.049608
v -0.013788 0.063342 -0.049608
v -0.010413 0.066717 -0.295696
v 0.009837 -0.007715 -0.772320
v 0.009837 -0.014465 -0.772320
v 0.009837 -0.007715 -0.622566
v 0.013212 -0.017840 -0.622566
v 0.009837 -0.014465 -0.622566
v -0.010413 -0.007715 -0.772320
v -0.010413 -0.014465 -0.772320
v -0.010413 -0.007715 -0.622566
v -0.013788 -0.017840 -0.622566
v -0.010413 -0.014465 -0.622566
v 0.009837 -0.021215 -0.772320
v 0.013212 -0.017840 -0.772320
v 0.009837 -0.021215 -0.622566
v -0.010413 -0.021215 -0.772320
v -0.013788 -0.017840 -0.772320
v -0.010413 -0.021215 -0.622566
v 0.009837 0.053217 -0.622566
v 0.009837 0.059967 -0.622566
v 0.009837 0.053217 -0.772320
v 0.013212 0.063342 -0.772320
v 0.009837 0.059967 -0.772320
v -0.010413 0.053217 -0.622566
v -0.010413 0.059967 -0.622566
v -0.010413 0.053217 -0.772320
v -0.013788 0.063342 -0.772320
v -0.010413 0.059967 -0.772320
v 0.009837 0.066717 -0.622566
v 0.013212 0.063342 -0.622566
v 0.009837 0.066717 -0.772320
v -0.010413 0.066717 -0.622566
v -0.013788 0.063342 -0.622566
v -0.010413 0.066717 -0.772320
v -0.022093 0.037367 -0.141434
v 0.025404 -0.007715 0.055935
v -0.022093 0.037367 -0.289605
v 0.009837 0.053217 0.055935
v 0.025404 -0.007715 -0.297491
v 0.009837 0.053217 -0.297491
v 0.021479 0.037367 -0.289605
v 0.021479 0.037367 -0.141434
v -0.022093 0.006630 -0.141434
v -0.022093 0.006630 -0.289605
v 0.025404 0.030672 -0.297491
v 0.021479 0.006630 -0.289605
v 0.025404 0.030672 0.055935
v 0.021479 0.006630 -0.141434
v -0.022093 0.025974 -0.141434
v -0.022093 0.025974 -0.289605
v 0.020373 0.045209 -0.297491
v 0.020373 0.045209 0.055935
v 0.021479 0.025974 -0.141434
v 0.021479 0.025974 -0.289605
v -0.022093 0.037367 -0.107012
v -0.025978 -0.007715 0.055935
v -0.010413 0.053217 0.055935
v 0.021479 0.037367 -0.107012
v -0.025978 -0.007715 -0.297491
v -0.022093 0.025974 -0.107012
v -0.010413 0.053217 -0.297491
v -0.025978 0.030672 -0.297491
v -0.025978 0.030672 0.055935
v 0.021479 0.025974 -0.107012
v -0.020948 0.045209 -0.297491
v -0.020948 0.045209 0.055935
v -0.022093 0.006630 -0.107012
v 0.021479 0.006630 -0.107012
v 0.025404 0.025974 -0.107012
v 0.025404 0.030672 -0.107012
v 0.025404 0.025974 -0.141434
v 0.025404 0.006630 -0.289605
v 0.025404 0.030672 -0.289605
v 0.025404 0.025974 -0.289605
v 0.025404 0.006630 -0.141434
v 0.023088 0.037367 -0.141434
v 0.023088 0.037367 -0.107012
v 0.023088 0.037367 -0.289605
v 0.009837 0.053217 -0.772320
v 0.009837 0.053217 -0.297491
v 0.027124 0.035328 -0.772320
v 0.027124 0.035328 -0.297491
v 0.027124 0.010175 -0.772320
v 0.027124 0.010175 -0.297491
v 0.009837 -0.007715 -0.772320
v 0.009837 -0.007715 -0.297491
v -0.010413 0.053217 -0.772320
v -0.010413 0.053217 -0.297491
v -0.027698 0.035328 -0.772320
v -0.027698 0.035328 -0.297491
v -0.027698 0.010175 -0.772320
v -0.027698 0.010175 -0.297491
v -0.010413 -0.007715 -0.772320
v -0.010413 -0.007715 -0.297491
v 0.006974 0.046467 -0.772320
v 0.006974 0.046467 -0.297491
v 0.020374 0.032600 -0.772320
v 0.020374 0.032600 -0.297491
v 0.020374 0.012902 -0.772320
v 0.020374 0.012902 -0.297491
v 0.006974 -0.000965 -0.772320
v 0.006974 -0.000965 -0.297491
v -0.007548 0.046467 -0.772320
v -0.007548 0.046467 -0.297491
v -0.020948 0.032600 -0.772320
v -0.020948 0.032600 -0.297491
v -0.020948 0.012902 -0.772320
v -0.020948 0.012902 -0.297491
v -0.007548 -0.000965 -0.772320
v -0.007548 -0.000965 -0.297491
v 0.025583 0.049012 -0.401996
v 0.025583 0.049012 -0.310754
v 0.030421 0.047007 -0.401996
v 0.030421 0.047007 -0.310754
v 0.032424 0.042170 -0.401996
v 0.032424 0.042170 -0.310754
v 0.030421 0.037332 -0.401996
v 0.030421 0.037332 -0.310754
v 0.025583 0.035328 -0.401996
v 0.025583 0.035328 -0.310754
v 0.020745 0.037332 -0.401996
v 0.020745 0.037332 -0.310754
v 0.018741 0.042170 -0.401996
v 0.018741 0.042170 -0.310754
v 0.020745 0.047007 -0.401996
v 0.020745 0.047007 -0.310754
v -0.026158 0.049012 -0.401996
v -0.026158 0.049012 -0.310754
v -0.030995 0.047007 -0.401996
v -0.030995 0.047007 -0.310754
v -0.032999 0.042170 -0.401996
v -0.032999 0.042170 -0.310754
v -0.030995 0.037332 -0.401996
v -0.030995 0.037332 -0.310754
v -0.026158 0.035328 -0.401996
v -0.026158 0.035328 -0.310754
v -0.021319 0.037332 -0.401996
v -0.021319 0.037332 -0.310754
v -0.019316 0.042170 -0.401996
v -0.019316 0.042170 -0.310754
v -0.021319 0.047007 -0.401996
v -0.021319 0.047007 -0.310754
v -0.030029 0.008325 -0.378298
v 0.029823 0.008325 -0.378298
v -0.030029 0.006322 -0.383135
v 0.029823 0.006322 -0.383135
v -0.030029 0.001485 -0.385140
v 0.029823 0.001485 -0.385140
v -0.030029 -0.003353 -0.383135
v 0.029823 -0.003353 -0.383135
v -0.030029 -0.005357 -0.378298
v 0.029823 -0.005357 -0.378298
v -0.030029 -0.003353 -0.373460
v 0.029823 -0.003353 -0.373460
v -0.030029 0.001485 -0.371457
v 0.029823 0.001485 -0.371457
v -0.030029 0.006322 -0.373460
v 0.029823 0.006322 -0.373460
v -0.030029 0.008325 -0.326558
v 0.029823 0.008325 -0.326558
v -0.030029 0.006322 -0.321720
v 0.029823 0.006322 -0.321720
v -0.030029 0.001485 -0.319716
v 0.029823 0.001485 -0.319716
v -0.030029 -0.003353 -0.321720
v 0.029823 -0.003353 -0.321720
v -0.030029 -0.005357 -0.326558
v 0.029823 -0.005357 -0.326558
v -0.030029 -0.003353 -0.331395
v 0.029823 -0.003353 -0.331395
v -0.030029 0.001485 -0.333400
v 0.029823 0.001485 -0.333400
v -0.030029 0.006322 -0.331395
v 0.029823 0.006322 -0.331395
v 0.027124 0.010109 -0.416158
v 0.027124 0.010109 -0.299457
v 0.009837 -0.007135 -0.416158
v 0.009837 -0.007135 -0.299457
v 0.027124 -0.005639 -0.309131
v 0.027124 -0.005639 -0.406485
v 0.009837 -0.016767 -0.309131
v 0.009837 -0.016767 -0.406485
v -0.027698 0.010109 -0.416158
v -0.027698 0.010109 -0.299457
v -0.010413 -0.007135 -0.416158
v -0.010413 -0.007135 -0.299457
v -0.027698 -0.005639 -0.309131
v -0.027698 -0.005639 -0.406485
v -0.010413 -0.016767 -0.309131
v -0.010413 -0.016767 -0.406485
v 0.020658 -0.007715 0.055935
v 0.027266 -0.054167 -0.140165
v 0.027266 -0.007715 -0.140165
v 0.021997 -0.054167 -0.281867
v 0.020658 -0.007715 -0.006583
v 0.020658 -0.007715 0.009843
v 0.020658 -0.007715 -0.130465
v 0.021997 -0.085948 -0.143892
v 0.027266 -0.007715 -0.286377
v 0.027266 -0.022307 -0.286377
v 0.027266 -0.007715 -0.297491
v 0.027266 -0.088704 -0.140165
v 0.027266 -0.054167 -0.286377
v 0.021997 -0.022820 -0.143892
v 0.021997 -0.022820 -0.281867
v 0.027266 -0.066701 -0.175149
v 0.027266 -0.054167 -0.235576
v 0.021997 -0.054167 -0.235576
v 0.021997 -0.066701 -0.175149
v 0.021997 -0.022888 -0.200717
v -0.021231 -0.007715 0.055935
v -0.027840 -0.054167 -0.140165
v -0.027840 -0.007715 -0.140165
v -0.022571 -0.054167 -0.281867
v -0.021231 -0.007715 -0.006583
v -0.021231 -0.007715 0.009843
v -0.021231 -0.007715 -0.130465
v -0.022571 -0.085948 -0.143892
v -0.027840 -0.007715 -0.286377
v -0.027840 -0.022307 -0.286377
v -0.027840 -0.007715 -0.297491
v -0.027840 -0.088704 -0.140165
v -0.027840 -0.054167 -0.286377
v -0.022571 -0.022820 -0.143892
v -0.022571 -0.022820 -0.281867
v -0.027840 -0.066701 -0.175149
v -0.027840 -0.054167 -0.235576
v -0.022571 -0.054167 -0.235576
v -0.022571 -0.066701 -0.175149
v -0.022571 -0.022888 -0.200717
v 0.013908 -0.036191 0.055935
v 0.020658 -0.028851 0.055935
v 0.013908 -0.054167 -0.006583
v 0.020658 -0.046803 -0.006583
v 0.020658 -0.028828 0.009843
v 0.013908 -0.036191 0.009843
v 0.013908 -0.054167 -0.124230
v 0.021950 -0.046827 -0.130465
v 0.023243 -0.088704 -0.130465
v 0.013908 -0.088704 -0.124230
v 0.027266 -0.022307 -0.294130
v 0.027266 -0.018946 -0.297491
v -0.021231 -0.028851 0.055935
v -0.014481 -0.036191 0.055935
v -0.021231 -0.046803 -0.006583
v -0.014481 -0.054167 -0.006583
v -0.014481 -0.036191 0.009843
v -0.021231 -0.028828 0.009843
v -0.022525 -0.046827 -0.130465
v -0.014481 -0.054167 -0.124230
v -0.014481 -0.088704 -0.124230
v -0.023817 -0.088704 -0.130465
v -0.027840 -0.018946 -0.297491
v -0.027840 -0.022307 -0.294130
v 0.010400 -0.053217 -0.044026
v 0.010400 -0.092221 -0.050853
v 0.010400 -0.060408 -0.050463
v 0.010400 -0.103945 -0.065052
v 0.010400 -0.103945 -0.109620
v 0.010400 -0.086990 -0.125663
v 0.010400 -0.053217 -0.061521
v 0.010400 -0.090230 -0.054379
v 0.010400 -0.060408 -0.054239
v 0.010400 -0.100043 -0.066138
v 0.010400 -0.100043 -0.108369
v 0.010400 -0.080429 -0.125663
v -0.010974 -0.053217 -0.044026
v -0.010974 -0.092221 -0.050853
v -0.010974 -0.060408 -0.050463
v -0.010974 -0.103945 -0.065052
v -0.010974 -0.103945 -0.109620
v -0.010974 -0.086990 -0.125663
v -0.010974 -0.053217 -0.061521
v -0.010974 -0.090230 -0.054379
v -0.010974 -0.060408 -0.054239
v -0.010974 -0.100043 -0.066138
v -0.010974 -0.100043 -0.108369
v -0.010974 -0.080429 -0.125663
v 0.004872 -0.056391 -0.076517
v 0.004872 -0.051546 -0.076517
v 0.004872 -0.051546 -0.082434
v 0.004872 -0.056391 -0.082434
v 0.004872 -0.084123 -0.083642
v 0.004872 -0.085250 -0.080742
v 0.004872 -0.074712 -0.076722
v 0.004872 -0.074315 -0.080694
v 0.004872 -0.063700 -0.080156
v 0.004872 -0.063588 -0.075588
v 0.002483 -0.093724 -0.087433
v 0.004872 -0.091834 -0.085941
v 0.004872 -0.090650 -0.087908
v 0.002483 -0.092650 -0.089215
v -0.005446 -0.056391 -0.076517
v -0.005446 -0.051546 -0.076517
v -0.005446 -0.051546 -0.082434
v -0.005446 -0.056391 -0.082434
v -0.005446 -0.084123 -0.083642
v -0.005446 -0.085250 -0.080742
v -0.005446 -0.074712 -0.076722
v -0.005446 -0.074315 -0.080694
v -0.005446 -0.063700 -0.080156
v -0.005446 -0.063588 -0.075588
v -0.003058 -0.093724 -0.087433
v -0.005446 -0.091834 -0.085941
v -0.005446 -0.090650 -0.087908
v -0.003058 -0.092650 -0.089215
v 0.022937 -0.134549 -0.144345
v 0.018094 0.006503 -0.149020
v 0.018094 0.006503 -0.276610
v 0.022937 -0.120845 -0.281391
v 0.021314 0.006503 -0.279937
v 0.021314 0.006503 -0.145800
v 0.018094 -0.023992 -0.276610
v 0.018094 -0.023992 -0.149020
v 0.020666 -0.071118 -0.254422
v 0.020666 -0.075867 -0.254422
v 0.020666 -0.085946 -0.254422
v 0.020666 -0.081197 -0.254422
v 0.020666 -0.091276 -0.254422
v 0.020666 -0.096025 -0.254422
v 0.025518 -0.125619 -0.141071
v 0.025518 -0.111259 -0.284665
v 0.021314 -0.117152 -0.145800
v 0.021314 -0.103738 -0.279937
v 0.020666 -0.061039 -0.254422
v 0.020666 -0.065790 -0.254422
v 0.025518 -0.132011 -0.141071
v 0.025518 -0.117651 -0.284665
v -0.023512 -0.134549 -0.144345
v -0.018668 0.006503 -0.149020
v -0.018668 0.006503 -0.276610
v -0.023512 -0.120845 -0.281391
v -0.021888 0.006503 -0.279937
v -0.021888 0.006503 -0.145800
v -0.018668 -0.023992 -0.276610
v -0.018668 -0.023992 -0.149020
v -0.021240 -0.071118 -0.254422
v -0.021240 -0.075867 -0.254422
v -0.021240 -0.085946 -0.254422
v -0.021240 -0.081197 -0.254422
v -0.021240 -0.091276 -0.254422
v -0.021240 -0.096025 -0.254422
v -0.026091 -0.125619 -0.141071
v -0.026091 -0.111259 -0.284665
v -0.021888 -0.117152 -0.145800
v -0.021888 -0.103738 -0.279937
v -0.021240 -0.061039 -0.254422
v -0.021240 -0.065790 -0.254422
v -0.026091 -0.132011 -0.141071
v -0.026091 -0.117651 -0.284665
v 0.023495 -0.071118 -0.281219
v 0.020486 -0.071118 -0.284562
v 0.020486 -0.075867 -0.284562
v 0.023495 -0.075867 -0.281219
v 0.020486 -0.085946 -0.284562
v 0.023495 -0.085946 -0.281219
v 0.023495 -0.081197 -0.281219
v 0.020486 -0.081197 -0.284562
v 0.023495 -0.091276 -0.281219
v 0.020486 -0.091276 -0.284562
v 0.020486 -0.096025 -0.284562
v 0.023495 -0.096025 -0.281219
v 0.023495 -0.061039 -0.281219
v 0.020486 -0.061039 -0.284562
v 0.020486 -0.065790 -0.284562
v 0.023495 -0.065790 -0.281219
v -0.021061 -0.071118 -0.284562
v -0.024069 -0.071118 -0.281219
v -0.024069 -0.075867 -0.281219
v -0.021061 -0.075867 -0.284562
v -0.024069 -0.085946 -0.281219
v -0.021061 -0.085946 -0.284562
v -0.021061 -0.081197 -0.284562
v -0.024069 -0.081197 -0.281219
v -0.021061 -0.091276 -0.284562
v -0.024069 -0.091276 -0.281219
v -0.024069 -0.096025 -0.281219
v -0.021061 -0.096025 -0.284562
v -0.021061 -0.061039 -0.284562
v -0.024069 -0.061039 -0.281219
v -0.024069 -0.065790 -0.281219
v -0.021061 -0.065790 -0.284562
v 0.001724 0.006489 -0.150154
v 0.001724 0.006489 -0.151531
v 0.000583 0.006489 -0.151531
v 0.000583 0.006489 -0.152746
v 0.001710 0.006489 -0.153691
v 0.000975 0.006489 -0.223594
v -0.001968 0.006489 -0.231680
v -0.002002 0.006489 -0.242899
v -0.002542 0.006489 -0.242899
v -0.002542 0.006489 -0.221335
v -0.002628 0.006489 -0.244334
v -0.002542 0.006489 -0.232965
v -0.007530 0.006489 -0.275704
v -0.005598 0.006489 -0.267862
v -0.004136 0.006489 -0.260019
v -0.003147 0.006489 -0.252176
v -0.001228 -0.000636 -0.150154
v -0.001228 -0.000636 -0.151531
v -0.002034 0.000170 -0.151531
v -0.002034 0.000170 -0.152746
v -0.001238 -0.000626 -0.153691
v -0.001758 -0.000107 -0.223594
v -0.003839 0.001975 -0.231680
v -0.003862 0.001998 -0.242899
v -0.004244 0.002380 -0.242899
v -0.004244 0.002380 -0.221335
v -0.004305 0.002441 -0.244334
v -0.004244 0.002380 -0.232965
v -0.007772 0.005908 -0.275704
v -0.006406 0.004541 -0.267862
v -0.005372 0.003507 -0.260019
v -0.004672 0.002808 -0.252176
v -0.008354 -0.003588 -0.150154
v -0.008354 -0.003588 -0.151531
v -0.008354 -0.002448 -0.151531
v -0.008354 -0.002448 -0.152746
v -0.008354 -0.003575 -0.153691
v -0.008354 -0.002839 -0.223594
v -0.008354 0.000104 -0.231680
v -0.008354 0.000138 -0.242899
v -0.008354 0.000678 -0.242899
v -0.008354 0.000678 -0.221335
v -0.008354 0.000764 -0.244334
v -0.008354 0.000678 -0.232965
v -0.008354 0.005666 -0.275704
v -0.008354 0.003734 -0.267862
v -0.008354 0.002272 -0.260019
v -0.008354 0.001283 -0.252176
v -0.015480 -0.000636 -0.150154
v -0.015480 -0.000636 -0.151531
v -0.014673 0.000170 -0.151531
v -0.014673 0.000170 -0.152746
v -0.015471 -0.000626 -0.153691
v -0.014950 -0.000107 -0.223594
v -0.012870 0.001975 -0.231680
v -0.012845 0.001998 -0.242899
v -0.012463 0.002380 -0.242899
v -0.012463 0.002380 -0.221335
v -0.012404 0.002441 -0.244334
v -0.012463 0.002380 -0.232965
v -0.008937 0.005908 -0.275704
v -0.010303 0.004541 -0.267862
v -0.011336 0.003507 -0.260019
v -0.012037 0.002808 -0.252176
v -0.018432 0.006489 -0.150154
v -0.018432 0.006489 -0.151531
v -0.017291 0.006489 -0.151531
v -0.017291 0.006489 -0.152746
v -0.018418 0.006489 -0.153691
v -0.017682 0.006489 -0.223594
v -0.014739 0.006489 -0.231680
v -0.014706 0.006489 -0.242899
v -0.014166 0.006489 -0.242899
v -0.014166 0.006489 -0.221335
v -0.014081 0.006489 -0.244334
v -0.014166 0.006489 -0.232965
v -0.009179 0.006489 -0.275704
v -0.011111 0.006489 -0.267862
v -0.012571 0.006489 -0.260019
v -0.013561 0.006489 -0.252176
v -0.015480 0.013616 -0.150154
v -0.015480 0.013616 -0.151531
v -0.014673 0.012809 -0.151531
v -0.014673 0.012809 -0.152746
v -0.015471 0.013607 -0.153691
v -0.014950 0.013086 -0.223594
v -0.012870 0.011005 -0.231680
v -0.012845 0.010981 -0.242899
v -0.012463 0.010599 -0.242899
v -0.012463 0.010599 -0.221335
v -0.012404 0.010539 -0.244334
v -0.012463 0.010599 -0.232965
v -0.008937 0.007073 -0.275704
v -0.010303 0.008439 -0.267862
v -0.011336 0.009472 -0.260019
v -0.012037 0.010172 -0.252176
v -0.008354 0.016567 -0.150154
v -0.008354 0.016567 -0.151531
v -0.008354 0.015426 -0.151531
v -0.008354 0.015426 -0.152746
v -0.008354 0.016554 -0.153691
v -0.008354 0.015818 -0.223594
v -0.008354 0.012875 -0.231680
v -0.008354 0.012841 -0.242899
v -0.008354 0.012301 -0.242899
v -0.008354 0.012301 -0.221335
v -0.008354 0.012216 -0.244334
v -0.008354 0.012301 -0.232965
v -0.008354 0.007314 -0.275704
v -0.008354 0.009246 -0.267862
v -0.008354 0.010707 -0.260019
v -0.008354 0.011696 -0.252176
v -0.001228 0.013616 -0.150154
v -0.001228 0.013616 -0.151531
v -0.002034 0.012809 -0.151531
v -0.002034 0.012809 -0.152746
v -0.001238 0.013607 -0.153691
v -0.001758 0.013086 -0.223594
v -0.003839 0.011005 -0.231680
v -0.003862 0.010981 -0.242899
v -0.004244 0.010599 -0.242899
v -0.004244 0.010599 -0.221335
v -0.004305 0.010539 -0.244334
v -0.004244 0.010599 -0.232965
v -0.007772 0.007073 -0.275704
v -0.006406 0.008439 -0.267862
v -0.005372 0.009472 -0.260019
v -0.004672 0.010172 -0.252176
v -0.004726 0.002862 -0.149479
v -0.003224 0.006489 -0.149479
v -0.008354 0.001359 -0.149479
v -0.011983 0.002862 -0.149479
v -0.013485 0.006489 -0.149479
v -0.011983 0.010118 -0.149479
v -0.008354 0.011621 -0.149479
v -0.004726 0.010118 -0.149479
v -0.002034 0.000170 -0.149479
v 0.000583 0.006489 -0.149479
v -0.008354 -0.002448 -0.149479
v -0.014673 0.000170 -0.149479
v -0.017291 0.006489 -0.149479
v -0.014673 0.012809 -0.149479
v -0.008354 0.015426 -0.149479
v -0.002034 0.012809 -0.149479
v -0.005850 0.003985 -0.149479
v -0.004813 0.006489 -0.149479
v -0.008354 0.002948 -0.149479
v -0.010858 0.003985 -0.149479
v -0.011895 0.006489 -0.149479
v -0.010858 0.008994 -0.149479
v -0.008354 0.010031 -0.149479
v -0.005850 0.008994 -0.149479
v -0.005172 0.003308 -0.150235
v -0.003854 0.006489 -0.150235
v -0.008354 0.001990 -0.150235
v -0.011536 0.003308 -0.150235
v -0.012855 0.006489 -0.150235
v -0.011536 0.009671 -0.150235
v -0.008354 0.010990 -0.150235
v -0.005172 0.009671 -0.150235
v 0.017848 -0.001573 -0.150154
v 0.017848 -0.001573 -0.151531
v 0.016708 -0.001573 -0.151531
v 0.016708 -0.001573 -0.152746
v 0.017835 -0.001573 -0.153691
v 0.017099 -0.001573 -0.223594
v 0.014156 -0.001573 -0.231680
v 0.014122 -0.001573 -0.242899
v 0.013582 -0.001573 -0.242899
v 0.013582 -0.001573 -0.221335
v 0.013496 -0.001573 -0.244334
v 0.013582 -0.001573 -0.232965
v 0.008594 -0.001573 -0.275704
v 0.010526 -0.001573 -0.267862
v 0.011987 -0.001573 -0.260019
v 0.012978 -0.001573 -0.252176
v 0.014896 -0.008698 -0.150154
v 0.014896 -0.008698 -0.151531
v 0.014090 -0.007892 -0.151531
v 0.014090 -0.007892 -0.152746
v 0.014886 -0.008689 -0.153691
v 0.014367 -0.008169 -0.223594
v 0.012285 -0.006087 -0.231680
v 0.012262 -0.006064 -0.242899
v 0.011880 -0.005682 -0.242899
v 0.011880 -0.005682 -0.221335
v 0.011819 -0.005621 -0.244334
v 0.011880 -0.005682 -0.232965
v 0.008352 -0.002155 -0.275704
v 0.009719 -0.003521 -0.267862
v 0.010753 -0.004555 -0.260019
v 0.011452 -0.005254 -0.252176
v 0.007771 -0.011651 -0.150154
v 0.007771 -0.011651 -0.151531
v 0.007771 -0.010510 -0.151531
v 0.007771 -0.010510 -0.152746
v 0.007771 -0.011637 -0.153691
v 0.007771 -0.010901 -0.223594
v 0.007771 -0.007958 -0.231680
v 0.007771 -0.007925 -0.242899
v 0.007771 -0.007385 -0.242899
v 0.007771 -0.007385 -0.221335
v 0.007771 -0.007298 -0.244334
v 0.007771 -0.007385 -0.232965
v 0.007771 -0.002396 -0.275704
v 0.007771 -0.004328 -0.267862
v 0.007771 -0.005790 -0.260019
v 0.007771 -0.006780 -0.252176
v 0.000644 -0.008698 -0.150154
v 0.000644 -0.008698 -0.151531
v 0.001451 -0.007892 -0.151531
v 0.001451 -0.007892 -0.152746
v 0.000653 -0.008689 -0.153691
v 0.001174 -0.008169 -0.223594
v 0.003255 -0.006087 -0.231680
v 0.003279 -0.006064 -0.242899
v 0.003661 -0.005682 -0.242899
v 0.003661 -0.005682 -0.221335
v 0.003721 -0.005621 -0.244334
v 0.003661 -0.005682 -0.232965
v 0.007187 -0.002155 -0.275704
v 0.005821 -0.003521 -0.267862
v 0.004788 -0.004555 -0.260019
v 0.004088 -0.005254 -0.252176
v -0.002307 -0.001573 -0.150154
v -0.002307 -0.001573 -0.151531
v -0.001166 -0.001573 -0.151531
v -0.001166 -0.001573 -0.152746
v -0.002294 -0.001573 -0.153691
v -0.001558 -0.001573 -0.223594
v 0.001385 -0.001573 -0.231680
v 0.001419 -0.001573 -0.242899
v 0.001959 -0.001573 -0.242899
v 0.001959 -0.001573 -0.221335
v 0.002044 -0.001573 -0.244334
v 0.001959 -0.001573 -0.232965
v 0.006946 -0.001573 -0.275704
v 0.005014 -0.001573 -0.267862
v 0.003553 -0.001573 -0.260019
v 0.002564 -0.001573 -0.252176
v 0.000644 0.005554 -0.150154
v 0.000644 0.005554 -0.151531
v 0.001451 0.004747 -0.151531
v 0.001451 0.004747 -0.152746
v 0.000653 0.005544 -0.153691
v 0.001174 0.005023 -0.223594
v 0.003255 0.002943 -0.231680
v 0.003279 0.002919 -0.242899
v 0.003661 0.002537 -0.242899
v 0.003661 0.002537 -0.221335
v 0.003721 0.002477 -0.244334
v 0.003661 0.002537 -0.232965
v 0.007187 -0.000990 -0.275704
v 0.005821 0.000377 -0.267862
v 0.004788 0.001409 -0.260019
v 0.004088 0.002110 -0.252176
v 0.007771 0.008505 -0.150154
v 0.007771 0.008505 -0.151531
v 0.007771 0.007364 -0.151531
v 0.007771 0.007364 -0.152746
v 0.007771 0.008492 -0.153691
v 0.007771 0.007756 -0.223594
v 0.007771 0.004813 -0.231680
v 0.007771 0.004779 -0.242899
v 0.007771 0.004239 -0.242899
v 0.007771 0.004239 -0.221335
v 0.007771 0.004154 -0.244334
v 0.007771 0.004239 -0.232965
v 0.007771 -0.000748 -0.275704
v 0.007771 0.001184 -0.267862
v 0.007771 0.002645 -0.260019
v 0.007771 0.003634 -0.252176
v 0.014896 0.005554 -0.150154
v 0.014896 0.005554 -0.151531
v 0.014090 0.004747 -0.151531
v 0.014090 0.004747 -0.152746
v 0.014886 0.005544 -0.153691
v 0.014367 0.005023 -0.223594
v 0.012285 0.002943 -0.231680
v 0.012262 0.002919 -0.242899
v 0.011880 0.002537 -0.242899
v 0.011880 0.002537 -0.221335
v 0.011819 0.002477 -0.244334
v 0.011880 0.002537 -0.232965
v 0.008352 -0.000990 -0.275704
v 0.009719 0.000377 -0.267862
v 0.010753 0.001409 -0.260019
v 0.011452 0.002110 -0.252176
v 0.011398 -0.005200 -0.149479
v 0.012901 -0.001573 -0.149479
v 0.007771 -0.006703 -0.149479
v 0.004142 -0.005200 -0.149479
v 0.002639 -0.001573 -0.149479
v 0.004142 0.002056 -0.149479
v 0.007771 0.003559 -0.149479
v 0.011398 0.002056 -0.149479
v 0.014090 -0.007892 -0.149479
v 0.016708 -0.001573 -0.149479
v 0.007771 -0.010510 -0.149479
v 0.001451 -0.007892 -0.149479
v -0.001166 -0.001573 -0.149479
v 0.001451 0.004747 -0.149479
v 0.007771 0.007364 -0.149479
v 0.014090 0.004747 -0.149479
v 0.010275 -0.004077 -0.149479
v 0.011312 -0.001573 -0.149479
v 0.007771 -0.005114 -0.149479
v 0.005266 -0.004077 -0.149479
v 0.004228 -0.001573 -0.149479
v 0.005266 0.000932 -0.149479
v 0.007771 0.001968 -0.149479
v 0.010275 0.000932 -0.149479
v 0.010953 -0.004755 -0.150235
v 0.012270 -0.001573 -0.150235
v 0.007771 -0.006072 -0.150235
v 0.004589 -0.004755 -0.150235
v 0.003270 -0.001573 -0.150235
v 0.004589 0.001609 -0.150235
v 0.007771 0.002928 -0.150235
v 0.010953 0.001609 -0.150235
v 0.001724 -0.013262 -0.150154
v 0.001724 -0.013262 -0.151531
v 0.000583 -0.013262 -0.151531
v 0.000583 -0.013262 -0.152746
v 0.001710 -0.013262 -0.153691
v 0.000975 -0.013262 -0.223594
v -0.001968 -0.013262 -0.231680
v -0.002002 -0.013262 -0.242899
v -0.002542 -0.013262 -0.242899
v -0.002542 -0.013262 -0.221335
v -0.002628 -0.013262 -0.244334
v -0.002542 -0.013262 -0.232965
v -0.007530 -0.013262 -0.275704
v -0.005598 -0.013262 -0.267862
v -0.004136 -0.013262 -0.260019
v -0.003147 -0.013262 -0.252176
v -0.001228 -0.020389 -0.150154
v -0.001228 -0.020389 -0.151531
v -0.002034 -0.019582 -0.151531
v -0.002034 -0.019582 -0.152746
v -0.001238 -0.020380 -0.153691
v -0.001758 -0.019859 -0.223594
v -0.003839 -0.017778 -0.231680
v -0.003862 -0.017754 -0.242899
v -0.004244 -0.017372 -0.242899
v -0.004244 -0.017372 -0.221335
v -0.004305 -0.017312 -0.244334
v -0.004244 -0.017372 -0.232965
v -0.007772 -0.013846 -0.275704
v -0.006406 -0.015212 -0.267862
v -0.005372 -0.016245 -0.260019
v -0.004672 -0.016945 -0.252176
v -0.008354 -0.023340 -0.150154
v -0.008354 -0.023340 -0.151531
v -0.008354 -0.022199 -0.151531
v -0.008354 -0.022199 -0.152746
v -0.008354 -0.023327 -0.153691
v -0.008354 -0.022591 -0.223594
v -0.008354 -0.019648 -0.231680
v -0.008354 -0.019614 -0.242899
v -0.008354 -0.019074 -0.242899
v -0.008354 -0.019074 -0.221335
v -0.008354 -0.018989 -0.244334
v -0.008354 -0.019074 -0.232965
v -0.008354 -0.014087 -0.275704
v -0.008354 -0.016019 -0.267862
v -0.008354 -0.017480 -0.260019
v -0.008354 -0.018469 -0.252176
v -0.015480 -0.020389 -0.150154
v -0.015480 -0.020389 -0.151531
v -0.014673 -0.019582 -0.151531
v -0.014673 -0.019582 -0.152746
v -0.015471 -0.020380 -0.153691
v -0.014950 -0.019859 -0.223594
v -0.012870 -0.017778 -0.231680
v -0.012845 -0.017754 -0.242899
v -0.012463 -0.017372 -0.242899
v -0.012463 -0.017372 -0.221335
v -0.012404 -0.017312 -0.244334
v -0.012463 -0.017372 -0.232965
v -0.008937 -0.013846 -0.275704
v -0.010303 -0.015212 -0.267862
v -0.011336 -0.016245 -0.260019
v -0.012037 -0.016945 -0.252176
v -0.018432 -0.013262 -0.150154
v -0.018432 -0.013262 -0.151531
v -0.017291 -0.013262 -0.151531
v -0.017291 -0.013262 -0.152746
v -0.018418 -0.013262 -0.153691
v -0.017682 -0.013262 -0.223594
v -0.014739 -0.013262 -0.231680
v -0.014706 -0.013262 -0.242899
v -0.014166 -0.013262 -0.242899
v -0.014166 -0.013262 -0.221335
v -0.014081 -0.013262 -0.244334
v -0.014166 -0.013262 -0.232965
v -0.009179 -0.013262 -0.275704
v -0.011111 -0.013262 -0.267862
v -0.012571 -0.013262 -0.260019
v -0.013561 -0.013262 -0.252176
v -0.015480 -0.006137 -0.150154
v -0.015480 -0.006137 -0.151531
v -0.014673 -0.006943 -0.151531
v -0.014673 -0.006943 -0.152746
v -0.015471 -0.006147 -0.153691
v -0.014950 -0.006666 -0.223594
v -0.012870 -0.008748 -0.231680
v -0.012845 -0.008771 -0.242899
v -0.012463 -0.009153 -0.242899
v -0.012463 -0.009153 -0.221335
v -0.012404 -0.009214 -0.244334
v -0.012463 -0.009153 -0.232965
v -0.008937 -0.012679 -0.275704
v -0.010303 -0.011313 -0.267862
v -0.011336 -0.010280 -0.260019
v -0.012037 -0.009581 -0.252176
v -0.008354 -0.003185 -0.150154
v -0.008354 -0.003185 -0.151531
v -0.008354 -0.004325 -0.151531
v -0.008354 -0.004325 -0.152746
v -0.008354 -0.003198 -0.153691
v -0.008354 -0.003934 -0.223594
v -0.008354 -0.006877 -0.231680
v -0.008354 -0.006911 -0.242899
v -0.008354 -0.007451 -0.242899
v -0.008354 -0.007451 -0.221335
v -0.008354 -0.007536 -0.244334
v -0.008354 -0.007451 -0.232965
v -0.008354 -0.012439 -0.275704
v -0.008354 -0.010507 -0.267862
v -0.008354 -0.009045 -0.260019
v -0.008354 -0.008055 -0.252176
v -0.001228 -0.006137 -0.150154
v -0.001228 -0.006137 -0.151531
v -0.002034 -0.006943 -0.151531
v -0.002034 -0.006943 -0.152746
v -0.001238 -0.006147 -0.153691
v -0.001758 -0.006666 -0.223594
v -0.003839 -0.008748 -0.231680
v -0.003862 -0.008771 -0.242899
v -0.004244 -0.009153 -0.242899
v -0.004244 -0.009153 -0.221335
v -0.004305 -0.009214 -0.244334
v -0.004244 -0.009153 -0.232965
v -0.007772 -0.012679 -0.275704
v -0.006406 -0.011313 -0.267862
v -0.005372 -0.010280 -0.260019
v -0.004672 -0.009581 -0.252176
v -0.004726 -0.016890 -0.149479
v -0.003224 -0.013262 -0.149479
v -0.008354 -0.018394 -0.149479
v -0.011983 -0.016890 -0.149479
v -0.013485 -0.013262 -0.149479
v -0.011983 -0.009635 -0.149479
v -0.008354 -0.008132 -0.149479
v -0.004726 -0.009635 -0.149479
v -0.002034 -0.019582 -0.149479
v 0.000583 -0.013262 -0.149479
v -0.008354 -0.022199 -0.149479
v -0.014673 -0.019582 -0.149479
v -0.017291 -0.013262 -0.149479
v -0.014673 -0.006943 -0.149479
v -0.008354 -0.004325 -0.149479
v -0.002034 -0.006943 -0.149479
v -0.005850 -0.015767 -0.149479
v -0.004813 -0.013262 -0.149479
v -0.008354 -0.016803 -0.149479
v -0.010858 -0.015767 -0.149479
v -0.011895 -0.013262 -0.149479
v -0.010858 -0.010758 -0.149479
v -0.008354 -0.009721 -0.149479
v -0.005850 -0.010758 -0.149479
v -0.005172 -0.016444 -0.150235
v -0.003854 -0.013262 -0.150235
v -0.008354 -0.017763 -0.150235
v -0.011536 -0.016444 -0.150235
v -0.012855 -0.013262 -0.150235
v -0.011536 -0.010080 -0.150235
v -0.008354 -0.008763 -0.150235
v -0.005172 -0.010080 -0.150235
v 0.011854 -0.028872 0.191300
v 0.011854 0.038301 0.191300
v 0.011854 -0.028872 0.055935
v 0.011854 0.038301 0.055935
v 0.011854 -0.028872 0.307395
v 0.011854 0.038301 0.307395
v 0.011854 -0.121665 0.307395
v 0.023300 0.050891 0.307395
v 0.023300 -0.132928 0.307395
v 0.023300 -0.086974 0.307395
v 0.023300 -0.041018 0.307395
v 0.023300 0.004936 0.307395
v 0.011854 0.038301 0.287077
v 0.011854 -0.028872 0.287077
v 0.011854 -0.121665 0.287077
v 0.011854 -0.075269 0.307395
v 0.011854 -0.075269 0.287077
v -0.012428 -0.028872 0.191300
v -0.012428 0.038301 0.191300
v -0.012428 -0.028872 0.055935
v -0.012428 0.038301 0.055935
v -0.012428 -0.028872 0.307395
v -0.012428 0.038301 0.307395
v -0.012428 -0.121665 0.307395
v -0.023873 0.050891 0.307395
v -0.023873 -0.132928 0.307395
v -0.023873 -0.086974 0.307395
v -0.023873 -0.041018 0.307395
v -0.023873 0.004936 0.307395
v -0.012428 0.038301 0.287077
v -0.012428 -0.028872 0.287077
v -0.012428 -0.121665 0.287077
v -0.012428 -0.075269 0.307395
v -0.012428 -0.075269 0.287077
v 0.016550 0.044180 0.332464
v 0.023300 0.050891 0.326423
v 0.016550 -0.126218 0.332464
v 0.023300 -0.132928 0.326423
v 0.023300 -0.086974 0.321428
v 0.016550 -0.086974 0.328200
v 0.023300 -0.041018 0.317683
v 0.016550 -0.041018 0.324455
v 0.016550 0.004936 0.328200
v 0.023300 0.004936 0.321428
v 0.011854 -0.075269 0.198050
v 0.011854 -0.068519 0.191300
v 0.011854 -0.070496 0.196073
v 0.011854 -0.020268 0.159239
v 0.011854 -0.013518 0.165989
v 0.011854 -0.022440 0.172380
v 0.011854 -0.013518 0.120359
v 0.011854 -0.020268 0.127109
v 0.011854 -0.021161 0.113669
v 0.011854 0.025118 0.127109
v 0.011854 0.018368 0.120359
v 0.011854 0.026471 0.113747
v 0.011854 0.018368 0.165989
v 0.011854 0.025118 0.159239
v 0.011854 0.028237 0.171975
v 0.011854 -0.001034 0.201215
v 0.011854 -0.007784 0.207965
v 0.011854 -0.013893 0.198343
v 0.011854 0.017212 0.207965
v 0.011854 0.010463 0.201215
v 0.011854 0.023321 0.198343
v 0.011854 0.010463 0.277163
v 0.011854 0.017212 0.270413
v 0.011854 0.023321 0.280035
v 0.011854 -0.007784 0.270413
v 0.011854 -0.001034 0.277163
v 0.011854 -0.013893 0.280035
v 0.011854 -0.038788 0.207965
v 0.011854 -0.045538 0.201215
v 0.011854 -0.034015 0.196443
v 0.011854 -0.045538 0.258854
v 0.011854 -0.038788 0.252104
v 0.011854 -0.036550 0.265222
v 0.011854 -0.065354 0.252104
v 0.011854 -0.058604 0.258854
v 0.011854 -0.067592 0.265222
v 0.011854 -0.058604 0.201215
v 0.011854 -0.065354 0.207965
v 0.011854 -0.070127 0.196443
v -0.023873 0.050891 0.326423
v -0.017123 0.044180 0.332464
v -0.017123 -0.126218 0.332464
v -0.023873 -0.132928 0.326423
v -0.017123 -0.086974 0.328200
v -0.023873 -0.086974 0.321428
v -0.017123 -0.041018 0.324455
v -0.023873 -0.041018 0.317683
v -0.023873 0.004936 0.321428
v -0.017123 0.004936 0.328200
v -0.012428 -0.068519 0.191300
v -0.012428 -0.075269 0.198050
v -0.012428 -0.070496 0.196073
v -0.012428 -0.013518 0.165989
v -0.012428 -0.020268 0.159239
v -0.012428 -0.022440 0.172380
v -0.012428 -0.020268 0.127109
v -0.012428 -0.013518 0.120359
v -0.012428 -0.021161 0.113669
v -0.012428 0.018368 0.120359
v -0.012428 0.025118 0.127109
v -0.012428 0.026471 0.113747
v -0.012428 0.025118 0.159239
v -0.012428 0.018368 0.165989
v -0.012428 0.028237 0.171975
v -0.012428 -0.007784 0.207965
v -0.012428 -0.001034 0.201215
v -0.012428 -0.013893 0.198343
v -0.012428 0.010463 0.201215
v -0.012428 0.017212 0.207965
v -0.012428 0.023321 0.198343
v -0.012428 0.017212 0.270413
v -0.012428 0.010463 0.277163
v -0.012428 0.023321 0.280035
v -0.012428 -0.001034 0.277163
v -0.012428 -0.007784 0.270413
v -0.012428 -0.013893 0.280035
v -0.012428 -0.045538 0.201215
v -0.012428 -0.038788 0.207965
v -0.012428 -0.034015 0.196443
v -0.012428 -0.038788 0.252104
v -0.012428 -0.045538 0.258854
v -0.012428 -0.036550 0.265222
v -0.012428 -0.058604 0.258854
v -0.012428 -0.065354 0.252104
v -0.012428 -0.067592 0.265222
v -0.012428 -0.065354 0.207965
v -0.012428 -0.058604 0.201215
v -0.012428 -0.070127 0.196443
v -0.000288 0.049607 0.277039
v 0.027391 0.016327 0.277039
v -0.000288 0.049607 0.082898
v 0.027391 0.016327 0.082898
v 0.027391 0.031034 0.277039
v 0.018718 0.046454 0.277039
v 0.018718 0.046454 0.082898
v 0.027391 0.031034 0.082898
v 0.027391 -0.027258 0.191097
v 0.027391 -0.027258 0.168840
v 0.027391 -0.002080 0.198744
v 0.027391 0.009210 0.234330
v 0.027391 0.009210 0.125607
v 0.027391 -0.002080 0.161193
v -0.027967 0.016327 0.277039
v -0.027967 0.016327 0.082898
v -0.027967 0.031034 0.277039
v -0.019292 0.046454 0.277039
v -0.019292 0.046454 0.082898
v -0.027967 0.031034 0.082898
v -0.027967 -0.027258 0.191097
v -0.027967 -0.027258 0.168840
v -0.027967 -0.002080 0.198744
v -0.027967 0.009210 0.234330
v -0.027967 0.009210 0.125607
v -0.027967 -0.002080 0.161193
v -0.000288 0.042764 0.277039
v 0.020642 0.016327 0.277039
v -0.000288 0.042764 0.082898
v 0.020642 0.016327 0.082898
v 0.020642 0.029265 0.277039
v 0.014421 0.040325 0.277039
v 0.014421 0.040325 0.082898
v 0.020642 0.029265 0.082898
v 0.020642 -0.027258 0.191097
v 0.020642 -0.027258 0.168840
v 0.020642 -0.002080 0.198744
v 0.020642 0.009210 0.234330
v 0.020642 0.009210 0.125607
v 0.020642 -0.002080 0.161193
v -0.021217 0.016327 0.277039
v -0.021217 0.016327 0.082898
v -0.021217 0.029265 0.277039
v -0.014994 0.040325 0.277039
v -0.014994 0.040325 0.082898
v -0.021217 0.029265 0.082898
v -0.021217 -0.027258 0.191097
v -0.021217 -0.027258 0.168840
v -0.021217 -0.002080 0.198744
v -0.021217 0.009210 0.234330
v -0.021217 0.009210 0.125607
v -0.021217 -0.002080 0.161193
v 0.028875 -0.012290 0.179969
v 0.028875 -0.013978 0.175897
v 0.028875 -0.018049 0.174209
v 0.028875 -0.022121 0.175897
v 0.028875 -0.023807 0.179969
v 0.028875 -0.022121 0.184040
v 0.028875 -0.018049 0.185728
v 0.028875 -0.013978 0.184040
v -0.000288 -0.012290 0.179969
v -0.000288 -0.013978 0.175897
v -0.000288 -0.018049 0.174209
v -0.000288 -0.022121 0.175897
v -0.000288 -0.023807 0.179969
v -0.000288 -0.022121 0.184040
v -0.000288 -0.018049 0.185728
v -0.000288 -0.013978 0.184040
v -0.029450 -0.012290 0.179969
v -0.029450 -0.013978 0.175897
v -0.029450 -0.018049 0.174209
v -0.029450 -0.022121 0.175897
v -0.029450 -0.023807 0.179969
v -0.029450 -0.022121 0.184040
v -0.029450 -0.018049 0.185728
v -0.029450 -0.013978 0.184040
v -0.021356 0.005952 -0.290696
v -0.021356 0.039228 -0.290696
v 0.022068 0.005952 -0.106874
v 0.015545 0.039228 -0.106874
v 0.022068 0.005952 -0.290696
v 0.015545 0.039228 -0.290696
v -0.021356 0.027763 -0.290696
v 0.022068 0.027763 -0.106874
v 0.022068 0.005952 -0.235957
v 0.015545 0.039228 -0.241504
v 0.022068 0.027763 -0.290696
v 0.022068 0.027763 -0.235957
v 0.022077 0.024336 -0.278745
v 0.022073 0.017902 -0.285181
v 0.022140 0.024336 -0.247906
v 0.022075 0.011467 -0.247906
v 0.022113 0.017901 -0.241472
v 0.022079 0.011467 -0.278745
v 0.018718 0.011478 -0.247902
v 0.018756 0.017913 -0.241468
v 0.018719 0.024347 -0.278741
v 0.018715 0.017913 -0.285177
v 0.018783 0.024347 -0.247902
v 0.018722 0.011478 -0.278741
v 0.026978 0.027282 -0.279758
v 0.037799 0.027282 -0.269033
v 0.026978 0.035297 -0.279758
v 0.037799 0.035297 -0.269033
v 0.016112 0.027282 -0.279758
v 0.016112 0.035297 -0.279758
v 0.033855 0.027282 -0.269033
v 0.033855 0.035297 -0.269033
v 0.029192 0.027282 -0.283808
v 0.037799 0.027282 -0.273083
v 0.029192 0.035297 -0.283808
v 0.037799 0.035297 -0.273083
v 0.016112 0.027282 -0.283808
v 0.016112 0.035297 -0.283808
v 0.036069 0.027282 -0.273083
v 0.036069 0.035297 -0.273083
v 0.035984 0.037218 -0.271188
v 0.062215 0.037218 -0.271188
v 0.035984 0.035482 -0.275380
v 0.062215 0.035482 -0.275380
v 0.035984 0.031289 -0.277116
v 0.062215 0.031289 -0.277116
v 0.035984 0.027097 -0.275380
v 0.062215 0.027097 -0.275380
v 0.035984 0.025361 -0.271188
v 0.062215 0.025361 -0.271188
v 0.035984 0.027097 -0.266995
v 0.062215 0.027097 -0.266995
v 0.035984 0.031289 -0.265259
v 0.062215 0.031289 -0.265259
v 0.035984 0.035482 -0.266995
v 0.062215 0.035482 -0.266995
v 0.017969 -0.182177 0.000085
v 0.017969 -0.168487 -0.006823
v 0.012645 -0.187985 -0.012591
v 0.012645 -0.180319 -0.016461
v -0.018542 -0.182177 0.000085
v -0.018542 -0.168487 -0.006823
v -0.013221 -0.187985 -0.012591
v -0.013221 -0.180319 -0.016461
v 0.017969 -0.164782 0.045874
v 0.011219 -0.161904 0.052321
v 0.011219 -0.053733 -0.004471
v 0.017969 -0.053733 -0.010975
v 0.011219 -0.187732 -0.005524
v 0.017969 -0.184869 0.000887
v 0.017969 -0.053733 -0.046051
v 0.011219 -0.053733 -0.052516
v 0.011219 -0.094622 -0.052516
v 0.017969 -0.091819 -0.046063
v 0.017969 -0.076579 -0.010966
v 0.011219 -0.073759 -0.004471
v -0.011792 -0.161904 0.052321
v -0.018542 -0.164782 0.045874
v -0.018542 -0.053733 -0.010975
v -0.011792 -0.053733 -0.004471
v -0.018542 -0.184869 0.000887
v -0.011792 -0.187732 -0.005524
v -0.011792 -0.053733 -0.052516
v -0.018542 -0.053733 -0.046051
v -0.018542 -0.091819 -0.046063
v -0.011792 -0.094622 -0.052516
v -0.011792 -0.073759 -0.004471
v -0.018542 -0.076579 -0.010966
v -0.017827 0.084132 -0.065737
v 0.014648 0.084132 -0.065737
v -0.017827 0.081809 -0.071349
v 0.014648 0.081809 -0.071349
v -0.017827 0.076197 -0.073672
v 0.014648 0.076197 -0.073672
v -0.017827 0.070586 -0.071349
v 0.014648 0.070586 -0.071349
v -0.017827 0.068261 -0.065737
v 0.014648 0.068261 -0.065737
v -0.017827 0.070586 -0.060126
v 0.014648 0.070586 -0.060126
v -0.017827 0.076197 -0.057802
v 0.014648 0.076197 -0.057802
v -0.017827 0.081809 -0.060126
v 0.014648 0.081809 -0.060126
v -0.003903 0.133804 -0.061609
v -0.003903 0.133804 -0.069865
v -0.005400 0.130190 -0.061609
v -0.005400 0.130190 -0.069865
v -0.003903 0.126575 -0.061609
v -0.003903 0.126575 -0.069865
v 0.003328 0.126575 -0.061609
v 0.003328 0.126575 -0.069865
v 0.004825 0.130190 -0.061609
v 0.004825 0.130190 -0.069865
v 0.003328 0.133804 -0.061609
v 0.003328 0.133804 -0.069865
v -0.006276 0.136179 -0.061609
v -0.006276 0.136179 -0.069865
v -0.008756 0.130190 -0.061609
v -0.008756 0.130190 -0.069865
v -0.006276 0.124200 -0.061609
v -0.006276 0.124201 -0.069865
v -0.006276 0.076197 -0.061609
v -0.006276 0.076197 -0.069865
v 0.005701 0.124200 -0.061609
v 0.005701 0.124201 -0.069865
v 0.008182 0.130190 -0.061609
v 0.008182 0.130190 -0.069865
v 0.005701 0.136179 -0.061609
v 0.005701 0.136179 -0.069865
v 0.005701 0.076197 -0.061609
v 0.005701 0.076197 -0.069865
v -0.017827 0.087916 -0.065737
v -0.017827 0.084483 -0.074025
v -0.017827 0.076197 -0.077456
v -0.017827 0.067910 -0.074025
v -0.017827 0.064479 -0.065737
v -0.017827 0.067910 -0.057451
v -0.017827 0.076197 -0.054019
v -0.017827 0.084483 -0.057451
v -0.027170 0.086187 -0.065737
v -0.027170 0.083261 -0.072801
v -0.027170 0.076197 -0.075727
v -0.027170 0.069134 -0.072801
v -0.027170 0.066207 -0.065737
v -0.027170 0.069134 -0.058674
v -0.027170 0.076197 -0.055747
v -0.027170 0.083261 -0.058674
v -0.000288 0.125650 -0.061609
v -0.000288 0.125650 -0.069865
v -0.025048 0.076197 -0.077456
v -0.025048 0.084483 -0.074025
v -0.025048 0.084483 -0.057451
v -0.025048 0.076197 -0.054019
v -0.025048 0.067910 -0.057451
v -0.025048 0.064479 -0.065737
v -0.025048 0.067910 -0.074025
v -0.025048 0.087916 -0.065737
v -0.015138 0.086787 -0.065737
v 0.013858 0.086787 -0.065737
v -0.007133 0.068161 -0.068761
v -0.015138 0.083685 -0.073225
v 0.013858 0.083685 -0.073225
v 0.006560 0.068161 -0.068761
v -0.015138 0.076197 -0.076328
v 0.013858 0.076197 -0.076328
v 0.013858 0.056682 -0.055148
v -0.015138 0.056682 -0.055148
v 0.013858 0.056682 -0.076328
v -0.015138 0.056682 -0.076328
v -0.015138 0.076197 -0.055148
v 0.013858 0.076197 -0.055148
v -0.015138 0.083685 -0.058248
v 0.013858 0.083685 -0.058248
v -0.007133 0.086787 -0.065737
v 0.006560 0.085535 -0.068761
v 0.006560 0.086787 -0.065737
v -0.007133 0.085535 -0.068761
v -0.007133 0.068161 -0.055148
v 0.006560 0.076197 -0.055148
v -0.007133 0.076197 -0.055148
v 0.006560 0.068161 -0.055148
v -0.007133 0.083685 -0.058248
v 0.006560 0.083685 -0.058248
v -0.000288 0.135302 -0.745069
v -0.000288 0.135302 -0.752914
v -0.003903 0.133804 -0.745069
v -0.003903 0.133804 -0.752914
v -0.005400 0.130190 -0.745069
v -0.005400 0.130190 -0.752914
v -0.003903 0.126575 -0.745069
v -0.003903 0.126575 -0.752914
v 0.003328 0.126575 -0.745069
v 0.003328 0.126575 -0.752914
v 0.004825 0.130190 -0.745069
v 0.004825 0.130190 -0.752914
v 0.003328 0.133804 -0.745069
v 0.003328 0.133804 -0.752914
v -0.000288 0.138658 -0.745069
v -0.006276 0.136179 -0.745069
v -0.006276 0.136179 -0.752914
v -0.000288 0.138658 -0.752914
v -0.008756 0.130190 -0.745069
v -0.008756 0.130190 -0.752914
v -0.006276 0.124200 -0.745069
v -0.006276 0.124201 -0.752914
v -0.006276 0.078004 -0.745069
v -0.006276 0.078004 -0.752914
v 0.005701 0.124200 -0.745069
v 0.005701 0.124201 -0.752914
v 0.008182 0.130190 -0.745069
v 0.008182 0.130190 -0.752914
v 0.005701 0.136179 -0.745069
v 0.005701 0.136179 -0.752914
v 0.005701 0.078004 -0.745069
v 0.005701 0.078004 -0.752914
v 0.001341 0.125650 -0.745069
v -0.001914 0.125650 -0.745069
v -0.001914 0.125650 -0.752914
v 0.001341 0.125650 -0.752914
v 0.001341 0.130190 -0.745069
v -0.001914 0.130190 -0.745069
v -0.001914 0.130190 -0.752914
v 0.001341 0.130190 -0.752914
v -0.017480 0.086473 -0.748991
v 0.016906 0.086473 -0.748991
v -0.017480 0.083993 -0.754979
v 0.016906 0.083993 -0.754979
v -0.017480 0.078004 -0.757461
v 0.016906 0.078004 -0.757461
v -0.017480 0.072016 -0.754979
v 0.016906 0.072016 -0.754979
v -0.017480 0.069534 -0.748991
v 0.016906 0.069534 -0.748991
v -0.017480 0.072016 -0.743002
v 0.016906 0.072016 -0.743002
v -0.017480 0.078004 -0.740522
v 0.016906 0.078004 -0.740522
v -0.017480 0.083993 -0.743002
v 0.016906 0.083993 -0.743002
v -0.015105 0.059801 -0.736169
v -0.015105 0.059801 -0.760470
v -0.007449 0.068947 -0.752846
v 0.013827 0.059801 -0.736169
v 0.013827 0.059801 -0.760470
v 0.006876 0.068947 -0.752846
v -0.015105 0.086787 -0.760470
v 0.013827 0.086787 -0.760470
v -0.007449 0.086787 -0.752846
v 0.006876 0.086787 -0.752846
v 0.006876 0.068947 -0.736169
v -0.007449 0.068947 -0.736169
v -0.015105 0.078651 -0.736169
v -0.015105 0.086787 -0.744306
v 0.013827 0.086787 -0.744306
v 0.013827 0.078651 -0.736169
v -0.007449 0.086787 -0.744306
v -0.007449 0.078651 -0.736169
v 0.006876 0.078651 -0.736169
v 0.006876 0.086787 -0.744306
v -0.027698 0.012627 -0.772320
v -0.034448 0.012627 -0.772320
v -0.027698 0.012627 -0.622566
v -0.037823 0.009252 -0.622566
v -0.034448 0.012627 -0.622566
v -0.027698 0.032877 -0.772320
v -0.034448 0.032877 -0.772320
v -0.027698 0.032877 -0.622566
v -0.037823 0.036252 -0.622566
v -0.034448 0.032877 -0.622566
v -0.041198 0.012627 -0.772320
v -0.037823 0.009252 -0.772320
v -0.041198 0.012627 -0.622566
v -0.041198 0.032877 -0.772320
v -0.037823 0.036252 -0.772320
v -0.041198 0.032877 -0.622566
v 0.027124 0.012627 -0.622566
v 0.033874 0.012627 -0.622566
v 0.027124 0.012627 -0.772320
v 0.037249 0.009252 -0.772320
v 0.033874 0.012627 -0.772320
v 0.027124 0.032877 -0.622566
v 0.033874 0.032877 -0.622566
v 0.027124 0.032877 -0.772320
v 0.037249 0.036252 -0.772320
v 0.033874 0.032877 -0.772320
v 0.040624 0.012627 -0.622566
v 0.037249 0.009252 -0.622566
v 0.040624 0.012627 -0.772320
v 0.040624 0.032877 -0.622566
v 0.037249 0.036252 -0.622566
v 0.040624 0.032877 -0.772320
g Body
usemtl M_PCL_Flat_Black
f 111 116 8 3
f 113 114 6 5
f 119 11 9 117
f 1 2 3
f 4 5 6
f 7 8 9
f 10 11 12
f 6 2 1 4
f 119 120 12 11
f 8 116 117 9
f 10 7 9 11
f 110 2 6 114
f 120 113 5 12
f 7 1 3 8
f 12 5 4 10
f 4 1 7 10
f 24 38 26 18
f 20 30 32 21
f 21 32 34 22
f 22 34 35 23
f 35 36 37 38 24 23
f 18 26 28 19
f 19 28 30 20
f 42 44 15 14
f 16 46 48 17
f 17 48 39 13
f 15 44 46 16
f 40 47 45 43 41
f 28 26 25 27
f 30 28 27 29
f 32 30 29 31
f 34 32 31 33
f 35 34 33 36
f 26 38 37 25
f 44 42 41 43
f 46 44 43 45
f 48 46 45 47
f 39 48 47 40
f 27 25 37 36 33 31 29
f 16 17 13 14 15
f 109 111 110
f 112 114 113
f 115 117 116
f 118 120 119
f 114 112 109 110
f 118 119 117 115
f 115 116 111 109
f 120 118 112 113
f 112 118 115 109
f 132 126 134 146
f 128 129 140 138
f 129 130 142 140
f 130 131 143 142
f 143 131 132 146 145 144
f 126 127 136 134
f 127 128 138 136
f 150 122 123 152
f 124 125 156 154
f 125 121 147 156
f 123 124 154 152
f 148 149 151 153 155
f 136 135 133 134
f 138 137 135 136
f 140 139 137 138
f 142 141 139 140
f 143 144 141 142
f 134 133 145 146
f 152 151 149 150
f 154 153 151 152
f 156 155 153 154
f 147 148 155 156
f 135 137 139 141 144 145 133
f 124 123 122 121 125
f 217 228 297
f 299 300 306
f 226 225 297
f 224 222 297
f 221 219 297
f 228 226 297
f 225 224 297
f 222 221 297
f 219 217 297
f 305 298 306
f 302 303 306
f 300 301 306
f 298 299 306
f 304 305 306
f 301 302 306
f 303 304 306
f 495 496 498 497
f 497 498 500 499
f 499 500 502 501
f 501 502 504 503
f 503 504 506 505
f 505 506 508 507
f 498 496 510 508 506 504 502 500
f 507 508 510 509
f 509 510 496 495
f 495 497 499 501 503 505 507 509
f 511 513 514 512
f 513 515 516 514
f 515 517 518 516
f 517 519 520 518
f 519 521 522 520
f 521 523 524 522
f 514 516 518 520 522 524 526 512
f 523 525 526 524
f 525 511 512 526
f 511 525 523 521 519 517 515 513
f 527 528 530 529
f 529 530 532 531
f 531 532 534 533
f 533 534 536 535
f 535 536 538 537
f 537 538 540 539
f 530 528 542 540 538 536 534 532
f 539 540 542 541
f 541 542 528 527
f 527 529 531 533 535 537 539 541
f 543 545 546 544
f 545 547 548 546
f 547 549 550 548
f 549 551 552 550
f 551 553 554 552
f 553 555 556 554
f 546 548 550 552 554 556 558 544
f 555 557 558 556
f 557 543 544 558
f 543 557 555 553 551 549 547 545
f 677 663 664 678
f 676 690 689 681 667 675
f 666 665 664 663
f 671 685 680 666
f 670 684 685 671
f 667 681 684 670
f 673 687 690 676
f 686 683 669 672
f 683 682 668 669
f 682 688 687 673 674 668
f 677 686 672 663
f 671 672 669 670
f 666 663 672 671
f 670 669 668 667
f 666 680 679 665
f 673 676 675 674
f 667 668 674 675
f 680 677 678 679
f 685 684 683 686
f 680 685 686 677
f 684 681 682 683
f 687 688 689 690
f 681 689 688 682
g Magazine
usemtl M_PCL_Flat_Black
f 713 691 711 733
f 733 711 705 727
f 727 705 707 729
g Body
usemtl M_PCL_Flat_Black
f 745 762 759 744
f 736 737 754 751
f 742 757 758 724 702 741
f 738 735 699 700
f 710 732 765 766 749 750
f 739 756 757 742
f 701 723 755 756 739 740
f 740 741 702 701
f 746 743 703 704
f 748 763 764 731 709 747
f 744 759 760 725 703 743
f 704 726 761 762 745 746
g Magazine
usemtl M_PCL_Flat_Black
f 728 730 708 706
f 716 734 712 694
f 712 706 705 711
f 734 728 706 712
f 706 708 707 705
g Body
usemtl M_PCL_Flat_Black
f 736 751 752 721 699 735
f 749 766 763 748
f 750 747 709 710
g Magazine
usemtl M_PCL_Flat_Black
f 694 712 711 691
g Body
usemtl M_PCL_Flat_Black
f 700 722 753 754 737 738
f 753 722 721 752
f 755 723 724 758
f 761 726 725 760
g Magazine
usemtl M_PCL_Flat_Black
f 734 733 727 728
f 728 727 729 730
g Body
usemtl M_PCL_Flat_Black
f 765 732 731 764
g Magazine
usemtl M_PCL_Flat_Black
f 716 713 733 734
g Body
usemtl M_PCL_Flat_Black
f 735 738 737 736
f 741 740 739 742
f 743 746 745 744
f 747 750 749 748
f 751 754 753 752
f 757 756 755 758
f 759 762 761 760
f 763 766 765 764
g Magazine
usemtl M_PCL_Flat_Black
f 691 713 716 694
g Body
usemtl M_PCL_Flat_Black
f 1256 1273 1274 1257
f 1284 1255 1256 1285
f 1330 1282 1254 1271
f 1283 1286 1334 1332
f 1331 1281 1282 1330
f 1290 1258 1254 1282
f 1287 1257 1258 1290
f 1285 1256 1257 1287
f 1255 1272 1273 1256
f 1288 1336 1334 1286
f 1257 1274 1275 1258
f 1284 1333 1272 1255
f 1289 1339 1336 1288
f 1333 1335 1273 1272
f 1337 1338 1275 1274
f 1335 1337 1274 1273
f 1338 1330 1271 1275
f 1283 1332 1333 1284
f 1289 1281 1331 1339
f 1290 1282 1281 1289
f 1284 1285 1286 1283
f 1285 1287 1288 1286
f 1287 1290 1289 1288
f 1339 1331 1330 1338
f 1332 1334 1335 1333
f 1334 1336 1337 1335
f 1336 1339 1338 1337
f 1439 1431 1432 1440
f 1440 1432 1433 1441
f 1441 1433 1434 1442
f 1442 1434 1435 1443
f 1443 1435 1436 1444
f 1444 1436 1437 1445
f 1432 1431 1438 1437 1436 1435 1434 1433
f 1445 1437 1438 1446
f 1446 1438 1431 1439
f 1439 1440 1448 1447
f 1440 1441 1449 1448
f 1441 1442 1450 1449
f 1442 1443 1451 1450
f 1443 1444 1452 1451
f 1444 1445 1453 1452
f 1448 1449 1450 1451 1452 1453 1454 1447
f 1445 1446 1454 1453
f 1446 1439 1447 1454
f 1258 1275 1271 1254
f 1474 1473 1478 1476 1475 1477
f 1495 1496 1498 1497
f 1497 1498 1500 1499
f 1499 1500 1502 1501
f 1501 1502 1504 1503
f 1503 1504 1506 1505
f 1505 1506 1508 1507
f 1498 1496 1510 1508 1506 1504 1502 1500
f 1507 1508 1510 1509
f 1509 1510 1496 1495
f 1495 1497 1499 1501 1503 1505 1507 1509
f 1543 1544 1546 1545
f 1545 1546 1548 1547
f 1547 1548 1550 1549
f 1549 1550 1552 1551
f 1551 1552 1554 1553
f 1553 1554 1556 1555
f 1546 1544 1558 1556 1554 1552 1550 1548
f 1555 1556 1558 1557
f 1557 1558 1544 1543
f 1595 1596 1597 1598 1599 1600 1601 1602
f 1571 1572 1574 1573
f 1573 1574 1576 1575
f 1565 1566 1604 1603
f 1576 1580 1586 1578
f 1579 1580 1582 1581
f 1567 1568 1566 1565
f 1581 1582 1584 1583
f 1569 1570 1568 1567
f 1561 1559 1571 1573
f 1560 1562 1574 1572
f 1563 1561 1573 1575
f 1562 1564 1576 1574
f 1575 1576 1578 1577
f 1579 1575 1577 1585
f 1567 1565 1579 1581
f 1566 1568 1582 1580
f 1569 1567 1581 1583
f 1568 1570 1584 1582
f 1604 1566 1580 1576 1564
f 1565 1603 1563 1575 1579
f 1563 1564 1562 1561
f 1561 1562 1560 1559
f 1580 1579 1585 1586
f 1587 1594 1593 1592 1591 1590 1589 1588
f 1606 1605 1597 1596
f 1608 1607 1602 1601
f 1610 1609 1600 1599
f 1605 1611 1598 1597
f 1612 1606 1596 1595
f 1607 1612 1595 1602
f 1609 1608 1601 1600
f 1611 1610 1599 1598
f 1603 1604 1564 1563
f 1590 1591 1610 1611
f 1592 1593 1608 1609
f 1594 1587 1612 1607
f 1587 1588 1606 1612
f 1589 1590 1611 1605
f 1591 1592 1609 1610
f 1593 1594 1607 1608
f 1588 1589 1605 1606
f 1572 1571 1559 1560
f 1583 1584 1570 1569
f 1614 1617 1616 1613 1629 1632 1630 1631
f 1616 1617 1620 1619
f 1625 1622 1621 1626 1634 1636 1633 1635
f 1620 1626 1621 1623
f 1627 1613 1616 1619 1625
f 1620 1617 1614 1628 1626
f 1619 1620 1623 1624
f 1626 1628 1638 1634
f 1627 1625 1635 1637
f 1638 1628 1614 1631
f 1613 1627 1637 1629
f 1625 1619 1624 1622
f 1622 1624 1623 1621
f 1618 1615 1633 1636
f 1632 1615 1618 1630
f 1637 1635 1633 1615 1632 1629
f 1631 1630 1618 1636 1634 1638
f 1672 1673 1646 1645
f 1653 1656 1655 1654
f 1654 1655 1658 1657
f 1647 1648 1674 1671
f 1660 1664 1670 1662
f 1657 1658 1660 1659
f 1649 1650 1648 1647
f 1663 1664 1666 1665
f 1665 1666 1668 1667
f 1651 1652 1650 1649
f 1641 1639 1653 1654
f 1640 1642 1655 1656
f 1643 1641 1654 1657
f 1642 1644 1658 1655
f 1645 1643 1657 1659
f 1644 1646 1660 1658
f 1667 1668 1656 1653
f 1703 1697 1700 1704
f 1649 1647 1663 1665
f 1648 1650 1666 1664
f 1651 1649 1665 1667
f 1650 1652 1668 1666
f 1639 1651 1667 1653
f 1652 1640 1656 1668
f 1673 1674 1648 1664 1660 1646
f 1647 1671 1672 1645 1659 1663
f 1645 1646 1644 1643
f 1643 1644 1642 1641
f 1641 1642 1640 1639
f 1639 1640 1652 1651
f 1659 1660 1662 1661
f 1672 1671 1675 1676
f 1674 1673 1677 1678
f 1675 1678 1677 1676
f 1673 1672 1676 1677
f 1671 1674 1678 1675
f 1679 1680 1682 1681
f 1681 1682 1684 1683
f 1683 1684 1686 1685
f 1685 1686 1688 1687
f 1687 1688 1690 1689
f 1689 1690 1692 1691
f 1682 1680 1694 1692 1690 1688 1686 1684
f 1691 1692 1694 1693
f 1693 1694 1680 1679
f 1664 1663 1669 1670
f 1679 1681 1683 1685 1687 1689 1691 1693
f 1699 1702 1709 1710 1698
f 1696 1699 1698 1695
f 1709 1702 1701 1708 1711 1703 1704 1714
f 1706 1697 1703 1711 1712
f 1695 1707 1708 1701 1696
f 1696 1701 1702 1699
f 1700 1697 1706 1705
f 1713 1714 1704 1700 1705
f 1707 1712 1711 1708
f 1709 1714 1713 1710
f 1707 1695 1698 1710 1713 1705 1706 1712
f 1663 1659 1661 1669
f 110 111 3 2
g Body
usemtl M_PCL_Flat_Black_Lighter
f 390 395 402 399
f 382 385 377 372
f 382 372 375 374
f 372 371 373 375
f 372 377 376 371
f 385 379 380 377
f 377 380 378 376
f 375 380 379 374
f 382 374 383 381
f 373 378 380 375
f 384 381 383 386
f 385 384 386 379
f 381 384 385 382
f 406 411 418 415
f 398 401 393 388
f 398 388 391 390
f 388 387 389 391
f 388 393 392 387
f 401 395 396 393
f 393 396 394 392
f 391 396 395 390
f 398 390 399 397
f 389 394 396 391
f 400 397 399 402
f 401 400 402 395
f 397 400 401 398
f 414 417 409 404
f 414 404 407 406
f 404 403 405 407
f 404 409 408 403
f 417 411 412 409
f 409 412 410 408
f 407 412 411 406
f 414 406 415 413
f 405 410 412 407
f 416 413 415 418
f 417 416 418 411
f 413 416 417 414
f 374 379 386 383
g Magazine
usemtl M_PCL_Flat_Black_Lighter
f 708 695 696 707
f 698 720 714 692
f 693 692 696 695
f 719 720 698 697
f 715 719 697 693
f 692 693 697 698
f 730 717 695 708
f 695 717 715 693
f 729 707 696 718
f 714 718 696 692
f 730 729 718 717
f 715 717 718 714
f 714 720 719 715
g Body
usemtl M_PCL_Flat_Black_Lighter
f 1380 1382 1386 1383
f 1385 1384 1383 1386
f 1384 1385 1381 1379
f 1382 1380 1390 1391
f 1389 1392 1391 1390
f 1392 1389 1387 1388
f 1393 1395 1398 1394
f 1397 1398 1395 1396
f 1396 1379 1381 1397
f 1394 1403 1402 1393
f 1401 1402 1403 1404
f 1404 1400 1399 1401
f 1406 1409 1412 1408
f 1411 1412 1409 1410
f 1410 1405 1407 1411
f 1408 1417 1416 1406
f 1415 1416 1417 1418
f 1418 1414 1413 1415
f 1419 1420 1424 1421
f 1423 1422 1421 1424
f 1422 1423 1407 1405
f 1420 1419 1428 1429
f 1427 1430 1429 1428
f 1430 1427 1425 1426
f 1385 1386 1412 1411
f 1383 1384 1410 1409
f 1384 1379 1405 1410
f 1381 1385 1411 1407
f 1380 1383 1409 1406
f 1386 1382 1408 1412
f 1388 1387 1413 1414
f 1389 1390 1416 1415
f 1391 1392 1418 1417
f 1392 1388 1414 1418
f 1387 1389 1415 1413
f 1382 1391 1417 1408
f 1390 1380 1406 1416
f 1398 1397 1423 1424
f 1396 1395 1421 1422
f 1379 1396 1422 1405
f 1397 1381 1407 1423
f 1395 1393 1419 1421
f 1394 1398 1424 1420
f 1399 1400 1426 1425
f 1402 1401 1427 1428
f 1404 1403 1429 1430
f 1400 1404 1430 1426
f 1401 1399 1425 1427
f 1403 1394 1420 1429
f 1393 1402 1428 1419
f 1535 1532 1542 1539
f 1541 1530 1521 1534
f 1520 1531 1532 1535 1536 1523 1524 1519
f 1527 1540 1537 1526
f 1528 1525 1522 1529
f 1531 1520 1530 1541
f 1523 1536 1540 1527
f 1513 1517 1518 1514
f 1514 1518 1516 1512
f 1512 1511 1513 1514
f 1515 1517 1513 1511
f 1539 1542 1533 1538
f 1516 1518 1517 1515
f 1528 1524 1523 1527
f 1530 1520 1519 1529
f 1525 1528 1527 1526
f 1521 1530 1529 1522
f 1540 1536 1535 1539
f 1542 1532 1531 1541
f 1537 1540 1539 1538
f 1533 1542 1541 1534
f 1524 1528 1529 1519
f 1537 1538 1533 1534 1521 1522 1525 1526
f 1718 1723 1730 1727
f 1726 1729 1721 1716
f 1726 1716 1719 1718
f 1716 1715 1717 1719
f 1716 1721 1720 1715
f 1729 1723 1724 1721
f 1721 1724 1722 1720
f 1719 1724 1723 1718
f 1726 1718 1727 1725
f 1717 1722 1724 1719
f 1728 1725 1727 1730
f 1729 1728 1730 1723
f 1725 1728 1729 1726
f 1734 1739 1746 1743
f 1742 1732 1735 1734
f 1732 1731 1733 1735
f 1742 1745 1737 1732
f 1745 1739 1740 1737
f 1737 1740 1738 1736
f 1732 1737 1736 1731
f 1742 1734 1743 1741
f 1735 1740 1739 1734
f 1733 1738 1740 1735
f 1745 1744 1746 1739
f 1744 1741 1743 1746
f 1741 1744 1745 1742
g Body
usemtl M_PCL_Flat_Grey_Darker
f 233 234 242 241
f 232 227 240 239
f 223 231 238 237
f 220 230 236 235
f 229 218 234 233
f 227 229 233 240
f 231 232 239 238
f 230 223 237 236
f 218 220 235 234
f 247 248 262 261
f 240 233 241 248
f 238 239 247 246
f 236 237 245 244
f 234 235 243 242
f 239 240 248 247
f 237 238 246 245
f 235 236 244 243
f 245 246 260 250
f 243 244 259 258
f 241 242 257 249
f 248 241 249 262
f 246 247 261 260
f 244 245 250 259
f 242 243 258 257
f 227 232 312 307
f 313 267 268 309
f 314 310 308 311
f 262 249 255 278
f 250 260 271 253
f 277 256 281 288
f 254 270 286 285
f 273 254 285 284
f 256 279 282 281
f 249 257 280 255
f 259 250 253 276
f 254 273 276 253
f 269 270 271 272
f 256 277 278 255
f 279 256 255 280
f 273 274 275 276
f 270 254 253 271
f 277 269 272 278
f 274 279 280 275
f 269 277 288 287 315 318 317 316
f 261 262 278 272 321 322 319 320
f 275 280 257 258 323 325 326 324
f 274 273 284 283 328 330 329 327
f 328 283 282 279 274 327 332 331
f 263 251 281 282
f 264 263 282 283
f 265 264 283 284
f 252 265 284 285
f 266 252 285 286
f 267 266 286 287
f 268 267 287 288
f 251 268 288 281
f 337 231 223 252 266 340 334 333 339 338 336 335
f 230 220 345 341
f 346 347 343 342
f 348 264 265 344
f 354 350 353 352 218 229 251 263 356 349 351 355
f 310 358 357 309 268 251 229 227 307 360 359 308
f 232 231 337 312
f 314 311 338 339
f 340 266 267 313
f 342 343 362 361 344 265 252 223 230 341 364 363
f 220 218 352 345
f 354 355 347 346
f 356 263 264 348
f 258 259 276 275 324 366 365 323
f 315 287 286 270 269 316 368 367
f 272 271 260 261 320 369 370 321
f 360 319 322 359
f 325 353 350 326
f 353 325 323 365 364 341 345 352
f 307 312 337 335 369 320 319 360
f 366 363 364 365
f 369 335 336 370
f 324 326 350 354 346 342 363 366
f 336 338 311 308 359 322 321 370
f 358 317 318 357
f 332 351 349 331
f 351 332 327 329 362 343 347 355
f 310 314 339 333 368 316 317 358
f 333 334 367 368
f 362 329 330 361
f 361 330 328 331 349 356 348 344
f 334 340 313 309 357 318 315 367
f 450 436 422 441
f 435 424 422 436
f 445 441 422 424
f 423 443 446 429
f 435 449 445 424
f 455 453 454 431 420 423 429 457 458 456 459
f 446 449 435 429
f 440 420 431 447
f 429 435 436 431 454 461 460 462 457
f 447 431 436 450
f 449 450 441 445
f 443 440 447 446
f 446 447 450 449
f 433 434 421 419
f 462 425 438 458 457
f 419 421 425 426
f 426 425 462 460
f 437 432 452 448
f 419 426 442 439
f 434 438 425 421
f 428 427 432 430
f 432 437 455 459
f 434 428 430 438
f 427 451 452 432
f 458 438 430 456
f 452 451 444 448
f 439 442 448 444
f 453 448 442 461 454
f 444 433 419 439
f 442 426 460 461
f 437 448 453 455
f 456 430 432 459
f 433 444 451 427
f 427 428 434 433
f 440 443 423 420
f 463 464 466 465
f 467 468 470 469
f 480 488 487 479
f 465 466 468 467
f 493 494 486 485
f 471 473 474 472
f 475 477 478 476
f 473 475 476 474
f 479 481 482 480
f 483 485 486 484
f 471 463 479 487
f 481 483 484 482
f 469 477 493 485
f 487 488 490 489
f 491 492 494 493
f 489 490 492 491
f 463 465 481 479
f 466 464 480 482
f 467 469 485 483
f 470 468 484 486
f 464 472 488 480
f 465 467 483 481
f 468 466 482 484
f 573 565 562 570
f 478 470 486 494
f 473 471 487 489
f 472 474 490 488
f 477 475 491 493
f 476 478 494 492
f 475 473 489 491
f 474 476 492 490
f 563 560 562 565
f 569 561 566 574
f 574 566 565 573
f 477 469 470 478
f 559 564 566 561
f 564 563 565 566
f 564 559 560 563
f 571 573 570 568
f 567 569 574 572
f 572 574 573 571
f 572 571 568 567
f 463 471 472 464
f 618 579 580 619
f 619 580 575 616
f 615 616 575 595 627 628
f 576 622 623 586
f 597 601 581 577
f 620 631 630 617
f 622 581 579 618
f 587 607 604 584
f 624 635 636 606 586 623
f 604 638 625 584
f 576 577 581 622
f 634 635 624 621
f 577 584 583
f 585 605 603 583
f 586 606 602 582
f 586 590 576
f 617 630 634 621
f 602 608 588 582
f 592 578 587 591
f 583 603 597 577
f 598 607 587 578
f 608 614 594 588
f 584 577 576 591 587
f 594 593 582 588
f 589 609 598 578
f 594 614 609 589
f 637 626 625 638
f 578 592 594 589
f 590 591 576
f 592 593 594
f 592 591 590 593
f 582 593 590 586
f 629 632 600 599
f 632 627 595 600
f 596 606 636 633
f 633 629 599 601
f 603 605 637 638 604
f 596 633 601 597
f 597 603 604
f 606 596 610
f 583 584 625 626 585
f 612 611 607 598
f 604 607 611 596 597
f 614 608 602 613
f 598 609 614 612
f 610 596 611
f 612 614 613
f 612 613 610 611
f 602 606 610 613
f 620 617 618 619
f 615 620 619 616
f 617 621 622 618
f 621 624 623 622
f 626 637 605 585
f 632 629 630 631
f 627 632 631 628
f 629 633 634 630
f 633 636 635 634
f 640 652 654 642
f 641 653 652 640
f 642 654 655 643
f 643 655 656 644
f 648 660 658 646
f 646 658 659 647
f 649 661 660 648
f 650 662 661 649
f 643 644 650 649
f 641 640 646 647
f 639 641 647 645
f 640 642 648 646
f 642 643 649 648
f 639 651 653 641
f 647 659 657 645
f 655 661 662 656
f 653 659 658 652
f 651 657 659 653
f 652 658 660 654
f 654 660 661 655
f 615 628 631 620
f 1493 1487 1489 1494
f 1479 1481 1484 1483
f 1485 1480 1482 1486
f 1482 1480 1488 1490
f 1487 1491 1492 1489
f 1493 1494 1490 1488
f 1479 1483 1491 1487
f 1484 1481 1489 1492
f 1480 1485 1493 1488
f 1486 1482 1490 1494
f 1485 1479 1487 1493
f 1481 1486 1494 1489
f 1485 1486 1481 1479
g Body
usemtl M_PCL_Flat_Grey_Dark
f 229 290 289 218
f 218 289 291 220
f 220 291 292 230
f 230 292 293 223
f 223 293 294 231
f 231 294 295 232
f 232 295 296 227
f 227 296 290 229
f 217 219 289 290
f 219 221 291 289
f 221 222 292 291
f 222 224 293 292
f 224 225 294 293
f 225 226 295 294
f 226 228 296 295
f 228 217 290 296
f 230 303 302 220
f 220 302 301 218
f 218 301 300 229
f 229 300 299 227
f 227 299 298 232
f 232 298 305 231
f 231 305 304 223
f 223 304 303 230
f 911 912 918 917 916 915 914 913
f 912 911 919 920
f 911 913 921 919
f 913 914 922 921
f 914 915 923 922
f 915 916 924 923
f 916 917 925 924
f 917 918 926 925
f 918 912 920 926
f 1071 1072 1078 1077 1076 1075 1074 1073
f 1072 1071 1079 1080
f 1071 1073 1081 1079
f 1073 1074 1082 1081
f 1074 1075 1083 1082
f 1075 1076 1084 1083
f 1076 1077 1085 1084
f 1077 1078 1086 1085
f 1078 1072 1080 1086
f 1231 1232 1238 1237 1236 1235 1234 1233
f 1232 1231 1239 1240
f 1231 1233 1241 1239
f 1233 1234 1242 1241
f 1234 1235 1243 1242
f 1235 1236 1244 1243
f 1236 1237 1245 1244
f 1237 1238 1246 1245
f 1238 1232 1240 1246
f 1279 1270 1253 1262
f 1265 1248 1250 1267
f 1247 1264 1266 1249
f 1350 1300 1304 1352
f 1268 1251 1252 1269
f 1276 1269 1252 1259
f 1260 1259 1252 1251
f 1265 1276 1259 1248
f 1340 1292 1291 1341
f 1263 1262 1253 1261
f 1266 1267 1250 1249
f 1291 1263 1280 1341
f 1364 1316 1315 1365
f 1268 1279 1262 1251
f 1280 1263 1261 1278
f 1377 1327 1319 1367
f 1260 1251 1262 1263
f 1253 1270 1278 1261
f 1347 1297 1301 1349
f 1356 1306 1310 1358
f 1365 1315 1307 1355
f 1247 1249 1299 1298 1294 1296
f 1359 1309 1313 1361
f 1259 1260 1317 1316 1312 1314
f 1368 1318 1322 1370
f 1247 1248 1311 1310 1306 1308
f 1371 1321 1325 1373
f 1374 1324 1328 1376
f 1353 1303 1295 1343
f 1263 1291 1293 1329 1328 1324 1326
f 1260 1247 1308 1307 1315 1317
f 1249 1250 1302 1301 1297 1299
f 1362 1312 1316 1364
f 1247 1260 1323 1322 1318 1320
f 1250 1248 1305 1304 1300 1302
f 1248 1259 1314 1313 1309 1311
f 1260 1263 1326 1325 1321 1323
f 1248 1247 1296 1295 1303 1305
f 1277 1268 1269 1276
f 1280 1278 1270 1279
f 1340 1342 1378 1377 1367 1369 1264
f 1293 1292 1247 1320 1319 1327 1329
f 1277 1280 1279 1268
f 1265 1354 1353 1343 1345 1264
f 1267 1351 1350 1352 1354 1265
f 1264 1357 1356 1358 1360 1265
f 1266 1348 1347 1349 1351 1267
f 1277 1366 1365 1355 1357 1264
f 1276 1363 1362 1364 1366 1277
f 1264 1369 1368 1370 1372 1277
f 1265 1360 1359 1361 1363 1276
f 1277 1372 1371 1373 1375 1280
f 1264 1345 1344 1346 1348 1266
f 1280 1375 1374 1376 1378 1342 1341
f 1291 1292 1293
f 1294 1295 1296
f 1297 1298 1299
f 1300 1301 1302
f 1303 1304 1305
f 1306 1307 1308
f 1309 1310 1311
f 1312 1313 1314
f 1315 1316 1317
f 1318 1319 1320
f 1321 1322 1323
f 1324 1325 1326
f 1327 1328 1329
f 1340 1341 1342
f 1343 1344 1345
f 1346 1347 1348
f 1349 1350 1351
f 1352 1353 1354
f 1355 1356 1357
f 1358 1359 1360
f 1361 1362 1363
f 1364 1365 1366
f 1367 1368 1369
f 1370 1371 1372
f 1373 1374 1375
f 1376 1377 1378
f 1247 1292 1340 1264
f 1312 1362 1361 1313
f 1373 1325 1324 1374
f 1321 1371 1370 1322
f 1343 1295 1294 1344
f 1303 1353 1352 1304
f 1358 1310 1309 1359
f 1306 1356 1355 1307
f 1376 1328 1327 1377
f 1349 1301 1300 1350
f 1297 1347 1346 1298
f 1318 1368 1367 1319
f 1344 1294 1298 1346
f 1455 1461 1465 1459
f 1461 1456 1460 1465
f 1466 1464 1458 1462
f 1463 1466 1462 1457
f 1470 1472 1478 1473
f 1465 1468 1459
f 1463 1471 1466
f 1460 1464 1466 1465
f 1466 1469 1467 1465
f 1467 1468 1465
f 1471 1469 1466
f 1470 1471 1463
f 1468 1472 1459
f 1470 1473 1474 1471
f 1477 1469 1471 1474
f 1476 1468 1467 1475
f 1478 1472 1468 1476
f 1467 1469 1477 1475
f 1459 1472 1470 1463
g Body
usemtl M_PCL_Flat_White
f 58 76 50 49
f 52 73 56 65
f 76 57 51 50
f 51 57 107 102
f 101 108 73 52
f 65 56 55 67
f 79 58 49 59
f 82 89 84 83
f 98 96 81 100
f 67 55 54 53
f 81 96 86 85 84 89
f 108 101 102 107
f 166 184 158 157
f 160 181 164 173
f 184 165 159 158
f 159 165 215 210
f 209 216 181 160
f 173 164 163 175
f 187 166 157 167
f 190 197 192 191
f 206 204 189 208
f 175 163 162 161
f 189 204 194 193 192 197
f 216 209 210 215
f 107 57 74 106
f 101 52 63 104
f 49 50 61 60
f 73 72 71 56
f 57 76 75 74
f 65 67 66 64
f 67 53 68 66
f 53 54 69 68
f 54 55 70 69
f 55 56 71 70
f 52 65 64 63
f 73 108 105 72
f 76 58 77 75
f 58 79 78 77
f 79 59 80 78
f 59 49 60 80
f 81 89 88 87
f 89 82 90 88
f 82 83 91 90
f 83 84 92 91
f 84 85 93 92
f 85 86 94 93
f 86 96 95 94
f 96 98 97 95
f 98 100 99 97
f 100 81 87 99
f 105 108 107 106
f 103 102 101 104
f 51 102 103 62
f 50 51 62 61
f 215 165 182 214
f 209 160 171 212
f 157 158 169 168
f 181 180 179 164
f 165 184 183 182
f 173 175 174 172
f 175 161 176 174
f 161 162 177 176
f 162 163 178 177
f 163 164 179 178
f 160 173 172 171
f 181 216 213 180
f 184 166 185 183
f 166 187 186 185
f 187 167 188 186
f 167 157 168 188
f 189 197 196 195
f 197 190 198 196
f 190 191 199 198
f 191 192 200 199
f 192 193 201 200
f 193 194 202 201
f 194 204 203 202
f 204 206 205 203
f 206 208 207 205
f 208 189 195 207
f 213 216 215 214
f 211 210 209 212
f 159 210 211 170
f 158 159 170 169
g Body
usemtl M_PCL_Flat_Brown.Chestnut
f 794 793 777 778
f 810 809 793 794
f 826 825 809 810
f 842 841 825 826
f 858 857 841 842
f 874 873 857 858
f 890 889 873 874
f 778 777 889 890
f 793 798 782 777
f 809 814 798 793
f 825 830 814 809
f 841 846 830 825
f 857 862 846 841
f 873 878 862 857
f 889 894 878 873
f 777 782 894 889
f 794 778 890 874 858 842 826 810
f 796 795 779 780
f 812 811 795 796
f 828 827 811 812
f 844 843 827 828
f 860 859 843 844
f 876 875 859 860
f 892 891 875 876
f 780 779 891 892
f 797 796 780 781
f 813 812 796 797
f 829 828 812 813
f 845 844 828 829
f 861 860 844 845
f 877 876 860 861
f 893 892 876 877
f 781 780 892 893
f 798 797 781 782
f 814 813 797 798
f 830 829 813 814
f 846 845 829 830
f 862 861 845 846
f 878 877 861 862
f 894 893 877 878
f 782 781 893 894
f 779 795 811 827 843 859 875 891
f 954 953 937 938
f 970 969 953 954
f 986 985 969 970
f 1002 1001 985 986
f 1018 1017 1001 1002
f 1034 1033 1017 1018
f 1050 1049 1033 1034
f 938 937 1049 1050
f 953 958 942 937
f 969 974 958 953
f 985 990 974 969
f 1001 1006 990 985
f 1017 1022 1006 1001
f 1033 1038 1022 1017
f 1049 1054 1038 1033
f 937 942 1054 1049
f 954 938 1050 1034 1018 1002 986 970
f 956 955 939 940
f 972 971 955 956
f 988 987 971 972
f 1004 1003 987 988
f 1020 1019 1003 1004
f 1036 1035 1019 1020
f 1052 1051 1035 1036
f 940 939 1051 1052
f 957 956 940 941
f 973 972 956 957
f 989 988 972 973
f 1005 1004 988 989
f 1021 1020 1004 1005
f 1037 1036 1020 1021
f 1053 1052 1036 1037
f 941 940 1052 1053
f 958 957 941 942
f 974 973 957 958
f 990 989 973 974
f 1006 1005 989 990
f 1022 1021 1005 1006
f 1038 1037 1021 1022
f 1054 1053 1037 1038
f 942 941 1053 1054
f 939 955 971 987 1003 1019 1035 1051
f 1114 1113 1097 1098
f 1130 1129 1113 1114
f 1146 1145 1129 1130
f 1162 1161 1145 1146
f 1178 1177 1161 1162
f 1194 1193 1177 1178
f 1210 1209 1193 1194
f 1098 1097 1209 1210
f 1113 1118 1102 1097
f 1129 1134 1118 1113
f 1145 1150 1134 1129
f 1161 1166 1150 1145
f 1177 1182 1166 1161
f 1193 1198 1182 1177
f 1209 1214 1198 1193
f 1097 1102 1214 1209
f 1114 1098 1210 1194 1178 1162 1146 1130
f 1116 1115 1099 1100
f 1132 1131 1115 1116
f 1148 1147 1131 1132
f 1164 1163 1147 1148
f 1180 1179 1163 1164
f 1196 1195 1179 1180
f 1212 1211 1195 1196
f 1100 1099 1211 1212
f 1117 1116 1100 1101
f 1133 1132 1116 1117
f 1149 1148 1132 1133
f 1165 1164 1148 1149
f 1181 1180 1164 1165
f 1197 1196 1180 1181
f 1213 1212 1196 1197
f 1101 1100 1212 1213
f 1118 1117 1101 1102
f 1134 1133 1117 1118
f 1150 1149 1133 1134
f 1166 1165 1149 1150
f 1182 1181 1165 1166
f 1198 1197 1181 1182
f 1214 1213 1197 1198
f 1102 1101 1213 1214
f 1099 1115 1131 1147 1163 1179 1195 1211
g Body
usemtl M_PCL_Flat_Yellow.Brass
f 776 792 808 824 840 856 872 888
f 903 783 767 904
f 905 799 783 903
f 906 815 799 905
f 907 831 815 906
f 908 847 831 907
f 909 863 847 908
f 910 879 863 909
f 904 767 879 910
f 783 784 768 767
f 799 800 784 783
f 815 816 800 799
f 831 832 816 815
f 847 848 832 831
f 863 864 848 847
f 879 880 864 863
f 767 768 880 879
f 784 785 769 768
f 800 801 785 784
f 816 817 801 800
f 832 833 817 816
f 848 849 833 832
f 864 865 849 848
f 880 881 865 864
f 768 769 881 880
f 785 786 770 769
f 801 802 786 785
f 817 818 802 801
f 833 834 818 817
f 849 850 834 833
f 865 866 850 849
f 881 882 866 865
f 769 770 882 881
f 786 787 771 770
f 802 803 787 786
f 818 819 803 802
f 834 835 819 818
f 850 851 835 834
f 866 867 851 850
f 882 883 867 866
f 770 771 883 882
f 787 788 772 771
f 803 804 788 787
f 819 820 804 803
f 835 836 820 819
f 851 852 836 835
f 867 868 852 851
f 883 884 868 867
f 771 772 884 883
f 788 789 773 772
f 804 805 789 788
f 820 821 805 804
f 836 837 821 820
f 852 853 837 836
f 868 869 853 852
f 884 885 869 868
f 772 773 885 884
f 789 790 774 773
f 805 806 790 789
f 821 822 806 805
f 837 838 822 821
f 853 854 838 837
f 869 870 854 853
f 885 886 870 869
f 773 774 886 885
f 790 791 775 774
f 806 807 791 790
f 822 823 807 806
f 838 839 823 822
f 854 855 839 838
f 870 871 855 854
f 886 887 871 870
f 774 775 887 886
f 791 792 776 775
f 807 808 792 791
f 823 824 808 807
f 839 840 824 823
f 855 856 840 839
f 871 872 856 855
f 887 888 872 871
f 775 776 888 887
f 902 901 925 926
f 896 895 903 904
f 895 897 905 903
f 897 898 906 905
f 898 899 907 906
f 899 900 908 907
f 900 901 909 908
f 901 902 910 909
f 902 896 904 910
f 900 899 923 924
f 898 897 921 922
f 895 896 920 919
f 896 902 926 920
f 901 900 924 925
f 899 898 922 923
f 897 895 919 921
f 936 952 968 984 1000 1016 1032 1048
f 1063 943 927 1064
f 1065 959 943 1063
f 1066 975 959 1065
f 1067 991 975 1066
f 1068 1007 991 1067
f 1069 1023 1007 1068
f 1070 1039 1023 1069
f 1064 927 1039 1070
f 943 944 928 927
f 959 960 944 943
f 975 976 960 959
f 991 992 976 975
f 1007 1008 992 991
f 1023 1024 1008 1007
f 1039 1040 1024 1023
f 927 928 1040 1039
f 944 945 929 928
f 960 961 945 944
f 976 977 961 960
f 992 993 977 976
f 1008 1009 993 992
f 1024 1025 1009 1008
f 1040 1041 1025 1024
f 928 929 1041 1040
f 945 946 930 929
f 961 962 946 945
f 977 978 962 961
f 993 994 978 977
f 1009 1010 994 993
f 1025 1026 1010 1009
f 1041 1042 1026 1025
f 929 930 1042 1041
f 946 947 931 930
f 962 963 947 946
f 978 979 963 962
f 994 995 979 978
f 1010 1011 995 994
f 1026 1027 1011 1010
f 1042 1043 1027 1026
f 930 931 1043 1042
f 947 948 932 931
f 963 964 948 947
f 979 980 964 963
f 995 996 980 979
f 1011 1012 996 995
f 1027 1028 1012 1011
f 1043 1044 1028 1027
f 931 932 1044 1043
f 948 949 933 932
f 964 965 949 948
f 980 981 965 964
f 996 997 981 980
f 1012 1013 997 996
f 1028 1029 1013 1012
f 1044 1045 1029 1028
f 932 933 1045 1044
f 949 950 934 933
f 965 966 950 949
f 981 982 966 965
f 997 998 982 981
f 1013 1014 998 997
f 1029 1030 1014 1013
f 1045 1046 1030 1029
f 933 934 1046 1045
f 950 951 935 934
f 966 967 951 950
f 982 983 967 966
f 998 999 983 982
f 1014 1015 999 998
f 1030 1031 1015 1014
f 1046 1047 1031 1030
f 934 935 1047 1046
f 951 952 936 935
f 967 968 952 951
f 983 984 968 967
f 999 1000 984 983
f 1015 1016 1000 999
f 1031 1032 1016 1015
f 1047 1048 1032 1031
f 935 936 1048 1047
f 1062 1061 1085 1086
f 1056 1055 1063 1064
f 1055 1057 1065 1063
f 1057 1058 1066 1065
f 1058 1059 1067 1066
f 1059 1060 1068 1067
f 1060 1061 1069 1068
f 1061 1062 1070 1069
f 1062 1056 1064 1070
f 1060 1059 1083 1084
f 1058 1057 1081 1082
f 1055 1056 1080 1079
f 1056 1062 1086 1080
f 1061 1060 1084 1085
f 1059 1058 1082 1083
f 1057 1055 1079 1081
f 1096 1112 1128 1144 1160 1176 1192 1208
f 1223 1103 1087 1224
f 1225 1119 1103 1223
f 1226 1135 1119 1225
f 1227 1151 1135 1226
f 1228 1167 1151 1227
f 1229 1183 1167 1228
f 1230 1199 1183 1229
f 1224 1087 1199 1230
f 1103 1104 1088 1087
f 1119 1120 1104 1103
f 1135 1136 1120 1119
f 1151 1152 1136 1135
f 1167 1168 1152 1151
f 1183 1184 1168 1167
f 1199 1200 1184 1183
f 1087 1088 1200 1199
f 1104 1105 1089 1088
f 1120 1121 1105 1104
f 1136 1137 1121 1120
f 1152 1153 1137 1136
f 1168 1169 1153 1152
f 1184 1185 1169 1168
f 1200 1201 1185 1184
f 1088 1089 1201 1200
f 1105 1106 1090 1089
f 1121 1122 1106 1105
f 1137 1138 1122 1121
f 1153 1154 1138 1137
f 1169 1170 1154 1153
f 1185 1186 1170 1169
f 1201 1202 1186 1185
f 1089 1090 1202 1201
f 1106 1107 1091 1090
f 1122 1123 1107 1106
f 1138 1139 1123 1122
f 1154 1155 1139 1138
f 1170 1171 1155 1154
f 1186 1187 1171 1170
f 1202 1203 1187 1186
f 1090 1091 1203 1202
f 1107 1108 1092 1091
f 1123 1124 1108 1107
f 1139 1140 1124 1123
f 1155 1156 1140 1139
f 1171 1172 1156 1155
f 1187 1188 1172 1171
f 1203 1204 1188 1187
f 1091 1092 1204 1203
f 1108 1109 1093 1092
f 1124 1125 1109 1108
f 1140 1141 1125 1124
f 1156 1157 1141 1140
f 1172 1173 1157 1156
f 1188 1189 1173 1172
f 1204 1205 1189 1188
f 1092 1093 1205 1204
f 1109 1110 1094 1093
f 1125 1126 1110 1109
f 1141 1142 1126 1125
f 1157 1158 1142 1141
f 1173 1174 1158 1157
f 1189 1190 1174 1173
f 1205 1206 1190 1189
f 1093 1094 1206 1205
f 1110 1111 1095 1094
f 1126 1127 1111 1110
f 1142 1143 1127 1126
f 1158 1159 1143 1142
f 1174 1175 1159 1158
f 1190 1191 1175 1174
f 1206 1207 1191 1190
f 1094 1095 1207 1206
f 1111 1112 1096 1095
f 1127 1128 1112 1111
f 1143 1144 1128 1127
f 1159 1160 1144 1143
f 1175 1176 1160 1159
f 1191 1192 1176 1175
f 1207 1208 1192 1191
f 1095 1096 1208 1207
f 1222 1221 1245 1246
f 1216 1215 1223 1224
f 1215 1217 1225 1223
f 1217 1218 1226 1225
f 1218 1219 1227 1226
f 1219 1220 1228 1227
f 1220 1221 1229 1228
f 1221 1222 1230 1229
f 1222 1216 1224 1230
f 1220 1219 1243 1244
f 1218 1217 1241 1242
f 1215 1216 1240 1239
f 1216 1222 1246 1240
f 1221 1220 1244 1245
f 1219 1218 1242 1243
f 1217 1215 1239 1241
