# Adapted CC0 source; see SOURCES.json
mtllib vpo139.mtl
v 0.002443 0.011043 -0.205638
v 0.002443 0.011043 -0.207450
v 0.001146 0.011043 -0.207450
v 0.001146 0.011043 -0.208900
v 0.002443 0.011043 -0.209915
v 0.001515 0.011043 -0.249500
v 0.000449 0.011043 -0.253125
v 0.000449 0.011043 -0.261390
v -0.000044 0.011043 -0.261390
v -0.000044 0.011043 -0.246971
v -0.000068 0.011043 -0.261879
v -0.000044 0.011043 -0.254964
v -0.004915 0.011043 -0.286475
v -0.002916 0.011043 -0.280326
v -0.001441 0.011043 -0.274176
v -0.000492 0.011043 -0.268028
v 0.000033 0.005224 -0.205638
v 0.000033 0.005224 -0.207450
v -0.000884 0.006142 -0.207450
v -0.000884 0.006142 -0.208900
v 0.000033 0.005224 -0.209915
v -0.000623 0.005881 -0.249500
v -0.001378 0.006635 -0.253125
v -0.001378 0.006635 -0.261390
v -0.001726 0.006983 -0.261390
v -0.001726 0.006983 -0.246971
v -0.001743 0.007001 -0.261879
v -0.001726 0.006983 -0.254964
v -0.005171 0.010428 -0.286475
v -0.003755 0.009013 -0.280326
v -0.002713 0.007971 -0.274176
v -0.002043 0.007301 -0.268028
v -0.005785 0.002814 -0.205638
v -0.005785 0.002814 -0.207450
v -0.005785 0.004112 -0.207450
v -0.005785 0.004112 -0.208900
v -0.005785 0.002814 -0.209915
v -0.005785 0.003742 -0.249500
v -0.005785 0.004808 -0.253125
v -0.005785 0.004808 -0.261390
v -0.005785 0.005301 -0.261390
v -0.005785 0.005301 -0.246971
v -0.005785 0.005326 -0.261879
v -0.005785 0.005301 -0.254964
v -0.005785 0.010173 -0.286475
v -0.005785 0.008174 -0.280326
v -0.005785 0.006699 -0.274176
v -0.005785 0.005749 -0.268028
v -0.011604 0.005224 -0.205638
v -0.011604 0.005224 -0.207450
v -0.010686 0.006142 -0.207450
v -0.010686 0.006142 -0.208900
v -0.011604 0.005224 -0.209915
v -0.010948 0.005881 -0.249500
v -0.010195 0.006635 -0.253125
v -0.010195 0.006635 -0.261390
v -0.009846 0.006983 -0.261390
v -0.009846 0.006983 -0.246971
v -0.009828 0.007001 -0.261879
v -0.009846 0.006983 -0.254964
v -0.006400 0.010428 -0.286475
v -0.007815 0.009013 -0.280326
v -0.008858 0.007971 -0.274176
v -0.009529 0.007301 -0.268028
v -0.014014 0.011043 -0.205638
v -0.014014 0.011043 -0.207450
v -0.012717 0.011043 -0.207450
v -0.012717 0.011043 -0.208900
v -0.014014 0.011043 -0.209915
v -0.013086 0.011043 -0.249500
v -0.012020 0.011043 -0.253125
v -0.012020 0.011043 -0.261390
v -0.011527 0.011043 -0.261390
v -0.011527 0.011043 -0.246971
v -0.011503 0.011043 -0.261879
v -0.011527 0.011043 -0.254964
v -0.006655 0.011043 -0.286475
v -0.008655 0.011043 -0.280326
v -0.010130 0.011043 -0.274176
v -0.011079 0.011043 -0.268028
v -0.011604 0.016862 -0.205638
v -0.011604 0.016862 -0.207450
v -0.010686 0.015944 -0.207450
v -0.010686 0.015944 -0.208900
v -0.011604 0.016862 -0.209915
v -0.010948 0.016205 -0.249500
v -0.010195 0.015453 -0.253125
v -0.010195 0.015453 -0.261390
v -0.009846 0.015103 -0.261390
v -0.009846 0.015103 -0.246971
v -0.009828 0.015086 -0.261879
v -0.009846 0.015103 -0.254964
v -0.006400 0.011658 -0.286475
v -0.007815 0.013073 -0.280326
v -0.008858 0.014116 -0.274176
v -0.009529 0.014787 -0.268028
v -0.005785 0.019272 -0.205638
v -0.005785 0.019272 -0.207450
v -0.005785 0.017974 -0.207450
v -0.005785 0.017974 -0.208900
v -0.005785 0.019272 -0.209915
v -0.005785 0.018344 -0.249500
v -0.005785 0.017278 -0.253125
v -0.005785 0.017278 -0.261390
v -0.005785 0.016785 -0.261390
v -0.005785 0.016785 -0.246971
v -0.005785 0.016761 -0.261879
v -0.005785 0.016785 -0.254964
v -0.005785 0.011913 -0.286475
v -0.005785 0.013913 -0.280326
v -0.005785 0.015387 -0.274176
v -0.005785 0.016337 -0.268028
v 0.000033 0.016862 -0.205638
v 0.000033 0.016862 -0.207450
v -0.000884 0.015944 -0.207450
v -0.000884 0.015944 -0.208900
v 0.000033 0.016862 -0.209915
v -0.000623 0.016205 -0.249500
v -0.001378 0.015453 -0.253125
v -0.001378 0.015453 -0.261390
v -0.001726 0.015103 -0.261390
v -0.001726 0.015103 -0.246971
v -0.001743 0.015086 -0.261879
v -0.001726 0.015103 -0.254964
v -0.005171 0.011658 -0.286475
v -0.003755 0.013073 -0.280326
v -0.002713 0.014116 -0.274176
v -0.002043 0.014787 -0.268028
v -0.003776 0.009033 -0.205275
v -0.002943 0.011043 -0.205275
v -0.005785 0.008201 -0.205275
v -0.007795 0.009033 -0.205275
v -0.008627 0.011043 -0.205275
v -0.007795 0.013053 -0.205275
v -0.005785 0.013885 -0.205275
v -0.003776 0.013053 -0.205275
v -0.000884 0.006142 -0.205275
v 0.001146 0.011043 -0.205275
v -0.005785 0.004112 -0.205275
v -0.010686 0.006142 -0.205275
v -0.012717 0.011043 -0.205275
v -0.010686 0.015944 -0.205275
v -0.005785 0.017974 -0.205275
v -0.000884 0.015944 -0.205275
v -0.004369 0.009627 -0.205275
v -0.003782 0.011043 -0.205275
v -0.005785 0.009039 -0.205275
v -0.007204 0.009627 -0.205275
v -0.007789 0.011043 -0.205275
v -0.007204 0.012461 -0.205275
v -0.005785 0.013049 -0.205275
v -0.004369 0.012461 -0.205275
v -0.004022 0.009280 -0.206087
v -0.003293 0.011043 -0.206087
v -0.005785 0.008551 -0.206087
v -0.007549 0.009280 -0.206087
v -0.008279 0.011043 -0.206087
v -0.007549 0.012806 -0.206087
v -0.005785 0.013537 -0.206087
v -0.004022 0.012806 -0.206087
v 0.015609 0.004460 -0.205638
v 0.015609 0.004460 -0.207450
v 0.014311 0.004460 -0.207450
v 0.014311 0.004460 -0.208900
v 0.015609 0.004460 -0.209915
v 0.014681 0.004460 -0.249500
v 0.013616 0.004460 -0.253125
v 0.013616 0.004460 -0.261390
v 0.013123 0.004460 -0.261390
v 0.013123 0.004460 -0.246971
v 0.013098 0.004460 -0.261879
v 0.013123 0.004460 -0.254964
v 0.008250 0.004460 -0.286475
v 0.010250 0.004460 -0.280326
v 0.011725 0.004460 -0.274176
v 0.012674 0.004460 -0.268028
v 0.013199 -0.001359 -0.205638
v 0.013199 -0.001359 -0.207450
v 0.012281 -0.000441 -0.207450
v 0.012281 -0.000441 -0.208900
v 0.013199 -0.001359 -0.209915
v 0.012542 -0.000702 -0.249500
v 0.011789 0.000052 -0.253125
v 0.011789 0.000052 -0.261390
v 0.011440 0.000400 -0.261390
v 0.011440 0.000400 -0.246971
v 0.011423 0.000418 -0.261879
v 0.011440 0.000400 -0.254964
v 0.007995 0.003845 -0.286475
v 0.009411 0.002430 -0.280326
v 0.010453 0.001388 -0.274176
v 0.011123 0.000718 -0.268028
v 0.007380 -0.003769 -0.205638
v 0.007380 -0.003769 -0.207450
v 0.007380 -0.002471 -0.207450
v 0.007380 -0.002471 -0.208900
v 0.007380 -0.003769 -0.209915
v 0.007380 -0.002841 -0.249500
v 0.007380 -0.001775 -0.253125
v 0.007380 -0.001775 -0.261390
v 0.007380 -0.001282 -0.261390
v 0.007380 -0.001282 -0.246971
v 0.007380 -0.001257 -0.261879
v 0.007380 -0.001282 -0.254964
v 0.007380 0.003590 -0.286475
v 0.007380 0.001591 -0.280326
v 0.007380 0.000116 -0.274176
v 0.007380 -0.000834 -0.268028
v 0.001562 -0.001359 -0.205638
v 0.001562 -0.001359 -0.207450
v 0.002479 -0.000441 -0.207450
v 0.002479 -0.000441 -0.208900
v 0.001562 -0.001359 -0.209915
v 0.002218 -0.000702 -0.249500
v 0.002971 0.000052 -0.253125
v 0.002971 0.000052 -0.261390
v 0.003320 0.000400 -0.261390
v 0.003320 0.000400 -0.246971
v 0.003338 0.000418 -0.261879
v 0.003320 0.000400 -0.254964
v 0.006766 0.003845 -0.286475
v 0.005351 0.002430 -0.280326
v 0.004308 0.001388 -0.274176
v 0.003637 0.000718 -0.268028
v -0.000848 0.004460 -0.205638
v -0.000848 0.004460 -0.207450
v 0.000449 0.004460 -0.207450
v 0.000449 0.004460 -0.208900
v -0.000848 0.004460 -0.209915
v 0.000080 0.004460 -0.249500
v 0.001146 0.004460 -0.253125
v 0.001146 0.004460 -0.261390
v 0.001638 0.004460 -0.261390
v 0.001638 0.004460 -0.246971
v 0.001663 0.004460 -0.261879
v 0.001638 0.004460 -0.254964
v 0.006510 0.004460 -0.286475
v 0.004511 0.004460 -0.280326
v 0.003036 0.004460 -0.274176
v 0.002087 0.004460 -0.268028
v 0.001562 0.010279 -0.205638
v 0.001562 0.010279 -0.207450
v 0.002479 0.009361 -0.207450
v 0.002479 0.009361 -0.208900
v 0.001562 0.010279 -0.209915
v 0.002218 0.009622 -0.249500
v 0.002971 0.008870 -0.253125
v 0.002971 0.008870 -0.261390
v 0.003320 0.008520 -0.261390
v 0.003320 0.008520 -0.246971
v 0.003338 0.008503 -0.261879
v 0.003320 0.008520 -0.254964
v 0.006766 0.005075 -0.286475
v 0.005351 0.006490 -0.280326
v 0.004308 0.007533 -0.274176
v 0.003637 0.008204 -0.268028
v 0.007380 0.012689 -0.205638
v 0.007380 0.012689 -0.207450
v 0.007380 0.011391 -0.207450
v 0.007380 0.011391 -0.208900
v 0.007380 0.012689 -0.209915
v 0.007380 0.011761 -0.249500
v 0.007380 0.010695 -0.253125
v 0.007380 0.010695 -0.261390
v 0.007380 0.010202 -0.261390
v 0.007380 0.010202 -0.246971
v 0.007380 0.010178 -0.261879
v 0.007380 0.010202 -0.254964
v 0.007380 0.005330 -0.286475
v 0.007380 0.007330 -0.280326
v 0.007380 0.008804 -0.274176
v 0.007380 0.009754 -0.268028
v 0.013199 0.010279 -0.205638
v 0.013199 0.010279 -0.207450
v 0.012281 0.009361 -0.207450
v 0.012281 0.009361 -0.208900
v 0.013199 0.010279 -0.209915
v 0.012542 0.009622 -0.249500
v 0.011789 0.008870 -0.253125
v 0.011789 0.008870 -0.261390
v 0.011440 0.008520 -0.261390
v 0.011440 0.008520 -0.246971
v 0.011423 0.008503 -0.261879
v 0.011440 0.008520 -0.254964
v 0.007995 0.005075 -0.286475
v 0.009411 0.006490 -0.280326
v 0.010453 0.007533 -0.274176
v 0.011123 0.008204 -0.268028
v 0.009390 0.002450 -0.205275
v 0.010222 0.004460 -0.205275
v 0.007380 0.001618 -0.205275
v 0.005371 0.002450 -0.205275
v 0.004538 0.004460 -0.205275
v 0.005371 0.006470 -0.205275
v 0.007380 0.007302 -0.205275
v 0.009390 0.006470 -0.205275
v 0.012281 -0.000441 -0.205275
v 0.014311 0.004460 -0.205275
v 0.007380 -0.002471 -0.205275
v 0.002479 -0.000441 -0.205275
v 0.000449 0.004460 -0.205275
v 0.002479 0.009361 -0.205275
v 0.007380 0.011391 -0.205275
v 0.012281 0.009361 -0.205275
v 0.008797 0.003044 -0.205275
v 0.009384 0.004460 -0.205275
v 0.007380 0.002456 -0.205275
v 0.005962 0.003044 -0.205275
v 0.005377 0.004460 -0.205275
v 0.005962 0.005878 -0.205275
v 0.007380 0.006466 -0.205275
v 0.008797 0.005878 -0.205275
v 0.009144 0.002697 -0.206087
v 0.009873 0.004460 -0.206087
v 0.007380 0.001968 -0.206087
v 0.005617 0.002697 -0.206087
v 0.004887 0.004460 -0.206087
v 0.005617 0.006223 -0.206087
v 0.007380 0.006954 -0.206087
v 0.009144 0.006223 -0.206087
v 0.002443 -0.005085 -0.205638
v 0.002443 -0.005085 -0.207450
v 0.001146 -0.005085 -0.207450
v 0.001146 -0.005085 -0.208900
v 0.002443 -0.005085 -0.209915
v 0.001515 -0.005085 -0.249500
v 0.000449 -0.005085 -0.253125
v 0.000449 -0.005085 -0.261390
v -0.000044 -0.005085 -0.261390
v -0.000044 -0.005085 -0.246971
v -0.000068 -0.005085 -0.261879
v -0.000044 -0.005085 -0.254964
v -0.004915 -0.005085 -0.286475
v -0.002916 -0.005085 -0.280326
v -0.001441 -0.005085 -0.274176
v -0.000492 -0.005085 -0.268028
v 0.000033 -0.010904 -0.205638
v 0.000033 -0.010904 -0.207450
v -0.000884 -0.009986 -0.207450
v -0.000884 -0.009986 -0.208900
v 0.000033 -0.010904 -0.209915
v -0.000623 -0.010247 -0.249500
v -0.001378 -0.009493 -0.253125
v -0.001378 -0.009493 -0.261390
v -0.001726 -0.009145 -0.261390
v -0.001726 -0.009145 -0.246971
v -0.001743 -0.009128 -0.261879
v -0.001726 -0.009145 -0.254964
v -0.005171 -0.005700 -0.286475
v -0.003755 -0.007115 -0.280326
v -0.002713 -0.008158 -0.274176
v -0.002043 -0.008828 -0.268028
v -0.005785 -0.013314 -0.205638
v -0.005785 -0.013314 -0.207450
v -0.005785 -0.012016 -0.207450
v -0.005785 -0.012016 -0.208900
v -0.005785 -0.013314 -0.209915
v -0.005785 -0.012386 -0.249500
v -0.005785 -0.011320 -0.253125
v -0.005785 -0.011320 -0.261390
v -0.005785 -0.010827 -0.261390
v -0.005785 -0.010827 -0.246971
v -0.005785 -0.010802 -0.261879
v -0.005785 -0.010827 -0.254964
v -0.005785 -0.005955 -0.286475
v -0.005785 -0.007955 -0.280326
v -0.005785 -0.009429 -0.274176
v -0.005785 -0.010379 -0.268028
v -0.011604 -0.010904 -0.205638
v -0.011604 -0.010904 -0.207450
v -0.010686 -0.009986 -0.207450
v -0.010686 -0.009986 -0.208900
v -0.011604 -0.010904 -0.209915
v -0.010948 -0.010247 -0.249500
v -0.010195 -0.009493 -0.253125
v -0.010195 -0.009493 -0.261390
v -0.009846 -0.009145 -0.261390
v -0.009846 -0.009145 -0.246971
v -0.009828 -0.009128 -0.261879
v -0.009846 -0.009145 -0.254964
v -0.006400 -0.005700 -0.286475
v -0.007815 -0.007115 -0.280326
v -0.008858 -0.008158 -0.274176
v -0.009529 -0.008828 -0.268028
v -0.014014 -0.005085 -0.205638
v -0.014014 -0.005085 -0.207450
v -0.012717 -0.005085 -0.207450
v -0.012717 -0.005085 -0.208900
v -0.014014 -0.005085 -0.209915
v -0.013086 -0.005085 -0.249500
v -0.012020 -0.005085 -0.253125
v -0.012020 -0.005085 -0.261390
v -0.011527 -0.005085 -0.261390
v -0.011527 -0.005085 -0.246971
v -0.011503 -0.005085 -0.261879
v -0.011527 -0.005085 -0.254964
v -0.006655 -0.005085 -0.286475
v -0.008655 -0.005085 -0.280326
v -0.010130 -0.005085 -0.274176
v -0.011079 -0.005085 -0.268028
v -0.011604 0.000734 -0.205638
v -0.011604 0.000734 -0.207450
v -0.010686 -0.000184 -0.207450
v -0.010686 -0.000184 -0.208900
v -0.011604 0.000734 -0.209915
v -0.010948 0.000077 -0.249500
v -0.010195 -0.000676 -0.253125
v -0.010195 -0.000676 -0.261390
v -0.009846 -0.001025 -0.261390
v -0.009846 -0.001025 -0.246971
v -0.009828 -0.001043 -0.261879
v -0.009846 -0.001025 -0.254964
v -0.006400 -0.004470 -0.286475
v -0.007815 -0.003055 -0.280326
v -0.008858 -0.002013 -0.274176
v -0.009529 -0.001341 -0.268028
v -0.005785 0.003144 -0.205638
v -0.005785 0.003144 -0.207450
v -0.005785 0.001846 -0.207450
v -0.005785 0.001846 -0.208900
v -0.005785 0.003144 -0.209915
v -0.005785 0.002216 -0.249500
v -0.005785 0.001150 -0.253125
v -0.005785 0.001150 -0.261390
v -0.005785 0.000657 -0.261390
v -0.005785 0.000657 -0.246971
v -0.005785 0.000632 -0.261879
v -0.005785 0.000657 -0.254964
v -0.005785 -0.004215 -0.286475
v -0.005785 -0.002216 -0.280326
v -0.005785 -0.000741 -0.274176
v -0.005785 0.000209 -0.268028
v 0.000033 0.000734 -0.205638
v 0.000033 0.000734 -0.207450
v -0.000884 -0.000184 -0.207450
v -0.000884 -0.000184 -0.208900
v 0.000033 0.000734 -0.209915
v -0.000623 0.000077 -0.249500
v -0.001378 -0.000676 -0.253125
v -0.001378 -0.000676 -0.261390
v -0.001726 -0.001025 -0.261390
v -0.001726 -0.001025 -0.246971
v -0.001743 -0.001043 -0.261879
v -0.001726 -0.001025 -0.254964
v -0.005171 -0.004470 -0.286475
v -0.003755 -0.003055 -0.280326
v -0.002713 -0.002013 -0.274176
v -0.002043 -0.001341 -0.268028
v -0.003776 -0.007095 -0.205275
v -0.002943 -0.005085 -0.205275
v -0.005785 -0.007927 -0.205275
v -0.007795 -0.007095 -0.205275
v -0.008627 -0.005085 -0.205275
v -0.007795 -0.003075 -0.205275
v -0.005785 -0.002243 -0.205275
v -0.003776 -0.003075 -0.205275
v -0.000884 -0.009986 -0.205275
v 0.001146 -0.005085 -0.205275
v -0.005785 -0.012016 -0.205275
v -0.010686 -0.009986 -0.205275
v -0.012717 -0.005085 -0.205275
v -0.010686 -0.000184 -0.205275
v -0.005785 0.001846 -0.205275
v -0.000884 -0.000184 -0.205275
v -0.004369 -0.006502 -0.205275
v -0.003782 -0.005085 -0.205275
v -0.005785 -0.007089 -0.205275
v -0.007204 -0.006502 -0.205275
v -0.007789 -0.005085 -0.205275
v -0.007204 -0.003667 -0.205275
v -0.005785 -0.003080 -0.205275
v -0.004369 -0.003667 -0.205275
v -0.004022 -0.006848 -0.206087
v -0.003293 -0.005085 -0.206087
v -0.005785 -0.007578 -0.206087
v -0.007549 -0.006848 -0.206087
v -0.008279 -0.005085 -0.206087
v -0.007549 -0.003322 -0.206087
v -0.005785 -0.002591 -0.206087
v -0.004022 -0.003322 -0.206087
v 0.017525 -0.254748 -0.322827
v 0.015854 0.011043 -0.205234
v 0.011252 -0.183223 -0.372947
v 0.009776 0.011043 -0.287061
v 0.011252 0.011043 -0.289669
v 0.017525 0.011043 -0.202333
v 0.009776 -0.005085 -0.287061
v 0.015854 -0.005085 -0.205234
v 0.017525 -0.027482 -0.225939
v 0.017525 -0.027699 -0.212796
v 0.020029 -0.027592 -0.223241
v 0.020029 -0.027723 -0.215496
v 0.017525 -0.026947 -0.258074
v 0.017525 -0.027166 -0.244931
v 0.023235 -0.256953 -0.322310
v 0.023235 -0.267316 -0.338308
v 0.020203 -0.254140 -0.318342
v 0.020203 -0.179919 -0.371932
v 0.018166 -0.267316 -0.338308
v 0.017525 -0.199600 -0.361472
v 0.017525 0.011043 -0.269672
v 0.015854 0.011043 -0.269084
v 0.015854 -0.005085 -0.269084
v 0.020029 -0.027050 -0.255377
v 0.020029 -0.027180 -0.247632
v 0.015854 0.011043 -0.208069
v 0.017525 0.011043 -0.208069
v 0.017525 0.011043 -0.265759
v 0.015854 0.011043 -0.265759
v 0.015869 0.015377 -0.208069
v 0.017510 0.015689 -0.208069
v 0.017510 0.015689 -0.265759
v 0.015869 0.015377 -0.265759
v 0.013165 0.018656 -0.208069
v 0.014525 0.019627 -0.208069
v 0.014525 0.019627 -0.265759
v 0.013165 0.018656 -0.265759
v 0.009487 0.020352 -0.208069
v 0.010572 0.021622 -0.208069
v 0.010572 0.021622 -0.265759
v 0.009487 0.020352 -0.265759
v 0.020029 -0.238812 -0.323209
v 0.020029 0.007353 -0.215458
v 0.020029 -0.232618 -0.327861
v 0.020029 0.007353 -0.223204
v 0.017525 -0.243454 -0.324949
v 0.017525 0.011043 -0.212758
v 0.017525 -0.232822 -0.332679
v 0.017525 0.011043 -0.225903
v 0.020029 -0.213109 -0.342506
v 0.020029 0.007353 -0.247598
v 0.020029 -0.206915 -0.347158
v 0.020029 0.007353 -0.255344
v 0.017525 -0.217458 -0.343850
v 0.017525 0.011043 -0.244899
v 0.017525 -0.206827 -0.351580
v 0.017525 0.011043 -0.258043
v 0.011252 -0.026422 -0.289697
v 0.017525 -0.027873 -0.202372
v 0.017525 -0.026754 -0.269703
v 0.011252 -0.071971 -0.295859
v 0.011252 -0.114821 -0.312491
v 0.011252 -0.152602 -0.338669
v 0.017525 -0.093777 -0.211290
v 0.017525 -0.155776 -0.235352
v 0.017525 -0.210441 -0.273229
v 0.017525 -0.165845 -0.323686
v 0.017525 -0.124198 -0.294828
v 0.017525 -0.076963 -0.276496
v 0.017525 -0.182252 -0.305123
v 0.017525 -0.135816 -0.272948
v 0.017525 -0.083149 -0.252507
v 0.020029 -0.175334 -0.312949
v 0.020029 -0.130918 -0.282173
v 0.020029 -0.080542 -0.262621
v 0.020029 -0.082476 -0.255120
v 0.020029 -0.134550 -0.275332
v 0.020029 -0.180464 -0.307146
v 0.017525 -0.079867 -0.265235
v 0.017525 -0.129652 -0.284557
v 0.017525 -0.173546 -0.314972
v 0.020029 -0.196619 -0.288868
v 0.020029 -0.145989 -0.253786
v 0.020029 -0.088566 -0.231500
v 0.017525 -0.194831 -0.290890
v 0.017525 -0.144723 -0.256170
v 0.017525 -0.087892 -0.234113
v 0.020029 -0.090500 -0.223999
v 0.020029 -0.149621 -0.246945
v 0.020029 -0.201749 -0.283065
v 0.017525 -0.091175 -0.221385
v 0.017525 -0.150887 -0.244560
v 0.017525 -0.203536 -0.281042
v 0.007314 0.009225 -0.288496
v 0.007314 0.002622 -0.288496
v 0.007314 0.009225 -0.297652
v 0.007314 0.002622 -0.297652
v 0.008683 0.009225 -0.193764
v 0.008683 -0.006737 -0.193764
v 0.008683 0.009225 -0.202919
v 0.008683 -0.016737 -0.202919
v 0.023235 -0.190369 -0.368677
v 0.018166 -0.188862 -0.385482
v 0.023235 -0.197781 -0.380119
v -0.015715 -0.254748 -0.322827
v -0.014045 0.011043 -0.205234
v -0.009442 -0.183223 -0.372947
v -0.007966 0.011043 -0.287061
v -0.009442 0.011043 -0.289669
v -0.015715 0.011043 -0.202333
v -0.007966 -0.005085 -0.287061
v -0.014045 -0.005085 -0.205234
v -0.015715 -0.027482 -0.225939
v -0.015715 -0.027699 -0.212796
v -0.018219 -0.027592 -0.223241
v -0.018219 -0.027723 -0.215496
v -0.015715 -0.026947 -0.258074
v -0.015715 -0.027166 -0.244931
v -0.021425 -0.256953 -0.322310
v -0.021425 -0.267316 -0.338308
v -0.018393 -0.254140 -0.318342
v -0.018393 -0.179919 -0.371932
v -0.016356 -0.267316 -0.338308
v -0.015715 -0.199600 -0.361472
v -0.015715 0.011043 -0.269672
v -0.014045 0.011043 -0.269084
v -0.014045 -0.005085 -0.269084
v -0.018219 -0.027050 -0.255377
v -0.018219 -0.027180 -0.247632
v -0.014045 0.011043 -0.208069
v -0.015715 0.011043 -0.208069
v -0.015715 0.011043 -0.265759
v -0.014045 0.011043 -0.265759
v -0.014059 0.015377 -0.208069
v -0.015701 0.015689 -0.208069
v -0.015701 0.015689 -0.265759
v -0.014059 0.015377 -0.265759
v -0.011355 0.018656 -0.208069
v -0.012715 0.019627 -0.208069
v -0.012715 0.019627 -0.265759
v -0.011355 0.018656 -0.265759
v -0.007676 0.020352 -0.208069
v -0.008762 0.021622 -0.208069
v -0.008762 0.021622 -0.265759
v -0.007676 0.020352 -0.265759
v -0.018219 -0.238812 -0.323209
v -0.018219 0.007353 -0.215458
v -0.018219 -0.232618 -0.327861
v -0.018219 0.007353 -0.223204
v -0.015715 -0.243454 -0.324949
v -0.015715 0.011043 -0.212758
v -0.015715 -0.232822 -0.332679
v -0.015715 0.011043 -0.225903
v -0.018219 -0.213109 -0.342506
v -0.018219 0.007353 -0.247598
v -0.018219 -0.206915 -0.347158
v -0.018219 0.007353 -0.255344
v -0.015715 -0.217458 -0.343850
v -0.015715 0.011043 -0.244899
v -0.015715 -0.206827 -0.351580
v -0.015715 0.011043 -0.258043
v -0.009442 -0.026422 -0.289697
v -0.015715 -0.027873 -0.202372
v -0.015715 -0.026754 -0.269703
v -0.009442 -0.071971 -0.295859
v -0.009442 -0.114821 -0.312491
v -0.009442 -0.152602 -0.338669
v -0.015715 -0.093777 -0.211290
v -0.015715 -0.155776 -0.235352
v -0.015715 -0.210441 -0.273229
v -0.015715 -0.165845 -0.323686
v -0.015715 -0.124198 -0.294828
v -0.015715 -0.076963 -0.276496
v -0.015715 -0.182252 -0.305123
v -0.015715 -0.135816 -0.272948
v -0.015715 -0.083149 -0.252507
v -0.018219 -0.175334 -0.312949
v -0.018219 -0.130918 -0.282173
v -0.018219 -0.080542 -0.262621
v -0.018219 -0.082476 -0.255120
v -0.018219 -0.134550 -0.275332
v -0.018219 -0.180464 -0.307146
v -0.015715 -0.079867 -0.265235
v -0.015715 -0.129652 -0.284557
v -0.015715 -0.173546 -0.314972
v -0.018219 -0.196619 -0.288868
v -0.018219 -0.145989 -0.253786
v -0.018219 -0.088566 -0.231500
v -0.015715 -0.194831 -0.290890
v -0.015715 -0.144723 -0.256170
v -0.015715 -0.087892 -0.234113
v -0.018219 -0.090500 -0.223999
v -0.018219 -0.149621 -0.246945
v -0.018219 -0.201749 -0.283065
v -0.015715 -0.091175 -0.221385
v -0.015715 -0.150887 -0.244560
v -0.015715 -0.203536 -0.281042
v -0.005504 0.009225 -0.288496
v -0.005504 0.002622 -0.288496
v -0.005504 0.009225 -0.297652
v -0.005504 0.002622 -0.297652
v -0.006873 0.009225 -0.193764
v -0.006873 -0.006737 -0.193764
v -0.006873 0.009225 -0.202919
v -0.006873 -0.016737 -0.202919
v -0.021425 -0.190369 -0.368677
v -0.016356 -0.188862 -0.385482
v -0.021425 -0.197781 -0.380119
v 0.000909 0.015309 -0.331038
v 0.000909 0.015309 -0.718078
v 0.008048 0.018267 -0.331038
v 0.008048 0.018267 -0.718078
v 0.011005 0.025405 -0.331038
v 0.011005 0.025405 -0.718078
v 0.008048 0.032544 -0.331038
v 0.008048 0.032544 -0.718078
v 0.000909 0.035500 -0.331038
v 0.000909 0.035500 -0.718078
v -0.006229 0.032544 -0.331038
v -0.006229 0.032544 -0.718078
v -0.009186 0.025405 -0.331038
v -0.009186 0.025405 -0.718078
v -0.006229 0.018267 -0.331038
v -0.006229 0.018267 -0.718078
v 0.000909 0.016537 -0.331038
v 0.010386 0.015928 -0.331038
v 0.010386 0.015928 -0.718078
v 0.000909 0.012003 -0.718078
v 0.014311 0.025405 -0.331038
v 0.014311 0.025405 -0.718078
v 0.010386 0.034881 -0.331038
v 0.010386 0.034881 -0.718078
v 0.000909 0.038806 -0.331038
v 0.000909 0.038806 -0.718078
v -0.008567 0.034881 -0.331038
v -0.008567 0.034881 -0.718078
v -0.012492 0.025405 -0.331038
v -0.012492 0.025405 -0.718078
v -0.008567 0.015928 -0.331038
v -0.008567 0.015928 -0.718078
v 0.000909 0.025405 -0.335363
v 0.000909 0.025405 -0.698182
v 0.023863 -0.035948 -0.297459
v 0.023863 -0.035948 0.023170
v 0.023863 0.034094 0.023170
v 0.023863 -0.009318 -0.336406
v 0.023863 0.034094 -0.158669
v 0.023863 0.020990 -0.336406
v 0.023863 0.020990 -0.170294
v 0.023863 0.027409 -0.158669
v -0.022053 -0.035948 -0.297459
v -0.022053 -0.035948 0.023170
v -0.022053 0.034094 0.023170
v -0.022053 -0.009318 -0.336406
v -0.022053 0.034094 -0.158669
v -0.022053 0.020990 -0.336406
v -0.022053 0.020990 -0.170294
v -0.022053 0.027409 -0.158669
v 0.005016 -0.039933 -0.110393
v 0.005016 -0.039933 -0.097001
v 0.005016 -0.067872 -0.110603
v 0.005016 -0.035297 -0.089707
v 0.005016 -0.035297 -0.113360
v 0.005016 -0.067872 -0.114156
v 0.005016 -0.059259 -0.105032
v 0.005016 -0.059259 -0.109330
v 0.005016 -0.049094 -0.102747
v 0.005016 -0.049094 -0.107374
v -0.003206 -0.039933 -0.110393
v -0.003206 -0.039933 -0.097001
v -0.003206 -0.067872 -0.110603
v -0.003206 -0.035297 -0.089707
v -0.003206 -0.035297 -0.113360
v -0.003206 -0.067872 -0.114156
v -0.003206 -0.059259 -0.105032
v -0.003206 -0.059259 -0.109330
v -0.003206 -0.049094 -0.102747
v -0.003206 -0.049094 -0.107374
v 0.008245 -0.082491 -0.093819
v 0.008245 -0.077952 -0.094846
v 0.008245 -0.082440 -0.137764
v 0.008245 -0.078004 -0.136359
v 0.008245 -0.076119 -0.075451
v 0.008245 -0.071920 -0.077455
v 0.008245 -0.070506 -0.154914
v 0.008245 -0.066700 -0.152235
v -0.006435 -0.082491 -0.093819
v -0.006435 -0.077952 -0.094846
v -0.006435 -0.082440 -0.137764
v -0.006435 -0.078004 -0.136359
v -0.006435 -0.076119 -0.075451
v -0.006435 -0.071920 -0.077455
v -0.006435 -0.070506 -0.154914
v -0.006435 -0.066700 -0.152235
v 0.013527 -0.035112 -0.151640
v 0.013527 -0.073995 -0.151640
v 0.013527 -0.035112 -0.192103
v 0.009724 -0.035112 -0.169707
v 0.013527 -0.073995 -0.192103
v 0.022175 -0.035112 -0.201435
v 0.022175 -0.073995 -0.201435
v 0.022175 -0.035112 -0.296216
v 0.018957 -0.035112 -0.201435
v 0.022175 -0.045810 -0.296216
v 0.009724 -0.035112 -0.192103
v 0.009724 -0.073995 -0.192103
v 0.018957 -0.073995 -0.201435
v 0.009724 -0.073995 -0.169707
v 0.018957 -0.035112 -0.291844
v 0.018957 -0.045810 -0.291844
v -0.011717 -0.035112 -0.151640
v -0.011717 -0.073995 -0.151640
v -0.011717 -0.035112 -0.192103
v -0.007913 -0.035112 -0.169707
v -0.011717 -0.073995 -0.192103
v -0.020365 -0.035112 -0.201435
v -0.020365 -0.073995 -0.201435
v -0.020365 -0.035112 -0.296216
v -0.017148 -0.035112 -0.201435
v -0.020365 -0.045810 -0.296216
v -0.007913 -0.035112 -0.192103
v -0.007913 -0.073995 -0.192103
v -0.017148 -0.073995 -0.201435
v -0.007913 -0.073995 -0.169707
v -0.017148 -0.035112 -0.291844
v -0.017148 -0.045810 -0.291844
v 0.005016 -0.033646 -0.174206
v 0.005016 -0.109543 -0.163322
v 0.005016 -0.081088 -0.172308
v 0.013027 -0.081989 -0.176343
v 0.005016 -0.065988 -0.174206
v 0.013027 -0.111348 -0.167358
v 0.009438 -0.109543 -0.163322
v 0.009438 -0.081088 -0.172308
v -0.003206 -0.033646 -0.174206
v -0.003206 -0.109543 -0.163322
v -0.003206 -0.081088 -0.172308
v -0.011216 -0.081989 -0.176343
v -0.003206 -0.065988 -0.174206
v -0.011216 -0.111348 -0.167358
v -0.007628 -0.109543 -0.163322
v -0.007628 -0.081088 -0.172308
v 0.005016 -0.033646 -0.177106
v 0.005016 -0.110416 -0.166087
v 0.005016 -0.081796 -0.175131
v 0.010810 -0.082544 -0.178128
v 0.005016 -0.066169 -0.177106
v 0.010810 -0.111904 -0.169144
v 0.008052 -0.110406 -0.166074
v 0.008062 -0.081953 -0.175063
v -0.003206 -0.033646 -0.177106
v -0.003206 -0.110416 -0.166087
v -0.003206 -0.081796 -0.175131
v -0.009000 -0.082544 -0.178128
v -0.003206 -0.066169 -0.177106
v -0.009000 -0.111904 -0.169144
v -0.006242 -0.110406 -0.166074
v -0.006252 -0.081953 -0.175063
v 0.030304 0.035896 -0.602729
v 0.030304 0.035896 -0.336406
v 0.012319 0.081110 -0.602729
v 0.024675 0.070918 -0.602729
v 0.024675 0.070918 -0.336406
v 0.012319 0.081110 -0.336406
v 0.024660 0.000782 -0.602729
v 0.012319 -0.009318 -0.602729
v 0.012319 -0.009318 -0.336406
v 0.024660 0.000782 -0.336406
v -0.028494 0.035896 -0.602729
v -0.028494 0.035896 -0.336406
v -0.010510 0.081110 -0.602729
v -0.022865 0.070918 -0.602729
v -0.022865 0.070918 -0.336406
v -0.010510 0.081110 -0.336406
v -0.022849 0.000782 -0.602729
v -0.010510 -0.009318 -0.602729
v -0.010510 -0.009318 -0.336406
v -0.022849 0.000782 -0.336406
v 0.012319 0.081110 -0.550308
v -0.010510 0.081110 -0.550308
v -0.014465 0.090690 -0.550308
v 0.012319 0.086345 -0.550308
v -0.010510 0.086345 -0.550308
v 0.012319 0.081110 -0.072718
v -0.010510 0.081110 -0.072718
v -0.014465 0.090690 -0.072718
v 0.012319 0.086345 -0.072718
v -0.010510 0.086345 -0.072718
v 0.012319 0.095036 -0.550308
v -0.010510 0.095036 -0.550308
v 0.016275 0.090690 -0.550308
v 0.012319 0.095036 -0.072718
v -0.010510 0.095036 -0.072718
v 0.016275 0.090690 -0.072718
v 0.012319 -0.009316 -0.336406
v -0.010510 -0.009316 -0.336406
v -0.014465 -0.018896 -0.336406
v 0.012319 -0.014551 -0.336406
v -0.010510 -0.014551 -0.336406
v 0.012319 -0.009318 -0.602729
v -0.010510 -0.009318 -0.602729
v -0.014465 -0.018896 -0.602729
v 0.012319 -0.014551 -0.602729
v -0.010510 -0.014551 -0.602729
v 0.012319 -0.023242 -0.336406
v -0.010510 -0.023242 -0.336406
v 0.016275 -0.018896 -0.336406
v 0.012319 -0.023242 -0.602729
v -0.010510 -0.023242 -0.602729
v 0.016275 -0.018896 -0.602729
v -0.025452 0.024482 -0.463163
v -0.025452 0.047312 -0.463163
v -0.041840 0.051266 -0.463163
v -0.037494 0.024482 -0.463163
v -0.037494 0.047312 -0.463163
v -0.025452 0.024482 -0.602729
v -0.025452 0.047312 -0.602729
v -0.041840 0.051266 -0.602729
v -0.037494 0.024482 -0.602729
v -0.037494 0.047312 -0.602729
v -0.046185 0.024482 -0.463163
v -0.046185 0.047312 -0.463163
v -0.041840 0.020526 -0.463163
v -0.046185 0.024482 -0.602729
v -0.046185 0.047312 -0.602729
v -0.041840 0.020526 -0.602729
v 0.043649 0.020526 -0.602729
v 0.027261 0.024482 -0.602729
v 0.027261 0.047312 -0.602729
v 0.039304 0.024482 -0.463163
v 0.039304 0.047312 -0.463163
v 0.043649 0.020526 -0.463163
v 0.027261 0.024482 -0.463163
v 0.027261 0.047312 -0.463163
v 0.039304 0.047312 -0.602729
v 0.039304 0.024482 -0.602729
v 0.047995 0.047312 -0.463163
v 0.047995 0.024482 -0.463163
v 0.043649 0.051266 -0.463163
v 0.047995 0.047312 -0.602729
v 0.047995 0.024482 -0.602729
v 0.043649 0.051266 -0.602729
v 0.014681 0.014662 0.037670
v 0.014681 0.029177 0.023155
v 0.014681 -0.147220 0.313719
v 0.014681 -0.132705 0.299205
v 0.014681 0.029177 0.313719
v 0.014681 0.014662 0.299205
v 0.014681 -0.024417 0.023155
v 0.014681 -0.015957 0.037670
v 0.014681 -0.147220 0.239929
v 0.014681 -0.132705 0.243754
v -0.012872 0.029177 0.023155
v -0.012872 0.014662 0.037670
v -0.012872 -0.132705 0.299205
v -0.012872 -0.147220 0.313719
v -0.012872 0.014662 0.299205
v -0.012872 0.029177 0.313719
v -0.012872 -0.015957 0.037670
v -0.012872 -0.024417 0.023155
v -0.012872 -0.132705 0.243754
v -0.012872 -0.147220 0.239929
v 0.000905 0.037628 0.066127
v 0.020196 0.027673 0.066127
v 0.020196 0.027673 0.280530
v 0.014771 -0.024099 0.066127
v 0.014728 0.035094 0.066127
v 0.014728 0.035094 0.280530
v 0.014771 -0.059772 0.280530
v 0.014771 -0.086094 0.243442
v 0.000905 0.037628 0.280530
v 0.022623 0.003586 0.080926
v 0.022623 0.003586 0.265731
v 0.021937 -0.012186 0.080926
v 0.021937 -0.012186 0.265731
v 0.018389 0.010698 0.080926
v 0.018389 0.010698 0.265731
v 0.018389 -0.017172 0.080926
v 0.018389 -0.017172 0.265731
v -0.018386 0.027673 0.066127
v -0.018386 0.027673 0.280530
v -0.012962 -0.024099 0.066127
v -0.012918 0.035094 0.066127
v -0.012918 0.035094 0.280530
v -0.012962 -0.059772 0.280530
v -0.012962 -0.086094 0.243442
v -0.020813 0.003586 0.080926
v -0.020813 0.003586 0.265731
v -0.020127 -0.012186 0.080926
v -0.020127 -0.012186 0.265731
v -0.016579 0.010698 0.080926
v -0.016579 0.010698 0.265731
v -0.016579 -0.017172 0.080926
v -0.016579 -0.017172 0.265731
v 0.010659 0.113751 -0.568067
v 0.016513 0.113751 -0.568067
v 0.010659 0.076216 -0.598290
v 0.016513 0.076216 -0.598290
v 0.016513 0.076216 -0.551940
v 0.010659 0.076216 -0.551940
v 0.016513 0.107301 -0.571892
v 0.010659 0.107301 -0.571892
v 0.016513 0.107301 -0.588603
v 0.010659 0.107301 -0.588603
v 0.010659 0.087774 -0.589706
v 0.010659 0.095720 -0.592277
v 0.016513 0.095720 -0.592277
v 0.016513 0.087774 -0.589706
v 0.016513 0.087774 -0.568661
v 0.016513 0.095720 -0.566090
v 0.010659 0.095720 -0.566090
v 0.010659 0.087774 -0.568661
v 0.002726 0.101432 -0.582162
v 0.002726 0.101432 -0.576919
v 0.002726 0.079940 -0.582162
v 0.002726 0.079940 -0.576919
v 0.010659 0.113751 -0.591735
v 0.010659 0.107196 -0.598290
v 0.016513 0.107196 -0.598290
v 0.016513 0.113751 -0.591735
v -0.008849 0.113751 -0.568067
v -0.014703 0.113751 -0.568067
v -0.008849 0.076216 -0.598290
v -0.014703 0.076216 -0.598290
v -0.014703 0.076216 -0.551940
v -0.008849 0.076216 -0.551940
v -0.014703 0.107301 -0.571892
v -0.008849 0.107301 -0.571892
v -0.014703 0.107301 -0.588603
v -0.008849 0.107301 -0.588603
v -0.008849 0.087774 -0.589706
v -0.008849 0.095720 -0.592277
v -0.014703 0.095720 -0.592277
v -0.014703 0.087774 -0.589706
v -0.014703 0.087774 -0.568661
v -0.014703 0.095720 -0.566090
v -0.008849 0.095720 -0.566090
v -0.008849 0.087774 -0.568661
v -0.000916 0.101432 -0.582162
v -0.000916 0.101432 -0.576919
v -0.000916 0.079940 -0.582162
v -0.000916 0.079940 -0.576919
v -0.008849 0.113751 -0.591735
v -0.008849 0.107196 -0.598290
v -0.014703 0.107196 -0.598290
v -0.014703 0.113751 -0.591735
v 0.010659 0.070032 -0.070795
v 0.016513 0.070032 -0.070795
v 0.016513 0.070032 -0.027472
v 0.010659 0.070032 -0.027472
v 0.010659 0.113751 -0.053760
v 0.010659 0.105142 -0.062553
v 0.010659 0.105142 -0.027472
v 0.010659 0.113751 -0.034417
v 0.016513 0.105142 -0.062553
v 0.016513 0.113751 -0.053760
v 0.016513 0.113751 -0.034417
v 0.016513 0.105142 -0.027472
v 0.010659 0.095735 -0.027472
v 0.016513 0.095735 -0.027472
v 0.010659 0.095735 -0.070795
v 0.016513 0.095735 -0.070795
v -0.008849 0.070032 -0.070795
v -0.014703 0.070032 -0.070795
v -0.014703 0.070032 -0.027472
v -0.008849 0.070032 -0.027472
v -0.008849 0.113751 -0.053760
v -0.008849 0.105142 -0.062553
v -0.008849 0.105142 -0.027472
v -0.008849 0.113751 -0.034417
v -0.014703 0.105142 -0.062553
v -0.014703 0.113751 -0.053760
v -0.014703 0.113751 -0.034417
v -0.014703 0.105142 -0.027472
v -0.008849 0.095735 -0.027472
v -0.014703 0.095735 -0.027472
v -0.008849 0.095735 -0.070795
v -0.014703 0.095735 -0.070795
v 0.000909 0.009709 -0.781324
v 0.012009 0.014306 -0.781324
v 0.016605 0.025405 -0.781324
v 0.012009 0.036504 -0.781324
v 0.000909 0.041102 -0.781324
v -0.010189 0.036504 -0.781324
v -0.014787 0.025405 -0.781324
v -0.010189 0.014306 -0.781324
v 0.000909 0.009709 -0.732908
v 0.012009 0.014306 -0.732908
v 0.016605 0.025405 -0.732908
v 0.012009 0.036504 -0.732908
v 0.000909 0.041102 -0.732908
v -0.010189 0.036504 -0.732908
v -0.014787 0.025405 -0.732908
v -0.010189 0.014306 -0.732908
v 0.000909 0.009709 -0.728023
v 0.012009 0.014306 -0.728023
v 0.016605 0.025405 -0.728023
v 0.012009 0.036504 -0.728023
v 0.000909 0.041102 -0.728023
v -0.010189 0.036504 -0.728023
v -0.014787 0.025405 -0.728023
v -0.010189 0.014306 -0.728023
v 0.000909 0.009709 -0.718078
v 0.012009 0.014306 -0.718078
v 0.016605 0.025405 -0.718078
v 0.012009 0.036504 -0.718078
v 0.000909 0.041102 -0.718078
v -0.010189 0.036504 -0.718078
v -0.014787 0.025405 -0.718078
v -0.010189 0.014306 -0.718078
v 0.009329 0.037614 -0.769518
v 0.003589 0.039992 -0.769518
v 0.003589 0.039992 -0.743003
v 0.009329 0.037614 -0.743003
v 0.013118 0.016985 -0.769518
v 0.015496 0.022726 -0.769518
v 0.015496 0.022726 -0.743003
v 0.013118 0.016985 -0.743003
v -0.013678 0.022726 -0.769518
v -0.011300 0.016985 -0.769518
v -0.011300 0.016985 -0.743003
v -0.013678 0.022726 -0.743003
v -0.001770 0.039992 -0.769518
v -0.007511 0.037614 -0.769518
v -0.007511 0.037614 -0.743003
v -0.001770 0.039992 -0.743003
v 0.015496 0.028085 -0.769518
v 0.013118 0.033826 -0.769518
v 0.013118 0.033826 -0.743003
v 0.015496 0.028085 -0.743003
v 0.003589 0.010818 -0.769518
v 0.009329 0.013196 -0.769518
v 0.009329 0.013196 -0.743003
v 0.003589 0.010818 -0.743003
v -0.007511 0.013196 -0.769518
v -0.001770 0.010818 -0.769518
v -0.001770 0.010818 -0.743003
v -0.007511 0.013196 -0.743003
v -0.011300 0.033826 -0.769518
v -0.013678 0.028085 -0.769518
v -0.013678 0.028085 -0.743003
v -0.011300 0.033826 -0.743003
v 0.009786 0.016529 -0.718078
v 0.000909 0.012851 -0.718078
v 0.013462 0.025405 -0.718078
v 0.009786 0.034281 -0.718078
v 0.000909 0.037958 -0.718078
v -0.007968 0.034281 -0.718078
v -0.011644 0.025405 -0.718078
v -0.007968 0.016529 -0.718078
v 0.000909 0.012847 -0.781324
v 0.009789 0.016526 -0.781324
v 0.013466 0.025405 -0.781324
v 0.009789 0.034285 -0.781324
v 0.000909 0.037962 -0.781324
v -0.007971 0.034285 -0.781324
v -0.011648 0.025405 -0.781324
v -0.007971 0.016526 -0.781324
v 0.008220 0.034935 -0.769518
v 0.002478 0.037313 -0.769518
v 0.002478 0.037313 -0.743003
v 0.008220 0.034935 -0.743003
v 0.010439 0.018095 -0.769518
v 0.012817 0.023835 -0.769518
v 0.012817 0.023835 -0.743003
v 0.010439 0.018095 -0.743003
v -0.010998 0.023835 -0.769518
v -0.008620 0.018095 -0.769518
v -0.008620 0.018095 -0.743003
v -0.010998 0.023835 -0.743003
v -0.000660 0.037313 -0.769518
v -0.006400 0.034935 -0.769518
v -0.006400 0.034935 -0.743003
v -0.000660 0.037313 -0.743003
v 0.012817 0.026974 -0.769518
v 0.010439 0.032715 -0.769518
v 0.010439 0.032715 -0.743003
v 0.012817 0.026974 -0.743003
v 0.002478 0.013498 -0.769518
v 0.008220 0.015876 -0.769518
v 0.008220 0.015876 -0.743003
v 0.002478 0.013498 -0.743003
v -0.006400 0.015876 -0.769518
v -0.000660 0.013498 -0.769518
v -0.000660 0.013498 -0.743003
v -0.006400 0.015876 -0.743003
v -0.008620 0.032715 -0.769518
v -0.010998 0.026974 -0.769518
v -0.010998 0.026974 -0.743003
v -0.008620 0.032715 -0.743003
v 0.012319 0.081110 -0.336406
v 0.025072 -0.003869 -0.309273
v -0.022053 0.034094 -0.336406
v -0.023262 -0.003869 -0.309273
v -0.022053 0.055796 -0.336406
v -0.010510 0.081110 -0.336406
v 0.019231 0.062130 -0.336406
v -0.016787 0.062130 -0.336406
v 0.012319 0.081110 -0.013327
v 0.023863 0.051083 0.013491
v 0.023863 0.034094 0.023170
v -0.022053 0.034094 0.023170
v -0.022053 0.051083 0.013491
v -0.010510 0.081110 -0.013327
v 0.019231 0.062130 -0.003210
v -0.016787 0.062130 -0.003210
v 0.023863 0.051083 -0.216057
v 0.023863 0.034094 -0.201514
v 0.019231 0.062130 -0.222079
v -0.013576 0.062130 -0.336406
v -0.013576 0.055796 -0.336406
v -0.013576 0.051083 -0.216057
v -0.013576 0.034094 -0.336406
v -0.013576 0.034094 -0.201514
v -0.013576 0.062130 -0.222079
v 0.018360 -0.035110 -0.076241
v 0.011110 -0.035110 -0.082243
v 0.011110 -0.204001 -0.027340
v 0.018360 -0.201509 -0.019253
v 0.018360 -0.183943 0.037794
v 0.011110 -0.181810 0.044717
v 0.011110 -0.035110 0.001707
v 0.018360 -0.035110 -0.005368
v 0.011110 -0.156378 -0.038782
v 0.018360 -0.154361 -0.030601
v 0.011110 -0.089059 -0.065170
v 0.018360 -0.088807 -0.056201
v 0.011110 -0.080329 -0.082243
v 0.018360 -0.078703 -0.076290
v 0.011110 -0.059101 -0.004562
v 0.018360 -0.061178 -0.012161
v 0.011110 -0.087465 0.000106
v 0.018360 -0.087687 -0.007794
v 0.018360 -0.139577 0.016729
v 0.011110 -0.137834 0.023797
v -0.009299 -0.035110 -0.082243
v -0.016549 -0.035110 -0.076241
v -0.016549 -0.201509 -0.019253
v -0.009299 -0.204001 -0.027340
v -0.009299 -0.181810 0.044717
v -0.016549 -0.183943 0.037794
v -0.016549 -0.035110 -0.005368
v -0.009299 -0.035110 0.001707
v -0.016549 -0.154361 -0.030601
v -0.009299 -0.156378 -0.038782
v -0.016549 -0.088807 -0.056201
v -0.009299 -0.089059 -0.065170
v -0.016549 -0.078703 -0.076290
v -0.009299 -0.080329 -0.082243
v -0.016549 -0.061178 -0.012161
v -0.009299 -0.059101 -0.004562
v -0.016549 -0.087687 -0.007794
v -0.009299 -0.087465 0.000106
v -0.009299 -0.137834 0.023797
v -0.016549 -0.139577 0.016729
v 0.000905 0.111298 -0.047682
v 0.007006 0.108772 -0.047682
v 0.007006 0.108772 -0.041544
v 0.000905 0.111298 -0.041544
v 0.009534 0.102670 -0.047682
v 0.009534 0.102670 -0.041544
v 0.009534 0.093328 -0.047682
v 0.009534 0.093328 -0.041544
v -0.007724 0.093328 -0.047682
v -0.007724 0.093328 -0.041544
v -0.007724 0.102670 -0.047682
v -0.007724 0.102670 -0.041544
v -0.005197 0.108772 -0.047682
v -0.005197 0.108772 -0.041544
v 0.000905 0.108160 -0.047682
v 0.004786 0.106552 -0.047682
v 0.004786 0.106552 -0.041544
v 0.000905 0.108160 -0.041544
v 0.006634 0.102093 -0.047682
v 0.006634 0.102093 -0.041544
v 0.006634 0.093328 -0.047682
v 0.006634 0.093328 -0.041544
v -0.004824 0.093328 -0.047682
v -0.004824 0.093328 -0.041544
v -0.004824 0.102093 -0.047682
v -0.004824 0.102093 -0.041544
v -0.002977 0.106552 -0.047682
v -0.002977 0.106552 -0.041544
v 0.008058 0.064422 -0.202648
v 0.008058 0.064422 -0.337132
v 0.021418 0.018785 -0.337132
v 0.021418 0.018785 -0.156745
v 0.021418 0.046519 -0.156745
v 0.021418 0.046519 -0.337132
v 0.021418 0.046519 -0.202648
v 0.021418 0.024382 -0.250460
v 0.021418 0.028275 -0.246567
v 0.021418 0.028275 -0.293152
v 0.021418 0.024382 -0.289258
v 0.021418 0.039842 -0.246567
v 0.021418 0.043735 -0.250460
v 0.021418 0.043735 -0.289258
v 0.021418 0.039842 -0.293152
v -0.003945 0.064422 -0.202648
v -0.003945 0.064422 -0.337132
v -0.018527 0.018785 -0.337132
v -0.018527 0.018785 -0.156745
v -0.018527 0.046519 -0.156745
v -0.018527 0.046519 -0.337132
v -0.018527 0.046519 -0.202648
v -0.025223 -0.017999 -0.125905
v -0.025223 -0.007853 -0.039882
v -0.025223 0.006747 -0.042267
v -0.028416 -0.014435 -0.123824
v -0.028416 -0.006567 -0.042756
v 0.027322 -0.003399 -0.128292
v 0.027322 -0.017999 -0.125905
v 0.027322 -0.013969 -0.044460
v 0.027322 -0.007853 -0.039882
v 0.027322 0.006747 -0.042267
v 0.042262 -0.008720 -0.115816
v 0.042262 -0.010528 -0.115607
v -0.040162 -0.008720 -0.115816
v 0.042262 -0.010839 -0.121604
v 0.042262 -0.012648 -0.121395
v 0.042262 -0.010017 -0.109632
v 0.042262 -0.011826 -0.109423
v -0.040162 -0.010839 -0.121604
v -0.040162 -0.010017 -0.109632
v -0.040162 -0.011826 -0.109423
v 0.031790 0.000693 -0.051832
v -0.029692 0.000693 -0.051832
v 0.031790 -0.002756 -0.050403
v -0.029692 -0.002756 -0.050403
v 0.031790 -0.006206 -0.051832
v -0.029692 -0.006206 -0.051832
v 0.031790 -0.007634 -0.055281
v 0.031790 -0.006206 -0.058731
v -0.029692 -0.002756 -0.060159
v -0.029692 0.000693 -0.058731
v 0.031790 0.002123 -0.055281
v -0.025223 0.011088 -0.048555
v -0.025223 -0.003399 -0.128292
v -0.025223 -0.013969 -0.044460
v -0.028416 0.007492 -0.048752
v -0.028416 -0.010624 -0.045791
v -0.028416 -0.006115 -0.125184
v -0.028416 0.004612 -0.044583
v 0.027322 0.011088 -0.048555
v -0.040162 -0.010528 -0.115607
v 0.030515 0.007492 -0.048752
v 0.030515 -0.010624 -0.045791
v 0.030515 -0.006115 -0.125184
v 0.030515 0.004612 -0.044583
v 0.030515 -0.014435 -0.123824
v 0.030515 -0.006567 -0.042756
v -0.040162 -0.012648 -0.121395
v -0.029692 -0.007634 -0.055281
v -0.029692 -0.006206 -0.058731
v 0.031790 -0.002756 -0.060159
v 0.031790 0.000693 -0.058731
v -0.029692 0.002123 -0.055281
v -0.022745 0.098046 -0.057587
v -0.016139 0.098046 -0.057587
v -0.022745 0.092069 -0.055110
v -0.016139 0.092069 -0.055110
v -0.022745 0.089593 -0.049133
v -0.016139 0.089593 -0.049133
v -0.022745 0.092069 -0.043156
v -0.016139 0.092069 -0.043156
v -0.022745 0.098046 -0.040680
v -0.016139 0.098046 -0.040680
v -0.022745 0.104023 -0.043156
v -0.016139 0.104023 -0.043156
v -0.022745 0.106500 -0.049133
v -0.016139 0.106500 -0.049133
v -0.022745 0.104023 -0.055110
v -0.016139 0.104023 -0.055110
v -0.016698 0.098046 -0.054485
v -0.013462 0.098046 -0.054485
v -0.016698 0.094263 -0.052918
v -0.013462 0.094263 -0.052918
v -0.016698 0.092696 -0.049133
v -0.013462 0.092696 -0.049133
v -0.016698 0.094263 -0.045350
v -0.013462 0.094263 -0.045350
v -0.016698 0.098046 -0.043783
v -0.013462 0.098046 -0.043783
v -0.016698 0.101831 -0.045350
v -0.013462 0.101831 -0.045350
v -0.016698 0.103398 -0.049133
v -0.013462 0.103398 -0.049133
v -0.016698 0.101831 -0.052918
v -0.013462 0.101831 -0.052918
v 0.000905 -0.003980 -0.354951
v 0.000905 -0.003980 -0.402598
v 0.028191 0.007322 -0.354951
v 0.028191 0.007322 -0.402598
v 0.039492 0.034609 -0.354951
v 0.039492 0.034609 -0.402598
v 0.028191 0.061893 -0.354951
v 0.028191 0.061893 -0.402598
v 0.000905 0.073196 -0.354951
v 0.000905 0.073196 -0.402598
v -0.026381 0.061893 -0.354951
v -0.026381 0.061893 -0.402598
v -0.037683 0.034609 -0.354951
v -0.037683 0.034609 -0.402598
v -0.026381 0.007322 -0.354951
v -0.026381 0.007322 -0.402598
v 0.000905 -0.001417 -0.378775
v 0.026378 0.009135 -0.378775
v 0.036930 0.034609 -0.378775
v 0.026378 0.060082 -0.378775
v 0.000905 0.070632 -0.378775
v -0.024569 0.060082 -0.378775
v -0.035120 0.034609 -0.378775
v -0.024569 0.009135 -0.378775
v 0.027240 0.034101 -0.321700
v 0.027240 0.032302 -0.326044
v 0.027240 0.027957 -0.327844
v 0.027240 0.023613 -0.326044
v 0.027240 0.021814 -0.321700
v 0.027240 0.023613 -0.317356
v 0.027240 0.027957 -0.315556
v 0.027240 0.032302 -0.317356
v 0.026667 0.039991 -0.321700
v 0.058265 0.039991 -0.321700
v 0.026667 0.036467 -0.330208
v 0.058265 0.036467 -0.330208
v 0.026667 0.027957 -0.333733
v 0.058265 0.027957 -0.333733
v 0.026667 0.019449 -0.330208
v 0.058265 0.019449 -0.330208
v 0.026667 0.015925 -0.321700
v 0.058265 0.015925 -0.321700
v 0.026667 0.019449 -0.313190
v 0.058265 0.019449 -0.313190
v 0.026667 0.027957 -0.309666
v 0.058265 0.027957 -0.309666
v 0.026667 0.036467 -0.313190
v 0.058265 0.036467 -0.313190
v 0.031130 0.039991 -0.321700
v 0.053802 0.039991 -0.321700
v 0.053802 0.036467 -0.330208
v 0.031130 0.036467 -0.330208
v 0.053802 0.027957 -0.333733
v 0.031130 0.027957 -0.333733
v 0.053802 0.019449 -0.330208
v 0.031130 0.019449 -0.330208
v 0.053802 0.015925 -0.321700
v 0.031130 0.015925 -0.321700
v 0.053802 0.019449 -0.313190
v 0.031130 0.019449 -0.313190
v 0.053802 0.027957 -0.309666
v 0.031130 0.027957 -0.309666
v 0.053802 0.036467 -0.313190
v 0.031130 0.036467 -0.313190
v 0.033475 0.036218 -0.321700
v 0.051456 0.036218 -0.321700
v 0.051456 0.033800 -0.327540
v 0.033475 0.033800 -0.327540
v 0.051456 0.027957 -0.329961
v 0.033475 0.027957 -0.329961
v 0.051456 0.022117 -0.327540
v 0.033475 0.022117 -0.327540
v 0.051456 0.019697 -0.321700
v 0.033475 0.019697 -0.321700
v 0.051456 0.022117 -0.315858
v 0.033475 0.022117 -0.315858
v 0.051456 0.027957 -0.313439
v 0.033475 0.027957 -0.313439
v 0.051456 0.033800 -0.315858
v 0.033475 0.033800 -0.315858
v -0.025430 0.034101 -0.321700
v -0.025430 0.032302 -0.326044
v -0.025430 0.027957 -0.327844
v -0.025430 0.023613 -0.326044
v -0.025430 0.021814 -0.321700
v -0.025430 0.023613 -0.317356
v -0.025430 0.027957 -0.315556
v -0.025430 0.032302 -0.317356
v -0.024857 0.039991 -0.321700
v -0.056456 0.039991 -0.321700
v -0.024857 0.036467 -0.330208
v -0.056456 0.036467 -0.330208
v -0.024857 0.027957 -0.333733
v -0.056456 0.027957 -0.333733
v -0.024857 0.019449 -0.330208
v -0.056456 0.019449 -0.330208
v -0.024857 0.015925 -0.321700
v -0.056456 0.015925 -0.321700
v -0.024857 0.019449 -0.313190
v -0.056456 0.019449 -0.313190
v -0.024857 0.027957 -0.309666
v -0.056456 0.027957 -0.309666
v -0.024857 0.036467 -0.313190
v -0.056456 0.036467 -0.313190
v -0.029320 0.039991 -0.321700
v -0.051991 0.039991 -0.321700
v -0.051991 0.036467 -0.330208
v -0.029320 0.036467 -0.330208
v -0.051991 0.027957 -0.333733
v -0.029320 0.027957 -0.333733
v -0.051991 0.019449 -0.330208
v -0.029320 0.019449 -0.330208
v -0.051991 0.015925 -0.321700
v -0.029320 0.015925 -0.321700
v -0.051991 0.019449 -0.313190
v -0.029320 0.019449 -0.313190
v -0.051991 0.027957 -0.309666
v -0.029320 0.027957 -0.309666
v -0.051991 0.036467 -0.313190
v -0.029320 0.036467 -0.313190
v -0.031665 0.036218 -0.321700
v -0.049647 0.036218 -0.321700
v -0.049647 0.033800 -0.327540
v -0.031665 0.033800 -0.327540
v -0.049647 0.027957 -0.329961
v -0.031665 0.027957 -0.329961
v -0.049647 0.022117 -0.327540
v -0.031665 0.022117 -0.327540
v -0.049647 0.019697 -0.321700
v -0.031665 0.019697 -0.321700
v -0.049647 0.022117 -0.315858
v -0.031665 0.022117 -0.315858
v -0.049647 0.027957 -0.313439
v -0.031665 0.027957 -0.313439
v -0.049647 0.033800 -0.315858
v -0.031665 0.033800 -0.315858
v 0.025072 -0.006003 -0.314424
v -0.023262 -0.006003 -0.314424
v -0.023262 0.028912 0.005419
v 0.025072 0.028912 0.005419
v -0.023262 0.026779 0.000268
v 0.025072 0.026779 0.000268
v -0.023262 0.021628 -0.001865
v 0.025072 0.021628 -0.001865
v -0.023262 0.016478 0.000268
v 0.025072 0.016478 0.000268
v -0.023262 0.014345 0.005419
v 0.025072 0.014345 0.005419
v -0.023262 0.016478 0.010568
v 0.025072 0.016478 0.010568
v -0.023262 0.021628 0.012701
v 0.025072 0.021628 0.012701
v -0.023262 0.026779 0.010568
v 0.025072 0.026779 0.010568
v -0.023262 -0.011152 -0.316557
v 0.025072 -0.011152 -0.316557
v -0.023262 -0.016302 -0.314424
v 0.025072 -0.016302 -0.314424
v -0.023262 -0.018435 -0.309273
v 0.025072 -0.018435 -0.309273
v -0.023262 -0.016302 -0.304123
v 0.025072 -0.016302 -0.304123
v -0.023262 -0.011152 -0.301990
v 0.025072 -0.011152 -0.301990
v -0.023262 -0.006003 -0.304123
v 0.025072 -0.006003 -0.304123
v -0.023262 0.001812 -0.018183
v 0.025072 0.001812 -0.018183
v -0.023262 -0.000320 -0.023333
v 0.025072 -0.000320 -0.023333
v -0.023262 -0.005471 -0.025466
v 0.025072 -0.005471 -0.025466
v -0.023262 -0.010620 -0.023333
v 0.025072 -0.010620 -0.023333
v -0.023262 -0.012754 -0.018183
v 0.025072 -0.012754 -0.018183
v -0.023262 -0.010620 -0.013034
v 0.025072 -0.010620 -0.013034
v -0.023262 -0.005471 -0.010901
v 0.025072 -0.005471 -0.010901
v -0.023262 -0.000320 -0.013034
v 0.025072 -0.000320 -0.013034
v -0.009093 0.015402 -0.730467
v -0.013237 0.025405 -0.730467
v -0.009093 0.035408 -0.730467
v 0.000909 0.039550 -0.730467
v 0.010911 0.035408 -0.730467
v 0.015055 0.025405 -0.730467
v 0.010911 0.015402 -0.730467
v 0.000909 0.011259 -0.730467
v 0.026713 -0.016344 -0.142886
v 0.026713 -0.012664 -0.142009
v 0.026713 -0.008986 -0.142886
v 0.026713 -0.008986 -0.147511
v 0.026713 -0.012664 -0.148389
v 0.026713 -0.009931 -0.143901
v 0.026713 -0.012664 -0.146968
v 0.025263 -0.013157 -0.136532
v 0.026713 -0.015741 -0.139526
v 0.026713 -0.017151 -0.138083
v 0.026713 -0.015680 -0.135375
v 0.026713 -0.014477 -0.138400
v 0.026713 -0.010185 -0.138400
v 0.026713 -0.007856 -0.135375
v 0.025263 -0.007856 -0.138083
v 0.026713 -0.007856 -0.138083
v 0.025263 -0.009263 -0.139526
v 0.026713 -0.009263 -0.139526
v 0.026713 -0.013157 -0.138400
v 0.025263 -0.013157 -0.138400
v 0.026713 -0.011852 -0.138400
v 0.025263 -0.015741 -0.139526
v 0.025263 -0.017151 -0.138083
v 0.025263 -0.017151 -0.135375
v 0.026713 -0.017151 -0.135375
v 0.025263 -0.015680 -0.135375
v 0.025263 -0.015680 -0.137372
v 0.026713 -0.015680 -0.137372
v 0.025263 -0.014477 -0.138400
v 0.025263 -0.010185 -0.138400
v 0.025263 -0.009364 -0.137372
v 0.026713 -0.009364 -0.137372
v 0.025263 -0.009364 -0.135375
v 0.026713 -0.009364 -0.135375
v 0.025263 -0.007856 -0.135375
v 0.025263 -0.016344 -0.142886
v 0.025263 -0.012664 -0.142009
v 0.025263 -0.008986 -0.142886
v 0.025263 -0.007589 -0.145199
v 0.026713 -0.007589 -0.145199
v 0.025263 -0.008986 -0.147511
v 0.025263 -0.012664 -0.148389
v 0.025263 -0.016344 -0.147511
v 0.026713 -0.016344 -0.147511
v 0.025263 -0.017739 -0.145199
v 0.026713 -0.017739 -0.145199
v 0.025263 -0.009931 -0.143901
v 0.025263 -0.012664 -0.143430
v 0.026713 -0.012664 -0.143430
v 0.025263 -0.015398 -0.143901
v 0.026713 -0.015398 -0.143901
v 0.025263 -0.016391 -0.145199
v 0.026713 -0.016391 -0.145199
v 0.025263 -0.015398 -0.146496
v 0.026713 -0.015398 -0.146496
v 0.025263 -0.012664 -0.146968
v 0.025263 -0.009931 -0.146496
v 0.026713 -0.009931 -0.146496
v 0.025263 -0.008938 -0.145199
v 0.026713 -0.008938 -0.145199
v 0.026713 -0.013157 -0.136532
v 0.025263 -0.011852 -0.136532
v 0.026713 -0.011852 -0.136532
v 0.025263 -0.011852 -0.138400
v 0.026713 0.012656 -0.135636
v 0.026713 0.020014 -0.135636
v 0.026713 0.020014 -0.140261
v 0.026713 0.012656 -0.140261
v 0.026713 0.011259 -0.137949
v 0.026713 0.016334 -0.136180
v 0.026713 0.012608 -0.137949
v 0.026713 0.013601 -0.139246
v 0.026713 0.019068 -0.139246
v 0.025263 0.012656 -0.135636
v 0.025263 0.016334 -0.134759
v 0.026713 0.016334 -0.134759
v 0.025263 0.020014 -0.135636
v 0.025263 0.021409 -0.137949
v 0.026713 0.021409 -0.137949
v 0.025263 0.020014 -0.140261
v 0.025263 0.016334 -0.141139
v 0.026713 0.016334 -0.141139
v 0.025263 0.012656 -0.140261
v 0.025263 0.011259 -0.137949
v 0.025263 0.019068 -0.136651
v 0.026713 0.019068 -0.136651
v 0.025263 0.016334 -0.136180
v 0.025263 0.013601 -0.136651
v 0.026713 0.013601 -0.136651
v 0.025263 0.012608 -0.137949
v 0.025263 0.013601 -0.139246
v 0.025263 0.016334 -0.139718
v 0.026713 0.016334 -0.139718
v 0.025263 0.019068 -0.139246
v 0.025263 0.020061 -0.137949
v 0.026713 0.020061 -0.137949
v 0.026713 -0.003110 -0.137253
v 0.026713 0.006779 -0.137253
v 0.026713 0.006779 -0.138674
v 0.025263 -0.003110 -0.137253
v 0.025263 0.006779 -0.137253
v 0.025263 0.006779 -0.138674
v 0.025263 -0.003110 -0.138674
v 0.026713 -0.003110 -0.138674
v -0.025311 -0.016344 -0.142886
v -0.025311 -0.012664 -0.142009
v -0.025311 -0.008986 -0.142886
v -0.025311 -0.008986 -0.147511
v -0.025311 -0.012664 -0.148389
v -0.025311 -0.009931 -0.143901
v -0.025311 -0.012664 -0.146968
v -0.023861 -0.013157 -0.136532
v -0.025311 -0.015741 -0.139526
v -0.025311 -0.017151 -0.138083
v -0.025311 -0.015680 -0.135375
v -0.025311 -0.014477 -0.138400
v -0.025311 -0.010185 -0.138400
v -0.025311 -0.007856 -0.135375
v -0.023861 -0.007856 -0.138083
v -0.025311 -0.007856 -0.138083
v -0.023861 -0.009263 -0.139526
v -0.025311 -0.009263 -0.139526
v -0.025311 -0.013157 -0.138400
v -0.023861 -0.013157 -0.138400
v -0.025311 -0.011852 -0.138400
v -0.023861 -0.015741 -0.139526
v -0.023861 -0.017151 -0.138083
v -0.023861 -0.017151 -0.135375
v -0.025311 -0.017151 -0.135375
v -0.023861 -0.015680 -0.135375
v -0.023861 -0.015680 -0.137372
v -0.025311 -0.015680 -0.137372
v -0.023861 -0.014477 -0.138400
v -0.023861 -0.010185 -0.138400
v -0.023861 -0.009364 -0.137372
v -0.025311 -0.009364 -0.137372
v -0.023861 -0.009364 -0.135375
v -0.025311 -0.009364 -0.135375
v -0.023861 -0.007856 -0.135375
v -0.023861 -0.016344 -0.142886
v -0.023861 -0.012664 -0.142009
v -0.023861 -0.008986 -0.142886
v -0.023861 -0.007589 -0.145199
v -0.025311 -0.007589 -0.145199
v -0.023861 -0.008986 -0.147511
v -0.023861 -0.012664 -0.148389
v -0.023861 -0.016344 -0.147511
v -0.025311 -0.016344 -0.147511
v -0.023861 -0.017739 -0.145199
v -0.025311 -0.017739 -0.145199
v -0.023861 -0.009931 -0.143901
v -0.023861 -0.012664 -0.143430
v -0.025311 -0.012664 -0.143430
v -0.023861 -0.015398 -0.143901
v -0.025311 -0.015398 -0.143901
v -0.023861 -0.016391 -0.145199
v -0.025311 -0.016391 -0.145199
v -0.023861 -0.015398 -0.146496
v -0.025311 -0.015398 -0.146496
v -0.023861 -0.012664 -0.146968
v -0.023861 -0.009931 -0.146496
v -0.025311 -0.009931 -0.146496
v -0.023861 -0.008938 -0.145199
v -0.025311 -0.008938 -0.145199
v -0.025311 -0.013157 -0.136532
v -0.023861 -0.011852 -0.136532
v -0.025311 -0.011852 -0.136532
v -0.023861 -0.011852 -0.138400
v -0.025311 0.012656 -0.135636
v -0.025311 0.020014 -0.135636
v -0.025311 0.020014 -0.140261
v -0.025311 0.012656 -0.140261
v -0.025311 0.011259 -0.137949
v -0.025311 0.016334 -0.136180
v -0.025311 0.012608 -0.137949
v -0.025311 0.013601 -0.139246
v -0.025311 0.019068 -0.139246
v -0.023861 0.012656 -0.135636
v -0.023861 0.016334 -0.134759
v -0.025311 0.016334 -0.134759
v -0.023861 0.020014 -0.135636
v -0.023861 0.021409 -0.137949
v -0.025311 0.021409 -0.137949
v -0.023861 0.020014 -0.140261
v -0.023861 0.016334 -0.141139
v -0.025311 0.016334 -0.141139
v -0.023861 0.012656 -0.140261
v -0.023861 0.011259 -0.137949
v -0.023861 0.019068 -0.136651
v -0.025311 0.019068 -0.136651
v -0.023861 0.016334 -0.136180
v -0.023861 0.013601 -0.136651
v -0.025311 0.013601 -0.136651
v -0.023861 0.012608 -0.137949
v -0.023861 0.013601 -0.139246
v -0.023861 0.016334 -0.139718
v -0.025311 0.016334 -0.139718
v -0.023861 0.019068 -0.139246
v -0.023861 0.020061 -0.137949
v -0.025311 0.020061 -0.137949
v -0.025311 -0.003110 -0.137253
v -0.025311 0.006779 -0.137253
v -0.025311 0.006779 -0.138674
v -0.023861 -0.003110 -0.137253
v -0.023861 0.006779 -0.137253
v -0.023861 0.006779 -0.138674
v -0.023861 -0.003110 -0.138674
v -0.025311 -0.003110 -0.138674
v -0.008567 0.049152 -0.601405
v -0.012492 0.058629 -0.601405
v 0.010386 0.049152 -0.614490
v 0.000909 0.045227 -0.614490
v -0.008567 0.068105 -0.601405
v 0.014311 0.058629 -0.614490
v 0.000909 0.072030 -0.601405
v 0.010386 0.068105 -0.614490
v 0.010386 0.068105 -0.601405
v 0.000909 0.072030 -0.614490
v 0.014311 0.058629 -0.601405
v -0.008567 0.068105 -0.614490
v 0.000909 0.045227 -0.601405
v -0.012492 0.058629 -0.614490
v 0.010386 0.049152 -0.601405
v -0.008567 0.049152 -0.614490
v -0.035000 -0.060000 0.100000
v 0.035000 -0.060000 0.100000
v -0.035000 0.022000 0.100000
v 0.035000 0.022000 0.100000
v -0.035000 -0.060000 0.370000
v 0.035000 -0.060000 0.370000
v -0.035000 0.022000 0.370000
v 0.035000 0.022000 0.370000
g Body
usemtl M_PCL_Flat_Black
f 696 694 722
f 701 703 721
f 704 702 722
f 695 697 721
f 703 689 721
f 698 696 722
f 689 691 721
f 690 704 722
f 697 699 721
f 692 690 722
f 700 698 722
f 691 693 721
f 699 701 721
f 694 692 722
f 702 700 722
f 693 695 721
f 750 740 742 752
f 740 739 743 742
f 740 750 757 747
f 756 758 748 746
f 754 756 746 744
f 741 751 754 744
f 755 745 747 757
f 757 750 749 758
f 751 741 745 755
f 758 749 739 748
f 741 744 746 745
f 745 746 748 747
f 750 752 753 749
f 751 755 756 754
f 755 757 758 756
f 749 753 743 739
f 832 833 825 824
f 817 809 811 819
f 819 811 807 815
f 809 808 813 814
f 814 813 812 810
f 817 822 821 816
f 822 818 820 821
f 833 835 827 825
f 835 831 823 827
f 825 830 829 824
f 830 826 828 829
f 833 832 837 838
f 838 837 836 834
f 808 816 832 824
f 811 809 825 827
f 807 811 827 823
f 812 813 829 828
f 813 808 824 829
f 809 814 830 825
f 810 812 828 826
f 814 810 826 830
f 817 819 835 833
f 819 815 831 835
f 821 820 836 837
f 816 821 837 832
f 822 817 833 838
f 820 818 834 836
f 818 822 838 834
f 816 808 809 817
f 953 955 954 952
f 954 958 956 952
f 955 959 958 954
f 953 957 959 955
f 952 956 957 953
f 968 967 969 970
f 969 967 971 973
f 970 969 973 974
f 968 970 974 972
f 967 968 972 971
f 1309 1308 1306 1307
f 1311 1310 1308 1309
f 1337 1315 1314 1334 1333 1311 1309 1307
f 1307 1306 1316 1337
f 1336 1316 1306 1308 1310 1312 1313 1335
f 1333 1312 1310 1311
f 1334 1313 1312 1333
f 1314 1335 1313 1334
f 1315 1336 1335 1314
f 1337 1316 1336 1315
f 1354 1355 1357 1356
f 1356 1357 1359 1358
f 1358 1359 1361 1360
f 1360 1361 1363 1362
f 1362 1363 1365 1364
f 1364 1365 1367 1366
f 1366 1367 1369 1368
f 1368 1369 1355 1354
f 1386 1371 1373 1387
f 1387 1373 1375 1388
f 1388 1375 1377 1389
f 1389 1377 1379 1390
f 1390 1379 1381 1391
f 1391 1381 1383 1392
f 1373 1371 1385 1383 1381 1379 1377 1375
f 1392 1383 1385 1393
f 1393 1385 1371 1386
f 1370 1372 1374 1376 1378 1380 1382 1384
f 1384 1393 1386 1370
f 1382 1392 1393 1384
f 1380 1391 1392 1382
f 1378 1390 1391 1380
f 1376 1389 1390 1378
f 1374 1388 1389 1376
f 1372 1387 1388 1374
f 1370 1386 1387 1372
f 1419 1403 1405 1420
f 1420 1405 1407 1422
f 1422 1407 1409 1424
f 1424 1409 1411 1426
f 1426 1411 1413 1428
f 1428 1413 1415 1430
f 1405 1403 1417 1415 1413 1411 1409 1407
f 1430 1415 1417 1432
f 1432 1417 1403 1419
f 1402 1404 1406 1408 1410 1412 1414 1416
f 1416 1433 1418 1402
f 1448 1432 1419 1435
f 1414 1431 1433 1416
f 1446 1430 1432 1448
f 1412 1429 1431 1414
f 1444 1428 1430 1446
f 1410 1427 1429 1412
f 1442 1426 1428 1444
f 1408 1425 1427 1410
f 1440 1424 1426 1442
f 1406 1423 1425 1408
f 1438 1422 1424 1440
f 1404 1421 1423 1406
f 1436 1420 1422 1438
f 1402 1418 1421 1404
f 1435 1419 1420 1436
f 1418 1434 1437 1421
f 1434 1435 1436 1437
f 1421 1437 1439 1423
f 1437 1436 1438 1439
f 1423 1439 1441 1425
f 1439 1438 1440 1441
f 1425 1441 1443 1427
f 1441 1440 1442 1443
f 1427 1443 1445 1429
f 1443 1442 1444 1445
f 1429 1445 1447 1431
f 1445 1444 1446 1447
f 1431 1447 1449 1433
f 1447 1446 1448 1449
f 1433 1449 1434 1418
f 1449 1448 1435 1434
f 1475 1476 1461 1459
f 1476 1478 1463 1461
f 1478 1480 1465 1463
f 1480 1482 1467 1465
f 1482 1484 1469 1467
f 1484 1486 1471 1469
f 1461 1463 1465 1467 1469 1471 1473 1459
f 1486 1488 1473 1471
f 1488 1475 1459 1473
f 1458 1472 1470 1468 1466 1464 1462 1460
f 1472 1458 1474 1489
f 1504 1491 1475 1488
f 1470 1472 1489 1487
f 1502 1504 1488 1486
f 1468 1470 1487 1485
f 1500 1502 1486 1484
f 1466 1468 1485 1483
f 1498 1500 1484 1482
f 1464 1466 1483 1481
f 1496 1498 1482 1480
f 1462 1464 1481 1479
f 1494 1496 1480 1478
f 1460 1462 1479 1477
f 1492 1494 1478 1476
f 1458 1460 1477 1474
f 1491 1492 1476 1475
f 1474 1477 1493 1490
f 1490 1493 1492 1491
f 1477 1479 1495 1493
f 1493 1495 1494 1492
f 1479 1481 1497 1495
f 1495 1497 1496 1494
f 1481 1483 1499 1497
f 1497 1499 1498 1496
f 1483 1485 1501 1499
f 1499 1501 1500 1498
f 1485 1487 1503 1501
f 1501 1503 1502 1500
f 1487 1489 1505 1503
f 1503 1505 1504 1502
f 1489 1474 1490 1505
f 1505 1490 1491 1504
f 1506 1172 1535 1533 1531 1529 1527 1525
f 1508 1509 1511 1510
f 1530 1531 1533 1532
f 1510 1511 1513 1512
f 1528 1529 1531 1530
f 1512 1513 1515 1514
f 1526 1527 1529 1528
f 1514 1515 1517 1516
f 1174 1507 1524 1526 1528 1530 1532 1534
f 1524 1525 1527 1526
f 1516 1517 1519 1518
f 1534 1535 1172 1174
f 1507 1506 1525 1524
f 1518 1519 1521 1520
f 1511 1509 1523 1521 1519 1517 1515 1513
f 1174 1172 1506 1507
f 1520 1521 1523 1522
f 1532 1533 1535 1534
f 1522 1523 1509 1508
f 1508 1510 1512 1514 1516 1518 1520 1522
f 1536 1537 1539 1538
f 1538 1539 1541 1540
f 1540 1541 1543 1542
f 1542 1543 1545 1544
f 1544 1545 1547 1546
f 1546 1547 1549 1548
f 1539 1537 1551 1549 1547 1545 1543 1541
f 1548 1549 1551 1550
f 1550 1551 1537 1536
f 1536 1538 1540 1542 1544 1546 1548 1550
f 747 748 739 740
f 1277 1276 1275 1272 1271 1274 1273 1278
f 958 959 974 973
f 957 956 971 972
f 959 957 972 974
f 956 958 973 971
g Magazine
usemtl M_PCL_Flat_Black_Lighter
f 498 602 601 497
f 527 490 492 523
f 523 492 491 525
f 583 584 496 499
f 583 687 602 498
f 498 497 495 582
f 495 497 499 496
f 601 603 499 497
f 499 603 687 583
f 531 505 504 533
f 567 489 491 564
f 491 489 529 525
f 524 522 526 528
f 570 522 524 562
f 523 525 529 527
f 561 553 532 536
f 532 530 534 536
f 505 531 535 494
f 504 493 537 533
f 531 533 537 535
f 573 526 522 570
f 558 530 532 553
f 558 550 534 530
f 505 494 552 556
f 556 552 551 557
f 557 551 550 558
f 505 556 555 504
f 556 557 554 555
f 557 558 553 554
f 493 504 555 559
f 559 555 554 560
f 560 554 553 561
f 490 571 568 492
f 571 572 569 568
f 572 573 570 569
f 492 568 564 491
f 568 569 563 564
f 569 570 562 563
f 528 565 562 524
f 565 566 563 562
f 566 567 564 563
f 582 584 583 498
f 582 495 496 584
f 631 627 596 594
f 627 629 595 596
f 687 603 600 688
f 602 686 599 601
f 599 600 603 601
f 635 637 608 609
f 671 668 595 593
f 595 629 633 593
f 628 632 630 626
f 674 666 628 626
f 627 631 633 629
f 665 640 636 657
f 636 640 638 634
f 609 598 639 635
f 608 637 641 597
f 635 639 641 637
f 677 674 626 630
f 662 657 636 634
f 662 634 638 654
f 609 660 656 598
f 660 661 655 656
f 661 662 654 655
f 609 608 659 660
f 660 659 658 661
f 661 658 657 662
f 597 663 659 608
f 663 664 658 659
f 664 665 657 658
f 594 596 672 675
f 675 672 673 676
f 676 673 674 677
f 596 595 668 672
f 672 668 667 673
f 673 667 666 674
f 632 628 666 669
f 669 666 667 670
f 670 667 668 671
f 686 602 687 688
f 686 688 600 599
g Body
usemtl M_PCL_Flat_Black_Lighter
f 878 879 877 887
f 878 887 890 883
f 877 879 884 882
f 879 876 881 884
f 875 876 879 878
f 883 890 882 884
f 875 878 883 880
f 877 882 889 886
f 880 883 884 881
f 886 889 888 885
f 885 888 890 887
f 887 877 886 885
f 890 888 889 882
f 911 919 922 915
f 894 903 906 899
f 893 895 900 898
f 895 892 897 900
f 894 895 893 903
f 891 892 895 894
f 891 894 899 896
f 893 898 905 902
f 899 906 898 900
f 896 899 900 897
f 901 904 906 903
f 902 905 904 901
f 903 893 902 901
f 912 907 921 918
f 914 911 915 909
f 915 922 907 916
f 914 913 910 911
f 910 913 908 916
f 912 910 916 907
f 906 904 905 898
f 911 910 912 919
f 917 920 922 919
f 909 915 916 908
f 918 921 920 917
f 919 912 918 917
f 947 943 951 948
f 944 947 948 945
f 945 949 950 946 944
f 961 965 949 945
f 966 962 946 950
f 960 963 943 947 944
f 951 964 961 945 948
f 965 966 950 949
f 963 964 951 943
f 960 961 964 963
f 961 960 962 966 965
f 962 960 944 946
f 982 975 997 984
f 976 1000 997 975
f 981 976 979 990
f 980 979 976 975
f 982 981 990 991
f 986 987 983 984
f 977 985 986
f 992 989 988 985
f 981 982 984 983
f 997 998 977 986 984
f 999 1000 983 987 978
f 975 982 991 980
f 989 992 991 990
f 985 988 987 986
f 976 981 983 1000
f 989 990 979 978 987 988
f 994 996 995 993
f 1019 993 995 1021
f 1020 994 993 1019
f 980 991 992
f 1018 992 985 1011
f 1011 985 977 1003
f 1006 980 992 1018
f 999 998 997 1000
f 977 998 999 978
f 1008 1010 1023 1001
f 1002 1001 1023 1026
f 1007 1016 1005 1002
f 1006 1001 1002 1005
f 1008 1017 1016 1007
f 1012 1010 1009 1013
f 1003 1012 1011
f 1018 1011 1014 1015
f 1007 1009 1010 1008
f 1023 1010 1012 1003 1024
f 1025 1004 1013 1009 1026
f 1001 1006 1017 1008
f 1015 1016 1017 1018
f 1011 1012 1013 1014
f 1002 1026 1009 1007
f 1015 1014 1013 1004 1005 1016
f 1020 1019 1021 1022
f 1006 1018 1017
f 1025 1026 1023 1024
f 1003 1004 1025 1024
f 994 1020 1022 996
f 1037 1036 1031 1034
f 1042 1040 1029 1028
f 1039 1040 1038 1033
f 1037 1034 1033 1038
f 1035 1032 1031 1036
f 1041 1032 1035 1042
f 1030 1029 1040 1039
f 1027 1041 1042 1028
f 1032 1041 1039 1033
f 1037 1038 1040 1042 1035 1036
f 1031 1032 1033 1034
f 1057 1041 1027 1043
f 1046 1030 1039 1055
f 1055 1039 1041 1057
f 1053 1050 1047 1052
f 1058 1044 1045 1056
f 1055 1049 1054 1056
f 1053 1054 1049 1050
f 1051 1052 1047 1048
f 1057 1058 1051 1048
f 1046 1055 1056 1045
f 1043 1044 1058 1057
f 1048 1049 1055 1057
f 1053 1052 1051 1058 1056 1054
f 1047 1050 1049 1048
f 1207 1209 1211 1213
f 1199 1205 1214 1200
f 1234 1215 1212 1233
f 1208 1229 1216 1197
f 1231 1210 1202 1223
f 1209 1196 1203 1211
f 1205 1207 1213 1214
f 1201 1220 1221 1218 1219 1198 1199 1200
f 1233 1212 1210 1231
f 1225 1227 1206 1204
f 1220 1201 1215 1234
f 1227 1229 1208 1206
f 1226 1232 1230 1228
f 1218 1221 1235 1224
f 1228 1230 1222 1217
f 1224 1235 1232 1226
f 1205 1199 1198 1204
f 1207 1205 1204 1206
f 1202 1210 1211 1203
f 1215 1201 1200 1214
f 1209 1207 1206 1208
f 1196 1209 1208 1197
f 1210 1212 1213 1211
f 1212 1215 1214 1213
f 1225 1219 1218 1224
f 1227 1225 1224 1226
f 1222 1230 1231 1223
f 1235 1221 1220 1234
f 1229 1227 1226 1228
f 1216 1229 1228 1217
f 1230 1232 1233 1231
f 1232 1235 1234 1233
f 1219 1225 1204 1198
f 1236 1239 1238 1237
f 1237 1238 1241 1240
f 1240 1241 1243 1242
f 1244 1245 1247 1246
f 1246 1247 1249 1248
f 1248 1249 1239 1236
f 1250 1251 1252 1253
f 1251 1254 1255 1252
f 1254 1256 1257 1255
f 1258 1260 1261 1259
f 1260 1262 1263 1261
f 1262 1250 1253 1263
f 1236 1237 1251 1250
f 1238 1239 1253 1252
f 1237 1240 1254 1251
f 1241 1238 1252 1255
f 1240 1242 1256 1254
f 1243 1241 1255 1257
f 1244 1246 1260 1258
f 1247 1245 1259 1261
f 1246 1248 1262 1260
f 1249 1247 1261 1263
f 1248 1236 1250 1262
f 1239 1249 1263 1253
f 1338 1339 1341 1340
f 1340 1341 1343 1342
f 1342 1343 1345 1344
f 1344 1345 1347 1346
f 1346 1347 1349 1348
f 1348 1349 1351 1350
f 1341 1339 1353 1351 1349 1347 1345 1343
f 1350 1351 1353 1352
f 1352 1353 1339 1338
f 1338 1340 1342 1344 1346 1348 1350 1352
f 1770 1782 1780 1771
f 1779 1772 1774 1777
f 1773 1778 1782 1770
f 1783 1768 1769 1781
f 1777 1774 1776 1775
f 1781 1769 1772 1779
f 1775 1776 1778 1773
f 1771 1780 1768 1783
f 1770 1771 1783 1781 1779 1777 1775 1773
f 922 920 921 907
g Body
usemtl M_PCL_Flat_Grey_Darker
f 1 138 137 17
f 17 137 139 33
f 33 139 140 49
f 49 140 141 65
f 65 141 142 81
f 81 142 143 97
f 97 143 144 113
f 113 144 138 1
f 2 1 17 18
f 18 17 33 34
f 34 33 49 50
f 50 49 65 66
f 66 65 81 82
f 82 81 97 98
f 98 97 113 114
f 114 113 1 2
f 3 2 18 19
f 19 18 34 35
f 35 34 50 51
f 51 50 66 67
f 67 66 82 83
f 83 82 98 99
f 99 98 114 115
f 115 114 2 3
f 4 3 19 20
f 20 19 35 36
f 36 35 51 52
f 52 51 67 68
f 68 67 83 84
f 84 83 99 100
f 100 99 115 116
f 116 115 3 4
f 5 4 20 21
f 21 20 36 37
f 37 36 52 53
f 53 52 68 69
f 69 68 84 85
f 85 84 100 101
f 101 100 116 117
f 117 116 4 5
f 6 5 21 22
f 22 21 37 38
f 38 37 53 54
f 54 53 69 70
f 70 69 85 86
f 86 85 101 102
f 102 101 117 118
f 118 117 5 6
f 7 6 22 23
f 23 22 38 39
f 39 38 54 55
f 55 54 70 71
f 71 70 86 87
f 87 86 102 103
f 103 102 118 119
f 119 118 6 7
f 8 7 23 24
f 24 23 39 40
f 40 39 55 56
f 56 55 71 72
f 72 71 87 88
f 88 87 103 104
f 104 103 119 120
f 120 119 7 8
f 9 8 24 25
f 25 24 40 41
f 41 40 56 57
f 57 56 72 73
f 73 72 88 89
f 89 88 104 105
f 105 104 120 121
f 121 120 8 9
f 10 9 25 26
f 26 25 41 42
f 42 41 57 58
f 58 57 73 74
f 74 73 89 90
f 90 89 105 106
f 106 105 121 122
f 122 121 9 10
f 10 26 42 58 74 90 106 122
f 134 133 157 158
f 130 129 137 138
f 129 131 139 137
f 131 132 140 139
f 132 133 141 140
f 133 134 142 141
f 134 135 143 142
f 135 136 144 143
f 136 130 138 144
f 132 131 155 156
f 129 130 154 153
f 130 136 160 154
f 135 134 158 159
f 133 132 156 157
f 131 129 153 155
f 136 135 159 160
f 161 298 297 177
f 177 297 299 193
f 193 299 300 209
f 209 300 301 225
f 225 301 302 241
f 241 302 303 257
f 257 303 304 273
f 273 304 298 161
f 162 161 177 178
f 178 177 193 194
f 194 193 209 210
f 210 209 225 226
f 226 225 241 242
f 242 241 257 258
f 258 257 273 274
f 274 273 161 162
f 163 162 178 179
f 179 178 194 195
f 195 194 210 211
f 211 210 226 227
f 227 226 242 243
f 243 242 258 259
f 259 258 274 275
f 275 274 162 163
f 164 163 179 180
f 180 179 195 196
f 196 195 211 212
f 212 211 227 228
f 228 227 243 244
f 244 243 259 260
f 260 259 275 276
f 276 275 163 164
f 165 164 180 181
f 181 180 196 197
f 197 196 212 213
f 213 212 228 229
f 229 228 244 245
f 245 244 260 261
f 261 260 276 277
f 277 276 164 165
f 166 165 181 182
f 182 181 197 198
f 198 197 213 214
f 214 213 229 230
f 230 229 245 246
f 246 245 261 262
f 262 261 277 278
f 278 277 165 166
f 167 166 182 183
f 183 182 198 199
f 199 198 214 215
f 215 214 230 231
f 231 230 246 247
f 247 246 262 263
f 263 262 278 279
f 279 278 166 167
f 168 167 183 184
f 184 183 199 200
f 200 199 215 216
f 216 215 231 232
f 232 231 247 248
f 248 247 263 264
f 264 263 279 280
f 280 279 167 168
f 169 168 184 185
f 185 184 200 201
f 201 200 216 217
f 217 216 232 233
f 233 232 248 249
f 249 248 264 265
f 265 264 280 281
f 281 280 168 169
f 170 169 185 186
f 186 185 201 202
f 202 201 217 218
f 218 217 233 234
f 234 233 249 250
f 250 249 265 266
f 266 265 281 282
f 282 281 169 170
f 170 186 202 218 234 250 266 282
f 294 293 317 318
f 290 289 297 298
f 289 291 299 297
f 291 292 300 299
f 292 293 301 300
f 293 294 302 301
f 294 295 303 302
f 295 296 304 303
f 296 290 298 304
f 292 291 315 316
f 289 290 314 313
f 290 296 320 314
f 295 294 318 319
f 293 292 316 317
f 291 289 313 315
f 296 295 319 320
f 321 458 457 337
f 337 457 459 353
f 353 459 460 369
f 369 460 461 385
f 385 461 462 401
f 401 462 463 417
f 417 463 464 433
f 433 464 458 321
f 322 321 337 338
f 338 337 353 354
f 354 353 369 370
f 370 369 385 386
f 386 385 401 402
f 402 401 417 418
f 418 417 433 434
f 434 433 321 322
f 323 322 338 339
f 339 338 354 355
f 355 354 370 371
f 371 370 386 387
f 387 386 402 403
f 403 402 418 419
f 419 418 434 435
f 435 434 322 323
f 324 323 339 340
f 340 339 355 356
f 356 355 371 372
f 372 371 387 388
f 388 387 403 404
f 404 403 419 420
f 420 419 435 436
f 436 435 323 324
f 325 324 340 341
f 341 340 356 357
f 357 356 372 373
f 373 372 388 389
f 389 388 404 405
f 405 404 420 421
f 421 420 436 437
f 437 436 324 325
f 326 325 341 342
f 342 341 357 358
f 358 357 373 374
f 374 373 389 390
f 390 389 405 406
f 406 405 421 422
f 422 421 437 438
f 438 437 325 326
f 327 326 342 343
f 343 342 358 359
f 359 358 374 375
f 375 374 390 391
f 391 390 406 407
f 407 406 422 423
f 423 422 438 439
f 439 438 326 327
f 328 327 343 344
f 344 343 359 360
f 360 359 375 376
f 376 375 391 392
f 392 391 407 408
f 408 407 423 424
f 424 423 439 440
f 440 439 327 328
f 329 328 344 345
f 345 344 360 361
f 361 360 376 377
f 377 376 392 393
f 393 392 408 409
f 409 408 424 425
f 425 424 440 441
f 441 440 328 329
f 330 329 345 346
f 346 345 361 362
f 362 361 377 378
f 378 377 393 394
f 394 393 409 410
f 410 409 425 426
f 426 425 441 442
f 442 441 329 330
f 330 346 362 378 394 410 426 442
f 454 453 477 478
f 450 449 457 458
f 449 451 459 457
f 451 452 460 459
f 452 453 461 460
f 453 454 462 461
f 454 455 463 462
f 455 456 464 463
f 456 450 458 464
f 452 451 475 476
f 449 450 474 473
f 450 456 480 474
f 455 454 478 479
f 453 452 476 477
f 451 449 473 475
f 456 455 479 480
g Magazine
usemtl M_PCL_Flat_Grey_Darker
f 485 589 588 484
f 502 484 487 503
f 586 590 486 482
f 502 482 486 501
f 607 592 488 503
f 488 592 586 482
f 588 591 487 484
f 543 547 500 483
f 539 643 648 544
f 647 543 483 587
f 500 604 587 483
f 486 590 643 539
f 484 502 501 485
f 482 502 503 488
f 591 607 503 487
g Body
usemtl M_PCL_Flat_Grey_Darker
f 513 510 514 517
f 506 507 511 510
f 507 508 512 511
f 508 509 513 512
f 509 506 510 513
f 514 515 519 518
f 510 511 515 514
f 511 512 516 515
f 512 513 517 516
f 521 518 519 520
f 515 516 520 519
f 516 517 521 520
f 517 514 518 521
g Magazine
usemtl M_PCL_Flat_Grey_Darker
f 486 539 540 501
f 589 485 538 642
f 501 540 538 485
f 546 650 585 481
f 546 481 500 547
f 539 544 549 540
f 544 545 548 549
f 545 546 547 548
f 544 648 649 545
f 545 649 650 546
f 642 538 541 645
f 645 541 542 646
f 646 542 543 647
f 538 540 549 541
f 541 549 548 542
f 542 548 547 543
g Body
usemtl M_PCL_Flat_Grey_Darker
f 680 576 577 681
f 679 681 577 575
f 576 680 678 574
f 574 575 577 576
f 682 683 579 578
f 683 685 581 579
f 580 684 682 578
f 578 579 581 580
g Magazine
usemtl M_PCL_Flat_Grey_Darker
f 606 607 591 588
f 606 605 590 586
f 647 587 604 651
f 588 589 605 606
f 586 592 607 606
g Body
usemtl M_PCL_Flat_Grey_Darker
f 617 621 618 614
f 610 614 615 611
f 611 615 616 612
f 612 616 617 613
f 613 617 614 610
f 618 622 623 619
f 614 618 619 615
f 615 619 620 616
f 616 620 621 617
f 625 624 623 622
f 619 623 624 620
f 620 624 625 621
f 621 625 622 618
g Magazine
usemtl M_PCL_Flat_Grey_Darker
f 590 605 644 643
f 605 589 642 644
f 650 651 604 585
f 643 644 653 648
f 648 653 652 649
f 649 652 651 650
f 642 645 653 644
f 645 646 652 653
f 646 647 651 652
g Body
usemtl M_PCL_Flat_Grey_Darker
f 678 680 681 679
f 682 684 685 683
g Magazine
usemtl M_PCL_Flat_Grey_Darker
f 481 585 604 500
g Body
usemtl M_PCL_Flat_Grey_Darker
f 858 857 847 848
f 839 842 843 840
f 841 844 843 842
f 847 846 845 848
f 845 839 840 848
f 855 845 846 856
f 849 850 853 852
f 851 852 853 854
f 857 858 855 856
f 855 858 850 849
f 852 851 841 842
f 855 849 839 845
f 849 852 842 839
f 850 858 848 840
f 853 850 840 843
f 854 853 843 844
f 862 863 861 871
f 862 871 874 867
f 861 863 868 866
f 863 860 865 868
f 859 860 863 862
f 867 874 866 868
f 859 862 867 864
f 861 866 873 870
f 864 867 868 865
f 870 873 872 869
f 869 872 874 871
f 871 861 870 869
f 874 872 873 866
f 1061 1096 1095 1060
f 1071 1106 1105 1072
f 1066 1100 1099 1065
f 1064 1104 1103 1063
f 1062 1108 1107 1061
f 1059 1116 1115 1066
f 1065 1120 1119 1064
f 1063 1092 1091 1062
f 1067 1114 1113 1068
f 1073 1102 1101 1074
f 1131 1159 1160 1132
f 1069 1110 1109 1070
f 1074 1118 1117 1067
f 1072 1122 1121 1073
f 1070 1094 1093 1071
f 1068 1098 1097 1069
f 1073 1553 1554 1072
f 1071 1555 1556 1070
f 1069 1557 1558 1068
f 1558 1076 1075 1559
f 1074 1552 1553 1073
f 1072 1554 1555 1071
f 1070 1556 1557 1069
f 1067 1559 1552 1074
f 1075 1082 1552 1559
f 1081 1080 1554 1553
f 1079 1078 1556 1555
f 1077 1076 1558 1557
f 1552 1082 1081 1553
f 1554 1080 1079 1555
f 1556 1078 1077 1557
f 1075 1076 1084 1083
f 1082 1075 1083 1090
f 1080 1081 1089 1088
f 1078 1079 1087 1086
f 1076 1077 1085 1084
f 1081 1082 1090 1089
f 1079 1080 1088 1087
f 1077 1078 1086 1085
f 1083 1124 1130 1090
f 1090 1130 1129 1089
f 1089 1129 1128 1088
f 1088 1128 1127 1087
f 1087 1127 1126 1086
f 1086 1126 1125 1085
f 1085 1125 1123 1084
f 1063 1071 1093 1092
f 1070 1062 1091 1094
f 1061 1069 1097 1096
f 1068 1060 1095 1098
f 1066 1074 1101 1100
f 1073 1065 1099 1102
f 1064 1072 1105 1104
f 1071 1063 1103 1106
f 1062 1070 1109 1108
f 1069 1061 1107 1110
f 1060 1068 1113 1112
f 1067 1059 1111 1114
f 1059 1067 1117 1116
f 1074 1066 1115 1118
f 1065 1073 1121 1120
f 1072 1064 1119 1122
f 1132 1143 1144 1133
f 1123 1125 1145 1146
f 1137 1147 1148 1138
f 1135 1151 1152 1136
f 1133 1155 1156 1134
f 1138 1163 1164 1131
f 1136 1167 1168 1137
f 1134 1139 1140 1135
f 1130 1124 1165 1166
f 1128 1129 1169 1170
f 1126 1127 1141 1142
f 1129 1130 1149 1150
f 1127 1128 1153 1154
f 1125 1126 1157 1158
f 1123 1161 1162 1124
f 1135 1140 1141 1127
f 1126 1142 1139 1134
f 1133 1144 1145 1125
f 1123 1146 1143 1132
f 1138 1148 1149 1130
f 1129 1150 1147 1137
f 1136 1152 1153 1128
f 1127 1154 1151 1135
f 1134 1156 1157 1126
f 1125 1158 1155 1133
f 1132 1160 1161 1123
f 1124 1162 1159 1131
f 1131 1164 1165 1124
f 1130 1166 1163 1138
f 1137 1168 1169 1129
f 1128 1170 1167 1136
f 1060 1059 1131 1132
f 1061 1060 1132 1133
f 1062 1061 1133 1134
f 1063 1062 1134 1135
f 1064 1063 1135 1136
f 1065 1064 1136 1137
f 1066 1065 1137 1138
f 1059 1066 1138 1131
f 1091 1092 1140 1139
f 1094 1091 1139 1142
f 1092 1093 1141 1140
f 1093 1094 1142 1141
f 1095 1096 1144 1143
f 1098 1095 1143 1146
f 1096 1097 1145 1144
f 1097 1098 1146 1145
f 1099 1100 1148 1147
f 1102 1099 1147 1150
f 1100 1101 1149 1148
f 1101 1102 1150 1149
f 1103 1104 1152 1151
f 1106 1103 1151 1154
f 1104 1105 1153 1152
f 1105 1106 1154 1153
f 1107 1108 1156 1155
f 1110 1107 1155 1158
f 1108 1109 1157 1156
f 1109 1110 1158 1157
f 1111 1112 1160 1159
f 1114 1111 1159 1162
f 1112 1113 1161 1160
f 1113 1114 1162 1161
f 1115 1116 1164 1163
f 1118 1115 1163 1166
f 1116 1117 1165 1164
f 1117 1118 1166 1165
f 1119 1120 1168 1167
f 1122 1119 1167 1170
f 1120 1121 1169 1168
f 1121 1122 1170 1169
f 1084 1123 1124 1083
f 1317 1324 1291 1318
f 1287 1294 1295 1288
f 1298 1304 1301 1296
f 1304 1305 1302 1301
f 1296 1297 1300 1299
f 1301 1302 1297 1296
f 1303 1298 1296 1299
f 1320 1317 1318 1322
f 1321 1319 1287 1290
f 1323 1288 1317 1320
f 1322 1318 1286 1289
f 1289 1286 1319 1321
f 1290 1287 1288 1323
f 1324 1317 1288 1295
f 1290 1323 1320 1321
f 1321 1320 1322 1289
f 1298 1325 1305 1304
f 1325 1298 1303 1332
f 1326 1328 1291 1324
f 1327 1331 1294 1293
f 1329 1326 1324 1295
f 1328 1330 1292 1291
f 1330 1327 1293 1292
f 1331 1329 1295 1294
f 1319 1293 1294 1287
f 1293 1319 1286 1292
f 1318 1291 1292 1286
f 1331 1327 1326 1329
f 1327 1330 1328 1326
f 1325 1332 1300 1297
f 1332 1303 1299 1300
f 1305 1325 1297 1302
f 1068 1558 1559 1067
f 1060 1112 1111 1059
g Body
usemtl M_PCL_Flat_Grey_Dark
f 145 146 152 151 150 149 148 147
f 146 145 153 154
f 145 147 155 153
f 147 148 156 155
f 148 149 157 156
f 149 150 158 157
f 150 151 159 158
f 151 152 160 159
f 152 146 154 160
f 305 306 312 311 310 309 308 307
f 306 305 313 314
f 305 307 315 313
f 307 308 316 315
f 308 309 317 316
f 309 310 318 317
f 310 311 319 318
f 311 312 320 319
f 312 306 314 320
f 465 466 472 471 470 469 468 467
f 466 465 473 474
f 465 467 475 473
f 467 468 476 475
f 468 469 477 476
f 469 470 478 477
f 470 471 479 478
f 471 472 480 479
f 472 466 474 480
f 705 708 707 706
f 706 707 710 709
f 709 710 712 711
f 711 712 714 713
f 713 714 716 715
f 715 716 718 717
f 717 718 720 719
f 719 720 708 705
f 691 689 705 706
f 690 692 707 708
f 693 691 706 709
f 692 694 710 707
f 695 693 709 711
f 694 696 712 710
f 697 695 711 713
f 696 698 714 712
f 699 697 713 715
f 698 700 716 714
f 701 699 715 717
f 700 702 718 716
f 703 701 717 719
f 702 704 720 718
f 689 703 719 705
f 704 690 708 720
f 732 724 725 733
f 735 733 725 727
f 736 728 726 734
f 724 732 731 723
f 735 727 730 738
f 737 738 730 729
f 737 729 728 736
f 726 728 729 730 727 725 724 723
f 734 731 732 733 735 738 737 736
f 723 731 734 726
f 769 773 765 761
f 763 771 767 759
f 768 772 764 760
f 760 759 761 762
f 766 774 770 762
f 759 760 764 763
f 767 769 761 759
f 762 761 765 766
f 768 770 769 767
f 767 771 772 768
f 770 774 773 769
f 762 770 768 760
f 776 792 804 788
f 779 781 780 777
f 788 804 794 778
f 776 779 777 775
f 786 787 781 779
f 806 790 789 805
f 780 781 784 782
f 790 787 783 789
f 787 786 785 783
f 786 788 778 785
f 800 798 782 784
f 781 787 790 784
f 800 784 790 806
f 776 788 786 779
f 795 793 796 797
f 792 791 793 795
f 802 795 797 803
f 796 798 800 797
f 806 805 799 803
f 803 799 801 802
f 802 801 794 804
f 797 800 806 803
f 792 795 802 804
f 775 791 792 776
f 924 927 928 923
f 927 925 926 928
f 931 929 930 932
f 923 930 929 924
f 925 931 932 926
f 934 937 938 933
f 937 935 936 938
f 941 939 940 942
f 933 940 939 934
f 935 941 942 936
f 938 936 925 927
f 937 928 926 935
f 931 942 940 929
f 930 939 941 932
f 940 933 924 929
f 939 930 923 934
f 925 936 942 931
f 932 941 935 926
f 928 937 934 923
f 924 933 938 927
f 1187 1189 1185 1180
f 1175 1183 1186 1178
f 1176 1184 1179 1171
f 1180 1183 1182 1181
f 1178 1186 1184 1176
f 1173 1182 1183 1175
f 1188 1187 1180 1181
f 1190 1195 1192 1191
f 1191 1192 1194 1193
f 1189 1187 1192 1195
f 1187 1188 1194 1192
f 1177 1189 1195 1190
f 1189 1177 1171 1179 1185
f 1395 1451 1450 1394
f 1396 1452 1451 1395
f 1397 1453 1452 1396
f 1398 1454 1453 1397
f 1399 1455 1454 1398
f 1400 1456 1455 1399
f 1401 1457 1456 1400
f 1394 1450 1457 1401
f 1185 1186 1183 1180
f 1179 1184 1186 1185
g Body
usemtl M_PCL_Flat_Grey_Light
f 1270 1269 1265 1264
f 1267 1270 1268
f 1269 1278 1273 1266
f 1270 1276 1277 1269
f 1267 1272 1275 1270
f 1266 1274 1271 1267
f 1271 1272 1267
f 1273 1274 1266
f 1275 1276 1270
f 1277 1278 1269
f 1281 1282 1283 1285 1284
f 1268 1270 1285 1283
f 1270 1264 1279 1285
f 1269 1266 1281 1284
f 1267 1268 1283 1282
f 1265 1269 1284 1280
f 1280 1284 1285 1279
f 1267 1282 1281 1266
g Body
usemtl M_PCL_Flat_White
f 1619 1599 1562 1565
f 1608 1561 1560 1610
f 1563 1599 1619 1617
f 1612 1610 1560 1605
f 1564 1563 1617 1566
f 1603 1614 1612 1605
f 1564 1566 1614 1603
f 1569 1584 1583 1582
f 1573 1575 1574 1594
f 1569 1568 1571 1587
f 1578 1620 1567 1579
f 1571 1568 1577 1572
f 1577 1568 1581 1576
f 1584 1569 1587 1570
f 1575 1573 1593 1591
f 1591 1593 1592 1590
f 1575 1577 1576 1574
f 1572 1589 1588 1571
f 1622 1580 1623 1621
f 1568 1569 1582 1581
f 1570 1587 1586 1585
f 1584 1570 1585 1583
f 1587 1571 1588 1586
f 1572 1591 1590 1589
f 1593 1573 1594 1592
f 1560 1561 1596 1595
f 1561 1562 1597 1596
f 1562 1599 1598 1597
f 1599 1563 1600 1598
f 1563 1564 1601 1600
f 1564 1603 1602 1601
f 1603 1605 1604 1602
f 1605 1560 1595 1604
f 1565 1608 1607 1606
f 1608 1610 1609 1607
f 1610 1612 1611 1609
f 1612 1614 1613 1611
f 1614 1566 1615 1613
f 1566 1617 1616 1615
f 1617 1619 1618 1616
f 1619 1565 1606 1618
f 1577 1575 1591 1572
f 1580 1622 1620 1578
f 1565 1562 1561 1608
f 1620 1622 1621 1567
f 1645 1625 1635 1629
f 1655 1638 1625 1645
f 1629 1635 1624 1648
f 1626 1638 1655 1632
f 1630 1648 1624 1628
f 1641 1626 1632 1652
f 1641 1652 1631 1627
f 1624 1635 1634 1633
f 1635 1625 1636 1634
f 1625 1638 1637 1636
f 1638 1626 1639 1637
f 1626 1641 1640 1639
f 1641 1627 1642 1640
f 1627 1628 1643 1642
f 1628 1624 1633 1643
f 1645 1629 1646 1644
f 1629 1648 1647 1646
f 1648 1630 1649 1647
f 1630 1631 1650 1649
f 1631 1652 1651 1650
f 1652 1632 1653 1651
f 1632 1655 1654 1653
f 1655 1645 1644 1654
f 1627 1631 1630 1628
f 1656 1657 1660 1659
f 1657 1658 1661 1660
f 1658 1663 1662 1661
f 1663 1656 1659 1662
f 1658 1657 1656 1663
f 1723 1669 1666 1703
f 1712 1714 1664 1665
f 1667 1721 1723 1703
f 1716 1709 1664 1714
f 1668 1670 1721 1667
f 1707 1709 1716 1718
f 1668 1707 1718 1670
f 1673 1686 1687 1688
f 1677 1698 1678 1679
f 1673 1691 1675 1672
f 1682 1683 1671 1724
f 1675 1676 1681 1672
f 1681 1680 1685 1672
f 1688 1674 1691 1673
f 1679 1695 1697 1677
f 1695 1694 1696 1697
f 1679 1678 1680 1681
f 1676 1675 1692 1693
f 1726 1725 1727 1684
f 1672 1685 1686 1673
f 1674 1689 1690 1691
f 1688 1687 1689 1674
f 1691 1690 1692 1675
f 1676 1693 1694 1695
f 1697 1696 1698 1677
f 1664 1699 1700 1665
f 1665 1700 1701 1666
f 1666 1701 1702 1703
f 1703 1702 1704 1667
f 1667 1704 1705 1668
f 1668 1705 1706 1707
f 1707 1706 1708 1709
f 1709 1708 1699 1664
f 1669 1710 1711 1712
f 1712 1711 1713 1714
f 1714 1713 1715 1716
f 1716 1715 1717 1718
f 1718 1717 1719 1670
f 1670 1719 1720 1721
f 1721 1720 1722 1723
f 1723 1722 1710 1669
f 1681 1676 1695 1679
f 1684 1682 1724 1726
f 1669 1712 1665 1666
f 1724 1671 1725 1726
f 1749 1733 1739 1729
f 1759 1749 1729 1742
f 1733 1752 1728 1739
f 1730 1736 1759 1742
f 1734 1732 1728 1752
f 1745 1756 1736 1730
f 1745 1731 1735 1756
f 1728 1737 1738 1739
f 1739 1738 1740 1729
f 1729 1740 1741 1742
f 1742 1741 1743 1730
f 1730 1743 1744 1745
f 1745 1744 1746 1731
f 1731 1746 1747 1732
f 1732 1747 1737 1728
f 1749 1748 1750 1733
f 1733 1750 1751 1752
f 1752 1751 1753 1734
f 1734 1753 1754 1735
f 1735 1754 1755 1756
f 1756 1755 1757 1736
f 1736 1757 1758 1759
f 1759 1758 1748 1749
f 1731 1732 1734 1735
f 1760 1763 1764 1761
f 1761 1764 1765 1762
f 1762 1765 1766 1767
f 1767 1766 1763 1760
f 1762 1767 1760 1761
g Body
usemtl M_PCL_Flat_Brown.Bole
f 29 45 61 77 93 109 125 13
f 12 28 27 11
f 28 44 43 27
f 44 60 59 43
f 60 76 75 59
f 76 92 91 75
f 92 108 107 91
f 108 124 123 107
f 124 12 11 123
f 11 27 32 16
f 27 43 48 32
f 43 59 64 48
f 59 75 80 64
f 75 91 96 80
f 91 107 112 96
f 107 123 128 112
f 123 11 16 128
f 28 12 124 108 92 76 60 44
f 14 30 29 13
f 30 46 45 29
f 46 62 61 45
f 62 78 77 61
f 78 94 93 77
f 94 110 109 93
f 110 126 125 109
f 126 14 13 125
f 15 31 30 14
f 31 47 46 30
f 47 63 62 46
f 63 79 78 62
f 79 95 94 78
f 95 111 110 94
f 111 127 126 110
f 127 15 14 126
f 16 32 31 15
f 32 48 47 31
f 48 64 63 47
f 64 80 79 63
f 80 96 95 79
f 96 112 111 95
f 112 128 127 111
f 128 16 15 127
f 189 205 221 237 253 269 285 173
f 172 188 187 171
f 188 204 203 187
f 204 220 219 203
f 220 236 235 219
f 236 252 251 235
f 252 268 267 251
f 268 284 283 267
f 284 172 171 283
f 171 187 192 176
f 187 203 208 192
f 203 219 224 208
f 219 235 240 224
f 235 251 256 240
f 251 267 272 256
f 267 283 288 272
f 283 171 176 288
f 188 172 284 268 252 236 220 204
f 174 190 189 173
f 190 206 205 189
f 206 222 221 205
f 222 238 237 221
f 238 254 253 237
f 254 270 269 253
f 270 286 285 269
f 286 174 173 285
f 175 191 190 174
f 191 207 206 190
f 207 223 222 206
f 223 239 238 222
f 239 255 254 238
f 255 271 270 254
f 271 287 286 270
f 287 175 174 286
f 176 192 191 175
f 192 208 207 191
f 208 224 223 207
f 224 240 239 223
f 240 256 255 239
f 256 272 271 255
f 272 288 287 271
f 288 176 175 287
f 349 365 381 397 413 429 445 333
f 332 348 347 331
f 348 364 363 347
f 364 380 379 363
f 380 396 395 379
f 396 412 411 395
f 412 428 427 411
f 428 444 443 427
f 444 332 331 443
f 331 347 352 336
f 347 363 368 352
f 363 379 384 368
f 379 395 400 384
f 395 411 416 400
f 411 427 432 416
f 427 443 448 432
f 443 331 336 448
f 348 332 444 428 412 396 380 364
f 334 350 349 333
f 350 366 365 349
f 366 382 381 365
f 382 398 397 381
f 398 414 413 397
f 414 430 429 413
f 430 446 445 429
f 446 334 333 445
f 335 351 350 334
f 351 367 366 350
f 367 383 382 366
f 383 399 398 382
f 399 415 414 398
f 415 431 430 414
f 431 447 446 430
f 447 335 334 446
f 336 352 351 335
f 352 368 367 351
f 368 384 383 367
f 384 400 399 383
f 400 416 415 399
f 416 432 431 415
f 432 448 447 431
f 448 336 335 447
g Body
usemtl Wood
f 1784 1785 1787 1786
f 1788 1790 1791 1789
f 1784 1788 1789 1785
f 1786 1787 1791 1790
f 1784 1786 1790 1788
f 1785 1789 1791 1787
