# 22i GPL-3.0 model; licensed replacement skins: UPSTREAM-CREDITS.md
g Body
usemtl Skin
v -0.095761 0.063631 -0.277793
vt 0.554688 0.835938
vn 1.000000 0.000000 -0.000000
v -0.095761 1.117383 -0.036333
vt 0.554688 0.960938
vn 1.000000 0.000000 -0.000000
v -0.095761 1.041926 0.292965
vt 0.593750 0.960938
vn 1.000000 0.000000 -0.000000
f 1/1/1 2/2/2 3/3/3
v -0.095761 0.063631 -0.277793
vt 0.554688 0.835938
vn 1.000000 0.000000 -0.000000
v -0.095761 1.041926 0.292965
vt 0.593750 0.960938
vn 1.000000 0.000000 -0.000000
v -0.095761 -0.011825 0.051504
vt 0.593750 0.835938
vn 1.000000 0.000000 -0.000000
f 4/4/4 5/5/5 6/6/6
v -0.095761 -0.011825 0.051504
vt 0.593750 0.835938
vn -0.000000 -0.223355 0.974737
v -0.095761 1.041926 0.292965
vt 0.593750 0.960938
vn -0.000000 -0.223355 0.974737
v -0.501159 1.041926 0.292965
vt 0.640625 0.960938
vn -0.000000 -0.223355 0.974737
f 7/7/7 8/8/8 9/9/9
v -0.095761 -0.011825 0.051504
vt 0.593750 0.835938
vn -0.000000 -0.223355 0.974737
v -0.501159 1.041926 0.292965
vt 0.640625 0.960938
vn -0.000000 -0.223355 0.974737
v -0.501159 -0.011825 0.051504
vt 0.640625 0.835938
vn -0.000000 -0.223355 0.974737
f 10/10/10 11/11/11 12/12/12
v -0.501159 -0.011825 0.051504
vt 0.468750 0.835938
vn -1.000000 0.000000 0.000000
v -0.501159 1.041926 0.292965
vt 0.468750 0.960938
vn -1.000000 0.000000 0.000000
v -0.501159 1.117383 -0.036333
vt 0.507812 0.960938
vn -1.000000 0.000000 0.000000
f 13/13/13 14/14/14 15/15/15
v -0.501159 -0.011825 0.051504
vt 0.468750 0.835938
vn -1.000000 0.000000 0.000000
v -0.501159 1.117383 -0.036333
vt 0.507812 0.960938
vn -1.000000 0.000000 0.000000
v -0.501159 0.063631 -0.277793
vt 0.507812 0.835938
vn -1.000000 0.000000 0.000000
f 16/16/16 17/17/17 18/18/18
v -0.501159 0.063631 -0.277793
vt 0.507812 0.835938
vn -0.000000 0.223355 -0.974737
v -0.501159 1.117383 -0.036333
vt 0.507812 0.960938
vn -0.000000 0.223355 -0.974737
v -0.095761 1.117383 -0.036333
vt 0.554688 0.960938
vn -0.000000 0.223355 -0.974737
f 19/19/19 20/20/20 21/21/21
v -0.501159 0.063631 -0.277793
vt 0.507812 0.835938
vn -0.000000 0.223355 -0.974737
v -0.095761 1.117383 -0.036333
vt 0.554688 0.960938
vn -0.000000 0.223355 -0.974737
v -0.095761 0.063631 -0.277793
vt 0.554688 0.835938
vn -0.000000 0.223355 -0.974737
f 22/22/22 23/23/23 24/24/24
v -0.095761 -0.011825 0.051504
vt 0.601562 1.000000
vn -0.000000 -0.974737 -0.223355
v -0.501159 -0.011825 0.051504
vt 0.554688 1.000000
vn -0.000000 -0.974737 -0.223355
v -0.501159 0.063631 -0.277793
vt 0.554688 0.960938
vn -0.000000 -0.974737 -0.223355
f 25/25/25 26/26/26 27/27/27
v -0.095761 -0.011825 0.051504
vt 0.601562 1.000000
vn -0.000000 -0.974737 -0.223355
v -0.501159 0.063631 -0.277793
vt 0.554688 0.960938
vn -0.000000 -0.974737 -0.223355
v -0.095761 0.063631 -0.277793
vt 0.601562 0.960938
vn -0.000000 -0.974737 -0.223355
f 28/28/28 29/29/29 30/30/30
v -0.501159 1.041926 0.292965
vt 0.554688 1.000000
vn -0.000000 0.974737 0.223355
v -0.095761 1.041926 0.292965
vt 0.507812 1.000000
vn -0.000000 0.974737 0.223355
v -0.095761 1.117383 -0.036333
vt 0.507812 0.960938
vn -0.000000 0.974737 0.223355
f 31/31/31 32/32/32 33/33/33
v -0.501159 1.041926 0.292965
vt 0.554688 1.000000
vn -0.000000 0.974737 0.223355
v -0.095761 1.117383 -0.036333
vt 0.507812 0.960938
vn -0.000000 0.974737 0.223355
v -0.501159 1.117383 -0.036333
vt 0.554688 0.960938
vn -0.000000 0.974737 0.223355
f 34/34/34 35/35/35 36/36/36
v 0.881226 0.276344 -0.403707
vt 0.515625 0.554688
vn 0.999959 -0.000768 0.009079
v 0.879670 2.274559 -0.063374
vt 0.515625 0.789062
vn 0.999959 -0.000768 0.009079
v 0.875989 2.206493 0.336252
vt 0.468750 0.789062
vn 0.999959 -0.000768 0.009079
f 37/37/37 38/38/38 39/39/39
v 0.881226 0.276344 -0.403707
vt 0.515625 0.554688
vn 0.999959 -0.000768 0.009079
v 0.875989 2.206493 0.336252
vt 0.468750 0.789062
vn 0.999959 -0.000768 0.009079
v 0.877546 0.208277 -0.004081
vt 0.468750 0.554688
vn 0.999959 -0.000768 0.009079
f 40/40/40 41/41/41 42/42/42
v 0.877546 0.208277 -0.004081
vt 0.625000 0.554688
vn -0.009079 -0.167900 0.985762
v 0.875989 2.206493 0.336252
vt 0.625000 0.789062
vn -0.009079 -0.167900 0.985762
v 0.605735 2.206700 0.333798
vt 0.593750 0.789062
vn -0.009079 -0.167900 0.985762
f 43/43/43 44/44/44 45/45/45
v 0.877546 0.208277 -0.004081
vt 0.625000 0.554688
vn -0.009079 -0.167900 0.985762
v 0.605735 2.206700 0.333798
vt 0.593750 0.789062
vn -0.009079 -0.167900 0.985762
v 0.607291 0.208485 -0.006535
vt 0.593750 0.554688
vn -0.009079 -0.167900 0.985762
f 46/46/46 47/47/47 48/48/48
v 0.607291 0.208485 -0.006535
vt 0.593750 0.554688
vn -0.999959 0.000768 -0.009079
v 0.605735 2.206700 0.333798
vt 0.593750 0.789062
vn -0.999959 0.000768 -0.009079
v 0.609416 2.274766 -0.065828
vt 0.546875 0.789062
vn -0.999959 0.000768 -0.009079
f 49/49/49 50/50/50 51/51/51
v 0.607291 0.208485 -0.006535
vt 0.593750 0.554688
vn -0.999959 0.000768 -0.009079
v 0.609416 2.274766 -0.065828
vt 0.546875 0.789062
vn -0.999959 0.000768 -0.009079
v 0.610972 0.276551 -0.406161
vt 0.546875 0.554688
vn -0.999959 0.000768 -0.009079
f 52/52/52 53/53/53 54/54/54
v 0.610972 0.276551 -0.406161
vt 0.546875 0.554688
vn 0.009079 0.167900 -0.985762
v 0.609416 2.274766 -0.065828
vt 0.546875 0.789062
vn 0.009079 0.167900 -0.985762
v 0.879670 2.274559 -0.063374
vt 0.515625 0.789062
vn 0.009079 0.167900 -0.985762
f 55/55/55 56/56/56 57/57/57
v 0.610972 0.276551 -0.406161
vt 0.546875 0.554688
vn 0.009079 0.167900 -0.985762
v 0.879670 2.274559 -0.063374
vt 0.515625 0.789062
vn 0.009079 0.167900 -0.985762
v 0.881226 0.276344 -0.403707
vt 0.515625 0.554688
vn 0.009079 0.167900 -0.985762
f 58/58/58 59/59/59 60/60/60
v 0.877546 0.208277 -0.004081
vt 0.578125 0.835938
vn 0.000768 -0.985804 -0.167900
v 0.607291 0.208485 -0.006535
vt 0.546875 0.835938
vn 0.000768 -0.985804 -0.167900
v 0.610972 0.276551 -0.406161
vt 0.546875 0.789062
vn 0.000768 -0.985804 -0.167900
f 61/61/61 62/62/62 63/63/63
v 0.877546 0.208277 -0.004081
vt 0.578125 0.835938
vn 0.000768 -0.985804 -0.167900
v 0.610972 0.276551 -0.406161
vt 0.546875 0.789062
vn 0.000768 -0.985804 -0.167900
v 0.881226 0.276344 -0.403707
vt 0.578125 0.789062
vn 0.000768 -0.985804 -0.167900
f 64/64/64 65/65/65 66/66/66
v 0.605735 2.206700 0.333798
vt 0.546875 0.835938
vn -0.000768 0.985804 0.167900
v 0.875989 2.206493 0.336252
vt 0.515625 0.835938
vn -0.000768 0.985804 0.167900
v 0.879670 2.274559 -0.063374
vt 0.515625 0.789062
vn -0.000768 0.985804 0.167900
f 67/67/67 68/68/68 69/69/69
v 0.605735 2.206700 0.333798
vt 0.546875 0.835938
vn -0.000768 0.985804 0.167900
v 0.879670 2.274559 -0.063374
vt 0.515625 0.789062
vn -0.000768 0.985804 0.167900
v 0.609416 2.274766 -0.065828
vt 0.546875 0.789062
vn -0.000768 0.985804 0.167900
f 70/70/70 71/71/71 72/72/72
v -0.608034 0.208327 0.236408
vt 0.515625 0.265625
vn 0.999959 -0.000768 -0.009079
v -0.609590 2.206542 -0.103924
vt 0.515625 0.500000
vn 0.999959 -0.000768 -0.009079
v -0.605909 2.274609 0.295702
vt 0.468750 0.500000
vn 0.999959 -0.000768 -0.009079
f 73/73/73 74/74/74 75/75/75
v -0.608034 0.208327 0.236408
vt 0.515625 0.265625
vn 0.999959 -0.000768 -0.009079
v -0.605909 2.274609 0.295702
vt 0.468750 0.500000
vn 0.999959 -0.000768 -0.009079
v -0.604353 0.276393 0.636035
vt 0.468750 0.265625
vn 0.999959 -0.000768 -0.009079
f 76/76/76 77/77/77 78/78/78
v -0.604353 0.276393 0.636035
vt 0.625000 0.265625
vn 0.009079 0.167900 0.985762
v -0.605909 2.274609 0.295702
vt 0.625000 0.500000
vn 0.009079 0.167900 0.985762
v -0.876164 2.274816 0.298156
vt 0.593750 0.500000
vn 0.009079 0.167900 0.985762
f 79/79/79 80/80/80 81/81/81
v -0.604353 0.276393 0.636035
vt 0.625000 0.265625
vn 0.009079 0.167900 0.985762
v -0.876164 2.274816 0.298156
vt 0.593750 0.500000
vn 0.009079 0.167900 0.985762
v -0.874608 0.276601 0.638488
vt 0.593750 0.265625
vn 0.009079 0.167900 0.985762
f 82/82/82 83/83/83 84/84/84
v -0.874608 0.276601 0.638488
vt 0.593750 0.265625
vn -0.999959 0.000768 0.009079
v -0.876164 2.274816 0.298156
vt 0.593750 0.500000
vn -0.999959 0.000768 0.009079
v -0.879844 2.206749 -0.101471
vt 0.546875 0.500000
vn -0.999959 0.000768 0.009079
f 85/85/85 86/86/86 87/87/87
v -0.874608 0.276601 0.638488
vt 0.593750 0.265625
vn -0.999959 0.000768 0.009079
v -0.879844 2.206749 -0.101471
vt 0.546875 0.500000
vn -0.999959 0.000768 0.009079
v -0.878288 0.208534 0.238862
vt 0.546875 0.265625
vn -0.999959 0.000768 0.009079
f 88/88/88 89/89/89 90/90/90
v -0.878288 0.208534 0.238862
vt 0.546875 0.265625
vn -0.009079 -0.167900 -0.985762
v -0.879844 2.206749 -0.101471
vt 0.546875 0.500000
vn -0.009079 -0.167900 -0.985762
v -0.609590 2.206542 -0.103924
vt 0.515625 0.500000
vn -0.009079 -0.167900 -0.985762
f 91/91/91 92/92/92 93/93/93
v -0.878288 0.208534 0.238862
vt 0.546875 0.265625
vn -0.009079 -0.167900 -0.985762
v -0.609590 2.206542 -0.103924
vt 0.515625 0.500000
vn -0.009079 -0.167900 -0.985762
v -0.608034 0.208327 0.236408
vt 0.515625 0.265625
vn -0.009079 -0.167900 -0.985762
f 94/94/94 95/95/95 96/96/96
v -0.604353 0.276393 0.636035
vt 0.578125 0.546875
vn 0.000767 -0.985804 0.167901
v -0.874608 0.276601 0.638488
vt 0.546875 0.546875
vn 0.000767 -0.985804 0.167901
v -0.878288 0.208534 0.238862
vt 0.546875 0.500000
vn 0.000767 -0.985804 0.167901
f 97/97/97 98/98/98 99/99/99
v -0.604353 0.276393 0.636035
vt 0.578125 0.546875
vn 0.000767 -0.985804 0.167901
v -0.878288 0.208534 0.238862
vt 0.546875 0.500000
vn 0.000767 -0.985804 0.167901
v -0.608034 0.208327 0.236408
vt 0.578125 0.500000
vn 0.000767 -0.985804 0.167901
f 100/100/100 101/101/101 102/102/102
v -0.876164 2.274816 0.298156
vt 0.546875 0.546875
vn -0.000768 0.985804 -0.167900
v -0.605909 2.274609 0.295702
vt 0.515625 0.546875
vn -0.000768 0.985804 -0.167900
v -0.609590 2.206542 -0.103924
vt 0.515625 0.500000
vn -0.000768 0.985804 -0.167900
f 103/103/103 104/104/104 105/105/105
v -0.876164 2.274816 0.298156
vt 0.546875 0.546875
vn -0.000768 0.985804 -0.167900
v -0.609590 2.206542 -0.103924
vt 0.515625 0.500000
vn -0.000768 0.985804 -0.167900
v -0.879844 2.206749 -0.101471
vt 0.546875 0.500000
vn -0.000768 0.985804 -0.167900
f 106/106/106 107/107/107 108/108/108
v 0.304049 1.080572 -0.086827
vt 0.046875 0.367188
vn 1.000000 0.000000 0.000000
v 0.304049 1.418404 -0.086827
vt 0.046875 0.406250
vn 1.000000 0.000000 0.000000
v 0.304049 1.418404 0.318571
vt 0.000000 0.406250
vn 1.000000 0.000000 0.000000
f 109/109/109 110/110/110 111/111/111
v 0.304049 1.080572 -0.086827
vt 0.046875 0.367188
vn 1.000000 0.000000 0.000000
v 0.304049 1.418404 0.318571
vt 0.000000 0.406250
vn 1.000000 0.000000 0.000000
v 0.304049 1.080572 0.318571
vt 0.000000 0.367188
vn 1.000000 0.000000 0.000000
f 112/112/112 113/113/113 114/114/114
v 0.304049 1.080572 0.318571
vt 0.234375 0.367188
vn -0.000000 0.000000 1.000000
v 0.304049 1.418404 0.318571
vt 0.234375 0.406250
vn -0.000000 0.000000 1.000000
v -0.304049 1.418404 0.318571
vt 0.164062 0.406250
vn -0.000000 0.000000 1.000000
f 115/115/115 116/116/116 117/117/117
v 0.304049 1.080572 0.318571
vt 0.234375 0.367188
vn -0.000000 0.000000 1.000000
v -0.304049 1.418404 0.318571
vt 0.164062 0.406250
vn -0.000000 0.000000 1.000000
v -0.304049 1.080572 0.318571
vt 0.164062 0.367188
vn -0.000000 0.000000 1.000000
f 118/118/118 119/119/119 120/120/120
v -0.304049 1.080572 0.318571
vt 0.164062 0.367188
vn -1.000000 0.000000 0.000000
v -0.304049 1.418404 0.318571
vt 0.164062 0.406250
vn -1.000000 0.000000 0.000000
v -0.304049 1.418404 -0.086827
vt 0.117188 0.406250
vn -1.000000 0.000000 0.000000
f 121/121/121 122/122/122 123/123/123
v -0.304049 1.080572 0.318571
vt 0.164062 0.367188
vn -1.000000 0.000000 0.000000
v -0.304049 1.418404 -0.086827
vt 0.117188 0.406250
vn -1.000000 0.000000 0.000000
v -0.304049 1.080572 -0.086827
vt 0.117188 0.367188
vn -1.000000 0.000000 0.000000
f 124/124/124 125/125/125 126/126/126
v -0.304049 1.080572 -0.086827
vt 0.117188 0.367188
vn -0.000000 0.000000 -1.000000
v -0.304049 1.418404 -0.086827
vt 0.117188 0.406250
vn -0.000000 0.000000 -1.000000
v 0.304049 1.418404 -0.086827
vt 0.046875 0.406250
vn -0.000000 0.000000 -1.000000
f 127/127/127 128/128/128 129/129/129
v -0.304049 1.080572 -0.086827
vt 0.117188 0.367188
vn -0.000000 0.000000 -1.000000
v 0.304049 1.418404 -0.086827
vt 0.046875 0.406250
vn -0.000000 0.000000 -1.000000
v 0.304049 1.080572 -0.086827
vt 0.046875 0.367188
vn -0.000000 0.000000 -1.000000
f 130/130/130 131/131/131 132/132/132
v 0.304049 1.080572 0.318571
vt 0.117188 0.453125
vn -0.000000 -1.000000 0.000000
v -0.304049 1.080572 0.318571
vt 0.046875 0.453125
vn -0.000000 -1.000000 0.000000
v -0.304049 1.080572 -0.086827
vt 0.046875 0.406250
vn -0.000000 -1.000000 0.000000
f 133/133/133 134/134/134 135/135/135
v 0.304049 1.080572 0.318571
vt 0.117188 0.453125
vn -0.000000 -1.000000 0.000000
v -0.304049 1.080572 -0.086827
vt 0.046875 0.406250
vn -0.000000 -1.000000 0.000000
v 0.304049 1.080572 -0.086827
vt 0.117188 0.406250
vn -0.000000 -1.000000 0.000000
f 136/136/136 137/137/137 138/138/138
v -0.304049 1.418404 0.318571
vt 0.187500 0.453125
vn -0.000000 1.000000 0.000000
v 0.304049 1.418404 0.318571
vt 0.117188 0.453125
vn -0.000000 1.000000 0.000000
v 0.304049 1.418404 -0.086827
vt 0.117188 0.406250
vn -0.000000 1.000000 0.000000
f 139/139/139 140/140/140 141/141/141
v -0.304049 1.418404 0.318571
vt 0.187500 0.453125
vn -0.000000 1.000000 0.000000
v 0.304049 1.418404 -0.086827
vt 0.117188 0.406250
vn -0.000000 1.000000 0.000000
v -0.304049 1.418404 -0.086827
vt 0.187500 0.406250
vn -0.000000 1.000000 0.000000
f 142/142/142 143/143/143 144/144/144
v 0.608097 1.414236 -0.255743
vt 0.085938 0.507812
vn 1.000000 0.000000 0.000000
v 0.608097 2.225032 -0.255743
vt 0.085938 0.601562
vn 1.000000 0.000000 0.000000
v 0.608097 2.225032 0.487487
vt 0.000000 0.601562
vn 1.000000 0.000000 0.000000
f 145/145/145 146/146/146 147/147/147
v 0.608097 1.414236 -0.255743
vt 0.085938 0.507812
vn 1.000000 0.000000 0.000000
v 0.608097 2.225032 0.487487
vt 0.000000 0.601562
vn 1.000000 0.000000 0.000000
v 0.608097 1.414236 0.487487
vt 0.000000 0.507812
vn 1.000000 0.000000 0.000000
f 148/148/148 149/149/149 150/150/150
v 0.608097 1.414236 0.487487
vt 0.453125 0.507812
vn -0.000000 0.000000 1.000000
v 0.608097 2.225032 0.487487
vt 0.453125 0.601562
vn -0.000000 0.000000 1.000000
v -0.608097 2.225032 0.487487
vt 0.312500 0.601562
vn -0.000000 0.000000 1.000000
f 151/151/151 152/152/152 153/153/153
v 0.608097 1.414236 0.487487
vt 0.453125 0.507812
vn -0.000000 0.000000 1.000000
v -0.608097 2.225032 0.487487
vt 0.312500 0.601562
vn -0.000000 0.000000 1.000000
v -0.608097 1.414236 0.487487
vt 0.312500 0.507812
vn -0.000000 0.000000 1.000000
f 154/154/154 155/155/155 156/156/156
v -0.608097 1.414236 0.487487
vt 0.312500 0.507812
vn -1.000000 0.000000 0.000000
v -0.608097 2.225032 0.487487
vt 0.312500 0.601562
vn -1.000000 0.000000 0.000000
v -0.608097 2.225032 -0.255743
vt 0.226562 0.601562
vn -1.000000 0.000000 0.000000
f 157/157/157 158/158/158 159/159/159
v -0.608097 1.414236 0.487487
vt 0.312500 0.507812
vn -1.000000 0.000000 0.000000
v -0.608097 2.225032 -0.255743
vt 0.226562 0.601562
vn -1.000000 0.000000 0.000000
v -0.608097 1.414236 -0.255743
vt 0.226562 0.507812
vn -1.000000 0.000000 0.000000
f 160/160/160 161/161/161 162/162/162
v -0.608097 1.414236 -0.255743
vt 0.226562 0.507812
vn -0.000000 0.000000 -1.000000
v -0.608097 2.225032 -0.255743
vt 0.226562 0.601562
vn -0.000000 0.000000 -1.000000
v 0.608097 2.225032 -0.255743
vt 0.085938 0.601562
vn -0.000000 0.000000 -1.000000
f 163/163/163 164/164/164 165/165/165
v -0.608097 1.414236 -0.255743
vt 0.226562 0.507812
vn -0.000000 0.000000 -1.000000
v 0.608097 2.225032 -0.255743
vt 0.085938 0.601562
vn -0.000000 0.000000 -1.000000
v 0.608097 1.414236 -0.255743
vt 0.085938 0.507812
vn -0.000000 0.000000 -1.000000
f 166/166/166 167/167/167 168/168/168
v 0.608097 1.414236 0.487487
vt 0.367188 0.687500
vn -0.000000 -1.000000 0.000000
v -0.608097 1.414236 0.487487
vt 0.226562 0.687500
vn -0.000000 -1.000000 0.000000
v -0.608097 1.414236 -0.255743
vt 0.226562 0.601562
vn -0.000000 -1.000000 0.000000
f 169/169/169 170/170/170 171/171/171
v 0.608097 1.414236 0.487487
vt 0.367188 0.687500
vn -0.000000 -1.000000 0.000000
v -0.608097 1.414236 -0.255743
vt 0.226562 0.601562
vn -0.000000 -1.000000 0.000000
v 0.608097 1.414236 -0.255743
vt 0.367188 0.601562
vn -0.000000 -1.000000 0.000000
f 172/172/172 173/173/173 174/174/174
v -0.608097 2.225032 0.487487
vt 0.226562 0.687500
vn -0.000000 1.000000 0.000000
v 0.608097 2.225032 0.487487
vt 0.085938 0.687500
vn -0.000000 1.000000 0.000000
v 0.608097 2.225032 -0.255743
vt 0.085938 0.601562
vn -0.000000 1.000000 0.000000
f 175/175/175 176/176/176 177/177/177
v -0.608097 2.225032 0.487487
vt 0.226562 0.687500
vn -0.000000 1.000000 0.000000
v 0.608097 2.225032 -0.255743
vt 0.085938 0.601562
vn -0.000000 1.000000 0.000000
v -0.608097 2.225032 -0.255743
vt 0.226562 0.601562
vn -0.000000 1.000000 0.000000
f 178/178/178 179/179/179 180/180/180
v 0.506537 -0.011728 0.181094
vt 0.328125 0.835938
vn 1.000000 0.000000 0.000000
v 0.506537 1.042023 -0.060367
vt 0.328125 0.960938
vn 1.000000 0.000000 0.000000
v 0.506537 1.117479 0.268930
vt 0.289062 0.960938
vn 1.000000 0.000000 0.000000
f 181/181/181 182/182/182 183/183/183
v 0.506537 -0.011728 0.181094
vt 0.328125 0.835938
vn 1.000000 0.000000 0.000000
v 0.506537 1.117479 0.268930
vt 0.289062 0.960938
vn 1.000000 0.000000 0.000000
v 0.506537 0.063728 0.510391
vt 0.289062 0.835938
vn 1.000000 0.000000 0.000000
f 184/184/184 185/185/185 186/186/186
v 0.506537 0.063728 0.510391
vt 0.460938 0.835938
vn -0.000000 0.223355 0.974737
v 0.506537 1.117479 0.268930
vt 0.460938 0.960938
vn -0.000000 0.223355 0.974737
v 0.101138 1.117479 0.268930
vt 0.414062 0.960938
vn -0.000000 0.223355 0.974737
f 187/187/187 188/188/188 189/189/189
v 0.506537 0.063728 0.510391
vt 0.460938 0.835938
vn -0.000000 0.223355 0.974737
v 0.101138 1.117479 0.268930
vt 0.414062 0.960938
vn -0.000000 0.223355 0.974737
v 0.101138 0.063728 0.510391
vt 0.414062 0.835938
vn -0.000000 0.223355 0.974737
f 190/190/190 191/191/191 192/192/192
v 0.101138 0.063728 0.510391
vt 0.414062 0.835938
vn -1.000000 0.000000 0.000000
v 0.101138 1.117479 0.268930
vt 0.414062 0.960938
vn -1.000000 0.000000 0.000000
v 0.101138 1.042023 -0.060367
vt 0.375000 0.960938
vn -1.000000 0.000000 0.000000
f 193/193/193 194/194/194 195/195/195
v 0.101138 0.063728 0.510391
vt 0.414062 0.835938
vn -1.000000 0.000000 0.000000
v 0.101138 1.042023 -0.060367
vt 0.375000 0.960938
vn -1.000000 0.000000 0.000000
v 0.101138 -0.011728 0.181094
vt 0.375000 0.835938
vn -1.000000 0.000000 0.000000
f 196/196/196 197/197/197 198/198/198
v 0.101138 -0.011728 0.181094
vt 0.375000 0.835938
vn -0.000000 -0.223355 -0.974737
v 0.101138 1.042023 -0.060367
vt 0.375000 0.960938
vn -0.000000 -0.223355 -0.974737
v 0.506537 1.042023 -0.060367
vt 0.328125 0.960938
vn -0.000000 -0.223355 -0.974737
f 199/199/199 200/200/200 201/201/201
v 0.101138 -0.011728 0.181094
vt 0.375000 0.835938
vn -0.000000 -0.223355 -0.974737
v 0.506537 1.042023 -0.060367
vt 0.328125 0.960938
vn -0.000000 -0.223355 -0.974737
v 0.506537 -0.011728 0.181094
vt 0.328125 0.835938
vn -0.000000 -0.223355 -0.974737
f 202/202/202 203/203/203 204/204/204
v 0.506537 0.063728 0.510391
vt 0.421875 1.000000
vn -0.000000 -0.974737 0.223355
v 0.101138 0.063728 0.510391
vt 0.375000 1.000000
vn -0.000000 -0.974737 0.223355
v 0.101138 -0.011728 0.181094
vt 0.375000 0.960938
vn -0.000000 -0.974737 0.223355
f 205/205/205 206/206/206 207/207/207
v 0.506537 0.063728 0.510391
vt 0.421875 1.000000
vn -0.000000 -0.974737 0.223355
v 0.101138 -0.011728 0.181094
vt 0.375000 0.960938
vn -0.000000 -0.974737 0.223355
v 0.506537 -0.011728 0.181094
vt 0.421875 0.960938
vn -0.000000 -0.974737 0.223355
f 208/208/208 209/209/209 210/210/210
v 0.101138 1.117479 0.268930
vt 0.375000 1.000000
vn -0.000000 0.974737 -0.223355
v 0.506537 1.117479 0.268930
vt 0.328125 1.000000
vn -0.000000 0.974737 -0.223355
v 0.506537 1.042023 -0.060367
vt 0.328125 0.960938
vn -0.000000 0.974737 -0.223355
f 211/211/211 212/212/212 213/213/213
v 0.101138 1.117479 0.268930
vt 0.375000 1.000000
vn -0.000000 0.974737 -0.223355
v 0.506537 1.042023 -0.060367
vt 0.328125 0.960938
vn -0.000000 0.974737 -0.223355
v 0.101138 1.042023 -0.060367
vt 0.375000 0.960938
vn -0.000000 0.974737 -0.223355
f 214/214/214 215/215/215 216/216/216
v 0.067566 2.158260 -0.487487
vt 0.203125 0.953125
vn 1.000000 0.000000 0.000000
v 0.067566 2.428525 -0.487487
vt 0.203125 0.984375
vn 1.000000 0.000000 0.000000
v 0.067566 2.428525 -0.352354
vt 0.187500 0.984375
vn 1.000000 0.000000 0.000000
f 217/217/217 218/218/218 219/219/219
v 0.067566 2.158260 -0.487487
vt 0.203125 0.953125
vn 1.000000 0.000000 0.000000
v 0.067566 2.428525 -0.352354
vt 0.187500 0.984375
vn 1.000000 0.000000 0.000000
v 0.067566 2.158260 -0.352354
vt 0.187500 0.953125
vn 1.000000 0.000000 0.000000
f 220/220/220 221/221/221 222/222/222
v 0.067566 2.158260 -0.352354
vt 0.250000 0.953125
vn -0.000000 0.000000 1.000000
v 0.067566 2.428525 -0.352354
vt 0.250000 0.984375
vn -0.000000 0.000000 1.000000
v -0.067566 2.428525 -0.352354
vt 0.234375 0.984375
vn -0.000000 0.000000 1.000000
f 223/223/223 224/224/224 225/225/225
v 0.067566 2.158260 -0.352354
vt 0.250000 0.953125
vn -0.000000 0.000000 1.000000
v -0.067566 2.428525 -0.352354
vt 0.234375 0.984375
vn -0.000000 0.000000 1.000000
v -0.067566 2.158260 -0.352354
vt 0.234375 0.953125
vn -0.000000 0.000000 1.000000
f 226/226/226 227/227/227 228/228/228
v -0.067566 2.158260 -0.352354
vt 0.234375 0.953125
vn -1.000000 0.000000 0.000000
v -0.067566 2.428525 -0.352354
vt 0.234375 0.984375
vn -1.000000 0.000000 0.000000
v -0.067566 2.428525 -0.487487
vt 0.218750 0.984375
vn -1.000000 0.000000 0.000000
f 229/229/229 230/230/230 231/231/231
v -0.067566 2.158260 -0.352354
vt 0.234375 0.953125
vn -1.000000 0.000000 0.000000
v -0.067566 2.428525 -0.487487
vt 0.218750 0.984375
vn -1.000000 0.000000 0.000000
v -0.067566 2.158260 -0.487487
vt 0.218750 0.953125
vn -1.000000 0.000000 0.000000
f 232/232/232 233/233/233 234/234/234
v -0.067566 2.158260 -0.487487
vt 0.218750 0.953125
vn -0.000000 0.000000 -1.000000
v -0.067566 2.428525 -0.487487
vt 0.218750 0.984375
vn -0.000000 0.000000 -1.000000
v 0.067566 2.428525 -0.487487
vt 0.203125 0.984375
vn -0.000000 0.000000 -1.000000
f 235/235/235 236/236/236 237/237/237
v -0.067566 2.158260 -0.487487
vt 0.218750 0.953125
vn -0.000000 0.000000 -1.000000
v 0.067566 2.428525 -0.487487
vt 0.203125 0.984375
vn -0.000000 0.000000 -1.000000
v 0.067566 2.158260 -0.487487
vt 0.203125 0.953125
vn -0.000000 0.000000 -1.000000
f 238/238/238 239/239/239 240/240/240
v 0.067566 2.158260 -0.352354
vt 0.234375 1.000000
vn -0.000000 -1.000000 0.000000
v -0.067566 2.158260 -0.352354
vt 0.218750 1.000000
vn -0.000000 -1.000000 0.000000
v -0.067566 2.158260 -0.487487
vt 0.218750 0.984375
vn -0.000000 -1.000000 0.000000
f 241/241/241 242/242/242 243/243/243
v 0.067566 2.158260 -0.352354
vt 0.234375 1.000000
vn -0.000000 -1.000000 0.000000
v -0.067566 2.158260 -0.487487
vt 0.218750 0.984375
vn -0.000000 -1.000000 0.000000
v 0.067566 2.158260 -0.487487
vt 0.234375 0.984375
vn -0.000000 -1.000000 0.000000
f 244/244/244 245/245/245 246/246/246
v -0.067566 2.428525 -0.352354
vt 0.218750 1.000000
vn -0.000000 1.000000 0.000000
v 0.067566 2.428525 -0.352354
vt 0.203125 1.000000
vn -0.000000 1.000000 0.000000
v 0.067566 2.428525 -0.487487
vt 0.203125 0.984375
vn -0.000000 1.000000 0.000000
f 247/247/247 248/248/248 249/249/249
v -0.067566 2.428525 -0.352354
vt 0.218750 1.000000
vn -0.000000 1.000000 0.000000
v 0.067566 2.428525 -0.487487
vt 0.203125 0.984375
vn -0.000000 1.000000 0.000000
v -0.067566 2.428525 -0.487487
vt 0.218750 0.984375
vn -0.000000 1.000000 0.000000
f 250/250/250 251/251/251 252/252/252
v 0.270265 2.224337 -0.352407
vt 0.062500 0.859375
vn 1.000000 0.000000 0.000000
v 0.270265 2.900000 -0.352407
vt 0.062500 0.937500
vn 1.000000 0.000000 0.000000
v 0.270265 2.900000 0.188124
vt -0.000000 0.937500
vn 1.000000 0.000000 0.000000
f 253/253/253 254/254/254 255/255/255
v 0.270265 2.224337 -0.352407
vt 0.062500 0.859375
vn 1.000000 0.000000 0.000000
v 0.270265 2.900000 0.188124
vt -0.000000 0.937500
vn 1.000000 0.000000 0.000000
v 0.270265 2.224337 0.188124
vt -0.000000 0.859375
vn 1.000000 0.000000 0.000000
f 256/256/256 257/257/257 258/258/258
v 0.270265 2.224337 0.188124
vt 0.250000 0.859375
vn -0.000000 0.000000 1.000000
v 0.270265 2.900000 0.188124
vt 0.250000 0.937500
vn -0.000000 0.000000 1.000000
v -0.270265 2.900000 0.188124
vt 0.187500 0.937500
vn -0.000000 0.000000 1.000000
f 259/259/259 260/260/260 261/261/261
v 0.270265 2.224337 0.188124
vt 0.250000 0.859375
vn -0.000000 0.000000 1.000000
v -0.270265 2.900000 0.188124
vt 0.187500 0.937500
vn -0.000000 0.000000 1.000000
v -0.270265 2.224337 0.188124
vt 0.187500 0.859375
vn -0.000000 0.000000 1.000000
f 262/262/262 263/263/263 264/264/264
v -0.270265 2.224337 0.188124
vt 0.187500 0.859375
vn -1.000000 0.000000 0.000000
v -0.270265 2.900000 0.188124
vt 0.187500 0.937500
vn -1.000000 0.000000 0.000000
v -0.270265 2.900000 -0.352407
vt 0.125000 0.937500
vn -1.000000 0.000000 0.000000
f 265/265/265 266/266/266 267/267/267
v -0.270265 2.224337 0.188124
vt 0.187500 0.859375
vn -1.000000 0.000000 0.000000
v -0.270265 2.900000 -0.352407
vt 0.125000 0.937500
vn -1.000000 0.000000 0.000000
v -0.270265 2.224337 -0.352407
vt 0.125000 0.859375
vn -1.000000 0.000000 0.000000
f 268/268/268 269/269/269 270/270/270
v -0.270265 2.224337 -0.352407
vt 0.125000 0.859375
vn -0.000000 0.000000 -1.000000
v -0.270265 2.900000 -0.352407
vt 0.125000 0.937500
vn -0.000000 0.000000 -1.000000
v 0.270265 2.900000 -0.352407
vt 0.062500 0.937500
vn -0.000000 0.000000 -1.000000
f 271/271/271 272/272/272 273/273/273
v -0.270265 2.224337 -0.352407
vt 0.125000 0.859375
vn -0.000000 0.000000 -1.000000
v 0.270265 2.900000 -0.352407
vt 0.062500 0.937500
vn -0.000000 0.000000 -1.000000
v 0.270265 2.224337 -0.352407
vt 0.062500 0.859375
vn -0.000000 0.000000 -1.000000
f 274/274/274 275/275/275 276/276/276
v 0.270265 2.224337 0.188124
vt 0.187500 1.000000
vn -0.000000 -1.000000 0.000000
v -0.270265 2.224337 0.188124
vt 0.125000 1.000000
vn -0.000000 -1.000000 0.000000
v -0.270265 2.224337 -0.352407
vt 0.125000 0.937500
vn -0.000000 -1.000000 0.000000
f 277/277/277 278/278/278 279/279/279
v 0.270265 2.224337 0.188124
vt 0.187500 1.000000
vn -0.000000 -1.000000 0.000000
v -0.270265 2.224337 -0.352407
vt 0.125000 0.937500
vn -0.000000 -1.000000 0.000000
v 0.270265 2.224337 -0.352407
vt 0.187500 0.937500
vn -0.000000 -1.000000 0.000000
f 280/280/280 281/281/281 282/282/282
v -0.270265 2.900000 0.188124
vt 0.125000 1.000000
vn -0.000000 1.000000 0.000000
v 0.270265 2.900000 0.188124
vt 0.062500 1.000000
vn -0.000000 1.000000 0.000000
v 0.270265 2.900000 -0.352407
vt 0.062500 0.937500
vn -0.000000 1.000000 0.000000
f 283/283/283 284/284/284 285/285/285
v -0.270265 2.900000 0.188124
vt 0.125000 1.000000
vn -0.000000 1.000000 0.000000
v 0.270265 2.900000 -0.352407
vt 0.062500 0.937500
vn -0.000000 1.000000 0.000000
v -0.270265 2.900000 -0.352407
vt 0.125000 0.937500
vn -0.000000 1.000000 0.000000
f 286/286/286 287/287/287 288/288/288
