# 22i GPL-3.0 model; licensed replacement skins: UPSTREAM-CREDITS.md
g Body
usemtl Skin
v 0.231937 0.695046 0.601325
vt 0.289062 0.531250
vn 1.000000 0.000000 -0.000000
v 0.231937 0.695045 -0.326425
vt 0.289062 0.781250
vn 1.000000 0.000000 -0.000000
v 0.231937 1.042952 -0.326425
vt 0.242188 0.781250
vn 1.000000 0.000000 -0.000000
f 1/1/1 2/2/2 3/3/3
v 0.231937 0.695046 0.601325
vt 0.289062 0.531250
vn 1.000000 0.000000 -0.000000
v 0.231937 1.042952 -0.326425
vt 0.242188 0.781250
vn 1.000000 0.000000 -0.000000
v 0.231937 1.042952 0.601325
vt 0.242188 0.531250
vn 1.000000 0.000000 -0.000000
f 4/4/4 5/5/5 6/6/6
v 0.231937 1.042952 0.601325
vt 0.460938 0.531250
vn -0.000000 1.000000 -0.000000
v 0.231937 1.042952 -0.326425
vt 0.460938 0.781250
vn -0.000000 1.000000 -0.000000
v -0.231937 1.042952 -0.326425
vt 0.398438 0.781250
vn -0.000000 1.000000 -0.000000
f 7/7/7 8/8/8 9/9/9
v 0.231937 1.042952 0.601325
vt 0.460938 0.531250
vn -0.000000 1.000000 -0.000000
v -0.231937 1.042952 -0.326425
vt 0.398438 0.781250
vn -0.000000 1.000000 -0.000000
v -0.231937 1.042952 0.601325
vt 0.398438 0.531250
vn -0.000000 1.000000 -0.000000
f 10/10/10 11/11/11 12/12/12
v -0.231937 1.042952 0.601325
vt 0.398438 0.531250
vn -1.000000 -0.000000 0.000000
v -0.231937 1.042952 -0.326425
vt 0.398438 0.781250
vn -1.000000 -0.000000 0.000000
v -0.231937 0.695045 -0.326425
vt 0.351562 0.781250
vn -1.000000 -0.000000 0.000000
f 13/13/13 14/14/14 15/15/15
v -0.231937 1.042952 0.601325
vt 0.398438 0.531250
vn -1.000000 -0.000000 0.000000
v -0.231937 0.695045 -0.326425
vt 0.351562 0.781250
vn -1.000000 -0.000000 0.000000
v -0.231937 0.695046 0.601325
vt 0.351562 0.531250
vn -1.000000 -0.000000 0.000000
f 16/16/16 17/17/17 18/18/18
v -0.231937 0.695046 0.601325
vt 0.351562 0.531250
vn 0.000000 -1.000000 0.000000
v -0.231937 0.695045 -0.326425
vt 0.351562 0.781250
vn 0.000000 -1.000000 0.000000
v 0.231937 0.695045 -0.326425
vt 0.289062 0.781250
vn 0.000000 -1.000000 0.000000
f 19/19/19 20/20/20 21/21/21
v -0.231937 0.695046 0.601325
vt 0.351562 0.531250
vn 0.000000 -1.000000 0.000000
v 0.231937 0.695045 -0.326425
vt 0.289062 0.781250
vn 0.000000 -1.000000 0.000000
v 0.231937 0.695046 0.601325
vt 0.289062 0.531250
vn 0.000000 -1.000000 0.000000
f 22/22/22 23/23/23 24/24/24
v 0.231937 1.042952 0.601325
vt 0.351562 0.875000
vn 0.000000 0.000000 1.000000
v -0.231937 1.042952 0.601325
vt 0.414062 0.875000
vn 0.000000 0.000000 1.000000
v -0.231937 0.695046 0.601325
vt 0.414062 0.781250
vn 0.000000 0.000000 1.000000
f 25/25/25 26/26/26 27/27/27
v 0.231937 1.042952 0.601325
vt 0.351562 0.875000
vn 0.000000 0.000000 1.000000
v -0.231937 0.695046 0.601325
vt 0.414062 0.781250
vn 0.000000 0.000000 1.000000
v 0.231937 0.695046 0.601325
vt 0.351562 0.781250
vn 0.000000 0.000000 1.000000
f 28/28/28 29/29/29 30/30/30
v -0.231937 1.042952 -0.326425
vt 0.351562 0.875000
vn -0.000000 -0.000000 -1.000000
v 0.231937 1.042952 -0.326425
vt 0.289062 0.875000
vn -0.000000 -0.000000 -1.000000
v 0.231937 0.695045 -0.326425
vt 0.289062 0.781250
vn -0.000000 -0.000000 -1.000000
f 31/31/31 32/32/32 33/33/33
v -0.231937 1.042952 -0.326425
vt 0.351562 0.875000
vn -0.000000 -0.000000 -1.000000
v 0.231937 0.695045 -0.326425
vt 0.289062 0.781250
vn -0.000000 -0.000000 -1.000000
v -0.231937 0.695045 -0.326425
vt 0.351562 0.781250
vn -0.000000 -0.000000 -1.000000
f 34/34/34 35/35/35 36/36/36
v 0.206836 0.886329 -0.605415
vt 0.570312 0.812500
vn 1.000000 0.000000 -0.000000
v 0.206836 1.300000 -0.605415
vt 0.570312 0.906250
vn 1.000000 0.000000 -0.000000
v 0.206836 1.300000 -0.191744
vt 0.523438 0.906250
vn 1.000000 0.000000 -0.000000
f 37/37/37 38/38/38 39/39/39
v 0.206836 0.886329 -0.605415
vt 0.570312 0.812500
vn 1.000000 0.000000 -0.000000
v 0.206836 1.300000 -0.191744
vt 0.523438 0.906250
vn 1.000000 0.000000 -0.000000
v 0.206836 0.886329 -0.191744
vt 0.523438 0.812500
vn 1.000000 0.000000 -0.000000
f 40/40/40 41/41/41 42/42/42
v 0.206836 0.886329 -0.191744
vt 0.710938 0.812500
vn 0.000000 -0.000000 1.000000
v 0.206836 1.300000 -0.191744
vt 0.710938 0.906250
vn 0.000000 -0.000000 1.000000
v -0.206836 1.300000 -0.191744
vt 0.664062 0.906250
vn 0.000000 -0.000000 1.000000
f 43/43/43 44/44/44 45/45/45
v 0.206836 0.886329 -0.191744
vt 0.710938 0.812500
vn 0.000000 -0.000000 1.000000
v -0.206836 1.300000 -0.191744
vt 0.664062 0.906250
vn 0.000000 -0.000000 1.000000
v -0.206836 0.886329 -0.191744
vt 0.664062 0.812500
vn 0.000000 -0.000000 1.000000
f 46/46/46 47/47/47 48/48/48
v -0.206836 0.886329 -0.191744
vt 0.664062 0.812500
vn -1.000000 -0.000000 0.000000
v -0.206836 1.300000 -0.191744
vt 0.664062 0.906250
vn -1.000000 -0.000000 0.000000
v -0.206836 1.300000 -0.605415
vt 0.617188 0.906250
vn -1.000000 -0.000000 0.000000
f 49/49/49 50/50/50 51/51/51
v -0.206836 0.886329 -0.191744
vt 0.664062 0.812500
vn -1.000000 -0.000000 0.000000
v -0.206836 1.300000 -0.605415
vt 0.617188 0.906250
vn -1.000000 -0.000000 0.000000
v -0.206836 0.886329 -0.605415
vt 0.617188 0.812500
vn -1.000000 -0.000000 0.000000
f 52/52/52 53/53/53 54/54/54
v -0.206836 0.886329 -0.605415
vt 0.617188 0.812500
vn -0.000000 0.000000 -1.000000
v -0.206836 1.300000 -0.605415
vt 0.617188 0.906250
vn -0.000000 0.000000 -1.000000
v 0.206836 1.300000 -0.605415
vt 0.570312 0.906250
vn -0.000000 0.000000 -1.000000
f 55/55/55 56/56/56 57/57/57
v -0.206836 0.886329 -0.605415
vt 0.617188 0.812500
vn -0.000000 0.000000 -1.000000
v 0.206836 1.300000 -0.605415
vt 0.570312 0.906250
vn -0.000000 0.000000 -1.000000
v 0.206836 0.886329 -0.605415
vt 0.570312 0.812500
vn -0.000000 0.000000 -1.000000
f 58/58/58 59/59/59 60/60/60
v 0.206836 0.886329 -0.191744
vt 0.664062 1.000000
vn -0.000000 -1.000000 0.000000
v -0.206836 0.886329 -0.191744
vt 0.617188 1.000000
vn -0.000000 -1.000000 0.000000
v -0.206836 0.886329 -0.605415
vt 0.617188 0.906250
vn -0.000000 -1.000000 0.000000
f 61/61/61 62/62/62 63/63/63
v 0.206836 0.886329 -0.191744
vt 0.664062 1.000000
vn -0.000000 -1.000000 0.000000
v -0.206836 0.886329 -0.605415
vt 0.617188 0.906250
vn -0.000000 -1.000000 0.000000
v 0.206836 0.886329 -0.605415
vt 0.664062 0.906250
vn -0.000000 -1.000000 0.000000
f 64/64/64 65/65/65 66/66/66
v -0.206836 1.300000 -0.191744
vt 0.617188 1.000000
vn 0.000000 1.000000 -0.000000
v 0.206836 1.300000 -0.191744
vt 0.570312 1.000000
vn 0.000000 1.000000 -0.000000
v 0.206836 1.300000 -0.605415
vt 0.570312 0.906250
vn 0.000000 1.000000 -0.000000
f 67/67/67 68/68/68 69/69/69
v -0.206836 1.300000 -0.191744
vt 0.617188 1.000000
vn 0.000000 1.000000 -0.000000
v 0.206836 1.300000 -0.605415
vt 0.570312 0.906250
vn 0.000000 1.000000 -0.000000
v -0.206836 1.300000 -0.605415
vt 0.617188 0.906250
vn 0.000000 1.000000 -0.000000
f 70/70/70 71/71/71 72/72/72
v -0.028146 0.286956 0.499867
vt 0.554688 0.593750
vn 1.000000 -0.000000 0.000000
v -0.028146 0.660438 0.399792
vt 0.554688 0.687500
vn 1.000000 -0.000000 0.000000
v -0.028146 0.735476 0.679835
vt 0.523438 0.687500
vn 1.000000 -0.000000 0.000000
f 73/73/73 74/74/74 75/75/75
v -0.028146 0.286956 0.499867
vt 0.554688 0.593750
vn 1.000000 -0.000000 0.000000
v -0.028146 0.735476 0.679835
vt 0.523438 0.687500
vn 1.000000 -0.000000 0.000000
v -0.028146 0.361994 0.779910
vt 0.523438 0.593750
vn 1.000000 -0.000000 0.000000
f 76/76/76 77/77/77 78/78/78
v -0.028146 0.361994 0.779910
vt 0.648438 0.593750
vn 0.000000 0.258819 0.965926
v -0.028146 0.735476 0.679835
vt 0.648438 0.687500
vn 0.000000 0.258819 0.965926
v -0.318067 0.735476 0.679835
vt 0.617188 0.687500
vn 0.000000 0.258819 0.965926
f 79/79/79 80/80/80 81/81/81
v -0.028146 0.361994 0.779910
vt 0.648438 0.593750
vn 0.000000 0.258819 0.965926
v -0.318067 0.735476 0.679835
vt 0.617188 0.687500
vn 0.000000 0.258819 0.965926
v -0.318067 0.361994 0.779910
vt 0.617188 0.593750
vn 0.000000 0.258819 0.965926
f 82/82/82 83/83/83 84/84/84
v -0.318067 0.361994 0.779910
vt 0.617188 0.593750
vn -1.000000 -0.000000 0.000000
v -0.318067 0.735476 0.679835
vt 0.617188 0.687500
vn -1.000000 -0.000000 0.000000
v -0.318067 0.660438 0.399792
vt 0.585938 0.687500
vn -1.000000 -0.000000 0.000000
f 85/85/85 86/86/86 87/87/87
v -0.318067 0.361994 0.779910
vt 0.617188 0.593750
vn -1.000000 -0.000000 0.000000
v -0.318067 0.660438 0.399792
vt 0.585938 0.687500
vn -1.000000 -0.000000 0.000000
v -0.318067 0.286956 0.499867
vt 0.585938 0.593750
vn -1.000000 -0.000000 0.000000
f 88/88/88 89/89/89 90/90/90
v -0.318067 0.286956 0.499867
vt 0.585938 0.593750
vn -0.000000 -0.258819 -0.965926
v -0.318067 0.660438 0.399792
vt 0.585938 0.687500
vn -0.000000 -0.258819 -0.965926
v -0.028146 0.660438 0.399792
vt 0.554688 0.687500
vn -0.000000 -0.258819 -0.965926
f 91/91/91 92/92/92 93/93/93
v -0.318067 0.286956 0.499867
vt 0.585938 0.593750
vn -0.000000 -0.258819 -0.965926
v -0.028146 0.660438 0.399792
vt 0.554688 0.687500
vn -0.000000 -0.258819 -0.965926
v -0.028146 0.286956 0.499867
vt 0.554688 0.593750
vn -0.000000 -0.258819 -0.965926
f 94/94/94 95/95/95 96/96/96
v -0.028146 0.361994 0.779910
vt 0.617188 0.750000
vn -0.000000 -0.965926 0.258819
v -0.318067 0.361994 0.779910
vt 0.585938 0.750000
vn -0.000000 -0.965926 0.258819
v -0.318067 0.286956 0.499867
vt 0.585938 0.687500
vn -0.000000 -0.965926 0.258819
f 97/97/97 98/98/98 99/99/99
v -0.028146 0.361994 0.779910
vt 0.617188 0.750000
vn -0.000000 -0.965926 0.258819
v -0.318067 0.286956 0.499867
vt 0.585938 0.687500
vn -0.000000 -0.965926 0.258819
v -0.028146 0.286956 0.499867
vt 0.617188 0.687500
vn -0.000000 -0.965926 0.258819
f 100/100/100 101/101/101 102/102/102
v -0.318067 0.735476 0.679835
vt 0.585938 0.750000
vn 0.000000 0.965926 -0.258819
v -0.028146 0.735476 0.679835
vt 0.554688 0.750000
vn 0.000000 0.965926 -0.258819
v -0.028146 0.660438 0.399792
vt 0.554688 0.687500
vn 0.000000 0.965926 -0.258819
f 103/103/103 104/104/104 105/105/105
v -0.318067 0.735476 0.679835
vt 0.585938 0.750000
vn 0.000000 0.965926 -0.258819
v -0.028146 0.660438 0.399792
vt 0.554688 0.687500
vn 0.000000 0.965926 -0.258819
v -0.318067 0.660438 0.399792
vt 0.585938 0.687500
vn 0.000000 0.965926 -0.258819
f 106/106/106 107/107/107 108/108/108
v 0.317375 0.358603 0.343284
vt 0.554688 0.593750
vn 1.000000 -0.000000 0.000000
v 0.317375 0.732085 0.443359
vt 0.554688 0.687500
vn 1.000000 -0.000000 0.000000
v 0.317375 0.657048 0.723402
vt 0.523438 0.687500
vn 1.000000 -0.000000 0.000000
f 109/109/109 110/110/110 111/111/111
v 0.317375 0.358603 0.343284
vt 0.554688 0.593750
vn 1.000000 -0.000000 0.000000
v 0.317375 0.657048 0.723402
vt 0.523438 0.687500
vn 1.000000 -0.000000 0.000000
v 0.317375 0.283565 0.623327
vt 0.523438 0.593750
vn 1.000000 -0.000000 0.000000
f 112/112/112 113/113/113 114/114/114
v 0.317375 0.283565 0.623327
vt 0.648438 0.593750
vn 0.000000 -0.258819 0.965926
v 0.317375 0.657048 0.723402
vt 0.648438 0.687500
vn 0.000000 -0.258819 0.965926
v 0.027454 0.657048 0.723402
vt 0.617188 0.687500
vn 0.000000 -0.258819 0.965926
f 115/115/115 116/116/116 117/117/117
v 0.317375 0.283565 0.623327
vt 0.648438 0.593750
vn 0.000000 -0.258819 0.965926
v 0.027454 0.657048 0.723402
vt 0.617188 0.687500
vn 0.000000 -0.258819 0.965926
v 0.027454 0.283565 0.623327
vt 0.617188 0.593750
vn 0.000000 -0.258819 0.965926
f 118/118/118 119/119/119 120/120/120
v 0.027454 0.283565 0.623327
vt 0.617188 0.593750
vn -1.000000 -0.000000 0.000000
v 0.027454 0.657048 0.723402
vt 0.617188 0.687500
vn -1.000000 -0.000000 0.000000
v 0.027454 0.732085 0.443359
vt 0.585938 0.687500
vn -1.000000 -0.000000 0.000000
f 121/121/121 122/122/122 123/123/123
v 0.027454 0.283565 0.623327
vt 0.617188 0.593750
vn -1.000000 -0.000000 0.000000
v 0.027454 0.732085 0.443359
vt 0.585938 0.687500
vn -1.000000 -0.000000 0.000000
v 0.027454 0.358603 0.343284
vt 0.585938 0.593750
vn -1.000000 -0.000000 0.000000
f 124/124/124 125/125/125 126/126/126
v 0.027454 0.358603 0.343284
vt 0.585938 0.593750
vn -0.000000 0.258819 -0.965926
v 0.027454 0.732085 0.443359
vt 0.585938 0.687500
vn -0.000000 0.258819 -0.965926
v 0.317375 0.732085 0.443359
vt 0.554688 0.687500
vn -0.000000 0.258819 -0.965926
f 127/127/127 128/128/128 129/129/129
v 0.027454 0.358603 0.343284
vt 0.585938 0.593750
vn -0.000000 0.258819 -0.965926
v 0.317375 0.732085 0.443359
vt 0.554688 0.687500
vn -0.000000 0.258819 -0.965926
v 0.317375 0.358603 0.343284
vt 0.554688 0.593750
vn -0.000000 0.258819 -0.965926
f 130/130/130 131/131/131 132/132/132
v 0.317375 0.283565 0.623327
vt 0.617188 0.750000
vn -0.000000 -0.965926 -0.258819
v 0.027454 0.283565 0.623327
vt 0.585938 0.750000
vn -0.000000 -0.965926 -0.258819
v 0.027454 0.358603 0.343284
vt 0.585938 0.687500
vn -0.000000 -0.965926 -0.258819
f 133/133/133 134/134/134 135/135/135
v 0.317375 0.283565 0.623327
vt 0.617188 0.750000
vn -0.000000 -0.965926 -0.258819
v 0.027454 0.358603 0.343284
vt 0.585938 0.687500
vn -0.000000 -0.965926 -0.258819
v 0.317375 0.358603 0.343284
vt 0.617188 0.687500
vn -0.000000 -0.965926 -0.258819
f 136/136/136 137/137/137 138/138/138
v 0.027454 0.657048 0.723402
vt 0.585938 0.750000
vn 0.000000 0.965926 0.258819
v 0.317375 0.657048 0.723402
vt 0.554688 0.750000
vn 0.000000 0.965926 0.258819
v 0.317375 0.732085 0.443359
vt 0.554688 0.687500
vn 0.000000 0.965926 0.258819
f 139/139/139 140/140/140 141/141/141
v 0.027454 0.657048 0.723402
vt 0.585938 0.750000
vn 0.000000 0.965926 0.258819
v 0.317375 0.732085 0.443359
vt 0.554688 0.687500
vn 0.000000 0.965926 0.258819
v 0.027454 0.732085 0.443359
vt 0.585938 0.687500
vn 0.000000 0.965926 0.258819
f 142/142/142 143/143/143 144/144/144
v 0.306771 0.285078 -0.213827
vt 0.554688 0.593750
vn 1.000000 0.000000 -0.000000
v 0.306771 0.658560 -0.313901
vt 0.554688 0.687500
vn 1.000000 0.000000 -0.000000
v 0.306771 0.733597 -0.033858
vt 0.523438 0.687500
vn 1.000000 0.000000 -0.000000
f 145/145/145 146/146/146 147/147/147
v 0.306771 0.285078 -0.213827
vt 0.554688 0.593750
vn 1.000000 0.000000 -0.000000
v 0.306771 0.733597 -0.033858
vt 0.523438 0.687500
vn 1.000000 0.000000 -0.000000
v 0.306771 0.360115 0.066216
vt 0.523438 0.593750
vn 1.000000 0.000000 -0.000000
f 148/148/148 149/149/149 150/150/150
v 0.306771 0.360115 0.066216
vt 0.648438 0.593750
vn 0.000000 0.258819 0.965926
v 0.306771 0.733597 -0.033858
vt 0.648438 0.687500
vn 0.000000 0.258819 0.965926
v 0.016849 0.733597 -0.033858
vt 0.617188 0.687500
vn 0.000000 0.258819 0.965926
f 151/151/151 152/152/152 153/153/153
v 0.306771 0.360115 0.066216
vt 0.648438 0.593750
vn 0.000000 0.258819 0.965926
v 0.016849 0.733597 -0.033858
vt 0.617188 0.687500
vn 0.000000 0.258819 0.965926
v 0.016849 0.360115 0.066216
vt 0.617188 0.593750
vn 0.000000 0.258819 0.965926
f 154/154/154 155/155/155 156/156/156
v 0.016849 0.360115 0.066216
vt 0.617188 0.593750
vn -1.000000 0.000000 -0.000000
v 0.016849 0.733597 -0.033858
vt 0.617188 0.687500
vn -1.000000 0.000000 -0.000000
v 0.016849 0.658560 -0.313901
vt 0.585938 0.687500
vn -1.000000 0.000000 -0.000000
f 157/157/157 158/158/158 159/159/159
v 0.016849 0.360115 0.066216
vt 0.617188 0.593750
vn -1.000000 0.000000 -0.000000
v 0.016849 0.658560 -0.313901
vt 0.585938 0.687500
vn -1.000000 0.000000 -0.000000
v 0.016849 0.285078 -0.213827
vt 0.585938 0.593750
vn -1.000000 0.000000 -0.000000
f 160/160/160 161/161/161 162/162/162
v 0.016849 0.285078 -0.213827
vt 0.585938 0.593750
vn -0.000000 -0.258819 -0.965926
v 0.016849 0.658560 -0.313901
vt 0.585938 0.687500
vn -0.000000 -0.258819 -0.965926
v 0.306771 0.658560 -0.313901
vt 0.554688 0.687500
vn -0.000000 -0.258819 -0.965926
f 163/163/163 164/164/164 165/165/165
v 0.016849 0.285078 -0.213827
vt 0.585938 0.593750
vn -0.000000 -0.258819 -0.965926
v 0.306771 0.658560 -0.313901
vt 0.554688 0.687500
vn -0.000000 -0.258819 -0.965926
v 0.306771 0.285078 -0.213827
vt 0.554688 0.593750
vn -0.000000 -0.258819 -0.965926
f 166/166/166 167/167/167 168/168/168
v 0.306771 0.360115 0.066216
vt 0.617188 0.750000
vn -0.000000 -0.965926 0.258819
v 0.016849 0.360115 0.066216
vt 0.585938 0.750000
vn -0.000000 -0.965926 0.258819
v 0.016849 0.285078 -0.213827
vt 0.585938 0.687500
vn -0.000000 -0.965926 0.258819
f 169/169/169 170/170/170 171/171/171
v 0.306771 0.360115 0.066216
vt 0.617188 0.750000
vn -0.000000 -0.965926 0.258819
v 0.016849 0.285078 -0.213827
vt 0.585938 0.687500
vn -0.000000 -0.965926 0.258819
v 0.306771 0.285078 -0.213827
vt 0.617188 0.687500
vn -0.000000 -0.965926 0.258819
f 172/172/172 173/173/173 174/174/174
v 0.016849 0.733597 -0.033858
vt 0.585938 0.750000
vn 0.000000 0.965926 -0.258819
v 0.306771 0.733597 -0.033858
vt 0.554688 0.750000
vn 0.000000 0.965926 -0.258819
v 0.306771 0.658560 -0.313901
vt 0.554688 0.687500
vn 0.000000 0.965926 -0.258819
f 175/175/175 176/176/176 177/177/177
v 0.016849 0.733597 -0.033858
vt 0.585938 0.750000
vn 0.000000 0.965926 -0.258819
v 0.306771 0.658560 -0.313901
vt 0.554688 0.687500
vn 0.000000 0.965926 -0.258819
v 0.016849 0.658560 -0.313901
vt 0.585938 0.687500
vn 0.000000 0.965926 -0.258819
f 178/178/178 179/179/179 180/180/180
v -0.017540 0.361126 -0.369854
vt 0.554688 0.593750
vn 1.000000 0.000000 -0.000000
v -0.017540 0.734608 -0.269779
vt 0.554688 0.687500
vn 1.000000 0.000000 -0.000000
v -0.017540 0.659570 0.010264
vt 0.523438 0.687500
vn 1.000000 0.000000 -0.000000
f 181/181/181 182/182/182 183/183/183
v -0.017540 0.361126 -0.369854
vt 0.554688 0.593750
vn 1.000000 0.000000 -0.000000
v -0.017540 0.659570 0.010264
vt 0.523438 0.687500
vn 1.000000 0.000000 -0.000000
v -0.017540 0.286088 -0.089810
vt 0.523438 0.593750
vn 1.000000 0.000000 -0.000000
f 184/184/184 185/185/185 186/186/186
v -0.017540 0.286088 -0.089810
vt 0.648438 0.593750
vn 0.000000 -0.258819 0.965926
v -0.017540 0.659570 0.010264
vt 0.648438 0.687500
vn 0.000000 -0.258819 0.965926
v -0.307462 0.659570 0.010264
vt 0.617188 0.687500
vn 0.000000 -0.258819 0.965926
f 187/187/187 188/188/188 189/189/189
v -0.017540 0.286088 -0.089810
vt 0.648438 0.593750
vn 0.000000 -0.258819 0.965926
v -0.307462 0.659570 0.010264
vt 0.617188 0.687500
vn 0.000000 -0.258819 0.965926
v -0.307462 0.286088 -0.089810
vt 0.617188 0.593750
vn 0.000000 -0.258819 0.965926
f 190/190/190 191/191/191 192/192/192
v -0.307462 0.286088 -0.089810
vt 0.617188 0.593750
vn -1.000000 -0.000000 0.000000
v -0.307462 0.659570 0.010264
vt 0.617188 0.687500
vn -1.000000 -0.000000 0.000000
v -0.307462 0.734608 -0.269779
vt 0.585938 0.687500
vn -1.000000 -0.000000 0.000000
f 193/193/193 194/194/194 195/195/195
v -0.307462 0.286088 -0.089810
vt 0.617188 0.593750
vn -1.000000 -0.000000 0.000000
v -0.307462 0.734608 -0.269779
vt 0.585938 0.687500
vn -1.000000 -0.000000 0.000000
v -0.307462 0.361126 -0.369854
vt 0.585938 0.593750
vn -1.000000 -0.000000 0.000000
f 196/196/196 197/197/197 198/198/198
v -0.307462 0.361126 -0.369854
vt 0.585938 0.593750
vn -0.000000 0.258819 -0.965926
v -0.307462 0.734608 -0.269779
vt 0.585938 0.687500
vn -0.000000 0.258819 -0.965926
v -0.017540 0.734608 -0.269779
vt 0.554688 0.687500
vn -0.000000 0.258819 -0.965926
f 199/199/199 200/200/200 201/201/201
v -0.307462 0.361126 -0.369854
vt 0.585938 0.593750
vn -0.000000 0.258819 -0.965926
v -0.017540 0.734608 -0.269779
vt 0.554688 0.687500
vn -0.000000 0.258819 -0.965926
v -0.017540 0.361126 -0.369854
vt 0.554688 0.593750
vn -0.000000 0.258819 -0.965926
f 202/202/202 203/203/203 204/204/204
v -0.017540 0.286088 -0.089810
vt 0.617188 0.750000
vn -0.000000 -0.965926 -0.258819
v -0.307462 0.286088 -0.089810
vt 0.585938 0.750000
vn -0.000000 -0.965926 -0.258819
v -0.307462 0.361126 -0.369854
vt 0.585938 0.687500
vn -0.000000 -0.965926 -0.258819
f 205/205/205 206/206/206 207/207/207
v -0.017540 0.286088 -0.089810
vt 0.617188 0.750000
vn -0.000000 -0.965926 -0.258819
v -0.307462 0.361126 -0.369854
vt 0.585938 0.687500
vn -0.000000 -0.965926 -0.258819
v -0.017540 0.361126 -0.369854
vt 0.617188 0.687500
vn -0.000000 -0.965926 -0.258819
f 208/208/208 209/209/209 210/210/210
v -0.307462 0.659570 0.010264
vt 0.585938 0.750000
vn 0.000000 0.965926 0.258819
v -0.017540 0.659570 0.010264
vt 0.554688 0.750000
vn 0.000000 0.965926 0.258819
v -0.017540 0.734608 -0.269779
vt 0.554688 0.687500
vn 0.000000 0.965926 0.258819
f 211/211/211 212/212/212 213/213/213
v -0.307462 0.659570 0.010264
vt 0.585938 0.750000
vn 0.000000 0.965926 0.258819
v -0.017540 0.734608 -0.269779
vt 0.554688 0.687500
vn 0.000000 0.965926 0.258819
v -0.307462 0.734608 -0.269779
vt 0.585938 0.687500
vn 0.000000 0.965926 0.258819
f 214/214/214 215/215/215 216/216/216
v 0.289075 0.049234 0.289223
vt 0.054688 0.500000
vn 1.000000 0.000000 0.000000
v 0.289075 0.721338 0.469312
vt 0.054688 0.687500
vn 1.000000 0.000000 0.000000
v 0.289075 0.661308 0.693347
vt 0.023438 0.687500
vn 1.000000 0.000000 0.000000
f 217/217/217 218/218/218 219/219/219
v 0.289075 0.049234 0.289223
vt 0.054688 0.500000
vn 1.000000 0.000000 0.000000
v 0.289075 0.661308 0.693347
vt 0.023438 0.687500
vn 1.000000 0.000000 0.000000
v 0.289075 -0.010795 0.513257
vt 0.023438 0.500000
vn 1.000000 0.000000 0.000000
f 220/220/220 221/221/221 222/222/222
v 0.289075 -0.010795 0.513257
vt 0.148438 0.500000
vn 0.000000 -0.258819 0.965926
v 0.289075 0.661308 0.693347
vt 0.148438 0.687500
vn 0.000000 -0.258819 0.965926
v 0.057138 0.661308 0.693347
vt 0.117188 0.687500
vn 0.000000 -0.258819 0.965926
f 223/223/223 224/224/224 225/225/225
v 0.289075 -0.010795 0.513257
vt 0.148438 0.500000
vn 0.000000 -0.258819 0.965926
v 0.057138 0.661308 0.693347
vt 0.117188 0.687500
vn 0.000000 -0.258819 0.965926
v 0.057138 -0.010795 0.513257
vt 0.117188 0.500000
vn 0.000000 -0.258819 0.965926
f 226/226/226 227/227/227 228/228/228
v 0.057138 -0.010795 0.513257
vt 0.117188 0.500000
vn -1.000000 -0.000000 0.000000
v 0.057138 0.661308 0.693347
vt 0.117188 0.687500
vn -1.000000 -0.000000 0.000000
v 0.057138 0.721338 0.469312
vt 0.085938 0.687500
vn -1.000000 -0.000000 0.000000
f 229/229/229 230/230/230 231/231/231
v 0.057138 -0.010795 0.513257
vt 0.117188 0.500000
vn -1.000000 -0.000000 0.000000
v 0.057138 0.721338 0.469312
vt 0.085938 0.687500
vn -1.000000 -0.000000 0.000000
v 0.057138 0.049234 0.289223
vt 0.085938 0.500000
vn -1.000000 -0.000000 0.000000
f 232/232/232 233/233/233 234/234/234
v 0.057138 0.049234 0.289223
vt 0.085938 0.500000
vn -0.000000 0.258819 -0.965926
v 0.057138 0.721338 0.469312
vt 0.085938 0.687500
vn -0.000000 0.258819 -0.965926
v 0.289075 0.721338 0.469312
vt 0.054688 0.687500
vn -0.000000 0.258819 -0.965926
f 235/235/235 236/236/236 237/237/237
v 0.057138 0.049234 0.289223
vt 0.085938 0.500000
vn -0.000000 0.258819 -0.965926
v 0.289075 0.721338 0.469312
vt 0.054688 0.687500
vn -0.000000 0.258819 -0.965926
v 0.289075 0.049234 0.289223
vt 0.054688 0.500000
vn -0.000000 0.258819 -0.965926
f 238/238/238 239/239/239 240/240/240
v 0.289075 -0.010795 0.513257
vt 0.117188 0.750000
vn -0.000000 -0.965926 -0.258819
v 0.057138 -0.010795 0.513257
vt 0.085938 0.750000
vn -0.000000 -0.965926 -0.258819
v 0.057138 0.049234 0.289223
vt 0.085938 0.687500
vn -0.000000 -0.965926 -0.258819
f 241/241/241 242/242/242 243/243/243
v 0.289075 -0.010795 0.513257
vt 0.117188 0.750000
vn -0.000000 -0.965926 -0.258819
v 0.057138 0.049234 0.289223
vt 0.085938 0.687500
vn -0.000000 -0.965926 -0.258819
v 0.289075 0.049234 0.289223
vt 0.117188 0.687500
vn -0.000000 -0.965926 -0.258819
f 244/244/244 245/245/245 246/246/246
v 0.057138 0.661308 0.693347
vt 0.085938 0.750000
vn 0.000000 0.965926 0.258819
v 0.289075 0.661308 0.693347
vt 0.054688 0.750000
vn 0.000000 0.965926 0.258819
v 0.289075 0.721338 0.469312
vt 0.054688 0.687500
vn 0.000000 0.965926 0.258819
f 247/247/247 248/248/248 249/249/249
v 0.057138 0.661308 0.693347
vt 0.085938 0.750000
vn 0.000000 0.965926 0.258819
v 0.289075 0.721338 0.469312
vt 0.054688 0.687500
vn 0.000000 0.965926 0.258819
v 0.057138 0.721338 0.469312
vt 0.085938 0.687500
vn 0.000000 0.965926 0.258819
f 250/250/250 251/251/251 252/252/252
v -0.057138 -0.007996 0.607731
vt 0.054688 0.500000
vn 1.000000 -0.000000 0.000000
v -0.057138 0.664108 0.427641
vt 0.054688 0.687500
vn 1.000000 -0.000000 0.000000
v -0.057138 0.724137 0.651676
vt 0.023438 0.687500
vn 1.000000 -0.000000 0.000000
f 253/253/253 254/254/254 255/255/255
v -0.057138 -0.007996 0.607731
vt 0.054688 0.500000
vn 1.000000 -0.000000 0.000000
v -0.057138 0.724137 0.651676
vt 0.023438 0.687500
vn 1.000000 -0.000000 0.000000
v -0.057138 0.052034 0.831765
vt 0.023438 0.500000
vn 1.000000 -0.000000 0.000000
f 256/256/256 257/257/257 258/258/258
v -0.057138 0.052034 0.831765
vt 0.148438 0.500000
vn 0.000000 0.258819 0.965926
v -0.057138 0.724137 0.651676
vt 0.148438 0.687500
vn 0.000000 0.258819 0.965926
v -0.289075 0.724137 0.651676
vt 0.117188 0.687500
vn 0.000000 0.258819 0.965926
f 259/259/259 260/260/260 261/261/261
v -0.057138 0.052034 0.831765
vt 0.148438 0.500000
vn 0.000000 0.258819 0.965926
v -0.289075 0.724137 0.651676
vt 0.117188 0.687500
vn 0.000000 0.258819 0.965926
v -0.289075 0.052034 0.831765
vt 0.117188 0.500000
vn 0.000000 0.258819 0.965926
f 262/262/262 263/263/263 264/264/264
v -0.289075 0.052034 0.831765
vt 0.117188 0.500000
vn -1.000000 0.000000 0.000000
v -0.289075 0.724137 0.651676
vt 0.117188 0.687500
vn -1.000000 0.000000 0.000000
v -0.289075 0.664108 0.427641
vt 0.085938 0.687500
vn -1.000000 0.000000 0.000000
f 265/265/265 266/266/266 267/267/267
v -0.289075 0.052034 0.831765
vt 0.117188 0.500000
vn -1.000000 0.000000 0.000000
v -0.289075 0.664108 0.427641
vt 0.085938 0.687500
vn -1.000000 0.000000 0.000000
v -0.289075 -0.007996 0.607731
vt 0.085938 0.500000
vn -1.000000 0.000000 0.000000
f 268/268/268 269/269/269 270/270/270
v -0.289075 -0.007996 0.607731
vt 0.085938 0.500000
vn -0.000000 -0.258819 -0.965926
v -0.289075 0.664108 0.427641
vt 0.085938 0.687500
vn -0.000000 -0.258819 -0.965926
v -0.057138 0.664108 0.427641
vt 0.054688 0.687500
vn -0.000000 -0.258819 -0.965926
f 271/271/271 272/272/272 273/273/273
v -0.289075 -0.007996 0.607731
vt 0.085938 0.500000
vn -0.000000 -0.258819 -0.965926
v -0.057138 0.664108 0.427641
vt 0.054688 0.687500
vn -0.000000 -0.258819 -0.965926
v -0.057138 -0.007996 0.607731
vt 0.054688 0.500000
vn -0.000000 -0.258819 -0.965926
f 274/274/274 275/275/275 276/276/276
v -0.057138 0.052034 0.831765
vt 0.117188 0.750000
vn -0.000000 -0.965926 0.258819
v -0.289075 0.052034 0.831765
vt 0.085938 0.750000
vn -0.000000 -0.965926 0.258819
v -0.289075 -0.007996 0.607731
vt 0.085938 0.687500
vn -0.000000 -0.965926 0.258819
f 277/277/277 278/278/278 279/279/279
v -0.057138 0.052034 0.831765
vt 0.117188 0.750000
vn -0.000000 -0.965926 0.258819
v -0.289075 -0.007996 0.607731
vt 0.085938 0.687500
vn -0.000000 -0.965926 0.258819
v -0.057138 -0.007996 0.607731
vt 0.117188 0.687500
vn -0.000000 -0.965926 0.258819
f 280/280/280 281/281/281 282/282/282
v -0.289075 0.724137 0.651676
vt 0.085938 0.750000
vn 0.000000 0.965926 -0.258819
v -0.057138 0.724137 0.651676
vt 0.054688 0.750000
vn 0.000000 0.965926 -0.258819
v -0.057138 0.664108 0.427641
vt 0.054688 0.687500
vn 0.000000 0.965926 -0.258819
f 283/283/283 284/284/284 285/285/285
v -0.289075 0.724137 0.651676
vt 0.085938 0.750000
vn 0.000000 0.965926 -0.258819
v -0.057138 0.664108 0.427641
vt 0.054688 0.687500
vn 0.000000 0.965926 -0.258819
v -0.289075 0.664108 0.427641
vt 0.085938 0.687500
vn 0.000000 0.965926 -0.258819
f 286/286/286 287/287/287 288/288/288
v -0.046532 0.051463 -0.422812
vt 0.054688 0.500000
vn 1.000000 0.000000 -0.000000
v -0.046532 0.723566 -0.242723
vt 0.054688 0.687500
vn 1.000000 0.000000 -0.000000
v -0.046532 0.663536 -0.018688
vt 0.023438 0.687500
vn 1.000000 0.000000 -0.000000
f 289/289/289 290/290/290 291/291/291
v -0.046532 0.051463 -0.422812
vt 0.054688 0.500000
vn 1.000000 0.000000 -0.000000
v -0.046532 0.663536 -0.018688
vt 0.023438 0.687500
vn 1.000000 0.000000 -0.000000
v -0.046532 -0.008567 -0.198778
vt 0.023438 0.500000
vn 1.000000 0.000000 -0.000000
f 292/292/292 293/293/293 294/294/294
v -0.046532 -0.008567 -0.198778
vt 0.148438 0.500000
vn 0.000000 -0.258819 0.965926
v -0.046532 0.663536 -0.018688
vt 0.148438 0.687500
vn 0.000000 -0.258819 0.965926
v -0.278470 0.663536 -0.018688
vt 0.117188 0.687500
vn 0.000000 -0.258819 0.965926
f 295/295/295 296/296/296 297/297/297
v -0.046532 -0.008567 -0.198778
vt 0.148438 0.500000
vn 0.000000 -0.258819 0.965926
v -0.278470 0.663536 -0.018688
vt 0.117188 0.687500
vn 0.000000 -0.258819 0.965926
v -0.278470 -0.008567 -0.198778
vt 0.117188 0.500000
vn 0.000000 -0.258819 0.965926
f 298/298/298 299/299/299 300/300/300
v -0.278470 -0.008567 -0.198778
vt 0.117188 0.500000
vn -1.000000 -0.000000 0.000000
v -0.278470 0.663536 -0.018688
vt 0.117188 0.687500
vn -1.000000 -0.000000 0.000000
v -0.278470 0.723566 -0.242723
vt 0.085938 0.687500
vn -1.000000 -0.000000 0.000000
f 301/301/301 302/302/302 303/303/303
v -0.278470 -0.008567 -0.198778
vt 0.117188 0.500000
vn -1.000000 -0.000000 0.000000
v -0.278470 0.723566 -0.242723
vt 0.085938 0.687500
vn -1.000000 -0.000000 0.000000
v -0.278470 0.051463 -0.422812
vt 0.085938 0.500000
vn -1.000000 -0.000000 0.000000
f 304/304/304 305/305/305 306/306/306
v -0.278470 0.051463 -0.422812
vt 0.085938 0.500000
vn -0.000000 0.258819 -0.965926
v -0.278470 0.723566 -0.242723
vt 0.085938 0.687500
vn -0.000000 0.258819 -0.965926
v -0.046532 0.723566 -0.242723
vt 0.054688 0.687500
vn -0.000000 0.258819 -0.965926
f 307/307/307 308/308/308 309/309/309
v -0.278470 0.051463 -0.422812
vt 0.085938 0.500000
vn -0.000000 0.258819 -0.965926
v -0.046532 0.723566 -0.242723
vt 0.054688 0.687500
vn -0.000000 0.258819 -0.965926
v -0.046532 0.051463 -0.422812
vt 0.054688 0.500000
vn -0.000000 0.258819 -0.965926
f 310/310/310 311/311/311 312/312/312
v -0.046532 -0.008567 -0.198778
vt 0.117188 0.750000
vn -0.000000 -0.965926 -0.258819
v -0.278470 -0.008567 -0.198778
vt 0.085938 0.750000
vn -0.000000 -0.965926 -0.258819
v -0.278470 0.051463 -0.422812
vt 0.085938 0.687500
vn -0.000000 -0.965926 -0.258819
f 313/313/313 314/314/314 315/315/315
v -0.046532 -0.008567 -0.198778
vt 0.117188 0.750000
vn -0.000000 -0.965926 -0.258819
v -0.278470 0.051463 -0.422812
vt 0.085938 0.687500
vn -0.000000 -0.965926 -0.258819
v -0.046532 0.051463 -0.422812
vt 0.117188 0.687500
vn -0.000000 -0.965926 -0.258819
f 316/316/316 317/317/317 318/318/318
v -0.278470 0.663536 -0.018688
vt 0.085938 0.750000
vn 0.000000 0.965926 0.258819
v -0.046532 0.663536 -0.018688
vt 0.054688 0.750000
vn 0.000000 0.965926 0.258819
v -0.046532 0.723566 -0.242723
vt 0.054688 0.687500
vn 0.000000 0.965926 0.258819
f 319/319/319 320/320/320 321/321/321
v -0.278470 0.663536 -0.018688
vt 0.085938 0.750000
vn 0.000000 0.965926 0.258819
v -0.046532 0.723566 -0.242723
vt 0.054688 0.687500
vn 0.000000 0.965926 0.258819
v -0.278470 0.723566 -0.242723
vt 0.085938 0.687500
vn 0.000000 0.965926 0.258819
f 322/322/322 323/323/323 324/324/324
v 0.329061 0.574729 0.721134
vt 0.789062 0.531250
vn 1.000000 0.000000 -0.000000
v 0.329061 0.574729 -0.444352
vt 0.789062 0.781250
vn 1.000000 0.000000 -0.000000
v 0.329061 1.163271 -0.444352
vt 0.742188 0.781250
vn 1.000000 0.000000 -0.000000
f 325/325/325 326/326/326 327/327/327
v 0.329061 0.574729 0.721134
vt 0.789062 0.531250
vn 1.000000 0.000000 -0.000000
v 0.329061 1.163271 -0.444352
vt 0.742188 0.781250
vn 1.000000 0.000000 -0.000000
v 0.329061 1.163271 0.721134
vt 0.742188 0.531250
vn 1.000000 0.000000 -0.000000
f 328/328/328 329/329/329 330/330/330
v 0.329061 1.163271 0.721134
vt 0.960938 0.531250
vn -0.000000 1.000000 -0.000000
v 0.329061 1.163271 -0.444352
vt 0.960938 0.781250
vn -0.000000 1.000000 -0.000000
v -0.329061 1.163271 -0.444352
vt 0.898438 0.781250
vn -0.000000 1.000000 -0.000000
f 331/331/331 332/332/332 333/333/333
v 0.329061 1.163271 0.721134
vt 0.960938 0.531250
vn -0.000000 1.000000 -0.000000
v -0.329061 1.163271 -0.444352
vt 0.898438 0.781250
vn -0.000000 1.000000 -0.000000
v -0.329061 1.163271 0.721134
vt 0.898438 0.531250
vn -0.000000 1.000000 -0.000000
f 334/334/334 335/335/335 336/336/336
v -0.329061 1.163271 0.721134
vt 0.898438 0.531250
vn -1.000000 -0.000000 0.000000
v -0.329061 1.163271 -0.444352
vt 0.898438 0.781250
vn -1.000000 -0.000000 0.000000
v -0.329061 0.574729 -0.444352
vt 0.851562 0.781250
vn -1.000000 -0.000000 0.000000
f 337/337/337 338/338/338 339/339/339
v -0.329061 1.163271 0.721134
vt 0.898438 0.531250
vn -1.000000 -0.000000 0.000000
v -0.329061 0.574729 -0.444352
vt 0.851562 0.781250
vn -1.000000 -0.000000 0.000000
v -0.329061 0.574729 0.721134
vt 0.851562 0.531250
vn -1.000000 -0.000000 0.000000
f 340/340/340 341/341/341 342/342/342
v -0.329061 0.574729 0.721134
vt 0.851562 0.531250
vn 0.000000 -1.000000 0.000000
v -0.329061 0.574729 -0.444352
vt 0.851562 0.781250
vn 0.000000 -1.000000 0.000000
v 0.329061 0.574729 -0.444352
vt 0.789062 0.781250
vn 0.000000 -1.000000 0.000000
f 343/343/343 344/344/344 345/345/345
v -0.329061 0.574729 0.721134
vt 0.851562 0.531250
vn 0.000000 -1.000000 0.000000
v 0.329061 0.574729 -0.444352
vt 0.789062 0.781250
vn 0.000000 -1.000000 0.000000
v 0.329061 0.574729 0.721134
vt 0.789062 0.531250
vn 0.000000 -1.000000 0.000000
f 346/346/346 347/347/347 348/348/348
v 0.329061 1.163271 0.721134
vt 0.851562 0.875000
vn 0.000000 0.000000 1.000000
v -0.329061 1.163271 0.721134
vt 0.914062 0.875000
vn 0.000000 0.000000 1.000000
v -0.329061 0.574729 0.721134
vt 0.914062 0.781250
vn 0.000000 0.000000 1.000000
f 349/349/349 350/350/350 351/351/351
v 0.329061 1.163271 0.721134
vt 0.851562 0.875000
vn 0.000000 0.000000 1.000000
v -0.329061 0.574729 0.721134
vt 0.914062 0.781250
vn 0.000000 0.000000 1.000000
v 0.329061 0.574729 0.721134
vt 0.851562 0.781250
vn 0.000000 0.000000 1.000000
f 352/352/352 353/353/353 354/354/354
v -0.329061 1.163271 -0.444352
vt 0.851562 0.875000
vn -0.000000 -0.000000 -1.000000
v 0.329061 1.163271 -0.444352
vt 0.789062 0.875000
vn -0.000000 -0.000000 -1.000000
v 0.329061 0.574729 -0.444352
vt 0.789062 0.781250
vn -0.000000 -0.000000 -1.000000
f 355/355/355 356/356/356 357/357/357
v -0.329061 1.163271 -0.444352
vt 0.851562 0.875000
vn -0.000000 -0.000000 -1.000000
v 0.329061 0.574729 -0.444352
vt 0.789062 0.781250
vn -0.000000 -0.000000 -1.000000
v -0.329061 0.574729 -0.444352
vt 0.851562 0.781250
vn -0.000000 -0.000000 -1.000000
f 358/358/358 359/359/359 360/360/360
v 0.278470 -0.009578 -0.104859
vt 0.054688 0.500000
vn 1.000000 -0.000000 -0.000000
v 0.278470 0.662525 -0.284948
vt 0.054688 0.687500
vn 1.000000 -0.000000 -0.000000
v 0.278470 0.722555 -0.060914
vt 0.023438 0.687500
vn 1.000000 -0.000000 -0.000000
f 361/361/361 362/362/362 363/363/363
v 0.278470 -0.009578 -0.104859
vt 0.054688 0.500000
vn 1.000000 -0.000000 -0.000000
v 0.278470 0.722555 -0.060914
vt 0.023438 0.687500
vn 1.000000 -0.000000 -0.000000
v 0.278470 0.050452 0.119175
vt 0.023438 0.500000
vn 1.000000 -0.000000 -0.000000
f 364/364/364 365/365/365 366/366/366
v 0.278470 0.050452 0.119175
vt 0.148438 0.500000
vn 0.000000 0.258819 0.965926
v 0.278470 0.722555 -0.060914
vt 0.148438 0.687500
vn 0.000000 0.258819 0.965926
v 0.046532 0.722555 -0.060914
vt 0.117188 0.687500
vn 0.000000 0.258819 0.965926
f 367/367/367 368/368/368 369/369/369
v 0.278470 0.050452 0.119175
vt 0.148438 0.500000
vn 0.000000 0.258819 0.965926
v 0.046532 0.722555 -0.060914
vt 0.117188 0.687500
vn 0.000000 0.258819 0.965926
v 0.046532 0.050452 0.119175
vt 0.117188 0.500000
vn 0.000000 0.258819 0.965926
f 370/370/370 371/371/371 372/372/372
v 0.046532 0.050452 0.119175
vt 0.117188 0.500000
vn -1.000000 0.000000 -0.000000
v 0.046532 0.722555 -0.060914
vt 0.117188 0.687500
vn -1.000000 0.000000 -0.000000
v 0.046532 0.662525 -0.284948
vt 0.085938 0.687500
vn -1.000000 0.000000 -0.000000
f 373/373/373 374/374/374 375/375/375
v 0.046532 0.050452 0.119175
vt 0.117188 0.500000
vn -1.000000 0.000000 -0.000000
v 0.046532 0.662525 -0.284948
vt 0.085938 0.687500
vn -1.000000 0.000000 -0.000000
v 0.046532 -0.009578 -0.104859
vt 0.085938 0.500000
vn -1.000000 0.000000 -0.000000
f 376/376/376 377/377/377 378/378/378
v 0.046532 -0.009578 -0.104859
vt 0.085938 0.500000
vn -0.000000 -0.258819 -0.965926
v 0.046532 0.662525 -0.284948
vt 0.085938 0.687500
vn -0.000000 -0.258819 -0.965926
v 0.278470 0.662525 -0.284948
vt 0.054688 0.687500
vn -0.000000 -0.258819 -0.965926
f 379/379/379 380/380/380 381/381/381
v 0.046532 -0.009578 -0.104859
vt 0.085938 0.500000
vn -0.000000 -0.258819 -0.965926
v 0.278470 0.662525 -0.284948
vt 0.054688 0.687500
vn -0.000000 -0.258819 -0.965926
v 0.278470 -0.009578 -0.104859
vt 0.054688 0.500000
vn -0.000000 -0.258819 -0.965926
f 382/382/382 383/383/383 384/384/384
v 0.278470 0.050452 0.119175
vt 0.117188 0.750000
vn -0.000000 -0.965926 0.258819
v 0.046532 0.050452 0.119175
vt 0.085938 0.750000
vn -0.000000 -0.965926 0.258819
v 0.046532 -0.009578 -0.104859
vt 0.085938 0.687500
vn -0.000000 -0.965926 0.258819
f 385/385/385 386/386/386 387/387/387
v 0.278470 0.050452 0.119175
vt 0.117188 0.750000
vn -0.000000 -0.965926 0.258819
v 0.046532 -0.009578 -0.104859
vt 0.085938 0.687500
vn -0.000000 -0.965926 0.258819
v 0.278470 -0.009578 -0.104859
vt 0.117188 0.687500
vn -0.000000 -0.965926 0.258819
f 388/388/388 389/389/389 390/390/390
v 0.046532 0.722555 -0.060914
vt 0.085938 0.750000
vn 0.000000 0.965926 -0.258819
v 0.278470 0.722555 -0.060914
vt 0.054688 0.750000
vn 0.000000 0.965926 -0.258819
v 0.278470 0.662525 -0.284948
vt 0.054688 0.687500
vn 0.000000 0.965926 -0.258819
f 391/391/391 392/392/392 393/393/393
v 0.046532 0.722555 -0.060914
vt 0.085938 0.750000
vn 0.000000 0.965926 -0.258819
v 0.278470 0.662525 -0.284948
vt 0.054688 0.687500
vn 0.000000 0.965926 -0.258819
v 0.046532 0.662525 -0.284948
vt 0.085938 0.687500
vn 0.000000 0.965926 -0.258819
f 394/394/394 395/395/395 396/396/396
v 0.173953 0.924603 -0.721134
vt 0.085938 0.781250
vn 1.000000 0.000000 -0.000000
v 0.173953 1.272509 -0.721134
vt 0.085938 0.875000
vn 1.000000 0.000000 -0.000000
v 0.173953 1.272509 -0.257259
vt 0.023438 0.875000
vn 1.000000 0.000000 -0.000000
f 397/397/397 398/398/398 399/399/399
v 0.173953 0.924603 -0.721134
vt 0.085938 0.781250
vn 1.000000 0.000000 -0.000000
v 0.173953 1.272509 -0.257259
vt 0.023438 0.875000
vn 1.000000 0.000000 -0.000000
v 0.173953 0.924603 -0.257259
vt 0.023438 0.781250
vn 1.000000 0.000000 -0.000000
f 400/400/400 401/401/401 402/402/402
v 0.173953 0.924603 -0.257259
vt 0.242188 0.781250
vn 0.000000 -0.000000 1.000000
v 0.173953 1.272509 -0.257259
vt 0.242188 0.875000
vn 0.000000 -0.000000 1.000000
v -0.173953 1.272509 -0.257259
vt 0.195312 0.875000
vn 0.000000 -0.000000 1.000000
f 403/403/403 404/404/404 405/405/405
v 0.173953 0.924603 -0.257259
vt 0.242188 0.781250
vn 0.000000 -0.000000 1.000000
v -0.173953 1.272509 -0.257259
vt 0.195312 0.875000
vn 0.000000 -0.000000 1.000000
v -0.173953 0.924603 -0.257259
vt 0.195312 0.781250
vn 0.000000 -0.000000 1.000000
f 406/406/406 407/407/407 408/408/408
v -0.173953 0.924603 -0.257259
vt 0.195312 0.781250
vn -1.000000 -0.000000 0.000000
v -0.173953 1.272509 -0.257259
vt 0.195312 0.875000
vn -1.000000 -0.000000 0.000000
v -0.173953 1.272509 -0.721134
vt 0.132812 0.875000
vn -1.000000 -0.000000 0.000000
f 409/409/409 410/410/410 411/411/411
v -0.173953 0.924603 -0.257259
vt 0.195312 0.781250
vn -1.000000 -0.000000 0.000000
v -0.173953 1.272509 -0.721134
vt 0.132812 0.875000
vn -1.000000 -0.000000 0.000000
v -0.173953 0.924603 -0.721134
vt 0.132812 0.781250
vn -1.000000 -0.000000 0.000000
f 412/412/412 413/413/413 414/414/414
v -0.173953 0.924603 -0.721134
vt 0.132812 0.781250
vn -0.000000 0.000000 -1.000000
v -0.173953 1.272509 -0.721134
vt 0.132812 0.875000
vn -0.000000 0.000000 -1.000000
v 0.173953 1.272509 -0.721134
vt 0.085938 0.875000
vn -0.000000 0.000000 -1.000000
f 415/415/415 416/416/416 417/417/417
v -0.173953 0.924603 -0.721134
vt 0.132812 0.781250
vn -0.000000 0.000000 -1.000000
v 0.173953 1.272509 -0.721134
vt 0.085938 0.875000
vn -0.000000 0.000000 -1.000000
v 0.173953 0.924603 -0.721134
vt 0.085938 0.781250
vn -0.000000 0.000000 -1.000000
f 418/418/418 419/419/419 420/420/420
v 0.173953 0.924603 -0.257259
vt 0.179688 1.000000
vn -0.000000 -1.000000 0.000000
v -0.173953 0.924603 -0.257259
vt 0.132812 1.000000
vn -0.000000 -1.000000 0.000000
v -0.173953 0.924603 -0.721134
vt 0.132812 0.875000
vn -0.000000 -1.000000 0.000000
f 421/421/421 422/422/422 423/423/423
v 0.173953 0.924603 -0.257259
vt 0.179688 1.000000
vn -0.000000 -1.000000 0.000000
v -0.173953 0.924603 -0.721134
vt 0.132812 0.875000
vn -0.000000 -1.000000 0.000000
v 0.173953 0.924603 -0.721134
vt 0.179688 0.875000
vn -0.000000 -1.000000 0.000000
f 424/424/424 425/425/425 426/426/426
v -0.173953 1.272509 -0.257259
vt 0.132812 1.000000
vn 0.000000 1.000000 -0.000000
v 0.173953 1.272509 -0.257259
vt 0.085938 1.000000
vn 0.000000 1.000000 -0.000000
v 0.173953 1.272509 -0.721134
vt 0.085938 0.875000
vn 0.000000 1.000000 -0.000000
f 427/427/427 428/428/428 429/429/429
v -0.173953 1.272509 -0.257259
vt 0.132812 1.000000
vn 0.000000 1.000000 -0.000000
v 0.173953 1.272509 -0.721134
vt 0.085938 0.875000
vn 0.000000 1.000000 -0.000000
v -0.173953 1.272509 -0.721134
vt 0.132812 0.875000
vn 0.000000 1.000000 -0.000000
f 430/430/430 431/431/431 432/432/432
