# 22i GPL-3.0 model; licensed replacement skins: UPSTREAM-CREDITS.md
g Body
usemtl Skin
v 0.251831 1.396504 -0.079850
vt 0.625000 0.750000
vn -1.000000 0.000000 0.000000
v 0.251831 1.396504 0.423646
vt 0.500000 0.750000
vn -1.000000 0.000000 0.000000
v 0.251831 1.900000 0.423646
vt 0.500000 0.875000
vn -1.000000 0.000000 0.000000
f 1/1/1 2/2/2 3/3/3
v 0.251831 1.396504 -0.079850
vt 0.625000 0.750000
vn -1.000000 0.000000 0.000000
v 0.251831 1.900000 0.423646
vt 0.500000 0.875000
vn -1.000000 0.000000 0.000000
v 0.251831 1.900000 -0.079850
vt 0.625000 0.875000
vn -1.000000 0.000000 0.000000
f 4/4/4 5/5/5 6/6/6
v 0.251831 1.396504 0.423646
vt 1.000000 0.750000
vn -0.000000 0.000000 -1.000000
v -0.251665 1.396504 0.423646
vt 0.875000 0.750000
vn -0.000000 0.000000 -1.000000
v -0.251665 1.900000 0.423646
vt 0.875000 0.875000
vn -0.000000 0.000000 -1.000000
f 7/7/7 8/8/8 9/9/9
v 0.251831 1.396504 0.423646
vt 1.000000 0.750000
vn -0.000000 0.000000 -1.000000
v -0.251665 1.900000 0.423646
vt 0.875000 0.875000
vn -0.000000 0.000000 -1.000000
v 0.251831 1.900000 0.423646
vt 1.000000 0.875000
vn -0.000000 0.000000 -1.000000
f 10/10/10 11/11/11 12/12/12
v -0.251665 1.396504 0.423646
vt 0.875000 0.750000
vn 1.000000 0.000000 0.000000
v -0.251665 1.396504 -0.079850
vt 0.750000 0.750000
vn 1.000000 0.000000 0.000000
v -0.251665 1.900000 -0.079850
vt 0.750000 0.875000
vn 1.000000 0.000000 0.000000
f 13/13/13 14/14/14 15/15/15
v -0.251665 1.396504 0.423646
vt 0.875000 0.750000
vn 1.000000 0.000000 0.000000
v -0.251665 1.900000 -0.079850
vt 0.750000 0.875000
vn 1.000000 0.000000 0.000000
v -0.251665 1.900000 0.423646
vt 0.875000 0.875000
vn 1.000000 0.000000 0.000000
f 16/16/16 17/17/17 18/18/18
v -0.251665 1.396504 -0.079850
vt 0.750000 0.750000
vn -0.000000 0.000000 1.000000
v 0.251831 1.396504 -0.079850
vt 0.625000 0.750000
vn -0.000000 0.000000 1.000000
v 0.251831 1.900000 -0.079850
vt 0.625000 0.875000
vn -0.000000 0.000000 1.000000
f 19/19/19 20/20/20 21/21/21
v -0.251665 1.396504 -0.079850
vt 0.750000 0.750000
vn -0.000000 0.000000 1.000000
v 0.251831 1.900000 -0.079850
vt 0.625000 0.875000
vn -0.000000 0.000000 1.000000
v -0.251665 1.900000 -0.079850
vt 0.750000 0.875000
vn -0.000000 0.000000 1.000000
f 22/22/22 23/23/23 24/24/24
v 0.251831 1.396504 0.423646
vt 0.875000 1.000000
vn -0.000000 1.000000 0.000000
v 0.251831 1.396504 -0.079850
vt 0.875000 0.875000
vn -0.000000 1.000000 0.000000
v -0.251665 1.396504 -0.079850
vt 0.750000 0.875000
vn -0.000000 1.000000 0.000000
f 25/25/25 26/26/26 27/27/27
v 0.251831 1.396504 0.423646
vt 0.875000 1.000000
vn -0.000000 1.000000 0.000000
v -0.251665 1.396504 -0.079850
vt 0.750000 0.875000
vn -0.000000 1.000000 0.000000
v -0.251665 1.396504 0.423646
vt 0.750000 1.000000
vn -0.000000 1.000000 0.000000
f 28/28/28 29/29/29 30/30/30
v -0.251665 1.900000 0.423646
vt 0.750000 1.000000
vn -0.000000 -1.000000 0.000000
v -0.251665 1.900000 -0.079850
vt 0.750000 0.875000
vn -0.000000 -1.000000 0.000000
v 0.251831 1.900000 -0.079850
vt 0.625000 0.875000
vn -0.000000 -1.000000 0.000000
f 31/31/31 32/32/32 33/33/33
v -0.251665 1.900000 0.423646
vt 0.750000 1.000000
vn -0.000000 -1.000000 0.000000
v 0.251831 1.900000 -0.079850
vt 0.625000 0.875000
vn -0.000000 -1.000000 0.000000
v 0.251831 1.900000 0.423646
vt 0.625000 1.000000
vn -0.000000 -1.000000 0.000000
f 34/34/34 35/35/35 36/36/36
v 0.251831 1.396504 -0.079850
vt 0.625000 0.750000
vn 1.000000 0.000000 0.000000
v 0.251831 1.900000 -0.079850
vt 0.625000 0.875000
vn 1.000000 0.000000 0.000000
v 0.251831 1.900000 0.423646
vt 0.500000 0.875000
vn 1.000000 0.000000 0.000000
f 37/37/37 38/38/38 39/39/39
v 0.251831 1.396504 -0.079850
vt 0.625000 0.750000
vn 1.000000 0.000000 0.000000
v 0.251831 1.900000 0.423646
vt 0.500000 0.875000
vn 1.000000 0.000000 0.000000
v 0.251831 1.396504 0.423646
vt 0.500000 0.750000
vn 1.000000 0.000000 0.000000
f 40/40/40 41/41/41 42/42/42
v 0.251831 1.396504 0.423646
vt 1.000000 0.750000
vn -0.000000 0.000000 1.000000
v 0.251831 1.900000 0.423646
vt 1.000000 0.875000
vn -0.000000 0.000000 1.000000
v -0.251665 1.900000 0.423646
vt 0.875000 0.875000
vn -0.000000 0.000000 1.000000
f 43/43/43 44/44/44 45/45/45
v 0.251831 1.396504 0.423646
vt 1.000000 0.750000
vn -0.000000 0.000000 1.000000
v -0.251665 1.900000 0.423646
vt 0.875000 0.875000
vn -0.000000 0.000000 1.000000
v -0.251665 1.396504 0.423646
vt 0.875000 0.750000
vn -0.000000 0.000000 1.000000
f 46/46/46 47/47/47 48/48/48
v -0.251665 1.396504 0.423646
vt 0.875000 0.750000
vn -1.000000 0.000000 0.000000
v -0.251665 1.900000 0.423646
vt 0.875000 0.875000
vn -1.000000 0.000000 0.000000
v -0.251665 1.900000 -0.079850
vt 0.750000 0.875000
vn -1.000000 0.000000 0.000000
f 49/49/49 50/50/50 51/51/51
v -0.251665 1.396504 0.423646
vt 0.875000 0.750000
vn -1.000000 0.000000 0.000000
v -0.251665 1.900000 -0.079850
vt 0.750000 0.875000
vn -1.000000 0.000000 0.000000
v -0.251665 1.396504 -0.079850
vt 0.750000 0.750000
vn -1.000000 0.000000 0.000000
f 52/52/52 53/53/53 54/54/54
v -0.251665 1.396504 -0.079850
vt 0.750000 0.750000
vn -0.000000 0.000000 -1.000000
v -0.251665 1.900000 -0.079850
vt 0.750000 0.875000
vn -0.000000 0.000000 -1.000000
v 0.251831 1.900000 -0.079850
vt 0.625000 0.875000
vn -0.000000 0.000000 -1.000000
f 55/55/55 56/56/56 57/57/57
v -0.251665 1.396504 -0.079850
vt 0.750000 0.750000
vn -0.000000 0.000000 -1.000000
v 0.251831 1.900000 -0.079850
vt 0.625000 0.875000
vn -0.000000 0.000000 -1.000000
v 0.251831 1.396504 -0.079850
vt 0.625000 0.750000
vn -0.000000 0.000000 -1.000000
f 58/58/58 59/59/59 60/60/60
v 0.251831 1.396504 0.423646
vt 0.875000 1.000000
vn -0.000000 -1.000000 0.000000
v -0.251665 1.396504 0.423646
vt 0.750000 1.000000
vn -0.000000 -1.000000 0.000000
v -0.251665 1.396504 -0.079850
vt 0.750000 0.875000
vn -0.000000 -1.000000 0.000000
f 61/61/61 62/62/62 63/63/63
v 0.251831 1.396504 0.423646
vt 0.875000 1.000000
vn -0.000000 -1.000000 0.000000
v -0.251665 1.396504 -0.079850
vt 0.750000 0.875000
vn -0.000000 -1.000000 0.000000
v 0.251831 1.396504 -0.079850
vt 0.875000 0.875000
vn -0.000000 -1.000000 0.000000
f 64/64/64 65/65/65 66/66/66
v -0.251665 1.900000 0.423646
vt 0.750000 1.000000
vn -0.000000 1.000000 0.000000
v 0.251831 1.900000 0.423646
vt 0.625000 1.000000
vn -0.000000 1.000000 0.000000
v 0.251831 1.900000 -0.079850
vt 0.625000 0.875000
vn -0.000000 1.000000 0.000000
f 67/67/67 68/68/68 69/69/69
v -0.251665 1.900000 0.423646
vt 0.750000 1.000000
vn -0.000000 1.000000 0.000000
v 0.251831 1.900000 -0.079850
vt 0.625000 0.875000
vn -0.000000 1.000000 0.000000
v -0.251665 1.900000 -0.079850
vt 0.750000 0.875000
vn -0.000000 1.000000 0.000000
f 70/70/70 71/71/71 72/72/72
v -0.000062 0.076804 -0.156082
vt 0.187500 0.500000
vn 1.000000 0.000087 -0.000505
v -0.000000 0.744346 0.080792
vt 0.187500 0.687500
vn 1.000000 0.000087 -0.000505
v 0.000119 0.665375 0.303306
vt 0.125000 0.687500
vn 1.000000 0.000087 -0.000505
f 73/73/73 74/74/74 75/75/75
v -0.000062 0.076804 -0.156082
vt 0.187500 0.500000
vn 1.000000 0.000087 -0.000505
v 0.000119 0.665375 0.303306
vt 0.125000 0.687500
vn 1.000000 0.000087 -0.000505
v 0.000057 -0.002168 0.066432
vt 0.125000 0.500000
vn 1.000000 0.000087 -0.000505
f 76/76/76 77/77/77 78/78/78
v 0.000057 -0.002168 0.066432
vt 0.187500 0.500000
vn 0.000504 -0.334414 0.942426
v 0.000119 0.665375 0.303306
vt 0.187500 0.687500
vn 0.000504 -0.334414 0.942426
v -0.235991 0.665354 0.303425
vt 0.250000 0.687500
vn 0.000504 -0.334414 0.942426
f 79/79/79 80/80/80 81/81/81
v 0.000057 -0.002168 0.066432
vt 0.187500 0.500000
vn 0.000504 -0.334414 0.942426
v -0.235991 0.665354 0.303425
vt 0.250000 0.687500
vn 0.000504 -0.334414 0.942426
v -0.236053 -0.002188 0.066551
vt 0.250000 0.500000
vn 0.000504 -0.334414 0.942426
f 82/82/82 83/83/83 84/84/84
v -0.236053 -0.002188 0.066551
vt 0.000000 0.500000
vn -1.000000 -0.000087 0.000505
v -0.235991 0.665354 0.303425
vt 0.000000 0.687500
vn -1.000000 -0.000087 0.000505
v -0.236110 0.744326 0.080911
vt 0.062500 0.687500
vn -1.000000 -0.000087 0.000505
f 85/85/85 86/86/86 87/87/87
v -0.236053 -0.002188 0.066551
vt 0.000000 0.500000
vn -1.000000 -0.000087 0.000505
v -0.236110 0.744326 0.080911
vt 0.062500 0.687500
vn -1.000000 -0.000087 0.000505
v -0.236172 0.076783 -0.155963
vt 0.062500 0.500000
vn -1.000000 -0.000087 0.000505
f 88/88/88 89/89/89 90/90/90
v -0.236172 0.076783 -0.155963
vt 0.125000 0.500000
vn -0.000505 0.334414 -0.942426
v -0.236110 0.744326 0.080911
vt 0.125000 0.687500
vn -0.000505 0.334414 -0.942426
v -0.000000 0.744346 0.080792
vt 0.062500 0.687500
vn -0.000505 0.334414 -0.942426
f 91/91/91 92/92/92 93/93/93
v -0.236172 0.076783 -0.155963
vt 0.125000 0.500000
vn -0.000505 0.334414 -0.942426
v -0.000000 0.744346 0.080792
vt 0.062500 0.687500
vn -0.000505 0.334414 -0.942426
v -0.000062 0.076804 -0.156082
vt 0.062500 0.500000
vn -0.000505 0.334414 -0.942426
f 94/94/94 95/95/95 96/96/96
v 0.000057 -0.002168 0.066432
vt 0.187500 0.750000
vn -0.000087 -0.942407 -0.334467
v -0.236053 -0.002188 0.066551
vt 0.125000 0.750000
vn -0.000087 -0.942407 -0.334467
v -0.236172 0.076783 -0.155963
vt 0.125000 0.687500
vn -0.000087 -0.942407 -0.334467
f 97/97/97 98/98/98 99/99/99
v 0.000057 -0.002168 0.066432
vt 0.187500 0.750000
vn -0.000087 -0.942407 -0.334467
v -0.236172 0.076783 -0.155963
vt 0.125000 0.687500
vn -0.000087 -0.942407 -0.334467
v -0.000062 0.076804 -0.156082
vt 0.187500 0.687500
vn -0.000087 -0.942407 -0.334467
f 100/100/100 101/101/101 102/102/102
v -0.235991 0.665354 0.303425
vt 0.125000 0.750000
vn 0.000087 0.942407 0.334468
v 0.000119 0.665375 0.303306
vt 0.062500 0.750000
vn 0.000087 0.942407 0.334468
v -0.000000 0.744346 0.080792
vt 0.062500 0.687500
vn 0.000087 0.942407 0.334468
f 103/103/103 104/104/104 105/105/105
v -0.235991 0.665354 0.303425
vt 0.125000 0.750000
vn 0.000087 0.942407 0.334468
v -0.000000 0.744346 0.080792
vt 0.062500 0.687500
vn 0.000087 0.942407 0.334468
v -0.236110 0.744326 0.080911
vt 0.125000 0.687500
vn 0.000087 0.942407 0.334468
f 106/106/106 107/107/107 108/108/108
v 0.455569 1.430059 -0.415550
vt 0.687500 0.500000
vn 0.999451 -0.018921 -0.027204
v 0.474495 1.412086 0.292300
vt 0.687500 0.687500
vn 0.999451 -0.018921 -0.027204
v 0.469868 1.176094 0.286432
vt 0.625000 0.687500
vn 0.999451 -0.018921 -0.027204
f 109/109/109 110/110/110 111/111/111
v 0.455569 1.430059 -0.415550
vt 0.687500 0.500000
vn 0.999451 -0.018921 -0.027204
v 0.469868 1.176094 0.286432
vt 0.625000 0.687500
vn 0.999451 -0.018921 -0.027204
v 0.450941 1.194068 -0.421419
vt 0.625000 0.500000
vn 0.999451 -0.018921 -0.027204
f 112/112/112 113/113/113 114/114/114
v 0.450941 1.194068 -0.421419
vt 0.875000 0.500000
vn -0.019599 -0.999499 -0.024855
v 0.469868 1.176094 0.286432
vt 0.875000 0.687500
vn -0.019599 -0.999499 -0.024855
v 0.233887 1.180562 0.292855
vt 0.812500 0.687500
vn -0.019599 -0.999499 -0.024855
f 115/115/115 116/116/116 117/117/117
v 0.450941 1.194068 -0.421419
vt 0.875000 0.500000
vn -0.019599 -0.999499 -0.024855
v 0.233887 1.180562 0.292855
vt 0.812500 0.687500
vn -0.019599 -0.999499 -0.024855
v 0.214961 1.198536 -0.414996
vt 0.812500 0.500000
vn -0.019599 -0.999499 -0.024855
f 118/118/118 119/119/119 120/120/120
v 0.214961 1.198536 -0.414996
vt 0.812500 0.500000
vn -0.999451 0.018922 0.027204
v 0.233887 1.180562 0.292855
vt 0.812500 0.687500
vn -0.999451 0.018922 0.027204
v 0.238515 1.416553 0.298723
vt 0.750000 0.687500
vn -0.999451 0.018922 0.027204
f 121/121/121 122/122/122 123/123/123
v 0.214961 1.198536 -0.414996
vt 0.812500 0.500000
vn -0.999451 0.018922 0.027204
v 0.238515 1.416553 0.298723
vt 0.750000 0.687500
vn -0.999451 0.018922 0.027204
v 0.219588 1.434527 -0.409127
vt 0.750000 0.500000
vn -0.999451 0.018922 0.027204
f 124/124/124 125/125/125 126/126/126
v 0.219588 1.434527 -0.409127
vt 0.750000 0.500000
vn 0.019599 0.999499 0.024855
v 0.238515 1.416553 0.298723
vt 0.750000 0.687500
vn 0.019599 0.999499 0.024855
v 0.474495 1.412086 0.292300
vt 0.687500 0.687500
vn 0.019599 0.999499 0.024855
f 127/127/127 128/128/128 129/129/129
v 0.219588 1.434527 -0.409127
vt 0.750000 0.500000
vn 0.019599 0.999499 0.024855
v 0.474495 1.412086 0.292300
vt 0.687500 0.687500
vn 0.019599 0.999499 0.024855
v 0.455569 1.430059 -0.415550
vt 0.687500 0.500000
vn 0.019599 0.999499 0.024855
f 130/130/130 131/131/131 132/132/132
v 0.450941 1.194068 -0.421419
vt 0.750000 0.750000
vn -0.026720 0.025375 -0.999321
v 0.214961 1.198536 -0.414996
vt 0.812500 0.750000
vn -0.026720 0.025375 -0.999321
v 0.219588 1.434527 -0.409127
vt 0.812500 0.687500
vn -0.026720 0.025375 -0.999321
f 133/133/133 134/134/134 135/135/135
v 0.450941 1.194068 -0.421419
vt 0.750000 0.750000
vn -0.026720 0.025375 -0.999321
v 0.219588 1.434527 -0.409127
vt 0.812500 0.687500
vn -0.026720 0.025375 -0.999321
v 0.455569 1.430059 -0.415550
vt 0.750000 0.687500
vn -0.026720 0.025375 -0.999321
f 136/136/136 137/137/137 138/138/138
v 0.233887 1.180562 0.292855
vt 0.750000 0.750000
vn 0.026720 -0.025375 0.999321
v 0.469868 1.176094 0.286432
vt 0.687500 0.750000
vn 0.026720 -0.025375 0.999321
v 0.474495 1.412086 0.292300
vt 0.687500 0.687500
vn 0.026720 -0.025375 0.999321
f 139/139/139 140/140/140 141/141/141
v 0.233887 1.180562 0.292855
vt 0.750000 0.750000
vn 0.026720 -0.025375 0.999321
v 0.474495 1.412086 0.292300
vt 0.687500 0.687500
vn 0.026720 -0.025375 0.999321
v 0.238515 1.416553 0.298723
vt 0.750000 0.687500
vn 0.026720 -0.025375 0.999321
f 142/142/142 143/143/143 144/144/144
v -0.209904 1.414832 -0.409083
vt 0.812500 0.500000
vn 0.998836 -0.022591 0.042609
v -0.240043 1.417040 0.298605
vt 0.812500 0.687500
vn 0.998836 -0.022591 0.042609
v -0.245404 1.180992 0.299113
vt 0.750000 0.687500
vn 0.998836 -0.022591 0.042609
f 145/145/145 146/146/146 147/147/147
v -0.209904 1.414832 -0.409083
vt 0.812500 0.500000
vn 0.998836 -0.022591 0.042609
v -0.245404 1.180992 0.299113
vt 0.750000 0.687500
vn 0.998836 -0.022591 0.042609
v -0.215264 1.178784 -0.408575
vt 0.750000 0.500000
vn 0.998836 -0.022591 0.042609
f 148/148/148 149/149/149 150/150/150
v -0.215264 1.178784 -0.408575
vt 0.812500 0.500000
vn -0.022704 -0.999740 0.002152
v -0.245404 1.180992 0.299113
vt 0.812500 0.687500
vn -0.022704 -0.999740 0.002152
v -0.481239 1.186326 0.289052
vt 0.875000 0.687500
vn -0.022704 -0.999740 0.002152
f 151/151/151 152/152/152 153/153/153
v -0.215264 1.178784 -0.408575
vt 0.812500 0.500000
vn -0.022704 -0.999740 0.002152
v -0.481239 1.186326 0.289052
vt 0.875000 0.687500
vn -0.022704 -0.999740 0.002152
v -0.451100 1.184118 -0.418635
vt 0.875000 0.500000
vn -0.022704 -0.999740 0.002152
f 154/154/154 155/155/155 156/156/156
v -0.451100 1.184118 -0.418635
vt 0.625000 0.500000
vn -0.998836 0.022591 -0.042609
v -0.481239 1.186326 0.289052
vt 0.625000 0.687500
vn -0.998836 0.022591 -0.042609
v -0.475879 1.422374 0.288544
vt 0.687500 0.687500
vn -0.998836 0.022591 -0.042609
f 157/157/157 158/158/158 159/159/159
v -0.451100 1.184118 -0.418635
vt 0.625000 0.500000
vn -0.998836 0.022591 -0.042609
v -0.475879 1.422374 0.288544
vt 0.687500 0.687500
vn -0.998836 0.022591 -0.042609
v -0.445739 1.420166 -0.419143
vt 0.687500 0.500000
vn -0.998836 0.022591 -0.042609
f 160/160/160 161/161/161 162/162/162
v -0.445739 1.420166 -0.419143
vt 0.687500 0.500000
vn 0.022704 0.999740 -0.002152
v -0.475879 1.422374 0.288544
vt 0.687500 0.687500
vn 0.022704 0.999740 -0.002152
v -0.240043 1.417040 0.298605
vt 0.750000 0.687500
vn 0.022704 0.999740 -0.002152
f 163/163/163 164/164/164 165/165/165
v -0.445739 1.420166 -0.419143
vt 0.687500 0.500000
vn 0.022704 0.999740 -0.002152
v -0.240043 1.417040 0.298605
vt 0.750000 0.687500
vn 0.022704 0.999740 -0.002152
v -0.209904 1.414832 -0.409083
vt 0.750000 0.500000
vn 0.022704 0.999740 -0.002152
f 166/166/166 167/167/167 168/168/168
v -0.215264 1.178784 -0.408575
vt 0.812500 0.750000
vn 0.042550 -0.003117 -0.999089
v -0.451100 1.184118 -0.418635
vt 0.750000 0.750000
vn 0.042550 -0.003117 -0.999089
v -0.445739 1.420166 -0.419143
vt 0.750000 0.687500
vn 0.042550 -0.003117 -0.999089
f 169/169/169 170/170/170 171/171/171
v -0.215264 1.178784 -0.408575
vt 0.812500 0.750000
vn 0.042550 -0.003117 -0.999089
v -0.445739 1.420166 -0.419143
vt 0.750000 0.687500
vn 0.042550 -0.003117 -0.999089
v -0.209904 1.414832 -0.409083
vt 0.812500 0.687500
vn 0.042550 -0.003117 -0.999089
f 172/172/172 173/173/173 174/174/174
v -0.481239 1.186326 0.289052
vt 0.750000 0.750000
vn -0.042550 0.003117 0.999089
v -0.245404 1.180992 0.299113
vt 0.687500 0.750000
vn -0.042550 0.003117 0.999089
v -0.240043 1.417040 0.298605
vt 0.687500 0.687500
vn -0.042550 0.003117 0.999089
f 175/175/175 176/176/176 177/177/177
v -0.481239 1.186326 0.289052
vt 0.750000 0.750000
vn -0.042550 0.003117 0.999089
v -0.240043 1.417040 0.298605
vt 0.687500 0.687500
vn -0.042550 0.003117 0.999089
v -0.475879 1.422374 0.288544
vt 0.750000 0.687500
vn -0.042550 0.003117 0.999089
f 178/178/178 179/179/179 180/180/180
v 0.236193 0.707858 0.053843
vt 0.312500 0.500000
vn 1.000000 0.000000 0.000000
v 0.236193 1.416189 0.053843
vt 0.312500 0.687500
vn 1.000000 0.000000 0.000000
v 0.236193 1.416189 0.289953
vt 0.250000 0.687500
vn 1.000000 0.000000 0.000000
f 181/181/181 182/182/182 183/183/183
v 0.236193 0.707858 0.053843
vt 0.312500 0.500000
vn 1.000000 0.000000 0.000000
v 0.236193 1.416189 0.289953
vt 0.250000 0.687500
vn 1.000000 0.000000 0.000000
v 0.236193 0.707858 0.289953
vt 0.250000 0.500000
vn 1.000000 0.000000 0.000000
f 184/184/184 185/185/185 186/186/186
v 0.236193 0.707858 0.289953
vt 0.625000 0.500000
vn -0.000000 0.000000 1.000000
v 0.236193 1.416189 0.289953
vt 0.625000 0.687500
vn -0.000000 0.000000 1.000000
v -0.236027 1.416189 0.289953
vt 0.500000 0.687500
vn -0.000000 0.000000 1.000000
f 187/187/187 188/188/188 189/189/189
v 0.236193 0.707858 0.289953
vt 0.625000 0.500000
vn -0.000000 0.000000 1.000000
v -0.236027 1.416189 0.289953
vt 0.500000 0.687500
vn -0.000000 0.000000 1.000000
v -0.236027 0.707858 0.289953
vt 0.500000 0.500000
vn -0.000000 0.000000 1.000000
f 190/190/190 191/191/191 192/192/192
v -0.236027 0.707858 0.289953
vt 0.500000 0.500000
vn -1.000000 0.000000 0.000000
v -0.236027 1.416189 0.289953
vt 0.500000 0.687500
vn -1.000000 0.000000 0.000000
v -0.236027 1.416189 0.053843
vt 0.437500 0.687500
vn -1.000000 0.000000 0.000000
f 193/193/193 194/194/194 195/195/195
v -0.236027 0.707858 0.289953
vt 0.500000 0.500000
vn -1.000000 0.000000 0.000000
v -0.236027 1.416189 0.053843
vt 0.437500 0.687500
vn -1.000000 0.000000 0.000000
v -0.236027 0.707858 0.053843
vt 0.437500 0.500000
vn -1.000000 0.000000 0.000000
f 196/196/196 197/197/197 198/198/198
v -0.236027 0.707858 0.053843
vt 0.437500 0.500000
vn -0.000000 0.000000 -1.000000
v -0.236027 1.416189 0.053843
vt 0.437500 0.687500
vn -0.000000 0.000000 -1.000000
v 0.236193 1.416189 0.053843
vt 0.312500 0.687500
vn -0.000000 0.000000 -1.000000
f 199/199/199 200/200/200 201/201/201
v -0.236027 0.707858 0.053843
vt 0.437500 0.500000
vn -0.000000 0.000000 -1.000000
v 0.236193 1.416189 0.053843
vt 0.312500 0.687500
vn -0.000000 0.000000 -1.000000
v 0.236193 0.707858 0.053843
vt 0.312500 0.500000
vn -0.000000 0.000000 -1.000000
f 202/202/202 203/203/203 204/204/204
v 0.236193 0.707858 0.289953
vt 0.562500 0.750000
vn -0.000000 -1.000000 0.000000
v -0.236027 0.707858 0.289953
vt 0.437500 0.750000
vn -0.000000 -1.000000 0.000000
v -0.236027 0.707858 0.053843
vt 0.437500 0.687500
vn -0.000000 -1.000000 0.000000
f 205/205/205 206/206/206 207/207/207
v 0.236193 0.707858 0.289953
vt 0.562500 0.750000
vn -0.000000 -1.000000 0.000000
v -0.236027 0.707858 0.053843
vt 0.437500 0.687500
vn -0.000000 -1.000000 0.000000
v 0.236193 0.707858 0.053843
vt 0.562500 0.687500
vn -0.000000 -1.000000 0.000000
f 208/208/208 209/209/209 210/210/210
v -0.236027 1.416189 0.289953
vt 0.437500 0.750000
vn -0.000000 1.000000 0.000000
v 0.236193 1.416189 0.289953
vt 0.312500 0.750000
vn -0.000000 1.000000 0.000000
v 0.236193 1.416189 0.053843
vt 0.312500 0.687500
vn -0.000000 1.000000 0.000000
f 211/211/211 212/212/212 213/213/213
v -0.236027 1.416189 0.289953
vt 0.437500 0.750000
vn -0.000000 1.000000 0.000000
v 0.236193 1.416189 0.053843
vt 0.312500 0.687500
vn -0.000000 1.000000 0.000000
v -0.236027 1.416189 0.053843
vt 0.437500 0.687500
vn -0.000000 1.000000 0.000000
f 214/214/214 215/215/215 216/216/216
v 0.236092 -0.002713 0.273945
vt 0.062500 0.500000
vn 1.000000 -0.000041 -0.000248
v 0.236061 0.666046 0.040506
vt 0.062500 0.687500
vn 1.000000 -0.000041 -0.000248
v 0.236120 0.743858 0.263425
vt 0.000000 0.687500
vn 1.000000 -0.000041 -0.000248
f 217/217/217 218/218/218 219/219/219
v 0.236092 -0.002713 0.273945
vt 0.062500 0.500000
vn 1.000000 -0.000041 -0.000248
v 0.236120 0.743858 0.263425
vt 0.000000 0.687500
vn 1.000000 -0.000041 -0.000248
v 0.236150 0.075098 0.496865
vt 0.000000 0.500000
vn 1.000000 -0.000041 -0.000248
f 220/220/220 221/221/221 222/222/222
v 0.236150 0.075098 0.496865
vt 0.250000 0.500000
vn 0.000248 0.329563 0.944134
v 0.236120 0.743858 0.263425
vt 0.250000 0.687500
vn 0.000248 0.329563 0.944134
v 0.000010 0.743867 0.263484
vt 0.187500 0.687500
vn 0.000248 0.329563 0.944134
f 223/223/223 224/224/224 225/225/225
v 0.236150 0.075098 0.496865
vt 0.250000 0.500000
vn 0.000248 0.329563 0.944134
v 0.000010 0.743867 0.263484
vt 0.187500 0.687500
vn 0.000248 0.329563 0.944134
v 0.000040 0.075108 0.496923
vt 0.187500 0.500000
vn 0.000248 0.329563 0.944134
f 226/226/226 227/227/227 228/228/228
v 0.000040 0.075108 0.496923
vt 0.187500 0.500000
vn -1.000000 0.000041 0.000248
v 0.000010 0.743867 0.263484
vt 0.187500 0.687500
vn -1.000000 0.000041 0.000248
v -0.000049 0.666056 0.040564
vt 0.125000 0.687500
vn -1.000000 0.000041 0.000248
f 229/229/229 230/230/230 231/231/231
v 0.000040 0.075108 0.496923
vt 0.187500 0.500000
vn -1.000000 0.000041 0.000248
v -0.000049 0.666056 0.040564
vt 0.125000 0.687500
vn -1.000000 0.000041 0.000248
v -0.000018 -0.002704 0.274003
vt 0.125000 0.500000
vn -1.000000 0.000041 0.000248
f 232/232/232 233/233/233 234/234/234
v -0.000018 -0.002704 0.274003
vt 0.125000 0.500000
vn -0.000248 -0.329563 -0.944134
v -0.000049 0.666056 0.040564
vt 0.125000 0.687500
vn -0.000248 -0.329563 -0.944134
v 0.236061 0.666046 0.040506
vt 0.062500 0.687500
vn -0.000248 -0.329563 -0.944134
f 235/235/235 236/236/236 237/237/237
v -0.000018 -0.002704 0.274003
vt 0.125000 0.500000
vn -0.000248 -0.329563 -0.944134
v 0.236061 0.666046 0.040506
vt 0.062500 0.687500
vn -0.000248 -0.329563 -0.944134
v 0.236092 -0.002713 0.273945
vt 0.062500 0.500000
vn -0.000248 -0.329563 -0.944134
f 238/238/238 239/239/239 240/240/240
v 0.236150 0.075098 0.496865
vt 0.187500 0.750000
vn 0.000042 -0.944136 0.329557
v 0.000040 0.075108 0.496923
vt 0.125000 0.750000
vn 0.000042 -0.944136 0.329557
v -0.000018 -0.002704 0.274003
vt 0.125000 0.687500
vn 0.000042 -0.944136 0.329557
f 241/241/241 242/242/242 243/243/243
v 0.236150 0.075098 0.496865
vt 0.187500 0.750000
vn 0.000042 -0.944136 0.329557
v -0.000018 -0.002704 0.274003
vt 0.125000 0.687500
vn 0.000042 -0.944136 0.329557
v 0.236092 -0.002713 0.273945
vt 0.187500 0.687500
vn 0.000042 -0.944136 0.329557
f 244/244/244 245/245/245 246/246/246
v 0.000010 0.743867 0.263484
vt 0.125000 0.750000
vn -0.000043 0.944136 -0.329558
v 0.236120 0.743858 0.263425
vt 0.062500 0.750000
vn -0.000043 0.944136 -0.329558
v 0.236061 0.666046 0.040506
vt 0.062500 0.687500
vn -0.000043 0.944136 -0.329558
f 247/247/247 248/248/248 249/249/249
v 0.000010 0.743867 0.263484
vt 0.125000 0.750000
vn -0.000043 0.944136 -0.329558
v 0.236061 0.666046 0.040506
vt 0.062500 0.687500
vn -0.000043 0.944136 -0.329558
v -0.000049 0.666056 0.040564
vt 0.125000 0.687500
vn -0.000043 0.944136 -0.329558
f 250/250/250 251/251/251 252/252/252
v 0.236193 1.412142 -0.064212
vt 0.125000 0.750000
vn 1.000000 0.000000 0.000000
v 0.236193 1.884362 -0.064212
vt 0.125000 0.875000
vn 1.000000 0.000000 0.000000
v 0.236193 1.884362 0.408008
vt 0.000000 0.875000
vn 1.000000 0.000000 0.000000
f 253/253/253 254/254/254 255/255/255
v 0.236193 1.412142 -0.064212
vt 0.125000 0.750000
vn 1.000000 0.000000 0.000000
v 0.236193 1.884362 0.408008
vt 0.000000 0.875000
vn 1.000000 0.000000 0.000000
v 0.236193 1.412142 0.408008
vt 0.000000 0.750000
vn 1.000000 0.000000 0.000000
f 256/256/256 257/257/257 258/258/258
v 0.236193 1.412142 0.408008
vt 0.500000 0.750000
vn -0.000000 0.000000 1.000000
v 0.236193 1.884362 0.408008
vt 0.500000 0.875000
vn -0.000000 0.000000 1.000000
v -0.236027 1.884362 0.408008
vt 0.375000 0.875000
vn -0.000000 0.000000 1.000000
f 259/259/259 260/260/260 261/261/261
v 0.236193 1.412142 0.408008
vt 0.500000 0.750000
vn -0.000000 0.000000 1.000000
v -0.236027 1.884362 0.408008
vt 0.375000 0.875000
vn -0.000000 0.000000 1.000000
v -0.236027 1.412142 0.408008
vt 0.375000 0.750000
vn -0.000000 0.000000 1.000000
f 262/262/262 263/263/263 264/264/264
v -0.236027 1.412142 0.408008
vt 0.375000 0.750000
vn -1.000000 0.000000 0.000000
v -0.236027 1.884362 0.408008
vt 0.375000 0.875000
vn -1.000000 0.000000 0.000000
v -0.236027 1.884362 -0.064212
vt 0.250000 0.875000
vn -1.000000 0.000000 0.000000
f 265/265/265 266/266/266 267/267/267
v -0.236027 1.412142 0.408008
vt 0.375000 0.750000
vn -1.000000 0.000000 0.000000
v -0.236027 1.884362 -0.064212
vt 0.250000 0.875000
vn -1.000000 0.000000 0.000000
v -0.236027 1.412142 -0.064212
vt 0.250000 0.750000
vn -1.000000 0.000000 0.000000
f 268/268/268 269/269/269 270/270/270
v -0.236027 1.412142 -0.064212
vt 0.250000 0.750000
vn -0.000000 0.000000 -1.000000
v -0.236027 1.884362 -0.064212
vt 0.250000 0.875000
vn -0.000000 0.000000 -1.000000
v 0.236193 1.884362 -0.064212
vt 0.125000 0.875000
vn -0.000000 0.000000 -1.000000
f 271/271/271 272/272/272 273/273/273
v -0.236027 1.412142 -0.064212
vt 0.250000 0.750000
vn -0.000000 0.000000 -1.000000
v 0.236193 1.884362 -0.064212
vt 0.125000 0.875000
vn -0.000000 0.000000 -1.000000
v 0.236193 1.412142 -0.064212
vt 0.125000 0.750000
vn -0.000000 0.000000 -1.000000
f 274/274/274 275/275/275 276/276/276
v 0.236193 1.412142 0.408008
vt 0.375000 1.000000
vn -0.000000 -1.000000 0.000000
v -0.236027 1.412142 0.408008
vt 0.250000 1.000000
vn -0.000000 -1.000000 0.000000
v -0.236027 1.412142 -0.064212
vt 0.250000 0.875000
vn -0.000000 -1.000000 0.000000
f 277/277/277 278/278/278 279/279/279
v 0.236193 1.412142 0.408008
vt 0.375000 1.000000
vn -0.000000 -1.000000 0.000000
v -0.236027 1.412142 -0.064212
vt 0.250000 0.875000
vn -0.000000 -1.000000 0.000000
v 0.236193 1.412142 -0.064212
vt 0.375000 0.875000
vn -0.000000 -1.000000 0.000000
f 280/280/280 281/281/281 282/282/282
v -0.236027 1.884362 0.408008
vt 0.250000 1.000000
vn -0.000000 1.000000 0.000000
v 0.236193 1.884362 0.408008
vt 0.125000 1.000000
vn -0.000000 1.000000 0.000000
v 0.236193 1.884362 -0.064212
vt 0.125000 0.875000
vn -0.000000 1.000000 0.000000
f 283/283/283 284/284/284 285/285/285
v -0.236027 1.884362 0.408008
vt 0.250000 1.000000
vn -0.000000 1.000000 0.000000
v 0.236193 1.884362 -0.064212
vt 0.125000 0.875000
vn -0.000000 1.000000 0.000000
v -0.236027 1.884362 -0.064212
vt 0.250000 0.875000
vn -0.000000 1.000000 0.000000
f 286/286/286 287/287/287 288/288/288
