# 22i GPL-3.0 model; licensed replacement skins: UPSTREAM-CREDITS.md
g Body
usemtl Skin
v 0.251831 1.396504 -0.079850
vt 0.625000 0.750000
vn -1.000000 0.000000 0.000000
v 0.251831 1.396504 0.423646
vt 0.500000 0.750000
vn -1.000000 0.000000 0.000000
v 0.251831 1.900000 0.423646
vt 0.500000 0.875000
vn -1.000000 0.000000 0.000000
f 1/1/1 2/2/2 3/3/3
v 0.251831 1.396504 -0.079850
vt 0.625000 0.750000
vn -1.000000 0.000000 0.000000
v 0.251831 1.900000 0.423646
vt 0.500000 0.875000
vn -1.000000 0.000000 0.000000
v 0.251831 1.900000 -0.079850
vt 0.625000 0.875000
vn -1.000000 0.000000 0.000000
f 4/4/4 5/5/5 6/6/6
v 0.251831 1.396504 0.423646
vt 1.000000 0.750000
vn -0.000000 0.000000 -1.000000
v -0.251665 1.396504 0.423646
vt 0.875000 0.750000
vn -0.000000 0.000000 -1.000000
v -0.251665 1.900000 0.423646
vt 0.875000 0.875000
vn -0.000000 0.000000 -1.000000
f 7/7/7 8/8/8 9/9/9
v 0.251831 1.396504 0.423646
vt 1.000000 0.750000
vn -0.000000 0.000000 -1.000000
v -0.251665 1.900000 0.423646
vt 0.875000 0.875000
vn -0.000000 0.000000 -1.000000
v 0.251831 1.900000 0.423646
vt 1.000000 0.875000
vn -0.000000 0.000000 -1.000000
f 10/10/10 11/11/11 12/12/12
v -0.251665 1.396504 0.423646
vt 0.875000 0.750000
vn 1.000000 0.000000 0.000000
v -0.251665 1.396504 -0.079850
vt 0.750000 0.750000
vn 1.000000 0.000000 0.000000
v -0.251665 1.900000 -0.079850
vt 0.750000 0.875000
vn 1.000000 0.000000 0.000000
f 13/13/13 14/14/14 15/15/15
v -0.251665 1.396504 0.423646
vt 0.875000 0.750000
vn 1.000000 0.000000 0.000000
v -0.251665 1.900000 -0.079850
vt 0.750000 0.875000
vn 1.000000 0.000000 0.000000
v -0.251665 1.900000 0.423646
vt 0.875000 0.875000
vn 1.000000 0.000000 0.000000
f 16/16/16 17/17/17 18/18/18
v -0.251665 1.396504 -0.079850
vt 0.750000 0.750000
vn -0.000000 0.000000 1.000000
v 0.251831 1.396504 -0.079850
vt 0.625000 0.750000
vn -0.000000 0.000000 1.000000
v 0.251831 1.900000 -0.079850
vt 0.625000 0.875000
vn -0.000000 0.000000 1.000000
f 19/19/19 20/20/20 21/21/21
v -0.251665 1.396504 -0.079850
vt 0.750000 0.750000
vn -0.000000 0.000000 1.000000
v 0.251831 1.900000 -0.079850
vt 0.625000 0.875000
vn -0.000000 0.000000 1.000000
v -0.251665 1.900000 -0.079850
vt 0.750000 0.875000
vn -0.000000 0.000000 1.000000
f 22/22/22 23/23/23 24/24/24
v 0.251831 1.396504 0.423646
vt 0.875000 1.000000
vn -0.000000 1.000000 0.000000
v 0.251831 1.396504 -0.079850
vt 0.875000 0.875000
vn -0.000000 1.000000 0.000000
v -0.251665 1.396504 -0.079850
vt 0.750000 0.875000
vn -0.000000 1.000000 0.000000
f 25/25/25 26/26/26 27/27/27
v 0.251831 1.396504 0.423646
vt 0.875000 1.000000
vn -0.000000 1.000000 0.000000
v -0.251665 1.396504 -0.079850
vt 0.750000 0.875000
vn -0.000000 1.000000 0.000000
v -0.251665 1.396504 0.423646
vt 0.750000 1.000000
vn -0.000000 1.000000 0.000000
f 28/28/28 29/29/29 30/30/30
v -0.251665 1.900000 0.423646
vt 0.750000 1.000000
vn -0.000000 -1.000000 0.000000
v -0.251665 1.900000 -0.079850
vt 0.750000 0.875000
vn -0.000000 -1.000000 0.000000
v 0.251831 1.900000 -0.079850
vt 0.625000 0.875000
vn -0.000000 -1.000000 0.000000
f 31/31/31 32/32/32 33/33/33
v -0.251665 1.900000 0.423646
vt 0.750000 1.000000
vn -0.000000 -1.000000 0.000000
v 0.251831 1.900000 -0.079850
vt 0.625000 0.875000
vn -0.000000 -1.000000 0.000000
v 0.251831 1.900000 0.423646
vt 0.625000 1.000000
vn -0.000000 -1.000000 0.000000
f 34/34/34 35/35/35 36/36/36
v 0.251831 1.396504 -0.079850
vt 0.625000 0.750000
vn 1.000000 0.000000 0.000000
v 0.251831 1.900000 -0.079850
vt 0.625000 0.875000
vn 1.000000 0.000000 0.000000
v 0.251831 1.900000 0.423646
vt 0.500000 0.875000
vn 1.000000 0.000000 0.000000
f 37/37/37 38/38/38 39/39/39
v 0.251831 1.396504 -0.079850
vt 0.625000 0.750000
vn 1.000000 0.000000 0.000000
v 0.251831 1.900000 0.423646
vt 0.500000 0.875000
vn 1.000000 0.000000 0.000000
v 0.251831 1.396504 0.423646
vt 0.500000 0.750000
vn 1.000000 0.000000 0.000000
f 40/40/40 41/41/41 42/42/42
v 0.251831 1.396504 0.423646
vt 1.000000 0.750000
vn -0.000000 0.000000 1.000000
v 0.251831 1.900000 0.423646
vt 1.000000 0.875000
vn -0.000000 0.000000 1.000000
v -0.251665 1.900000 0.423646
vt 0.875000 0.875000
vn -0.000000 0.000000 1.000000
f 43/43/43 44/44/44 45/45/45
v 0.251831 1.396504 0.423646
vt 1.000000 0.750000
vn -0.000000 0.000000 1.000000
v -0.251665 1.900000 0.423646
vt 0.875000 0.875000
vn -0.000000 0.000000 1.000000
v -0.251665 1.396504 0.423646
vt 0.875000 0.750000
vn -0.000000 0.000000 1.000000
f 46/46/46 47/47/47 48/48/48
v -0.251665 1.396504 0.423646
vt 0.875000 0.750000
vn -1.000000 0.000000 0.000000
v -0.251665 1.900000 0.423646
vt 0.875000 0.875000
vn -1.000000 0.000000 0.000000
v -0.251665 1.900000 -0.079850
vt 0.750000 0.875000
vn -1.000000 0.000000 0.000000
f 49/49/49 50/50/50 51/51/51
v -0.251665 1.396504 0.423646
vt 0.875000 0.750000
vn -1.000000 0.000000 0.000000
v -0.251665 1.900000 -0.079850
vt 0.750000 0.875000
vn -1.000000 0.000000 0.000000
v -0.251665 1.396504 -0.079850
vt 0.750000 0.750000
vn -1.000000 0.000000 0.000000
f 52/52/52 53/53/53 54/54/54
v -0.251665 1.396504 -0.079850
vt 0.750000 0.750000
vn -0.000000 0.000000 -1.000000
v -0.251665 1.900000 -0.079850
vt 0.750000 0.875000
vn -0.000000 0.000000 -1.000000
v 0.251831 1.900000 -0.079850
vt 0.625000 0.875000
vn -0.000000 0.000000 -1.000000
f 55/55/55 56/56/56 57/57/57
v -0.251665 1.396504 -0.079850
vt 0.750000 0.750000
vn -0.000000 0.000000 -1.000000
v 0.251831 1.900000 -0.079850
vt 0.625000 0.875000
vn -0.000000 0.000000 -1.000000
v 0.251831 1.396504 -0.079850
vt 0.625000 0.750000
vn -0.000000 0.000000 -1.000000
f 58/58/58 59/59/59 60/60/60
v 0.251831 1.396504 0.423646
vt 0.875000 1.000000
vn -0.000000 -1.000000 0.000000
v -0.251665 1.396504 0.423646
vt 0.750000 1.000000
vn -0.000000 -1.000000 0.000000
v -0.251665 1.396504 -0.079850
vt 0.750000 0.875000
vn -0.000000 -1.000000 0.000000
f 61/61/61 62/62/62 63/63/63
v 0.251831 1.396504 0.423646
vt 0.875000 1.000000
vn -0.000000 -1.000000 0.000000
v -0.251665 1.396504 -0.079850
vt 0.750000 0.875000
vn -0.000000 -1.000000 0.000000
v 0.251831 1.396504 -0.079850
vt 0.875000 0.875000
vn -0.000000 -1.000000 0.000000
f 64/64/64 65/65/65 66/66/66
v -0.251665 1.900000 0.423646
vt 0.750000 1.000000
vn -0.000000 1.000000 0.000000
v 0.251831 1.900000 0.423646
vt 0.625000 1.000000
vn -0.000000 1.000000 0.000000
v 0.251831 1.900000 -0.079850
vt 0.625000 0.875000
vn -0.000000 1.000000 0.000000
f 67/67/67 68/68/68 69/69/69
v -0.251665 1.900000 0.423646
vt 0.750000 1.000000
vn -0.000000 1.000000 0.000000
v 0.251831 1.900000 -0.079850
vt 0.625000 0.875000
vn -0.000000 1.000000 0.000000
v -0.251665 1.900000 -0.079850
vt 0.750000 0.875000
vn -0.000000 1.000000 0.000000
f 70/70/70 71/71/71 72/72/72
v 0.000054 0.000000 0.053843
vt 0.187500 0.500000
vn 1.000000 0.000000 0.000000
v 0.000054 0.708330 0.053843
vt 0.187500 0.687500
vn 1.000000 0.000000 0.000000
v 0.000054 0.708330 0.289953
vt 0.125000 0.687500
vn 1.000000 0.000000 0.000000
f 73/73/73 74/74/74 75/75/75
v 0.000054 0.000000 0.053843
vt 0.187500 0.500000
vn 1.000000 0.000000 0.000000
v 0.000054 0.708330 0.289953
vt 0.125000 0.687500
vn 1.000000 0.000000 0.000000
v 0.000054 0.000000 0.289953
vt 0.125000 0.500000
vn 1.000000 0.000000 0.000000
f 76/76/76 77/77/77 78/78/78
v 0.000054 0.000000 0.289953
vt 0.187500 0.500000
vn -0.000000 0.000000 1.000000
v 0.000054 0.708330 0.289953
vt 0.187500 0.687500
vn -0.000000 0.000000 1.000000
v -0.236056 0.708330 0.289953
vt 0.250000 0.687500
vn -0.000000 0.000000 1.000000
f 79/79/79 80/80/80 81/81/81
v 0.000054 0.000000 0.289953
vt 0.187500 0.500000
vn -0.000000 0.000000 1.000000
v -0.236056 0.708330 0.289953
vt 0.250000 0.687500
vn -0.000000 0.000000 1.000000
v -0.236056 0.000000 0.289953
vt 0.250000 0.500000
vn -0.000000 0.000000 1.000000
f 82/82/82 83/83/83 84/84/84
v -0.236056 0.000000 0.289953
vt 0.000000 0.500000
vn -1.000000 0.000000 0.000000
v -0.236056 0.708330 0.289953
vt 0.000000 0.687500
vn -1.000000 0.000000 0.000000
v -0.236056 0.708330 0.053843
vt 0.062500 0.687500
vn -1.000000 0.000000 0.000000
f 85/85/85 86/86/86 87/87/87
v -0.236056 0.000000 0.289953
vt 0.000000 0.500000
vn -1.000000 0.000000 0.000000
v -0.236056 0.708330 0.053843
vt 0.062500 0.687500
vn -1.000000 0.000000 0.000000
v -0.236056 0.000000 0.053843
vt 0.062500 0.500000
vn -1.000000 0.000000 0.000000
f 88/88/88 89/89/89 90/90/90
v -0.236056 0.000000 0.053843
vt 0.125000 0.500000
vn -0.000000 0.000000 -1.000000
v -0.236056 0.708330 0.053843
vt 0.125000 0.687500
vn -0.000000 0.000000 -1.000000
v 0.000054 0.708330 0.053843
vt 0.062500 0.687500
vn -0.000000 0.000000 -1.000000
f 91/91/91 92/92/92 93/93/93
v -0.236056 0.000000 0.053843
vt 0.125000 0.500000
vn -0.000000 0.000000 -1.000000
v 0.000054 0.708330 0.053843
vt 0.062500 0.687500
vn -0.000000 0.000000 -1.000000
v 0.000054 0.000000 0.053843
vt 0.062500 0.500000
vn -0.000000 0.000000 -1.000000
f 94/94/94 95/95/95 96/96/96
v 0.000054 0.000000 0.289953
vt 0.187500 0.750000
vn -0.000000 -1.000000 0.000000
v -0.236056 0.000000 0.289953
vt 0.125000 0.750000
vn -0.000000 -1.000000 0.000000
v -0.236056 0.000000 0.053843
vt 0.125000 0.687500
vn -0.000000 -1.000000 0.000000
f 97/97/97 98/98/98 99/99/99
v 0.000054 0.000000 0.289953
vt 0.187500 0.750000
vn -0.000000 -1.000000 0.000000
v -0.236056 0.000000 0.053843
vt 0.125000 0.687500
vn -0.000000 -1.000000 0.000000
v 0.000054 0.000000 0.053843
vt 0.187500 0.687500
vn -0.000000 -1.000000 0.000000
f 100/100/100 101/101/101 102/102/102
v -0.236056 0.708330 0.289953
vt 0.125000 0.750000
vn -0.000000 1.000000 0.000000
v 0.000054 0.708330 0.289953
vt 0.062500 0.750000
vn -0.000000 1.000000 0.000000
v 0.000054 0.708330 0.053843
vt 0.062500 0.687500
vn -0.000000 1.000000 0.000000
f 103/103/103 104/104/104 105/105/105
v -0.236056 0.708330 0.289953
vt 0.125000 0.750000
vn -0.000000 1.000000 0.000000
v 0.000054 0.708330 0.053843
vt 0.062500 0.687500
vn -0.000000 1.000000 0.000000
v -0.236056 0.708330 0.053843
vt 0.125000 0.687500
vn -0.000000 1.000000 0.000000
f 106/106/106 107/107/107 108/108/108
v 0.470602 1.415417 -0.412914
vt 0.687500 0.500000
vn 0.999999 0.000737 -0.000912
v 0.471245 1.418089 0.295412
vt 0.687500 0.687500
vn 0.999999 0.000737 -0.000912
v 0.471420 1.181981 0.296303
vt 0.625000 0.687500
vn 0.999999 0.000737 -0.000912
f 109/109/109 110/110/110 111/111/111
v 0.470602 1.415417 -0.412914
vt 0.687500 0.500000
vn 0.999999 0.000737 -0.000912
v 0.471420 1.181981 0.296303
vt 0.625000 0.687500
vn 0.999999 0.000737 -0.000912
v 0.470777 1.179309 -0.412023
vt 0.625000 0.500000
vn 0.999999 0.000737 -0.000912
f 112/112/112 113/113/113 114/114/114
v 0.470777 1.179309 -0.412023
vt 0.875000 0.500000
vn 0.000740 -0.999993 0.003772
v 0.471420 1.181981 0.296303
vt 0.875000 0.687500
vn 0.000740 -0.999993 0.003772
v 0.235310 1.181807 0.296518
vt 0.812500 0.687500
vn 0.000740 -0.999993 0.003772
f 115/115/115 116/116/116 117/117/117
v 0.470777 1.179309 -0.412023
vt 0.875000 0.500000
vn 0.000740 -0.999993 0.003772
v 0.235310 1.181807 0.296518
vt 0.812500 0.687500
vn 0.000740 -0.999993 0.003772
v 0.234667 1.179135 -0.411808
vt 0.812500 0.500000
vn 0.000740 -0.999993 0.003772
f 118/118/118 119/119/119 120/120/120
v 0.234667 1.179135 -0.411808
vt 0.812500 0.500000
vn -0.999999 -0.000737 0.000912
v 0.235310 1.181807 0.296518
vt 0.812500 0.687500
vn -0.999999 -0.000737 0.000912
v 0.235135 1.417915 0.295628
vt 0.750000 0.687500
vn -0.999999 -0.000737 0.000912
f 121/121/121 122/122/122 123/123/123
v 0.234667 1.179135 -0.411808
vt 0.812500 0.500000
vn -0.999999 -0.000737 0.000912
v 0.235135 1.417915 0.295628
vt 0.750000 0.687500
vn -0.999999 -0.000737 0.000912
v 0.234492 1.415243 -0.412699
vt 0.750000 0.500000
vn -0.999999 -0.000737 0.000912
f 124/124/124 125/125/125 126/126/126
v 0.234492 1.415243 -0.412699
vt 0.750000 0.500000
vn -0.000741 0.999993 -0.003772
v 0.235135 1.417915 0.295628
vt 0.750000 0.687500
vn -0.000741 0.999993 -0.003772
v 0.471245 1.418089 0.295412
vt 0.687500 0.687500
vn -0.000741 0.999993 -0.003772
f 127/127/127 128/128/128 129/129/129
v 0.234492 1.415243 -0.412699
vt 0.750000 0.500000
vn -0.000741 0.999993 -0.003772
v 0.471245 1.418089 0.295412
vt 0.687500 0.687500
vn -0.000741 0.999993 -0.003772
v 0.470602 1.415417 -0.412914
vt 0.687500 0.500000
vn -0.000741 0.999993 -0.003772
f 130/130/130 131/131/131 132/132/132
v 0.470777 1.179309 -0.412023
vt 0.750000 0.750000
vn -0.000908 -0.003773 -0.999992
v 0.234667 1.179135 -0.411808
vt 0.812500 0.750000
vn -0.000908 -0.003773 -0.999992
v 0.234492 1.415243 -0.412699
vt 0.812500 0.687500
vn -0.000908 -0.003773 -0.999992
f 133/133/133 134/134/134 135/135/135
v 0.470777 1.179309 -0.412023
vt 0.750000 0.750000
vn -0.000908 -0.003773 -0.999992
v 0.234492 1.415243 -0.412699
vt 0.812500 0.687500
vn -0.000908 -0.003773 -0.999992
v 0.470602 1.415417 -0.412914
vt 0.750000 0.687500
vn -0.000908 -0.003773 -0.999992
f 136/136/136 137/137/137 138/138/138
v 0.235310 1.181807 0.296518
vt 0.750000 0.750000
vn 0.000908 0.003773 0.999992
v 0.471420 1.181981 0.296303
vt 0.687500 0.750000
vn 0.000908 0.003773 0.999992
v 0.471245 1.418089 0.295412
vt 0.687500 0.687500
vn 0.000908 0.003773 0.999992
f 139/139/139 140/140/140 141/141/141
v 0.235310 1.181807 0.296518
vt 0.750000 0.750000
vn 0.000908 0.003773 0.999992
v 0.471245 1.418089 0.295412
vt 0.687500 0.687500
vn 0.000908 0.003773 0.999992
v 0.235135 1.417915 0.295628
vt 0.750000 0.687500
vn 0.000908 0.003773 0.999992
f 142/142/142 143/143/143 144/144/144
v -0.192641 1.437662 -0.404120
vt 0.812500 0.500000
vn 0.997366 -0.001052 0.072532
v -0.244015 1.415293 0.301993
vt 0.812500 0.687500
vn 0.997366 -0.001052 0.072532
v -0.243722 1.179301 0.294538
vt 0.750000 0.687500
vn 0.997366 -0.001052 0.072532
f 145/145/145 146/146/146 147/147/147
v -0.192641 1.437662 -0.404120
vt 0.812500 0.500000
vn 0.997366 -0.001052 0.072532
v -0.243722 1.179301 0.294538
vt 0.750000 0.687500
vn 0.997366 -0.001052 0.072532
v -0.192348 1.201670 -0.411574
vt 0.750000 0.500000
vn 0.997366 -0.001052 0.072532
f 148/148/148 149/149/149 150/150/150
v -0.192348 1.201670 -0.411574
vt 0.812500 0.500000
vn 0.001242 -0.999501 -0.031573
v -0.243722 1.179301 0.294538
vt 0.812500 0.687500
vn 0.001242 -0.999501 -0.031573
v -0.479210 1.179550 0.277413
vt 0.875000 0.687500
vn 0.001242 -0.999501 -0.031573
f 151/151/151 152/152/152 153/153/153
v -0.192348 1.201670 -0.411574
vt 0.812500 0.500000
vn 0.001242 -0.999501 -0.031573
v -0.479210 1.179550 0.277413
vt 0.875000 0.687500
vn 0.001242 -0.999501 -0.031573
v -0.427836 1.201919 -0.428700
vt 0.875000 0.500000
vn 0.001242 -0.999501 -0.031573
f 154/154/154 155/155/155 156/156/156
v -0.427836 1.201919 -0.428700
vt 0.625000 0.500000
vn -0.997366 0.001052 -0.072532
v -0.479210 1.179550 0.277413
vt 0.625000 0.687500
vn -0.997366 0.001052 -0.072532
v -0.479503 1.415541 0.284868
vt 0.687500 0.687500
vn -0.997366 0.001052 -0.072532
f 157/157/157 158/158/158 159/159/159
v -0.427836 1.201919 -0.428700
vt 0.625000 0.500000
vn -0.997366 0.001052 -0.072532
v -0.479503 1.415541 0.284868
vt 0.687500 0.687500
vn -0.997366 0.001052 -0.072532
v -0.428129 1.437911 -0.421245
vt 0.687500 0.500000
vn -0.997366 0.001052 -0.072532
f 160/160/160 161/161/161 162/162/162
v -0.428129 1.437911 -0.421245
vt 0.687500 0.500000
vn -0.001242 0.999501 0.031573
v -0.479503 1.415541 0.284868
vt 0.687500 0.687500
vn -0.001242 0.999501 0.031573
v -0.244015 1.415293 0.301993
vt 0.750000 0.687500
vn -0.001242 0.999501 0.031573
f 163/163/163 164/164/164 165/165/165
v -0.428129 1.437911 -0.421245
vt 0.687500 0.500000
vn -0.001242 0.999501 0.031573
v -0.244015 1.415293 0.301993
vt 0.750000 0.687500
vn -0.001242 0.999501 0.031573
v -0.192641 1.437662 -0.404120
vt 0.750000 0.500000
vn -0.001242 0.999501 0.031573
f 166/166/166 167/167/167 168/168/168
v -0.192348 1.201670 -0.411574
vt 0.812500 0.750000
vn 0.072529 0.031581 -0.996866
v -0.427836 1.201919 -0.428700
vt 0.750000 0.750000
vn 0.072529 0.031581 -0.996866
v -0.428129 1.437911 -0.421245
vt 0.750000 0.687500
vn 0.072529 0.031581 -0.996866
f 169/169/169 170/170/170 171/171/171
v -0.192348 1.201670 -0.411574
vt 0.812500 0.750000
vn 0.072529 0.031581 -0.996866
v -0.428129 1.437911 -0.421245
vt 0.750000 0.687500
vn 0.072529 0.031581 -0.996866
v -0.192641 1.437662 -0.404120
vt 0.812500 0.687500
vn 0.072529 0.031581 -0.996866
f 172/172/172 173/173/173 174/174/174
v -0.479210 1.179550 0.277413
vt 0.750000 0.750000
vn -0.072529 -0.031580 0.996866
v -0.243722 1.179301 0.294538
vt 0.687500 0.750000
vn -0.072529 -0.031580 0.996866
v -0.244015 1.415293 0.301993
vt 0.687500 0.687500
vn -0.072529 -0.031580 0.996866
f 175/175/175 176/176/176 177/177/177
v -0.479210 1.179550 0.277413
vt 0.750000 0.750000
vn -0.072529 -0.031580 0.996866
v -0.244015 1.415293 0.301993
vt 0.687500 0.687500
vn -0.072529 -0.031580 0.996866
v -0.479503 1.415541 0.284868
vt 0.750000 0.687500
vn -0.072529 -0.031580 0.996866
f 178/178/178 179/179/179 180/180/180
v 0.236193 0.707858 0.053843
vt 0.312500 0.500000
vn 1.000000 0.000000 0.000000
v 0.236193 1.416189 0.053843
vt 0.312500 0.687500
vn 1.000000 0.000000 0.000000
v 0.236193 1.416189 0.289953
vt 0.250000 0.687500
vn 1.000000 0.000000 0.000000
f 181/181/181 182/182/182 183/183/183
v 0.236193 0.707858 0.053843
vt 0.312500 0.500000
vn 1.000000 0.000000 0.000000
v 0.236193 1.416189 0.289953
vt 0.250000 0.687500
vn 1.000000 0.000000 0.000000
v 0.236193 0.707858 0.289953
vt 0.250000 0.500000
vn 1.000000 0.000000 0.000000
f 184/184/184 185/185/185 186/186/186
v 0.236193 0.707858 0.289953
vt 0.625000 0.500000
vn -0.000000 0.000000 1.000000
v 0.236193 1.416189 0.289953
vt 0.625000 0.687500
vn -0.000000 0.000000 1.000000
v -0.236027 1.416189 0.289953
vt 0.500000 0.687500
vn -0.000000 0.000000 1.000000
f 187/187/187 188/188/188 189/189/189
v 0.236193 0.707858 0.289953
vt 0.625000 0.500000
vn -0.000000 0.000000 1.000000
v -0.236027 1.416189 0.289953
vt 0.500000 0.687500
vn -0.000000 0.000000 1.000000
v -0.236027 0.707858 0.289953
vt 0.500000 0.500000
vn -0.000000 0.000000 1.000000
f 190/190/190 191/191/191 192/192/192
v -0.236027 0.707858 0.289953
vt 0.500000 0.500000
vn -1.000000 0.000000 0.000000
v -0.236027 1.416189 0.289953
vt 0.500000 0.687500
vn -1.000000 0.000000 0.000000
v -0.236027 1.416189 0.053843
vt 0.437500 0.687500
vn -1.000000 0.000000 0.000000
f 193/193/193 194/194/194 195/195/195
v -0.236027 0.707858 0.289953
vt 0.500000 0.500000
vn -1.000000 0.000000 0.000000
v -0.236027 1.416189 0.053843
vt 0.437500 0.687500
vn -1.000000 0.000000 0.000000
v -0.236027 0.707858 0.053843
vt 0.437500 0.500000
vn -1.000000 0.000000 0.000000
f 196/196/196 197/197/197 198/198/198
v -0.236027 0.707858 0.053843
vt 0.437500 0.500000
vn -0.000000 0.000000 -1.000000
v -0.236027 1.416189 0.053843
vt 0.437500 0.687500
vn -0.000000 0.000000 -1.000000
v 0.236193 1.416189 0.053843
vt 0.312500 0.687500
vn -0.000000 0.000000 -1.000000
f 199/199/199 200/200/200 201/201/201
v -0.236027 0.707858 0.053843
vt 0.437500 0.500000
vn -0.000000 0.000000 -1.000000
v 0.236193 1.416189 0.053843
vt 0.312500 0.687500
vn -0.000000 0.000000 -1.000000
v 0.236193 0.707858 0.053843
vt 0.312500 0.500000
vn -0.000000 0.000000 -1.000000
f 202/202/202 203/203/203 204/204/204
v 0.236193 0.707858 0.289953
vt 0.562500 0.750000
vn -0.000000 -1.000000 0.000000
v -0.236027 0.707858 0.289953
vt 0.437500 0.750000
vn -0.000000 -1.000000 0.000000
v -0.236027 0.707858 0.053843
vt 0.437500 0.687500
vn -0.000000 -1.000000 0.000000
f 205/205/205 206/206/206 207/207/207
v 0.236193 0.707858 0.289953
vt 0.562500 0.750000
vn -0.000000 -1.000000 0.000000
v -0.236027 0.707858 0.053843
vt 0.437500 0.687500
vn -0.000000 -1.000000 0.000000
v 0.236193 0.707858 0.053843
vt 0.562500 0.687500
vn -0.000000 -1.000000 0.000000
f 208/208/208 209/209/209 210/210/210
v -0.236027 1.416189 0.289953
vt 0.437500 0.750000
vn -0.000000 1.000000 0.000000
v 0.236193 1.416189 0.289953
vt 0.312500 0.750000
vn -0.000000 1.000000 0.000000
v 0.236193 1.416189 0.053843
vt 0.312500 0.687500
vn -0.000000 1.000000 0.000000
f 211/211/211 212/212/212 213/213/213
v -0.236027 1.416189 0.289953
vt 0.437500 0.750000
vn -0.000000 1.000000 0.000000
v 0.236193 1.416189 0.053843
vt 0.312500 0.687500
vn -0.000000 1.000000 0.000000
v -0.236027 1.416189 0.053843
vt 0.437500 0.687500
vn -0.000000 1.000000 0.000000
f 214/214/214 215/215/215 216/216/216
v 0.236093 0.000000 0.053843
vt 0.062500 0.500000
vn 1.000000 0.000000 0.000000
v 0.236093 0.708330 0.053843
vt 0.062500 0.687500
vn 1.000000 0.000000 0.000000
v 0.236093 0.708330 0.289953
vt 0.000000 0.687500
vn 1.000000 0.000000 0.000000
f 217/217/217 218/218/218 219/219/219
v 0.236093 0.000000 0.053843
vt 0.062500 0.500000
vn 1.000000 0.000000 0.000000
v 0.236093 0.708330 0.289953
vt 0.000000 0.687500
vn 1.000000 0.000000 0.000000
v 0.236093 0.000000 0.289953
vt 0.000000 0.500000
vn 1.000000 0.000000 0.000000
f 220/220/220 221/221/221 222/222/222
v 0.236093 0.000000 0.289953
vt 0.250000 0.500000
vn -0.000000 0.000000 1.000000
v 0.236093 0.708330 0.289953
vt 0.250000 0.687500
vn -0.000000 0.000000 1.000000
v -0.000017 0.708330 0.289953
vt 0.187500 0.687500
vn -0.000000 0.000000 1.000000
f 223/223/223 224/224/224 225/225/225
v 0.236093 0.000000 0.289953
vt 0.250000 0.500000
vn -0.000000 0.000000 1.000000
v -0.000017 0.708330 0.289953
vt 0.187500 0.687500
vn -0.000000 0.000000 1.000000
v -0.000017 0.000000 0.289953
vt 0.187500 0.500000
vn -0.000000 0.000000 1.000000
f 226/226/226 227/227/227 228/228/228
v -0.000017 0.000000 0.289953
vt 0.187500 0.500000
vn -1.000000 0.000000 0.000000
v -0.000017 0.708330 0.289953
vt 0.187500 0.687500
vn -1.000000 0.000000 0.000000
v -0.000017 0.708330 0.053843
vt 0.125000 0.687500
vn -1.000000 0.000000 0.000000
f 229/229/229 230/230/230 231/231/231
v -0.000017 0.000000 0.289953
vt 0.187500 0.500000
vn -1.000000 0.000000 0.000000
v -0.000017 0.708330 0.053843
vt 0.125000 0.687500
vn -1.000000 0.000000 0.000000
v -0.000017 0.000000 0.053843
vt 0.125000 0.500000
vn -1.000000 0.000000 0.000000
f 232/232/232 233/233/233 234/234/234
v -0.000017 0.000000 0.053843
vt 0.125000 0.500000
vn -0.000000 0.000000 -1.000000
v -0.000017 0.708330 0.053843
vt 0.125000 0.687500
vn -0.000000 0.000000 -1.000000
v 0.236093 0.708330 0.053843
vt 0.062500 0.687500
vn -0.000000 0.000000 -1.000000
f 235/235/235 236/236/236 237/237/237
v -0.000017 0.000000 0.053843
vt 0.125000 0.500000
vn -0.000000 0.000000 -1.000000
v 0.236093 0.708330 0.053843
vt 0.062500 0.687500
vn -0.000000 0.000000 -1.000000
v 0.236093 0.000000 0.053843
vt 0.062500 0.500000
vn -0.000000 0.000000 -1.000000
f 238/238/238 239/239/239 240/240/240
v 0.236093 0.000000 0.289953
vt 0.187500 0.750000
vn -0.000000 -1.000000 0.000000
v -0.000017 0.000000 0.289953
vt 0.125000 0.750000
vn -0.000000 -1.000000 0.000000
v -0.000017 0.000000 0.053843
vt 0.125000 0.687500
vn -0.000000 -1.000000 0.000000
f 241/241/241 242/242/242 243/243/243
v 0.236093 0.000000 0.289953
vt 0.187500 0.750000
vn -0.000000 -1.000000 0.000000
v -0.000017 0.000000 0.053843
vt 0.125000 0.687500
vn -0.000000 -1.000000 0.000000
v 0.236093 0.000000 0.053843
vt 0.187500 0.687500
vn -0.000000 -1.000000 0.000000
f 244/244/244 245/245/245 246/246/246
v -0.000017 0.708330 0.289953
vt 0.125000 0.750000
vn -0.000000 1.000000 0.000000
v 0.236093 0.708330 0.289953
vt 0.062500 0.750000
vn -0.000000 1.000000 0.000000
v 0.236093 0.708330 0.053843
vt 0.062500 0.687500
vn -0.000000 1.000000 0.000000
f 247/247/247 248/248/248 249/249/249
v -0.000017 0.708330 0.289953
vt 0.125000 0.750000
vn -0.000000 1.000000 0.000000
v 0.236093 0.708330 0.053843
vt 0.062500 0.687500
vn -0.000000 1.000000 0.000000
v -0.000017 0.708330 0.053843
vt 0.125000 0.687500
vn -0.000000 1.000000 0.000000
f 250/250/250 251/251/251 252/252/252
v 0.236193 1.412142 -0.064212
vt 0.125000 0.750000
vn 1.000000 0.000000 0.000000
v 0.236193 1.884362 -0.064212
vt 0.125000 0.875000
vn 1.000000 0.000000 0.000000
v 0.236193 1.884362 0.408008
vt 0.000000 0.875000
vn 1.000000 0.000000 0.000000
f 253/253/253 254/254/254 255/255/255
v 0.236193 1.412142 -0.064212
vt 0.125000 0.750000
vn 1.000000 0.000000 0.000000
v 0.236193 1.884362 0.408008
vt 0.000000 0.875000
vn 1.000000 0.000000 0.000000
v 0.236193 1.412142 0.408008
vt 0.000000 0.750000
vn 1.000000 0.000000 0.000000
f 256/256/256 257/257/257 258/258/258
v 0.236193 1.412142 0.408008
vt 0.500000 0.750000
vn -0.000000 0.000000 1.000000
v 0.236193 1.884362 0.408008
vt 0.500000 0.875000
vn -0.000000 0.000000 1.000000
v -0.236027 1.884362 0.408008
vt 0.375000 0.875000
vn -0.000000 0.000000 1.000000
f 259/259/259 260/260/260 261/261/261
v 0.236193 1.412142 0.408008
vt 0.500000 0.750000
vn -0.000000 0.000000 1.000000
v -0.236027 1.884362 0.408008
vt 0.375000 0.875000
vn -0.000000 0.000000 1.000000
v -0.236027 1.412142 0.408008
vt 0.375000 0.750000
vn -0.000000 0.000000 1.000000
f 262/262/262 263/263/263 264/264/264
v -0.236027 1.412142 0.408008
vt 0.375000 0.750000
vn -1.000000 0.000000 0.000000
v -0.236027 1.884362 0.408008
vt 0.375000 0.875000
vn -1.000000 0.000000 0.000000
v -0.236027 1.884362 -0.064212
vt 0.250000 0.875000
vn -1.000000 0.000000 0.000000
f 265/265/265 266/266/266 267/267/267
v -0.236027 1.412142 0.408008
vt 0.375000 0.750000
vn -1.000000 0.000000 0.000000
v -0.236027 1.884362 -0.064212
vt 0.250000 0.875000
vn -1.000000 0.000000 0.000000
v -0.236027 1.412142 -0.064212
vt 0.250000 0.750000
vn -1.000000 0.000000 0.000000
f 268/268/268 269/269/269 270/270/270
v -0.236027 1.412142 -0.064212
vt 0.250000 0.750000
vn -0.000000 0.000000 -1.000000
v -0.236027 1.884362 -0.064212
vt 0.250000 0.875000
vn -0.000000 0.000000 -1.000000
v 0.236193 1.884362 -0.064212
vt 0.125000 0.875000
vn -0.000000 0.000000 -1.000000
f 271/271/271 272/272/272 273/273/273
v -0.236027 1.412142 -0.064212
vt 0.250000 0.750000
vn -0.000000 0.000000 -1.000000
v 0.236193 1.884362 -0.064212
vt 0.125000 0.875000
vn -0.000000 0.000000 -1.000000
v 0.236193 1.412142 -0.064212
vt 0.125000 0.750000
vn -0.000000 0.000000 -1.000000
f 274/274/274 275/275/275 276/276/276
v 0.236193 1.412142 0.408008
vt 0.375000 1.000000
vn -0.000000 -1.000000 0.000000
v -0.236027 1.412142 0.408008
vt 0.250000 1.000000
vn -0.000000 -1.000000 0.000000
v -0.236027 1.412142 -0.064212
vt 0.250000 0.875000
vn -0.000000 -1.000000 0.000000
f 277/277/277 278/278/278 279/279/279
v 0.236193 1.412142 0.408008
vt 0.375000 1.000000
vn -0.000000 -1.000000 0.000000
v -0.236027 1.412142 -0.064212
vt 0.250000 0.875000
vn -0.000000 -1.000000 0.000000
v 0.236193 1.412142 -0.064212
vt 0.375000 0.875000
vn -0.000000 -1.000000 0.000000
f 280/280/280 281/281/281 282/282/282
v -0.236027 1.884362 0.408008
vt 0.250000 1.000000
vn -0.000000 1.000000 0.000000
v 0.236193 1.884362 0.408008
vt 0.125000 1.000000
vn -0.000000 1.000000 0.000000
v 0.236193 1.884362 -0.064212
vt 0.125000 0.875000
vn -0.000000 1.000000 0.000000
f 283/283/283 284/284/284 285/285/285
v -0.236027 1.884362 0.408008
vt 0.250000 1.000000
vn -0.000000 1.000000 0.000000
v 0.236193 1.884362 -0.064212
vt 0.125000 0.875000
vn -0.000000 1.000000 0.000000
v -0.236027 1.884362 -0.064212
vt 0.250000 0.875000
vn -0.000000 1.000000 0.000000
f 286/286/286 287/287/287 288/288/288
