# Quaternius Rocket Launcher, CC0; GLB converted to OBJ for VOXEL.
mtllib launcher.mtl
v 0.0317562 -0.2853099 0.0329679
v 0.0317562 -0.1910228 -0.0058238
v 0.0317562 -0.2812053 0.0591631
v 0.0317562 -0.1940193 -0.0257824
v 0.0317562 -0.1341280 -0.0236518
v 0.0240609 -0.1308299 -0.0058687
v 0.0240609 -0.1883248 0.0121473
v 0.0317562 -0.3117862 0.0455230
v 0.0000000 -0.3417951 -0.0322744
v 0.0317562 -0.3655310 -0.0292782
v 0.0000000 -0.3655310 -0.0292782
v -0.0317562 -0.3655310 -0.0292782
v -0.0317562 -0.3417951 -0.0322744
v 0.0317562 -0.3417951 -0.0322744
v 0.0317562 -0.3417951 -0.0322744
v 0.0317562 -0.3154375 0.0222982
v 0.0317562 -0.3325862 0.0263002
v 0.0317562 -0.3562469 0.0297747
v 0.0317562 -0.3655310 -0.0292782
v 0.0317562 -0.3525402 0.0533520
v 0.0317562 -0.3289096 0.0496865
v 0.0000000 -0.1294638 0.0014973
v 0.0054827 -0.1872072 0.0195912
v 0.0054827 -0.1294638 0.0014973
v -0.0054827 -0.1872072 0.0195912
v 0.0000000 -0.1872072 0.0195912
v 0.0240609 -0.1308299 -0.0058687
v -0.0054827 -0.2772438 0.0844729
v 0.0000000 -0.2772438 0.0844729
v 0.0054827 -0.2772438 0.0844729
v 0.0317562 -0.1380592 -0.0448487
v 0.0317562 -0.3175487 -0.0378496
v 0.0000000 -0.3245828 -0.0358718
v 0.0000000 -0.3175487 -0.0378496
v 0.0000000 -0.3035500 0.0979114
v 0.0054827 -0.3035500 0.0979113
v 0.0240609 -0.1883248 0.0121473
v 0.0000000 -0.3206437 0.1022632
v -0.0054827 -0.3035500 0.0979113
v -0.0054827 -0.3206437 0.1022632
v 0.0000000 -0.3442393 0.1061515
v 0.0054827 -0.3206437 0.1022632
v 0.0054827 -0.3442393 0.1061515
v 0.0240609 -0.3047149 0.0905016
v 0.0240609 -0.3218086 0.0948534
v 0.0317562 -0.3245828 -0.0358718
v 0.0317562 -0.3084784 0.0198439
v 0.0317562 -0.3175487 -0.0378496
v 0.0240609 -0.2784041 0.0770598
v 0.0317562 -0.3245828 -0.0358718
v -0.0317562 -0.3175487 -0.0378496
v -0.0317562 -0.3245828 -0.0358718
v 0.0240609 -0.2784041 0.0770598
v 0.0240609 -0.3047149 0.0905016
v 0.0317562 -0.3246210 0.0769647
v 0.0317562 -0.3075273 0.0726129
v 0.0240609 -0.3218086 0.0948534
v 0.0317562 -0.3482166 0.0808530
v 0.0240609 -0.3454042 0.0987417
v 0.0240609 -0.3454042 0.0987417
v 0.0054827 -0.3442393 0.1061515
v 0.0317562 -0.3482166 0.0808530
v 0.0240609 -0.3454042 0.0987417
v 0.0000000 -0.3442393 0.1061515
v 0.0317562 -0.3525402 0.0533520
v 0.0317562 -0.3562469 0.0297747
v 0.0000000 -0.3655310 -0.0292782
v -0.0317562 -0.3562469 0.0297747
v -0.0317562 -0.3655310 -0.0292782
v 0.0317562 -0.3655310 -0.0292782
v -0.0317562 -0.2812053 0.0591631
v -0.0317562 -0.3075273 0.0726129
v -0.0240609 -0.2784041 0.0770598
v -0.0240609 -0.1883248 0.0121473
v -0.0317562 -0.1910228 -0.0058238
v -0.0317562 -0.2853099 0.0329679
v -0.0317562 -0.3117862 0.0455230
v -0.0317562 -0.1940193 -0.0257824
v -0.0317562 -0.1341280 -0.0236518
v -0.0317562 -0.3417951 -0.0322744
v -0.0317562 -0.3154375 0.0222982
v -0.0317562 -0.3245828 -0.0358718
v -0.0317562 -0.3562469 0.0297747
v -0.0317562 -0.3325862 0.0263002
v -0.0317562 -0.3655310 -0.0292782
v -0.0317562 -0.3525402 0.0533520
v -0.0317562 -0.3289096 0.0496865
v -0.0054827 -0.1294638 0.0014973
v -0.0240609 -0.1308299 -0.0058687
v -0.0240609 -0.1883248 0.0121473
v -0.0317562 -0.1380592 -0.0448487
v -0.0240609 -0.1308299 -0.0058687
v -0.0240609 -0.2784041 0.0770598
v -0.0054827 -0.3442393 0.1061515
v -0.0240609 -0.3047149 0.0905016
v -0.0240609 -0.3218086 0.0948534
v -0.0240609 -0.3454042 0.0987417
v -0.0317562 -0.3084784 0.0198439
v -0.0317562 -0.3175487 -0.0378496
v -0.0240609 -0.3047149 0.0905016
v -0.0317562 -0.3246210 0.0769647
v -0.0240609 -0.3218086 0.0948534
v -0.0317562 -0.3482166 0.0808530
v -0.0240609 -0.3454042 0.0987417
v -0.0317562 -0.3525402 0.0533520
v -0.0317562 -0.3482166 0.0808530
v -0.0054827 -0.3442393 0.1061515
v -0.0240609 -0.3454042 0.0987417
v -0.0415497 0.1236330 -0.6314899
v -0.0486630 0.1505889 -0.7015575
v -0.0436848 0.1521245 -0.6314899
v -0.0467011 0.1244094 -0.7015575
v -0.0617894 0.1733246 -0.7015575
v -0.0579705 0.1768681 -0.6314899
v -0.0562923 0.0999712 -0.7015575
v -0.1345268 0.1842880 -0.7015575
v -0.1098296 0.1972213 -0.6314899
v -0.1094403 0.1920262 -0.7015575
v -0.1537716 0.1664315 -0.7015575
v -0.1685143 0.1427699 -0.6314899
v -0.1580760 0.1693663 -0.6314899
v -0.1371317 0.1887998 -0.6314899
v -0.1663792 0.1142783 -0.6314899
v -0.1482745 0.0930782 -0.7015575
v -0.1520935 0.0895347 -0.6314899
v -0.1614010 0.1158138 -0.7015575
v -0.1284866 0.0734398 -0.6314899
v -0.1633629 0.1419934 -0.7015575
v -0.0815773 0.1929630 -0.6314899
v -0.1265833 0.0782894 -0.7015575
v -0.1002343 0.0691815 -0.6314899
v -0.0834806 0.1881134 -0.7015575
v -0.0755371 0.0821147 -0.7015575
v -0.0729323 0.0776031 -0.6314899
v -0.1006236 0.0743766 -0.7015575
v -0.0519879 0.0970365 -0.6314899
v -0.0011838 0.0496136 -0.6314899
v -0.0209717 0.0299753 -0.7015575
v -0.0247906 0.0335188 -0.6314899
v -0.0390763 0.0087752 -0.6314899
v 0.0007195 0.0447641 -0.7015575
v 0.0270685 0.0538720 -0.6314899
v 0.0266792 0.0486769 -0.7015575
v -0.0072241 -0.0612346 -0.7015575
v -0.0098289 -0.0657463 -0.6314899
v -0.0264688 -0.0433781 -0.7015575
v 0.0178625 -0.0689728 -0.7015575
v 0.0174732 -0.0741678 -0.6314899
v 0.0693323 -0.0538146 -0.6314899
v 0.0655134 -0.0502711 -0.7015575
v 0.0836180 -0.0290710 -0.6314899
v 0.0457255 -0.0699095 -0.6314899
v 0.0438222 -0.0650600 -0.7015575
v 0.0786398 -0.0275355 -0.7015575
v 0.0857532 -0.0005795 -0.6314899
v -0.0340982 0.0072396 -0.7015575
v -0.0412115 -0.0197164 -0.6314899
v 0.0710105 0.0230823 -0.7015575
v 0.0753149 0.0260169 -0.6314899
v 0.0806017 -0.0013559 -0.7015575
v -0.0360600 -0.0189399 -0.7015575
v -0.0307732 -0.0463127 -0.6314899
v 0.0543706 0.0454504 -0.6314899
v 0.0517657 0.0409387 -0.7015574
v 0.0427359 0.1215811 -0.6314899
v 0.0459840 0.1256541 -0.7015575
v 0.0684778 0.1091844 -0.6314899
v 0.0249219 0.1439191 -0.6314899
v 0.0296156 0.1461795 -0.7015575
v 0.0696371 0.1142634 -0.7015575
v 0.0970492 0.1091844 -0.6314899
v 0.1417533 0.1717742 -0.7015575
v 0.1469630 0.1717742 -0.6314899
v 0.1359115 0.1461795 -0.7015575
v 0.1359115 0.1973689 -0.7015575
v 0.0970493 0.2343640 -0.6314899
v 0.0958900 0.2292849 -0.7015575
v 0.0684778 0.2343640 -0.6314899
v 0.1195431 0.2178942 -0.7015575
v 0.0459840 0.2178942 -0.7015575
v 0.0427359 0.2219673 -0.6314899
v 0.0696371 0.2292849 -0.7015575
v 0.1195431 0.1256541 -0.7015575
v 0.1227912 0.1215811 -0.6314899
v 0.0958900 0.1142634 -0.7015575
v 0.0249219 0.1996293 -0.6314899
v 0.1406052 0.1439191 -0.6314899
v 0.0296156 0.1973689 -0.7015575
v 0.0185641 0.1717742 -0.6314898
v 0.0237738 0.1717742 -0.7015575
v 0.1406052 0.1996293 -0.6314899
v 0.1227913 0.2219673 -0.6314899
v -0.1862172 0.1879538 -0.4058108
v -0.2066855 0.0982760 -0.2755073
v -0.1862172 0.1879537 -0.2755073
v -0.1862172 0.0085982 -0.4058108
v -0.1862171 0.0085981 -0.2755073
v -0.2066856 0.0982760 -0.4058108
v -0.0459912 -0.1032283 0.0664860
v -0.1288660 -0.0633179 -0.2755073
v -0.0459913 -0.1032283 -0.2755074
v -0.1288660 -0.0633180 0.1967895
v -0.1288660 -0.0633179 0.0664860
v -0.0459912 -0.1032284 0.1967895
v -0.1862171 0.0085981 0.0664861
v 0.0459928 -0.1032283 0.0664860
v 0.0459928 -0.1032284 0.1967895
v 0.1288676 -0.0633179 0.0664860
v 0.1288676 -0.0633180 0.1967895
v 0.1862187 0.0085981 0.1967895
v 0.1862187 0.0085981 0.0664860
v 0.2066871 0.0982758 0.1967895
v 0.1288675 -0.0633179 -0.2755074
v 0.1862187 0.0085982 -0.2755074
v 0.2066871 0.0982759 0.0664861
v 0.1862188 0.1879537 0.1967895
v 0.1862187 0.1879537 0.0664861
v 0.1288677 0.2598697 0.1967895
v 0.1288676 0.2598698 0.0664860
v 0.1862187 0.1879538 -0.2755073
v 0.1288676 0.2598698 -0.2755073
v 0.0459928 0.2997802 0.0664861
v 0.0459929 0.2997801 0.1967895
v -0.0459912 0.2997801 0.1967895
v -0.0459913 0.2997802 0.0664861
v -0.1288660 0.2598697 0.1967895
v 0.0459928 0.2997802 -0.2755073
v -0.0459913 0.2997802 -0.2755073
v -0.1288660 0.2598698 0.0664861
v -0.1862172 0.1879537 0.0664861
v -0.1862171 0.1879536 0.1967895
v -0.1288661 0.2598698 -0.2755073
v -0.2066855 0.0982759 0.0664860
v -0.2066854 0.0982758 0.1967895
v -0.1288661 -0.0633178 -0.4058108
v -0.1862171 0.0085981 0.1967895
v -0.1187430 -0.0524688 -0.4197439
v 0.1720814 0.0144138 -0.4197439
v 0.1187444 -0.0524688 -0.4197439
v 0.0422736 -0.0892952 -0.4197439
v -0.0422721 -0.0892952 -0.4197439
v -0.1720800 0.0144138 -0.4197439
v 0.1912224 0.0982760 -0.4197439
v -0.1912210 0.0982760 -0.4197438
v -0.1720800 0.1821381 -0.4197438
v 0.1720815 0.1821382 -0.4197439
v -0.1187430 0.2490208 -0.4197438
v 0.1187444 0.2490208 -0.4197439
v 0.0422736 0.2858472 -0.4197438
v -0.0422722 0.2858472 -0.4197438
v -0.1288661 0.2598699 -0.4058108
v -0.0459913 0.2997803 -0.4058108
v 0.0459928 0.2997803 -0.4058108
v 0.1288676 0.2598699 -0.4058108
v 0.1862187 0.1879538 -0.4058108
v 0.2066870 0.0982759 -0.2755074
v 0.2066870 0.0982760 -0.4058109
v 0.1862186 0.0085982 -0.4058109
v 0.1288675 -0.0633179 -0.4058109
v 0.0459928 -0.1032283 -0.2755074
v 0.0459928 -0.1032282 -0.4058109
v -0.0459913 -0.1032282 -0.4058109
v -0.1187429 0.2490206 0.2107225
v 0.1720815 0.1821381 0.2107225
v 0.1187445 0.2490207 0.2107226
v 0.0422737 0.2858471 0.2107225
v -0.0422721 0.2858471 0.2107225
v -0.1912209 0.0982758 0.2107225
v 0.1912225 0.0982758 0.2107226
v -0.1720800 0.1821380 0.2107226
v -0.1720799 0.0144136 0.2107226
v 0.1720815 0.0144136 0.2107226
v -0.1187428 -0.0524689 0.2107225
v 0.1187445 -0.0524689 0.2107225
v 0.0422737 -0.0892953 0.2107226
v -0.0422720 -0.0892953 0.2107225
v -0.1912209 0.0982758 0.2107225
v -0.1862171 0.0085981 0.1967895
v -0.1720799 0.0144136 0.2107226
v -0.1720800 0.1821380 0.2107226
v -0.1862171 0.1879536 0.1967895
v -0.2066854 0.0982758 0.1967895
v -0.1288660 -0.0633180 0.1967895
v -0.1187428 -0.0524689 0.2107225
v -0.1912210 0.0982760 -0.4197438
v -0.1862172 0.0085982 -0.4058108
v -0.2066856 0.0982760 -0.4058108
v -0.1862172 0.1879538 -0.4058108
v -0.1720800 0.1821381 -0.4197438
v -0.1720800 0.0144138 -0.4197439
v -0.0459912 -0.1032284 0.1967895
v -0.0422720 -0.0892953 0.2107225
v -0.1288661 -0.0633178 -0.4058108
v -0.1187430 -0.0524688 -0.4197439
v -0.0422721 -0.0892952 -0.4197439
v -0.0459913 -0.1032282 -0.4058109
v 0.0422737 -0.0892953 0.2107226
v 0.0459928 -0.1032284 0.1967895
v 0.0422736 -0.0892952 -0.4197439
v 0.0459928 -0.1032282 -0.4058109
v 0.1288676 -0.0633180 0.1967895
v 0.1187445 -0.0524689 0.2107225
v 0.1187444 -0.0524688 -0.4197439
v 0.1288675 -0.0633179 -0.4058109
v 0.1862187 0.0085981 0.1967895
v 0.1720815 0.0144136 0.2107226
v 0.1720814 0.0144138 -0.4197439
v 0.1862186 0.0085982 -0.4058109
v 0.1912225 0.0982758 0.2107226
v 0.1912224 0.0982760 -0.4197439
v 0.2066870 0.0982760 -0.4058109
v 0.1862188 0.1879537 0.1967895
v 0.1720815 0.1821381 0.2107225
v 0.2066871 0.0982758 0.1967895
v 0.1720815 0.1821382 -0.4197439
v 0.1862187 0.1879538 -0.4058108
v 0.1288677 0.2598697 0.1967895
v 0.1187445 0.2490207 0.2107226
v 0.1288676 0.2598699 -0.4058108
v 0.0459929 0.2997801 0.1967895
v 0.0422737 0.2858471 0.2107225
v 0.1187444 0.2490208 -0.4197439
v 0.0459928 0.2997803 -0.4058108
v -0.0422721 0.2858471 0.2107225
v 0.0422736 0.2858472 -0.4197438
v -0.0422722 0.2858472 -0.4197438
v -0.0459913 0.2997803 -0.4058108
v -0.0459912 0.2997801 0.1967895
v -0.1187429 0.2490206 0.2107225
v -0.1187430 0.2490208 -0.4197438
v -0.1288661 0.2598699 -0.4058108
v -0.1288660 0.2598697 0.1967895
g Body
usemtl Red
f 1 2 3
f 1 4 2
f 4 5 2
f 2 6 7
f 3 2 7
f 3 8 1
f 9 10 11
f 9 12 13
f 9 14 10
f 15 16 17
f 15 18 19
f 18 15 17
f 17 20 18
f 17 8 21
f 22 23 24
f 22 25 26
f 23 22 26
f 23 27 24
f 26 28 29
f 26 30 23
f 5 4 31
f 32 33 34
f 30 35 36
f 30 37 23
f 30 26 29
f 29 35 30
f 38 39 40
f 38 41 42
f 41 38 40
f 42 41 43
f 42 44 36
f 43 45 42
f 16 15 46
f 46 47 16
f 47 46 48
f 47 8 16
f 35 28 39
f 35 38 36
f 36 38 42
f 36 49 30
f 33 32 50
f 33 51 34
f 33 13 52
f 33 14 9
f 33 50 14
f 6 2 5
f 7 53 3
f 27 23 37
f 37 30 49
f 54 55 56
f 55 54 57
f 55 58 20
f 56 53 54
f 56 21 8
f 57 58 55
f 44 42 45
f 45 43 59
f 53 56 3
f 49 36 44
f 58 57 60
f 61 62 63
f 62 64 65
f 64 62 61
f 64 66 65
f 66 64 67
f 67 68 69
f 67 64 68
f 67 70 66
f 8 17 16
f 8 3 56
f 8 47 1
f 21 55 20
f 21 56 55
f 20 17 21
f 71 72 73
f 71 74 75
f 71 75 76
f 71 77 72
f 78 76 75
f 78 75 79
f 12 9 11
f 13 33 9
f 80 81 82
f 80 83 84
f 83 80 85
f 84 86 87
f 84 77 81
f 88 25 22
f 25 28 26
f 25 89 90
f 91 78 79
f 79 75 92
f 51 33 52
f 28 35 29
f 28 90 93
f 40 94 41
f 40 95 96
f 94 96 97
f 81 80 84
f 82 98 99
f 98 82 81
f 39 38 35
f 39 93 95
f 74 71 73
f 74 92 75
f 89 25 88
f 90 28 25
f 100 72 101
f 72 87 101
f 72 100 73
f 101 102 100
f 101 86 103
f 101 103 102
f 95 40 39
f 96 94 40
f 93 39 28
f 103 104 102
f 105 64 106
f 106 107 108
f 106 64 107
f 68 64 105
f 77 98 81
f 77 76 98
f 77 84 87
f 77 71 76
f 87 72 77
f 86 101 87
f 86 84 83
f 109 110 111
f 110 109 112
f 111 113 114
f 112 109 115
f 116 117 118
f 119 120 121
f 119 122 116
f 123 124 125
f 124 123 126
f 125 124 127
f 126 120 128
f 113 111 110
f 114 113 129
f 127 130 131
f 130 127 124
f 129 132 117
f 132 129 113
f 131 133 134
f 135 131 130
f 117 116 122
f 118 117 132
f 133 131 135
f 134 115 136
f 122 119 121
f 115 134 133
f 136 115 109
f 120 119 128
f 120 126 123
f 137 138 139
f 138 140 139
f 138 137 141
f 141 142 143
f 144 145 146
f 147 148 144
f 149 150 151
f 150 152 153
f 151 154 155
f 154 151 150
f 140 138 156
f 156 157 140
f 155 158 159
f 160 155 154
f 157 156 161
f 157 146 162
f 158 155 160
f 159 158 163
f 146 157 161
f 162 146 145
f 163 164 142
f 164 163 158
f 145 144 148
f 148 153 152
f 142 141 137
f 143 142 164
f 153 148 147
f 152 150 149
f 165 166 167
f 166 168 169
f 167 170 171
f 170 167 166
f 172 173 174
f 175 173 172
f 176 177 178
f 177 176 179
f 178 180 181
f 182 178 177
f 171 183 184
f 185 171 170
f 180 178 182
f 180 186 181
f 183 171 185
f 184 183 187
f 186 180 188
f 188 189 186
f 187 174 173
f 174 187 183
f 189 188 190
f 189 169 168
f 173 175 191
f 191 179 192
f 169 189 190
f 168 166 165
f 179 191 175
f 192 179 176
f 193 194 195
f 194 196 197
f 194 193 198
f 198 196 194
f 199 200 201
f 199 202 203
f 199 204 202
f 202 205 203
f 203 197 200
f 206 207 204
f 206 204 199
f 208 209 207
f 208 207 206
f 208 210 209
f 210 208 211
f 211 212 210
f 211 213 214
f 212 211 215
f 215 216 212
f 216 215 217
f 217 218 216
f 218 217 219
f 219 220 221
f 222 223 218
f 222 224 223
f 222 218 219
f 224 222 225
f 225 226 224
f 225 227 228
f 226 225 229
f 226 229 230
f 226 230 231
f 229 228 232
f 230 233 231
f 230 232 195
f 231 233 234
f 197 203 205
f 197 235 200
f 197 196 235
f 205 202 236
f 233 205 234
f 234 205 236
f 237 238 239
f 237 240 241
f 238 237 242
f 238 242 243
f 240 237 239
f 244 243 242
f 243 245 246
f 245 243 244
f 246 247 248
f 247 246 245
f 248 247 249
f 249 247 250
f 220 219 217
f 232 251 193
f 232 252 251
f 232 193 195
f 232 230 229
f 252 232 228
f 252 227 253
f 252 228 227
f 228 229 225
f 227 254 253
f 227 225 222
f 227 222 219
f 227 219 221
f 254 227 221
f 221 255 254
f 255 221 220
f 255 220 256
f 255 256 257
f 256 258 257
f 258 256 214
f 214 259 258
f 259 260 261
f 259 213 260
f 259 214 213
f 213 208 206
f 213 211 208
f 213 206 260
f 260 199 201
f 260 206 199
f 261 201 262
f 261 260 201
f 201 235 262
f 235 201 200
f 200 199 203
f 263 264 265
f 263 266 267
f 264 268 269
f 264 270 268
f 271 272 268
f 272 273 274
f 273 272 271
f 273 275 274
f 275 273 276
f 269 268 272
f 270 264 263
f 266 263 265
f 277 278 279
f 277 280 281
f 278 277 282
f 279 283 284
f 285 286 287
f 285 288 289
f 286 285 290
f 283 279 278
f 284 291 292
f 293 286 290
f 293 290 294
f 294 295 296
f 291 284 283
f 291 297 292
f 291 298 297
f 296 299 300
f 296 293 294
f 298 301 302
f 299 296 295
f 300 303 304
f 302 297 298
f 301 305 306
f 301 306 302
f 303 300 299
f 304 307 308
f 305 309 306
f 307 304 303
f 308 310 311
f 309 312 313
f 309 305 314
f 310 308 307
f 310 315 316
f 312 309 314
f 313 317 318
f 315 319 316
f 316 311 310
f 317 313 312
f 318 320 321
f 319 315 322
f 322 323 319
f 320 324 321
f 320 318 317
f 323 322 325
f 323 326 327
f 324 320 328
f 328 329 324
f 326 323 325
f 327 330 331
f 329 328 332
f 332 280 329
f 330 327 326
f 331 289 288
f 280 332 281
f 281 282 277
f 289 331 330
f 288 285 287
v 0.0317562 -0.2853099 0.0329679
v 0.0317562 -0.1965882 -0.0428935
v 0.0317562 -0.1940193 -0.0257824
v 0.0317562 -0.1380592 -0.0448487
v 0.0317562 -0.1414296 -0.0630214
v 0.0000000 -0.2030224 -0.0857508
v 0.0317562 -0.3175487 -0.0378496
v 0.0000000 -0.3175487 -0.0378496
v -0.0317562 -0.3175487 -0.0378496
v -0.0317562 -0.2030224 -0.0857508
v 0.0317562 -0.2030224 -0.0857508
v 0.0000000 -0.1498712 -0.1085376
v 0.0317562 -0.1498712 -0.1085376
v 0.0317562 -0.3175487 -0.0378496
v 0.0317562 -0.3084784 0.0198439
v -0.0317562 -0.1498712 -0.1085376
v 0.0317562 -0.2030224 -0.0857508
v 0.0317562 -0.1498712 -0.1085376
v -0.0317562 -0.2853099 0.0329679
v -0.0317562 -0.1965882 -0.0428935
v -0.0317562 -0.3084784 0.0198439
v -0.0317562 -0.1940193 -0.0257824
v -0.0317562 -0.1380592 -0.0448487
v -0.0317562 -0.3175487 -0.0378496
v -0.0317562 -0.1414296 -0.0630214
v -0.0317562 -0.2030224 -0.0857508
v -0.0317562 -0.1498712 -0.1085376
v -0.0623242 0.0592294 -0.6042219
v -0.1362378 0.0536903 -0.6042218
v -0.0986488 0.0480247 -0.6042218
v -0.1676460 0.0751041 -0.6042219
v -0.0424180 0.1912987 -0.6042219
v -0.1866527 0.1080247 -0.6042219
v -0.0205705 0.1204709 -0.6042219
v -0.0234112 0.1583781 -0.6042219
v -0.0344584 0.0850851 -0.6042219
v -0.1477397 0.2071734 -0.6042219
v -0.1894935 0.1459319 -0.6042219
v -0.0738262 0.2127125 -0.6042219
v -0.1114151 0.2183781 -0.6042219
v -0.1756056 0.1813177 -0.6042219
v -0.1750019 0.1437477 -0.6467962
v -0.1866527 0.1080247 -0.6467962
v -0.1894935 0.1459320 -0.6467962
v -0.1726486 0.1123444 -0.6467962
v -0.1634969 0.1730621 -0.6467962
v -0.1362378 0.0536902 -0.6467962
v -0.1676460 0.0751041 -0.6042219
v -0.1676460 0.0751041 -0.6467962
v -0.1362378 0.0536903 -0.6042218
v -0.1866527 0.1080247 -0.6042219
v -0.1866527 0.1080247 -0.6467962
v -0.0986488 0.0480247 -0.6467962
v -0.0986488 0.0480247 -0.6042218
v -0.0623242 0.0592293 -0.6467962
v -0.0623242 0.0592294 -0.6042219
v -0.0344584 0.0850851 -0.6467962
v -0.0344584 0.0850851 -0.6042219
v -0.0205705 0.1204709 -0.6467962
v -0.0205705 0.1204709 -0.6042219
v -0.0234112 0.1583780 -0.6467962
v -0.0234112 0.1583781 -0.6042219
v -0.0424180 0.1912987 -0.6467962
v -0.0424180 0.1912987 -0.6042219
v -0.0738262 0.2127125 -0.6467962
v -0.0738262 0.2127125 -0.6042219
v -0.1114151 0.2183781 -0.6467962
v -0.1114151 0.2183781 -0.6042219
v -0.1477397 0.2071734 -0.6467962
v -0.1477397 0.2071734 -0.6042219
v -0.1756056 0.1813177 -0.6467962
v -0.1756056 0.1813177 -0.6042219
v -0.1894935 0.1459320 -0.6467962
v -0.1894935 0.1459319 -0.6042219
v -0.0815773 0.1929630 -0.6314899
v -0.1103199 0.2037638 -0.6467962
v -0.0791804 0.1990703 -0.6467962
v -0.1098296 0.1972213 -0.6314899
v -0.1371317 0.1887998 -0.6314899
v -0.1404121 0.1944816 -0.6467962
v -0.0579705 0.1768681 -0.6314899
v -0.1676460 0.0751041 -0.6467962
v -0.1308836 0.0673325 -0.6467962
v -0.1362378 0.0536902 -0.6467962
v -0.1569029 0.0850722 -0.6467962
v -0.0997440 0.0626390 -0.6467962
v -0.0986488 0.0480247 -0.6467962
v -0.0623242 0.0592293 -0.6467962
v -0.0465671 0.0933407 -0.6467962
v -0.0344584 0.0850851 -0.6467962
v -0.0696519 0.0719212 -0.6467962
v -0.0350621 0.1226551 -0.6467962
v -0.0205705 0.1204709 -0.6467962
v -0.0374154 0.1540584 -0.6467962
v -0.0234112 0.1583780 -0.6467962
v -0.0424180 0.1912987 -0.6467962
v -0.0531610 0.1813306 -0.6467962
v -0.0738262 0.2127125 -0.6467962
v -0.0791804 0.1990703 -0.6467962
v -0.1114151 0.2183781 -0.6467962
v -0.1103199 0.2037638 -0.6467962
v -0.1404121 0.1944816 -0.6467962
v -0.1477397 0.2071734 -0.6467962
v -0.1756056 0.1813177 -0.6467962
v -0.1580760 0.1693663 -0.6314899
v -0.1634969 0.1730621 -0.6467962
v -0.1750019 0.1437477 -0.6467962
v -0.1685143 0.1427699 -0.6314899
v -0.1663792 0.1142783 -0.6314899
v -0.1726486 0.1123444 -0.6467962
v -0.1520935 0.0895347 -0.6314899
v -0.1569029 0.0850722 -0.6467962
v -0.1308836 0.0673325 -0.6467962
v -0.1284866 0.0734398 -0.6314899
v -0.0997440 0.0626390 -0.6467962
v -0.1002343 0.0691815 -0.6314899
v -0.0729323 0.0776031 -0.6314899
v -0.0696519 0.0719212 -0.6467962
v -0.0519879 0.0970365 -0.6314899
v -0.0465671 0.0933407 -0.6467962
v -0.0415497 0.1236330 -0.6314899
v -0.0350621 0.1226551 -0.6467962
v -0.0436848 0.1521245 -0.6314899
v -0.0374154 0.1540584 -0.6467962
v -0.0531610 0.1813306 -0.6467962
v 0.1038916 -0.0353246 -0.6042219
v 0.0649786 0.0638241 -0.6042218
v -0.0089349 0.0693631 -0.6042219
v 0.1067324 0.0025826 -0.6042219
v 0.0928445 0.0379684 -0.6042218
v 0.0286540 0.0750288 -0.6042219
v 0.0848848 -0.0682452 -0.6042219
v -0.0403431 0.0479494 -0.6042219
v -0.0593499 0.0150287 -0.6042219
v -0.0483028 -0.0582642 -0.6042219
v -0.0204369 -0.0841200 -0.6042219
v 0.0158877 -0.0953247 -0.6042219
v 0.0534766 -0.0896591 -0.6042219
v -0.0621906 -0.0228785 -0.6042219
v 0.0481225 -0.0760168 -0.6467962
v 0.0848849 -0.0682452 -0.6467962
v 0.0534766 -0.0896590 -0.6467962
v 0.0741418 -0.0582771 -0.6467963
v 0.0898874 -0.0310049 -0.6467962
v 0.1038916 -0.0353246 -0.6467962
v 0.0169829 -0.0807104 -0.6467962
v 0.1067324 0.0025827 -0.6467962
v 0.1067324 0.0025826 -0.6042219
v 0.1038916 -0.0353246 -0.6467962
v 0.1038916 -0.0353246 -0.6042219
v 0.0928445 0.0379684 -0.6467962
v 0.0928445 0.0379684 -0.6042218
v 0.0848848 -0.0682452 -0.6042219
v 0.0848849 -0.0682452 -0.6467962
v 0.0649786 0.0638241 -0.6467962
v 0.0649786 0.0638241 -0.6042218
v 0.0286540 0.0750288 -0.6467962
v 0.0286540 0.0750288 -0.6042219
v -0.0089349 0.0693631 -0.6467962
v -0.0089349 0.0693631 -0.6042219
v -0.0403432 0.0479494 -0.6467962
v -0.0403431 0.0479494 -0.6042219
v -0.0593499 0.0150287 -0.6467962
v -0.0593499 0.0150287 -0.6042219
v -0.0621906 -0.0228785 -0.6042219
v -0.0621906 -0.0228785 -0.6467962
v -0.0483027 -0.0582642 -0.6467962
v -0.0483028 -0.0582642 -0.6042219
v -0.0204369 -0.0841200 -0.6467962
v -0.0204369 -0.0841200 -0.6042219
v 0.0158877 -0.0953247 -0.6467962
v 0.0158877 -0.0953247 -0.6042219
v 0.0534766 -0.0896590 -0.6467962
v 0.0534766 -0.0896591 -0.6042219
v -0.0476991 -0.0206942 -0.6467962
v -0.0307732 -0.0463127 -0.6314899
v -0.0361940 -0.0500086 -0.6467962
v -0.0390763 0.0087752 -0.6314899
v -0.0412115 -0.0197164 -0.6314899
v -0.0131093 -0.0714282 -0.6467962
v 0.0922408 0.0003984 -0.6467962
v 0.1067324 0.0025827 -0.6467962
v 0.0807357 0.0297128 -0.6467962
v 0.0928445 0.0379684 -0.6467962
v 0.0649786 0.0638241 -0.6467962
v 0.0576510 0.0511322 -0.6467962
v 0.0275588 0.0604145 -0.6467962
v 0.0286540 0.0750288 -0.6467962
v -0.0089349 0.0693631 -0.6467962
v -0.0035808 0.0557210 -0.6467962
v -0.0296001 0.0379813 -0.6467963
v -0.0403432 0.0479494 -0.6467962
v -0.0453457 0.0107090 -0.6467962
v -0.0593499 0.0150287 -0.6467962
v -0.0476991 -0.0206942 -0.6467962
v -0.0621906 -0.0228785 -0.6467962
v -0.0361940 -0.0500086 -0.6467962
v -0.0483027 -0.0582642 -0.6467962
v -0.0131093 -0.0714282 -0.6467962
v -0.0204369 -0.0841200 -0.6467962
v 0.0158877 -0.0953247 -0.6467962
v -0.0098289 -0.0657463 -0.6314899
v 0.0169829 -0.0807104 -0.6467962
v 0.0174732 -0.0741678 -0.6314899
v 0.0457255 -0.0699095 -0.6314899
v 0.0481225 -0.0760168 -0.6467962
v 0.0693323 -0.0538146 -0.6314899
v 0.0741418 -0.0582771 -0.6467963
v 0.0836180 -0.0290710 -0.6314899
v 0.0857532 -0.0005795 -0.6314899
v 0.0922408 0.0003984 -0.6467962
v 0.0898874 -0.0310049 -0.6467962
v 0.0753149 0.0260169 -0.6314899
v 0.0807357 0.0297128 -0.6467962
v 0.0576510 0.0511322 -0.6467962
v 0.0543706 0.0454504 -0.6314899
v 0.0275588 0.0604145 -0.6467962
v 0.0270685 0.0538720 -0.6314899
v -0.0011838 0.0496136 -0.6314899
v -0.0035808 0.0557210 -0.6467962
v -0.0247906 0.0335188 -0.6314899
v -0.0296001 0.0379813 -0.6467963
v -0.0453457 0.0107090 -0.6467962
v 0.0295078 0.2385547 -0.6042219
v -0.0026520 0.1717742 -0.6042218
v 0.1017703 0.2550481 -0.6042219
v 0.0637568 0.2550482 -0.6042219
v 0.1597203 0.1347138 -0.6042219
v 0.1681791 0.1717742 -0.6042219
v 0.1597203 0.2088346 -0.6042219
v 0.1360193 0.2385547 -0.6042219
v 0.1360193 0.1049937 -0.6042219
v 0.0637568 0.0885002 -0.6042219
v 0.1017703 0.0885002 -0.6042219
v 0.0058068 0.1347138 -0.6042219
v 0.0295078 0.1049936 -0.6042219
v 0.0058068 0.2088346 -0.6042219
v 0.1268819 0.2270967 -0.6467962
v 0.1017703 0.2550481 -0.6467962
v 0.1360193 0.2385547 -0.6467962
v 0.0985092 0.2407603 -0.6467962
v 0.1465164 0.2024759 -0.6467962
v 0.0637568 0.2550481 -0.6467962
v 0.0295078 0.2385547 -0.6467962
v 0.0058068 0.2088346 -0.6042219
v 0.0295078 0.2385547 -0.6042219
v 0.0637568 0.2550482 -0.6042219
v 0.0637568 0.2550481 -0.6467962
v 0.1017703 0.2550481 -0.6042219
v 0.1017703 0.2550481 -0.6467962
v 0.0058068 0.2088346 -0.6467962
v -0.0026520 0.1717743 -0.6467962
v -0.0026520 0.1717742 -0.6042218
v 0.0058068 0.1347138 -0.6042219
v 0.0295078 0.1049937 -0.6467962
v 0.0295078 0.1049936 -0.6042219
v 0.0058068 0.1347138 -0.6467962
v 0.0637568 0.0885002 -0.6467962
v 0.0637568 0.0885002 -0.6042219
v 0.1017703 0.0885002 -0.6467962
v 0.1017703 0.0885002 -0.6042219
v 0.1360193 0.1049937 -0.6467962
v 0.1360193 0.1049937 -0.6042219
v 0.1597203 0.1347137 -0.6467962
v 0.1597203 0.1347138 -0.6042219
v 0.1681791 0.1717742 -0.6467962
v 0.1681791 0.1717742 -0.6042219
v 0.1597203 0.2088346 -0.6467962
v 0.1597203 0.2088346 -0.6042219
v 0.1360193 0.2385547 -0.6467962
v 0.1360193 0.2385547 -0.6042219
v 0.1406052 0.1439191 -0.6314899
v 0.1469630 0.1717742 -0.6314899
v 0.1535238 0.1717742 -0.6467962
v 0.1465163 0.1410724 -0.6467962
v 0.1227912 0.1215811 -0.6314899
v 0.1268819 0.1164516 -0.6467962
v 0.0985092 0.1027880 -0.6467962
v 0.0970492 0.1091844 -0.6314899
v 0.0670179 0.2407603 -0.6467962
v 0.0386452 0.2270967 -0.6467962
v 0.0295078 0.2385547 -0.6467962
v 0.0190107 0.2024759 -0.6467962
v 0.0058068 0.2088346 -0.6467962
v -0.0026520 0.1717743 -0.6467962
v 0.0120033 0.1717742 -0.6467962
v 0.0058068 0.1347138 -0.6467962
v 0.0190107 0.1410725 -0.6467962
v 0.0295078 0.1049937 -0.6467962
v 0.0386452 0.1164516 -0.6467962
v 0.0670179 0.1027880 -0.6467962
v 0.0637568 0.0885002 -0.6467962
v 0.0985092 0.1027880 -0.6467962
v 0.1017703 0.0885002 -0.6467962
v 0.1268819 0.1164516 -0.6467962
v 0.1360193 0.1049937 -0.6467962
v 0.1465163 0.1410724 -0.6467962
v 0.1597203 0.1347137 -0.6467962
v 0.1535238 0.1717742 -0.6467962
v 0.1681791 0.1717742 -0.6467962
v 0.1597203 0.2088346 -0.6467962
v 0.1406052 0.1996293 -0.6314899
v 0.1465164 0.2024759 -0.6467962
v 0.1227913 0.2219673 -0.6314899
v 0.1268819 0.2270967 -0.6467962
v 0.0985092 0.2407603 -0.6467962
v 0.0684778 0.2343640 -0.6314899
v 0.0670179 0.2407603 -0.6467962
v 0.0970493 0.2343640 -0.6314899
v 0.0427359 0.2219673 -0.6314899
v 0.0386452 0.2270967 -0.6467962
v 0.0190107 0.2024759 -0.6467962
v 0.0249219 0.1996293 -0.6314899
v 0.0120033 0.1717742 -0.6467962
v 0.0249219 0.1439191 -0.6314899
v 0.0190107 0.1410725 -0.6467962
v 0.0185641 0.1717742 -0.6314898
v 0.0427359 0.1215811 -0.6314899
v 0.0386452 0.1164516 -0.6467962
v 0.0670179 0.1027880 -0.6467962
v 0.0684778 0.1091844 -0.6314899
v 0.0058451 -0.1601295 -0.1542409
v 0.0058451 -0.1793074 -0.1478420
v -0.0038103 -0.1601295 -0.1542409
v -0.0038103 -0.1793074 -0.1478420
v 0.0058451 -0.1947831 -0.1459179
v -0.0038103 -0.1947831 -0.1459179
v -0.0038103 -0.2049341 -0.1351184
v -0.0038103 -0.1934252 -0.1328221
v -0.0038103 -0.1947831 -0.1459179
v -0.0038103 -0.2127677 -0.1476135
v -0.0038103 -0.2220552 -0.1418195
v 0.0058451 -0.1934252 -0.1328221
v 0.0058451 -0.1593126 -0.1332064
v -0.0038103 -0.1593126 -0.1332064
v -0.0038103 -0.1934252 -0.1328221
v 0.0058451 -0.2049341 -0.1351184
v 0.0058451 -0.2220552 -0.1418195
v -0.0038103 -0.2049341 -0.1351184
v -0.0038103 -0.2220552 -0.1418195
v -0.0038103 -0.1593126 -0.1332064
v -0.0038103 -0.1793074 -0.1478420
v -0.0038103 -0.1601295 -0.1542409
v 0.0058451 -0.1601295 -0.1542409
v 0.0058451 -0.1593126 -0.1332064
v 0.0058451 -0.1793074 -0.1478420
v 0.0058451 -0.1934252 -0.1328221
v 0.0058451 -0.1947831 -0.1459179
v 0.0058451 -0.2049341 -0.1351184
v 0.0058451 -0.2127677 -0.1476135
v 0.0058451 -0.2220552 -0.1418195
v 0.0058451 -0.2127677 -0.1476135
v -0.0038103 -0.2220552 -0.1418195
v -0.0038103 -0.2127677 -0.1476135
v 0.0058451 -0.2220552 -0.1418195
v -0.0038103 -0.2127677 -0.1476135
v 0.0058451 -0.2127677 -0.1476135
v 0.1744445 0.0236277 0.1624979
v 0.1720472 0.0982758 0.1624979
v 0.1936187 0.0982758 0.1624979
v 0.1550092 0.0236277 0.1624979
v 0.1207196 -0.0362354 0.1624979
v 0.1072700 -0.0362354 0.1624979
v 0.1550093 0.1729239 0.4709100
v 0.1720472 0.0982758 0.1624979
v 0.1550093 0.1729240 0.1624979
v 0.1720472 0.0982758 0.4709100
v 0.1072701 0.2327871 0.4709098
v 0.1072700 0.2327871 0.1624979
v 0.0382848 0.2660087 0.1624979
v 0.0382848 0.2660087 0.4709100
v 0.1744445 0.0236277 0.4709100
v 0.1936187 0.0982758 0.4709100
v 0.1720472 0.0982758 0.4709100
v 0.1550093 0.0236277 0.4709100
v 0.1072700 -0.0362355 0.4709100
v 0.1207196 -0.0362355 0.4709100
v -0.0382831 0.2660087 0.1624979
v -0.0382831 0.2660087 0.4709101
v 0.0430848 -0.0694570 0.1624979
v 0.0382847 -0.0694570 0.1624979
v -0.1072684 0.2327871 0.4709100
v 0.0382848 -0.0694570 0.4709100
v 0.0430849 -0.0694570 0.4709100
v -0.1072684 0.2327871 0.1624979
v -0.1550076 0.1729239 0.1624979
v -0.1550076 0.1729239 0.4709100
v -0.0430832 -0.0694570 0.1624979
v -0.0382831 -0.0694570 0.1624979
v -0.1720455 0.0982758 0.4709099
v -0.0382831 -0.0694570 0.4709100
v -0.0430832 -0.0694570 0.4709100
v -0.1720456 0.0982758 0.1624979
v -0.1744428 0.0236277 0.4709101
v -0.1720455 0.0982758 0.4709099
v -0.1936170 0.0982758 0.4709099
v -0.1550076 0.0236277 0.4709101
v -0.1207179 -0.0362355 0.4709100
v -0.1072683 -0.0362355 0.4709100
v -0.1744428 0.0236277 0.1624979
v -0.1936170 0.0982758 0.1624979
v -0.1720456 0.0982758 0.1624979
v -0.1550076 0.0236277 0.1624979
v -0.1072683 -0.0362354 0.1624979
v -0.1207179 -0.0362354 0.1624979
g Body
usemtl Black
f 333 334 335
f 336 334 337
f 338 339 340
f 338 341 342
f 339 338 343
f 343 344 345
f 346 334 347
f 344 342 348
f 344 343 338
f 334 346 349
f 334 336 335
f 334 333 347
f 337 349 350
f 349 337 334
f 351 352 353
f 354 355 352
f 341 338 340
f 342 344 338
f 353 352 356
f 352 351 354
f 357 352 355
f 358 356 352
f 358 352 357
f 359 358 357
f 360 361 362
f 360 363 361
f 360 364 363
f 364 365 363
f 364 360 366
f 364 366 367
f 366 360 368
f 365 369 370
f 369 365 364
f 369 371 372
f 371 369 364
f 370 369 373
f 374 375 376
f 375 374 377
f 376 378 374
f 379 380 381
f 380 379 382
f 381 383 384
f 385 386 379
f 386 382 379
f 387 388 385
f 388 386 385
f 389 390 387
f 390 388 387
f 391 392 389
f 392 390 389
f 392 393 394
f 393 392 391
f 395 396 393
f 396 394 393
f 396 397 398
f 397 396 395
f 398 399 400
f 399 398 397
f 400 401 402
f 401 400 399
f 403 404 401
f 404 402 401
f 404 405 406
f 405 404 403
f 406 384 383
f 384 406 405
f 383 381 380
f 407 408 409
f 408 407 410
f 408 411 412
f 409 413 407
f 414 415 416
f 414 375 377
f 414 377 417
f 415 414 417
f 415 418 419
f 418 420 419
f 419 416 415
f 420 421 422
f 420 418 423
f 421 420 423
f 422 424 425
f 424 422 421
f 425 426 427
f 426 425 424
f 428 426 429
f 428 427 426
f 429 430 428
f 430 429 431
f 431 432 430
f 432 431 433
f 432 434 435
f 434 432 433
f 435 378 436
f 378 435 434
f 378 376 436
f 411 408 410
f 412 437 438
f 437 412 411
f 437 439 438
f 439 437 440
f 439 441 442
f 441 439 440
f 442 443 444
f 443 442 441
f 443 445 444
f 445 443 446
f 446 447 445
f 447 446 448
f 447 449 450
f 449 447 448
f 450 451 452
f 451 450 449
f 453 454 451
f 454 455 456
f 454 452 451
f 455 454 453
f 456 413 457
f 413 409 457
f 413 456 455
f 458 459 460
f 459 458 461
f 459 461 462
f 460 459 463
f 460 464 458
f 464 460 465
f 464 465 466
f 464 467 468
f 464 469 470
f 467 464 471
f 471 464 466
f 469 464 468
f 472 473 474
f 473 472 475
f 473 476 477
f 474 478 472
f 479 480 481
f 480 482 481
f 480 483 484
f 481 485 486
f 483 480 479
f 484 487 488
f 487 484 483
f 489 490 487
f 490 488 487
f 490 491 492
f 491 490 489
f 493 494 491
f 494 495 496
f 494 492 491
f 495 494 493
f 495 497 496
f 497 495 498
f 497 499 500
f 499 497 498
f 501 502 499
f 502 500 499
f 503 504 501
f 504 502 501
f 505 506 503
f 506 504 503
f 486 485 505
f 485 506 505
f 485 481 482
f 507 508 509
f 507 510 511
f 508 507 511
f 508 512 509
f 476 473 475
f 477 513 514
f 513 477 476
f 514 515 516
f 515 514 513
f 515 517 516
f 517 515 518
f 517 519 520
f 519 517 518
f 521 519 522
f 521 520 519
f 522 523 524
f 524 521 522
f 524 525 526
f 525 524 523
f 526 527 528
f 527 526 525
f 528 529 530
f 529 528 527
f 530 531 532
f 531 530 529
f 531 478 533
f 478 474 533
f 533 532 531
f 512 508 534
f 534 535 512
f 535 534 536
f 535 537 538
f 537 535 536
f 538 539 540
f 539 538 537
f 541 542 543
f 541 544 539
f 544 540 539
f 543 544 541
f 543 545 546
f 545 543 542
f 545 547 546
f 547 545 548
f 548 549 547
f 549 548 550
f 549 551 552
f 551 549 550
f 552 553 554
f 553 552 551
f 553 555 554
f 555 553 510
f 510 507 555
f 556 557 558
f 556 558 559
f 558 560 561
f 558 562 563
f 558 561 562
f 558 564 560
f 558 565 566
f 565 557 567
f 565 567 568
f 557 556 569
f 557 565 558
f 564 558 566
f 570 571 572
f 571 570 573
f 572 574 570
f 573 575 571
f 576 577 578
f 576 579 580
f 579 576 578
f 579 581 582
f 580 579 582
f 577 576 583
f 577 584 585
f 584 586 585
f 584 577 583
f 586 587 588
f 586 584 589
f 587 586 589
f 588 590 591
f 590 588 587
f 591 592 593
f 592 591 590
f 593 594 595
f 594 593 592
f 595 596 597
f 596 595 594
f 597 598 599
f 598 597 596
f 600 601 598
f 601 602 603
f 601 599 598
f 602 601 600
f 582 581 602
f 581 603 602
f 604 605 606
f 604 607 608
f 607 609 608
f 608 610 611
f 575 573 612
f 612 613 614
f 613 615 616
f 614 575 612
f 615 617 616
f 616 614 613
f 617 615 618
f 618 619 617
f 619 618 620
f 621 619 620
f 621 620 622
f 621 623 624
f 623 621 622
f 624 625 626
f 625 624 623
f 626 627 628
f 627 626 625
f 628 629 630
f 629 628 627
f 630 631 632
f 631 630 629
f 632 574 633
f 574 632 631
f 574 572 633
f 606 607 604
f 606 634 635
f 634 606 605
f 635 636 637
f 636 638 637
f 636 635 634
f 638 639 640
f 638 636 641
f 639 638 641
f 640 642 643
f 642 640 639
f 642 644 643
f 644 642 645
f 645 646 644
f 646 647 648
f 646 645 649
f 647 646 649
f 648 650 651
f 650 648 647
f 650 652 651
f 652 650 653
f 653 610 652
f 610 653 611
f 610 608 609
f 654 655 656
f 656 655 657
f 657 658 659
f 657 655 658
f 660 661 662
f 660 663 664
f 663 660 662
f 665 666 667
f 667 668 665
f 668 669 665
f 670 669 671
f 669 668 671
f 671 672 670
f 673 674 661
f 674 673 675
f 661 674 662
f 676 677 678
f 677 679 678
f 679 680 678
f 680 681 682
f 680 679 681
f 681 683 682
f 684 685 686
f 685 684 687
f 658 688 659
f 688 658 689
f 690 691 692
f 691 690 693
f 693 694 695
f 696 697 698
f 697 696 699
f 698 700 696
f 700 698 701
f 700 702 703
f 704 705 706
f 706 707 704
f 707 708 709
f 702 700 701
f 703 710 711
f 694 693 690
f 695 712 713
f 710 703 702
f 710 714 711
f 709 704 707
f 708 715 716
f 714 710 717
f 714 718 719
f 712 695 694
f 712 720 721
f 718 714 717
f 719 718 722
f 716 709 708
f 715 723 724
f 725 722 718
f 726 727 728
f 727 726 729
f 729 730 731
f 732 733 734
f 734 735 732
f 735 736 737
f 730 729 726
f 731 724 723
f 737 732 735
f 736 721 720
f 724 716 715
f 724 731 730
f 720 737 736
f 721 713 712
v -0.0108187 -0.3370154 0.1130496
v 0.0108202 -0.3566058 0.1129983
v 0.0108202 -0.3370154 0.1130496
v -0.0108187 -0.3566058 0.1129983
v 0.0292641 -0.3381217 0.1060133
v -0.0292626 -0.3381217 0.1060133
v -0.0292626 -0.3577121 0.1059620
v -0.0369023 -0.3603827 0.0889747
v 0.0369039 -0.3796402 -0.0335163
v 0.0369039 -0.3603827 0.0889746
v -0.0108187 -0.3566058 0.1129983
v -0.0292626 -0.3577121 0.1059620
v -0.0369023 -0.3796402 -0.0335163
v 0.0108202 -0.3566058 0.1129983
v 0.0292641 -0.3577120 0.1059619
v -0.0369023 -0.3608783 -0.0387344
v -0.0369023 -0.3603827 0.0889747
v -0.0369023 -0.3407924 0.0890260
v -0.0369023 -0.3796402 -0.0335163
v -0.0292626 -0.3577121 0.1059620
v -0.0292626 -0.3381217 0.1060133
v -0.0369023 -0.3608783 -0.0387344
v 0.0369039 -0.3608783 -0.0387344
v 0.0369039 -0.3796402 -0.0335163
v -0.0369023 -0.3796402 -0.0335163
v 0.0369039 -0.3603827 0.0889746
v 0.0369039 -0.3796402 -0.0335163
v 0.0369039 -0.3608783 -0.0387344
v 0.0369039 -0.3407924 0.0890260
v 0.0292641 -0.3577120 0.1059619
v 0.0292641 -0.3577120 0.1059619
v 0.0292641 -0.3381217 0.1060133
v -0.0369023 -0.3407924 0.0890260
v -0.0108187 -0.3370154 0.1130496
v 0.0108202 -0.3370154 0.1130496
v -0.0292626 -0.3381217 0.1060133
v 0.0369039 -0.3407924 0.0890260
v 0.0292641 -0.3381217 0.1060133
v 0.0369039 -0.3608783 -0.0387344
v -0.0369023 -0.3608783 -0.0387344
v 0.1862187 0.1879537 0.0664861
v 0.2120152 0.1755937 -0.2664604
v 0.1862187 0.1879538 -0.2755073
v -0.1862172 0.1879537 0.0664861
v -0.2116035 0.1789811 -0.2645472
v -0.2116035 0.1789811 0.0555261
v -0.1862172 0.1879537 -0.2755073
v -0.1862171 0.0085981 -0.2755073
v -0.1862171 0.0085981 0.0664861
v -0.2116035 0.0175707 0.0555260
v -0.2116035 0.0175707 -0.2645473
v -0.2128018 0.0982760 -0.5123899
v -0.0473523 0.3057431 -0.5123898
v -0.1326795 0.2646517 -0.5123898
v 0.0473538 0.3057431 -0.5123899
v 0.1326809 -0.0680997 -0.5123899
v 0.1326810 0.2646516 -0.5123899
v -0.1917278 0.1906075 -0.5123899
v 0.0473537 -0.1091912 -0.5123899
v -0.1326795 -0.0680997 -0.5123899
v -0.0473523 -0.1091912 -0.5123899
v -0.1917278 0.0059445 -0.5123899
v 0.1917292 0.0059445 -0.5123899
v 0.1917292 0.1906075 -0.5123899
v 0.2128033 0.0982760 -0.5123899
v 0.1917292 0.0059445 -0.6233860
v 0.1763833 0.0982760 -0.6233859
v 0.2128033 0.0982760 -0.6233859
v 0.1589159 0.0217465 -0.6233860
v 0.1589159 0.1748055 -0.6233859
v 0.1917292 0.1906075 -0.6233860
v 0.1099735 0.2361774 -0.6233859
v 0.1326809 -0.0680997 -0.6233860
v 0.1099734 -0.0396255 -0.6233860
v 0.1917292 0.0059445 -0.6233860
v 0.1917292 0.0059445 -0.5123899
v 0.1326809 -0.0680997 -0.6233860
v 0.2128033 0.0982760 -0.6233859
v 0.2128033 0.0982760 -0.5123899
v 0.1326809 -0.0680997 -0.5123899
v 0.0473537 -0.1091912 -0.5123899
v 0.0473537 -0.1091912 -0.6233860
v -0.1917278 0.1906075 -0.6233859
v -0.2128018 0.0982760 -0.5123899
v -0.1917278 0.1906075 -0.5123899
v -0.2128018 0.0982760 -0.6233859
v -0.1917278 0.0059445 -0.6233859
v -0.1917278 0.0059445 -0.5123899
v -0.1326795 0.2646517 -0.6233859
v 0.1917292 0.1906075 -0.6233860
v 0.1917292 0.1906075 -0.5123899
v 0.1326810 0.2646517 -0.6233859
v 0.1326810 0.2646516 -0.5123899
v -0.1326795 -0.0680997 -0.5123899
v -0.1326794 -0.0680997 -0.6233860
v 0.0473538 0.3057431 -0.6233859
v 0.0473538 0.3057431 -0.5123899
v -0.0473523 0.3057431 -0.6233859
v -0.0473523 0.3057431 -0.5123898
v -0.0473523 -0.1091911 -0.6233860
v -0.0473523 -0.1091912 -0.5123899
v -0.1326795 0.2646517 -0.5123898
v 0.0392495 -0.0736843 -0.6233860
v -0.0473523 -0.1091911 -0.6233860
v -0.0392481 -0.0736843 -0.6233859
v 0.0473537 -0.1091912 -0.6233860
v -0.1326794 -0.0680997 -0.6233860
v -0.1099720 -0.0396254 -0.6233859
v -0.1099720 0.2361774 -0.6233859
v -0.1589144 0.0217465 -0.6233859
v -0.1763818 0.0982760 -0.6233859
v -0.1589145 0.1748055 -0.6233859
v -0.1917278 0.0059445 -0.6233859
v -0.2128018 0.0982760 -0.6233859
v 0.0392495 0.2702363 -0.6233859
v -0.1917278 0.1906075 -0.6233859
v -0.1326795 0.2646517 -0.6233859
v 0.1326810 0.2646517 -0.6233859
v -0.0392481 0.2702363 -0.6233859
v 0.0473538 0.3057431 -0.6233859
v -0.0473523 0.3057431 -0.6233859
v -0.1744428 0.0236277 0.1624979
v -0.1936170 0.0982758 0.4709099
v -0.1936170 0.0982758 0.1624979
v -0.1744428 0.0236277 0.4709101
v -0.1207179 -0.0362355 0.4709100
v 0.1936187 0.0982758 0.4709100
v 0.1744445 0.0236277 0.1624979
v 0.1936187 0.0982758 0.1624979
v 0.1744445 0.0236277 0.4709100
v 0.1207196 -0.0362355 0.4709100
v 0.1207196 -0.0362354 0.1624979
v 0.1720472 0.0982758 0.4709100
v 0.1936187 0.0982758 0.1624979
v 0.1720472 0.0982758 0.1624979
v 0.1936187 0.0982758 0.4709100
v 0.0699241 -0.0228311 0.2121931
v -0.0699224 -0.1088707 0.2121932
v 0.0699241 -0.1088707 0.2121932
v -0.0699224 -0.0228310 0.2121931
v 0.0413744 -0.1600512 0.2121931
v -0.0413727 -0.1600512 0.2121931
v 0.0413743 -0.1600512 -0.6190385
v 0.0413744 -0.1600512 0.2121931
v -0.0413728 -0.1600512 -0.6190385
v -0.0413727 -0.1600512 0.2121931
v -0.0413728 -0.1600512 -0.6190385
v 0.0699239 -0.1088707 -0.6190385
v 0.0413743 -0.1600512 -0.6190385
v -0.0699225 -0.1088707 -0.6190385
v 0.0699239 -0.0228312 -0.6190385
v 0.0413744 -0.1600512 0.2121931
v 0.0699239 -0.1088707 -0.6190385
v 0.0699241 -0.1088707 0.2121932
v 0.0413743 -0.1600512 -0.6190385
v 0.0699241 -0.0228311 0.2121931
v -0.0413728 -0.1600512 -0.6190385
v -0.0413727 -0.1600512 0.2121931
v -0.0699225 -0.1088707 -0.6190385
v -0.0699224 -0.0228310 0.2121931
v -0.0699225 -0.0228311 -0.6190385
v -0.0699224 -0.1088707 0.2121932
v -0.0699225 -0.0228311 -0.6190385
v 0.0699241 -0.0228311 0.2121931
v 0.0699239 -0.0228312 -0.6190385
v -0.0699224 -0.0228310 0.2121931
v -0.0699225 -0.0228311 -0.6190385
v 0.0699239 -0.0228312 -0.6190385
v 0.2120152 0.1755936 0.0574392
v 0.1862187 0.0085982 -0.2755074
v 0.2120152 0.0209582 0.0574391
v 0.1862187 0.0085981 0.0664860
v -0.2116035 0.0175707 0.0555260
v -0.2066855 0.0982759 0.0664860
v -0.2348622 0.0982759 0.0555260
v -0.2116035 0.1789811 0.0555261
v -0.1862171 0.0085981 0.0664861
v -0.2116035 0.1789811 -0.2645472
v -0.2348622 0.0982759 0.0555260
v -0.2116035 0.1789811 0.0555261
v -0.2348623 0.0982759 -0.2645473
v -0.2116035 0.0175707 -0.2645473
v -0.2116035 0.0175707 0.0555260
v 0.2120152 0.1755937 -0.2664604
v 0.2120152 0.1755936 0.0574392
v 0.2340434 0.0982759 0.0574391
v 0.2340434 0.0982759 -0.2664605
v 0.2120152 0.0209582 -0.2664605
v 0.2120152 0.0209582 0.0574391
v 0.2120152 0.1755937 -0.2664604
v 0.2066870 0.0982759 -0.2755074
v 0.1862187 0.1879538 -0.2755073
v 0.2340434 0.0982759 -0.2664605
v 0.2120152 0.0209582 -0.2664605
v 0.1862187 0.0085982 -0.2755074
v -0.2116035 0.0175707 -0.2645473
v -0.2348623 0.0982759 -0.2645473
v -0.2066855 0.0982760 -0.2755073
v -0.1862171 0.0085981 -0.2755073
v -0.2116035 0.1789811 -0.2645472
v -0.1862172 0.1879537 -0.2755073
v -0.1862172 0.1879537 0.0664861
v 0.2120152 0.0209582 0.0574391
v 0.2340434 0.0982759 0.0574391
v 0.2066871 0.0982759 0.0664861
v 0.2120152 0.1755936 0.0574392
v 0.1862187 0.1879537 0.0664861
v 0.1862187 0.0085981 0.0664860
v 0.2120152 0.0209582 -0.2664605
v -0.1207179 -0.0362354 0.1624979
v -0.0430832 -0.0694570 0.1624979
v -0.0430832 -0.0694570 0.4709100
v 0.0430848 -0.0694570 0.1624979
v 0.0430849 -0.0694570 0.4709100
v -0.1936170 0.0982758 0.4709099
v -0.1720456 0.0982758 0.1624979
v -0.1936170 0.0982758 0.1624979
v -0.1720455 0.0982758 0.4709099
g Body
usemtl DarkGrey
f 738 739 740
f 739 738 741
f 739 742 740
f 741 743 744
f 745 746 747
f 745 748 749
f 746 745 750
f 747 748 745
f 751 747 752
f 748 747 751
f 753 754 755
f 754 753 756
f 755 757 758
f 759 760 761
f 759 761 762
f 763 764 765
f 765 766 763
f 766 767 763
f 743 741 738
f 757 755 754
f 742 739 768
f 767 766 769
f 770 771 772
f 771 770 773
f 772 774 770
f 774 772 775
f 774 776 770
f 777 770 776
f 778 779 780
f 781 782 783
f 781 784 782
f 785 786 787
f 785 787 788
f 789 790 791
f 789 792 790
f 789 793 794
f 789 791 795
f 792 789 794
f 796 797 798
f 797 789 799
f 793 789 797
f 793 797 796
f 794 800 801
f 801 800 802
f 800 794 793
f 803 804 805
f 804 803 806
f 804 807 808
f 804 809 807
f 806 810 811
f 806 809 804
f 812 813 814
f 813 815 816
f 813 817 814
f 814 818 819
f 820 821 822
f 821 820 823
f 821 824 825
f 822 826 820
f 815 813 812
f 827 828 815
f 828 829 830
f 828 816 815
f 824 831 825
f 824 821 823
f 829 828 827
f 831 824 832
f 833 834 829
f 834 830 829
f 834 835 836
f 837 838 832
f 838 831 832
f 835 834 833
f 819 818 837
f 818 838 837
f 818 814 817
f 826 839 835
f 826 822 839
f 839 836 835
f 840 841 842
f 840 806 811
f 811 843 840
f 842 844 845
f 842 806 840
f 846 845 847
f 846 848 849
f 846 847 848
f 848 850 851
f 845 846 806
f 845 806 842
f 809 806 846
f 809 846 852
f 849 851 853
f 849 854 846
f 852 855 809
f 852 846 856
f 856 857 852
f 856 846 854
f 807 855 808
f 808 805 804
f 850 848 847
f 851 849 848
f 855 852 857
f 855 807 809
f 844 847 845
f 844 850 847
f 844 842 841
f 857 856 858
f 841 840 843
f 843 811 810
f 854 858 856
f 854 849 853
f 810 806 803
f 859 860 861
f 860 859 862
f 862 859 863
f 864 865 866
f 865 864 867
f 865 868 869
f 870 871 872
f 871 870 873
f 874 875 876
f 875 874 877
f 876 875 878
f 879 880 881
f 880 879 882
f 878 875 883
f 884 885 886
f 887 885 884
f 887 888 885
f 889 890 891
f 890 889 892
f 890 893 891
f 894 895 896
f 896 897 898
f 899 896 895
f 900 901 902
f 900 903 901
f 888 887 904
f 893 890 905
f 897 896 899
f 779 778 906
f 907 908 909
f 910 911 912
f 911 913 912
f 911 910 914
f 915 916 917
f 916 918 919
f 916 919 920
f 916 915 918
f 921 922 923
f 921 923 924
f 923 925 924
f 925 923 926
f 927 928 929
f 928 927 930
f 928 931 932
f 933 934 935
f 935 936 933
f 935 937 938
f 913 911 939
f 940 941 942
f 942 943 944
f 942 945 940
f 937 935 934
f 931 928 930
f 943 942 941
f 908 907 946
f 947 863 859
f 863 948 949
f 948 863 947
f 949 950 951
f 950 868 951
f 950 949 948
f 868 865 867
f 868 950 869
f 952 953 954
f 953 952 955
v -0.0486630 0.1505889 -0.7015575
v -0.0753644 0.1607289 -0.7398833
v -0.0617894 0.1733246 -0.7015575
v -0.0467011 0.1244094 -0.7015575
v -0.0663587 0.1451305 -0.7398833
v -0.1384710 0.1559997 -0.7398833
v -0.1252677 0.1682506 -0.7398833
v -0.1050320 0.1332014 -0.7806930
v -0.1345268 0.1842880 -0.7015575
v -0.1633629 0.1419934 -0.7015575
v -0.1537716 0.1664315 -0.7015575
v -0.1094403 0.1920262 -0.7015575
v -0.1080564 0.1735595 -0.7398833
v -0.1482745 0.0930782 -0.7015575
v -0.1346996 0.1056738 -0.7398833
v -0.1265833 0.0782894 -0.7015575
v -0.1614010 0.1158138 -0.7015575
v -0.0834806 0.1881134 -0.7015575
v -0.1198178 0.0955277 -0.7398833
v -0.1006236 0.0743766 -0.7015575
v -0.0902462 0.1708751 -0.7398833
v -0.0847963 0.0981522 -0.7398833
v -0.0755371 0.0821147 -0.7015575
v -0.0715930 0.1104031 -0.7398832
v -0.0562923 0.0999712 -0.7015575
v -0.1450513 0.1392333 -0.7398833
v -0.1437053 0.1212722 -0.7398833
v -0.0650127 0.1271695 -0.7398833
v -0.1020075 0.0928432 -0.7398832
v 0.0007195 0.0447641 -0.7015575
v -0.0073967 0.0173796 -0.7398833
v -0.0209717 0.0299753 -0.7015575
v -0.0072241 -0.0612346 -0.7015575
v 0.0020352 -0.0451971 -0.7398833
v 0.0178625 -0.0689728 -0.7015575
v -0.0111681 -0.0329463 -0.7398832
v 0.0222708 -0.0101480 -0.7806930
v 0.0370567 -0.0478217 -0.7398833
v 0.0438222 -0.0650600 -0.7015575
v 0.0192464 -0.0505061 -0.7398833
v 0.0655134 -0.0502711 -0.7015575
v 0.0519384 -0.0376754 -0.7398833
v 0.0786398 -0.0275355 -0.7015575
v 0.0609441 -0.0220771 -0.7398832
v 0.0806017 -0.0013559 -0.7015575
v -0.0340982 0.0072396 -0.7015575
v -0.0164025 0.0017812 -0.7398833
v 0.0557098 0.0126504 -0.7398832
v 0.0710105 0.0230823 -0.7015575
v -0.0360600 -0.0189399 -0.7015575
v -0.0177485 -0.0161799 -0.7398832
v -0.0264688 -0.0433781 -0.7015575
v 0.0517657 0.0409387 -0.7015574
v 0.0425065 0.0249013 -0.7398832
v 0.0266792 0.0486769 -0.7015575
v 0.0074850 0.0275258 -0.7398833
v 0.0252953 0.0302103 -0.7398833
v 0.0622901 -0.0041159 -0.7398832
v 0.0459840 0.1256541 -0.7015575
v 0.0575301 0.1401325 -0.7398833
v 0.0696371 0.1142634 -0.7015575
v 0.0737578 0.1323175 -0.7398833
v 0.0958900 0.1142634 -0.7015575
v 0.1192270 0.1893340 -0.7398832
v 0.1232349 0.1717742 -0.7398833
v 0.0827636 0.1717742 -0.7806931
v 0.1417533 0.1717742 -0.7015575
v 0.1359115 0.1973689 -0.7015575
v 0.1192270 0.1542144 -0.7398833
v 0.1079970 0.2034159 -0.7398833
v 0.1195431 0.2178942 -0.7015575
v 0.0958900 0.2292849 -0.7015575
v 0.0737578 0.2112308 -0.7398833
v 0.0696371 0.2292849 -0.7015575
v 0.0575301 0.2034159 -0.7398833
v 0.0459840 0.2178942 -0.7015575
v 0.1079970 0.1401325 -0.7398833
v 0.1195431 0.1256541 -0.7015575
v 0.1359115 0.1461795 -0.7015575
v 0.0296156 0.1973689 -0.7015575
v 0.0463001 0.1893340 -0.7398832
v 0.0237738 0.1717742 -0.7015575
v 0.0422922 0.1717742 -0.7398832
v 0.0463001 0.1542144 -0.7398833
v 0.0296156 0.1461795 -0.7015575
v 0.0917693 0.2112308 -0.7398833
v 0.0917693 0.1323175 -0.7398833
v -0.0248035 -0.2504527 -0.2322225
v -0.0452518 -0.2637838 -0.2098623
v -0.0452518 -0.2504527 -0.2322225
v -0.0657001 -0.2504527 -0.2322225
v -0.0248035 -0.2637838 -0.2098623
v -0.0452518 -0.2668862 -0.1746452
v -0.0642804 -0.1463069 -0.2483769
v -0.0248035 -0.2381163 -0.2184797
v -0.0233838 -0.1463069 -0.2483769
v -0.0657001 -0.2381163 -0.2184797
v -0.0657001 -0.2472453 -0.2016448
v -0.0248035 -0.2472453 -0.2016448
v -0.0657001 -0.2381163 -0.2184797
v -0.0657001 -0.2484959 -0.1729577
v -0.0248035 -0.2484960 -0.1729577
v -0.0248035 -0.2381163 -0.2184797
v -0.0248035 -0.2637838 -0.2098623
v -0.0248035 -0.2381163 -0.2184797
v -0.0248035 -0.2472453 -0.2016448
v -0.0248035 -0.2504527 -0.2322225
v -0.0233838 -0.1463069 -0.2668444
v -0.0233838 -0.1463069 -0.2483769
v -0.0248035 -0.2668862 -0.1746452
v -0.0233838 -0.1463069 -0.2668444
v -0.0248035 -0.2504527 -0.2322225
v -0.0438321 -0.1463069 -0.2668445
v -0.0452518 -0.2504527 -0.2322225
v -0.0642804 -0.1463069 -0.2668445
v -0.0642804 -0.1463069 -0.2668445
v -0.0657001 -0.2381163 -0.2184797
v -0.0642804 -0.1463069 -0.2483769
v -0.0657001 -0.2504527 -0.2322225
v -0.0657001 -0.2484959 -0.1729577
v -0.0657001 -0.2472453 -0.2016448
v -0.0657001 -0.2668862 -0.1746452
v -0.0657001 -0.2637838 -0.2098623
v -0.0657001 -0.2492556 -0.0381562
v -0.0657001 -0.2492556 -0.0381562
v -0.0248035 -0.2492556 -0.0381562
v -0.0248035 -0.2492556 -0.0381562
v -0.0248035 -0.2484960 -0.1729577
v -0.0248035 -0.2665325 -0.0287713
v -0.0248035 -0.2668862 -0.1746452
v -0.0248035 -0.2665325 -0.0287713
v -0.0452518 -0.2665325 -0.0287713
v -0.0657001 -0.2637838 -0.2098623
v -0.0657001 -0.2668862 -0.1746452
v -0.0657001 -0.2665325 -0.0287713
v -0.0657001 -0.2665325 -0.0287713
v -0.0657001 -0.2504527 -0.2322225
v -0.1655618 0.0982760 -0.4025307
v 0.0368419 0.2596875 -0.4025307
v -0.0368404 0.2596875 -0.4025307
v -0.1491660 0.1701109 -0.4025307
v -0.1032258 -0.0311660 -0.4025307
v 0.1032273 -0.0311660 -0.4025308
v 0.1655633 0.0982760 -0.4025308
v 0.1491675 0.1701109 -0.4025307
v 0.1032273 0.2277180 -0.4025307
v -0.0368404 -0.0631356 -0.4025308
v 0.0368419 -0.0631356 -0.4025308
v -0.1491660 0.0264411 -0.4025308
v -0.1032259 0.2277180 -0.4025307
v 0.1491674 0.0264411 -0.4025308
v -0.1032258 -0.0311660 -0.5241299
v 0.1491675 0.1701109 -0.5241299
v 0.1032273 -0.0311660 -0.5241299
v 0.0368419 -0.0631356 -0.5241299
v -0.0368404 -0.0631356 -0.5241299
v -0.1655618 0.0982760 -0.5241299
v 0.0368419 0.2596876 -0.5241299
v 0.1032273 0.2277180 -0.5241299
v -0.0368404 0.2596876 -0.5241299
v 0.1655633 0.0982760 -0.5241299
v 0.1491674 0.0264411 -0.5241299
v -0.1491660 0.1701109 -0.5241298
v -0.1491660 0.0264411 -0.5241299
v -0.1032259 0.2277180 -0.5241299
v -0.0368404 0.2596876 -0.5241299
v -0.0368404 0.2596875 -0.4025307
v 0.0368419 0.2596876 -0.5241299
v 0.0368419 0.2596875 -0.4025307
v -0.1032259 0.2277180 -0.5241299
v -0.1032259 0.2277180 -0.4025307
v 0.1032273 0.2277180 -0.4025307
v 0.1032273 0.2277180 -0.5241299
v 0.0368419 -0.0631356 -0.5241299
v -0.0368404 -0.0631356 -0.4025308
v -0.0368404 -0.0631356 -0.5241299
v 0.0368419 -0.0631356 -0.4025308
v -0.1032258 -0.0311660 -0.5241299
v 0.1032273 -0.0311660 -0.4025308
v -0.1491660 0.1701109 -0.4025307
v 0.1491674 0.0264411 -0.5241299
v 0.1491674 0.0264411 -0.4025308
v 0.1032273 -0.0311660 -0.5241299
v -0.1491660 0.1701109 -0.5241298
v -0.1655618 0.0982760 -0.4025307
v 0.1655633 0.0982760 -0.5241299
v 0.1655633 0.0982760 -0.4025308
v -0.1655618 0.0982760 -0.5241299
v -0.1491660 0.0264411 -0.4025308
v 0.1491675 0.1701109 -0.5241299
v 0.1491675 0.1701109 -0.4025307
v -0.1491660 0.0264411 -0.5241299
v -0.1032258 -0.0311660 -0.4025307
v 0.0845365 0.2711609 0.1896363
v -0.0845348 0.2711609 0.1896363
v -0.0845348 0.2246383 0.1896362
v 0.0845365 0.2246383 0.1896362
v 0.0500206 0.3244543 0.1896362
v -0.0500189 0.3244543 0.1896362
v -0.0500189 0.3244543 0.1896362
v 0.0500205 0.3244545 -0.5792131
v -0.0500190 0.3244545 -0.5792131
v 0.0500206 0.3244543 0.1896362
v 0.0845364 0.2711610 -0.5792131
v -0.0845350 0.2711610 -0.5792131
v -0.0500190 0.3244545 -0.5792131
v 0.0500205 0.3244545 -0.5792131
v -0.0845350 0.2246384 -0.5792131
v 0.0500206 0.3244543 0.1896362
v 0.0845364 0.2711610 -0.5792131
v 0.0500205 0.3244545 -0.5792131
v 0.0845365 0.2246383 0.1896362
v 0.0845364 0.2246384 -0.5792131
v 0.0845365 0.2711609 0.1896363
v -0.0500189 0.3244543 0.1896362
v -0.0500190 0.3244545 -0.5792131
v -0.0845350 0.2711610 -0.5792131
v -0.0845348 0.2711609 0.1896363
v -0.0845348 0.2246383 0.1896362
v 0.1043224 0.2287770 -0.5628735
v -0.0617264 0.3668383 -0.5628734
v -0.1043210 0.2287770 -0.5628735
v 0.0617279 0.3668383 -0.5628734
v 0.1043224 0.2287770 -0.6130001
v -0.0617264 0.3668384 -0.6130001
v 0.0617279 0.3668384 -0.6130001
v -0.1043210 0.2287770 -0.6130001
v -0.1043210 0.2287770 -0.6130001
v 0.1043224 0.2287770 -0.6130001
v 0.1043224 0.2287770 -0.5628735
v -0.1043210 0.2287770 -0.5628735
v 0.1043224 0.2287770 -0.6130001
v 0.0617279 0.3668384 -0.6130001
v 0.0617279 0.3668383 -0.5628734
v 0.1043224 0.2287770 -0.5628735
v 0.0617279 0.3668384 -0.6130001
v -0.0617264 0.3668384 -0.6130001
v -0.0617264 0.3668383 -0.5628734
v 0.0617279 0.3668383 -0.5628734
v -0.0617264 0.3668383 -0.5628734
v -0.1043210 0.2287770 -0.6130001
v -0.1043210 0.2287770 -0.5628735
v -0.0617264 0.3668384 -0.6130001
v -0.0845348 0.2246383 0.1896362
v 0.0845364 0.2246384 -0.5792131
v 0.0845365 0.2246383 0.1896362
v -0.0845350 0.2246384 -0.5792131
v 0.0845364 0.2246384 -0.5792131
v -0.0845350 0.2246384 -0.5792131
v -0.1378400 0.2711227 0.4208537
v -0.1991849 0.0023530 0.4208537
v -0.2210787 0.0982758 0.4208537
v -0.1991850 0.1941985 0.4208537
v -0.0491939 -0.1172608 0.4208537
v -0.1378400 -0.0745712 0.4208537
v 0.2210803 0.0982758 0.4208537
v 0.0491957 0.3138124 0.4208537
v 0.1378417 0.2711227 0.4208537
v 0.1991866 0.1941986 0.4208536
v -0.0491940 0.3138124 0.4208537
v 0.1991866 0.0023530 0.4208537
v 0.0491957 -0.1172608 0.4208537
v 0.1378417 -0.0745711 0.4208537
v -0.0491939 -0.1172608 0.5209048
v -0.1991849 0.0023530 0.5209047
v -0.1378400 -0.0745711 0.5209047
v 0.2210803 0.0982758 0.5209048
v -0.1378400 0.2711227 0.5209048
v -0.2210787 0.0982758 0.5209047
v 0.1991866 0.0023530 0.5209048
v 0.0491957 -0.1172608 0.5209048
v 0.1378417 -0.0745711 0.5209048
v 0.1378417 0.2711227 0.5209048
v 0.0491957 0.3138124 0.5209047
v -0.0491940 0.3138124 0.5209047
v -0.1991850 0.1941986 0.5209048
v 0.1991866 0.1941986 0.5209048
v -0.1991849 0.0023530 0.5209047
v -0.1991849 0.0023530 0.4208537
v -0.1378400 -0.0745711 0.5209047
v -0.1378400 -0.0745712 0.4208537
v -0.0491939 -0.1172608 0.4208537
v -0.0491939 -0.1172608 0.5209048
v 0.0491957 0.3138124 0.5209047
v 0.1378417 0.2711227 0.4208537
v 0.0491957 0.3138124 0.4208537
v 0.1991866 0.1941986 0.5209048
v 0.1991866 0.1941986 0.4208536
v 0.1378417 0.2711227 0.5209048
v -0.0491940 0.3138124 0.5209047
v 0.0491957 -0.1172608 0.5209048
v -0.0491940 0.3138124 0.4208537
v -0.1378400 0.2711227 0.4208537
v -0.1378400 0.2711227 0.5209048
v 0.0491957 -0.1172608 0.4208537
v 0.1378417 -0.0745711 0.5209048
v -0.1991850 0.1941985 0.4208537
v -0.1991850 0.1941986 0.5209048
v 0.1378417 -0.0745711 0.4208537
v 0.1991866 0.0023530 0.5209048
v -0.2210787 0.0982758 0.5209047
v -0.2210787 0.0982758 0.4208537
v 0.1991866 0.0023530 0.4208537
v 0.2210803 0.0982758 0.4208537
v 0.2210803 0.0982758 0.5209048
g Body
usemtl Grey
f 956 957 958
f 959 960 956
f 961 962 963
f 961 964 962
f 961 965 966
f 964 961 966
f 962 967 968
f 962 968 963
f 969 970 971
f 972 970 969
f 958 957 973
f 971 974 975
f 973 976 967
f 975 977 978
f 967 962 964
f 978 979 980
f 980 979 959
f 965 961 981
f 965 982 972
f 983 959 979
f 983 979 963
f 979 977 963
f 979 978 977
f 977 984 963
f 977 975 984
f 981 961 963
f 982 981 963
f 982 965 981
f 960 959 983
f 960 983 963
f 970 972 982
f 970 982 963
f 957 956 960
f 957 960 963
f 974 971 970
f 974 970 963
f 976 973 957
f 976 957 963
f 984 975 974
f 984 974 963
f 968 967 976
f 968 976 963
f 985 986 987
f 988 989 990
f 989 988 991
f 989 991 992
f 990 993 994
f 995 990 989
f 995 989 992
f 996 997 998
f 998 999 1000
f 1001 986 1002
f 1000 1003 1004
f 1005 1002 1006
f 1005 991 1007
f 1004 1003 1008
f 1007 991 988
f 1008 1009 1010
f 1010 1011 985
f 994 997 996
f 1011 1012 992
f 1011 1010 1012
f 1012 1009 992
f 1012 1010 1009
f 1009 1008 1003
f 1009 1003 992
f 993 995 992
f 993 990 995
f 997 993 992
f 997 994 993
f 986 1011 992
f 986 985 1011
f 986 1001 987
f 999 997 992
f 999 998 997
f 1002 986 992
f 1002 1005 1001
f 1013 1000 999
f 1013 999 992
f 1006 1002 992
f 1003 1013 992
f 1003 1000 1013
f 991 1006 992
f 991 1005 1006
f 1014 1015 1016
f 1016 1017 1018
f 1019 1020 1021
f 1019 1022 1020
f 1022 1019 1023
f 1020 1024 1021
f 1020 1022 1024
f 1023 1025 1026
f 1027 1028 1029
f 1029 1030 1031
f 1018 1032 1033
f 1033 1032 1034
f 1035 1030 1036
f 1034 1024 1022
f 1037 1036 1038
f 1037 1039 1040
f 1040 1015 1014
f 1026 1025 1027
f 1015 1039 1021
f 1015 1040 1039
f 1039 1037 1038
f 1039 1038 1021
f 1038 1036 1021
f 1025 1023 1019
f 1025 1019 1021
f 1041 1027 1025
f 1041 1025 1021
f 1017 1015 1021
f 1017 1016 1015
f 1028 1027 1041
f 1028 1041 1021
f 1042 1018 1017
f 1042 1017 1021
f 1030 1028 1021
f 1030 1035 1031
f 1030 1029 1028
f 1032 1042 1021
f 1032 1018 1042
f 1036 1030 1021
f 1036 1037 1035
f 1024 1032 1021
f 1024 1034 1032
f 1043 1044 1045
f 1044 1046 1045
f 1044 1043 1047
f 1047 1048 1044
f 1049 1050 1051
f 1050 1049 1052
f 1053 1054 1055
f 1054 1056 1057
f 1055 1054 1058
f 1059 1060 1061
f 1060 1059 1062
f 1060 1063 1064
f 1061 1065 1059
f 1062 1063 1060
f 1066 1067 1068
f 1068 1069 1070
f 1068 1067 1069
f 1071 1072 1073
f 1072 1071 1074
f 1075 1076 1077
f 1076 1078 1077
f 1077 1079 1075
f 1078 1076 1072
f 1078 1072 1074
f 1056 1054 1053
f 1057 1080 1081
f 1080 1057 1056
f 1082 1065 1083
f 1065 1082 1084
f 1065 1061 1083
f 1048 1047 1085
f 1048 1086 1087
f 1048 1088 1044
f 1086 1048 1085
f 1087 1089 1048
f 1079 1077 1090
f 1089 1087 1091
f 1088 1048 1089
f 1070 1069 1092
f 1046 1044 1088
f 1093 1094 1095
f 1093 1095 1096
f 1094 1093 1097
f 1094 1097 1098
f 1094 1098 1099
f 1094 1099 1100
f 1094 1100 1101
f 1102 1098 1097
f 1098 1102 1103
f 1097 1093 1104
f 1096 1095 1105
f 1099 1098 1106
f 1107 1108 1109
f 1107 1110 1111
f 1108 1107 1112
f 1108 1113 1114
f 1108 1115 1113
f 1109 1108 1116
f 1109 1116 1117
f 1110 1107 1109
f 1118 1108 1112
f 1112 1107 1119
f 1115 1108 1118
f 1115 1118 1120
f 1121 1122 1123
f 1122 1124 1123
f 1122 1125 1126
f 1123 1127 1128
f 1129 1130 1131
f 1130 1129 1132
f 1131 1130 1133
f 1132 1129 1134
f 1125 1135 1126
f 1125 1122 1121
f 1134 1136 1137
f 1138 1134 1129
f 1135 1125 1139
f 1139 1140 1135
f 1136 1134 1138
f 1137 1141 1142
f 1140 1139 1143
f 1143 1144 1140
f 1141 1137 1136
f 1142 1145 1146
f 1145 1142 1141
f 1146 1128 1127
f 1144 1143 1147
f 1144 1133 1148
f 1133 1144 1147
f 1148 1133 1130
f 1127 1123 1124
f 1128 1146 1145
f 1149 1150 1151
f 1149 1151 1152
f 1150 1149 1153
f 1150 1153 1154
f 1155 1156 1157
f 1156 1155 1158
f 1159 1160 1161
f 1159 1161 1162
f 1159 1163 1160
f 1164 1165 1166
f 1165 1167 1168
f 1165 1164 1169
f 1170 1171 1172
f 1170 1172 1173
f 1172 1174 1173
f 1175 1176 1177
f 1176 1175 1178
f 1179 1180 1181
f 1179 1182 1180
f 1183 1184 1185
f 1185 1186 1183
f 1187 1188 1189
f 1189 1190 1187
f 1191 1192 1193
f 1193 1194 1191
f 1195 1196 1197
f 1196 1195 1198
f 1199 1200 1201
f 1200 1199 1202
f 1163 1159 1203
f 1167 1165 1169
f 1174 1172 1204
f 1205 1206 1207
f 1205 1207 1208
f 1206 1209 1210
f 1211 1212 1213
f 1211 1206 1205
f 1211 1213 1214
f 1212 1211 1215
f 1215 1211 1205
f 1216 1209 1211
f 1209 1216 1217
f 1209 1206 1211
f 1217 1216 1218
f 1219 1220 1221
f 1219 1222 1220
f 1220 1223 1224
f 1225 1219 1226
f 1225 1226 1227
f 1222 1219 1225
f 1222 1228 1229
f 1222 1223 1220
f 1223 1222 1230
f 1224 1223 1231
f 1228 1222 1232
f 1230 1222 1229
f 1233 1234 1235
f 1234 1236 1235
f 1235 1237 1238
f 1239 1240 1241
f 1240 1242 1243
f 1240 1239 1244
f 1241 1245 1239
f 1237 1246 1238
f 1237 1235 1236
f 1245 1241 1247
f 1245 1248 1249
f 1246 1237 1250
f 1250 1251 1246
f 1248 1245 1247
f 1248 1252 1253
f 1249 1248 1253
f 1251 1250 1254
f 1254 1255 1251
f 1253 1252 1256
f 1252 1257 1256
f 1255 1254 1258
f 1255 1259 1260
f 1256 1257 1233
f 1257 1234 1233
f 1259 1242 1260
f 1259 1255 1258
f 1242 1259 1243
f 1242 1240 1244
